<?xml version="1.0" encoding="UTF-8" standalone="no"?>
<!DOCTYPE svg PUBLIC "-//W3C//DTD SVG 1.1//EN"
 "http://www.w3.org/Graphics/SVG/1.1/DTD/svg11.dtd">
<!-- Generated by graphviz version 2.34.0 (20140110.0949)
 -->
<!-- Title: CSimulador_Telha_GanhosEnergia Pages: 1 -->
<svg width="1153pt" height="1546pt"
 viewBox="0.00 0.00 1153.00 1546.00" xmlns="http://www.w3.org/2000/svg" xmlns:xlink="http://www.w3.org/1999/xlink">
<g id="graph0" class="graph" transform="scale(1 1) rotate(0) translate(4 1542)">
<title>CSimulador_Telha_GanhosEnergia</title>
<polygon fill="white" stroke="white" points="-4,4 -4,-1542 1149,-1542 1149,4 -4,4"/>
<!-- Node1 -->
<g id="node1" class="node"><title>Node1</title>
<polygon fill="#bfbfbf" stroke="black" points="6,-0.5 6,-189.5 190,-189.5 190,-0.5 6,-0.5"/>
<text text-anchor="middle" x="98" y="-177.5" font-family="Helvetica,sans-Serif" font-size="10.00">CSimulador_Telha_GanhosEnergia</text>
<polyline fill="none" stroke="black" points="6,-170.5 190,-170.5 "/>
<text text-anchor="start" x="14" y="-158.5" font-family="Helvetica,sans-Serif" font-size="10.00"># giv</text>
<text text-anchor="start" x="14" y="-147.5" font-family="Helvetica,sans-Serif" font-size="10.00"># gesp</text>
<text text-anchor="start" x="14" y="-136.5" font-family="Helvetica,sans-Serif" font-size="10.00"># gec</text>
<text text-anchor="start" x="14" y="-125.5" font-family="Helvetica,sans-Serif" font-size="10.00"># gic</text>
<text text-anchor="start" x="14" y="-114.5" font-family="Helvetica,sans-Serif" font-size="10.00"># gicl</text>
<text text-anchor="start" x="14" y="-103.5" font-family="Helvetica,sans-Serif" font-size="10.00"># bm</text>
<text text-anchor="start" x="14" y="-92.5" font-family="Helvetica,sans-Serif" font-size="10.00"># geroli</text>
<polyline fill="none" stroke="black" points="6,-85.5 190,-85.5 "/>
<text text-anchor="start" x="14" y="-73.5" font-family="Helvetica,sans-Serif" font-size="10.00">+ CSimulador_Telha_GanhosEnergia()</text>
<text text-anchor="start" x="14" y="-62.5" font-family="Helvetica,sans-Serif" font-size="10.00">+ ~CSimulador_Telha_Ganhos</text>
<text text-anchor="start" x="14" y="-51.5" font-family="Helvetica,sans-Serif" font-size="10.00">Energia()</text>
<text text-anchor="start" x="14" y="-40.5" font-family="Helvetica,sans-Serif" font-size="10.00">+ DadosDefault()</text>
<text text-anchor="start" x="14" y="-29.5" font-family="Helvetica,sans-Serif" font-size="10.00">+ EntrarDadosObjeto()</text>
<text text-anchor="start" x="14" y="-18.5" font-family="Helvetica,sans-Serif" font-size="10.00">&#45; CalcularGanhosEnergia_tp()</text>
<text text-anchor="start" x="14" y="-7.5" font-family="Helvetica,sans-Serif" font-size="10.00">&#45; CalcularGanhosEnergia_ti()</text>
</g>
<!-- Node2 -->
<g id="node2" class="node"><title>Node2</title>
<g id="a_node2"><a xlink:href="classCSimulador__Telha.xhtml" target="_top" xlink:title="Representa um simulador de um meio poroso unidimensional discretizado (acrescenta conceitos simulação...">
<polygon fill="white" stroke="black" points="296.5,-228.5 296.5,-461.5 439.5,-461.5 439.5,-228.5 296.5,-228.5"/>
<text text-anchor="middle" x="368" y="-449.5" font-family="Helvetica,sans-Serif" font-size="10.00">CSimulador_Telha</text>
<polyline fill="none" stroke="black" points="296.5,-442.5 439.5,-442.5 "/>
<text text-anchor="start" x="304.5" y="-430.5" font-family="Helvetica,sans-Serif" font-size="10.00"># dta</text>
<text text-anchor="start" x="304.5" y="-419.5" font-family="Helvetica,sans-Serif" font-size="10.00"># dtmax</text>
<polyline fill="none" stroke="black" points="296.5,-412.5 439.5,-412.5 "/>
<text text-anchor="start" x="304.5" y="-400.5" font-family="Helvetica,sans-Serif" font-size="10.00">+ CSimulador_Telha()</text>
<text text-anchor="start" x="304.5" y="-389.5" font-family="Helvetica,sans-Serif" font-size="10.00">+ ~CSimulador_Telha()</text>
<text text-anchor="start" x="304.5" y="-378.5" font-family="Helvetica,sans-Serif" font-size="10.00">+ DadosDefault()</text>
<text text-anchor="start" x="304.5" y="-367.5" font-family="Helvetica,sans-Serif" font-size="10.00">+ EntrarDadosObjeto()</text>
<text text-anchor="start" x="304.5" y="-356.5" font-family="Helvetica,sans-Serif" font-size="10.00">+ Calcular_ti_ol_tp()</text>
<text text-anchor="start" x="304.5" y="-345.5" font-family="Helvetica,sans-Serif" font-size="10.00">+ Calcular_olm_tm()</text>
<text text-anchor="start" x="304.5" y="-334.5" font-family="Helvetica,sans-Serif" font-size="10.00">+ SaidaTela()</text>
<text text-anchor="start" x="304.5" y="-323.5" font-family="Helvetica,sans-Serif" font-size="10.00">&#45; AvancarTempo()</text>
<text text-anchor="start" x="304.5" y="-312.5" font-family="Helvetica,sans-Serif" font-size="10.00">&#45; Calcular_wl_h_rov_dif_k()</text>
<text text-anchor="start" x="304.5" y="-301.5" font-family="Helvetica,sans-Serif" font-size="10.00">&#45; Calcular_ti()</text>
<text text-anchor="start" x="304.5" y="-290.5" font-family="Helvetica,sans-Serif" font-size="10.00">&#45; Calcular_ol()</text>
<text text-anchor="start" x="304.5" y="-279.5" font-family="Helvetica,sans-Serif" font-size="10.00">&#45; Calcular_tp()</text>
<text text-anchor="start" x="304.5" y="-268.5" font-family="Helvetica,sans-Serif" font-size="10.00">&#45; Calcular_aibicidi_ti()</text>
<text text-anchor="start" x="304.5" y="-257.5" font-family="Helvetica,sans-Serif" font-size="10.00">&#45; Calcular_aibicidi_ol()</text>
<text text-anchor="start" x="304.5" y="-246.5" font-family="Helvetica,sans-Serif" font-size="10.00">&#45; Calcular_efeitos_chuva_ol()</text>
<text text-anchor="start" x="304.5" y="-235.5" font-family="Helvetica,sans-Serif" font-size="10.00">&#45; Calcular_aibicidi_tp()</text>
</a>
</g>
</g>
<!-- Node2&#45;&gt;Node1 -->
<g id="edge1" class="edge"><title>Node2&#45;&gt;Node1</title>
<path fill="none" stroke="midnightblue" d="M288.627,-271.094C257.817,-242.795 222.322,-210.192 190.376,-180.849"/>
<polygon fill="none" stroke="midnightblue" points="286.621,-274.005 296.354,-278.192 291.357,-268.849 286.621,-274.005"/>
</g>
<!-- Node3 -->
<g id="node3" class="node"><title>Node3</title>
<g id="a_node3"><a xlink:href="classCMeioPoroso__Telha__Discretizada__TDMA.xhtml" target="_top" xlink:title="Representa o conjunto de todos os nós de um meio poroso unidimensional discretizado (como uma telha)...">
<polygon fill="white" stroke="black" points="794,-511 794,-733 1008,-733 1008,-511 794,-511"/>
<text text-anchor="middle" x="901" y="-721" font-family="Helvetica,sans-Serif" font-size="10.00">CMeioPoroso_Telha_Discretizada_TDMA</text>
<polyline fill="none" stroke="black" points="794,-714 1008,-714 "/>
<text text-anchor="start" x="802" y="-702" font-family="Helvetica,sans-Serif" font-size="10.00"># dif</text>
<text text-anchor="start" x="802" y="-691" font-family="Helvetica,sans-Serif" font-size="10.00"># esp</text>
<text text-anchor="start" x="802" y="-680" font-family="Helvetica,sans-Serif" font-size="10.00"># ol</text>
<text text-anchor="start" x="802" y="-669" font-family="Helvetica,sans-Serif" font-size="10.00"># tp</text>
<text text-anchor="start" x="802" y="-658" font-family="Helvetica,sans-Serif" font-size="10.00"># ola</text>
<text text-anchor="start" x="802" y="-647" font-family="Helvetica,sans-Serif" font-size="10.00"># tpa</text>
<text text-anchor="start" x="802" y="-636" font-family="Helvetica,sans-Serif" font-size="10.00"># espaa</text>
<text text-anchor="start" x="802" y="-625" font-family="Helvetica,sans-Serif" font-size="10.00"># olaa</text>
<text text-anchor="start" x="802" y="-614" font-family="Helvetica,sans-Serif" font-size="10.00"># tpaa</text>
<text text-anchor="start" x="802" y="-603" font-family="Helvetica,sans-Serif" font-size="10.00"># olChuva</text>
<text text-anchor="start" x="802" y="-592" font-family="Helvetica,sans-Serif" font-size="10.00">&#45; ti_inicial</text>
<text text-anchor="start" x="802" y="-581" font-family="Helvetica,sans-Serif" font-size="10.00">&#45; ol_inicial</text>
<polyline fill="none" stroke="black" points="794,-574 1008,-574 "/>
<text text-anchor="start" x="802" y="-562" font-family="Helvetica,sans-Serif" font-size="10.00">+ CMeioPoroso_Telha_Discretizada_TDMA()</text>
<text text-anchor="start" x="802" y="-551" font-family="Helvetica,sans-Serif" font-size="10.00">+ ~CMeioPoroso_Telha</text>
<text text-anchor="start" x="802" y="-540" font-family="Helvetica,sans-Serif" font-size="10.00">_Discretizada_TDMA()</text>
<text text-anchor="start" x="802" y="-529" font-family="Helvetica,sans-Serif" font-size="10.00">+ DadosDefault()</text>
<text text-anchor="start" x="802" y="-518" font-family="Helvetica,sans-Serif" font-size="10.00">+ EntrarDadosObjeto()</text>
</a>
</g>
</g>
<!-- Node3&#45;&gt;Node2 -->
<g id="edge2" class="edge"><title>Node3&#45;&gt;Node2</title>
<path fill="none" stroke="midnightblue" d="M809.884,-503.636C800.38,-494.963 790.377,-486.918 780,-480 673.453,-408.966 526.404,-373.148 439.847,-357.122"/>
<polygon fill="none" stroke="midnightblue" points="807.72,-506.406 817.398,-510.717 812.521,-501.312 807.72,-506.406"/>
</g>
<!-- Node4 -->
<g id="node4" class="node"><title>Node4</title>
<g id="a_node4"><a xlink:href="classCMeioPoroso__Telha.xhtml" target="_top" xlink:title="Representa meio poroso agregando funções difusidade, condutividade e adsorção. Representa ao mesmo te...">
<polygon fill="white" stroke="black" points="510,-948 510,-1038 636,-1038 636,-948 510,-948"/>
<text text-anchor="middle" x="573" y="-1026" font-family="Helvetica,sans-Serif" font-size="10.00">CMeioPoroso_Telha</text>
<polyline fill="none" stroke="black" points="510,-1019 636,-1019 "/>
<text text-anchor="middle" x="573" y="-1007" font-family="Helvetica,sans-Serif" font-size="10.00"> </text>
<polyline fill="none" stroke="black" points="510,-1000 636,-1000 "/>
<text text-anchor="start" x="518" y="-988" font-family="Helvetica,sans-Serif" font-size="10.00">+ CMeioPoroso_Telha()</text>
<text text-anchor="start" x="518" y="-977" font-family="Helvetica,sans-Serif" font-size="10.00">+ ~CMeioPoroso_Telha()</text>
<text text-anchor="start" x="518" y="-966" font-family="Helvetica,sans-Serif" font-size="10.00">+ DadosDefault()</text>
<text text-anchor="start" x="518" y="-955" font-family="Helvetica,sans-Serif" font-size="10.00">+ EntrarDadosObjeto()</text>
</a>
</g>
</g>
<!-- Node4&#45;&gt;Node3 -->
<g id="edge3" class="edge"><title>Node4&#45;&gt;Node3</title>
<path fill="none" stroke="midnightblue" d="M619.04,-940.205C666.554,-886.752 742.121,-801.738 803.07,-733.171"/>
<polygon fill="none" stroke="midnightblue" points="616.266,-938.057 612.239,-947.856 621.498,-942.708 616.266,-938.057"/>
</g>
<!-- Node13 -->
<g id="node13" class="node"><title>Node13</title>
<g id="a_node13"><a xlink:href="classCFuncao__wl.xhtml" target="_top" xlink:title="Classe de associação, usada para cálculo do conteúdo de massa mássico wl, a partir ol...">
<polygon fill="white" stroke="black" points="212.5,-555 212.5,-689 331.5,-689 331.5,-555 212.5,-555"/>
<text text-anchor="middle" x="272" y="-677" font-family="Helvetica,sans-Serif" font-size="10.00">CFuncao_wl</text>
<polyline fill="none" stroke="black" points="212.5,-670 331.5,-670 "/>
<text text-anchor="middle" x="272" y="-658" font-family="Helvetica,sans-Serif" font-size="10.00"> </text>
<polyline fill="none" stroke="black" points="212.5,-651 331.5,-651 "/>
<text text-anchor="start" x="220.5" y="-639" font-family="Helvetica,sans-Serif" font-size="10.00">+ CFuncao_wl()</text>
<text text-anchor="start" x="220.5" y="-628" font-family="Helvetica,sans-Serif" font-size="10.00">+ ~CFuncao_wl()</text>
<text text-anchor="start" x="220.5" y="-617" font-family="Helvetica,sans-Serif" font-size="10.00">+ DadosDefault()</text>
<text text-anchor="start" x="220.5" y="-606" font-family="Helvetica,sans-Serif" font-size="10.00">+ EntrarDadosFuncao()</text>
<text text-anchor="start" x="220.5" y="-595" font-family="Helvetica,sans-Serif" font-size="10.00">+ Wl()</text>
<text text-anchor="start" x="220.5" y="-584" font-family="Helvetica,sans-Serif" font-size="10.00">+ Fluido()</text>
<text text-anchor="start" x="220.5" y="-573" font-family="Helvetica,sans-Serif" font-size="10.00">+ Telha()</text>
<text text-anchor="start" x="220.5" y="-562" font-family="Helvetica,sans-Serif" font-size="10.00">+ operator()()</text>
</a>
</g>
</g>
<!-- Node4&#45;&gt;Node13 -->
<g id="edge21" class="edge"><title>Node4&#45;&gt;Node13</title>
<path fill="none" stroke="#404040" d="M530.921,-947.885C483.854,-897.715 406.312,-812.554 346,-734 337.515,-722.949 328.932,-710.962 320.765,-699.09"/>
<polygon fill="none" stroke="#404040" points="320.764,-699.089 314.082,-696.378 314.014,-689.167 320.696,-691.878 320.764,-699.089"/>
<text text-anchor="middle" x="476" y="-810.5" font-family="Helvetica,sans-Serif" font-size="10.00"> #telha</text>
</g>
<!-- Node5 -->
<g id="node5" class="node"><title>Node5</title>
<polygon fill="white" stroke="#bfbfbf" points="532.5,-1480.5 532.5,-1537.5 577.5,-1537.5 577.5,-1480.5 532.5,-1480.5"/>
<text text-anchor="middle" x="555" y="-1525.5" font-family="Helvetica,sans-Serif" font-size="10.00">double</text>
<polyline fill="none" stroke="#bfbfbf" points="532.5,-1518.5 577.5,-1518.5 "/>
<text text-anchor="middle" x="555" y="-1506.5" font-family="Helvetica,sans-Serif" font-size="10.00"> </text>
<polyline fill="none" stroke="#bfbfbf" points="532.5,-1499.5 577.5,-1499.5 "/>
<text text-anchor="middle" x="555" y="-1487.5" font-family="Helvetica,sans-Serif" font-size="10.00"> </text>
</g>
<!-- Node5&#45;&gt;Node1 -->
<g id="edge28" class="edge"><title>Node5&#45;&gt;Node1</title>
<path fill="none" stroke="#404040" d="M532.229,-1508.34C449.309,-1509.18 164.402,-1508.55 89,-1462 25.9417,-1423.07 0,-1395.11 0,-1321 0,-1321 0,-1321 0,-344 0,-294.811 16.8815,-243.732 36.6315,-200.806"/>
<polygon fill="none" stroke="#404040" points="36.7124,-200.635 35.6631,-193.5 41.8451,-189.788 42.8944,-196.922 36.7124,-200.635"/>
<text text-anchor="middle" x="16" y="-865.5" font-family="Helvetica,sans-Serif" font-size="10.00"> #gev</text>
<text text-anchor="middle" x="16" y="-854.5" font-family="Helvetica,sans-Serif" font-size="10.00">#geroc</text>
<text text-anchor="middle" x="16" y="-843.5" font-family="Helvetica,sans-Serif" font-size="10.00">#geroci</text>
<text text-anchor="middle" x="16" y="-832.5" font-family="Helvetica,sans-Serif" font-size="10.00">#be</text>
<text text-anchor="middle" x="16" y="-821.5" font-family="Helvetica,sans-Serif" font-size="10.00">#geci</text>
<text text-anchor="middle" x="16" y="-810.5" font-family="Helvetica,sans-Serif" font-size="10.00">#gecl</text>
<text text-anchor="middle" x="16" y="-799.5" font-family="Helvetica,sans-Serif" font-size="10.00">#gici</text>
<text text-anchor="middle" x="16" y="-788.5" font-family="Helvetica,sans-Serif" font-size="10.00">#gir</text>
<text text-anchor="middle" x="16" y="-777.5" font-family="Helvetica,sans-Serif" font-size="10.00">#gerol</text>
<text text-anchor="middle" x="16" y="-766.5" font-family="Helvetica,sans-Serif" font-size="10.00">#giri</text>
<text text-anchor="middle" x="16" y="-755.5" font-family="Helvetica,sans-Serif" font-size="10.00">...</text>
</g>
<!-- Node5&#45;&gt;Node2 -->
<g id="edge22" class="edge"><title>Node5&#45;&gt;Node2</title>
<path fill="none" stroke="#404040" d="M577.913,-1508.56C641.899,-1508.68 821.861,-1498.84 884,-1388 913.558,-1335.28 891.987,-1311.91 884,-1252 875.481,-1188.09 891.97,-1157.21 846,-1112 822.789,-1089.17 799.976,-1114.88 775,-1094 660.016,-997.877 579.942,-604.157 496,-480 482.141,-459.501 465.055,-439.223 447.933,-420.885"/>
<polygon fill="none" stroke="#404040" points="447.802,-420.747 440.77,-419.151 439.538,-412.046 446.57,-413.642 447.802,-420.747"/>
<text text-anchor="middle" x="812.5" y="-1045.5" font-family="Helvetica,sans-Serif" font-size="10.00"> #dt</text>
<text text-anchor="middle" x="812.5" y="-1034.5" font-family="Helvetica,sans-Serif" font-size="10.00">#tim</text>
<text text-anchor="middle" x="812.5" y="-1023.5" font-family="Helvetica,sans-Serif" font-size="10.00">#wlm</text>
<text text-anchor="middle" x="812.5" y="-1012.5" font-family="Helvetica,sans-Serif" font-size="10.00">#tempo</text>
<text text-anchor="middle" x="812.5" y="-1001.5" font-family="Helvetica,sans-Serif" font-size="10.00">#km</text>
<text text-anchor="middle" x="812.5" y="-990.5" font-family="Helvetica,sans-Serif" font-size="10.00">#hm</text>
<text text-anchor="middle" x="812.5" y="-979.5" font-family="Helvetica,sans-Serif" font-size="10.00">#olm</text>
<text text-anchor="middle" x="812.5" y="-968.5" font-family="Helvetica,sans-Serif" font-size="10.00">#tpm</text>
<text text-anchor="middle" x="812.5" y="-957.5" font-family="Helvetica,sans-Serif" font-size="10.00">#tempoDecorrido</text>
<text text-anchor="middle" x="812.5" y="-946.5" font-family="Helvetica,sans-Serif" font-size="10.00">#dtmin</text>
<text text-anchor="middle" x="812.5" y="-935.5" font-family="Helvetica,sans-Serif" font-size="10.00">...</text>
</g>
<!-- Node5&#45;&gt;Node3 -->
<g id="edge12" class="edge"><title>Node5&#45;&gt;Node3</title>
<path fill="none" stroke="#404040" d="M577.607,-1506.82C653.285,-1502.65 894.265,-1487.46 917,-1462 938.095,-1438.38 922.904,-923.655 922,-892 920.221,-829.702 918.903,-814.131 914,-752 913.825,-749.782 913.644,-747.544 913.458,-745.289"/>
<polygon fill="none" stroke="#404040" points="913.439,-745.062 908.943,-739.424 912.418,-733.105 916.914,-738.743 913.439,-745.062"/>
<text text-anchor="middle" x="950" y="-1225.5" font-family="Helvetica,sans-Serif" font-size="10.00"> #espa</text>
<text text-anchor="middle" x="950" y="-1214.5" font-family="Helvetica,sans-Serif" font-size="10.00">#rov</text>
<text text-anchor="middle" x="950" y="-1203.5" font-family="Helvetica,sans-Serif" font-size="10.00">#h</text>
<text text-anchor="middle" x="950" y="-1192.5" font-family="Helvetica,sans-Serif" font-size="10.00">#dx</text>
<text text-anchor="middle" x="950" y="-1181.5" font-family="Helvetica,sans-Serif" font-size="10.00">#k</text>
<text text-anchor="middle" x="950" y="-1170.5" font-family="Helvetica,sans-Serif" font-size="10.00">#tia</text>
<text text-anchor="middle" x="950" y="-1159.5" font-family="Helvetica,sans-Serif" font-size="10.00">&#45;tp_inicial</text>
<text text-anchor="middle" x="950" y="-1148.5" font-family="Helvetica,sans-Serif" font-size="10.00">#tiaa</text>
<text text-anchor="middle" x="950" y="-1137.5" font-family="Helvetica,sans-Serif" font-size="10.00">#ti</text>
<text text-anchor="middle" x="950" y="-1126.5" font-family="Helvetica,sans-Serif" font-size="10.00">#wl</text>
<text text-anchor="middle" x="950" y="-1115.5" font-family="Helvetica,sans-Serif" font-size="10.00">...</text>
</g>
<!-- Node5&#45;&gt;Node4 -->
<g id="edge4" class="edge"><title>Node5&#45;&gt;Node4</title>
<path fill="none" stroke="#404040" d="M577.553,-1504.07C600.217,-1498.79 634.013,-1487.01 650,-1462 670.945,-1429.23 665.522,-1149.15 654,-1112 646.916,-1089.16 633.713,-1066.82 619.992,-1047.83"/>
<polygon fill="none" stroke="#404040" points="619.99,-1047.83 613.192,-1045.42 612.799,-1038.22 619.597,-1040.63 619.99,-1047.83"/>
<text text-anchor="middle" x="691.5" y="-1361.5" font-family="Helvetica,sans-Serif" font-size="10.00"> #ct</text>
<text text-anchor="middle" x="691.5" y="-1350.5" font-family="Helvetica,sans-Serif" font-size="10.00">#emis</text>
<text text-anchor="middle" x="691.5" y="-1339.5" font-family="Helvetica,sans-Serif" font-size="10.00">&#45;wl_inicial</text>
<text text-anchor="middle" x="691.5" y="-1328.5" font-family="Helvetica,sans-Serif" font-size="10.00">#alfa</text>
<text text-anchor="middle" x="691.5" y="-1317.5" font-family="Helvetica,sans-Serif" font-size="10.00">#porosidade</text>
<text text-anchor="middle" x="691.5" y="-1306.5" font-family="Helvetica,sans-Serif" font-size="10.00">#wli</text>
<text text-anchor="middle" x="691.5" y="-1295.5" font-family="Helvetica,sans-Serif" font-size="10.00">#larg</text>
<text text-anchor="middle" x="691.5" y="-1284.5" font-family="Helvetica,sans-Serif" font-size="10.00">#ki</text>
<text text-anchor="middle" x="691.5" y="-1273.5" font-family="Helvetica,sans-Serif" font-size="10.00">#rot</text>
</g>
<!-- Node6 -->
<g id="node6" class="node"><title>Node6</title>
<g id="a_node6"><a xlink:href="classCFuncaoCondutividade.xhtml" target="_top" xlink:title="Calcula a condutividade a partir de correlações fornecidas pelo usuário. ">
<polygon fill="white" stroke="black" points="735,-1264 735,-1376 875,-1376 875,-1264 735,-1264"/>
<text text-anchor="middle" x="805" y="-1364" font-family="Helvetica,sans-Serif" font-size="10.00">CFuncaoCondutividade</text>
<polyline fill="none" stroke="black" points="735,-1357 875,-1357 "/>
<text text-anchor="middle" x="805" y="-1345" font-family="Helvetica,sans-Serif" font-size="10.00"> </text>
<polyline fill="none" stroke="black" points="735,-1338 875,-1338 "/>
<text text-anchor="start" x="743" y="-1326" font-family="Helvetica,sans-Serif" font-size="10.00">+ CFuncaoCondutividade()</text>
<text text-anchor="start" x="743" y="-1315" font-family="Helvetica,sans-Serif" font-size="10.00">+ ~CFuncaoCondutividade()</text>
<text text-anchor="start" x="743" y="-1304" font-family="Helvetica,sans-Serif" font-size="10.00">+ DadosDefault()</text>
<text text-anchor="start" x="743" y="-1293" font-family="Helvetica,sans-Serif" font-size="10.00">+ EntrarDadosFuncao()</text>
<text text-anchor="start" x="743" y="-1282" font-family="Helvetica,sans-Serif" font-size="10.00">+ Condutividade()</text>
<text text-anchor="start" x="743" y="-1271" font-family="Helvetica,sans-Serif" font-size="10.00">+ operator()()</text>
</a>
</g>
</g>
<!-- Node5&#45;&gt;Node6 -->
<g id="edge6" class="edge"><title>Node5&#45;&gt;Node6</title>
<path fill="none" stroke="#404040" d="M577.851,-1502.96C603.774,-1496.47 646.528,-1483.43 678,-1462 708.196,-1441.44 736.061,-1412.24 757.948,-1385.74"/>
<polygon fill="none" stroke="#404040" points="758.185,-1385.45 758.85,-1378.27 765.734,-1376.12 765.069,-1383.3 758.185,-1385.45"/>
<text text-anchor="middle" x="749.5" y="-1437" font-family="Helvetica,sans-Serif" font-size="10.00"> #bk</text>
<text text-anchor="middle" x="749.5" y="-1426" font-family="Helvetica,sans-Serif" font-size="10.00">#ak</text>
</g>
<!-- Node8 -->
<g id="node8" class="node"><title>Node8</title>
<g id="a_node8"><a xlink:href="classCFuncaoDifusividade.xhtml" target="_top" xlink:title="Representa a função de difusidade ao vapor de um meio poroso; no caso específico, a telha de cerâmica...">
<polygon fill="white" stroke="black" points="355.5,-1264 355.5,-1376 486.5,-1376 486.5,-1264 355.5,-1264"/>
<text text-anchor="middle" x="421" y="-1364" font-family="Helvetica,sans-Serif" font-size="10.00">CFuncaoDifusividade</text>
<polyline fill="none" stroke="black" points="355.5,-1357 486.5,-1357 "/>
<text text-anchor="middle" x="421" y="-1345" font-family="Helvetica,sans-Serif" font-size="10.00"> </text>
<polyline fill="none" stroke="black" points="355.5,-1338 486.5,-1338 "/>
<text text-anchor="start" x="363.5" y="-1326" font-family="Helvetica,sans-Serif" font-size="10.00">+ CFuncaoDifusividade()</text>
<text text-anchor="start" x="363.5" y="-1315" font-family="Helvetica,sans-Serif" font-size="10.00">+ ~CFuncaoDifusividade()</text>
<text text-anchor="start" x="363.5" y="-1304" font-family="Helvetica,sans-Serif" font-size="10.00">+ DadosDefault()</text>
<text text-anchor="start" x="363.5" y="-1293" font-family="Helvetica,sans-Serif" font-size="10.00">+ EntrarDadosFuncao()</text>
<text text-anchor="start" x="363.5" y="-1282" font-family="Helvetica,sans-Serif" font-size="10.00">+ Difusividade()</text>
<text text-anchor="start" x="363.5" y="-1271" font-family="Helvetica,sans-Serif" font-size="10.00">+ operator()()</text>
</a>
</g>
</g>
<!-- Node5&#45;&gt;Node8 -->
<g id="edge9" class="edge"><title>Node5&#45;&gt;Node8</title>
<path fill="none" stroke="#404040" d="M535.228,-1480.41C517.48,-1455.64 490.737,-1418.32 467.588,-1386.01"/>
<polygon fill="none" stroke="#404040" points="467.523,-1385.92 460.777,-1383.38 460.533,-1376.17 467.28,-1378.72 467.523,-1385.92"/>
<text text-anchor="middle" x="532.5" y="-1431.5" font-family="Helvetica,sans-Serif" font-size="10.00"> #cdif</text>
</g>
<!-- Node9 -->
<g id="node9" class="node"><title>Node9</title>
<g id="a_node9"><a xlink:href="classCFuncaoAdsorcao.xhtml" target="_top" xlink:title="Calcula a umidade a partir das curvas de adsorção do material (correlações fornecidas pelo usuário)...">
<polygon fill="white" stroke="black" points="504.5,-1253 504.5,-1387 627.5,-1387 627.5,-1253 504.5,-1253"/>
<text text-anchor="middle" x="566" y="-1375" font-family="Helvetica,sans-Serif" font-size="10.00">CFuncaoAdsorcao</text>
<polyline fill="none" stroke="black" points="504.5,-1368 627.5,-1368 "/>
<text text-anchor="middle" x="566" y="-1356" font-family="Helvetica,sans-Serif" font-size="10.00"> </text>
<polyline fill="none" stroke="black" points="504.5,-1349 627.5,-1349 "/>
<text text-anchor="start" x="512.5" y="-1337" font-family="Helvetica,sans-Serif" font-size="10.00">+ CFuncaoAdsorcao()</text>
<text text-anchor="start" x="512.5" y="-1326" font-family="Helvetica,sans-Serif" font-size="10.00">+ ~CFuncaoAdsorcao()</text>
<text text-anchor="start" x="512.5" y="-1315" font-family="Helvetica,sans-Serif" font-size="10.00">+ DadosDefault()</text>
<text text-anchor="start" x="512.5" y="-1304" font-family="Helvetica,sans-Serif" font-size="10.00">+ EntrarDadosFuncao()</text>
<text text-anchor="start" x="512.5" y="-1293" font-family="Helvetica,sans-Serif" font-size="10.00">+ Umidade()</text>
<text text-anchor="start" x="512.5" y="-1282" font-family="Helvetica,sans-Serif" font-size="10.00">+ operator()()</text>
<text text-anchor="start" x="512.5" y="-1271" font-family="Helvetica,sans-Serif" font-size="10.00"># ResultadosEnsaio()</text>
<text text-anchor="start" x="512.5" y="-1260" font-family="Helvetica,sans-Serif" font-size="10.00">&#45; CorrecaoTemperatura()</text>
</a>
</g>
</g>
<!-- Node5&#45;&gt;Node9 -->
<g id="edge11" class="edge"><title>Node5&#45;&gt;Node9</title>
<path fill="none" stroke="#404040" d="M554.47,-1480.26C554.272,-1459.73 554.405,-1431.1 556,-1406 556.139,-1403.82 556.295,-1401.6 556.466,-1399.37"/>
<polygon fill="none" stroke="#404040" points="556.476,-1399.25 553.005,-1392.93 557.505,-1387.29 560.975,-1393.61 556.476,-1399.25"/>
<text text-anchor="start" x="556" y="-1442.5" font-family="Helvetica,sans-Serif" font-size="10.00"> #temperatura_ensaio</text>
<text text-anchor="middle" x="603" y="-1431.5" font-family="Helvetica,sans-Serif" font-size="10.00">_adsorcao</text>
<text text-anchor="middle" x="603" y="-1420.5" font-family="Helvetica,sans-Serif" font-size="10.00">#h</text>
</g>
<!-- Node11 -->
<g id="node11" class="node"><title>Node11</title>
<g id="a_node11"><a xlink:href="classCTransferenciaCalorMassa.xhtml" target="_top" xlink:title="Inclui atributos associados a conceitos de transferência de calor e massa. ">
<polygon fill="white" stroke="black" points="988.5,-1128 988.5,-1218 1145.5,-1218 1145.5,-1128 988.5,-1128"/>
<text text-anchor="middle" x="1067" y="-1206" font-family="Helvetica,sans-Serif" font-size="10.00">CTransferenciaCalorMassa</text>
<polyline fill="none" stroke="black" points="988.5,-1199 1145.5,-1199 "/>
<text text-anchor="middle" x="1067" y="-1187" font-family="Helvetica,sans-Serif" font-size="10.00"> </text>
<polyline fill="none" stroke="black" points="988.5,-1180 1145.5,-1180 "/>
<text text-anchor="start" x="996.5" y="-1168" font-family="Helvetica,sans-Serif" font-size="10.00">+ CTransferenciaCalorMassa()</text>
<text text-anchor="start" x="996.5" y="-1157" font-family="Helvetica,sans-Serif" font-size="10.00">+ ~CTransferenciaCalorMassa()</text>
<text text-anchor="start" x="996.5" y="-1146" font-family="Helvetica,sans-Serif" font-size="10.00"># DadosDefault()</text>
<text text-anchor="start" x="996.5" y="-1135" font-family="Helvetica,sans-Serif" font-size="10.00"># EntrarDadosObjeto()</text>
</a>
</g>
</g>
<!-- Node5&#45;&gt;Node11 -->
<g id="edge15" class="edge"><title>Node5&#45;&gt;Node11</title>
<path fill="none" stroke="#404040" d="M577.652,-1508.37C653.246,-1509.15 895.438,-1507.96 955,-1462 1027.47,-1406.08 1053.09,-1296.76 1062.12,-1230.07"/>
<polygon fill="none" stroke="#404040" points="1062.12,-1230.04 1058.9,-1223.59 1063.62,-1218.13 1066.84,-1224.58 1062.12,-1230.04"/>
<text text-anchor="middle" x="1019" y="-1453.5" font-family="Helvetica,sans-Serif" font-size="10.00"> #hce</text>
<text text-anchor="middle" x="1019" y="-1442.5" font-family="Helvetica,sans-Serif" font-size="10.00">#hci</text>
<text text-anchor="middle" x="1019" y="-1431.5" font-family="Helvetica,sans-Serif" font-size="10.00">#hme</text>
<text text-anchor="middle" x="1019" y="-1420.5" font-family="Helvetica,sans-Serif" font-size="10.00">#hmi</text>
<text text-anchor="middle" x="1019" y="-1409.5" font-family="Helvetica,sans-Serif" font-size="10.00">#sigma</text>
</g>
<!-- Node12 -->
<g id="node12" class="node"><title>Node12</title>
<g id="a_node12"><a xlink:href="classCSolver__TDMA.xhtml" target="_top" xlink:title="representa um solver TDMA &#45; Tri&#45;Diagonal Matriz Algorithm (unidimensional). ">
<polygon fill="white" stroke="black" points="101.5,-757 101.5,-869 244.5,-869 244.5,-757 101.5,-757"/>
<text text-anchor="middle" x="173" y="-857" font-family="Helvetica,sans-Serif" font-size="10.00">CSolver_TDMA</text>
<polyline fill="none" stroke="black" points="101.5,-850 244.5,-850 "/>
<text text-anchor="middle" x="173" y="-838" font-family="Helvetica,sans-Serif" font-size="10.00"> </text>
<polyline fill="none" stroke="black" points="101.5,-831 244.5,-831 "/>
<text text-anchor="start" x="109.5" y="-819" font-family="Helvetica,sans-Serif" font-size="10.00">+ CSolver_TDMA()</text>
<text text-anchor="start" x="109.5" y="-808" font-family="Helvetica,sans-Serif" font-size="10.00">+ ~CSolver_TDMA()</text>
<text text-anchor="start" x="109.5" y="-797" font-family="Helvetica,sans-Serif" font-size="10.00">+ DadosDefault()</text>
<text text-anchor="start" x="109.5" y="-786" font-family="Helvetica,sans-Serif" font-size="10.00">+ EntrarDadosObjeto()</text>
<text text-anchor="start" x="109.5" y="-775" font-family="Helvetica,sans-Serif" font-size="10.00"># ResolverSistemaEquacoes</text>
<text text-anchor="start" x="109.5" y="-764" font-family="Helvetica,sans-Serif" font-size="10.00">_TDMA_piqi()</text>
</a>
</g>
</g>
<!-- Node5&#45;&gt;Node12 -->
<g id="edge17" class="edge"><title>Node5&#45;&gt;Node12</title>
<path fill="none" stroke="#404040" d="M532.203,-1506.82C466.889,-1503.11 280.353,-1490.26 227,-1462 187.795,-1441.23 175.957,-1429.4 160,-1388 142.231,-1341.9 159.783,-1022.91 168.603,-881.38"/>
<polygon fill="none" stroke="#404040" points="168.625,-881.039 165.009,-874.8 169.377,-869.062 172.993,-875.301 168.625,-881.039"/>
<text text-anchor="middle" x="167" y="-1345" font-family="Helvetica,sans-Serif" font-size="10.00"> #p</text>
<text text-anchor="middle" x="167" y="-1334" font-family="Helvetica,sans-Serif" font-size="10.00">#q</text>
<text text-anchor="middle" x="167" y="-1323" font-family="Helvetica,sans-Serif" font-size="10.00">#a</text>
<text text-anchor="middle" x="167" y="-1312" font-family="Helvetica,sans-Serif" font-size="10.00">#b</text>
<text text-anchor="middle" x="167" y="-1301" font-family="Helvetica,sans-Serif" font-size="10.00">#c</text>
<text text-anchor="middle" x="167" y="-1290" font-family="Helvetica,sans-Serif" font-size="10.00">#d</text>
</g>
<!-- Node14 -->
<g id="node14" class="node"><title>Node14</title>
<g id="a_node14"><a xlink:href="classCFluido.xhtml" target="_top" xlink:title="Representa um fluido com atributos: rol, cl, lv. ">
<polygon fill="white" stroke="black" points="28.5,-948 28.5,-1038 143.5,-1038 143.5,-948 28.5,-948"/>
<text text-anchor="middle" x="86" y="-1026" font-family="Helvetica,sans-Serif" font-size="10.00">CFluido</text>
<polyline fill="none" stroke="black" points="28.5,-1019 143.5,-1019 "/>
<text text-anchor="middle" x="86" y="-1007" font-family="Helvetica,sans-Serif" font-size="10.00"> </text>
<polyline fill="none" stroke="black" points="28.5,-1000 143.5,-1000 "/>
<text text-anchor="start" x="36.5" y="-988" font-family="Helvetica,sans-Serif" font-size="10.00">+ CFluido()</text>
<text text-anchor="start" x="36.5" y="-977" font-family="Helvetica,sans-Serif" font-size="10.00">+ ~CFluido()</text>
<text text-anchor="start" x="36.5" y="-966" font-family="Helvetica,sans-Serif" font-size="10.00">+ DadosDefault()</text>
<text text-anchor="start" x="36.5" y="-955" font-family="Helvetica,sans-Serif" font-size="10.00">+ EntrarDadosObjeto()</text>
</a>
</g>
</g>
<!-- Node5&#45;&gt;Node14 -->
<g id="edge20" class="edge"><title>Node5&#45;&gt;Node14</title>
<path fill="none" stroke="#404040" d="M532.335,-1508.52C454.927,-1509.82 202.422,-1510.24 141,-1462 17.9712,-1365.37 48.0535,-1151.97 71.1526,-1050.16"/>
<polygon fill="none" stroke="#404040" points="71.1905,-1050 68.6625,-1043.25 73.9242,-1038.32 76.4522,-1045.07 71.1905,-1050"/>
<text text-anchor="middle" x="89.5" y="-1328.5" font-family="Helvetica,sans-Serif" font-size="10.00"> #rol</text>
<text text-anchor="middle" x="89.5" y="-1317.5" font-family="Helvetica,sans-Serif" font-size="10.00">#cl</text>
<text text-anchor="middle" x="89.5" y="-1306.5" font-family="Helvetica,sans-Serif" font-size="10.00">#lv</text>
</g>
<!-- Node15 -->
<g id="node15" class="node"><title>Node15</title>
<g id="a_node15"><a xlink:href="classCFuncoesClima.xhtml" target="_top" xlink:title="Armazena e calcula funções como temperatura externa/interna, radiação onda curta/longa, umidade externa/interna, e chuva. Estes atributos podem ser constantes ou função da hora do dia. ">
<polygon fill="white" stroke="black" points="200,-893 200,-1093 334,-1093 334,-893 200,-893"/>
<text text-anchor="middle" x="267" y="-1081" font-family="Helvetica,sans-Serif" font-size="10.00">CFuncoesClima</text>
<polyline fill="none" stroke="black" points="200,-1074 334,-1074 "/>
<text text-anchor="start" x="208" y="-1062" font-family="Helvetica,sans-Serif" font-size="10.00"># text</text>
<text text-anchor="start" x="208" y="-1051" font-family="Helvetica,sans-Serif" font-size="10.00"># tint</text>
<text text-anchor="start" x="208" y="-1040" font-family="Helvetica,sans-Serif" font-size="10.00"># rove</text>
<polyline fill="none" stroke="black" points="200,-1033 334,-1033 "/>
<text text-anchor="start" x="208" y="-1021" font-family="Helvetica,sans-Serif" font-size="10.00">+ CFuncoesClima()</text>
<text text-anchor="start" x="208" y="-1010" font-family="Helvetica,sans-Serif" font-size="10.00">+ ~CFuncoesClima()</text>
<text text-anchor="start" x="208" y="-999" font-family="Helvetica,sans-Serif" font-size="10.00">+ DadosDefault()</text>
<text text-anchor="start" x="208" y="-988" font-family="Helvetica,sans-Serif" font-size="10.00">+ EntrarDadosObjeto()</text>
<text text-anchor="start" x="208" y="-977" font-family="Helvetica,sans-Serif" font-size="10.00">+ ExecutarFuncoesClima()</text>
<text text-anchor="start" x="208" y="-966" font-family="Helvetica,sans-Serif" font-size="10.00">+ operator()()</text>
<text text-anchor="start" x="208" y="-955" font-family="Helvetica,sans-Serif" font-size="10.00">&#45; TemperaturaExterna()</text>
<text text-anchor="start" x="208" y="-944" font-family="Helvetica,sans-Serif" font-size="10.00">&#45; TemperaturaInterna()</text>
<text text-anchor="start" x="208" y="-933" font-family="Helvetica,sans-Serif" font-size="10.00">&#45; UmidadeExterna()</text>
<text text-anchor="start" x="208" y="-922" font-family="Helvetica,sans-Serif" font-size="10.00">&#45; UmidadeInterna()</text>
<text text-anchor="start" x="208" y="-911" font-family="Helvetica,sans-Serif" font-size="10.00">&#45; RadiacaoOndaCurta()</text>
<text text-anchor="start" x="208" y="-900" font-family="Helvetica,sans-Serif" font-size="10.00">&#45; RadiacaoOndaLonga()</text>
</a>
</g>
</g>
<!-- Node5&#45;&gt;Node15 -->
<g id="edge25" class="edge"><title>Node5&#45;&gt;Node15</title>
<path fill="none" stroke="#404040" d="M532.404,-1508.18C469.119,-1507.29 289.809,-1495.04 214,-1388 143.093,-1287.88 193.303,-1231.97 219,-1112 219.525,-1109.55 220.097,-1107.09 220.712,-1104.61"/>
<polygon fill="none" stroke="#404040" points="220.72,-1104.58 218.439,-1097.74 223.877,-1093.01 226.157,-1099.85 220.72,-1104.58"/>
<text text-anchor="middle" x="253.5" y="-1372.5" font-family="Helvetica,sans-Serif" font-size="10.00"> #horaInicioChuva</text>
<text text-anchor="middle" x="253.5" y="-1361.5" font-family="Helvetica,sans-Serif" font-size="10.00">#radoc</text>
<text text-anchor="middle" x="253.5" y="-1350.5" font-family="Helvetica,sans-Serif" font-size="10.00">#rovi</text>
<text text-anchor="middle" x="253.5" y="-1339.5" font-family="Helvetica,sans-Serif" font-size="10.00">#retardo</text>
<text text-anchor="middle" x="253.5" y="-1328.5" font-family="Helvetica,sans-Serif" font-size="10.00">#hint</text>
<text text-anchor="middle" x="253.5" y="-1317.5" font-family="Helvetica,sans-Serif" font-size="10.00">#precipitacao</text>
<text text-anchor="middle" x="253.5" y="-1306.5" font-family="Helvetica,sans-Serif" font-size="10.00">#horaFimChuva</text>
<text text-anchor="middle" x="253.5" y="-1295.5" font-family="Helvetica,sans-Serif" font-size="10.00">#amortecimento</text>
<text text-anchor="middle" x="253.5" y="-1284.5" font-family="Helvetica,sans-Serif" font-size="10.00">#radol</text>
<text text-anchor="middle" x="253.5" y="-1273.5" font-family="Helvetica,sans-Serif" font-size="10.00">#hext</text>
<text text-anchor="middle" x="253.5" y="-1262.5" font-family="Helvetica,sans-Serif" font-size="10.00">...</text>
</g>
<!-- Node6&#45;&gt;Node4 -->
<g id="edge5" class="edge"><title>Node6&#45;&gt;Node4</title>
<path fill="none" stroke="#404040" d="M764.5,-1263.96C757.75,-1254.13 751,-1243.88 745,-1234 713.329,-1181.84 717.02,-1161.98 682,-1112 666.039,-1089.22 645.972,-1066.28 627.421,-1046.77"/>
<polygon fill="none" stroke="#404040" points="627.351,-1046.69 620.307,-1045.15 619.024,-1038.05 626.068,-1039.6 627.351,-1046.69"/>
<text text-anchor="middle" x="795.5" y="-1170.5" font-family="Helvetica,sans-Serif" font-size="10.00"> +funcaoCondutividade</text>
</g>
<!-- Node7 -->
<g id="node7" class="node"><title>Node7</title>
<polygon fill="white" stroke="#bfbfbf" points="302.5,-1291.5 302.5,-1348.5 337.5,-1348.5 337.5,-1291.5 302.5,-1291.5"/>
<text text-anchor="middle" x="320" y="-1336.5" font-family="Helvetica,sans-Serif" font-size="10.00">char</text>
<polyline fill="none" stroke="#bfbfbf" points="302.5,-1329.5 337.5,-1329.5 "/>
<text text-anchor="middle" x="320" y="-1317.5" font-family="Helvetica,sans-Serif" font-size="10.00"> </text>
<polyline fill="none" stroke="#bfbfbf" points="302.5,-1310.5 337.5,-1310.5 "/>
<text text-anchor="middle" x="320" y="-1298.5" font-family="Helvetica,sans-Serif" font-size="10.00"> </text>
</g>
<!-- Node7&#45;&gt;Node4 -->
<g id="edge7" class="edge"><title>Node7&#45;&gt;Node4</title>
<path fill="none" stroke="#404040" d="M330.199,-1291.34C336.003,-1274.86 343.074,-1253.43 348,-1234 361.541,-1180.59 338.377,-1157.12 370,-1112 400.994,-1067.78 454.267,-1037.73 498.464,-1019.02"/>
<polygon fill="none" stroke="#404040" points="498.672,-1018.94 502.711,-1012.96 509.779,-1014.39 505.74,-1020.37 498.672,-1018.94"/>
<text text-anchor="middle" x="402" y="-1170.5" font-family="Helvetica,sans-Serif" font-size="10.00"> #tipo_material</text>
</g>
<!-- Node7&#45;&gt;Node15 -->
<g id="edge26" class="edge"><title>Node7&#45;&gt;Node15</title>
<path fill="none" stroke="#404040" d="M312.186,-1291.18C307.183,-1277.79 299.437,-1262.41 288,-1252 270.846,-1236.38 252.279,-1253.02 239,-1234 213.158,-1196.98 213.995,-1148.66 223.646,-1105.09"/>
<polygon fill="none" stroke="#404040" points="223.691,-1104.91 221.212,-1098.13 226.509,-1093.24 228.988,-1100.01 223.691,-1104.91"/>
<text text-anchor="middle" x="293.5" y="-1181.5" font-family="Helvetica,sans-Serif" font-size="10.00"> #respHumidadeExterna</text>
<text text-anchor="middle" x="293.5" y="-1170.5" font-family="Helvetica,sans-Serif" font-size="10.00">#respTemperaturaInterna</text>
<text text-anchor="middle" x="293.5" y="-1159.5" font-family="Helvetica,sans-Serif" font-size="10.00">#respHumidadeInterna</text>
</g>
<!-- Node8&#45;&gt;Node4 -->
<g id="edge8" class="edge"><title>Node8&#45;&gt;Node4</title>
<path fill="none" stroke="#404040" d="M431.307,-1263.62C441.527,-1211.66 457.56,-1138.14 471,-1112 482.971,-1088.72 500.447,-1066.19 517.564,-1047.17"/>
<polygon fill="none" stroke="#404040" points="517.773,-1046.94 518.903,-1039.82 525.912,-1038.13 524.782,-1045.25 517.773,-1046.94"/>
<text text-anchor="middle" x="517.5" y="-1170.5" font-family="Helvetica,sans-Serif" font-size="10.00"> +funcaoDifusividade</text>
</g>
<!-- Node9&#45;&gt;Node4 -->
<g id="edge10" class="edge"><title>Node9&#45;&gt;Node4</title>
<path fill="none" stroke="#404040" d="M567.425,-1252.84C568.707,-1193.31 570.571,-1106.79 571.784,-1050.45"/>
<polygon fill="none" stroke="#404040" points="571.789,-1050.21 567.919,-1044.12 572.048,-1038.21 575.918,-1044.3 571.789,-1050.21"/>
<text text-anchor="middle" x="611" y="-1170.5" font-family="Helvetica,sans-Serif" font-size="10.00"> +funcaoAdsorcao</text>
</g>
<!-- Node10 -->
<g id="node10" class="node"><title>Node10</title>
<polygon fill="white" stroke="#bfbfbf" points="859,-964.5 859,-1021.5 913,-1021.5 913,-964.5 859,-964.5"/>
<text text-anchor="middle" x="886" y="-1009.5" font-family="Helvetica,sans-Serif" font-size="10.00">const int</text>
<polyline fill="none" stroke="#bfbfbf" points="859,-1002.5 913,-1002.5 "/>
<text text-anchor="middle" x="886" y="-990.5" font-family="Helvetica,sans-Serif" font-size="10.00"> </text>
<polyline fill="none" stroke="#bfbfbf" points="859,-983.5 913,-983.5 "/>
<text text-anchor="middle" x="886" y="-971.5" font-family="Helvetica,sans-Serif" font-size="10.00"> </text>
</g>
<!-- Node10&#45;&gt;Node3 -->
<g id="edge13" class="edge"><title>Node10&#45;&gt;Node3</title>
<path fill="none" stroke="#404040" d="M887.127,-964.265C888.996,-918.286 892.845,-823.61 896.015,-745.619"/>
<polygon fill="none" stroke="#404040" points="896.031,-745.245 892.278,-739.088 896.518,-733.255 900.271,-739.413 896.031,-745.245"/>
<text text-anchor="middle" x="903" y="-810.5" font-family="Helvetica,sans-Serif" font-size="10.00"> #n</text>
</g>
<!-- Node11&#45;&gt;Node2 -->
<g id="edge14" class="edge"><title>Node11&#45;&gt;Node2</title>
<path fill="none" stroke="midnightblue" d="M1081.78,-1117.74C1111.98,-993.835 1166.02,-687.16 1017,-510 942.659,-421.62 592.568,-371.62 439.702,-353.677"/>
<polygon fill="none" stroke="midnightblue" points="1078.31,-1117.2 1079.3,-1127.75 1085.11,-1118.89 1078.31,-1117.2"/>
</g>
<!-- Node12&#45;&gt;Node2 -->
<g id="edge16" class="edge"><title>Node12&#45;&gt;Node2</title>
<path fill="none" stroke="midnightblue" d="M167.135,-746.687C164.193,-683.133 167.164,-585.391 203,-510 223.98,-465.862 261.989,-426.81 296.243,-397.897"/>
<polygon fill="none" stroke="midnightblue" points="163.655,-747.171 167.676,-756.973 170.646,-746.803 163.655,-747.171"/>
</g>
<!-- Node13&#45;&gt;Node2 -->
<g id="edge18" class="edge"><title>Node13&#45;&gt;Node2</title>
<path fill="none" stroke="#404040" d="M281.939,-554.757C286.488,-530.832 292.743,-503.853 301,-480 301.782,-477.742 302.594,-475.473 303.432,-473.198"/>
<polygon fill="none" stroke="#404040" points="303.518,-472.976 301.946,-465.938 307.837,-461.78 309.41,-468.817 303.518,-472.976"/>
<text text-anchor="middle" x="327.5" y="-483.5" font-family="Helvetica,sans-Serif" font-size="10.00"> #funcao_wl</text>
</g>
<!-- Node14&#45;&gt;Node2 -->
<g id="edge23" class="edge"><title>Node14&#45;&gt;Node2</title>
<path fill="none" stroke="#404040" d="M78.0983,-947.829C64.4483,-857.981 45.5092,-650.56 131,-510 166.758,-451.208 232.494,-408.254 285.679,-381.088"/>
<polygon fill="none" stroke="#404040" points="285.742,-381.057 289.324,-374.798 296.479,-375.698 292.896,-381.956 285.742,-381.057"/>
<text text-anchor="middle" x="147" y="-619.5" font-family="Helvetica,sans-Serif" font-size="10.00"> #fluido</text>
</g>
<!-- Node14&#45;&gt;Node13 -->
<g id="edge19" class="edge"><title>Node14&#45;&gt;Node13</title>
<path fill="none" stroke="#404040" d="M123.855,-947.924C142.437,-928.539 166.15,-906.851 191,-892 213.078,-878.806 229.85,-894.018 246,-874 256.769,-860.651 264.092,-769.712 268.155,-701.103"/>
<polygon fill="none" stroke="#404040" points="268.162,-700.989 264.513,-694.769 268.852,-689.008 272.5,-695.229 268.162,-700.989"/>
<text text-anchor="middle" x="281" y="-810.5" font-family="Helvetica,sans-Serif" font-size="10.00"> #fluido</text>
</g>
<!-- Node15&#45;&gt;Node2 -->
<g id="edge24" class="edge"><title>Node15&#45;&gt;Node2</title>
<path fill="none" stroke="#404040" d="M334.019,-914.482C342.115,-901.654 349.204,-887.961 354,-874 378.449,-802.832 377.303,-605.893 373.332,-473.704"/>
<polygon fill="none" stroke="#404040" points="373.326,-473.513 369.141,-467.64 372.952,-461.518 377.137,-467.391 373.326,-473.513"/>
<text text-anchor="middle" x="410.5" y="-619.5" font-family="Helvetica,sans-Serif" font-size="10.00"> #funcoesClima</text>
</g>
<!-- Node16 -->
<g id="node16" class="node"><title>Node16</title>
<polygon fill="white" stroke="#bfbfbf" points="455.5,-593.5 455.5,-650.5 484.5,-650.5 484.5,-593.5 455.5,-593.5"/>
<text text-anchor="middle" x="470" y="-638.5" font-family="Helvetica,sans-Serif" font-size="10.00">int</text>
<polyline fill="none" stroke="#bfbfbf" points="455.5,-631.5 484.5,-631.5 "/>
<text text-anchor="middle" x="470" y="-619.5" font-family="Helvetica,sans-Serif" font-size="10.00"> </text>
<polyline fill="none" stroke="#bfbfbf" points="455.5,-612.5 484.5,-612.5 "/>
<text text-anchor="middle" x="470" y="-600.5" font-family="Helvetica,sans-Serif" font-size="10.00"> </text>
</g>
<!-- Node16&#45;&gt;Node2 -->
<g id="edge27" class="edge"><title>Node16&#45;&gt;Node2</title>
<path fill="none" stroke="#404040" d="M464.078,-593.255C458.921,-570.571 450.752,-537.818 441,-510 436.737,-497.841 431.948,-485.331 426.912,-472.902"/>
<polygon fill="none" stroke="#404040" points="426.796,-472.618 420.812,-468.593 422.227,-461.522 428.21,-465.547 426.796,-472.618"/>
<text text-anchor="middle" x="463.5" y="-483.5" font-family="Helvetica,sans-Serif" font-size="10.00"> #recorrencia</text>
</g>
</g>
</svg>
