<?xml version="1.0" encoding="UTF-8" standalone="no"?>
<!DOCTYPE svg PUBLIC "-//W3C//DTD SVG 1.1//EN"
 "http://www.w3.org/Graphics/SVG/1.1/DTD/svg11.dtd">
<!-- Generated by graphviz version 2.34.0 (20140110.0949)
 -->
<!-- Title: src/CFluido.h Pages: 1 -->
<svg width="448pt" height="356pt"
 viewBox="0.00 0.00 448.00 356.00" xmlns="http://www.w3.org/2000/svg" xmlns:xlink="http://www.w3.org/1999/xlink">
<g id="graph0" class="graph" transform="scale(1 1) rotate(0) translate(4 352)">
<title>src/CFluido.h</title>
<polygon fill="white" stroke="white" points="-4,4 -4,-352 444,-352 444,4 -4,4"/>
<!-- Node1 -->
<g id="node1" class="node"><title>Node1</title>
<polygon fill="#bfbfbf" stroke="black" points="152.5,-328.5 152.5,-347.5 227.5,-347.5 227.5,-328.5 152.5,-328.5"/>
<text text-anchor="middle" x="190" y="-335.5" font-family="Helvetica,sans-Serif" font-size="10.00">src/CFluido.h</text>
</g>
<!-- Node2 -->
<g id="node2" class="node"><title>Node2</title>
<g id="a_node2"><a xlink:href="CFluido_8cpp.xhtml" target="_top" xlink:title="src/CFluido.cpp">
<polygon fill="white" stroke="black" points="0,-272.5 0,-291.5 86,-291.5 86,-272.5 0,-272.5"/>
<text text-anchor="middle" x="43" y="-279.5" font-family="Helvetica,sans-Serif" font-size="10.00">src/CFluido.cpp</text>
</a>
</g>
</g>
<!-- Node1&#45;&gt;Node2 -->
<g id="edge1" class="edge"><title>Node1&#45;&gt;Node2</title>
<path fill="none" stroke="midnightblue" d="M157.077,-324.906C129.44,-314.754 90.656,-300.506 66.1836,-291.516"/>
<polygon fill="midnightblue" stroke="midnightblue" points="156.114,-328.281 166.707,-328.444 158.528,-321.71 156.114,-328.281"/>
</g>
<!-- Node3 -->
<g id="node3" class="node"><title>Node3</title>
<g id="a_node3"><a xlink:href="CFuncaoConteudoMassicoWl_8h.xhtml" target="_top" xlink:title="src/CFuncaoConteudoMassicoWl.h">
<polygon fill="white" stroke="black" points="104,-272.5 104,-291.5 276,-291.5 276,-272.5 104,-272.5"/>
<text text-anchor="middle" x="190" y="-279.5" font-family="Helvetica,sans-Serif" font-size="10.00">src/CFuncaoConteudoMassicoWl.h</text>
</a>
</g>
</g>
<!-- Node1&#45;&gt;Node3 -->
<g id="edge2" class="edge"><title>Node1&#45;&gt;Node3</title>
<path fill="none" stroke="midnightblue" d="M190,-317.805C190,-308.91 190,-298.78 190,-291.751"/>
<polygon fill="midnightblue" stroke="midnightblue" points="186.5,-318.083 190,-328.083 193.5,-318.083 186.5,-318.083"/>
</g>
<!-- Node5 -->
<g id="node5" class="node"><title>Node5</title>
<g id="a_node5"><a xlink:href="CSimulador__Telha_8h.xhtml" target="_top" xlink:title="src/CSimulador_Telha.h">
<polygon fill="white" stroke="black" points="243,-210.5 243,-229.5 365,-229.5 365,-210.5 243,-210.5"/>
<text text-anchor="middle" x="304" y="-217.5" font-family="Helvetica,sans-Serif" font-size="10.00">src/CSimulador_Telha.h</text>
</a>
</g>
</g>
<!-- Node1&#45;&gt;Node5 -->
<g id="edge11" class="edge"><title>Node1&#45;&gt;Node5</title>
<path fill="none" stroke="midnightblue" d="M234.651,-324.931C252.61,-317.997 272.083,-307.494 285,-292 300.198,-273.77 303.341,-244.55 303.924,-229.934"/>
<polygon fill="midnightblue" stroke="midnightblue" points="233.118,-321.762 224.881,-328.425 235.475,-328.353 233.118,-321.762"/>
</g>
<!-- Node4 -->
<g id="node4" class="node"><title>Node4</title>
<g id="a_node4"><a xlink:href="CFuncaoConteudoMassicoWl_8cpp.xhtml" target="_top" xlink:title="src/CFuncaoConteudoMassico\lWl.cpp">
<polygon fill="white" stroke="black" points="73,-205 73,-235 225,-235 225,-205 73,-205"/>
<text text-anchor="start" x="81" y="-223" font-family="Helvetica,sans-Serif" font-size="10.00">src/CFuncaoConteudoMassico</text>
<text text-anchor="middle" x="149" y="-212" font-family="Helvetica,sans-Serif" font-size="10.00">Wl.cpp</text>
</a>
</g>
</g>
<!-- Node3&#45;&gt;Node4 -->
<g id="edge3" class="edge"><title>Node3&#45;&gt;Node4</title>
<path fill="none" stroke="midnightblue" d="M178.456,-264.106C172.213,-254.97 164.59,-243.814 158.663,-235.141"/>
<polygon fill="midnightblue" stroke="midnightblue" points="175.594,-266.122 184.126,-272.403 181.374,-262.172 175.594,-266.122"/>
</g>
<!-- Node3&#45;&gt;Node5 -->
<g id="edge4" class="edge"><title>Node3&#45;&gt;Node5</title>
<path fill="none" stroke="midnightblue" d="M215.46,-267.6C237.539,-255.98 268.832,-239.509 287.697,-229.581"/>
<polygon fill="midnightblue" stroke="midnightblue" points="213.552,-264.649 206.333,-272.403 216.813,-270.843 213.552,-264.649"/>
</g>
<!-- Node6 -->
<g id="node6" class="node"><title>Node6</title>
<g id="a_node6"><a xlink:href="CSimulador__Telha__GanhosEnergia_8h.xhtml" target="_top" xlink:title="src/CSimulador_Telha\l_GanhosEnergia.h">
<polygon fill="white" stroke="black" points="176.5,-137 176.5,-167 289.5,-167 289.5,-137 176.5,-137"/>
<text text-anchor="start" x="184.5" y="-155" font-family="Helvetica,sans-Serif" font-size="10.00">src/CSimulador_Telha</text>
<text text-anchor="middle" x="233" y="-144" font-family="Helvetica,sans-Serif" font-size="10.00">_GanhosEnergia.h</text>
</a>
</g>
</g>
<!-- Node5&#45;&gt;Node6 -->
<g id="edge5" class="edge"><title>Node5&#45;&gt;Node6</title>
<path fill="none" stroke="midnightblue" d="M287.257,-203.436C275.439,-192.45 259.729,-177.846 248.256,-167.181"/>
<polygon fill="midnightblue" stroke="midnightblue" points="285.011,-206.127 294.718,-210.372 289.777,-201 285.011,-206.127"/>
</g>
<!-- Node11 -->
<g id="node11" class="node"><title>Node11</title>
<g id="a_node11"><a xlink:href="CSimulador__Telha_8cpp.xhtml" target="_top" xlink:title="src/CSimulador_Telha.cpp">
<polygon fill="white" stroke="black" points="308,-142.5 308,-161.5 440,-161.5 440,-142.5 308,-142.5"/>
<text text-anchor="middle" x="374" y="-149.5" font-family="Helvetica,sans-Serif" font-size="10.00">src/CSimulador_Telha.cpp</text>
</a>
</g>
</g>
<!-- Node5&#45;&gt;Node11 -->
<g id="edge10" class="edge"><title>Node5&#45;&gt;Node11</title>
<path fill="none" stroke="midnightblue" d="M320.532,-203.412C334.284,-190.447 353.365,-172.456 364.623,-161.841"/>
<polygon fill="midnightblue" stroke="midnightblue" points="318.026,-200.965 313.151,-210.372 322.828,-206.058 318.026,-200.965"/>
</g>
<!-- Node7 -->
<g id="node7" class="node"><title>Node7</title>
<g id="a_node7"><a xlink:href="CInterface__SimuladorTelha_8h.xhtml" target="_top" xlink:title="src/CInterface_Simulador\lTelha.h">
<polygon fill="white" stroke="black" points="100,-69 100,-99 228,-99 228,-69 100,-69"/>
<text text-anchor="start" x="108" y="-87" font-family="Helvetica,sans-Serif" font-size="10.00">src/CInterface_Simulador</text>
<text text-anchor="middle" x="164" y="-76" font-family="Helvetica,sans-Serif" font-size="10.00">Telha.h</text>
</a>
</g>
</g>
<!-- Node6&#45;&gt;Node7 -->
<g id="edge6" class="edge"><title>Node6&#45;&gt;Node7</title>
<path fill="none" stroke="midnightblue" d="M210.508,-129.485C200.157,-119.585 188.16,-108.109 178.943,-99.2931"/>
<polygon fill="midnightblue" stroke="midnightblue" points="208.382,-132.296 218.028,-136.679 213.221,-127.237 208.382,-132.296"/>
</g>
<!-- Node10 -->
<g id="node10" class="node"><title>Node10</title>
<g id="a_node10"><a xlink:href="CSimulador__Telha__GanhosEnergia_8cpp.xhtml" target="_top" xlink:title="src/CSimulador_Telha\l_GanhosEnergia.cpp">
<polygon fill="white" stroke="black" points="246.5,-69 246.5,-99 359.5,-99 359.5,-69 246.5,-69"/>
<text text-anchor="start" x="254.5" y="-87" font-family="Helvetica,sans-Serif" font-size="10.00">src/CSimulador_Telha</text>
<text text-anchor="middle" x="303" y="-76" font-family="Helvetica,sans-Serif" font-size="10.00">_GanhosEnergia.cpp</text>
</a>
</g>
</g>
<!-- Node6&#45;&gt;Node10 -->
<g id="edge9" class="edge"><title>Node6&#45;&gt;Node10</title>
<path fill="none" stroke="midnightblue" d="M255.51,-129.776C266.08,-119.81 278.399,-108.196 287.841,-99.2931"/>
<polygon fill="midnightblue" stroke="midnightblue" points="253.064,-127.272 248.189,-136.679 257.866,-132.365 253.064,-127.272"/>
</g>
<!-- Node8 -->
<g id="node8" class="node"><title>Node8</title>
<g id="a_node8"><a xlink:href="CInterface__SimuladorTelha_8cpp.xhtml" target="_top" xlink:title="src/CInterface_Simulador\lTelha.cpp">
<polygon fill="white" stroke="black" points="41,-1 41,-31 169,-31 169,-1 41,-1"/>
<text text-anchor="start" x="49" y="-19" font-family="Helvetica,sans-Serif" font-size="10.00">src/CInterface_Simulador</text>
<text text-anchor="middle" x="105" y="-8" font-family="Helvetica,sans-Serif" font-size="10.00">Telha.cpp</text>
</a>
</g>
</g>
<!-- Node7&#45;&gt;Node8 -->
<g id="edge7" class="edge"><title>Node7&#45;&gt;Node8</title>
<path fill="none" stroke="midnightblue" d="M144.507,-61.1939C135.716,-51.3605 125.581,-40.0228 117.777,-31.2931"/>
<polygon fill="midnightblue" stroke="midnightblue" points="141.924,-63.5562 151.198,-68.679 147.143,-58.891 141.924,-63.5562"/>
</g>
<!-- Node9 -->
<g id="node9" class="node"><title>Node9</title>
<g id="a_node9"><a xlink:href="main_8cpp.xhtml" target="_top" xlink:title="src/main.cpp">
<polygon fill="white" stroke="black" points="187.5,-6.5 187.5,-25.5 260.5,-25.5 260.5,-6.5 187.5,-6.5"/>
<text text-anchor="middle" x="224" y="-13.5" font-family="Helvetica,sans-Serif" font-size="10.00">src/main.cpp</text>
</a>
</g>
</g>
<!-- Node7&#45;&gt;Node9 -->
<g id="edge8" class="edge"><title>Node7&#45;&gt;Node9</title>
<path fill="none" stroke="midnightblue" d="M183.849,-61.1658C194.801,-49.119 207.799,-34.8216 215.974,-25.8283"/>
<polygon fill="midnightblue" stroke="midnightblue" points="181.156,-58.9252 177.019,-68.679 186.336,-63.6339 181.156,-58.9252"/>
</g>
</g>
</svg>
