<?xml version="1.0" encoding="UTF-8" standalone="no"?>
<!DOCTYPE svg PUBLIC "-//W3C//DTD SVG 1.1//EN"
 "http://www.w3.org/Graphics/SVG/1.1/DTD/svg11.dtd">
<!-- Generated by graphviz version 2.34.0 (20140110.0949)
 -->
<!-- Title: src/CFluido.cpp Pages: 1 -->
<svg width="167pt" height="140pt"
 viewBox="0.00 0.00 167.39 140.00" xmlns="http://www.w3.org/2000/svg" xmlns:xlink="http://www.w3.org/1999/xlink">
<g id="graph0" class="graph" transform="scale(1 1) rotate(0) translate(4 136)">
<title>src/CFluido.cpp</title>
<polygon fill="white" stroke="white" points="-4,4 -4,-136 163.388,-136 163.388,4 -4,4"/>
<!-- Node1 -->
<g id="node1" class="node"><title>Node1</title>
<polygon fill="#bfbfbf" stroke="black" points="4.38796,-112.5 4.38796,-131.5 90.388,-131.5 90.388,-112.5 4.38796,-112.5"/>
<text text-anchor="middle" x="47.388" y="-119.5" font-family="Helvetica,sans-Serif" font-size="10.00">src/CFluido.cpp</text>
</g>
<!-- Node2 -->
<g id="node2" class="node"><title>Node2</title>
<polygon fill="white" stroke="#bfbfbf" points="20.388,-0.5 20.388,-19.5 74.388,-19.5 74.388,-0.5 20.388,-0.5"/>
<text text-anchor="middle" x="47.388" y="-7.5" font-family="Helvetica,sans-Serif" font-size="10.00">iostream</text>
</g>
<!-- Node1&#45;&gt;Node2 -->
<g id="edge1" class="edge"><title>Node1&#45;&gt;Node2</title>
<path fill="none" stroke="midnightblue" d="M34.3239,-112.436C23.4739,-104.471 8.81466,-91.5154 2.38796,-76 -5.41184,-57.1696 10.9794,-38.3135 26.1209,-25.7978"/>
<polygon fill="midnightblue" stroke="midnightblue" points="28.4593,-28.4145 34.2427,-19.5374 24.1857,-22.8704 28.4593,-28.4145"/>
</g>
<!-- Node3 -->
<g id="node3" class="node"><title>Node3</title>
<g id="a_node3"><a xlink:href="CInterface_8h.xhtml" target="_top" xlink:title="CInterface.h">
<polygon fill="white" stroke="black" points="11.888,-56.5 11.888,-75.5 82.888,-75.5 82.888,-56.5 11.888,-56.5"/>
<text text-anchor="middle" x="47.388" y="-63.5" font-family="Helvetica,sans-Serif" font-size="10.00">CInterface.h</text>
</a>
</g>
</g>
<!-- Node1&#45;&gt;Node3 -->
<g id="edge2" class="edge"><title>Node1&#45;&gt;Node3</title>
<path fill="none" stroke="midnightblue" d="M47.388,-112.083C47.388,-105.006 47.388,-94.8611 47.388,-85.9865"/>
<polygon fill="midnightblue" stroke="midnightblue" points="50.8881,-85.751 47.388,-75.7511 43.8881,-85.7511 50.8881,-85.751"/>
</g>
<!-- Node4 -->
<g id="node4" class="node"><title>Node4</title>
<g id="a_node4"><a xlink:href="CFluido_8h.xhtml" target="_top" xlink:title="CFluido.h">
<polygon fill="white" stroke="black" points="100.888,-56.5 100.888,-75.5 159.888,-75.5 159.888,-56.5 100.888,-56.5"/>
<text text-anchor="middle" x="130.388" y="-63.5" font-family="Helvetica,sans-Serif" font-size="10.00">CFluido.h</text>
</a>
</g>
</g>
<!-- Node1&#45;&gt;Node4 -->
<g id="edge4" class="edge"><title>Node1&#45;&gt;Node4</title>
<path fill="none" stroke="midnightblue" d="M60.7233,-112.324C73.5499,-103.979 93.1729,-91.2122 108.328,-81.3524"/>
<polygon fill="midnightblue" stroke="midnightblue" points="110.612,-84.0417 117.086,-75.6545 106.795,-78.1742 110.612,-84.0417"/>
</g>
<!-- Node3&#45;&gt;Node2 -->
<g id="edge3" class="edge"><title>Node3&#45;&gt;Node2</title>
<path fill="none" stroke="midnightblue" d="M47.388,-56.083C47.388,-49.0059 47.388,-38.8611 47.388,-29.9865"/>
<polygon fill="midnightblue" stroke="midnightblue" points="50.8881,-29.751 47.388,-19.7511 43.8881,-29.7511 50.8881,-29.751"/>
</g>
<!-- Node4&#45;&gt;Node2 -->
<g id="edge5" class="edge"><title>Node4&#45;&gt;Node2</title>
<path fill="none" stroke="midnightblue" d="M117.053,-56.324C104.226,-47.979 84.603,-35.2122 69.4482,-25.3524"/>
<polygon fill="midnightblue" stroke="midnightblue" points="70.9811,-22.1742 60.6903,-19.6545 67.1637,-28.0417 70.9811,-22.1742"/>
</g>
</g>
</svg>
