<?xml version="1.0" encoding="UTF-8" standalone="no"?>
<!DOCTYPE svg PUBLIC "-//W3C//DTD SVG 1.1//EN"
 "http://www.w3.org/Graphics/SVG/1.1/DTD/svg11.dtd">
<!-- Generated by graphviz version 2.34.0 (20140110.0949)
 -->
<!-- Title: src/CFuncaoConteudoMassicoWl.cpp Pages: 1 -->
<!--zoomable 264 -->
<svg id="main" version="1.1" xmlns="http://www.w3.org/2000/svg" xmlns:xlink="http://www.w3.org/1999/xlink" xml:space="preserve" onload="init(evt)">
<style type="text/css"><![CDATA[
.edge:hover path { stroke: red; }
.edge:hover polygon { stroke: red; fill: red; }
]]></style>
<script type="text/javascript"><![CDATA[
var edges = document.getElementsByTagName('g');
if (edges && edges.length) {
  for (var i=0;i<edges.length;i++) {
    if (edges[i].id.substr(0,4)=='edge') {
      edges[i].setAttribute('class','edge');
    }
  }
}
]]></script>
        <defs>
                <circle id="rim" cx="0" cy="0" r="7"/>
                <circle id="rim2" cx="0" cy="0" r="3.5"/>
                <g id="zoomPlus">
                        <use xlink:href="#rim" fill="#404040">
                                <set attributeName="fill" to="#808080" begin="zoomplus.mouseover" end="zoomplus.mouseout"/>
                        </use>
                        <path d="M-4,0h8M0,-4v8" fill="none" stroke="white" stroke-width="1.5" pointer-events="none"/>
                </g>
                <g id="zoomMin">
                        <use xlink:href="#rim" fill="#404040">
                                <set attributeName="fill" to="#808080" begin="zoomminus.mouseover" end="zoomminus.mouseout"/>
                        </use>
                        <path d="M-4,0h8" fill="none" stroke="white" stroke-width="1.5" pointer-events="none"/>
                </g>
                <g id="dirArrow">
                        <path fill="none" stroke="white" stroke-width="1.5" d="M0,-3.0v7 M-2.5,-0.5L0,-3.0L2.5,-0.5"/>
                </g>
               <g id="resetDef">
                       <use xlink:href="#rim2" fill="#404040">
                               <set attributeName="fill" to="#808080" begin="reset.mouseover" end="reset.mouseout"/>
                       </use>
               </g>
        </defs>

<script type="text/javascript">
var viewWidth = 566;
var viewHeight = 264;
var sectionId = 'dynsection-0';
</script>
<script xlink:href="svgpan.js"/>
<svg id="graph" class="graph">
<g id="viewport">
<title>src/CFuncaoConteudoMassicoWl.cpp</title>
<polygon fill="white" stroke="white" points="-4,4 -4,-260 562,-260 562,4 -4,4"/>
<!-- Node1 -->
<g id="node1" class="node"><title>Node1</title>
<polygon fill="#bfbfbf" stroke="black" points="0,-225 0,-255 152,-255 152,-225 0,-225"/>
<text text-anchor="start" x="8" y="-243" font-family="Helvetica,sans-Serif" font-size="10.00">src/CFuncaoConteudoMassico</text>
<text text-anchor="middle" x="76" y="-232" font-family="Helvetica,sans-Serif" font-size="10.00">Wl.cpp</text>
</g>
<!-- Node2 -->
<g id="node2" class="node"><title>Node2</title>
<polygon fill="white" stroke="#bfbfbf" points="114,-0.5 114,-19.5 168,-19.5 168,-0.5 114,-0.5"/>
<text text-anchor="middle" x="141" y="-7.5" font-family="Helvetica,sans-Serif" font-size="10.00">iostream</text>
</g>
<!-- Node1&#45;&gt;Node2 -->
<g id="edge1" class="edge"><title>Node1&#45;&gt;Node2</title>
<path fill="none" stroke="midnightblue" d="M63.0098,-224.59C55.254,-214.981 46.1322,-201.648 42,-188 39.4241,-179.493 40.02,-176.666 42,-168 54.3093,-114.127 64.0114,-101.062 96,-56 103.639,-45.2395 113.945,-34.7245 122.767,-26.5681"/>
<polygon fill="midnightblue" stroke="midnightblue" points="125.212,-29.0768 130.332,-19.8013 120.545,-23.8594 125.212,-29.0768"/>
</g>
<!-- Node3 -->
<g id="node3" class="node"><title>Node3</title>
<g id="a_node3"><a xlink:href="CFuncaoConteudoMassicoWl_8h.xhtml" target="_top" xlink:title="CFuncaoConteudoMassicoWl.h">
<polygon fill="white" stroke="black" points="51.5,-168.5 51.5,-187.5 206.5,-187.5 206.5,-168.5 51.5,-168.5"/>
<text text-anchor="middle" x="129" y="-175.5" font-family="Helvetica,sans-Serif" font-size="10.00">CFuncaoConteudoMassicoWl.h</text>
</a>
</g>
</g>
<!-- Node1&#45;&gt;Node3 -->
<g id="edge2" class="edge"><title>Node1&#45;&gt;Node3</title>
<path fill="none" stroke="midnightblue" d="M88.5603,-224.781C96.3412,-215.972 106.364,-204.626 114.484,-195.433"/>
<polygon fill="midnightblue" stroke="midnightblue" points="117.291,-197.542 121.288,-187.731 112.044,-192.908 117.291,-197.542"/>
</g>
<!-- Node3&#45;&gt;Node2 -->
<g id="edge3" class="edge"><title>Node3&#45;&gt;Node2</title>
<path fill="none" stroke="midnightblue" d="M116.219,-168.369C105.606,-160.36 91.2694,-147.379 85,-132 81.6446,-123.769 82.7739,-120.606 85,-112 93.328,-79.8055 114.371,-46.9322 128.158,-27.7736"/>
<polygon fill="midnightblue" stroke="midnightblue" points="131.121,-29.6537 134.255,-19.5333 125.494,-25.4899 131.121,-29.6537"/>
</g>
<!-- Node4 -->
<g id="node4" class="node"><title>Node4</title>
<g id="a_node4"><a xlink:href="CFluido_8h.xhtml" target="_top" xlink:title="CFluido.h">
<polygon fill="white" stroke="black" points="94.5,-112.5 94.5,-131.5 153.5,-131.5 153.5,-112.5 94.5,-112.5"/>
<text text-anchor="middle" x="124" y="-119.5" font-family="Helvetica,sans-Serif" font-size="10.00">CFluido.h</text>
</a>
</g>
</g>
<!-- Node3&#45;&gt;Node4 -->
<g id="edge4" class="edge"><title>Node3&#45;&gt;Node4</title>
<path fill="none" stroke="midnightblue" d="M128.174,-168.083C127.519,-161.006 126.58,-150.861 125.758,-141.986"/>
<polygon fill="midnightblue" stroke="midnightblue" points="129.217,-141.386 124.81,-131.751 122.247,-142.031 129.217,-141.386"/>
</g>
<!-- Node5 -->
<g id="node5" class="node"><title>Node5</title>
<g id="a_node5"><a xlink:href="CMeioPoroso__Telha_8h.xhtml" target="_top" xlink:title="CMeioPoroso_Telha.h">
<polygon fill="white" stroke="black" points="172.5,-112.5 172.5,-131.5 285.5,-131.5 285.5,-112.5 172.5,-112.5"/>
<text text-anchor="middle" x="229" y="-119.5" font-family="Helvetica,sans-Serif" font-size="10.00">CMeioPoroso_Telha.h</text>
</a>
</g>
</g>
<!-- Node3&#45;&gt;Node5 -->
<g id="edge6" class="edge"><title>Node3&#45;&gt;Node5</title>
<path fill="none" stroke="midnightblue" d="M145.067,-168.324C160.958,-159.743 185.507,-146.486 203.958,-136.522"/>
<polygon fill="midnightblue" stroke="midnightblue" points="205.837,-139.486 212.973,-131.655 202.511,-133.326 205.837,-139.486"/>
</g>
<!-- Node4&#45;&gt;Node2 -->
<g id="edge5" class="edge"><title>Node4&#45;&gt;Node2</title>
<path fill="none" stroke="midnightblue" d="M123.697,-112.09C123.43,-99.4935 123.521,-75.805 127,-56 128.575,-47.0349 131.425,-37.3634 134.144,-29.2926"/>
<polygon fill="midnightblue" stroke="midnightblue" points="137.467,-30.3935 137.526,-19.7988 130.873,-28.0446 137.467,-30.3935"/>
</g>
<!-- Node5&#45;&gt;Node2 -->
<g id="edge7" class="edge"><title>Node5&#45;&gt;Node2</title>
<path fill="none" stroke="midnightblue" d="M208.305,-112.347C192.856,-104.876 172.362,-92.6501 160,-76 150.035,-62.5779 145.278,-44.0136 143.018,-30.16"/>
<polygon fill="midnightblue" stroke="midnightblue" points="146.435,-29.2988 141.648,-19.8471 139.496,-30.2211 146.435,-29.2988"/>
</g>
<!-- Node6 -->
<g id="node6" class="node"><title>Node6</title>
<g id="a_node6"><a xlink:href="CFuncaoDifusividade_8h.xhtml" target="_top" xlink:title="CFuncaoDifusividade.h">
<polygon fill="white" stroke="black" points="169.5,-56.5 169.5,-75.5 288.5,-75.5 288.5,-56.5 169.5,-56.5"/>
<text text-anchor="middle" x="229" y="-63.5" font-family="Helvetica,sans-Serif" font-size="10.00">CFuncaoDifusividade.h</text>
</a>
</g>
</g>
<!-- Node5&#45;&gt;Node6 -->
<g id="edge8" class="edge"><title>Node5&#45;&gt;Node6</title>
<path fill="none" stroke="midnightblue" d="M229,-112.083C229,-105.006 229,-94.8611 229,-85.9865"/>
<polygon fill="midnightblue" stroke="midnightblue" points="232.5,-85.751 229,-75.7511 225.5,-85.7511 232.5,-85.751"/>
</g>
<!-- Node7 -->
<g id="node7" class="node"><title>Node7</title>
<g id="a_node7"><a xlink:href="CFuncaoCondutividade_8h.xhtml" target="_top" xlink:title="CFuncaoCondutividade.h">
<polygon fill="white" stroke="black" points="306.5,-56.5 306.5,-75.5 433.5,-75.5 433.5,-56.5 306.5,-56.5"/>
<text text-anchor="middle" x="370" y="-63.5" font-family="Helvetica,sans-Serif" font-size="10.00">CFuncaoCondutividade.h</text>
</a>
</g>
</g>
<!-- Node5&#45;&gt;Node7 -->
<g id="edge10" class="edge"><title>Node5&#45;&gt;Node7</title>
<path fill="none" stroke="midnightblue" d="M251.342,-112.444C274.753,-103.478 311.736,-89.314 338.19,-79.1827"/>
<polygon fill="midnightblue" stroke="midnightblue" points="339.676,-82.3615 347.763,-75.5164 337.172,-75.8245 339.676,-82.3615"/>
</g>
<!-- Node8 -->
<g id="node8" class="node"><title>Node8</title>
<g id="a_node8"><a xlink:href="CFuncaoAdsorcao_8h.xhtml" target="_top" xlink:title="CFuncaoAdsorcao.h">
<polygon fill="white" stroke="black" points="452,-56.5 452,-75.5 558,-75.5 558,-56.5 452,-56.5"/>
<text text-anchor="middle" x="505" y="-63.5" font-family="Helvetica,sans-Serif" font-size="10.00">CFuncaoAdsorcao.h</text>
</a>
</g>
</g>
<!-- Node5&#45;&gt;Node8 -->
<g id="edge12" class="edge"><title>Node5&#45;&gt;Node8</title>
<path fill="none" stroke="midnightblue" d="M272.733,-112.444C321.183,-102.964 399.329,-87.6747 451.418,-77.4835"/>
<polygon fill="midnightblue" stroke="midnightblue" points="452.33,-80.8715 461.472,-75.5164 450.986,-74.0017 452.33,-80.8715"/>
</g>
<!-- Node6&#45;&gt;Node2 -->
<g id="edge9" class="edge"><title>Node6&#45;&gt;Node2</title>
<path fill="none" stroke="midnightblue" d="M214.861,-56.324C201.134,-47.9002 180.064,-34.9709 163.936,-25.0741"/>
<polygon fill="midnightblue" stroke="midnightblue" points="165.457,-21.9016 155.104,-19.6545 161.796,-27.8678 165.457,-21.9016"/>
</g>
<!-- Node7&#45;&gt;Node2 -->
<g id="edge11" class="edge"><title>Node7&#45;&gt;Node2</title>
<path fill="none" stroke="midnightblue" d="M333.714,-56.4435C291.098,-46.3943 220.792,-29.8156 177.908,-19.7033"/>
<polygon fill="midnightblue" stroke="midnightblue" points="178.688,-16.2912 168.152,-17.4026 177.082,-23.1044 178.688,-16.2912"/>
</g>
<!-- Node8&#45;&gt;Node2 -->
<g id="edge13" class="edge"><title>Node8&#45;&gt;Node2</title>
<path fill="none" stroke="midnightblue" d="M451.681,-57.0901C377.046,-46.0178 243.299,-26.1763 178.385,-16.5462"/>
<polygon fill="midnightblue" stroke="midnightblue" points="178.612,-13.0415 168.206,-15.0361 177.584,-19.9657 178.612,-13.0415"/>
</g>
</g>
</svg>
        <g id="navigator" transform="translate(0 0)" fill="#404254">
                <rect fill="#f2f5e9" fill-opacity="0.5" stroke="#606060" stroke-width=".5" x="0" y="0" width="60" height="60"/>
                <use id="zoomplus" xlink:href="#zoomPlus" x="17" y="9" onmousedown="handleZoom(evt,'in')"/>
                <use id="zoomminus" xlink:href="#zoomMin" x="42" y="9" onmousedown="handleZoom(evt,'out')"/>
                <use id="reset" xlink:href="#resetDef" x="30" y="36" onmousedown="handleReset()"/>
                <g id="arrowUp" xlink:href="#dirArrow" transform="translate(30 24)" onmousedown="handlePan(0,-1)">
                  <use xlink:href="#rim" fill="#404040">
                        <set attributeName="fill" to="#808080" begin="arrowUp.mouseover" end="arrowUp.mouseout"/>
                  </use>
                  <path fill="none" stroke="white" stroke-width="1.5" d="M0,-3.0v7 M-2.5,-0.5L0,-3.0L2.5,-0.5"/>
                </g>
                <g id="arrowRight" xlink:href="#dirArrow" transform="rotate(90) translate(36 -43)" onmousedown="handlePan(1,0)">
                  <use xlink:href="#rim" fill="#404040">
                        <set attributeName="fill" to="#808080" begin="arrowRight.mouseover" end="arrowRight.mouseout"/>
                  </use>
                  <path fill="none" stroke="white" stroke-width="1.5" d="M0,-3.0v7 M-2.5,-0.5L0,-3.0L2.5,-0.5"/>
                </g>
                <g id="arrowDown" xlink:href="#dirArrow" transform="rotate(180) translate(-30 -48)" onmousedown="handlePan(0,1)">
                  <use xlink:href="#rim" fill="#404040">
                        <set attributeName="fill" to="#808080" begin="arrowDown.mouseover" end="arrowDown.mouseout"/>
                  </use>
                  <path fill="none" stroke="white" stroke-width="1.5" d="M0,-3.0v7 M-2.5,-0.5L0,-3.0L2.5,-0.5"/>
                </g>
                <g id="arrowLeft" xlink:href="#dirArrow" transform="rotate(270) translate(-36 17)" onmousedown="handlePan(-1,0)">
                  <use xlink:href="#rim" fill="#404040">
                        <set attributeName="fill" to="#808080" begin="arrowLeft.mouseover" end="arrowLeft.mouseout"/>
                  </use>
                  <path fill="none" stroke="white" stroke-width="1.5" d="M0,-3.0v7 M-2.5,-0.5L0,-3.0L2.5,-0.5"/>
                </g>
        </g>
        <svg viewBox="0 0 15 15" width="100%" height="30px" preserveAspectRatio="xMaxYMin meet">
         <g id="arrow_out" transform="scale(0.3 0.3)">
          <a xlink:href="CFuncaoConteudoMassicoWl_8cpp__incl_org.svg" target="_base">
           <rect id="button" ry="5" rx="5" y="6" x="6" height="38" width="38"
                fill="#f2f5e9" fill-opacity="0.5" stroke="#606060" stroke-width="1.0"/>
           <path id="arrow"
             d="M 11.500037,31.436501 C 11.940474,20.09759 22.043105,11.32322 32.158766,21.979434 L 37.068811,17.246167 C 37.068811,17.246167 37.088388,32 37.088388,32 L 22.160133,31.978069 C 22.160133,31.978069 26.997745,27.140456 26.997745,27.140456 C 18.528582,18.264221 13.291696,25.230495 11.500037,31.436501 z"
             style="fill:#404040;"/>
          </a>
         </g>
        </svg>
</svg>
