<?xml version="1.0" encoding="UTF-8" standalone="no"?>
<!DOCTYPE svg PUBLIC "-//W3C//DTD SVG 1.1//EN"
 "http://www.w3.org/Graphics/SVG/1.1/DTD/svg11.dtd">
<!-- Generated by graphviz version 2.34.0 (20140110.0949)
 -->
<!-- Title: src/CFuncaoDifusividade.h Pages: 1 -->
<svg width="577pt" height="424pt"
 viewBox="0.00 0.00 577.00 424.00" xmlns="http://www.w3.org/2000/svg" xmlns:xlink="http://www.w3.org/1999/xlink">
<g id="graph0" class="graph" transform="scale(1 1) rotate(0) translate(4 420)">
<title>src/CFuncaoDifusividade.h</title>
<polygon fill="white" stroke="white" points="-4,4 -4,-420 573,-420 573,4 -4,4"/>
<!-- Node1 -->
<g id="node1" class="node"><title>Node1</title>
<polygon fill="#bfbfbf" stroke="black" points="350.5,-396.5 350.5,-415.5 485.5,-415.5 485.5,-396.5 350.5,-396.5"/>
<text text-anchor="middle" x="418" y="-403.5" font-family="Helvetica,sans-Serif" font-size="10.00">src/CFuncaoDifusividade.h</text>
</g>
<!-- Node2 -->
<g id="node2" class="node"><title>Node2</title>
<g id="a_node2"><a xlink:href="CMeioPoroso__Telha_8h.xhtml" target="_top" xlink:title="src/CMeioPoroso_Telha.h">
<polygon fill="white" stroke="black" points="275,-340.5 275,-359.5 405,-359.5 405,-340.5 275,-340.5"/>
<text text-anchor="middle" x="340" y="-347.5" font-family="Helvetica,sans-Serif" font-size="10.00">src/CMeioPoroso_Telha.h</text>
</a>
</g>
</g>
<!-- Node1&#45;&gt;Node2 -->
<g id="edge1" class="edge"><title>Node1&#45;&gt;Node2</title>
<path fill="none" stroke="midnightblue" d="M397.232,-390.622C382.983,-380.757 364.544,-367.992 352.501,-359.655"/>
<polygon fill="midnightblue" stroke="midnightblue" points="395.254,-393.51 405.468,-396.324 399.238,-387.754 395.254,-393.51"/>
</g>
<!-- Node15 -->
<g id="node15" class="node"><title>Node15</title>
<g id="a_node15"><a xlink:href="CFuncaoDifusividade_8cpp.xhtml" target="_top" xlink:title="src/CFuncaoDifusividade.cpp">
<polygon fill="white" stroke="black" points="423,-340.5 423,-359.5 569,-359.5 569,-340.5 423,-340.5"/>
<text text-anchor="middle" x="496" y="-347.5" font-family="Helvetica,sans-Serif" font-size="10.00">src/CFuncaoDifusividade.cpp</text>
</a>
</g>
</g>
<!-- Node1&#45;&gt;Node15 -->
<g id="edge15" class="edge"><title>Node1&#45;&gt;Node15</title>
<path fill="none" stroke="midnightblue" d="M438.768,-390.622C453.017,-380.757 471.456,-367.992 483.499,-359.655"/>
<polygon fill="midnightblue" stroke="midnightblue" points="436.762,-387.754 430.532,-396.324 440.746,-393.51 436.762,-387.754"/>
</g>
<!-- Node3 -->
<g id="node3" class="node"><title>Node3</title>
<g id="a_node3"><a xlink:href="CFuncaoConteudoMassicoWl_8h.xhtml" target="_top" xlink:title="src/CFuncaoConteudoMassicoWl.h">
<polygon fill="white" stroke="black" points="89,-278.5 89,-297.5 261,-297.5 261,-278.5 89,-278.5"/>
<text text-anchor="middle" x="175" y="-285.5" font-family="Helvetica,sans-Serif" font-size="10.00">src/CFuncaoConteudoMassicoWl.h</text>
</a>
</g>
</g>
<!-- Node2&#45;&gt;Node3 -->
<g id="edge2" class="edge"><title>Node2&#45;&gt;Node3</title>
<path fill="none" stroke="midnightblue" d="M306.952,-336.983C274.879,-325.32 227.002,-307.91 198.597,-297.581"/>
<polygon fill="midnightblue" stroke="midnightblue" points="305.765,-340.275 316.36,-340.403 308.158,-333.697 305.765,-340.275"/>
</g>
<!-- Node12 -->
<g id="node12" class="node"><title>Node12</title>
<g id="a_node12"><a xlink:href="CMeioPoroso__Telha__Discretizada__TDMA_8h.xhtml" target="_top" xlink:title="src/CMeioPoroso_Telha\l_Discretizada_TDMA.h">
<polygon fill="white" stroke="black" points="279,-273 279,-303 401,-303 401,-273 279,-273"/>
<text text-anchor="start" x="287" y="-291" font-family="Helvetica,sans-Serif" font-size="10.00">src/CMeioPoroso_Telha</text>
<text text-anchor="middle" x="340" y="-280" font-family="Helvetica,sans-Serif" font-size="10.00">_Discretizada_TDMA.h</text>
</a>
</g>
</g>
<!-- Node2&#45;&gt;Node12 -->
<g id="edge11" class="edge"><title>Node2&#45;&gt;Node12</title>
<path fill="none" stroke="midnightblue" d="M340,-330.371C340,-321.585 340,-311.272 340,-303.141"/>
<polygon fill="midnightblue" stroke="midnightblue" points="336.5,-330.403 340,-340.403 343.5,-330.403 336.5,-330.403"/>
</g>
<!-- Node14 -->
<g id="node14" class="node"><title>Node14</title>
<g id="a_node14"><a xlink:href="CMeioPoroso__Telha_8cpp.xhtml" target="_top" xlink:title="src/CMeioPoroso_Telha.cpp">
<polygon fill="white" stroke="black" points="419,-278.5 419,-297.5 559,-297.5 559,-278.5 419,-278.5"/>
<text text-anchor="middle" x="489" y="-285.5" font-family="Helvetica,sans-Serif" font-size="10.00">src/CMeioPoroso_Telha.cpp</text>
</a>
</g>
</g>
<!-- Node2&#45;&gt;Node14 -->
<g id="edge14" class="edge"><title>Node2&#45;&gt;Node14</title>
<path fill="none" stroke="midnightblue" d="M370.974,-336.527C399.921,-324.871 442.372,-307.776 467.692,-297.581"/>
<polygon fill="midnightblue" stroke="midnightblue" points="369.317,-333.421 361.348,-340.403 371.932,-339.915 369.317,-333.421"/>
</g>
<!-- Node4 -->
<g id="node4" class="node"><title>Node4</title>
<g id="a_node4"><a xlink:href="CFuncaoConteudoMassicoWl_8cpp.xhtml" target="_top" xlink:title="src/CFuncaoConteudoMassico\lWl.cpp">
<polygon fill="white" stroke="black" points="32,-205 32,-235 184,-235 184,-205 32,-205"/>
<text text-anchor="start" x="40" y="-223" font-family="Helvetica,sans-Serif" font-size="10.00">src/CFuncaoConteudoMassico</text>
<text text-anchor="middle" x="108" y="-212" font-family="Helvetica,sans-Serif" font-size="10.00">Wl.cpp</text>
</a>
</g>
</g>
<!-- Node3&#45;&gt;Node4 -->
<g id="edge3" class="edge"><title>Node3&#45;&gt;Node4</title>
<path fill="none" stroke="midnightblue" d="M158.878,-271.119C147.763,-260.17 133.119,-245.744 122.396,-235.181"/>
<polygon fill="midnightblue" stroke="midnightblue" points="156.661,-273.847 166.241,-278.372 161.573,-268.86 156.661,-273.847"/>
</g>
<!-- Node5 -->
<g id="node5" class="node"><title>Node5</title>
<g id="a_node5"><a xlink:href="CSimulador__Telha_8h.xhtml" target="_top" xlink:title="src/CSimulador_Telha.h">
<polygon fill="white" stroke="black" points="202,-210.5 202,-229.5 324,-229.5 324,-210.5 202,-210.5"/>
<text text-anchor="middle" x="263" y="-217.5" font-family="Helvetica,sans-Serif" font-size="10.00">src/CSimulador_Telha.h</text>
</a>
</g>
</g>
<!-- Node3&#45;&gt;Node5 -->
<g id="edge4" class="edge"><title>Node3&#45;&gt;Node5</title>
<path fill="none" stroke="midnightblue" d="M194.872,-272.096C212.332,-259.001 237.13,-240.403 251.493,-229.63"/>
<polygon fill="midnightblue" stroke="midnightblue" points="192.404,-269.572 186.504,-278.372 196.604,-275.172 192.404,-269.572"/>
</g>
<!-- Node6 -->
<g id="node6" class="node"><title>Node6</title>
<g id="a_node6"><a xlink:href="CSimulador__Telha__GanhosEnergia_8h.xhtml" target="_top" xlink:title="src/CSimulador_Telha\l_GanhosEnergia.h">
<polygon fill="white" stroke="black" points="135.5,-137 135.5,-167 248.5,-167 248.5,-137 135.5,-137"/>
<text text-anchor="start" x="143.5" y="-155" font-family="Helvetica,sans-Serif" font-size="10.00">src/CSimulador_Telha</text>
<text text-anchor="middle" x="192" y="-144" font-family="Helvetica,sans-Serif" font-size="10.00">_GanhosEnergia.h</text>
</a>
</g>
</g>
<!-- Node5&#45;&gt;Node6 -->
<g id="edge5" class="edge"><title>Node5&#45;&gt;Node6</title>
<path fill="none" stroke="midnightblue" d="M246.257,-203.436C234.439,-192.45 218.729,-177.846 207.256,-167.181"/>
<polygon fill="midnightblue" stroke="midnightblue" points="244.011,-206.127 253.718,-210.372 248.777,-201 244.011,-206.127"/>
</g>
<!-- Node11 -->
<g id="node11" class="node"><title>Node11</title>
<g id="a_node11"><a xlink:href="CSimulador__Telha_8cpp.xhtml" target="_top" xlink:title="src/CSimulador_Telha.cpp">
<polygon fill="white" stroke="black" points="267,-142.5 267,-161.5 399,-161.5 399,-142.5 267,-142.5"/>
<text text-anchor="middle" x="333" y="-149.5" font-family="Helvetica,sans-Serif" font-size="10.00">src/CSimulador_Telha.cpp</text>
</a>
</g>
</g>
<!-- Node5&#45;&gt;Node11 -->
<g id="edge10" class="edge"><title>Node5&#45;&gt;Node11</title>
<path fill="none" stroke="midnightblue" d="M279.532,-203.412C293.284,-190.447 312.365,-172.456 323.623,-161.841"/>
<polygon fill="midnightblue" stroke="midnightblue" points="277.026,-200.965 272.151,-210.372 281.828,-206.058 277.026,-200.965"/>
</g>
<!-- Node7 -->
<g id="node7" class="node"><title>Node7</title>
<g id="a_node7"><a xlink:href="CInterface__SimuladorTelha_8h.xhtml" target="_top" xlink:title="src/CInterface_Simulador\lTelha.h">
<polygon fill="white" stroke="black" points="59,-69 59,-99 187,-99 187,-69 59,-69"/>
<text text-anchor="start" x="67" y="-87" font-family="Helvetica,sans-Serif" font-size="10.00">src/CInterface_Simulador</text>
<text text-anchor="middle" x="123" y="-76" font-family="Helvetica,sans-Serif" font-size="10.00">Telha.h</text>
</a>
</g>
</g>
<!-- Node6&#45;&gt;Node7 -->
<g id="edge6" class="edge"><title>Node6&#45;&gt;Node7</title>
<path fill="none" stroke="midnightblue" d="M169.508,-129.485C159.157,-119.585 147.16,-108.109 137.943,-99.2931"/>
<polygon fill="midnightblue" stroke="midnightblue" points="167.382,-132.296 177.028,-136.679 172.221,-127.237 167.382,-132.296"/>
</g>
<!-- Node10 -->
<g id="node10" class="node"><title>Node10</title>
<g id="a_node10"><a xlink:href="CSimulador__Telha__GanhosEnergia_8cpp.xhtml" target="_top" xlink:title="src/CSimulador_Telha\l_GanhosEnergia.cpp">
<polygon fill="white" stroke="black" points="205.5,-69 205.5,-99 318.5,-99 318.5,-69 205.5,-69"/>
<text text-anchor="start" x="213.5" y="-87" font-family="Helvetica,sans-Serif" font-size="10.00">src/CSimulador_Telha</text>
<text text-anchor="middle" x="262" y="-76" font-family="Helvetica,sans-Serif" font-size="10.00">_GanhosEnergia.cpp</text>
</a>
</g>
</g>
<!-- Node6&#45;&gt;Node10 -->
<g id="edge9" class="edge"><title>Node6&#45;&gt;Node10</title>
<path fill="none" stroke="midnightblue" d="M214.51,-129.776C225.08,-119.81 237.399,-108.196 246.841,-99.2931"/>
<polygon fill="midnightblue" stroke="midnightblue" points="212.064,-127.272 207.189,-136.679 216.866,-132.365 212.064,-127.272"/>
</g>
<!-- Node8 -->
<g id="node8" class="node"><title>Node8</title>
<g id="a_node8"><a xlink:href="CInterface__SimuladorTelha_8cpp.xhtml" target="_top" xlink:title="src/CInterface_Simulador\lTelha.cpp">
<polygon fill="white" stroke="black" points="0,-1 0,-31 128,-31 128,-1 0,-1"/>
<text text-anchor="start" x="8" y="-19" font-family="Helvetica,sans-Serif" font-size="10.00">src/CInterface_Simulador</text>
<text text-anchor="middle" x="64" y="-8" font-family="Helvetica,sans-Serif" font-size="10.00">Telha.cpp</text>
</a>
</g>
</g>
<!-- Node7&#45;&gt;Node8 -->
<g id="edge7" class="edge"><title>Node7&#45;&gt;Node8</title>
<path fill="none" stroke="midnightblue" d="M103.507,-61.1939C94.7162,-51.3605 84.5809,-40.0228 76.7771,-31.2931"/>
<polygon fill="midnightblue" stroke="midnightblue" points="100.924,-63.5562 110.198,-68.679 106.143,-58.891 100.924,-63.5562"/>
</g>
<!-- Node9 -->
<g id="node9" class="node"><title>Node9</title>
<g id="a_node9"><a xlink:href="main_8cpp.xhtml" target="_top" xlink:title="src/main.cpp">
<polygon fill="white" stroke="black" points="146.5,-6.5 146.5,-25.5 219.5,-25.5 219.5,-6.5 146.5,-6.5"/>
<text text-anchor="middle" x="183" y="-13.5" font-family="Helvetica,sans-Serif" font-size="10.00">src/main.cpp</text>
</a>
</g>
</g>
<!-- Node7&#45;&gt;Node9 -->
<g id="edge8" class="edge"><title>Node7&#45;&gt;Node9</title>
<path fill="none" stroke="midnightblue" d="M142.849,-61.1658C153.801,-49.119 166.799,-34.8216 174.974,-25.8283"/>
<polygon fill="midnightblue" stroke="midnightblue" points="140.156,-58.9252 136.019,-68.679 145.336,-63.6339 140.156,-58.9252"/>
</g>
<!-- Node12&#45;&gt;Node5 -->
<g id="edge12" class="edge"><title>Node12&#45;&gt;Node5</title>
<path fill="none" stroke="midnightblue" d="M315.327,-265.852C301.11,-253.666 283.992,-238.993 273.3,-229.828"/>
<polygon fill="midnightblue" stroke="midnightblue" points="313.422,-268.828 323.292,-272.679 317.977,-263.514 313.422,-268.828"/>
</g>
<!-- Node13 -->
<g id="node13" class="node"><title>Node13</title>
<g id="a_node13"><a xlink:href="CMeioPoroso__Telha__Discretizada__TDMA_8cpp.xhtml" target="_top" xlink:title="src/CMeioPoroso_Telha\l_Discretizada_TDMA.cpp">
<polygon fill="white" stroke="black" points="342.5,-205 342.5,-235 471.5,-235 471.5,-205 342.5,-205"/>
<text text-anchor="start" x="350.5" y="-223" font-family="Helvetica,sans-Serif" font-size="10.00">src/CMeioPoroso_Telha</text>
<text text-anchor="middle" x="407" y="-212" font-family="Helvetica,sans-Serif" font-size="10.00">_Discretizada_TDMA.cpp</text>
</a>
</g>
</g>
<!-- Node12&#45;&gt;Node13 -->
<g id="edge13" class="edge"><title>Node12&#45;&gt;Node13</title>
<path fill="none" stroke="midnightblue" d="M361.84,-265.485C371.891,-255.585 383.541,-244.109 392.49,-235.293"/>
<polygon fill="midnightblue" stroke="midnightblue" points="359.206,-263.168 354.538,-272.679 364.118,-268.155 359.206,-263.168"/>
</g>
</g>
</svg>
