<?xml version="1.0" encoding="UTF-8" standalone="no"?>
<!DOCTYPE svg PUBLIC "-//W3C//DTD SVG 1.1//EN"
 "http://www.w3.org/Graphics/SVG/1.1/DTD/svg11.dtd">
<!-- Generated by graphviz version 2.34.0 (20140110.0949)
 -->
<!-- Title: src/CFuncoesClima.cpp Pages: 1 -->
<svg width="361pt" height="140pt"
 viewBox="0.00 0.00 361.33 140.00" xmlns="http://www.w3.org/2000/svg" xmlns:xlink="http://www.w3.org/1999/xlink">
<g id="graph0" class="graph" transform="scale(1 1) rotate(0) translate(4 136)">
<title>src/CFuncoesClima.cpp</title>
<polygon fill="white" stroke="white" points="-4,4 -4,-136 357.325,-136 357.325,4 -4,4"/>
<!-- Node1 -->
<g id="node1" class="node"><title>Node1</title>
<polygon fill="#bfbfbf" stroke="black" points="89.3254,-112.5 89.3254,-131.5 211.325,-131.5 211.325,-112.5 89.3254,-112.5"/>
<text text-anchor="middle" x="150.325" y="-119.5" font-family="Helvetica,sans-Serif" font-size="10.00">src/CFuncoesClima.cpp</text>
</g>
<!-- Node2 -->
<g id="node2" class="node"><title>Node2</title>
<polygon fill="white" stroke="#bfbfbf" points="22.3254,-0.5 22.3254,-19.5 76.3254,-19.5 76.3254,-0.5 22.3254,-0.5"/>
<text text-anchor="middle" x="49.3254" y="-7.5" font-family="Helvetica,sans-Serif" font-size="10.00">iostream</text>
</g>
<!-- Node1&#45;&gt;Node2 -->
<g id="edge1" class="edge"><title>Node1&#45;&gt;Node2</title>
<path fill="none" stroke="midnightblue" d="M89.1123,-118.494C58.4427,-113.753 23.78,-102.354 4.32538,-76 -8.28395,-58.9189 10.7753,-38.7477 27.8356,-25.4574"/>
<polygon fill="midnightblue" stroke="midnightblue" points="29.9168,-28.2714 35.9025,-19.5295 25.7717,-22.6306 29.9168,-28.2714"/>
</g>
<!-- Node3 -->
<g id="node3" class="node"><title>Node3</title>
<polygon fill="white" stroke="#bfbfbf" points="243.325,-0.5 243.325,-19.5 287.325,-19.5 287.325,-0.5 243.325,-0.5"/>
<text text-anchor="middle" x="265.325" y="-7.5" font-family="Helvetica,sans-Serif" font-size="10.00">cmath</text>
</g>
<!-- Node1&#45;&gt;Node3 -->
<g id="edge2" class="edge"><title>Node1&#45;&gt;Node3</title>
<path fill="none" stroke="midnightblue" d="M162.354,-112.204C174.009,-103.484 191.978,-89.5091 206.325,-76 222.709,-60.5734 239.821,-41.3183 251.371,-27.7833"/>
<polygon fill="midnightblue" stroke="midnightblue" points="254.322,-29.7131 258.094,-19.8125 248.971,-25.1999 254.322,-29.7131"/>
</g>
<!-- Node4 -->
<g id="node4" class="node"><title>Node4</title>
<g id="a_node4"><a xlink:href="CInterface_8h.xhtml" target="_top" xlink:title="CInterface.h">
<polygon fill="white" stroke="black" points="13.8254,-56.5 13.8254,-75.5 84.8254,-75.5 84.8254,-56.5 13.8254,-56.5"/>
<text text-anchor="middle" x="49.3254" y="-63.5" font-family="Helvetica,sans-Serif" font-size="10.00">CInterface.h</text>
</a>
</g>
</g>
<!-- Node1&#45;&gt;Node4 -->
<g id="edge3" class="edge"><title>Node1&#45;&gt;Node4</title>
<path fill="none" stroke="midnightblue" d="M134.098,-112.324C117.974,-103.703 93.0252,-90.3643 74.3613,-80.3855"/>
<polygon fill="midnightblue" stroke="midnightblue" points="75.9815,-77.283 65.5125,-75.6545 72.681,-83.456 75.9815,-77.283"/>
</g>
<!-- Node5 -->
<g id="node5" class="node"><title>Node5</title>
<g id="a_node5"><a xlink:href="CFuncoesClima_8h.xhtml" target="_top" xlink:title="CFuncoesClima.h">
<polygon fill="white" stroke="black" points="102.825,-56.5 102.825,-75.5 197.825,-75.5 197.825,-56.5 102.825,-56.5"/>
<text text-anchor="middle" x="150.325" y="-63.5" font-family="Helvetica,sans-Serif" font-size="10.00">CFuncoesClima.h</text>
</a>
</g>
</g>
<!-- Node1&#45;&gt;Node5 -->
<g id="edge5" class="edge"><title>Node1&#45;&gt;Node5</title>
<path fill="none" stroke="midnightblue" d="M150.325,-112.083C150.325,-105.006 150.325,-94.8611 150.325,-85.9865"/>
<polygon fill="midnightblue" stroke="midnightblue" points="153.825,-85.751 150.325,-75.7511 146.825,-85.7511 153.825,-85.751"/>
</g>
<!-- Node6 -->
<g id="node6" class="node"><title>Node6</title>
<g id="a_node6"><a xlink:href="CTermodinamica_8h.xhtml" target="_top" xlink:title="CTermodinamica.h">
<polygon fill="white" stroke="black" points="254.825,-56.5 254.825,-75.5 353.825,-75.5 353.825,-56.5 254.825,-56.5"/>
<text text-anchor="middle" x="304.325" y="-63.5" font-family="Helvetica,sans-Serif" font-size="10.00">CTermodinamica.h</text>
</a>
</g>
</g>
<!-- Node1&#45;&gt;Node6 -->
<g id="edge7" class="edge"><title>Node1&#45;&gt;Node6</title>
<path fill="none" stroke="midnightblue" d="M174.727,-112.444C200.522,-103.399 241.402,-89.064 270.343,-78.9158"/>
<polygon fill="midnightblue" stroke="midnightblue" points="271.759,-82.1283 280.038,-75.5164 269.443,-75.5226 271.759,-82.1283"/>
</g>
<!-- Node4&#45;&gt;Node2 -->
<g id="edge4" class="edge"><title>Node4&#45;&gt;Node2</title>
<path fill="none" stroke="midnightblue" d="M49.3254,-56.083C49.3254,-49.0059 49.3254,-38.8611 49.3254,-29.9865"/>
<polygon fill="midnightblue" stroke="midnightblue" points="52.8255,-29.751 49.3254,-19.7511 45.8255,-29.7511 52.8255,-29.751"/>
</g>
<!-- Node5&#45;&gt;Node2 -->
<g id="edge6" class="edge"><title>Node5&#45;&gt;Node2</title>
<path fill="none" stroke="midnightblue" d="M134.098,-56.324C117.974,-47.7034 93.0252,-34.3643 74.3613,-24.3855"/>
<polygon fill="midnightblue" stroke="midnightblue" points="75.9815,-21.283 65.5125,-19.6545 72.681,-27.456 75.9815,-21.283"/>
</g>
<!-- Node6&#45;&gt;Node3 -->
<g id="edge8" class="edge"><title>Node6&#45;&gt;Node3</title>
<path fill="none" stroke="midnightblue" d="M297.885,-56.083C292.377,-48.4554 284.294,-37.2645 277.56,-27.9408"/>
<polygon fill="midnightblue" stroke="midnightblue" points="280.338,-25.8087 271.646,-19.7511 274.663,-29.9071 280.338,-25.8087"/>
</g>
</g>
</svg>
