<?xml version="1.0" encoding="UTF-8" standalone="no"?>
<!DOCTYPE svg PUBLIC "-//W3C//DTD SVG 1.1//EN"
 "http://www.w3.org/Graphics/SVG/1.1/DTD/svg11.dtd">
<!-- Generated by graphviz version 2.34.0 (20140110.0949)
 -->
<!-- Title: src/CFuncaoDifusividade.cpp Pages: 1 -->
<svg width="291pt" height="140pt"
 viewBox="0.00 0.00 291.00 140.00" xmlns="http://www.w3.org/2000/svg" xmlns:xlink="http://www.w3.org/1999/xlink">
<g id="graph0" class="graph" transform="scale(1 1) rotate(0) translate(4 136)">
<title>src/CFuncaoDifusividade.cpp</title>
<polygon fill="white" stroke="white" points="-4,4 -4,-136 287.002,-136 287.002,4 -4,4"/>
<!-- Node1 -->
<g id="node1" class="node"><title>Node1</title>
<polygon fill="#bfbfbf" stroke="black" points="0.00230438,-112.5 0.00230438,-131.5 146.002,-131.5 146.002,-112.5 0.00230438,-112.5"/>
<text text-anchor="middle" x="73.0023" y="-119.5" font-family="Helvetica,sans-Serif" font-size="10.00">src/CFuncaoDifusividade.cpp</text>
</g>
<!-- Node2 -->
<g id="node2" class="node"><title>Node2</title>
<polygon fill="white" stroke="#bfbfbf" points="84.0023,-0.5 84.0023,-19.5 138.002,-19.5 138.002,-0.5 84.0023,-0.5"/>
<text text-anchor="middle" x="111.002" y="-7.5" font-family="Helvetica,sans-Serif" font-size="10.00">iostream</text>
</g>
<!-- Node1&#45;&gt;Node2 -->
<g id="edge1" class="edge"><title>Node1&#45;&gt;Node2</title>
<path fill="none" stroke="midnightblue" d="M50.9781,-112.411C25.2979,-101.062 -11.7514,-79.7157 4.0023,-56 19.4182,-32.793 49.3894,-21.5275 73.6992,-16.0738"/>
<polygon fill="midnightblue" stroke="midnightblue" points="74.591,-19.4649 83.7121,-14.0745 73.2203,-12.6004 74.591,-19.4649"/>
</g>
<!-- Node3 -->
<g id="node3" class="node"><title>Node3</title>
<polygon fill="white" stroke="#bfbfbf" points="13.0023,-56.5 13.0023,-75.5 57.0023,-75.5 57.0023,-56.5 13.0023,-56.5"/>
<text text-anchor="middle" x="35.0023" y="-63.5" font-family="Helvetica,sans-Serif" font-size="10.00">cmath</text>
</g>
<!-- Node1&#45;&gt;Node3 -->
<g id="edge2" class="edge"><title>Node1&#45;&gt;Node3</title>
<path fill="none" stroke="midnightblue" d="M66.7274,-112.083C61.3598,-104.455 53.4847,-93.2645 46.9236,-83.9408"/>
<polygon fill="midnightblue" stroke="midnightblue" points="49.7778,-81.9149 41.1605,-75.7511 44.0531,-85.9434 49.7778,-81.9149"/>
</g>
<!-- Node4 -->
<g id="node4" class="node"><title>Node4</title>
<g id="a_node4"><a xlink:href="CInterface_8h.xhtml" target="_top" xlink:title="CInterface.h">
<polygon fill="white" stroke="black" points="75.5023,-56.5 75.5023,-75.5 146.502,-75.5 146.502,-56.5 75.5023,-56.5"/>
<text text-anchor="middle" x="111.002" y="-63.5" font-family="Helvetica,sans-Serif" font-size="10.00">CInterface.h</text>
</a>
</g>
</g>
<!-- Node1&#45;&gt;Node4 -->
<g id="edge3" class="edge"><title>Node1&#45;&gt;Node4</title>
<path fill="none" stroke="midnightblue" d="M79.2772,-112.083C84.6448,-104.455 92.5199,-93.2645 99.081,-83.9408"/>
<polygon fill="midnightblue" stroke="midnightblue" points="101.951,-85.9434 104.844,-75.7511 96.2268,-81.9149 101.951,-85.9434"/>
</g>
<!-- Node5 -->
<g id="node5" class="node"><title>Node5</title>
<g id="a_node5"><a xlink:href="CFuncaoDifusividade_8h.xhtml" target="_top" xlink:title="CFuncaoDifusividade.h">
<polygon fill="white" stroke="black" points="164.502,-56.5 164.502,-75.5 283.502,-75.5 283.502,-56.5 164.502,-56.5"/>
<text text-anchor="middle" x="224.002" y="-63.5" font-family="Helvetica,sans-Serif" font-size="10.00">CFuncaoDifusividade.h</text>
</a>
</g>
</g>
<!-- Node1&#45;&gt;Node5 -->
<g id="edge5" class="edge"><title>Node1&#45;&gt;Node5</title>
<path fill="none" stroke="midnightblue" d="M96.9287,-112.444C122.221,-103.399 162.305,-89.064 190.682,-78.9158"/>
<polygon fill="midnightblue" stroke="midnightblue" points="191.95,-82.1794 200.188,-75.5164 189.593,-75.5882 191.95,-82.1794"/>
</g>
<!-- Node4&#45;&gt;Node2 -->
<g id="edge4" class="edge"><title>Node4&#45;&gt;Node2</title>
<path fill="none" stroke="midnightblue" d="M111.002,-56.083C111.002,-49.0059 111.002,-38.8611 111.002,-29.9865"/>
<polygon fill="midnightblue" stroke="midnightblue" points="114.502,-29.751 111.002,-19.7511 107.502,-29.7511 114.502,-29.751"/>
</g>
<!-- Node5&#45;&gt;Node2 -->
<g id="edge6" class="edge"><title>Node5&#45;&gt;Node2</title>
<path fill="none" stroke="midnightblue" d="M206.097,-56.4435C187.748,-47.6751 158.997,-33.9355 137.909,-23.8579"/>
<polygon fill="midnightblue" stroke="midnightblue" points="139.356,-20.6703 128.824,-19.5164 136.337,-26.9862 139.356,-20.6703"/>
</g>
</g>
</svg>
