<?xml version="1.0" encoding="UTF-8" standalone="no"?>
<!DOCTYPE svg PUBLIC "-//W3C//DTD SVG 1.1//EN"
 "http://www.w3.org/Graphics/SVG/1.1/DTD/svg11.dtd">
<!-- Generated by graphviz version 2.34.0 (20140110.0949)
 -->
<!-- Title: src/CFuncaoConteudoMassicoWl.h Pages: 1 -->
<svg width="529pt" height="196pt"
 viewBox="0.00 0.00 529.00 196.00" xmlns="http://www.w3.org/2000/svg" xmlns:xlink="http://www.w3.org/1999/xlink">
<g id="graph0" class="graph" transform="scale(1 1) rotate(0) translate(4 192)">
<title>src/CFuncaoConteudoMassicoWl.h</title>
<polygon fill="white" stroke="white" points="-4,4 -4,-192 525,-192 525,4 -4,4"/>
<!-- Node1 -->
<g id="node1" class="node"><title>Node1</title>
<polygon fill="#bfbfbf" stroke="black" points="0,-168.5 0,-187.5 172,-187.5 172,-168.5 0,-168.5"/>
<text text-anchor="middle" x="86" y="-175.5" font-family="Helvetica,sans-Serif" font-size="10.00">src/CFuncaoConteudoMassicoWl.h</text>
</g>
<!-- Node2 -->
<g id="node2" class="node"><title>Node2</title>
<polygon fill="white" stroke="#bfbfbf" points="121,-0.5 121,-19.5 175,-19.5 175,-0.5 121,-0.5"/>
<text text-anchor="middle" x="148" y="-7.5" font-family="Helvetica,sans-Serif" font-size="10.00">iostream</text>
</g>
<!-- Node1&#45;&gt;Node2 -->
<g id="edge1" class="edge"><title>Node1&#45;&gt;Node2</title>
<path fill="none" stroke="midnightblue" d="M74.3861,-168.205C59.9541,-156.122 38.2328,-133.438 47,-112 62.6328,-73.7729 100.673,-42.5371 125.349,-25.3753"/>
<polygon fill="midnightblue" stroke="midnightblue" points="127.431,-28.1926 133.769,-19.7024 123.52,-22.3872 127.431,-28.1926"/>
</g>
<!-- Node3 -->
<g id="node3" class="node"><title>Node3</title>
<g id="a_node3"><a xlink:href="CFluido_8h.xhtml" target="_top" xlink:title="CFluido.h">
<polygon fill="white" stroke="black" points="56.5,-112.5 56.5,-131.5 115.5,-131.5 115.5,-112.5 56.5,-112.5"/>
<text text-anchor="middle" x="86" y="-119.5" font-family="Helvetica,sans-Serif" font-size="10.00">CFluido.h</text>
</a>
</g>
</g>
<!-- Node1&#45;&gt;Node3 -->
<g id="edge2" class="edge"><title>Node1&#45;&gt;Node3</title>
<path fill="none" stroke="midnightblue" d="M86,-168.083C86,-161.006 86,-150.861 86,-141.986"/>
<polygon fill="midnightblue" stroke="midnightblue" points="89.5001,-141.751 86,-131.751 82.5001,-141.751 89.5001,-141.751"/>
</g>
<!-- Node4 -->
<g id="node4" class="node"><title>Node4</title>
<g id="a_node4"><a xlink:href="CMeioPoroso__Telha_8h.xhtml" target="_top" xlink:title="CMeioPoroso_Telha.h">
<polygon fill="white" stroke="black" points="135.5,-112.5 135.5,-131.5 248.5,-131.5 248.5,-112.5 135.5,-112.5"/>
<text text-anchor="middle" x="192" y="-119.5" font-family="Helvetica,sans-Serif" font-size="10.00">CMeioPoroso_Telha.h</text>
</a>
</g>
</g>
<!-- Node1&#45;&gt;Node4 -->
<g id="edge4" class="edge"><title>Node1&#45;&gt;Node4</title>
<path fill="none" stroke="midnightblue" d="M103.031,-168.324C120.03,-159.664 146.376,-146.242 165.993,-136.249"/>
<polygon fill="midnightblue" stroke="midnightblue" points="167.69,-139.312 175.012,-131.655 164.512,-133.075 167.69,-139.312"/>
</g>
<!-- Node3&#45;&gt;Node2 -->
<g id="edge3" class="edge"><title>Node3&#45;&gt;Node2</title>
<path fill="none" stroke="midnightblue" d="M89.3961,-112.333C94.5076,-99.6274 104.782,-75.3556 116,-56 121.648,-46.2545 128.853,-35.9751 134.995,-27.7049"/>
<polygon fill="midnightblue" stroke="midnightblue" points="137.86,-29.7206 141.12,-19.6398 132.285,-25.4872 137.86,-29.7206"/>
</g>
<!-- Node4&#45;&gt;Node2 -->
<g id="edge5" class="edge"><title>Node4&#45;&gt;Node2</title>
<path fill="none" stroke="midnightblue" d="M168.212,-112.499C152.279,-105.413 132.537,-93.6052 123,-76 114.497,-60.3026 124.119,-41.0891 133.788,-27.6377"/>
<polygon fill="midnightblue" stroke="midnightblue" points="136.568,-29.7634 139.957,-19.7252 131.048,-25.459 136.568,-29.7634"/>
</g>
<!-- Node5 -->
<g id="node5" class="node"><title>Node5</title>
<g id="a_node5"><a xlink:href="CFuncaoDifusividade_8h.xhtml" target="_top" xlink:title="CFuncaoDifusividade.h">
<polygon fill="white" stroke="black" points="132.5,-56.5 132.5,-75.5 251.5,-75.5 251.5,-56.5 132.5,-56.5"/>
<text text-anchor="middle" x="192" y="-63.5" font-family="Helvetica,sans-Serif" font-size="10.00">CFuncaoDifusividade.h</text>
</a>
</g>
</g>
<!-- Node4&#45;&gt;Node5 -->
<g id="edge6" class="edge"><title>Node4&#45;&gt;Node5</title>
<path fill="none" stroke="midnightblue" d="M192,-112.083C192,-105.006 192,-94.8611 192,-85.9865"/>
<polygon fill="midnightblue" stroke="midnightblue" points="195.5,-85.751 192,-75.7511 188.5,-85.7511 195.5,-85.751"/>
</g>
<!-- Node6 -->
<g id="node6" class="node"><title>Node6</title>
<g id="a_node6"><a xlink:href="CFuncaoCondutividade_8h.xhtml" target="_top" xlink:title="CFuncaoCondutividade.h">
<polygon fill="white" stroke="black" points="269.5,-56.5 269.5,-75.5 396.5,-75.5 396.5,-56.5 269.5,-56.5"/>
<text text-anchor="middle" x="333" y="-63.5" font-family="Helvetica,sans-Serif" font-size="10.00">CFuncaoCondutividade.h</text>
</a>
</g>
</g>
<!-- Node4&#45;&gt;Node6 -->
<g id="edge8" class="edge"><title>Node4&#45;&gt;Node6</title>
<path fill="none" stroke="midnightblue" d="M214.342,-112.444C237.753,-103.478 274.736,-89.314 301.19,-79.1827"/>
<polygon fill="midnightblue" stroke="midnightblue" points="302.676,-82.3615 310.763,-75.5164 300.172,-75.8245 302.676,-82.3615"/>
</g>
<!-- Node7 -->
<g id="node7" class="node"><title>Node7</title>
<g id="a_node7"><a xlink:href="CFuncaoAdsorcao_8h.xhtml" target="_top" xlink:title="CFuncaoAdsorcao.h">
<polygon fill="white" stroke="black" points="415,-56.5 415,-75.5 521,-75.5 521,-56.5 415,-56.5"/>
<text text-anchor="middle" x="468" y="-63.5" font-family="Helvetica,sans-Serif" font-size="10.00">CFuncaoAdsorcao.h</text>
</a>
</g>
</g>
<!-- Node4&#45;&gt;Node7 -->
<g id="edge10" class="edge"><title>Node4&#45;&gt;Node7</title>
<path fill="none" stroke="midnightblue" d="M235.733,-112.444C284.183,-102.964 362.329,-87.6747 414.418,-77.4835"/>
<polygon fill="midnightblue" stroke="midnightblue" points="415.33,-80.8715 424.472,-75.5164 413.986,-74.0017 415.33,-80.8715"/>
</g>
<!-- Node5&#45;&gt;Node2 -->
<g id="edge7" class="edge"><title>Node5&#45;&gt;Node2</title>
<path fill="none" stroke="midnightblue" d="M184.734,-56.083C178.455,-48.3768 169.212,-37.0333 161.569,-27.6531"/>
<polygon fill="midnightblue" stroke="midnightblue" points="164.161,-25.2926 155.131,-19.7511 158.734,-29.7143 164.161,-25.2926"/>
</g>
<!-- Node6&#45;&gt;Node2 -->
<g id="edge9" class="edge"><title>Node6&#45;&gt;Node2</title>
<path fill="none" stroke="midnightblue" d="M303.686,-56.4435C271.509,-47.0511 219.79,-31.9549 184.881,-21.7654"/>
<polygon fill="midnightblue" stroke="midnightblue" points="185.65,-18.3438 175.07,-18.9015 183.689,-25.0634 185.65,-18.3438"/>
</g>
<!-- Node7&#45;&gt;Node2 -->
<g id="edge11" class="edge"><title>Node7&#45;&gt;Node2</title>
<path fill="none" stroke="midnightblue" d="M417.295,-56.4435C352.757,-45.5528 242.775,-26.9932 185.372,-17.3065"/>
<polygon fill="midnightblue" stroke="midnightblue" points="185.731,-13.8178 175.288,-15.6049 184.567,-20.7202 185.731,-13.8178"/>
</g>
</g>
</svg>
