<?xml version="1.0" encoding="UTF-8" standalone="no"?>
<!DOCTYPE svg PUBLIC "-//W3C//DTD SVG 1.1//EN"
 "http://www.w3.org/Graphics/SVG/1.1/DTD/svg11.dtd">
<!-- Generated by graphviz version 2.34.0 (20140110.0949)
 -->
<!-- Title: src/CFuncaoAdsorcao_Pablo.h Pages: 1 -->
<svg width="280pt" height="108pt"
 viewBox="0.00 0.00 280.00 108.00" xmlns="http://www.w3.org/2000/svg" xmlns:xlink="http://www.w3.org/1999/xlink">
<g id="graph0" class="graph" transform="scale(1 1) rotate(0) translate(4 104)">
<title>src/CFuncaoAdsorcao_Pablo.h</title>
<polygon fill="white" stroke="white" points="-4,4 -4,-104 276,-104 276,4 -4,4"/>
<!-- Node1 -->
<g id="node1" class="node"><title>Node1</title>
<polygon fill="#bfbfbf" stroke="black" points="72,-69 72,-99 186,-99 186,-69 72,-69"/>
<text text-anchor="start" x="80" y="-87" font-family="Helvetica,sans-Serif" font-size="10.00">src/CFuncaoAdsorcao</text>
<text text-anchor="middle" x="129" y="-76" font-family="Helvetica,sans-Serif" font-size="10.00">_Pablo.h</text>
</g>
<!-- Node2 -->
<g id="node2" class="node"><title>Node2</title>
<g id="a_node2"><a xlink:href="CFuncaoAdsorcao__Pablo_8cpp.xhtml" target="_top" xlink:title="src/CFuncaoAdsorcao\l_Pablo.cpp">
<polygon fill="white" stroke="black" points="0,-1 0,-31 114,-31 114,-1 0,-1"/>
<text text-anchor="start" x="8" y="-19" font-family="Helvetica,sans-Serif" font-size="10.00">src/CFuncaoAdsorcao</text>
<text text-anchor="middle" x="57" y="-8" font-family="Helvetica,sans-Serif" font-size="10.00">_Pablo.cpp</text>
</a>
</g>
</g>
<!-- Node1&#45;&gt;Node2 -->
<g id="edge1" class="edge"><title>Node1&#45;&gt;Node2</title>
<path fill="none" stroke="midnightblue" d="M105.847,-61.7762C94.9751,-51.8105 82.3043,-40.1956 72.5924,-31.2931"/>
<polygon fill="midnightblue" stroke="midnightblue" points="103.64,-64.5018 113.377,-68.679 108.371,-59.3417 103.64,-64.5018"/>
</g>
<!-- Node3 -->
<g id="node3" class="node"><title>Node3</title>
<g id="a_node3"><a xlink:href="CMeioPoroso__Telha_8cpp.xhtml" target="_top" xlink:title="src/CMeioPoroso_Telha.cpp">
<polygon fill="white" stroke="black" points="132,-6.5 132,-25.5 272,-25.5 272,-6.5 132,-6.5"/>
<text text-anchor="middle" x="202" y="-13.5" font-family="Helvetica,sans-Serif" font-size="10.00">src/CMeioPoroso_Telha.cpp</text>
</a>
</g>
</g>
<!-- Node1&#45;&gt;Node3 -->
<g id="edge2" class="edge"><title>Node1&#45;&gt;Node3</title>
<path fill="none" stroke="midnightblue" d="M152.391,-61.8517C165.87,-49.6656 182.099,-34.9929 192.235,-25.8283"/>
<polygon fill="midnightblue" stroke="midnightblue" points="149.91,-59.3763 144.84,-68.679 154.605,-64.5687 149.91,-59.3763"/>
</g>
</g>
</svg>
