<?xml version="1.0" encoding="UTF-8" standalone="no"?>
<!DOCTYPE svg PUBLIC "-//W3C//DTD SVG 1.1//EN"
 "http://www.w3.org/Graphics/SVG/1.1/DTD/svg11.dtd">
<!-- Generated by graphviz version 2.34.0 (20140110.0949)
 -->
<!-- Title: src/CFuncaoAdsorcao_Celso.cpp Pages: 1 -->
<svg width="176pt" height="208pt"
 viewBox="0.00 0.00 176.00 208.00" xmlns="http://www.w3.org/2000/svg" xmlns:xlink="http://www.w3.org/1999/xlink">
<g id="graph0" class="graph" transform="scale(1 1) rotate(0) translate(4 204)">
<title>src/CFuncaoAdsorcao_Celso.cpp</title>
<polygon fill="white" stroke="white" points="-4,4 -4,-204 172,-204 172,4 -4,4"/>
<!-- Node1 -->
<g id="node1" class="node"><title>Node1</title>
<polygon fill="#bfbfbf" stroke="black" points="11,-169 11,-199 125,-199 125,-169 11,-169"/>
<text text-anchor="start" x="19" y="-187" font-family="Helvetica,sans-Serif" font-size="10.00">src/CFuncaoAdsorcao</text>
<text text-anchor="middle" x="68" y="-176" font-family="Helvetica,sans-Serif" font-size="10.00">_Celso.cpp</text>
</g>
<!-- Node2 -->
<g id="node2" class="node"><title>Node2</title>
<g id="a_node2"><a xlink:href="CFuncaoAdsorcao__Celso_8h.xhtml" target="_top" xlink:title="CFuncaoAdsorcao_Celso.h">
<polygon fill="white" stroke="black" points="-0.5,-112.5 -0.5,-131.5 136.5,-131.5 136.5,-112.5 -0.5,-112.5"/>
<text text-anchor="middle" x="68" y="-119.5" font-family="Helvetica,sans-Serif" font-size="10.00">CFuncaoAdsorcao_Celso.h</text>
</a>
</g>
</g>
<!-- Node1&#45;&gt;Node2 -->
<g id="edge1" class="edge"><title>Node1&#45;&gt;Node2</title>
<path fill="none" stroke="midnightblue" d="M68,-168.781C68,-160.781 68,-150.689 68,-142.017"/>
<polygon fill="midnightblue" stroke="midnightblue" points="71.5001,-141.73 68,-131.731 64.5001,-141.731 71.5001,-141.73"/>
</g>
<!-- Node3 -->
<g id="node3" class="node"><title>Node3</title>
<polygon fill="white" stroke="#bfbfbf" points="0,-56.5 0,-75.5 44,-75.5 44,-56.5 0,-56.5"/>
<text text-anchor="middle" x="22" y="-63.5" font-family="Helvetica,sans-Serif" font-size="10.00">cmath</text>
</g>
<!-- Node2&#45;&gt;Node3 -->
<g id="edge2" class="edge"><title>Node2&#45;&gt;Node3</title>
<path fill="none" stroke="midnightblue" d="M60.404,-112.083C53.7725,-104.298 43.979,-92.8015 35.9419,-83.3665"/>
<polygon fill="midnightblue" stroke="midnightblue" points="38.6037,-81.0939 29.4546,-75.7511 33.275,-85.6332 38.6037,-81.0939"/>
</g>
<!-- Node4 -->
<g id="node4" class="node"><title>Node4</title>
<g id="a_node4"><a xlink:href="CFuncaoAdsorcao_8h.xhtml" target="_top" xlink:title="CFuncaoAdsorcao.h">
<polygon fill="white" stroke="black" points="62,-56.5 62,-75.5 168,-75.5 168,-56.5 62,-56.5"/>
<text text-anchor="middle" x="115" y="-63.5" font-family="Helvetica,sans-Serif" font-size="10.00">CFuncaoAdsorcao.h</text>
</a>
</g>
</g>
<!-- Node2&#45;&gt;Node4 -->
<g id="edge3" class="edge"><title>Node2&#45;&gt;Node4</title>
<path fill="none" stroke="midnightblue" d="M75.7611,-112.083C82.5368,-104.298 92.5432,-92.8015 100.755,-83.3665"/>
<polygon fill="midnightblue" stroke="midnightblue" points="103.458,-85.592 107.383,-75.7511 98.178,-80.9963 103.458,-85.592"/>
</g>
<!-- Node5 -->
<g id="node5" class="node"><title>Node5</title>
<polygon fill="white" stroke="#bfbfbf" points="88,-0.5 88,-19.5 142,-19.5 142,-0.5 88,-0.5"/>
<text text-anchor="middle" x="115" y="-7.5" font-family="Helvetica,sans-Serif" font-size="10.00">iostream</text>
</g>
<!-- Node4&#45;&gt;Node5 -->
<g id="edge4" class="edge"><title>Node4&#45;&gt;Node5</title>
<path fill="none" stroke="midnightblue" d="M115,-56.083C115,-49.0059 115,-38.8611 115,-29.9865"/>
<polygon fill="midnightblue" stroke="midnightblue" points="118.5,-29.751 115,-19.7511 111.5,-29.7511 118.5,-29.751"/>
</g>
</g>
</svg>
