<?xml version="1.0" encoding="UTF-8" standalone="no"?>
<!DOCTYPE svg PUBLIC "-//W3C//DTD SVG 1.1//EN"
 "http://www.w3.org/Graphics/SVG/1.1/DTD/svg11.dtd">
<!-- Generated by graphviz version 2.34.0 (20140110.0949)
 -->
<!-- Title: src/CFuncaoAdsorcao.h Pages: 1 -->
<svg width="805pt" height="436pt"
 viewBox="0.00 0.00 805.00 436.00" xmlns="http://www.w3.org/2000/svg" xmlns:xlink="http://www.w3.org/1999/xlink">
<g id="graph0" class="graph" transform="scale(1 1) rotate(0) translate(4 432)">
<title>src/CFuncaoAdsorcao.h</title>
<polygon fill="white" stroke="white" points="-4,4 -4,-432 801,-432 801,4 -4,4"/>
<!-- Node1 -->
<g id="node1" class="node"><title>Node1</title>
<polygon fill="#bfbfbf" stroke="black" points="213,-408.5 213,-427.5 335,-427.5 335,-408.5 213,-408.5"/>
<text text-anchor="middle" x="274" y="-415.5" font-family="Helvetica,sans-Serif" font-size="10.00">src/CFuncaoAdsorcao.h</text>
</g>
<!-- Node2 -->
<g id="node2" class="node"><title>Node2</title>
<g id="a_node2"><a xlink:href="CFuncaoAdsorcao_8cpp.xhtml" target="_top" xlink:title="src/CFuncaoAdsorcao.cpp">
<polygon fill="white" stroke="black" points="-0.5,-346.5 -0.5,-365.5 132.5,-365.5 132.5,-346.5 -0.5,-346.5"/>
<text text-anchor="middle" x="66" y="-353.5" font-family="Helvetica,sans-Serif" font-size="10.00">src/CFuncaoAdsorcao.cpp</text>
</a>
</g>
</g>
<!-- Node1&#45;&gt;Node2 -->
<g id="edge1" class="edge"><title>Node1&#45;&gt;Node2</title>
<path fill="none" stroke="midnightblue" d="M234.413,-405.581C193.997,-393.922 132.172,-376.088 95.746,-365.581"/>
<polygon fill="midnightblue" stroke="midnightblue" points="233.62,-408.995 244.199,-408.403 235.561,-402.269 233.62,-408.995"/>
</g>
<!-- Node3 -->
<g id="node3" class="node"><title>Node3</title>
<g id="a_node3"><a xlink:href="CFuncaoAdsorcao__Celso_8h.xhtml" target="_top" xlink:title="src/CFuncaoAdsorcao\l_Celso.h">
<polygon fill="white" stroke="black" points="151,-341 151,-371 265,-371 265,-341 151,-341"/>
<text text-anchor="start" x="159" y="-359" font-family="Helvetica,sans-Serif" font-size="10.00">src/CFuncaoAdsorcao</text>
<text text-anchor="middle" x="208" y="-348" font-family="Helvetica,sans-Serif" font-size="10.00">_Celso.h</text>
</a>
</g>
</g>
<!-- Node1&#45;&gt;Node3 -->
<g id="edge2" class="edge"><title>Node1&#45;&gt;Node3</title>
<path fill="none" stroke="midnightblue" d="M256.969,-401.517C246.652,-392.138 233.592,-380.266 223.555,-371.141"/>
<polygon fill="midnightblue" stroke="midnightblue" points="254.79,-404.267 264.544,-408.403 259.499,-399.087 254.79,-404.267"/>
</g>
<!-- Node6 -->
<g id="node6" class="node"><title>Node6</title>
<g id="a_node6"><a xlink:href="CFuncaoAdsorcao__Pablo_8h.xhtml" target="_top" xlink:title="src/CFuncaoAdsorcao\l_Pablo.h">
<polygon fill="white" stroke="black" points="283,-341 283,-371 397,-371 397,-341 283,-341"/>
<text text-anchor="start" x="291" y="-359" font-family="Helvetica,sans-Serif" font-size="10.00">src/CFuncaoAdsorcao</text>
<text text-anchor="middle" x="340" y="-348" font-family="Helvetica,sans-Serif" font-size="10.00">_Pablo.h</text>
</a>
</g>
</g>
<!-- Node1&#45;&gt;Node6 -->
<g id="edge5" class="edge"><title>Node1&#45;&gt;Node6</title>
<path fill="none" stroke="midnightblue" d="M291.031,-401.517C301.348,-392.138 314.408,-380.266 324.445,-371.141"/>
<polygon fill="midnightblue" stroke="midnightblue" points="288.501,-399.087 283.456,-408.403 293.21,-404.267 288.501,-399.087"/>
</g>
<!-- Node8 -->
<g id="node8" class="node"><title>Node8</title>
<g id="a_node8"><a xlink:href="CMeioPoroso__Telha_8h.xhtml" target="_top" xlink:title="src/CMeioPoroso_Telha.h">
<polygon fill="white" stroke="black" points="420,-346.5 420,-365.5 550,-365.5 550,-346.5 420,-346.5"/>
<text text-anchor="middle" x="485" y="-353.5" font-family="Helvetica,sans-Serif" font-size="10.00">src/CMeioPoroso_Telha.h</text>
</a>
</g>
</g>
<!-- Node1&#45;&gt;Node8 -->
<g id="edge8" class="edge"><title>Node1&#45;&gt;Node8</title>
<path fill="none" stroke="midnightblue" d="M313.898,-405.655C354.891,-393.998 417.795,-376.11 454.825,-365.581"/>
<polygon fill="midnightblue" stroke="midnightblue" points="312.892,-402.302 304.231,-408.403 314.807,-409.035 312.892,-402.302"/>
</g>
<!-- Node4 -->
<g id="node4" class="node"><title>Node4</title>
<g id="a_node4"><a xlink:href="CFuncaoAdsorcao__Celso_8cpp.xhtml" target="_top" xlink:title="src/CFuncaoAdsorcao\l_Celso.cpp">
<polygon fill="white" stroke="black" points="6,-273 6,-303 120,-303 120,-273 6,-273"/>
<text text-anchor="start" x="14" y="-291" font-family="Helvetica,sans-Serif" font-size="10.00">src/CFuncaoAdsorcao</text>
<text text-anchor="middle" x="63" y="-280" font-family="Helvetica,sans-Serif" font-size="10.00">_Celso.cpp</text>
</a>
</g>
</g>
<!-- Node3&#45;&gt;Node4 -->
<g id="edge3" class="edge"><title>Node3&#45;&gt;Node4</title>
<path fill="none" stroke="midnightblue" d="M167.591,-336.607C144.235,-325.976 115.312,-312.811 93.8055,-303.022"/>
<polygon fill="midnightblue" stroke="midnightblue" points="166.342,-339.884 176.894,-340.841 169.242,-333.513 166.342,-339.884"/>
</g>
<!-- Node5 -->
<g id="node5" class="node"><title>Node5</title>
<g id="a_node5"><a xlink:href="CMeioPoroso__Telha_8cpp.xhtml" target="_top" xlink:title="src/CMeioPoroso_Telha.cpp">
<polygon fill="white" stroke="black" points="270,-278.5 270,-297.5 410,-297.5 410,-278.5 270,-278.5"/>
<text text-anchor="middle" x="340" y="-285.5" font-family="Helvetica,sans-Serif" font-size="10.00">src/CMeioPoroso_Telha.cpp</text>
</a>
</g>
</g>
<!-- Node3&#45;&gt;Node5 -->
<g id="edge4" class="edge"><title>Node3&#45;&gt;Node5</title>
<path fill="none" stroke="midnightblue" d="M245.309,-336.346C270.677,-323.662 303.067,-307.467 322.636,-297.682"/>
<polygon fill="midnightblue" stroke="midnightblue" points="243.696,-333.239 236.317,-340.841 246.827,-339.5 243.696,-333.239"/>
</g>
<!-- Node6&#45;&gt;Node5 -->
<g id="edge7" class="edge"><title>Node6&#45;&gt;Node5</title>
<path fill="none" stroke="midnightblue" d="M340,-330.376C340,-318.971 340,-306.136 340,-297.828"/>
<polygon fill="midnightblue" stroke="midnightblue" points="336.5,-330.679 340,-340.679 343.5,-330.679 336.5,-330.679"/>
</g>
<!-- Node7 -->
<g id="node7" class="node"><title>Node7</title>
<g id="a_node7"><a xlink:href="CFuncaoAdsorcao__Pablo_8cpp.xhtml" target="_top" xlink:title="src/CFuncaoAdsorcao\l_Pablo.cpp">
<polygon fill="white" stroke="black" points="138,-273 138,-303 252,-303 252,-273 138,-273"/>
<text text-anchor="start" x="146" y="-291" font-family="Helvetica,sans-Serif" font-size="10.00">src/CFuncaoAdsorcao</text>
<text text-anchor="middle" x="195" y="-280" font-family="Helvetica,sans-Serif" font-size="10.00">_Pablo.cpp</text>
</a>
</g>
</g>
<!-- Node6&#45;&gt;Node7 -->
<g id="edge6" class="edge"><title>Node6&#45;&gt;Node7</title>
<path fill="none" stroke="midnightblue" d="M299.591,-336.607C276.235,-325.976 247.312,-312.811 225.806,-303.022"/>
<polygon fill="midnightblue" stroke="midnightblue" points="298.342,-339.884 308.894,-340.841 301.242,-333.513 298.342,-339.884"/>
</g>
<!-- Node8&#45;&gt;Node5 -->
<g id="edge21" class="edge"><title>Node8&#45;&gt;Node5</title>
<path fill="none" stroke="midnightblue" d="M456.893,-342.206C428.038,-329.072 383.93,-308.996 358.961,-297.63"/>
<polygon fill="midnightblue" stroke="midnightblue" points="455.492,-345.414 466.044,-346.372 458.392,-339.043 455.492,-345.414"/>
</g>
<!-- Node9 -->
<g id="node9" class="node"><title>Node9</title>
<g id="a_node9"><a xlink:href="CFuncaoConteudoMassicoWl_8h.xhtml" target="_top" xlink:title="src/CFuncaoConteudoMassicoWl.h">
<polygon fill="white" stroke="black" points="568,-278.5 568,-297.5 740,-297.5 740,-278.5 568,-278.5"/>
<text text-anchor="middle" x="654" y="-285.5" font-family="Helvetica,sans-Serif" font-size="10.00">src/CFuncaoConteudoMassicoWl.h</text>
</a>
</g>
</g>
<!-- Node8&#45;&gt;Node9 -->
<g id="edge9" class="edge"><title>Node8&#45;&gt;Node9</title>
<path fill="none" stroke="midnightblue" d="M516.48,-342.706C550.176,-329.547 602.745,-309.017 632.169,-297.526"/>
<polygon fill="midnightblue" stroke="midnightblue" points="515.135,-339.474 507.094,-346.372 517.682,-345.994 515.135,-339.474"/>
</g>
<!-- Node18 -->
<g id="node18" class="node"><title>Node18</title>
<g id="a_node18"><a xlink:href="CMeioPoroso__Telha__Discretizada__TDMA_8h.xhtml" target="_top" xlink:title="src/CMeioPoroso_Telha\l_Discretizada_TDMA.h">
<polygon fill="white" stroke="black" points="428,-273 428,-303 550,-303 550,-273 428,-273"/>
<text text-anchor="start" x="436" y="-291" font-family="Helvetica,sans-Serif" font-size="10.00">src/CMeioPoroso_Telha</text>
<text text-anchor="middle" x="489" y="-280" font-family="Helvetica,sans-Serif" font-size="10.00">_Discretizada_TDMA.h</text>
</a>
</g>
</g>
<!-- Node8&#45;&gt;Node18 -->
<g id="edge18" class="edge"><title>Node8&#45;&gt;Node18</title>
<path fill="none" stroke="midnightblue" d="M486.141,-336.174C486.777,-325.678 487.556,-312.821 488.141,-303.181"/>
<polygon fill="midnightblue" stroke="midnightblue" points="482.634,-336.178 485.523,-346.372 489.622,-336.602 482.634,-336.178"/>
</g>
<!-- Node10 -->
<g id="node10" class="node"><title>Node10</title>
<g id="a_node10"><a xlink:href="CFuncaoConteudoMassicoWl_8cpp.xhtml" target="_top" xlink:title="src/CFuncaoConteudoMassico\lWl.cpp">
<polygon fill="white" stroke="black" points="645,-205 645,-235 797,-235 797,-205 645,-205"/>
<text text-anchor="start" x="653" y="-223" font-family="Helvetica,sans-Serif" font-size="10.00">src/CFuncaoConteudoMassico</text>
<text text-anchor="middle" x="721" y="-212" font-family="Helvetica,sans-Serif" font-size="10.00">Wl.cpp</text>
</a>
</g>
</g>
<!-- Node9&#45;&gt;Node10 -->
<g id="edge10" class="edge"><title>Node9&#45;&gt;Node10</title>
<path fill="none" stroke="midnightblue" d="M670.122,-271.119C681.237,-260.17 695.881,-245.744 706.604,-235.181"/>
<polygon fill="midnightblue" stroke="midnightblue" points="667.427,-268.86 662.759,-278.372 672.339,-273.847 667.427,-268.86"/>
</g>
<!-- Node11 -->
<g id="node11" class="node"><title>Node11</title>
<g id="a_node11"><a xlink:href="CSimulador__Telha_8h.xhtml" target="_top" xlink:title="src/CSimulador_Telha.h">
<polygon fill="white" stroke="black" points="505,-210.5 505,-229.5 627,-229.5 627,-210.5 505,-210.5"/>
<text text-anchor="middle" x="566" y="-217.5" font-family="Helvetica,sans-Serif" font-size="10.00">src/CSimulador_Telha.h</text>
</a>
</g>
</g>
<!-- Node9&#45;&gt;Node11 -->
<g id="edge11" class="edge"><title>Node9&#45;&gt;Node11</title>
<path fill="none" stroke="midnightblue" d="M634.128,-272.096C616.668,-259.001 591.87,-240.403 577.507,-229.63"/>
<polygon fill="midnightblue" stroke="midnightblue" points="632.396,-275.172 642.496,-278.372 636.596,-269.572 632.396,-275.172"/>
</g>
<!-- Node12 -->
<g id="node12" class="node"><title>Node12</title>
<g id="a_node12"><a xlink:href="CSimulador__Telha__GanhosEnergia_8h.xhtml" target="_top" xlink:title="src/CSimulador_Telha\l_GanhosEnergia.h">
<polygon fill="white" stroke="black" points="439.5,-137 439.5,-167 552.5,-167 552.5,-137 439.5,-137"/>
<text text-anchor="start" x="447.5" y="-155" font-family="Helvetica,sans-Serif" font-size="10.00">src/CSimulador_Telha</text>
<text text-anchor="middle" x="496" y="-144" font-family="Helvetica,sans-Serif" font-size="10.00">_GanhosEnergia.h</text>
</a>
</g>
</g>
<!-- Node11&#45;&gt;Node12 -->
<g id="edge12" class="edge"><title>Node11&#45;&gt;Node12</title>
<path fill="none" stroke="midnightblue" d="M549.493,-203.436C537.841,-192.45 522.352,-177.846 511.041,-167.181"/>
<polygon fill="midnightblue" stroke="midnightblue" points="547.172,-206.058 556.849,-210.372 551.974,-200.965 547.172,-206.058"/>
</g>
<!-- Node17 -->
<g id="node17" class="node"><title>Node17</title>
<g id="a_node17"><a xlink:href="CSimulador__Telha_8cpp.xhtml" target="_top" xlink:title="src/CSimulador_Telha.cpp">
<polygon fill="white" stroke="black" points="571,-142.5 571,-161.5 703,-161.5 703,-142.5 571,-142.5"/>
<text text-anchor="middle" x="637" y="-149.5" font-family="Helvetica,sans-Serif" font-size="10.00">src/CSimulador_Telha.cpp</text>
</a>
</g>
</g>
<!-- Node11&#45;&gt;Node17 -->
<g id="edge17" class="edge"><title>Node11&#45;&gt;Node17</title>
<path fill="none" stroke="midnightblue" d="M582.769,-203.412C596.716,-190.447 616.07,-172.456 627.489,-161.841"/>
<polygon fill="midnightblue" stroke="midnightblue" points="580.223,-201 575.282,-210.372 584.989,-206.127 580.223,-201"/>
</g>
<!-- Node13 -->
<g id="node13" class="node"><title>Node13</title>
<g id="a_node13"><a xlink:href="CInterface__SimuladorTelha_8h.xhtml" target="_top" xlink:title="src/CInterface_Simulador\lTelha.h">
<polygon fill="white" stroke="black" points="363,-69 363,-99 491,-99 491,-69 363,-69"/>
<text text-anchor="start" x="371" y="-87" font-family="Helvetica,sans-Serif" font-size="10.00">src/CInterface_Simulador</text>
<text text-anchor="middle" x="427" y="-76" font-family="Helvetica,sans-Serif" font-size="10.00">Telha.h</text>
</a>
</g>
</g>
<!-- Node12&#45;&gt;Node13 -->
<g id="edge13" class="edge"><title>Node12&#45;&gt;Node13</title>
<path fill="none" stroke="midnightblue" d="M473.508,-129.485C463.157,-119.585 451.16,-108.109 441.943,-99.2931"/>
<polygon fill="midnightblue" stroke="midnightblue" points="471.382,-132.296 481.028,-136.679 476.221,-127.237 471.382,-132.296"/>
</g>
<!-- Node16 -->
<g id="node16" class="node"><title>Node16</title>
<g id="a_node16"><a xlink:href="CSimulador__Telha__GanhosEnergia_8cpp.xhtml" target="_top" xlink:title="src/CSimulador_Telha\l_GanhosEnergia.cpp">
<polygon fill="white" stroke="black" points="509.5,-69 509.5,-99 622.5,-99 622.5,-69 509.5,-69"/>
<text text-anchor="start" x="517.5" y="-87" font-family="Helvetica,sans-Serif" font-size="10.00">src/CSimulador_Telha</text>
<text text-anchor="middle" x="566" y="-76" font-family="Helvetica,sans-Serif" font-size="10.00">_GanhosEnergia.cpp</text>
</a>
</g>
</g>
<!-- Node12&#45;&gt;Node16 -->
<g id="edge16" class="edge"><title>Node12&#45;&gt;Node16</title>
<path fill="none" stroke="midnightblue" d="M518.51,-129.776C529.08,-119.81 541.399,-108.196 550.841,-99.2931"/>
<polygon fill="midnightblue" stroke="midnightblue" points="516.064,-127.272 511.189,-136.679 520.866,-132.365 516.064,-127.272"/>
</g>
<!-- Node14 -->
<g id="node14" class="node"><title>Node14</title>
<g id="a_node14"><a xlink:href="CInterface__SimuladorTelha_8cpp.xhtml" target="_top" xlink:title="src/CInterface_Simulador\lTelha.cpp">
<polygon fill="white" stroke="black" points="304,-1 304,-31 432,-31 432,-1 304,-1"/>
<text text-anchor="start" x="312" y="-19" font-family="Helvetica,sans-Serif" font-size="10.00">src/CInterface_Simulador</text>
<text text-anchor="middle" x="368" y="-8" font-family="Helvetica,sans-Serif" font-size="10.00">Telha.cpp</text>
</a>
</g>
</g>
<!-- Node13&#45;&gt;Node14 -->
<g id="edge14" class="edge"><title>Node13&#45;&gt;Node14</title>
<path fill="none" stroke="midnightblue" d="M407.507,-61.1939C398.716,-51.3605 388.581,-40.0228 380.777,-31.2931"/>
<polygon fill="midnightblue" stroke="midnightblue" points="404.924,-63.5562 414.198,-68.679 410.143,-58.891 404.924,-63.5562"/>
</g>
<!-- Node15 -->
<g id="node15" class="node"><title>Node15</title>
<g id="a_node15"><a xlink:href="main_8cpp.xhtml" target="_top" xlink:title="src/main.cpp">
<polygon fill="white" stroke="black" points="450.5,-6.5 450.5,-25.5 523.5,-25.5 523.5,-6.5 450.5,-6.5"/>
<text text-anchor="middle" x="487" y="-13.5" font-family="Helvetica,sans-Serif" font-size="10.00">src/main.cpp</text>
</a>
</g>
</g>
<!-- Node13&#45;&gt;Node15 -->
<g id="edge15" class="edge"><title>Node13&#45;&gt;Node15</title>
<path fill="none" stroke="midnightblue" d="M446.849,-61.1658C457.801,-49.119 470.799,-34.8216 478.974,-25.8283"/>
<polygon fill="midnightblue" stroke="midnightblue" points="444.156,-58.9252 440.019,-68.679 449.336,-63.6339 444.156,-58.9252"/>
</g>
<!-- Node18&#45;&gt;Node11 -->
<g id="edge19" class="edge"><title>Node18&#45;&gt;Node11</title>
<path fill="none" stroke="midnightblue" d="M513.673,-265.852C527.89,-253.666 545.008,-238.993 555.7,-229.828"/>
<polygon fill="midnightblue" stroke="midnightblue" points="511.023,-263.514 505.708,-272.679 515.578,-268.828 511.023,-263.514"/>
</g>
<!-- Node19 -->
<g id="node19" class="node"><title>Node19</title>
<g id="a_node19"><a xlink:href="CMeioPoroso__Telha__Discretizada__TDMA_8cpp.xhtml" target="_top" xlink:title="src/CMeioPoroso_Telha\l_Discretizada_TDMA.cpp">
<polygon fill="white" stroke="black" points="357.5,-205 357.5,-235 486.5,-235 486.5,-205 357.5,-205"/>
<text text-anchor="start" x="365.5" y="-223" font-family="Helvetica,sans-Serif" font-size="10.00">src/CMeioPoroso_Telha</text>
<text text-anchor="middle" x="422" y="-212" font-family="Helvetica,sans-Serif" font-size="10.00">_Discretizada_TDMA.cpp</text>
</a>
</g>
</g>
<!-- Node18&#45;&gt;Node19 -->
<g id="edge20" class="edge"><title>Node18&#45;&gt;Node19</title>
<path fill="none" stroke="midnightblue" d="M467.16,-265.485C457.109,-255.585 445.459,-244.109 436.51,-235.293"/>
<polygon fill="midnightblue" stroke="midnightblue" points="464.882,-268.155 474.462,-272.679 469.794,-263.168 464.882,-268.155"/>
</g>
</g>
</svg>
