<?xml version="1.0" encoding="UTF-8" standalone="no"?>
<!DOCTYPE svg PUBLIC "-//W3C//DTD SVG 1.1//EN"
 "http://www.w3.org/Graphics/SVG/1.1/DTD/svg11.dtd">
<!-- Generated by graphviz version 2.34.0 (20140110.0949)
 -->
<!-- Title: src/CGnuplot.cpp Pages: 1 -->
<svg width="495pt" height="140pt"
 viewBox="0.00 0.00 495.00 140.00" xmlns="http://www.w3.org/2000/svg" xmlns:xlink="http://www.w3.org/1999/xlink">
<g id="graph0" class="graph" transform="scale(1 1) rotate(0) translate(4 136)">
<title>src/CGnuplot.cpp</title>
<polygon fill="white" stroke="white" points="-4,4 -4,-136 491,-136 491,4 -4,4"/>
<!-- Node1 -->
<g id="node1" class="node"><title>Node1</title>
<polygon fill="#bfbfbf" stroke="black" points="127.5,-112.5 127.5,-131.5 220.5,-131.5 220.5,-112.5 127.5,-112.5"/>
<text text-anchor="middle" x="174" y="-119.5" font-family="Helvetica,sans-Serif" font-size="10.00">src/CGnuplot.cpp</text>
</g>
<!-- Node2 -->
<g id="node2" class="node"><title>Node2</title>
<polygon fill="white" stroke="#bfbfbf" points="0,-56.5 0,-75.5 50,-75.5 50,-56.5 0,-56.5"/>
<text text-anchor="middle" x="25" y="-63.5" font-family="Helvetica,sans-Serif" font-size="10.00">fstream</text>
</g>
<!-- Node1&#45;&gt;Node2 -->
<g id="edge1" class="edge"><title>Node1&#45;&gt;Node2</title>
<path fill="none" stroke="midnightblue" d="M150.391,-112.444C125.542,-103.438 86.2256,-89.1891 58.2464,-79.049"/>
<polygon fill="midnightblue" stroke="midnightblue" points="59.0932,-75.6332 48.499,-75.5164 56.7081,-82.2144 59.0932,-75.6332"/>
</g>
<!-- Node3 -->
<g id="node3" class="node"><title>Node3</title>
<polygon fill="white" stroke="#bfbfbf" points="68,-56.5 68,-75.5 120,-75.5 120,-56.5 68,-56.5"/>
<text text-anchor="middle" x="94" y="-63.5" font-family="Helvetica,sans-Serif" font-size="10.00">sstream</text>
</g>
<!-- Node1&#45;&gt;Node3 -->
<g id="edge2" class="edge"><title>Node1&#45;&gt;Node3</title>
<path fill="none" stroke="midnightblue" d="M161.147,-112.324C148.784,-103.979 129.87,-91.2122 115.263,-81.3524"/>
<polygon fill="midnightblue" stroke="midnightblue" points="117.068,-78.3483 106.821,-75.6545 113.152,-84.1503 117.068,-78.3483"/>
</g>
<!-- Node4 -->
<g id="node4" class="node"><title>Node4</title>
<polygon fill="white" stroke="#bfbfbf" points="138.5,-56.5 138.5,-75.5 167.5,-75.5 167.5,-56.5 138.5,-56.5"/>
<text text-anchor="middle" x="153" y="-63.5" font-family="Helvetica,sans-Serif" font-size="10.00">list</text>
</g>
<!-- Node1&#45;&gt;Node4 -->
<g id="edge3" class="edge"><title>Node1&#45;&gt;Node4</title>
<path fill="none" stroke="midnightblue" d="M170.532,-112.083C167.688,-104.77 163.571,-94.1814 160.04,-85.1034"/>
<polygon fill="midnightblue" stroke="midnightblue" points="163.29,-83.8025 156.403,-75.7511 156.766,-86.3397 163.29,-83.8025"/>
</g>
<!-- Node5 -->
<g id="node5" class="node"><title>Node5</title>
<polygon fill="white" stroke="#bfbfbf" points="172.5,-0.5 172.5,-19.5 215.5,-19.5 215.5,-0.5 172.5,-0.5"/>
<text text-anchor="middle" x="194" y="-7.5" font-family="Helvetica,sans-Serif" font-size="10.00">cstdio</text>
</g>
<!-- Node1&#45;&gt;Node5 -->
<g id="edge4" class="edge"><title>Node1&#45;&gt;Node5</title>
<path fill="none" stroke="midnightblue" d="M175.569,-112.368C178.797,-94.617 186.242,-53.6664 190.619,-29.5974"/>
<polygon fill="midnightblue" stroke="midnightblue" points="194.093,-30.0562 192.438,-19.5914 187.205,-28.804 194.093,-30.0562"/>
</g>
<!-- Node6 -->
<g id="node6" class="node"><title>Node6</title>
<polygon fill="white" stroke="#bfbfbf" points="224.5,-56.5 224.5,-75.5 269.5,-75.5 269.5,-56.5 224.5,-56.5"/>
<text text-anchor="middle" x="247" y="-63.5" font-family="Helvetica,sans-Serif" font-size="10.00">cstdlib</text>
</g>
<!-- Node1&#45;&gt;Node6 -->
<g id="edge5" class="edge"><title>Node1&#45;&gt;Node6</title>
<path fill="none" stroke="midnightblue" d="M185.729,-112.324C196.837,-104.107 213.742,-91.6017 226.983,-81.8069"/>
<polygon fill="midnightblue" stroke="midnightblue" points="229.1,-84.5948 235.058,-75.8339 224.937,-78.9671 229.1,-84.5948"/>
</g>
<!-- Node7 -->
<g id="node7" class="node"><title>Node7</title>
<g id="a_node7"><a xlink:href="CGnuplot_8h.xhtml" target="_top" xlink:title="CGnuplot.h">
<polygon fill="white" stroke="black" points="292,-56.5 292,-75.5 358,-75.5 358,-56.5 292,-56.5"/>
<text text-anchor="middle" x="325" y="-63.5" font-family="Helvetica,sans-Serif" font-size="10.00">CGnuplot.h</text>
</a>
</g>
</g>
<!-- Node1&#45;&gt;Node7 -->
<g id="edge6" class="edge"><title>Node1&#45;&gt;Node7</title>
<path fill="none" stroke="midnightblue" d="M197.926,-112.444C223.219,-103.399 263.302,-89.064 291.68,-78.9158"/>
<polygon fill="midnightblue" stroke="midnightblue" points="292.948,-82.1794 301.186,-75.5164 290.591,-75.5882 292.948,-82.1794"/>
</g>
<!-- Node7&#45;&gt;Node5 -->
<g id="edge11" class="edge"><title>Node7&#45;&gt;Node5</title>
<path fill="none" stroke="midnightblue" d="M304.243,-56.4435C282.684,-47.5566 248.737,-33.5632 224.206,-23.4514"/>
<polygon fill="midnightblue" stroke="midnightblue" points="225.239,-20.0917 214.66,-19.5164 222.572,-26.5634 225.239,-20.0917"/>
</g>
<!-- Node8 -->
<g id="node8" class="node"><title>Node8</title>
<polygon fill="white" stroke="#bfbfbf" points="234,-0.5 234,-19.5 288,-19.5 288,-0.5 234,-0.5"/>
<text text-anchor="middle" x="261" y="-7.5" font-family="Helvetica,sans-Serif" font-size="10.00">iostream</text>
</g>
<!-- Node7&#45;&gt;Node8 -->
<g id="edge7" class="edge"><title>Node7&#45;&gt;Node8</title>
<path fill="none" stroke="midnightblue" d="M314.717,-56.324C305.164,-48.2631 290.72,-36.0765 279.216,-26.3695"/>
<polygon fill="midnightblue" stroke="midnightblue" points="281.37,-23.6076 271.47,-19.8339 276.856,-28.9577 281.37,-23.6076"/>
</g>
<!-- Node9 -->
<g id="node9" class="node"><title>Node9</title>
<polygon fill="white" stroke="#bfbfbf" points="306.5,-0.5 306.5,-19.5 347.5,-19.5 347.5,-0.5 306.5,-0.5"/>
<text text-anchor="middle" x="327" y="-7.5" font-family="Helvetica,sans-Serif" font-size="10.00">string</text>
</g>
<!-- Node7&#45;&gt;Node9 -->
<g id="edge8" class="edge"><title>Node7&#45;&gt;Node9</title>
<path fill="none" stroke="midnightblue" d="M325.33,-56.083C325.592,-49.0059 325.968,-38.8611 326.297,-29.9865"/>
<polygon fill="midnightblue" stroke="midnightblue" points="329.803,-29.8738 326.676,-19.7511 322.808,-29.6147 329.803,-29.8738"/>
</g>
<!-- Node10 -->
<g id="node10" class="node"><title>Node10</title>
<polygon fill="white" stroke="#bfbfbf" points="366,-0.5 366,-19.5 410,-19.5 410,-0.5 366,-0.5"/>
<text text-anchor="middle" x="388" y="-7.5" font-family="Helvetica,sans-Serif" font-size="10.00">vector</text>
</g>
<!-- Node7&#45;&gt;Node10 -->
<g id="edge9" class="edge"><title>Node7&#45;&gt;Node10</title>
<path fill="none" stroke="midnightblue" d="M335.122,-56.324C344.526,-48.2631 358.744,-36.0765 370.069,-26.3695"/>
<polygon fill="midnightblue" stroke="midnightblue" points="372.379,-28.9993 377.694,-19.8339 367.823,-23.6844 372.379,-28.9993"/>
</g>
<!-- Node11 -->
<g id="node11" class="node"><title>Node11</title>
<polygon fill="white" stroke="#bfbfbf" points="428.5,-0.5 428.5,-19.5 487.5,-19.5 487.5,-0.5 428.5,-0.5"/>
<text text-anchor="middle" x="458" y="-7.5" font-family="Helvetica,sans-Serif" font-size="10.00">stdexcept</text>
</g>
<!-- Node7&#45;&gt;Node11 -->
<g id="edge10" class="edge"><title>Node7&#45;&gt;Node11</title>
<path fill="none" stroke="midnightblue" d="M346.074,-56.4435C368.06,-47.5171 402.734,-33.4387 427.664,-23.3168"/>
<polygon fill="midnightblue" stroke="midnightblue" points="429.076,-26.5213 437.024,-19.5164 426.442,-20.0355 429.076,-26.5213"/>
</g>
</g>
</svg>
