<?xml version="1.0" encoding="UTF-8" standalone="no"?>
<!DOCTYPE svg PUBLIC "-//W3C//DTD SVG 1.1//EN"
 "http://www.w3.org/Graphics/SVG/1.1/DTD/svg11.dtd">
<!-- Generated by graphviz version 2.34.0 (20140110.0949)
 -->
<!-- Title: src/CGnuplot.h Pages: 1 -->
<svg width="303pt" height="288pt"
 viewBox="0.00 0.00 302.68 288.00" xmlns="http://www.w3.org/2000/svg" xmlns:xlink="http://www.w3.org/1999/xlink">
<g id="graph0" class="graph" transform="scale(1 1) rotate(0) translate(4 284)">
<title>src/CGnuplot.h</title>
<polygon fill="white" stroke="white" points="-4,4 -4,-284 298.684,-284 298.684,4 -4,4"/>
<!-- Node1 -->
<g id="node1" class="node"><title>Node1</title>
<polygon fill="#bfbfbf" stroke="black" points="163.5,-260.5 163.5,-279.5 246.5,-279.5 246.5,-260.5 163.5,-260.5"/>
<text text-anchor="middle" x="205" y="-267.5" font-family="Helvetica,sans-Serif" font-size="10.00">src/CGnuplot.h</text>
</g>
<!-- Node2 -->
<g id="node2" class="node"><title>Node2</title>
<g id="a_node2"><a xlink:href="CGnuplot_8cpp.xhtml" target="_top" xlink:title="src/CGnuplot.cpp">
<polygon fill="white" stroke="black" points="32.5,-204.5 32.5,-223.5 125.5,-223.5 125.5,-204.5 32.5,-204.5"/>
<text text-anchor="middle" x="79" y="-211.5" font-family="Helvetica,sans-Serif" font-size="10.00">src/CGnuplot.cpp</text>
</a>
</g>
</g>
<!-- Node1&#45;&gt;Node2 -->
<g id="edge1" class="edge"><title>Node1&#45;&gt;Node2</title>
<path fill="none" stroke="midnightblue" d="M175.84,-256.503C152.219,-246.38 119.572,-232.388 98.8717,-223.516"/>
<polygon fill="midnightblue" stroke="midnightblue" points="174.465,-259.721 185.035,-260.444 177.222,-253.287 174.465,-259.721"/>
</g>
<!-- Node3 -->
<g id="node3" class="node"><title>Node3</title>
<g id="a_node3"><a xlink:href="CSimulador__Telha_8h.xhtml" target="_top" xlink:title="src/CSimulador_Telha.h">
<polygon fill="white" stroke="black" points="144,-204.5 144,-223.5 266,-223.5 266,-204.5 144,-204.5"/>
<text text-anchor="middle" x="205" y="-211.5" font-family="Helvetica,sans-Serif" font-size="10.00">src/CSimulador_Telha.h</text>
</a>
</g>
</g>
<!-- Node1&#45;&gt;Node3 -->
<g id="edge2" class="edge"><title>Node1&#45;&gt;Node3</title>
<path fill="none" stroke="midnightblue" d="M205,-249.805C205,-240.91 205,-230.78 205,-223.751"/>
<polygon fill="midnightblue" stroke="midnightblue" points="201.5,-250.083 205,-260.083 208.5,-250.083 201.5,-250.083"/>
</g>
<!-- Node7 -->
<g id="node7" class="node"><title>Node7</title>
<g id="a_node7"><a xlink:href="main_8cpp.xhtml" target="_top" xlink:title="src/main.cpp">
<polygon fill="white" stroke="black" points="204.5,-6.5 204.5,-25.5 277.5,-25.5 277.5,-6.5 204.5,-6.5"/>
<text text-anchor="middle" x="241" y="-13.5" font-family="Helvetica,sans-Serif" font-size="10.00">src/main.cpp</text>
</a>
</g>
</g>
<!-- Node1&#45;&gt;Node7 -->
<g id="edge9" class="edge"><title>Node1&#45;&gt;Node7</title>
<path fill="none" stroke="midnightblue" d="M237.643,-255.937C251.512,-248.658 266.43,-238.16 275,-224 310.936,-164.625 290.541,-133.641 268,-68 262.599,-52.271 252.849,-35.4965 246.662,-25.646"/>
<polygon fill="midnightblue" stroke="midnightblue" points="235.772,-252.954 228.301,-260.466 238.826,-259.253 235.772,-252.954"/>
</g>
<!-- Node4 -->
<g id="node4" class="node"><title>Node4</title>
<g id="a_node4"><a xlink:href="CSimulador__Telha__GanhosEnergia_8h.xhtml" target="_top" xlink:title="src/CSimulador_Telha\l_GanhosEnergia.h">
<polygon fill="white" stroke="black" points="7.5,-137 7.5,-167 120.5,-167 120.5,-137 7.5,-137"/>
<text text-anchor="start" x="15.5" y="-155" font-family="Helvetica,sans-Serif" font-size="10.00">src/CSimulador_Telha</text>
<text text-anchor="middle" x="64" y="-144" font-family="Helvetica,sans-Serif" font-size="10.00">_GanhosEnergia.h</text>
</a>
</g>
</g>
<!-- Node3&#45;&gt;Node4 -->
<g id="edge3" class="edge"><title>Node3&#45;&gt;Node4</title>
<path fill="none" stroke="midnightblue" d="M175.559,-200.472C152.612,-190.707 120.757,-177.152 96.9595,-167.025"/>
<polygon fill="midnightblue" stroke="midnightblue" points="174.226,-203.708 184.798,-204.403 176.967,-197.267 174.226,-203.708"/>
</g>
<!-- Node9 -->
<g id="node9" class="node"><title>Node9</title>
<g id="a_node9"><a xlink:href="CSimulador__Telha_8cpp.xhtml" target="_top" xlink:title="src/CSimulador_Telha.cpp">
<polygon fill="white" stroke="black" points="139,-142.5 139,-161.5 271,-161.5 271,-142.5 139,-142.5"/>
<text text-anchor="middle" x="205" y="-149.5" font-family="Helvetica,sans-Serif" font-size="10.00">src/CSimulador_Telha.cpp</text>
</a>
</g>
</g>
<!-- Node3&#45;&gt;Node9 -->
<g id="edge8" class="edge"><title>Node3&#45;&gt;Node9</title>
<path fill="none" stroke="midnightblue" d="M205,-194.16C205,-183.248 205,-170.04 205,-161.581"/>
<polygon fill="midnightblue" stroke="midnightblue" points="201.5,-194.403 205,-204.403 208.5,-194.403 201.5,-194.403"/>
</g>
<!-- Node5 -->
<g id="node5" class="node"><title>Node5</title>
<g id="a_node5"><a xlink:href="CInterface__SimuladorTelha_8h.xhtml" target="_top" xlink:title="src/CInterface_Simulador\lTelha.h">
<polygon fill="white" stroke="black" points="0,-69 0,-99 128,-99 128,-69 0,-69"/>
<text text-anchor="start" x="8" y="-87" font-family="Helvetica,sans-Serif" font-size="10.00">src/CInterface_Simulador</text>
<text text-anchor="middle" x="64" y="-76" font-family="Helvetica,sans-Serif" font-size="10.00">Telha.h</text>
</a>
</g>
</g>
<!-- Node4&#45;&gt;Node5 -->
<g id="edge4" class="edge"><title>Node4&#45;&gt;Node5</title>
<path fill="none" stroke="midnightblue" d="M64,-126.532C64,-117.361 64,-107.245 64,-99.2931"/>
<polygon fill="midnightblue" stroke="midnightblue" points="60.5001,-126.679 64,-136.679 67.5001,-126.679 60.5001,-126.679"/>
</g>
<!-- Node8 -->
<g id="node8" class="node"><title>Node8</title>
<g id="a_node8"><a xlink:href="CSimulador__Telha__GanhosEnergia_8cpp.xhtml" target="_top" xlink:title="src/CSimulador_Telha\l_GanhosEnergia.cpp">
<polygon fill="white" stroke="black" points="146.5,-69 146.5,-99 259.5,-99 259.5,-69 146.5,-69"/>
<text text-anchor="start" x="154.5" y="-87" font-family="Helvetica,sans-Serif" font-size="10.00">src/CSimulador_Telha</text>
<text text-anchor="middle" x="203" y="-76" font-family="Helvetica,sans-Serif" font-size="10.00">_GanhosEnergia.cpp</text>
</a>
</g>
</g>
<!-- Node4&#45;&gt;Node8 -->
<g id="edge7" class="edge"><title>Node4&#45;&gt;Node8</title>
<path fill="none" stroke="midnightblue" d="M103.003,-132.48C125.259,-121.913 152.72,-108.874 173.23,-99.1352"/>
<polygon fill="midnightblue" stroke="midnightblue" points="101.351,-129.39 93.819,-136.841 104.354,-135.714 101.351,-129.39"/>
</g>
<!-- Node6 -->
<g id="node6" class="node"><title>Node6</title>
<g id="a_node6"><a xlink:href="CInterface__SimuladorTelha_8cpp.xhtml" target="_top" xlink:title="src/CInterface_Simulador\lTelha.cpp">
<polygon fill="white" stroke="black" points="0,-1 0,-31 128,-31 128,-1 0,-1"/>
<text text-anchor="start" x="8" y="-19" font-family="Helvetica,sans-Serif" font-size="10.00">src/CInterface_Simulador</text>
<text text-anchor="middle" x="64" y="-8" font-family="Helvetica,sans-Serif" font-size="10.00">Telha.cpp</text>
</a>
</g>
</g>
<!-- Node5&#45;&gt;Node6 -->
<g id="edge5" class="edge"><title>Node5&#45;&gt;Node6</title>
<path fill="none" stroke="midnightblue" d="M64,-58.5322C64,-49.3606 64,-39.2449 64,-31.2931"/>
<polygon fill="midnightblue" stroke="midnightblue" points="60.5001,-58.6789 64,-68.679 67.5001,-58.679 60.5001,-58.6789"/>
</g>
<!-- Node5&#45;&gt;Node7 -->
<g id="edge6" class="edge"><title>Node5&#45;&gt;Node7</title>
<path fill="none" stroke="midnightblue" d="M111.39,-65.329C145.879,-52.4687 191.077,-35.6153 217.972,-25.5868"/>
<polygon fill="midnightblue" stroke="midnightblue" points="110.118,-62.068 101.971,-68.8413 112.564,-68.6269 110.118,-62.068"/>
</g>
</g>
</svg>
