<?xml version="1.0" encoding="UTF-8" standalone="no"?>
<!DOCTYPE svg PUBLIC "-//W3C//DTD SVG 1.1//EN"
 "http://www.w3.org/Graphics/SVG/1.1/DTD/svg11.dtd">
<!-- Generated by graphviz version 2.34.0 (20140110.0949)
 -->
<!-- Title: src/CGnuplot.teste.min.cpp Pages: 1 -->
<svg width="328pt" height="140pt"
 viewBox="0.00 0.00 328.00 140.00" xmlns="http://www.w3.org/2000/svg" xmlns:xlink="http://www.w3.org/1999/xlink">
<g id="graph0" class="graph" transform="scale(1 1) rotate(0) translate(4 136)">
<title>src/CGnuplot.teste.min.cpp</title>
<polygon fill="white" stroke="white" points="-4,4 -4,-136 324,-136 324,4 -4,4"/>
<!-- Node1 -->
<g id="node1" class="node"><title>Node1</title>
<polygon fill="#bfbfbf" stroke="black" points="-0.5,-112.5 -0.5,-131.5 136.5,-131.5 136.5,-112.5 -0.5,-112.5"/>
<text text-anchor="middle" x="68" y="-119.5" font-family="Helvetica,sans-Serif" font-size="10.00">src/CGnuplot.teste.min.cpp</text>
</g>
<!-- Node2 -->
<g id="node2" class="node"><title>Node2</title>
<polygon fill="white" stroke="#bfbfbf" points="6,-0.5 6,-19.5 60,-19.5 60,-0.5 6,-0.5"/>
<text text-anchor="middle" x="33" y="-7.5" font-family="Helvetica,sans-Serif" font-size="10.00">iostream</text>
</g>
<!-- Node1&#45;&gt;Node2 -->
<g id="edge1" class="edge"><title>Node1&#45;&gt;Node2</title>
<path fill="none" stroke="midnightblue" d="M65.2536,-112.368C59.5798,-94.5366 46.4576,-53.2953 38.8137,-29.2717"/>
<polygon fill="midnightblue" stroke="midnightblue" points="42.101,-28.0594 35.7336,-19.5914 35.4305,-30.1819 42.101,-28.0594"/>
</g>
<!-- Node3 -->
<g id="node3" class="node"><title>Node3</title>
<g id="a_node3"><a xlink:href="CGnuplot_8h.xhtml" target="_top" xlink:title="CGnuplot.h">
<polygon fill="white" stroke="black" points="96,-56.5 96,-75.5 162,-75.5 162,-56.5 96,-56.5"/>
<text text-anchor="middle" x="129" y="-63.5" font-family="Helvetica,sans-Serif" font-size="10.00">CGnuplot.h</text>
</a>
</g>
</g>
<!-- Node1&#45;&gt;Node3 -->
<g id="edge2" class="edge"><title>Node1&#45;&gt;Node3</title>
<path fill="none" stroke="midnightblue" d="M77.8007,-112.324C86.8181,-104.341 100.406,-92.3128 111.318,-82.6529"/>
<polygon fill="midnightblue" stroke="midnightblue" points="113.853,-85.083 119.021,-75.8339 109.213,-79.8416 113.853,-85.083"/>
</g>
<!-- Node3&#45;&gt;Node2 -->
<g id="edge3" class="edge"><title>Node3&#45;&gt;Node2</title>
<path fill="none" stroke="midnightblue" d="M113.576,-56.324C98.4605,-47.8215 75.1846,-34.7288 57.5288,-24.7975"/>
<polygon fill="midnightblue" stroke="midnightblue" points="58.8175,-21.5066 48.3858,-19.6545 55.3856,-27.6077 58.8175,-21.5066"/>
</g>
<!-- Node4 -->
<g id="node4" class="node"><title>Node4</title>
<polygon fill="white" stroke="#bfbfbf" points="78.5,-0.5 78.5,-19.5 119.5,-19.5 119.5,-0.5 78.5,-0.5"/>
<text text-anchor="middle" x="99" y="-7.5" font-family="Helvetica,sans-Serif" font-size="10.00">string</text>
</g>
<!-- Node3&#45;&gt;Node4 -->
<g id="edge4" class="edge"><title>Node3&#45;&gt;Node4</title>
<path fill="none" stroke="midnightblue" d="M124.046,-56.083C119.896,-48.6127 113.847,-37.7244 108.733,-28.5199"/>
<polygon fill="midnightblue" stroke="midnightblue" points="111.778,-26.7929 103.862,-19.7511 105.659,-30.1924 111.778,-26.7929"/>
</g>
<!-- Node5 -->
<g id="node5" class="node"><title>Node5</title>
<polygon fill="white" stroke="#bfbfbf" points="138,-0.5 138,-19.5 182,-19.5 182,-0.5 138,-0.5"/>
<text text-anchor="middle" x="160" y="-7.5" font-family="Helvetica,sans-Serif" font-size="10.00">vector</text>
</g>
<!-- Node3&#45;&gt;Node5 -->
<g id="edge5" class="edge"><title>Node3&#45;&gt;Node5</title>
<path fill="none" stroke="midnightblue" d="M134.119,-56.083C138.408,-48.6127 144.658,-37.7244 149.942,-28.5199"/>
<polygon fill="midnightblue" stroke="midnightblue" points="153.033,-30.1662 154.976,-19.7511 146.962,-26.6811 153.033,-30.1662"/>
</g>
<!-- Node6 -->
<g id="node6" class="node"><title>Node6</title>
<polygon fill="white" stroke="#bfbfbf" points="200.5,-0.5 200.5,-19.5 259.5,-19.5 259.5,-0.5 200.5,-0.5"/>
<text text-anchor="middle" x="230" y="-7.5" font-family="Helvetica,sans-Serif" font-size="10.00">stdexcept</text>
</g>
<!-- Node3&#45;&gt;Node6 -->
<g id="edge6" class="edge"><title>Node3&#45;&gt;Node6</title>
<path fill="none" stroke="midnightblue" d="M145.227,-56.324C161.351,-47.7034 186.3,-34.3643 204.964,-24.3855"/>
<polygon fill="midnightblue" stroke="midnightblue" points="206.644,-27.456 213.813,-19.6545 203.344,-21.283 206.644,-27.456"/>
</g>
<!-- Node7 -->
<g id="node7" class="node"><title>Node7</title>
<polygon fill="white" stroke="#bfbfbf" points="277.5,-0.5 277.5,-19.5 320.5,-19.5 320.5,-0.5 277.5,-0.5"/>
<text text-anchor="middle" x="299" y="-7.5" font-family="Helvetica,sans-Serif" font-size="10.00">cstdio</text>
</g>
<!-- Node3&#45;&gt;Node7 -->
<g id="edge7" class="edge"><title>Node3&#45;&gt;Node7</title>
<path fill="none" stroke="midnightblue" d="M155.937,-56.4435C186.266,-46.8097 235.486,-31.1752 267.551,-20.9896"/>
<polygon fill="midnightblue" stroke="midnightblue" points="268.842,-24.2519 277.314,-17.8886 266.723,-17.5803 268.842,-24.2519"/>
</g>
</g>
</svg>
