<?xml version="1.0" encoding="UTF-8" standalone="no"?>
<!DOCTYPE svg PUBLIC "-//W3C//DTD SVG 1.1//EN"
 "http://www.w3.org/Graphics/SVG/1.1/DTD/svg11.dtd">
<!-- Generated by graphviz version 2.34.0 (20140110.0949)
 -->
<!-- Title: stringtok Pages: 1 -->
<svg width="472pt" height="85pt"
 viewBox="0.00 0.00 472.00 85.00" xmlns="http://www.w3.org/2000/svg" xmlns:xlink="http://www.w3.org/1999/xlink">
<g id="graph0" class="graph" transform="scale(1 1) rotate(0) translate(4 81)">
<title>stringtok</title>
<polygon fill="white" stroke="white" points="-4,4 -4,-81 468,-81 468,4 -4,4"/>
<!-- Node1 -->
<g id="node1" class="node"><title>Node1</title>
<polygon fill="#bfbfbf" stroke="black" points="0,-19.5 0,-38.5 54,-38.5 54,-19.5 0,-19.5"/>
<text text-anchor="middle" x="27" y="-26.5" font-family="Helvetica,sans-Serif" font-size="10.00">stringtok</text>
</g>
<!-- Node2 -->
<g id="node2" class="node"><title>Node2</title>
<g id="a_node2"><a xlink:href="classGnuplot.xhtml#a3a769e47861d74fa713070ecd857dd17" target="_top" xlink:title="Retorna verdadeiro se a path esta presente. ">
<polygon fill="white" stroke="black" points="90,-19.5 90,-38.5 224,-38.5 224,-19.5 90,-19.5"/>
<text text-anchor="middle" x="157" y="-26.5" font-family="Helvetica,sans-Serif" font-size="10.00">Gnuplot::get_program_path</text>
</a>
</g>
</g>
<!-- Node1&#45;&gt;Node2 -->
<g id="edge1" class="edge"><title>Node1&#45;&gt;Node2</title>
<path fill="none" stroke="midnightblue" d="M64.2999,-29C72.3328,-29 81.0871,-29 89.8946,-29"/>
<polygon fill="midnightblue" stroke="midnightblue" points="64.2116,-25.5001 54.2116,-29 64.2115,-32.5001 64.2116,-25.5001"/>
</g>
<!-- Node3 -->
<g id="node3" class="node"><title>Node3</title>
<g id="a_node3"><a xlink:href="classGnuplot.xhtml#a08d1e4ec069ec1cb82bb96427d1e0d7f" target="_top" xlink:title="Cria arquivo temporario e retorna seu nome. Usa get_program_path(); e popen();. ">
<polygon fill="white" stroke="black" points="264.5,-38.5 264.5,-57.5 333.5,-57.5 333.5,-38.5 264.5,-38.5"/>
<text text-anchor="middle" x="299" y="-45.5" font-family="Helvetica,sans-Serif" font-size="10.00">Gnuplot::init</text>
</a>
</g>
</g>
<!-- Node2&#45;&gt;Node3 -->
<g id="edge2" class="edge"><title>Node2&#45;&gt;Node3</title>
<path fill="none" stroke="midnightblue" d="M234.378,-39.3656C244.849,-40.7867 255.129,-42.1818 264.269,-43.4222"/>
<polygon fill="midnightblue" stroke="midnightblue" points="234.69,-35.8759 224.31,-37.9992 233.749,-42.8123 234.69,-35.8759"/>
</g>
<!-- Node6 -->
<g id="node6" class="node"><title>Node6</title>
<g id="a_node6"><a xlink:href="classGnuplot.xhtml#a8b2a2073044fd58cc6084bf4954e07bc" target="_top" xlink:title="Retorna verdadeiro se a path esta presente. ">
<polygon fill="white" stroke="black" points="260.5,-0.5 260.5,-19.5 337.5,-19.5 337.5,-0.5 260.5,-0.5"/>
<text text-anchor="middle" x="299" y="-7.5" font-family="Helvetica,sans-Serif" font-size="10.00">Gnuplot::Path</text>
</a>
</g>
</g>
<!-- Node2&#45;&gt;Node6 -->
<g id="edge5" class="edge"><title>Node2&#45;&gt;Node6</title>
<path fill="none" stroke="midnightblue" d="M234.401,-18.6313C243.314,-17.4217 252.087,-16.2311 260.136,-15.1387"/>
<polygon fill="midnightblue" stroke="midnightblue" points="233.749,-15.1877 224.31,-20.0008 234.69,-22.1241 233.749,-15.1877"/>
</g>
<!-- Node4 -->
<g id="node4" class="node"><title>Node4</title>
<g id="a_node4"><a xlink:href="classGnuplot.xhtml#a187eb517b362cf379492fe7f1621ee50" target="_top" xlink:title="Construtor, seta o estilo do grafico na construcao. ">
<polygon fill="white" stroke="black" points="374,-57.5 374,-76.5 464,-76.5 464,-57.5 374,-57.5"/>
<text text-anchor="middle" x="419" y="-64.5" font-family="Helvetica,sans-Serif" font-size="10.00">Gnuplot::Gnuplot</text>
</a>
</g>
</g>
<!-- Node3&#45;&gt;Node4 -->
<g id="edge3" class="edge"><title>Node3&#45;&gt;Node4</title>
<path fill="none" stroke="midnightblue" d="M343.716,-55.039C353.472,-56.6099 363.828,-58.2773 373.611,-59.8527"/>
<polygon fill="midnightblue" stroke="midnightblue" points="344.243,-51.5789 333.814,-53.4446 343.13,-58.4899 344.243,-51.5789"/>
</g>
<!-- Node5 -->
<g id="node5" class="node"><title>Node5</title>
<g id="a_node5"><a xlink:href="classGnuplot.xhtml#a1f0052a04c1259e2c008435de407959f" target="_top" xlink:title="Cria arquivo temporario e retorna seu nome. Usa get_program_path(); e popen();. ">
<polygon fill="white" stroke="black" points="384,-19.5 384,-38.5 454,-38.5 454,-19.5 384,-19.5"/>
<text text-anchor="middle" x="419" y="-26.5" font-family="Helvetica,sans-Serif" font-size="10.00">Gnuplot::Init</text>
</a>
</g>
</g>
<!-- Node3&#45;&gt;Node5 -->
<g id="edge4" class="edge"><title>Node3&#45;&gt;Node5</title>
<path fill="none" stroke="midnightblue" d="M344.061,-40.9054C357.188,-38.7917 371.372,-36.5079 383.772,-34.5113"/>
<polygon fill="midnightblue" stroke="midnightblue" points="343.13,-37.5101 333.814,-42.5554 344.243,-44.4211 343.13,-37.5101"/>
</g>
</g>
</svg>
