<?xml version="1.0" encoding="UTF-8" standalone="no"?>
<!DOCTYPE svg PUBLIC "-//W3C//DTD SVG 1.1//EN"
 "http://www.w3.org/Graphics/SVG/1.1/DTD/svg11.dtd">
<!-- Generated by graphviz version 2.34.0 (20140110.0949)
 -->
<!-- Title: src/CGnuplot.teste.cpp Pages: 1 -->
<svg width="322pt" height="140pt"
 viewBox="0.00 0.00 322.00 140.00" xmlns="http://www.w3.org/2000/svg" xmlns:xlink="http://www.w3.org/1999/xlink">
<g id="graph0" class="graph" transform="scale(1 1) rotate(0) translate(4 136)">
<title>src/CGnuplot.teste.cpp</title>
<polygon fill="white" stroke="white" points="-4,4 -4,-136 318,-136 318,4 -4,4"/>
<!-- Node1 -->
<g id="node1" class="node"><title>Node1</title>
<polygon fill="#bfbfbf" stroke="black" points="3,-112.5 3,-131.5 121,-131.5 121,-112.5 3,-112.5"/>
<text text-anchor="middle" x="62" y="-119.5" font-family="Helvetica,sans-Serif" font-size="10.00">src/CGnuplot.teste.cpp</text>
</g>
<!-- Node2 -->
<g id="node2" class="node"><title>Node2</title>
<polygon fill="white" stroke="#bfbfbf" points="0,-0.5 0,-19.5 54,-19.5 54,-0.5 0,-0.5"/>
<text text-anchor="middle" x="27" y="-7.5" font-family="Helvetica,sans-Serif" font-size="10.00">iostream</text>
</g>
<!-- Node1&#45;&gt;Node2 -->
<g id="edge1" class="edge"><title>Node1&#45;&gt;Node2</title>
<path fill="none" stroke="midnightblue" d="M59.2536,-112.368C53.5798,-94.5366 40.4576,-53.2953 32.8137,-29.2717"/>
<polygon fill="midnightblue" stroke="midnightblue" points="36.101,-28.0594 29.7336,-19.5914 29.4305,-30.1819 36.101,-28.0594"/>
</g>
<!-- Node3 -->
<g id="node3" class="node"><title>Node3</title>
<g id="a_node3"><a xlink:href="CGnuplot_8h.xhtml" target="_top" xlink:title="CGnuplot.h">
<polygon fill="white" stroke="black" points="90,-56.5 90,-75.5 156,-75.5 156,-56.5 90,-56.5"/>
<text text-anchor="middle" x="123" y="-63.5" font-family="Helvetica,sans-Serif" font-size="10.00">CGnuplot.h</text>
</a>
</g>
</g>
<!-- Node1&#45;&gt;Node3 -->
<g id="edge2" class="edge"><title>Node1&#45;&gt;Node3</title>
<path fill="none" stroke="midnightblue" d="M71.8007,-112.324C80.8181,-104.341 94.406,-92.3128 105.318,-82.6529"/>
<polygon fill="midnightblue" stroke="midnightblue" points="107.853,-85.083 113.021,-75.8339 103.213,-79.8416 107.853,-85.083"/>
</g>
<!-- Node3&#45;&gt;Node2 -->
<g id="edge3" class="edge"><title>Node3&#45;&gt;Node2</title>
<path fill="none" stroke="midnightblue" d="M107.576,-56.324C92.4605,-47.8215 69.1846,-34.7288 51.5288,-24.7975"/>
<polygon fill="midnightblue" stroke="midnightblue" points="52.8175,-21.5066 42.3858,-19.6545 49.3856,-27.6077 52.8175,-21.5066"/>
</g>
<!-- Node4 -->
<g id="node4" class="node"><title>Node4</title>
<polygon fill="white" stroke="#bfbfbf" points="72.5,-0.5 72.5,-19.5 113.5,-19.5 113.5,-0.5 72.5,-0.5"/>
<text text-anchor="middle" x="93" y="-7.5" font-family="Helvetica,sans-Serif" font-size="10.00">string</text>
</g>
<!-- Node3&#45;&gt;Node4 -->
<g id="edge4" class="edge"><title>Node3&#45;&gt;Node4</title>
<path fill="none" stroke="midnightblue" d="M118.046,-56.083C113.896,-48.6127 107.847,-37.7244 102.733,-28.5199"/>
<polygon fill="midnightblue" stroke="midnightblue" points="105.778,-26.7929 97.8617,-19.7511 99.6586,-30.1924 105.778,-26.7929"/>
</g>
<!-- Node5 -->
<g id="node5" class="node"><title>Node5</title>
<polygon fill="white" stroke="#bfbfbf" points="132,-0.5 132,-19.5 176,-19.5 176,-0.5 132,-0.5"/>
<text text-anchor="middle" x="154" y="-7.5" font-family="Helvetica,sans-Serif" font-size="10.00">vector</text>
</g>
<!-- Node3&#45;&gt;Node5 -->
<g id="edge5" class="edge"><title>Node3&#45;&gt;Node5</title>
<path fill="none" stroke="midnightblue" d="M128.119,-56.083C132.408,-48.6127 138.658,-37.7244 143.942,-28.5199"/>
<polygon fill="midnightblue" stroke="midnightblue" points="147.033,-30.1662 148.976,-19.7511 140.962,-26.6811 147.033,-30.1662"/>
</g>
<!-- Node6 -->
<g id="node6" class="node"><title>Node6</title>
<polygon fill="white" stroke="#bfbfbf" points="194.5,-0.5 194.5,-19.5 253.5,-19.5 253.5,-0.5 194.5,-0.5"/>
<text text-anchor="middle" x="224" y="-7.5" font-family="Helvetica,sans-Serif" font-size="10.00">stdexcept</text>
</g>
<!-- Node3&#45;&gt;Node6 -->
<g id="edge6" class="edge"><title>Node3&#45;&gt;Node6</title>
<path fill="none" stroke="midnightblue" d="M139.227,-56.324C155.351,-47.7034 180.3,-34.3643 198.964,-24.3855"/>
<polygon fill="midnightblue" stroke="midnightblue" points="200.644,-27.456 207.813,-19.6545 197.344,-21.283 200.644,-27.456"/>
</g>
<!-- Node7 -->
<g id="node7" class="node"><title>Node7</title>
<polygon fill="white" stroke="#bfbfbf" points="271.5,-0.5 271.5,-19.5 314.5,-19.5 314.5,-0.5 271.5,-0.5"/>
<text text-anchor="middle" x="293" y="-7.5" font-family="Helvetica,sans-Serif" font-size="10.00">cstdio</text>
</g>
<!-- Node3&#45;&gt;Node7 -->
<g id="edge7" class="edge"><title>Node3&#45;&gt;Node7</title>
<path fill="none" stroke="midnightblue" d="M149.937,-56.4435C180.266,-46.8097 229.486,-31.1752 261.551,-20.9896"/>
<polygon fill="midnightblue" stroke="midnightblue" points="262.842,-24.2519 271.314,-17.8886 260.723,-17.5803 262.842,-24.2519"/>
</g>
</g>
</svg>
