<?xml version="1.0" encoding="UTF-8" standalone="no"?>
<!DOCTYPE svg PUBLIC "-//W3C//DTD SVG 1.1//EN"
 "http://www.w3.org/Graphics/SVG/1.1/DTD/svg11.dtd">
<!-- Generated by graphviz version 2.34.0 (20140110.0949)
 -->
<!-- Title: main Pages: 1 -->
<svg width="470pt" height="370pt"
 viewBox="0.00 0.00 470.00 370.00" xmlns="http://www.w3.org/2000/svg" xmlns:xlink="http://www.w3.org/1999/xlink">
<g id="graph0" class="graph" transform="scale(1 1) rotate(0) translate(4 366)">
<title>main</title>
<polygon fill="white" stroke="white" points="-4,4 -4,-366 466,-366 466,4 -4,4"/>
<!-- Node1 -->
<g id="node1" class="node"><title>Node1</title>
<polygon fill="#bfbfbf" stroke="black" points="0,-171.5 0,-190.5 38,-190.5 38,-171.5 0,-171.5"/>
<text text-anchor="middle" x="19" y="-178.5" font-family="Helvetica,sans-Serif" font-size="10.00">main</text>
</g>
<!-- Node2 -->
<g id="node2" class="node"><title>Node2</title>
<g id="a_node2"><a xlink:href="classGnuplot.xhtml#aec3037a558d26535e3847c52d1b120aa" target="_top" xlink:title="Ativa/Desativa a legenda (a legenda é setada por padrao). ">
<polygon fill="white" stroke="black" points="86,-342.5 86,-361.5 174,-361.5 174,-342.5 86,-342.5"/>
<text text-anchor="middle" x="130" y="-349.5" font-family="Helvetica,sans-Serif" font-size="10.00">Gnuplot::Legend</text>
</a>
</g>
</g>
<!-- Node1&#45;&gt;Node2 -->
<g id="edge1" class="edge"><title>Node1&#45;&gt;Node2</title>
<path fill="none" stroke="midnightblue" d="M20.6203,-190.702C22.8384,-217.278 32.6316,-291.991 74,-333 75.6031,-334.589 77.3453,-336.046 79.1901,-337.38"/>
<polygon fill="midnightblue" stroke="midnightblue" points="77.4343,-340.408 87.823,-342.488 80.999,-334.384 77.4343,-340.408"/>
</g>
<!-- Node5 -->
<g id="node5" class="node"><title>Node5</title>
<g id="a_node5"><a xlink:href="classGnuplot.xhtml#a901b030726d78e791f7005acf987bc44" target="_top" xlink:title="Plota uma equacao fornecida como uma std::string y=f(x). Escrever somente a funcao f(x) e nao y= A va...">
<polygon fill="white" stroke="black" points="74,-304.5 74,-323.5 186,-323.5 186,-304.5 74,-304.5"/>
<text text-anchor="middle" x="130" y="-311.5" font-family="Helvetica,sans-Serif" font-size="10.00">Gnuplot::PlotEquation</text>
</a>
</g>
</g>
<!-- Node1&#45;&gt;Node5 -->
<g id="edge4" class="edge"><title>Node1&#45;&gt;Node5</title>
<path fill="none" stroke="midnightblue" d="M21.9383,-190.783C26.7684,-212.634 41.3769,-265.774 74,-295 75.7424,-296.561 77.6196,-297.995 79.5929,-299.312"/>
<polygon fill="midnightblue" stroke="midnightblue" points="78.296,-302.595 88.7408,-304.372 81.6839,-296.469 78.296,-302.595"/>
</g>
<!-- Node7 -->
<g id="node7" class="node"><title>Node7</title>
<g id="a_node7"><a xlink:href="classGnuplot.xhtml#ae32093aa955bc31938d9cb266085ae4b" target="_top" xlink:title="Gnuplot::Reset">
<polygon fill="white" stroke="black" points="88.5,-266.5 88.5,-285.5 171.5,-285.5 171.5,-266.5 88.5,-266.5"/>
<text text-anchor="middle" x="130" y="-273.5" font-family="Helvetica,sans-Serif" font-size="10.00">Gnuplot::Reset</text>
</a>
</g>
</g>
<!-- Node1&#45;&gt;Node7 -->
<g id="edge7" class="edge"><title>Node1&#45;&gt;Node7</title>
<path fill="none" stroke="midnightblue" d="M24.3742,-190.633C32.1269,-206.667 49.7737,-238.856 74,-257 76.4675,-258.848 79.1282,-260.525 81.901,-262.047"/>
<polygon fill="midnightblue" stroke="midnightblue" points="80.5053,-265.258 91.0394,-266.391 83.5109,-258.937 80.5053,-265.258"/>
</g>
<!-- Node9 -->
<g id="node9" class="node"><title>Node9</title>
<g id="a_node9"><a xlink:href="classGnuplot.xhtml#ae64e911770994ba05cc2f6dcbfe31540" target="_top" xlink:title="Seta estilos de linhas (em alguns casos sao necessarias informacoes adicionais). lines, points, linespoints, impulses, dots, steps, fsteps, histeps, boxes, histograms, filledcurves. ">
<polygon fill="white" stroke="black" points="90.5,-228.5 90.5,-247.5 169.5,-247.5 169.5,-228.5 90.5,-228.5"/>
<text text-anchor="middle" x="130" y="-235.5" font-family="Helvetica,sans-Serif" font-size="10.00">Gnuplot::Style</text>
</a>
</g>
</g>
<!-- Node1&#45;&gt;Node9 -->
<g id="edge9" class="edge"><title>Node1&#45;&gt;Node9</title>
<path fill="none" stroke="midnightblue" d="M31.8149,-190.789C42.3592,-199.155 58.4878,-211.063 74,-219 78.0555,-221.075 82.3888,-223.008 86.7763,-224.786"/>
<polygon fill="midnightblue" stroke="midnightblue" points="85.7892,-228.155 96.3806,-228.422 88.2678,-221.608 85.7892,-228.155"/>
</g>
<!-- Node11 -->
<g id="node11" class="node"><title>Node11</title>
<g id="a_node11"><a xlink:href="classGnuplot.xhtml#a4039b0fdcf0e3fbf97dac187825138fb" target="_top" xlink:title="Opcional: Seta terminal padrao (standart), usado para visualizacao dos graficos. Valores padroes (def...">
<polygon fill="white" stroke="black" points="83,-190.5 83,-209.5 177,-209.5 177,-190.5 83,-190.5"/>
<text text-anchor="middle" x="130" y="-197.5" font-family="Helvetica,sans-Serif" font-size="10.00">Gnuplot::Terminal</text>
</a>
</g>
</g>
<!-- Node1&#45;&gt;Node11 -->
<g id="edge11" class="edge"><title>Node1&#45;&gt;Node11</title>
<path fill="none" stroke="midnightblue" d="M38.4904,-184.223C48.0757,-185.894 60.3509,-188.034 72.7471,-190.194"/>
<polygon fill="midnightblue" stroke="midnightblue" points="72.213,-193.654 82.6655,-191.923 73.4151,-186.758 72.213,-193.654"/>
</g>
<!-- Node13 -->
<g id="node13" class="node"><title>Node13</title>
<g id="a_node13"><a xlink:href="classGnuplot.xhtml#a73bb8c97a946cafea0eca683450a6a62" target="_top" xlink:title="Ativa/Desativa o titulo da secao do gnuplot. ">
<polygon fill="white" stroke="black" points="92.5,-152.5 92.5,-171.5 167.5,-171.5 167.5,-152.5 92.5,-152.5"/>
<text text-anchor="middle" x="130" y="-159.5" font-family="Helvetica,sans-Serif" font-size="10.00">Gnuplot::Title</text>
</a>
</g>
</g>
<!-- Node1&#45;&gt;Node13 -->
<g id="edge13" class="edge"><title>Node1&#45;&gt;Node13</title>
<path fill="none" stroke="midnightblue" d="M38.4904,-177.777C50.5479,-175.675 66.8619,-172.831 82.3189,-170.137"/>
<polygon fill="midnightblue" stroke="midnightblue" points="83.049,-173.563 92.2994,-168.397 81.8469,-166.667 83.049,-173.563"/>
</g>
<!-- Node15 -->
<g id="node15" class="node"><title>Node15</title>
<g id="a_node15"><a xlink:href="CGnuplot_8teste_8min_8cpp.xhtml#a621288a08ecc9633729935737256e831" target="_top" xlink:title="wait_for_key">
<polygon fill="white" stroke="black" points="94,-114.5 94,-133.5 166,-133.5 166,-114.5 94,-114.5"/>
<text text-anchor="middle" x="130" y="-121.5" font-family="Helvetica,sans-Serif" font-size="10.00">wait_for_key</text>
</a>
</g>
</g>
<!-- Node1&#45;&gt;Node15 -->
<g id="edge16" class="edge"><title>Node1&#45;&gt;Node15</title>
<path fill="none" stroke="midnightblue" d="M31.8149,-171.211C42.3592,-162.845 58.4878,-150.937 74,-143 78.0555,-140.925 82.3888,-138.992 86.7763,-137.214"/>
<polygon fill="midnightblue" stroke="midnightblue" points="88.2678,-140.392 96.3806,-133.578 85.7892,-133.845 88.2678,-140.392"/>
</g>
<!-- Node16 -->
<g id="node16" class="node"><title>Node16</title>
<g id="a_node16"><a xlink:href="classGnuplot.xhtml#ac36ea75f0759c98da946389e60c12278" target="_top" xlink:title="Seta o rotulo (nome) do eixo x. ">
<polygon fill="white" stroke="black" points="87,-76.5 87,-95.5 173,-95.5 173,-76.5 87,-76.5"/>
<text text-anchor="middle" x="130" y="-83.5" font-family="Helvetica,sans-Serif" font-size="10.00">Gnuplot::XLabel</text>
</a>
</g>
</g>
<!-- Node1&#45;&gt;Node16 -->
<g id="edge17" class="edge"><title>Node1&#45;&gt;Node16</title>
<path fill="none" stroke="midnightblue" d="M24.3742,-171.367C32.1269,-155.333 49.7737,-123.144 74,-105 76.4675,-103.152 79.1282,-101.475 81.901,-99.9533"/>
<polygon fill="midnightblue" stroke="midnightblue" points="83.5109,-103.063 91.0394,-95.6088 80.5053,-96.7415 83.5109,-103.063"/>
</g>
<!-- Node18 -->
<g id="node18" class="node"><title>Node18</title>
<g id="a_node18"><a xlink:href="classGnuplot.xhtml#a3fb5c7726e954739d847edd2670705fe" target="_top" xlink:title="Seta intervalo do eixo x. ">
<polygon fill="white" stroke="black" points="84,-38.5 84,-57.5 176,-57.5 176,-38.5 84,-38.5"/>
<text text-anchor="middle" x="130" y="-45.5" font-family="Helvetica,sans-Serif" font-size="10.00">Gnuplot::XRange</text>
</a>
</g>
</g>
<!-- Node1&#45;&gt;Node18 -->
<g id="edge20" class="edge"><title>Node1&#45;&gt;Node18</title>
<path fill="none" stroke="midnightblue" d="M21.9383,-171.217C26.7684,-149.366 41.3769,-96.2256 74,-67 75.7424,-65.4391 77.6196,-64.0051 79.5929,-62.6878"/>
<polygon fill="midnightblue" stroke="midnightblue" points="81.6839,-65.531 88.7408,-57.6284 78.296,-59.4055 81.6839,-65.531"/>
</g>
<!-- Node20 -->
<g id="node20" class="node"><title>Node20</title>
<g id="a_node20"><a xlink:href="classGnuplot.xhtml#ab4cdb8c1abd919b9851ca9a81667f2a4" target="_top" xlink:title="Seta o rotulo (nome) do eixo y. ">
<polygon fill="white" stroke="black" points="87,-0.5 87,-19.5 173,-19.5 173,-0.5 87,-0.5"/>
<text text-anchor="middle" x="130" y="-7.5" font-family="Helvetica,sans-Serif" font-size="10.00">Gnuplot::YLabel</text>
</a>
</g>
</g>
<!-- Node1&#45;&gt;Node20 -->
<g id="edge23" class="edge"><title>Node1&#45;&gt;Node20</title>
<path fill="none" stroke="midnightblue" d="M20.6203,-171.298C22.8384,-144.722 32.6316,-70.0085 74,-29 75.6031,-27.4109 77.3453,-25.9544 79.1901,-24.6196"/>
<polygon fill="midnightblue" stroke="midnightblue" points="80.999,-27.6161 87.823,-19.5115 77.4343,-21.5917 80.999,-27.6161"/>
</g>
<!-- Node3 -->
<g id="node3" class="node"><title>Node3</title>
<g id="a_node3"><a xlink:href="classGnuplot.xhtml#ad64a717dac18167f656c4f09239973f8" target="_top" xlink:title="Ativa a legenda (a legenda é setada por padrao). Posicao: inside/outside, left/center/right, top/center/bottom, nobox/box. ">
<polygon fill="white" stroke="black" points="234,-342.5 234,-361.5 338,-361.5 338,-342.5 234,-342.5"/>
<text text-anchor="middle" x="286" y="-349.5" font-family="Helvetica,sans-Serif" font-size="10.00">Gnuplot::set_legend</text>
</a>
</g>
</g>
<!-- Node2&#45;&gt;Node3 -->
<g id="edge2" class="edge"><title>Node2&#45;&gt;Node3</title>
<path fill="none" stroke="midnightblue" d="M174.307,-352C189.631,-352 207.173,-352 223.706,-352"/>
<polygon fill="midnightblue" stroke="midnightblue" points="223.841,-355.5 233.841,-352 223.841,-348.5 223.841,-355.5"/>
</g>
<!-- Node4 -->
<g id="node4" class="node"><title>Node4</title>
<g id="a_node4"><a xlink:href="classGnuplot.xhtml#a07607803ede8dd5416906df0a1924fc5" target="_top" xlink:title="Envia comando para o gnuplot. ">
<polygon fill="white" stroke="black" points="386.5,-120.5 386.5,-139.5 461.5,-139.5 461.5,-120.5 386.5,-120.5"/>
<text text-anchor="middle" x="424" y="-127.5" font-family="Helvetica,sans-Serif" font-size="10.00">Gnuplot::cmd</text>
</a>
</g>
</g>
<!-- Node3&#45;&gt;Node4 -->
<g id="edge3" class="edge"><title>Node3&#45;&gt;Node4</title>
<path fill="none" stroke="midnightblue" d="M335.995,-342.38C341.126,-339.928 345.94,-336.853 350,-333 403.274,-282.442 417.766,-190.221 421.63,-149.835"/>
<polygon fill="midnightblue" stroke="midnightblue" points="425.133,-149.944 422.477,-139.688 418.158,-149.362 425.133,-149.944"/>
</g>
<!-- Node6 -->
<g id="node6" class="node"><title>Node6</title>
<g id="a_node6"><a xlink:href="classGnuplot.xhtml#a42dfb8c9d4636745c7be277ed818e849" target="_top" xlink:title="Plota uma equacao fornecida como uma std::string y=f(x). Escrever somente a funcao f(x) e nao y= A va...">
<polygon fill="white" stroke="black" points="229,-304.5 229,-323.5 343,-323.5 343,-304.5 229,-304.5"/>
<text text-anchor="middle" x="286" y="-311.5" font-family="Helvetica,sans-Serif" font-size="10.00">Gnuplot::plot_equation</text>
</a>
</g>
</g>
<!-- Node5&#45;&gt;Node6 -->
<g id="edge5" class="edge"><title>Node5&#45;&gt;Node6</title>
<path fill="none" stroke="midnightblue" d="M186.163,-314C196.693,-314 207.817,-314 218.653,-314"/>
<polygon fill="midnightblue" stroke="midnightblue" points="218.927,-317.5 228.927,-314 218.927,-310.5 218.927,-317.5"/>
</g>
<!-- Node6&#45;&gt;Node4 -->
<g id="edge6" class="edge"><title>Node6&#45;&gt;Node4</title>
<path fill="none" stroke="midnightblue" d="M335.095,-304.383C340.507,-301.932 345.634,-298.857 350,-295 394.292,-255.871 412.949,-184.796 419.699,-150.116"/>
<polygon fill="midnightblue" stroke="midnightblue" points="423.22,-150.312 421.551,-139.849 416.331,-149.069 423.22,-150.312"/>
</g>
<!-- Node8 -->
<g id="node8" class="node"><title>Node8</title>
<g id="a_node8"><a xlink:href="classGnuplot.xhtml#a6797761712d3c311e3685bcccba65dd4" target="_top" xlink:title="Gnuplot::reset_plot">
<polygon fill="white" stroke="black" points="236.5,-266.5 236.5,-285.5 335.5,-285.5 335.5,-266.5 236.5,-266.5"/>
<text text-anchor="middle" x="286" y="-273.5" font-family="Helvetica,sans-Serif" font-size="10.00">Gnuplot::reset_plot</text>
</a>
</g>
</g>
<!-- Node7&#45;&gt;Node8 -->
<g id="edge8" class="edge"><title>Node7&#45;&gt;Node8</title>
<path fill="none" stroke="midnightblue" d="M171.865,-276C188.479,-276 207.995,-276 226.097,-276"/>
<polygon fill="midnightblue" stroke="midnightblue" points="226.269,-279.5 236.268,-276 226.268,-272.5 226.269,-279.5"/>
</g>
<!-- Node10 -->
<g id="node10" class="node"><title>Node10</title>
<g id="a_node10"><a xlink:href="classGnuplot.xhtml#acfdcda292650775ebed4683e8e1515b5" target="_top" xlink:title="Seta estilos de linhas (em alguns casos sao necessarias informacoes adicionais). lines, points, linespoints, impulses, dots, steps, fsteps, histeps, boxes, histograms, filledcurves. ">
<polygon fill="white" stroke="black" points="238,-228.5 238,-247.5 334,-247.5 334,-228.5 238,-228.5"/>
<text text-anchor="middle" x="286" y="-235.5" font-family="Helvetica,sans-Serif" font-size="10.00">Gnuplot::set_style</text>
</a>
</g>
</g>
<!-- Node9&#45;&gt;Node10 -->
<g id="edge10" class="edge"><title>Node9&#45;&gt;Node10</title>
<path fill="none" stroke="midnightblue" d="M169.861,-238C187.384,-238 208.432,-238 227.712,-238"/>
<polygon fill="midnightblue" stroke="midnightblue" points="227.906,-241.5 237.906,-238 227.906,-234.5 227.906,-241.5"/>
</g>
<!-- Node12 -->
<g id="node12" class="node"><title>Node12</title>
<g id="a_node12"><a xlink:href="classGnuplot.xhtml#a21feba7a3916708b742c3dc25850ab2f" target="_top" xlink:title="Opcional: Seta terminal padrao (standart), usado para visualizacao dos graficos. Valores padroes (def...">
<polygon fill="white" stroke="black" points="222,-190.5 222,-209.5 350,-209.5 350,-190.5 222,-190.5"/>
<text text-anchor="middle" x="286" y="-197.5" font-family="Helvetica,sans-Serif" font-size="10.00">Gnuplot::set_terminal_std</text>
</a>
</g>
</g>
<!-- Node11&#45;&gt;Node12 -->
<g id="edge12" class="edge"><title>Node11&#45;&gt;Node12</title>
<path fill="none" stroke="midnightblue" d="M177.205,-200C188.032,-200 199.831,-200 211.522,-200"/>
<polygon fill="midnightblue" stroke="midnightblue" points="211.741,-203.5 221.741,-200 211.741,-196.5 211.741,-203.5"/>
</g>
<!-- Node14 -->
<g id="node14" class="node"><title>Node14</title>
<g id="a_node14"><a xlink:href="classGnuplot.xhtml#aa693e806a115af1e2776a15078e75b46" target="_top" xlink:title="Ativa o titulo da secao do gnuplot. ">
<polygon fill="white" stroke="black" points="240.5,-149.5 240.5,-168.5 331.5,-168.5 331.5,-149.5 240.5,-149.5"/>
<text text-anchor="middle" x="286" y="-156.5" font-family="Helvetica,sans-Serif" font-size="10.00">Gnuplot::set_title</text>
</a>
</g>
</g>
<!-- Node13&#45;&gt;Node14 -->
<g id="edge14" class="edge"><title>Node13&#45;&gt;Node14</title>
<path fill="none" stroke="midnightblue" d="M167.887,-161.281C186.537,-160.918 209.543,-160.47 230.213,-160.067"/>
<polygon fill="midnightblue" stroke="midnightblue" points="230.528,-163.562 240.458,-159.868 230.391,-156.563 230.528,-163.562"/>
</g>
<!-- Node14&#45;&gt;Node4 -->
<g id="edge15" class="edge"><title>Node14&#45;&gt;Node4</title>
<path fill="none" stroke="midnightblue" d="M331.531,-149.504C345.744,-146.474 361.516,-143.11 375.905,-140.042"/>
<polygon fill="midnightblue" stroke="midnightblue" points="377.045,-143.378 386.096,-137.869 375.585,-136.532 377.045,-143.378"/>
</g>
<!-- Node17 -->
<g id="node17" class="node"><title>Node17</title>
<g id="a_node17"><a xlink:href="classGnuplot.xhtml#a58808028aec03a22b5c19693b14baeef" target="_top" xlink:title="Seta o rotulo (nome) do eixo x. ">
<polygon fill="white" stroke="black" points="235.5,-92.5 235.5,-111.5 336.5,-111.5 336.5,-92.5 235.5,-92.5"/>
<text text-anchor="middle" x="286" y="-99.5" font-family="Helvetica,sans-Serif" font-size="10.00">Gnuplot::set_xlabel</text>
</a>
</g>
</g>
<!-- Node16&#45;&gt;Node17 -->
<g id="edge18" class="edge"><title>Node16&#45;&gt;Node17</title>
<path fill="none" stroke="midnightblue" d="M173.081,-90.3721C189.161,-92.0427 207.819,-93.9812 225.237,-95.7908"/>
<polygon fill="midnightblue" stroke="midnightblue" points="225.011,-99.2862 235.32,-96.8384 225.735,-92.3236 225.011,-99.2862"/>
</g>
<!-- Node17&#45;&gt;Node4 -->
<g id="edge19" class="edge"><title>Node17&#45;&gt;Node4</title>
<path fill="none" stroke="midnightblue" d="M333.423,-111.558C347.293,-114.413 362.5,-117.544 376.382,-120.402"/>
<polygon fill="midnightblue" stroke="midnightblue" points="375.718,-123.839 386.219,-122.427 377.13,-116.983 375.718,-123.839"/>
</g>
<!-- Node19 -->
<g id="node19" class="node"><title>Node19</title>
<g id="a_node19"><a xlink:href="classGnuplot.xhtml#a726232ac7226b9fc8811eaefa87c902b" target="_top" xlink:title="Seta intervalo do eixo x. ">
<polygon fill="white" stroke="black" points="234,-45.5 234,-64.5 338,-64.5 338,-45.5 234,-45.5"/>
<text text-anchor="middle" x="286" y="-52.5" font-family="Helvetica,sans-Serif" font-size="10.00">Gnuplot::set_xrange</text>
</a>
</g>
</g>
<!-- Node18&#45;&gt;Node19 -->
<g id="edge21" class="edge"><title>Node18&#45;&gt;Node19</title>
<path fill="none" stroke="midnightblue" d="M176.372,-50.0624C191.147,-50.7339 207.801,-51.491 223.551,-52.2068"/>
<polygon fill="midnightblue" stroke="midnightblue" points="223.592,-55.7122 233.74,-52.67 223.91,-48.7195 223.592,-55.7122"/>
</g>
<!-- Node19&#45;&gt;Node4 -->
<g id="edge22" class="edge"><title>Node19&#45;&gt;Node4</title>
<path fill="none" stroke="midnightblue" d="M310.749,-64.5327C322.729,-69.5967 337.362,-76.1756 350,-83 367.625,-92.5175 386.623,-104.819 400.819,-114.449"/>
<polygon fill="midnightblue" stroke="midnightblue" points="399.167,-117.56 409.392,-120.336 403.129,-111.79 399.167,-117.56"/>
</g>
<!-- Node21 -->
<g id="node21" class="node"><title>Node21</title>
<g id="a_node21"><a xlink:href="classGnuplot.xhtml#a7654b86e3873aec4c5101abb466fe4ab" target="_top" xlink:title="Seta o rotulo (nome) do eixo y. ">
<polygon fill="white" stroke="black" points="235.5,-2.5 235.5,-21.5 336.5,-21.5 336.5,-2.5 235.5,-2.5"/>
<text text-anchor="middle" x="286" y="-9.5" font-family="Helvetica,sans-Serif" font-size="10.00">Gnuplot::set_ylabel</text>
</a>
</g>
</g>
<!-- Node20&#45;&gt;Node21 -->
<g id="edge24" class="edge"><title>Node20&#45;&gt;Node21</title>
<path fill="none" stroke="midnightblue" d="M173.081,-10.5465C189.161,-10.7553 207.819,-10.9977 225.237,-11.2239"/>
<polygon fill="midnightblue" stroke="midnightblue" points="225.275,-14.7245 235.32,-11.3548 225.366,-7.72514 225.275,-14.7245"/>
</g>
<!-- Node21&#45;&gt;Node4 -->
<g id="edge25" class="edge"><title>Node21&#45;&gt;Node4</title>
<path fill="none" stroke="midnightblue" d="M322.089,-21.5244C331.69,-25.1209 341.722,-29.8719 350,-36 377.814,-56.5892 400.478,-90.4698 412.827,-111.439"/>
<polygon fill="midnightblue" stroke="midnightblue" points="409.902,-113.375 417.898,-120.327 415.982,-109.906 409.902,-113.375"/>
</g>
</g>
</svg>
