<?xml version="1.0" encoding="UTF-8" standalone="no"?>
<!DOCTYPE svg PUBLIC "-//W3C//DTD SVG 1.1//EN"
 "http://www.w3.org/Graphics/SVG/1.1/DTD/svg11.dtd">
<!-- Generated by graphviz version 2.34.0 (20140110.0949)
 -->
<!-- Title: src/CInterface.h Pages: 1 -->
<!--zoomable 368 -->
<svg id="main" version="1.1" xmlns="http://www.w3.org/2000/svg" xmlns:xlink="http://www.w3.org/1999/xlink" xml:space="preserve" onload="init(evt)">
<style type="text/css"><![CDATA[
.edge:hover path { stroke: red; }
.edge:hover polygon { stroke: red; fill: red; }
]]></style>
<script type="text/javascript"><![CDATA[
var edges = document.getElementsByTagName('g');
if (edges && edges.length) {
  for (var i=0;i<edges.length;i++) {
    if (edges[i].id.substr(0,4)=='edge') {
      edges[i].setAttribute('class','edge');
    }
  }
}
]]></script>
        <defs>
                <circle id="rim" cx="0" cy="0" r="7"/>
                <circle id="rim2" cx="0" cy="0" r="3.5"/>
                <g id="zoomPlus">
                        <use xlink:href="#rim" fill="#404040">
                                <set attributeName="fill" to="#808080" begin="zoomplus.mouseover" end="zoomplus.mouseout"/>
                        </use>
                        <path d="M-4,0h8M0,-4v8" fill="none" stroke="white" stroke-width="1.5" pointer-events="none"/>
                </g>
                <g id="zoomMin">
                        <use xlink:href="#rim" fill="#404040">
                                <set attributeName="fill" to="#808080" begin="zoomminus.mouseover" end="zoomminus.mouseout"/>
                        </use>
                        <path d="M-4,0h8" fill="none" stroke="white" stroke-width="1.5" pointer-events="none"/>
                </g>
                <g id="dirArrow">
                        <path fill="none" stroke="white" stroke-width="1.5" d="M0,-3.0v7 M-2.5,-0.5L0,-3.0L2.5,-0.5"/>
                </g>
               <g id="resetDef">
                       <use xlink:href="#rim2" fill="#404040">
                               <set attributeName="fill" to="#808080" begin="reset.mouseover" end="reset.mouseout"/>
                       </use>
               </g>
        </defs>

<script type="text/javascript">
var viewWidth = 1663;
var viewHeight = 368;
var sectionId = 'dynsection-1';
</script>
<script xlink:href="svgpan.js"/>
<svg id="graph" class="graph">
<g id="viewport">
<title>src/CInterface.h</title>
<polygon fill="white" stroke="white" points="-4,4 -4,-364 1659,-364 1659,4 -4,4"/>
<!-- Node1 -->
<g id="node1" class="node"><title>Node1</title>
<polygon fill="#bfbfbf" stroke="black" points="814.5,-340.5 814.5,-359.5 901.5,-359.5 901.5,-340.5 814.5,-340.5"/>
<text text-anchor="middle" x="858" y="-347.5" font-family="Helvetica,sans-Serif" font-size="10.00">src/CInterface.h</text>
</g>
<!-- Node2 -->
<g id="node2" class="node"><title>Node2</title>
<g id="a_node2"><a xlink:href="CFluido_8cpp.xhtml" target="_top" xlink:title="src/CFluido.cpp">
<polygon fill="white" stroke="black" points="0,-278.5 0,-297.5 86,-297.5 86,-278.5 0,-278.5"/>
<text text-anchor="middle" x="43" y="-285.5" font-family="Helvetica,sans-Serif" font-size="10.00">src/CFluido.cpp</text>
</a>
</g>
</g>
<!-- Node1&#45;&gt;Node2 -->
<g id="edge1" class="edge"><title>Node1&#45;&gt;Node2</title>
<path fill="none" stroke="midnightblue" d="M804.075,-347.376C653.675,-342.599 231.661,-327.441 95,-304 86.2024,-302.491 76.7733,-300.036 68.393,-297.546"/>
<polygon fill="midnightblue" stroke="midnightblue" points="804.322,-350.885 814.427,-347.702 804.542,-343.889 804.322,-350.885"/>
</g>
<!-- Node3 -->
<g id="node3" class="node"><title>Node3</title>
<g id="a_node3"><a xlink:href="CFuncaoAdsorcao_8cpp.xhtml" target="_top" xlink:title="src/CFuncaoAdsorcao.cpp">
<polygon fill="white" stroke="black" points="104.5,-278.5 104.5,-297.5 237.5,-297.5 237.5,-278.5 104.5,-278.5"/>
<text text-anchor="middle" x="171" y="-285.5" font-family="Helvetica,sans-Serif" font-size="10.00">src/CFuncaoAdsorcao.cpp</text>
</a>
</g>
</g>
<!-- Node1&#45;&gt;Node3 -->
<g id="edge2" class="edge"><title>Node1&#45;&gt;Node3</title>
<path fill="none" stroke="midnightblue" d="M804.291,-347.235C697.645,-343.248 451.786,-331.647 247,-304 234.738,-302.345 221.474,-299.942 209.512,-297.543"/>
<polygon fill="midnightblue" stroke="midnightblue" points="804.353,-350.74 814.475,-347.608 804.61,-343.744 804.353,-350.74"/>
</g>
<!-- Node4 -->
<g id="node4" class="node"><title>Node4</title>
<g id="a_node4"><a xlink:href="CFuncaoCondutividade_8cpp.xhtml" target="_top" xlink:title="src/CFuncaoCondutividade.cpp">
<polygon fill="white" stroke="black" points="256,-278.5 256,-297.5 410,-297.5 410,-278.5 256,-278.5"/>
<text text-anchor="middle" x="333" y="-285.5" font-family="Helvetica,sans-Serif" font-size="10.00">src/CFuncaoCondutividade.cpp</text>
</a>
</g>
</g>
<!-- Node1&#45;&gt;Node4 -->
<g id="edge3" class="edge"><title>Node1&#45;&gt;Node4</title>
<path fill="none" stroke="midnightblue" d="M804.069,-344.705C721.11,-337.82 557.281,-323.122 419,-304 405.788,-302.173 391.498,-299.83 378.431,-297.541"/>
<polygon fill="midnightblue" stroke="midnightblue" points="804.007,-348.212 814.261,-345.545 804.582,-341.235 804.007,-348.212"/>
</g>
<!-- Node5 -->
<g id="node5" class="node"><title>Node5</title>
<g id="a_node5"><a xlink:href="CFuncaoDifusividade_8cpp.xhtml" target="_top" xlink:title="src/CFuncaoDifusividade.cpp">
<polygon fill="white" stroke="black" points="428,-278.5 428,-297.5 574,-297.5 574,-278.5 428,-278.5"/>
<text text-anchor="middle" x="501" y="-285.5" font-family="Helvetica,sans-Serif" font-size="10.00">src/CFuncaoDifusividade.cpp</text>
</a>
</g>
</g>
<!-- Node1&#45;&gt;Node5 -->
<g id="edge4" class="edge"><title>Node1&#45;&gt;Node5</title>
<path fill="none" stroke="midnightblue" d="M804.181,-340.499C748.707,-331.664 659.736,-317.296 583,-304 571.307,-301.974 558.691,-299.707 546.944,-297.561"/>
<polygon fill="midnightblue" stroke="midnightblue" points="803.714,-343.968 814.139,-342.082 804.813,-337.055 803.714,-343.968"/>
</g>
<!-- Node6 -->
<g id="node6" class="node"><title>Node6</title>
<g id="a_node6"><a xlink:href="CFuncoesClima_8cpp.xhtml" target="_top" xlink:title="src/CFuncoesClima.cpp">
<polygon fill="white" stroke="black" points="592,-278.5 592,-297.5 714,-297.5 714,-278.5 592,-278.5"/>
<text text-anchor="middle" x="653" y="-285.5" font-family="Helvetica,sans-Serif" font-size="10.00">src/CFuncoesClima.cpp</text>
</a>
</g>
</g>
<!-- Node1&#45;&gt;Node6 -->
<g id="edge5" class="edge"><title>Node1&#45;&gt;Node6</title>
<path fill="none" stroke="midnightblue" d="M818.984,-337.581C779.151,-325.922 718.218,-308.088 682.317,-297.581"/>
<polygon fill="midnightblue" stroke="midnightblue" points="818.048,-340.953 828.628,-340.403 820.014,-334.235 818.048,-340.953"/>
</g>
<!-- Node7 -->
<g id="node7" class="node"><title>Node7</title>
<g id="a_node7"><a xlink:href="CInterface_8cpp.xhtml" target="_top" xlink:title="src/CInterface.cpp">
<polygon fill="white" stroke="black" points="732,-278.5 732,-297.5 830,-297.5 830,-278.5 732,-278.5"/>
<text text-anchor="middle" x="781" y="-285.5" font-family="Helvetica,sans-Serif" font-size="10.00">src/CInterface.cpp</text>
</a>
</g>
</g>
<!-- Node1&#45;&gt;Node7 -->
<g id="edge6" class="edge"><title>Node1&#45;&gt;Node7</title>
<path fill="none" stroke="midnightblue" d="M838.968,-334.17C824.198,-322.661 804.239,-307.109 792.012,-297.581"/>
<polygon fill="midnightblue" stroke="midnightblue" points="836.928,-337.018 846.968,-340.403 841.231,-331.496 836.928,-337.018"/>
</g>
<!-- Node8 -->
<g id="node8" class="node"><title>Node8</title>
<g id="a_node8"><a xlink:href="CInterface__SimuladorTelha_8h.xhtml" target="_top" xlink:title="src/CInterface_Simulador\lTelha.h">
<polygon fill="white" stroke="black" points="813,-69 813,-99 941,-99 941,-69 813,-69"/>
<text text-anchor="start" x="821" y="-87" font-family="Helvetica,sans-Serif" font-size="10.00">src/CInterface_Simulador</text>
<text text-anchor="middle" x="877" y="-76" font-family="Helvetica,sans-Serif" font-size="10.00">Telha.h</text>
</a>
</g>
</g>
<!-- Node1&#45;&gt;Node8 -->
<g id="edge7" class="edge"><title>Node1&#45;&gt;Node8</title>
<path fill="none" stroke="midnightblue" d="M855.502,-330.291C852.197,-302.617 847.306,-249.171 852,-204 855.993,-165.574 867.052,-121.276 873.035,-99.1369"/>
<polygon fill="midnightblue" stroke="midnightblue" points="852.063,-330.992 856.789,-340.475 859.007,-330.115 852.063,-330.992"/>
</g>
<!-- Node11 -->
<g id="node11" class="node"><title>Node11</title>
<g id="a_node11"><a xlink:href="CMeioPoroso__Telha__Discretizada__TDMA_8h.xhtml" target="_top" xlink:title="src/CMeioPoroso_Telha\l_Discretizada_TDMA.h">
<polygon fill="white" stroke="black" points="1014,-273 1014,-303 1136,-303 1136,-273 1014,-273"/>
<text text-anchor="start" x="1022" y="-291" font-family="Helvetica,sans-Serif" font-size="10.00">src/CMeioPoroso_Telha</text>
<text text-anchor="middle" x="1075" y="-280" font-family="Helvetica,sans-Serif" font-size="10.00">_Discretizada_TDMA.h</text>
</a>
</g>
</g>
<!-- Node1&#45;&gt;Node11 -->
<g id="edge10" class="edge"><title>Node1&#45;&gt;Node11</title>
<path fill="none" stroke="midnightblue" d="M899.122,-337.63C934.666,-327.802 986.179,-313.559 1024.28,-303.025"/>
<polygon fill="midnightblue" stroke="midnightblue" points="897.796,-334.365 889.091,-340.403 899.662,-341.112 897.796,-334.365"/>
</g>
<!-- Node15 -->
<g id="node15" class="node"><title>Node15</title>
<g id="a_node15"><a xlink:href="CSimulador__Telha_8cpp.xhtml" target="_top" xlink:title="src/CSimulador_Telha.cpp">
<polygon fill="white" stroke="black" points="1206,-142.5 1206,-161.5 1338,-161.5 1338,-142.5 1206,-142.5"/>
<text text-anchor="middle" x="1272" y="-149.5" font-family="Helvetica,sans-Serif" font-size="10.00">src/CSimulador_Telha.cpp</text>
</a>
</g>
</g>
<!-- Node1&#45;&gt;Node15 -->
<g id="edge22" class="edge"><title>Node1&#45;&gt;Node15</title>
<path fill="none" stroke="midnightblue" d="M911.947,-348.393C976.298,-346.085 1086.19,-337.077 1174,-304 1225.68,-284.532 1251.72,-284.574 1278,-236 1291.13,-211.729 1281.33,-177.472 1275.5,-161.641"/>
<polygon fill="midnightblue" stroke="midnightblue" points="911.52,-344.905 901.635,-348.719 911.741,-351.901 911.52,-344.905"/>
</g>
<!-- Node16 -->
<g id="node16" class="node"><title>Node16</title>
<g id="a_node16"><a xlink:href="CMeioPoroso__Telha__Discretizada__TDMA_8cpp.xhtml" target="_top" xlink:title="src/CMeioPoroso_Telha\l_Discretizada_TDMA.cpp">
<polygon fill="white" stroke="black" points="1140.5,-205 1140.5,-235 1269.5,-235 1269.5,-205 1140.5,-205"/>
<text text-anchor="start" x="1148.5" y="-223" font-family="Helvetica,sans-Serif" font-size="10.00">src/CMeioPoroso_Telha</text>
<text text-anchor="middle" x="1205" y="-212" font-family="Helvetica,sans-Serif" font-size="10.00">_Discretizada_TDMA.cpp</text>
</a>
</g>
</g>
<!-- Node1&#45;&gt;Node16 -->
<g id="edge21" class="edge"><title>Node1&#45;&gt;Node16</title>
<path fill="none" stroke="midnightblue" d="M911.912,-345.483C983.929,-339.956 1106.89,-327.375 1145,-304 1171.83,-287.545 1190.24,-254.167 1199.05,-235.133"/>
<polygon fill="midnightblue" stroke="midnightblue" points="911.384,-342.012 901.672,-346.247 911.905,-348.993 911.384,-342.012"/>
</g>
<!-- Node17 -->
<g id="node17" class="node"><title>Node17</title>
<g id="a_node17"><a xlink:href="CSolver__TDMA_8h.xhtml" target="_top" xlink:title="src/CSolver_TDMA.h">
<polygon fill="white" stroke="black" points="886,-278.5 886,-297.5 996,-297.5 996,-278.5 886,-278.5"/>
<text text-anchor="middle" x="941" y="-285.5" font-family="Helvetica,sans-Serif" font-size="10.00">src/CSolver_TDMA.h</text>
</a>
</g>
</g>
<!-- Node1&#45;&gt;Node17 -->
<g id="edge17" class="edge"><title>Node1&#45;&gt;Node17</title>
<path fill="none" stroke="midnightblue" d="M878.07,-334.492C894.033,-322.952 915.827,-307.198 929.13,-297.581"/>
<polygon fill="midnightblue" stroke="midnightblue" points="875.946,-331.708 869.892,-340.403 880.047,-337.381 875.946,-331.708"/>
</g>
<!-- Node19 -->
<g id="node19" class="node"><title>Node19</title>
<g id="a_node19"><a xlink:href="CMeioPoroso__Telha_8cpp.xhtml" target="_top" xlink:title="src/CMeioPoroso_Telha.cpp">
<polygon fill="white" stroke="black" points="1326,-278.5 1326,-297.5 1466,-297.5 1466,-278.5 1326,-278.5"/>
<text text-anchor="middle" x="1396" y="-285.5" font-family="Helvetica,sans-Serif" font-size="10.00">src/CMeioPoroso_Telha.cpp</text>
</a>
</g>
</g>
<!-- Node1&#45;&gt;Node19 -->
<g id="edge20" class="edge"><title>Node1&#45;&gt;Node19</title>
<path fill="none" stroke="midnightblue" d="M911.845,-345.029C997.02,-338.44 1167.96,-323.968 1312,-304 1325.06,-302.19 1339.19,-299.825 1352.07,-297.51"/>
<polygon fill="midnightblue" stroke="midnightblue" points="911.346,-341.557 901.643,-345.812 911.881,-348.536 911.346,-341.557"/>
</g>
<!-- Node20 -->
<g id="node20" class="node"><title>Node20</title>
<g id="a_node20"><a xlink:href="CTransferenciaCalorMassa_8cpp.xhtml" target="_top" xlink:title="src/CTransferenciaCalorMassa.cpp">
<polygon fill="white" stroke="black" points="1484.5,-278.5 1484.5,-297.5 1655.5,-297.5 1655.5,-278.5 1484.5,-278.5"/>
<text text-anchor="middle" x="1570" y="-285.5" font-family="Helvetica,sans-Serif" font-size="10.00">src/CTransferenciaCalorMassa.cpp</text>
</a>
</g>
</g>
<!-- Node1&#45;&gt;Node20 -->
<g id="edge23" class="edge"><title>Node1&#45;&gt;Node20</title>
<path fill="none" stroke="midnightblue" d="M911.749,-346.598C1019.07,-341.467 1267.45,-327.912 1475,-304 1489.93,-302.28 1506.1,-299.916 1520.8,-297.572"/>
<polygon fill="midnightblue" stroke="midnightblue" points="911.327,-343.114 901.504,-347.083 911.658,-350.106 911.327,-343.114"/>
</g>
<!-- Node9 -->
<g id="node9" class="node"><title>Node9</title>
<g id="a_node9"><a xlink:href="CInterface__SimuladorTelha_8cpp.xhtml" target="_top" xlink:title="src/CInterface_Simulador\lTelha.cpp">
<polygon fill="white" stroke="black" points="754,-1 754,-31 882,-31 882,-1 754,-1"/>
<text text-anchor="start" x="762" y="-19" font-family="Helvetica,sans-Serif" font-size="10.00">src/CInterface_Simulador</text>
<text text-anchor="middle" x="818" y="-8" font-family="Helvetica,sans-Serif" font-size="10.00">Telha.cpp</text>
</a>
</g>
</g>
<!-- Node8&#45;&gt;Node9 -->
<g id="edge8" class="edge"><title>Node8&#45;&gt;Node9</title>
<path fill="none" stroke="midnightblue" d="M857.507,-61.1939C848.716,-51.3605 838.581,-40.0228 830.777,-31.2931"/>
<polygon fill="midnightblue" stroke="midnightblue" points="854.924,-63.5562 864.198,-68.679 860.143,-58.891 854.924,-63.5562"/>
</g>
<!-- Node10 -->
<g id="node10" class="node"><title>Node10</title>
<g id="a_node10"><a xlink:href="main_8cpp.xhtml" target="_top" xlink:title="src/main.cpp">
<polygon fill="white" stroke="black" points="900.5,-6.5 900.5,-25.5 973.5,-25.5 973.5,-6.5 900.5,-6.5"/>
<text text-anchor="middle" x="937" y="-13.5" font-family="Helvetica,sans-Serif" font-size="10.00">src/main.cpp</text>
</a>
</g>
</g>
<!-- Node8&#45;&gt;Node10 -->
<g id="edge9" class="edge"><title>Node8&#45;&gt;Node10</title>
<path fill="none" stroke="midnightblue" d="M896.849,-61.1658C907.801,-49.119 920.799,-34.8216 928.974,-25.8283"/>
<polygon fill="midnightblue" stroke="midnightblue" points="894.156,-58.9252 890.019,-68.679 899.336,-63.6339 894.156,-58.9252"/>
</g>
<!-- Node12 -->
<g id="node12" class="node"><title>Node12</title>
<g id="a_node12"><a xlink:href="CSimulador__Telha_8h.xhtml" target="_top" xlink:title="src/CSimulador_Telha.h">
<polygon fill="white" stroke="black" points="1000,-210.5 1000,-229.5 1122,-229.5 1122,-210.5 1000,-210.5"/>
<text text-anchor="middle" x="1061" y="-217.5" font-family="Helvetica,sans-Serif" font-size="10.00">src/CSimulador_Telha.h</text>
</a>
</g>
</g>
<!-- Node11&#45;&gt;Node12 -->
<g id="edge11" class="edge"><title>Node11&#45;&gt;Node12</title>
<path fill="none" stroke="midnightblue" d="M1069.85,-262.729C1067.41,-251.236 1064.65,-238.222 1062.87,-229.828"/>
<polygon fill="midnightblue" stroke="midnightblue" points="1066.46,-263.623 1071.96,-272.679 1073.31,-262.17 1066.46,-263.623"/>
</g>
<!-- Node11&#45;&gt;Node16 -->
<g id="edge16" class="edge"><title>Node11&#45;&gt;Node16</title>
<path fill="none" stroke="midnightblue" d="M1112.04,-268.197C1132.75,-257.68 1158.15,-244.787 1177.16,-235.135"/>
<polygon fill="midnightblue" stroke="midnightblue" points="1110.22,-265.194 1102.89,-272.841 1113.39,-271.435 1110.22,-265.194"/>
</g>
<!-- Node13 -->
<g id="node13" class="node"><title>Node13</title>
<g id="a_node13"><a xlink:href="CSimulador__Telha__GanhosEnergia_8h.xhtml" target="_top" xlink:title="src/CSimulador_Telha\l_GanhosEnergia.h">
<polygon fill="white" stroke="black" points="981.5,-137 981.5,-167 1094.5,-167 1094.5,-137 981.5,-137"/>
<text text-anchor="start" x="989.5" y="-155" font-family="Helvetica,sans-Serif" font-size="10.00">src/CSimulador_Telha</text>
<text text-anchor="middle" x="1038" y="-144" font-family="Helvetica,sans-Serif" font-size="10.00">_GanhosEnergia.h</text>
</a>
</g>
</g>
<!-- Node12&#45;&gt;Node13 -->
<g id="edge12" class="edge"><title>Node12&#45;&gt;Node13</title>
<path fill="none" stroke="midnightblue" d="M1054.67,-200.84C1050.97,-190.227 1046.37,-177.026 1042.94,-167.181"/>
<polygon fill="midnightblue" stroke="midnightblue" points="1051.4,-202.08 1057.99,-210.372 1058.01,-199.777 1051.4,-202.08"/>
</g>
<!-- Node12&#45;&gt;Node15 -->
<g id="edge15" class="edge"><title>Node12&#45;&gt;Node15</title>
<path fill="none" stroke="midnightblue" d="M1098.16,-207.377C1140.11,-194.254 1207.38,-173.214 1244.74,-161.526"/>
<polygon fill="midnightblue" stroke="midnightblue" points="1097.08,-204.046 1088.58,-210.372 1099.17,-210.727 1097.08,-204.046"/>
</g>
<!-- Node13&#45;&gt;Node8 -->
<g id="edge13" class="edge"><title>Node13&#45;&gt;Node8</title>
<path fill="none" stroke="midnightblue" d="M994.166,-133.031C968.057,-122.328 935.403,-108.942 911.205,-99.0218"/>
<polygon fill="midnightblue" stroke="midnightblue" points="992.881,-136.287 1003.46,-136.841 995.536,-129.81 992.881,-136.287"/>
</g>
<!-- Node14 -->
<g id="node14" class="node"><title>Node14</title>
<g id="a_node14"><a xlink:href="CSimulador__Telha__GanhosEnergia_8cpp.xhtml" target="_top" xlink:title="src/CSimulador_Telha\l_GanhosEnergia.cpp">
<polygon fill="white" stroke="black" points="981.5,-69 981.5,-99 1094.5,-99 1094.5,-69 981.5,-69"/>
<text text-anchor="start" x="989.5" y="-87" font-family="Helvetica,sans-Serif" font-size="10.00">src/CSimulador_Telha</text>
<text text-anchor="middle" x="1038" y="-76" font-family="Helvetica,sans-Serif" font-size="10.00">_GanhosEnergia.cpp</text>
</a>
</g>
</g>
<!-- Node13&#45;&gt;Node14 -->
<g id="edge14" class="edge"><title>Node13&#45;&gt;Node14</title>
<path fill="none" stroke="midnightblue" d="M1038,-126.532C1038,-117.361 1038,-107.245 1038,-99.2931"/>
<polygon fill="midnightblue" stroke="midnightblue" points="1034.5,-126.679 1038,-136.679 1041.5,-126.679 1034.5,-126.679"/>
</g>
<!-- Node17&#45;&gt;Node12 -->
<g id="edge18" class="edge"><title>Node17&#45;&gt;Node12</title>
<path fill="none" stroke="midnightblue" d="M965.518,-273.515C989.406,-260.377 1025,-240.798 1045.31,-229.63"/>
<polygon fill="midnightblue" stroke="midnightblue" points="963.763,-270.486 956.688,-278.372 967.137,-276.619 963.763,-270.486"/>
</g>
<!-- Node18 -->
<g id="node18" class="node"><title>Node18</title>
<g id="a_node18"><a xlink:href="CSolver__TDMA_8cpp.xhtml" target="_top" xlink:title="src/CSolver_TDMA.cpp">
<polygon fill="white" stroke="black" points="860.5,-210.5 860.5,-229.5 981.5,-229.5 981.5,-210.5 860.5,-210.5"/>
<text text-anchor="middle" x="921" y="-217.5" font-family="Helvetica,sans-Serif" font-size="10.00">src/CSolver_TDMA.cpp</text>
</a>
</g>
</g>
<!-- Node17&#45;&gt;Node18 -->
<g id="edge19" class="edge"><title>Node17&#45;&gt;Node18</title>
<path fill="none" stroke="midnightblue" d="M935.371,-268.425C931.545,-255.798 926.655,-239.662 923.679,-229.841"/>
<polygon fill="midnightblue" stroke="midnightblue" points="932.136,-269.816 938.385,-278.372 938.835,-267.786 932.136,-269.816"/>
</g>
</g>
</svg>
        <g id="navigator" transform="translate(0 0)" fill="#404254">
                <rect fill="#f2f5e9" fill-opacity="0.5" stroke="#606060" stroke-width=".5" x="0" y="0" width="60" height="60"/>
                <use id="zoomplus" xlink:href="#zoomPlus" x="17" y="9" onmousedown="handleZoom(evt,'in')"/>
                <use id="zoomminus" xlink:href="#zoomMin" x="42" y="9" onmousedown="handleZoom(evt,'out')"/>
                <use id="reset" xlink:href="#resetDef" x="30" y="36" onmousedown="handleReset()"/>
                <g id="arrowUp" xlink:href="#dirArrow" transform="translate(30 24)" onmousedown="handlePan(0,-1)">
                  <use xlink:href="#rim" fill="#404040">
                        <set attributeName="fill" to="#808080" begin="arrowUp.mouseover" end="arrowUp.mouseout"/>
                  </use>
                  <path fill="none" stroke="white" stroke-width="1.5" d="M0,-3.0v7 M-2.5,-0.5L0,-3.0L2.5,-0.5"/>
                </g>
                <g id="arrowRight" xlink:href="#dirArrow" transform="rotate(90) translate(36 -43)" onmousedown="handlePan(1,0)">
                  <use xlink:href="#rim" fill="#404040">
                        <set attributeName="fill" to="#808080" begin="arrowRight.mouseover" end="arrowRight.mouseout"/>
                  </use>
                  <path fill="none" stroke="white" stroke-width="1.5" d="M0,-3.0v7 M-2.5,-0.5L0,-3.0L2.5,-0.5"/>
                </g>
                <g id="arrowDown" xlink:href="#dirArrow" transform="rotate(180) translate(-30 -48)" onmousedown="handlePan(0,1)">
                  <use xlink:href="#rim" fill="#404040">
                        <set attributeName="fill" to="#808080" begin="arrowDown.mouseover" end="arrowDown.mouseout"/>
                  </use>
                  <path fill="none" stroke="white" stroke-width="1.5" d="M0,-3.0v7 M-2.5,-0.5L0,-3.0L2.5,-0.5"/>
                </g>
                <g id="arrowLeft" xlink:href="#dirArrow" transform="rotate(270) translate(-36 17)" onmousedown="handlePan(-1,0)">
                  <use xlink:href="#rim" fill="#404040">
                        <set attributeName="fill" to="#808080" begin="arrowLeft.mouseover" end="arrowLeft.mouseout"/>
                  </use>
                  <path fill="none" stroke="white" stroke-width="1.5" d="M0,-3.0v7 M-2.5,-0.5L0,-3.0L2.5,-0.5"/>
                </g>
        </g>
        <svg viewBox="0 0 15 15" width="100%" height="30px" preserveAspectRatio="xMaxYMin meet">
         <g id="arrow_out" transform="scale(0.3 0.3)">
          <a xlink:href="CInterface_8h__dep__incl_org.svg" target="_base">
           <rect id="button" ry="5" rx="5" y="6" x="6" height="38" width="38"
                fill="#f2f5e9" fill-opacity="0.5" stroke="#606060" stroke-width="1.0"/>
           <path id="arrow"
             d="M 11.500037,31.436501 C 11.940474,20.09759 22.043105,11.32322 32.158766,21.979434 L 37.068811,17.246167 C 37.068811,17.246167 37.088388,32 37.088388,32 L 22.160133,31.978069 C 22.160133,31.978069 26.997745,27.140456 26.997745,27.140456 C 18.528582,18.264221 13.291696,25.230495 11.500037,31.436501 z"
             style="fill:#404040;"/>
          </a>
         </g>
        </svg>
</svg>
