<?xml version="1.0" encoding="UTF-8" standalone="no"?>
<!DOCTYPE svg PUBLIC "-//W3C//DTD SVG 1.1//EN"
 "http://www.w3.org/Graphics/SVG/1.1/DTD/svg11.dtd">
<!-- Generated by graphviz version 2.34.0 (20140110.0949)
 -->
<!-- Title: src/CInterface_SimuladorTelha.h Pages: 1 -->
<svg width="227pt" height="108pt"
 viewBox="0.00 0.00 227.00 108.00" xmlns="http://www.w3.org/2000/svg" xmlns:xlink="http://www.w3.org/1999/xlink">
<g id="graph0" class="graph" transform="scale(1 1) rotate(0) translate(4 104)">
<title>src/CInterface_SimuladorTelha.h</title>
<polygon fill="white" stroke="white" points="-4,4 -4,-104 223,-104 223,4 -4,4"/>
<!-- Node1 -->
<g id="node1" class="node"><title>Node1</title>
<polygon fill="#bfbfbf" stroke="black" points="59,-69 59,-99 187,-99 187,-69 59,-69"/>
<text text-anchor="start" x="67" y="-87" font-family="Helvetica,sans-Serif" font-size="10.00">src/CInterface_Simulador</text>
<text text-anchor="middle" x="123" y="-76" font-family="Helvetica,sans-Serif" font-size="10.00">Telha.h</text>
</g>
<!-- Node2 -->
<g id="node2" class="node"><title>Node2</title>
<g id="a_node2"><a xlink:href="CInterface__SimuladorTelha_8cpp.xhtml" target="_top" xlink:title="src/CInterface_Simulador\lTelha.cpp">
<polygon fill="white" stroke="black" points="0,-1 0,-31 128,-31 128,-1 0,-1"/>
<text text-anchor="start" x="8" y="-19" font-family="Helvetica,sans-Serif" font-size="10.00">src/CInterface_Simulador</text>
<text text-anchor="middle" x="64" y="-8" font-family="Helvetica,sans-Serif" font-size="10.00">Telha.cpp</text>
</a>
</g>
</g>
<!-- Node1&#45;&gt;Node2 -->
<g id="edge1" class="edge"><title>Node1&#45;&gt;Node2</title>
<path fill="none" stroke="midnightblue" d="M103.507,-61.1939C94.7162,-51.3605 84.5809,-40.0228 76.7771,-31.2931"/>
<polygon fill="midnightblue" stroke="midnightblue" points="100.924,-63.5562 110.198,-68.679 106.143,-58.891 100.924,-63.5562"/>
</g>
<!-- Node3 -->
<g id="node3" class="node"><title>Node3</title>
<g id="a_node3"><a xlink:href="main_8cpp.xhtml" target="_top" xlink:title="src/main.cpp">
<polygon fill="white" stroke="black" points="146.5,-6.5 146.5,-25.5 219.5,-25.5 219.5,-6.5 146.5,-6.5"/>
<text text-anchor="middle" x="183" y="-13.5" font-family="Helvetica,sans-Serif" font-size="10.00">src/main.cpp</text>
</a>
</g>
</g>
<!-- Node1&#45;&gt;Node3 -->
<g id="edge2" class="edge"><title>Node1&#45;&gt;Node3</title>
<path fill="none" stroke="midnightblue" d="M142.849,-61.1658C153.801,-49.119 166.799,-34.8216 174.974,-25.8283"/>
<polygon fill="midnightblue" stroke="midnightblue" points="140.156,-58.9252 136.019,-68.679 145.336,-63.6339 140.156,-58.9252"/>
</g>
</g>
</svg>
