<?xml version="1.0" encoding="UTF-8" standalone="no"?>
<!DOCTYPE svg PUBLIC "-//W3C//DTD SVG 1.1//EN"
 "http://www.w3.org/Graphics/SVG/1.1/DTD/svg11.dtd">
<!-- Generated by graphviz version 2.34.0 (20140110.0949)
 -->
<!-- Title: src/CInterface_SimuladorTelha.cpp Pages: 1 -->
<!--zoomable 444 -->
<svg id="main" version="1.1" xmlns="http://www.w3.org/2000/svg" xmlns:xlink="http://www.w3.org/1999/xlink" xml:space="preserve" onload="init(evt)">
<style type="text/css"><![CDATA[
.edge:hover path { stroke: red; }
.edge:hover polygon { stroke: red; fill: red; }
]]></style>
<script type="text/javascript"><![CDATA[
var edges = document.getElementsByTagName('g');
if (edges && edges.length) {
  for (var i=0;i<edges.length;i++) {
    if (edges[i].id.substr(0,4)=='edge') {
      edges[i].setAttribute('class','edge');
    }
  }
}
]]></script>
        <defs>
                <circle id="rim" cx="0" cy="0" r="7"/>
                <circle id="rim2" cx="0" cy="0" r="3.5"/>
                <g id="zoomPlus">
                        <use xlink:href="#rim" fill="#404040">
                                <set attributeName="fill" to="#808080" begin="zoomplus.mouseover" end="zoomplus.mouseout"/>
                        </use>
                        <path d="M-4,0h8M0,-4v8" fill="none" stroke="white" stroke-width="1.5" pointer-events="none"/>
                </g>
                <g id="zoomMin">
                        <use xlink:href="#rim" fill="#404040">
                                <set attributeName="fill" to="#808080" begin="zoomminus.mouseover" end="zoomminus.mouseout"/>
                        </use>
                        <path d="M-4,0h8" fill="none" stroke="white" stroke-width="1.5" pointer-events="none"/>
                </g>
                <g id="dirArrow">
                        <path fill="none" stroke="white" stroke-width="1.5" d="M0,-3.0v7 M-2.5,-0.5L0,-3.0L2.5,-0.5"/>
                </g>
               <g id="resetDef">
                       <use xlink:href="#rim2" fill="#404040">
                               <set attributeName="fill" to="#808080" begin="reset.mouseover" end="reset.mouseout"/>
                       </use>
               </g>
        </defs>

<script type="text/javascript">
var viewWidth = 1132;
var viewHeight = 444;
var sectionId = 'dynsection-0';
</script>
<script xlink:href="svgpan.js"/>
<svg id="graph" class="graph">
<g id="viewport">
<title>src/CInterface_SimuladorTelha.cpp</title>
<polygon fill="white" stroke="white" points="-4,4 -4,-440 1128.11,-440 1128.11,4 -4,4"/>
<!-- Node1 -->
<g id="node1" class="node"><title>Node1</title>
<polygon fill="#bfbfbf" stroke="black" points="13.1141,-405 13.1141,-435 141.114,-435 141.114,-405 13.1141,-405"/>
<text text-anchor="start" x="21.1141" y="-423" font-family="Helvetica,sans-Serif" font-size="10.00">src/CInterface_Simulador</text>
<text text-anchor="middle" x="77.1141" y="-412" font-family="Helvetica,sans-Serif" font-size="10.00">Telha.cpp</text>
</g>
<!-- Node2 -->
<g id="node2" class="node"><title>Node2</title>
<polygon fill="white" stroke="#bfbfbf" points="38.1141,-292.5 38.1141,-311.5 88.1141,-311.5 88.1141,-292.5 38.1141,-292.5"/>
<text text-anchor="middle" x="63.1141" y="-299.5" font-family="Helvetica,sans-Serif" font-size="10.00">fstream</text>
</g>
<!-- Node1&#45;&gt;Node2 -->
<g id="edge1" class="edge"><title>Node1&#45;&gt;Node2</title>
<path fill="none" stroke="midnightblue" d="M75.0415,-404.725C73.5857,-394.508 71.6348,-380.419 70.1141,-368 68.2149,-352.49 66.334,-334.864 65.0009,-321.882"/>
<polygon fill="midnightblue" stroke="midnightblue" points="68.4738,-321.437 63.9837,-311.841 61.5094,-322.143 68.4738,-321.437"/>
</g>
<!-- Node3 -->
<g id="node3" class="node"><title>Node3</title>
<polygon fill="white" stroke="#bfbfbf" points="654.114,-0.5 654.114,-19.5 708.114,-19.5 708.114,-0.5 654.114,-0.5"/>
<text text-anchor="middle" x="681.114" y="-7.5" font-family="Helvetica,sans-Serif" font-size="10.00">iostream</text>
</g>
<!-- Node1&#45;&gt;Node3 -->
<g id="edge2" class="edge"><title>Node1&#45;&gt;Node3</title>
<path fill="none" stroke="midnightblue" d="M59.8685,-404.853C37.4453,-384.754 1.11406,-345.615 1.11406,-303 1.11406,-303 1.11406,-303 1.11406,-121 1.11406,-90.9022 -3.34219,-74.8595 20.1141,-56 68.8258,-16.8343 511.353,-11.7361 643.819,-11.0893"/>
<polygon fill="midnightblue" stroke="midnightblue" points="643.9,-14.5891 653.885,-11.0459 643.87,-7.58913 643.9,-14.5891"/>
</g>
<!-- Node4 -->
<g id="node4" class="node"><title>Node4</title>
<polygon fill="white" stroke="#bfbfbf" points="79.1141,-348.5 79.1141,-367.5 129.114,-367.5 129.114,-348.5 79.1141,-348.5"/>
<text text-anchor="middle" x="104.114" y="-355.5" font-family="Helvetica,sans-Serif" font-size="10.00">iomanip</text>
</g>
<!-- Node1&#45;&gt;Node4 -->
<g id="edge3" class="edge"><title>Node1&#45;&gt;Node4</title>
<path fill="none" stroke="midnightblue" d="M83.5127,-404.781C87.2743,-396.422 92.0643,-385.777 96.0787,-376.856"/>
<polygon fill="midnightblue" stroke="midnightblue" points="99.2733,-378.286 100.185,-367.731 92.8899,-375.413 99.2733,-378.286"/>
</g>
<!-- Node5 -->
<g id="node5" class="node"><title>Node5</title>
<g id="a_node5"><a xlink:href="CInterface__SimuladorTelha_8h.xhtml" target="_top" xlink:title="CInterface_SimuladorTelha.h">
<polygon fill="white" stroke="black" points="147.614,-348.5 147.614,-367.5 290.614,-367.5 290.614,-348.5 147.614,-348.5"/>
<text text-anchor="middle" x="219.114" y="-355.5" font-family="Helvetica,sans-Serif" font-size="10.00">CInterface_SimuladorTelha.h</text>
</a>
</g>
</g>
<!-- Node1&#45;&gt;Node5 -->
<g id="edge4" class="edge"><title>Node1&#45;&gt;Node5</title>
<path fill="none" stroke="midnightblue" d="M110.407,-404.933C134.364,-394.81 166.39,-381.278 189.468,-371.527"/>
<polygon fill="midnightblue" stroke="midnightblue" points="190.911,-374.716 198.761,-367.6 188.187,-368.268 190.911,-374.716"/>
</g>
<!-- Node5&#45;&gt;Node2 -->
<g id="edge44" class="edge"><title>Node5&#45;&gt;Node2</title>
<path fill="none" stroke="midnightblue" d="M194.395,-348.444C168.266,-339.399 126.855,-325.064 97.5376,-314.916"/>
<polygon fill="midnightblue" stroke="midnightblue" points="98.3119,-311.48 87.7171,-311.516 96.022,-318.095 98.3119,-311.48"/>
</g>
<!-- Node5&#45;&gt;Node3 -->
<g id="edge43" class="edge"><title>Node5&#45;&gt;Node3</title>
<path fill="none" stroke="midnightblue" d="M290.884,-355.787C504.936,-351.224 1124.11,-330.787 1124.11,-247 1124.11,-247 1124.11,-247 1124.11,-121 1124.11,-37.6822 825.223,-17.0221 718.459,-12.3"/>
<polygon fill="midnightblue" stroke="midnightblue" points="718.297,-8.7902 708.159,-11.868 718.003,-15.7841 718.297,-8.7902"/>
</g>
<!-- Node6 -->
<g id="node6" class="node"><title>Node6</title>
<g id="a_node6"><a xlink:href="CInterface_8h.xhtml" target="_top" xlink:title="CInterface.h">
<polygon fill="white" stroke="black" points="229.614,-112.5 229.614,-131.5 300.614,-131.5 300.614,-112.5 229.614,-112.5"/>
<text text-anchor="middle" x="265.114" y="-119.5" font-family="Helvetica,sans-Serif" font-size="10.00">CInterface.h</text>
</a>
</g>
</g>
<!-- Node5&#45;&gt;Node6 -->
<g id="edge5" class="edge"><title>Node5&#45;&gt;Node6</title>
<path fill="none" stroke="midnightblue" d="M213.497,-348.372C195.959,-320.245 145.512,-229.481 182.114,-168 191.211,-152.721 207.502,-142.31 223.258,-135.386"/>
<polygon fill="midnightblue" stroke="midnightblue" points="224.947,-138.479 232.929,-131.512 222.345,-131.981 224.947,-138.479"/>
</g>
<!-- Node7 -->
<g id="node7" class="node"><title>Node7</title>
<g id="a_node7"><a xlink:href="CSimulador__Telha__GanhosEnergia_8h.xhtml" target="_top" xlink:title="CSimulador_Telha_GanhosEnergia.h">
<polygon fill="white" stroke="black" points="544.614,-292.5 544.614,-311.5 721.614,-311.5 721.614,-292.5 544.614,-292.5"/>
<text text-anchor="middle" x="633.114" y="-299.5" font-family="Helvetica,sans-Serif" font-size="10.00">CSimulador_Telha_GanhosEnergia.h</text>
</a>
</g>
</g>
<!-- Node5&#45;&gt;Node7 -->
<g id="edge7" class="edge"><title>Node5&#45;&gt;Node7</title>
<path fill="none" stroke="midnightblue" d="M284.714,-348.444C358.903,-338.767 479.511,-323.035 557.572,-312.853"/>
<polygon fill="midnightblue" stroke="midnightblue" points="558.358,-316.281 567.821,-311.516 557.453,-309.339 558.358,-316.281"/>
</g>
<!-- Node24 -->
<g id="node24" class="node"><title>Node24</title>
<polygon fill="white" stroke="#bfbfbf" points="204.614,-292.5 204.614,-311.5 233.614,-311.5 233.614,-292.5 204.614,-292.5"/>
<text text-anchor="middle" x="219.114" y="-299.5" font-family="Helvetica,sans-Serif" font-size="10.00">ios</text>
</g>
<!-- Node5&#45;&gt;Node24 -->
<g id="edge42" class="edge"><title>Node5&#45;&gt;Node24</title>
<path fill="none" stroke="midnightblue" d="M219.114,-348.083C219.114,-341.006 219.114,-330.861 219.114,-321.986"/>
<polygon fill="midnightblue" stroke="midnightblue" points="222.614,-321.751 219.114,-311.751 215.614,-321.751 222.614,-321.751"/>
</g>
<!-- Node6&#45;&gt;Node3 -->
<g id="edge6" class="edge"><title>Node6&#45;&gt;Node3</title>
<path fill="none" stroke="midnightblue" d="M261.434,-112.135C256.339,-98.2728 249.233,-71.4554 263.114,-56 288.377,-27.8711 546.573,-15.7969 644.092,-12.2158"/>
<polygon fill="midnightblue" stroke="midnightblue" points="644.224,-15.7133 654.092,-11.8578 643.974,-8.71783 644.224,-15.7133"/>
</g>
<!-- Node7&#45;&gt;Node3 -->
<g id="edge8" class="edge"><title>Node7&#45;&gt;Node3</title>
<path fill="none" stroke="midnightblue" d="M721.802,-296.261C853.681,-286.753 1086.11,-259.435 1086.11,-185 1086.11,-185 1086.11,-185 1086.11,-121 1086.11,-45.1769 818.405,-19.9349 718.296,-13.1464"/>
<polygon fill="midnightblue" stroke="midnightblue" points="718.523,-9.6539 708.316,-12.4936 718.066,-16.639 718.523,-9.6539"/>
</g>
<!-- Node8 -->
<g id="node8" class="node"><title>Node8</title>
<g id="a_node8"><a xlink:href="CSimulador__Telha_8h.xhtml" target="_top" xlink:title="CSimulador_Telha.h">
<polygon fill="white" stroke="black" points="580.614,-236.5 580.614,-255.5 685.614,-255.5 685.614,-236.5 580.614,-236.5"/>
<text text-anchor="middle" x="633.114" y="-243.5" font-family="Helvetica,sans-Serif" font-size="10.00">CSimulador_Telha.h</text>
</a>
</g>
</g>
<!-- Node7&#45;&gt;Node8 -->
<g id="edge9" class="edge"><title>Node7&#45;&gt;Node8</title>
<path fill="none" stroke="midnightblue" d="M633.114,-292.083C633.114,-285.006 633.114,-274.861 633.114,-265.986"/>
<polygon fill="midnightblue" stroke="midnightblue" points="636.614,-265.751 633.114,-255.751 629.614,-265.751 636.614,-265.751"/>
</g>
<!-- Node8&#45;&gt;Node3 -->
<g id="edge10" class="edge"><title>Node8&#45;&gt;Node3</title>
<path fill="none" stroke="midnightblue" d="M685.767,-242.204C742.758,-237.876 835.615,-227.003 911.114,-200 967.746,-179.745 998.117,-184.13 1028.11,-132 1063.02,-71.3453 986.212,-77.1441 927.114,-56 855.895,-30.5191 767.681,-18.8788 718.586,-14.0419"/>
<polygon fill="midnightblue" stroke="midnightblue" points="718.718,-10.5389 708.434,-13.0843 718.061,-17.5079 718.718,-10.5389"/>
</g>
<!-- Node9 -->
<g id="node9" class="node"><title>Node9</title>
<polygon fill="white" stroke="#bfbfbf" points="739.114,-112.5 739.114,-131.5 783.114,-131.5 783.114,-112.5 739.114,-112.5"/>
<text text-anchor="middle" x="761.114" y="-119.5" font-family="Helvetica,sans-Serif" font-size="10.00">vector</text>
</g>
<!-- Node8&#45;&gt;Node9 -->
<g id="edge11" class="edge"><title>Node8&#45;&gt;Node9</title>
<path fill="none" stroke="midnightblue" d="M671.78,-236.457C693.387,-229.843 719.272,-218.578 736.114,-200 750.687,-183.925 756.775,-159.237 759.312,-142.169"/>
<polygon fill="midnightblue" stroke="midnightblue" points="762.844,-142.116 760.562,-131.77 755.894,-141.281 762.844,-142.116"/>
</g>
<!-- Node10 -->
<g id="node10" class="node"><title>Node10</title>
<g id="a_node10"><a xlink:href="CMeioPoroso__Telha__Discretizada__TDMA_8h.xhtml" target="_top" xlink:title="CMeioPoroso_Telha_Discretizada\l_TDMA.h">
<polygon fill="white" stroke="black" points="191.614,-169 191.614,-199 356.614,-199 356.614,-169 191.614,-169"/>
<text text-anchor="start" x="199.614" y="-187" font-family="Helvetica,sans-Serif" font-size="10.00">CMeioPoroso_Telha_Discretizada</text>
<text text-anchor="middle" x="274.114" y="-176" font-family="Helvetica,sans-Serif" font-size="10.00">_TDMA.h</text>
</a>
</g>
</g>
<!-- Node8&#45;&gt;Node10 -->
<g id="edge12" class="edge"><title>Node8&#45;&gt;Node10</title>
<path fill="none" stroke="midnightblue" d="M582.059,-236.467C526.154,-227.124 435.34,-211.946 366.786,-200.488"/>
<polygon fill="midnightblue" stroke="midnightblue" points="367.28,-197.022 356.839,-198.826 366.126,-203.927 367.28,-197.022"/>
</g>
<!-- Node15 -->
<g id="node15" class="node"><title>Node15</title>
<g id="a_node15"><a xlink:href="CTransferenciaCalorMassa_8h.xhtml" target="_top" xlink:title="CTransferenciaCalorMassa.h">
<polygon fill="white" stroke="black" points="29.1141,-56.5 29.1141,-75.5 173.114,-75.5 173.114,-56.5 29.1141,-56.5"/>
<text text-anchor="middle" x="101.114" y="-63.5" font-family="Helvetica,sans-Serif" font-size="10.00">CTransferenciaCalorMassa.h</text>
</a>
</g>
</g>
<!-- Node8&#45;&gt;Node15 -->
<g id="edge23" class="edge"><title>Node8&#45;&gt;Node15</title>
<path fill="none" stroke="midnightblue" d="M580.361,-245.511C475.906,-245.605 247.217,-240.962 182.114,-200 139.52,-173.2 116.043,-115.057 106.402,-85.32"/>
<polygon fill="midnightblue" stroke="midnightblue" points="109.748,-84.292 103.466,-75.76 103.056,-86.3469 109.748,-84.292"/>
</g>
<!-- Node16 -->
<g id="node16" class="node"><title>Node16</title>
<g id="a_node16"><a xlink:href="CSolver__TDMA_8h.xhtml" target="_top" xlink:title="CSolver_TDMA.h">
<polygon fill="white" stroke="black" points="375.114,-174.5 375.114,-193.5 469.114,-193.5 469.114,-174.5 375.114,-174.5"/>
<text text-anchor="middle" x="422.114" y="-181.5" font-family="Helvetica,sans-Serif" font-size="10.00">CSolver_TDMA.h</text>
</a>
</g>
</g>
<!-- Node8&#45;&gt;Node16 -->
<g id="edge25" class="edge"><title>Node8&#45;&gt;Node16</title>
<path fill="none" stroke="midnightblue" d="M602.883,-236.403C565.827,-225.866 502.921,-207.978 461.95,-196.328"/>
<polygon fill="midnightblue" stroke="midnightblue" points="462.865,-192.949 452.289,-193.581 460.95,-199.682 462.865,-192.949"/>
</g>
<!-- Node17 -->
<g id="node17" class="node"><title>Node17</title>
<g id="a_node17"><a xlink:href="CFuncoesClima_8h.xhtml" target="_top" xlink:title="CFuncoesClima.h">
<polygon fill="white" stroke="black" points="750.614,-56.5 750.614,-75.5 845.614,-75.5 845.614,-56.5 750.614,-56.5"/>
<text text-anchor="middle" x="798.114" y="-63.5" font-family="Helvetica,sans-Serif" font-size="10.00">CFuncoesClima.h</text>
</a>
</g>
</g>
<!-- Node8&#45;&gt;Node17 -->
<g id="edge28" class="edge"><title>Node8&#45;&gt;Node17</title>
<path fill="none" stroke="midnightblue" d="M598.101,-236.445C579.18,-229.844 557.43,-218.594 546.114,-200 538.72,-187.851 539.207,-180.432 546.114,-168 568.993,-126.817 592.979,-130.942 636.114,-112 670.962,-96.6972 712.338,-85.309 744.551,-77.8175"/>
<polygon fill="midnightblue" stroke="midnightblue" points="745.69,-81.1481 754.668,-75.5221 744.142,-74.3215 745.69,-81.1481"/>
</g>
<!-- Node18 -->
<g id="node18" class="node"><title>Node18</title>
<g id="a_node18"><a xlink:href="CFluido_8h.xhtml" target="_top" xlink:title="CFluido.h">
<polygon fill="white" stroke="black" points="661.614,-112.5 661.614,-131.5 720.614,-131.5 720.614,-112.5 661.614,-112.5"/>
<text text-anchor="middle" x="691.114" y="-119.5" font-family="Helvetica,sans-Serif" font-size="10.00">CFluido.h</text>
</a>
</g>
</g>
<!-- Node8&#45;&gt;Node18 -->
<g id="edge30" class="edge"><title>Node8&#45;&gt;Node18</title>
<path fill="none" stroke="midnightblue" d="M667.299,-236.493C686.107,-229.877 707.857,-218.596 719.114,-200 730.799,-180.698 717.253,-155.753 705.257,-139.568"/>
<polygon fill="midnightblue" stroke="midnightblue" points="707.875,-137.236 698.923,-131.57 702.388,-141.582 707.875,-137.236"/>
</g>
<!-- Node19 -->
<g id="node19" class="node"><title>Node19</title>
<g id="a_node19"><a xlink:href="CFuncaoConteudoMassicoWl_8h.xhtml" target="_top" xlink:title="CFuncaoConteudoMassicoWl.h">
<polygon fill="white" stroke="black" points="555.614,-174.5 555.614,-193.5 710.614,-193.5 710.614,-174.5 555.614,-174.5"/>
<text text-anchor="middle" x="633.114" y="-181.5" font-family="Helvetica,sans-Serif" font-size="10.00">CFuncaoConteudoMassicoWl.h</text>
</a>
</g>
</g>
<!-- Node8&#45;&gt;Node19 -->
<g id="edge32" class="edge"><title>Node8&#45;&gt;Node19</title>
<path fill="none" stroke="midnightblue" d="M633.114,-236.403C633.114,-227.938 633.114,-214.728 633.114,-203.82"/>
<polygon fill="midnightblue" stroke="midnightblue" points="636.614,-203.581 633.114,-193.581 629.614,-203.581 636.614,-203.581"/>
</g>
<!-- Node20 -->
<g id="node20" class="node"><title>Node20</title>
<g id="a_node20"><a xlink:href="CGnuplot_8h.xhtml" target="_top" xlink:title="CGnuplot.h">
<polygon fill="white" stroke="black" points="836.114,-174.5 836.114,-193.5 902.114,-193.5 902.114,-174.5 836.114,-174.5"/>
<text text-anchor="middle" x="869.114" y="-181.5" font-family="Helvetica,sans-Serif" font-size="10.00">CGnuplot.h</text>
</a>
</g>
</g>
<!-- Node8&#45;&gt;Node20 -->
<g id="edge36" class="edge"><title>Node8&#45;&gt;Node20</title>
<path fill="none" stroke="midnightblue" d="M666.676,-236.467C708.558,-225.819 780.241,-207.595 826.108,-195.934"/>
<polygon fill="midnightblue" stroke="midnightblue" points="827.219,-199.263 836.048,-193.407 825.494,-192.479 827.219,-199.263"/>
</g>
<!-- Node10&#45;&gt;Node3 -->
<g id="edge13" class="edge"><title>Node10&#45;&gt;Node3</title>
<path fill="none" stroke="midnightblue" d="M252.014,-168.868C240.148,-159.908 226.648,-147.158 220.114,-132 205.607,-98.3437 221.419,-76.0261 252.114,-56 316.215,-14.1783 551.458,-10.4533 643.674,-10.6506"/>
<polygon fill="midnightblue" stroke="midnightblue" points="643.922,-14.1515 653.936,-10.6903 643.949,-7.1515 643.922,-14.1515"/>
</g>
<!-- Node10&#45;&gt;Node6 -->
<g id="edge14" class="edge"><title>Node10&#45;&gt;Node6</title>
<path fill="none" stroke="midnightblue" d="M271.981,-168.781C270.768,-160.691 269.233,-150.462 267.923,-141.725"/>
<polygon fill="midnightblue" stroke="midnightblue" points="271.368,-141.101 266.424,-131.731 264.446,-142.139 271.368,-141.101"/>
</g>
<!-- Node11 -->
<g id="node11" class="node"><title>Node11</title>
<g id="a_node11"><a xlink:href="CMeioPoroso__Telha_8h.xhtml" target="_top" xlink:title="CMeioPoroso_Telha.h">
<polygon fill="white" stroke="black" points="385.614,-112.5 385.614,-131.5 498.614,-131.5 498.614,-112.5 385.614,-112.5"/>
<text text-anchor="middle" x="442.114" y="-119.5" font-family="Helvetica,sans-Serif" font-size="10.00">CMeioPoroso_Telha.h</text>
</a>
</g>
</g>
<!-- Node10&#45;&gt;Node11 -->
<g id="edge15" class="edge"><title>Node10&#45;&gt;Node11</title>
<path fill="none" stroke="midnightblue" d="M313.503,-168.933C342.352,-158.629 381.092,-144.794 408.492,-135.008"/>
<polygon fill="midnightblue" stroke="midnightblue" points="409.794,-138.26 418.034,-131.6 407.439,-131.667 409.794,-138.26"/>
</g>
<!-- Node11&#45;&gt;Node3 -->
<g id="edge16" class="edge"><title>Node11&#45;&gt;Node3</title>
<path fill="none" stroke="midnightblue" d="M498.834,-113.102C573.608,-102.419 696.541,-83.8028 703.114,-76 714.699,-62.2469 704.975,-42.1157 695.043,-27.9083"/>
<polygon fill="midnightblue" stroke="midnightblue" points="697.538,-25.4072 688.707,-19.5541 691.961,-29.637 697.538,-25.4072"/>
</g>
<!-- Node12 -->
<g id="node12" class="node"><title>Node12</title>
<g id="a_node12"><a xlink:href="CFuncaoDifusividade_8h.xhtml" target="_top" xlink:title="CFuncaoDifusividade.h">
<polygon fill="white" stroke="black" points="305.614,-56.5 305.614,-75.5 424.614,-75.5 424.614,-56.5 305.614,-56.5"/>
<text text-anchor="middle" x="365.114" y="-63.5" font-family="Helvetica,sans-Serif" font-size="10.00">CFuncaoDifusividade.h</text>
</a>
</g>
</g>
<!-- Node11&#45;&gt;Node12 -->
<g id="edge17" class="edge"><title>Node11&#45;&gt;Node12</title>
<path fill="none" stroke="midnightblue" d="M429.743,-112.324C417.956,-104.058 399.982,-91.4527 385.979,-81.6322"/>
<polygon fill="midnightblue" stroke="midnightblue" points="387.652,-78.5307 377.455,-75.6545 383.632,-84.2619 387.652,-78.5307"/>
</g>
<!-- Node13 -->
<g id="node13" class="node"><title>Node13</title>
<g id="a_node13"><a xlink:href="CFuncaoCondutividade_8h.xhtml" target="_top" xlink:title="CFuncaoCondutividade.h">
<polygon fill="white" stroke="black" points="442.614,-56.5 442.614,-75.5 569.614,-75.5 569.614,-56.5 442.614,-56.5"/>
<text text-anchor="middle" x="506.114" y="-63.5" font-family="Helvetica,sans-Serif" font-size="10.00">CFuncaoCondutividade.h</text>
</a>
</g>
</g>
<!-- Node11&#45;&gt;Node13 -->
<g id="edge19" class="edge"><title>Node11&#45;&gt;Node13</title>
<path fill="none" stroke="midnightblue" d="M452.397,-112.324C461.95,-104.263 476.394,-92.0765 487.898,-82.3695"/>
<polygon fill="midnightblue" stroke="midnightblue" points="490.258,-84.9577 495.644,-75.8339 485.744,-79.6076 490.258,-84.9577"/>
</g>
<!-- Node14 -->
<g id="node14" class="node"><title>Node14</title>
<g id="a_node14"><a xlink:href="CFuncaoAdsorcao_8h.xhtml" target="_top" xlink:title="CFuncaoAdsorcao.h">
<polygon fill="white" stroke="black" points="588.114,-56.5 588.114,-75.5 694.114,-75.5 694.114,-56.5 588.114,-56.5"/>
<text text-anchor="middle" x="641.114" y="-63.5" font-family="Helvetica,sans-Serif" font-size="10.00">CFuncaoAdsorcao.h</text>
</a>
</g>
</g>
<!-- Node11&#45;&gt;Node14 -->
<g id="edge21" class="edge"><title>Node11&#45;&gt;Node14</title>
<path fill="none" stroke="midnightblue" d="M473.646,-112.444C507.706,-103.201 562.12,-88.4356 599.629,-78.2572"/>
<polygon fill="midnightblue" stroke="midnightblue" points="600.995,-81.5132 609.729,-75.5164 599.162,-74.7575 600.995,-81.5132"/>
</g>
<!-- Node12&#45;&gt;Node3 -->
<g id="edge18" class="edge"><title>Node12&#45;&gt;Node3</title>
<path fill="none" stroke="midnightblue" d="M415.185,-56.4435C478.752,-45.5808 586.966,-27.0886 643.771,-17.3814"/>
<polygon fill="midnightblue" stroke="midnightblue" points="644.49,-20.8094 653.757,-15.6749 643.31,-13.9095 644.49,-20.8094"/>
</g>
<!-- Node13&#45;&gt;Node3 -->
<g id="edge20" class="edge"><title>Node13&#45;&gt;Node3</title>
<path fill="none" stroke="midnightblue" d="M533.843,-56.4435C563.714,-47.2262 611.387,-32.5157 644.363,-22.3402"/>
<polygon fill="midnightblue" stroke="midnightblue" points="645.566,-25.632 654.09,-19.339 643.502,-18.9432 645.566,-25.632"/>
</g>
<!-- Node14&#45;&gt;Node3 -->
<g id="edge22" class="edge"><title>Node14&#45;&gt;Node3</title>
<path fill="none" stroke="midnightblue" d="M647.719,-56.083C653.369,-48.4554 661.659,-37.2645 668.565,-27.9408"/>
<polygon fill="midnightblue" stroke="midnightblue" points="671.492,-29.87 674.632,-19.7511 665.867,-25.7034 671.492,-29.87"/>
</g>
<!-- Node15&#45;&gt;Node3 -->
<g id="edge24" class="edge"><title>Node15&#45;&gt;Node3</title>
<path fill="none" stroke="midnightblue" d="M173.368,-57.3674C178.019,-56.8981 182.632,-56.4387 187.114,-56 357.698,-39.3053 561.627,-21.3701 643.948,-14.2138"/>
<polygon fill="midnightblue" stroke="midnightblue" points="644.4,-17.6879 654.059,-13.3359 643.794,-10.7141 644.4,-17.6879"/>
</g>
<!-- Node16&#45;&gt;Node3 -->
<g id="edge26" class="edge"><title>Node16&#45;&gt;Node3</title>
<path fill="none" stroke="midnightblue" d="M404.499,-174.485C375.494,-159.348 318.651,-124.705 296.114,-76 292.381,-67.9329 290.205,-62.6402 296.114,-56 319.026,-30.2542 551.801,-16.8973 643.897,-12.5879"/>
<polygon fill="midnightblue" stroke="midnightblue" points="644.069,-16.0838 653.898,-12.1297 643.748,-9.09109 644.069,-16.0838"/>
</g>
<!-- Node16&#45;&gt;Node6 -->
<g id="edge27" class="edge"><title>Node16&#45;&gt;Node6</title>
<path fill="none" stroke="midnightblue" d="M399.62,-174.403C372.805,-164.156 327.799,-146.956 297.305,-135.302"/>
<polygon fill="midnightblue" stroke="midnightblue" points="298.157,-131.881 287.567,-131.581 295.658,-138.42 298.157,-131.881"/>
</g>
<!-- Node17&#45;&gt;Node3 -->
<g id="edge29" class="edge"><title>Node17&#45;&gt;Node3</title>
<path fill="none" stroke="midnightblue" d="M779.575,-56.4435C760.491,-47.6356 730.539,-33.8116 708.678,-23.722"/>
<polygon fill="midnightblue" stroke="midnightblue" points="710.113,-20.5292 699.566,-19.5164 707.179,-26.8849 710.113,-20.5292"/>
</g>
<!-- Node18&#45;&gt;Node3 -->
<g id="edge31" class="edge"><title>Node18&#45;&gt;Node3</title>
<path fill="none" stroke="midnightblue" d="M720.923,-114.112C724.026,-113.398 727.134,-112.683 730.114,-112 802.732,-95.3482 934.866,-114.007 888.114,-56 867.235,-30.0948 772.464,-18.3289 718.682,-13.6562"/>
<polygon fill="midnightblue" stroke="midnightblue" points="718.761,-10.1508 708.507,-12.8141 718.184,-17.127 718.761,-10.1508"/>
</g>
<!-- Node19&#45;&gt;Node3 -->
<g id="edge33" class="edge"><title>Node19&#45;&gt;Node3</title>
<path fill="none" stroke="midnightblue" d="M632.684,-174.067C632.481,-158.911 634.445,-128.226 652.114,-112 719.282,-50.319 795.561,-145.911 854.114,-76 893.063,-29.4959 780.125,-16.2284 718.401,-12.4697"/>
<polygon fill="midnightblue" stroke="midnightblue" points="718.42,-8.96546 708.242,-11.9082 718.034,-15.9548 718.42,-8.96546"/>
</g>
<!-- Node19&#45;&gt;Node11 -->
<g id="edge35" class="edge"><title>Node19&#45;&gt;Node11</title>
<path fill="none" stroke="midnightblue" d="M605.748,-174.403C572.56,-163.978 516.463,-146.356 479.356,-134.699"/>
<polygon fill="midnightblue" stroke="midnightblue" points="480.018,-131.239 469.429,-131.581 477.92,-137.917 480.018,-131.239"/>
</g>
<!-- Node19&#45;&gt;Node18 -->
<g id="edge34" class="edge"><title>Node19&#45;&gt;Node18</title>
<path fill="none" stroke="midnightblue" d="M641.424,-174.403C650.383,-165.136 664.837,-150.183 675.853,-138.788"/>
<polygon fill="midnightblue" stroke="midnightblue" points="678.386,-141.203 682.819,-131.581 673.353,-136.338 678.386,-141.203"/>
</g>
<!-- Node20&#45;&gt;Node3 -->
<g id="edge37" class="edge"><title>Node20&#45;&gt;Node3</title>
<path fill="none" stroke="midnightblue" d="M886.162,-174.335C900.867,-165.802 921.113,-151.258 930.114,-132 942.079,-106.402 909.287,-57.7888 907.114,-56 878.766,-32.6595 774.862,-19.6537 718.339,-14.1629"/>
<polygon fill="midnightblue" stroke="midnightblue" points="718.649,-10.6767 708.365,-13.2243 717.993,-17.6459 718.649,-10.6767"/>
</g>
<!-- Node20&#45;&gt;Node9 -->
<g id="edge39" class="edge"><title>Node20&#45;&gt;Node9</title>
<path fill="none" stroke="midnightblue" d="M853.64,-174.403C835.836,-164.512 806.374,-148.144 785.482,-136.538"/>
<polygon fill="midnightblue" stroke="midnightblue" points="787,-133.378 776.559,-131.581 783.601,-139.497 787,-133.378"/>
</g>
<!-- Node21 -->
<g id="node21" class="node"><title>Node21</title>
<polygon fill="white" stroke="#bfbfbf" points="978.614,-112.5 978.614,-131.5 1019.61,-131.5 1019.61,-112.5 978.614,-112.5"/>
<text text-anchor="middle" x="999.114" y="-119.5" font-family="Helvetica,sans-Serif" font-size="10.00">string</text>
</g>
<!-- Node20&#45;&gt;Node21 -->
<g id="edge38" class="edge"><title>Node20&#45;&gt;Node21</title>
<path fill="none" stroke="midnightblue" d="M887.74,-174.403C909.557,-164.334 945.918,-147.552 971.131,-135.915"/>
<polygon fill="midnightblue" stroke="midnightblue" points="972.91,-138.949 980.523,-131.581 969.976,-132.593 972.91,-138.949"/>
</g>
<!-- Node22 -->
<g id="node22" class="node"><title>Node22</title>
<polygon fill="white" stroke="#bfbfbf" points="801.614,-112.5 801.614,-131.5 860.614,-131.5 860.614,-112.5 801.614,-112.5"/>
<text text-anchor="middle" x="831.114" y="-119.5" font-family="Helvetica,sans-Serif" font-size="10.00">stdexcept</text>
</g>
<!-- Node20&#45;&gt;Node22 -->
<g id="edge40" class="edge"><title>Node20&#45;&gt;Node22</title>
<path fill="none" stroke="midnightblue" d="M863.67,-174.403C858.026,-165.493 849.053,-151.325 841.955,-140.118"/>
<polygon fill="midnightblue" stroke="midnightblue" points="844.856,-138.156 836.548,-131.581 838.942,-141.901 844.856,-138.156"/>
</g>
<!-- Node23 -->
<g id="node23" class="node"><title>Node23</title>
<polygon fill="white" stroke="#bfbfbf" points="878.614,-112.5 878.614,-131.5 921.614,-131.5 921.614,-112.5 878.614,-112.5"/>
<text text-anchor="middle" x="900.114" y="-119.5" font-family="Helvetica,sans-Serif" font-size="10.00">cstdio</text>
</g>
<!-- Node20&#45;&gt;Node23 -->
<g id="edge41" class="edge"><title>Node20&#45;&gt;Node23</title>
<path fill="none" stroke="midnightblue" d="M873.556,-174.403C878.068,-165.671 885.188,-151.889 890.921,-140.794"/>
<polygon fill="midnightblue" stroke="midnightblue" points="894.2,-142.071 895.681,-131.581 887.981,-138.858 894.2,-142.071"/>
</g>
</g>
</svg>
        <g id="navigator" transform="translate(0 0)" fill="#404254">
                <rect fill="#f2f5e9" fill-opacity="0.5" stroke="#606060" stroke-width=".5" x="0" y="0" width="60" height="60"/>
                <use id="zoomplus" xlink:href="#zoomPlus" x="17" y="9" onmousedown="handleZoom(evt,'in')"/>
                <use id="zoomminus" xlink:href="#zoomMin" x="42" y="9" onmousedown="handleZoom(evt,'out')"/>
                <use id="reset" xlink:href="#resetDef" x="30" y="36" onmousedown="handleReset()"/>
                <g id="arrowUp" xlink:href="#dirArrow" transform="translate(30 24)" onmousedown="handlePan(0,-1)">
                  <use xlink:href="#rim" fill="#404040">
                        <set attributeName="fill" to="#808080" begin="arrowUp.mouseover" end="arrowUp.mouseout"/>
                  </use>
                  <path fill="none" stroke="white" stroke-width="1.5" d="M0,-3.0v7 M-2.5,-0.5L0,-3.0L2.5,-0.5"/>
                </g>
                <g id="arrowRight" xlink:href="#dirArrow" transform="rotate(90) translate(36 -43)" onmousedown="handlePan(1,0)">
                  <use xlink:href="#rim" fill="#404040">
                        <set attributeName="fill" to="#808080" begin="arrowRight.mouseover" end="arrowRight.mouseout"/>
                  </use>
                  <path fill="none" stroke="white" stroke-width="1.5" d="M0,-3.0v7 M-2.5,-0.5L0,-3.0L2.5,-0.5"/>
                </g>
                <g id="arrowDown" xlink:href="#dirArrow" transform="rotate(180) translate(-30 -48)" onmousedown="handlePan(0,1)">
                  <use xlink:href="#rim" fill="#404040">
                        <set attributeName="fill" to="#808080" begin="arrowDown.mouseover" end="arrowDown.mouseout"/>
                  </use>
                  <path fill="none" stroke="white" stroke-width="1.5" d="M0,-3.0v7 M-2.5,-0.5L0,-3.0L2.5,-0.5"/>
                </g>
                <g id="arrowLeft" xlink:href="#dirArrow" transform="rotate(270) translate(-36 17)" onmousedown="handlePan(-1,0)">
                  <use xlink:href="#rim" fill="#404040">
                        <set attributeName="fill" to="#808080" begin="arrowLeft.mouseover" end="arrowLeft.mouseout"/>
                  </use>
                  <path fill="none" stroke="white" stroke-width="1.5" d="M0,-3.0v7 M-2.5,-0.5L0,-3.0L2.5,-0.5"/>
                </g>
        </g>
        <svg viewBox="0 0 15 15" width="100%" height="30px" preserveAspectRatio="xMaxYMin meet">
         <g id="arrow_out" transform="scale(0.3 0.3)">
          <a xlink:href="CInterface__SimuladorTelha_8cpp__incl_org.svg" target="_base">
           <rect id="button" ry="5" rx="5" y="6" x="6" height="38" width="38"
                fill="#f2f5e9" fill-opacity="0.5" stroke="#606060" stroke-width="1.0"/>
           <path id="arrow"
             d="M 11.500037,31.436501 C 11.940474,20.09759 22.043105,11.32322 32.158766,21.979434 L 37.068811,17.246167 C 37.068811,17.246167 37.088388,32 37.088388,32 L 22.160133,31.978069 C 22.160133,31.978069 26.997745,27.140456 26.997745,27.140456 C 18.528582,18.264221 13.291696,25.230495 11.500037,31.436501 z"
             style="fill:#404040;"/>
          </a>
         </g>
        </svg>
</svg>
