<?xml version="1.0" encoding="UTF-8" standalone="no"?>
<!DOCTYPE svg PUBLIC "-//W3C//DTD SVG 1.1//EN"
 "http://www.w3.org/Graphics/SVG/1.1/DTD/svg11.dtd">
<!-- Generated by graphviz version 2.34.0 (20140110.0949)
 -->
<!-- Title: src/CInterface_SimuladorTelha.h Pages: 1 -->
<!--zoomable 388 -->
<svg id="main" version="1.1" xmlns="http://www.w3.org/2000/svg" xmlns:xlink="http://www.w3.org/1999/xlink" xml:space="preserve" onload="init(evt)">
<style type="text/css"><![CDATA[
.edge:hover path { stroke: red; }
.edge:hover polygon { stroke: red; fill: red; }
]]></style>
<script type="text/javascript"><![CDATA[
var edges = document.getElementsByTagName('g');
if (edges && edges.length) {
  for (var i=0;i<edges.length;i++) {
    if (edges[i].id.substr(0,4)=='edge') {
      edges[i].setAttribute('class','edge');
    }
  }
}
]]></script>
        <defs>
                <circle id="rim" cx="0" cy="0" r="7"/>
                <circle id="rim2" cx="0" cy="0" r="3.5"/>
                <g id="zoomPlus">
                        <use xlink:href="#rim" fill="#404040">
                                <set attributeName="fill" to="#808080" begin="zoomplus.mouseover" end="zoomplus.mouseout"/>
                        </use>
                        <path d="M-4,0h8M0,-4v8" fill="none" stroke="white" stroke-width="1.5" pointer-events="none"/>
                </g>
                <g id="zoomMin">
                        <use xlink:href="#rim" fill="#404040">
                                <set attributeName="fill" to="#808080" begin="zoomminus.mouseover" end="zoomminus.mouseout"/>
                        </use>
                        <path d="M-4,0h8" fill="none" stroke="white" stroke-width="1.5" pointer-events="none"/>
                </g>
                <g id="dirArrow">
                        <path fill="none" stroke="white" stroke-width="1.5" d="M0,-3.0v7 M-2.5,-0.5L0,-3.0L2.5,-0.5"/>
                </g>
               <g id="resetDef">
                       <use xlink:href="#rim2" fill="#404040">
                               <set attributeName="fill" to="#808080" begin="reset.mouseover" end="reset.mouseout"/>
                       </use>
               </g>
        </defs>

<script type="text/javascript">
var viewWidth = 1366;
var viewHeight = 388;
var sectionId = 'dynsection-0';
</script>
<script xlink:href="svgpan.js"/>
<svg id="graph" class="graph">
<g id="viewport">
<title>src/CInterface_SimuladorTelha.h</title>
<polygon fill="white" stroke="white" points="-4,4 -4,-384 1361.71,-384 1361.71,4 -4,4"/>
<!-- Node1 -->
<g id="node1" class="node"><title>Node1</title>
<polygon fill="#bfbfbf" stroke="black" points="170.706,-349 170.706,-379 298.706,-379 298.706,-349 170.706,-349"/>
<text text-anchor="start" x="178.706" y="-367" font-family="Helvetica,sans-Serif" font-size="10.00">src/CInterface_Simulador</text>
<text text-anchor="middle" x="234.706" y="-356" font-family="Helvetica,sans-Serif" font-size="10.00">Telha.h</text>
</g>
<!-- Node2 -->
<g id="node2" class="node"><title>Node2</title>
<g id="a_node2"><a xlink:href="CInterface_8h.xhtml" target="_top" xlink:title="CInterface.h">
<polygon fill="white" stroke="black" points="202.206,-112.5 202.206,-131.5 273.206,-131.5 273.206,-112.5 202.206,-112.5"/>
<text text-anchor="middle" x="237.706" y="-119.5" font-family="Helvetica,sans-Serif" font-size="10.00">CInterface.h</text>
</a>
</g>
</g>
<!-- Node1&#45;&gt;Node2 -->
<g id="edge1" class="edge"><title>Node1&#45;&gt;Node2</title>
<path fill="none" stroke="midnightblue" d="M234.884,-348.706C235.401,-307.401 236.895,-187.888 237.473,-141.611"/>
<polygon fill="midnightblue" stroke="midnightblue" points="240.974,-141.558 237.599,-131.515 233.975,-141.471 240.974,-141.558"/>
</g>
<!-- Node3 -->
<g id="node3" class="node"><title>Node3</title>
<polygon fill="white" stroke="#bfbfbf" points="540.706,-0.5 540.706,-19.5 594.706,-19.5 594.706,-0.5 540.706,-0.5"/>
<text text-anchor="middle" x="567.706" y="-7.5" font-family="Helvetica,sans-Serif" font-size="10.00">iostream</text>
</g>
<!-- Node1&#45;&gt;Node3 -->
<g id="edge39" class="edge"><title>Node1&#45;&gt;Node3</title>
<path fill="none" stroke="midnightblue" d="M170.514,-354.97C115.293,-346.806 41.2279,-332.442 19.7058,-312 -2.11728,-291.272 0.705761,-277.098 0.705761,-247 0.705761,-247 0.705761,-247 0.705761,-121 0.705761,-12.8493 403.289,-8.85781 529.999,-10.28"/>
<polygon fill="midnightblue" stroke="midnightblue" points="530.313,-13.7843 540.358,-10.4157 530.405,-6.78488 530.313,-13.7843"/>
</g>
<!-- Node4 -->
<g id="node4" class="node"><title>Node4</title>
<g id="a_node4"><a xlink:href="CSimulador__Telha__GanhosEnergia_8h.xhtml" target="_top" xlink:title="CSimulador_Telha_GanhosEnergia.h">
<polygon fill="white" stroke="black" points="29.2058,-292.5 29.2058,-311.5 206.206,-311.5 206.206,-292.5 29.2058,-292.5"/>
<text text-anchor="middle" x="117.706" y="-299.5" font-family="Helvetica,sans-Serif" font-size="10.00">CSimulador_Telha_GanhosEnergia.h</text>
</a>
</g>
</g>
<!-- Node1&#45;&gt;Node4 -->
<g id="edge3" class="edge"><title>Node1&#45;&gt;Node4</title>
<path fill="none" stroke="midnightblue" d="M207.274,-348.933C187.976,-339.036 162.322,-325.88 143.417,-316.185"/>
<polygon fill="midnightblue" stroke="midnightblue" points="144.971,-313.049 134.476,-311.6 141.777,-319.278 144.971,-313.049"/>
</g>
<!-- Node21 -->
<g id="node21" class="node"><title>Node21</title>
<polygon fill="white" stroke="#bfbfbf" points="263.206,-292.5 263.206,-311.5 292.206,-311.5 292.206,-292.5 263.206,-292.5"/>
<text text-anchor="middle" x="277.706" y="-299.5" font-family="Helvetica,sans-Serif" font-size="10.00">ios</text>
</g>
<!-- Node1&#45;&gt;Node21 -->
<g id="edge38" class="edge"><title>Node1&#45;&gt;Node21</title>
<path fill="none" stroke="midnightblue" d="M244.896,-348.781C251.08,-340.152 259.009,-329.088 265.523,-319.999"/>
<polygon fill="midnightblue" stroke="midnightblue" points="268.469,-321.898 271.449,-311.731 262.779,-317.82 268.469,-321.898"/>
</g>
<!-- Node22 -->
<g id="node22" class="node"><title>Node22</title>
<polygon fill="white" stroke="#bfbfbf" points="310.706,-292.5 310.706,-311.5 360.706,-311.5 360.706,-292.5 310.706,-292.5"/>
<text text-anchor="middle" x="335.706" y="-299.5" font-family="Helvetica,sans-Serif" font-size="10.00">fstream</text>
</g>
<!-- Node1&#45;&gt;Node22 -->
<g id="edge40" class="edge"><title>Node1&#45;&gt;Node22</title>
<path fill="none" stroke="midnightblue" d="M258.386,-348.933C274.665,-339.262 296.182,-326.479 312.384,-316.855"/>
<polygon fill="midnightblue" stroke="midnightblue" points="314.419,-319.717 321.229,-311.6 310.844,-313.698 314.419,-319.717"/>
</g>
<!-- Node2&#45;&gt;Node3 -->
<g id="edge2" class="edge"><title>Node2&#45;&gt;Node3</title>
<path fill="none" stroke="midnightblue" d="M238.21,-112.24C239.534,-98.0218 244.33,-70.096 261.706,-56 302.246,-23.1122 457.727,-14.2231 530.162,-11.8497"/>
<polygon fill="midnightblue" stroke="midnightblue" points="530.334,-15.3462 540.223,-11.5448 530.122,-8.34943 530.334,-15.3462"/>
</g>
<!-- Node4&#45;&gt;Node3 -->
<g id="edge4" class="edge"><title>Node4&#45;&gt;Node3</title>
<path fill="none" stroke="midnightblue" d="M118.846,-292.287C121.267,-272.995 126.706,-225.197 126.706,-185 126.706,-185 126.706,-185 126.706,-121 126.706,-74.1454 166.454,-74.0174 209.706,-56 267.122,-32.0824 450.883,-18.1932 530.424,-13.1661"/>
<polygon fill="midnightblue" stroke="midnightblue" points="530.722,-16.6544 540.486,-12.5425 530.289,-9.66784 530.722,-16.6544"/>
</g>
<!-- Node5 -->
<g id="node5" class="node"><title>Node5</title>
<g id="a_node5"><a xlink:href="CSimulador__Telha_8h.xhtml" target="_top" xlink:title="CSimulador_Telha.h">
<polygon fill="white" stroke="black" points="654.206,-236.5 654.206,-255.5 759.206,-255.5 759.206,-236.5 654.206,-236.5"/>
<text text-anchor="middle" x="706.706" y="-243.5" font-family="Helvetica,sans-Serif" font-size="10.00">CSimulador_Telha.h</text>
</a>
</g>
</g>
<!-- Node4&#45;&gt;Node5 -->
<g id="edge5" class="edge"><title>Node4&#45;&gt;Node5</title>
<path fill="none" stroke="midnightblue" d="M206.523,-292.857C326.886,-281.822 538.802,-262.394 643.924,-252.756"/>
<polygon fill="midnightblue" stroke="midnightblue" points="644.424,-256.225 654.063,-251.826 643.785,-249.254 644.424,-256.225"/>
</g>
<!-- Node5&#45;&gt;Node3 -->
<g id="edge6" class="edge"><title>Node5&#45;&gt;Node3</title>
<path fill="none" stroke="midnightblue" d="M671.858,-236.469C646.02,-229.193 610.598,-217.163 582.706,-200 565.032,-189.125 566.076,-179.353 548.706,-168 461.361,-110.914 390.244,-163.047 332.706,-76 327.804,-68.5847 327.042,-62.851 332.706,-56 357.362,-26.1746 470.603,-15.927 530.427,-12.5579"/>
<polygon fill="midnightblue" stroke="midnightblue" points="530.792,-16.0436 540.594,-12.0227 530.424,-9.05332 530.792,-16.0436"/>
</g>
<!-- Node6 -->
<g id="node6" class="node"><title>Node6</title>
<polygon fill="white" stroke="#bfbfbf" points="1077.71,-112.5 1077.71,-131.5 1121.71,-131.5 1121.71,-112.5 1077.71,-112.5"/>
<text text-anchor="middle" x="1099.71" y="-119.5" font-family="Helvetica,sans-Serif" font-size="10.00">vector</text>
</g>
<!-- Node5&#45;&gt;Node6 -->
<g id="edge7" class="edge"><title>Node5&#45;&gt;Node6</title>
<path fill="none" stroke="midnightblue" d="M759.54,-244.464C846.861,-242.59 1016.36,-234.476 1063.71,-200 1082.67,-186.188 1091.97,-159.829 1096.29,-141.838"/>
<polygon fill="midnightblue" stroke="midnightblue" points="1099.74,-142.41 1098.38,-131.904 1092.89,-140.97 1099.74,-142.41"/>
</g>
<!-- Node7 -->
<g id="node7" class="node"><title>Node7</title>
<g id="a_node7"><a xlink:href="CMeioPoroso__Telha__Discretizada__TDMA_8h.xhtml" target="_top" xlink:title="CMeioPoroso_Telha_Discretizada\l_TDMA.h">
<polygon fill="white" stroke="black" points="375.206,-169 375.206,-199 540.206,-199 540.206,-169 375.206,-169"/>
<text text-anchor="start" x="383.206" y="-187" font-family="Helvetica,sans-Serif" font-size="10.00">CMeioPoroso_Telha_Discretizada</text>
<text text-anchor="middle" x="457.706" y="-176" font-family="Helvetica,sans-Serif" font-size="10.00">_TDMA.h</text>
</a>
</g>
</g>
<!-- Node5&#45;&gt;Node7 -->
<g id="edge8" class="edge"><title>Node5&#45;&gt;Node7</title>
<path fill="none" stroke="midnightblue" d="M671.295,-236.467C633.564,-227.376 572.909,-212.76 525.86,-201.423"/>
<polygon fill="midnightblue" stroke="midnightblue" points="526.582,-197.997 516.04,-199.057 524.942,-204.802 526.582,-197.997"/>
</g>
<!-- Node12 -->
<g id="node12" class="node"><title>Node12</title>
<g id="a_node12"><a xlink:href="CTransferenciaCalorMassa_8h.xhtml" target="_top" xlink:title="CTransferenciaCalorMassa.h">
<polygon fill="white" stroke="black" points="341.706,-56.5 341.706,-75.5 485.706,-75.5 485.706,-56.5 341.706,-56.5"/>
<text text-anchor="middle" x="413.706" y="-63.5" font-family="Helvetica,sans-Serif" font-size="10.00">CTransferenciaCalorMassa.h</text>
</a>
</g>
</g>
<!-- Node5&#45;&gt;Node12 -->
<g id="edge19" class="edge"><title>Node5&#45;&gt;Node12</title>
<path fill="none" stroke="midnightblue" d="M692.991,-236.378C670.177,-222.059 622.958,-192.523 582.706,-168 530.899,-136.437 469.697,-100.094 437.028,-80.7684"/>
<polygon fill="midnightblue" stroke="midnightblue" points="438.613,-77.6398 428.224,-75.564 435.051,-83.6657 438.613,-77.6398"/>
</g>
<!-- Node13 -->
<g id="node13" class="node"><title>Node13</title>
<g id="a_node13"><a xlink:href="CSolver__TDMA_8h.xhtml" target="_top" xlink:title="CSolver_TDMA.h">
<polygon fill="white" stroke="black" points="262.706,-174.5 262.706,-193.5 356.706,-193.5 356.706,-174.5 262.706,-174.5"/>
<text text-anchor="middle" x="309.706" y="-181.5" font-family="Helvetica,sans-Serif" font-size="10.00">CSolver_TDMA.h</text>
</a>
</g>
</g>
<!-- Node5&#45;&gt;Node13 -->
<g id="edge21" class="edge"><title>Node5&#45;&gt;Node13</title>
<path fill="none" stroke="midnightblue" d="M654.073,-240.207C586.786,-233.588 466.878,-220.136 365.706,-200 360.153,-198.895 354.337,-197.551 348.641,-196.127"/>
<polygon fill="midnightblue" stroke="midnightblue" points="349.161,-192.646 338.602,-193.511 347.396,-199.42 349.161,-192.646"/>
</g>
<!-- Node14 -->
<g id="node14" class="node"><title>Node14</title>
<g id="a_node14"><a xlink:href="CFuncoesClima_8h.xhtml" target="_top" xlink:title="CFuncoesClima.h">
<polygon fill="white" stroke="black" points="1026.21,-56.5 1026.21,-75.5 1121.21,-75.5 1121.21,-56.5 1026.21,-56.5"/>
<text text-anchor="middle" x="1073.71" y="-63.5" font-family="Helvetica,sans-Serif" font-size="10.00">CFuncoesClima.h</text>
</a>
</g>
</g>
<!-- Node5&#45;&gt;Node14 -->
<g id="edge24" class="edge"><title>Node5&#45;&gt;Node14</title>
<path fill="none" stroke="midnightblue" d="M759.396,-239.142C829.06,-228.855 952.041,-201.562 1029.71,-132 1044.74,-118.538 1057.1,-98.9052 1064.85,-84.7423"/>
<polygon fill="midnightblue" stroke="midnightblue" points="1068.12,-86.0459 1069.65,-75.5628 1061.92,-82.8005 1068.12,-86.0459"/>
</g>
<!-- Node15 -->
<g id="node15" class="node"><title>Node15</title>
<g id="a_node15"><a xlink:href="CFluido_8h.xhtml" target="_top" xlink:title="CFluido.h">
<polygon fill="white" stroke="black" points="962.206,-112.5 962.206,-131.5 1021.21,-131.5 1021.21,-112.5 962.206,-112.5"/>
<text text-anchor="middle" x="991.706" y="-119.5" font-family="Helvetica,sans-Serif" font-size="10.00">CFluido.h</text>
</a>
</g>
</g>
<!-- Node5&#45;&gt;Node15 -->
<g id="edge26" class="edge"><title>Node5&#45;&gt;Node15</title>
<path fill="none" stroke="midnightblue" d="M743.02,-236.444C773.69,-228.652 818.44,-215.942 855.706,-200 897.919,-181.941 943.749,-154.112 969.969,-137.32"/>
<polygon fill="midnightblue" stroke="midnightblue" points="972.205,-140.043 978.699,-131.672 968.402,-134.166 972.205,-140.043"/>
</g>
<!-- Node16 -->
<g id="node16" class="node"><title>Node16</title>
<g id="a_node16"><a xlink:href="CFuncaoConteudoMassicoWl_8h.xhtml" target="_top" xlink:title="CFuncaoConteudoMassicoWl.h">
<polygon fill="white" stroke="black" points="692.206,-174.5 692.206,-193.5 847.206,-193.5 847.206,-174.5 692.206,-174.5"/>
<text text-anchor="middle" x="769.706" y="-181.5" font-family="Helvetica,sans-Serif" font-size="10.00">CFuncaoConteudoMassicoWl.h</text>
</a>
</g>
</g>
<!-- Node5&#45;&gt;Node16 -->
<g id="edge28" class="edge"><title>Node5&#45;&gt;Node16</title>
<path fill="none" stroke="midnightblue" d="M715.732,-236.403C725.463,-227.136 741.164,-212.183 753.129,-200.788"/>
<polygon fill="midnightblue" stroke="midnightblue" points="755.869,-203.012 760.696,-193.581 751.041,-197.943 755.869,-203.012"/>
</g>
<!-- Node17 -->
<g id="node17" class="node"><title>Node17</title>
<g id="a_node17"><a xlink:href="CGnuplot_8h.xhtml" target="_top" xlink:title="CGnuplot.h">
<polygon fill="white" stroke="black" points="1121.71,-174.5 1121.71,-193.5 1187.71,-193.5 1187.71,-174.5 1121.71,-174.5"/>
<text text-anchor="middle" x="1154.71" y="-181.5" font-family="Helvetica,sans-Serif" font-size="10.00">CGnuplot.h</text>
</a>
</g>
</g>
<!-- Node5&#45;&gt;Node17 -->
<g id="edge32" class="edge"><title>Node5&#45;&gt;Node17</title>
<path fill="none" stroke="midnightblue" d="M759.328,-242.056C835.95,-237.092 982.424,-225.045 1104.71,-200 1109.56,-199.007 1114.61,-197.754 1119.57,-196.399"/>
<polygon fill="midnightblue" stroke="midnightblue" points="1120.86,-199.667 1129.49,-193.521 1118.91,-192.944 1120.86,-199.667"/>
</g>
<!-- Node7&#45;&gt;Node2 -->
<g id="edge10" class="edge"><title>Node7&#45;&gt;Node2</title>
<path fill="none" stroke="midnightblue" d="M406.126,-168.933C367.236,-158.326 314.622,-143.977 278.611,-134.156"/>
<polygon fill="midnightblue" stroke="midnightblue" points="279.488,-130.767 268.919,-131.513 277.646,-137.521 279.488,-130.767"/>
</g>
<!-- Node7&#45;&gt;Node3 -->
<g id="edge9" class="edge"><title>Node7&#45;&gt;Node3</title>
<path fill="none" stroke="midnightblue" d="M413.379,-168.853C353.524,-147.501 258.788,-104.361 299.706,-56 328.849,-21.5555 464.046,-13.4609 530.555,-11.5696"/>
<polygon fill="midnightblue" stroke="midnightblue" points="530.704,-15.0671 540.613,-11.3163 530.528,-8.06931 530.704,-15.0671"/>
</g>
<!-- Node8 -->
<g id="node8" class="node"><title>Node8</title>
<g id="a_node8"><a xlink:href="CMeioPoroso__Telha_8h.xhtml" target="_top" xlink:title="CMeioPoroso_Telha.h">
<polygon fill="white" stroke="black" points="707.206,-112.5 707.206,-131.5 820.206,-131.5 820.206,-112.5 707.206,-112.5"/>
<text text-anchor="middle" x="763.706" y="-119.5" font-family="Helvetica,sans-Serif" font-size="10.00">CMeioPoroso_Telha.h</text>
</a>
</g>
</g>
<!-- Node7&#45;&gt;Node8 -->
<g id="edge11" class="edge"><title>Node7&#45;&gt;Node8</title>
<path fill="none" stroke="midnightblue" d="M529.449,-168.933C584.812,-158.077 660.173,-143.301 710.304,-133.471"/>
<polygon fill="midnightblue" stroke="midnightblue" points="711.151,-136.872 720.291,-131.513 709.804,-130.002 711.151,-136.872"/>
</g>
<!-- Node8&#45;&gt;Node3 -->
<g id="edge12" class="edge"><title>Node8&#45;&gt;Node3</title>
<path fill="none" stroke="midnightblue" d="M766.971,-112.32C771.471,-98.7124 777.652,-72.2369 764.706,-56 745.114,-31.4283 656.46,-19.2093 605.004,-14.0877"/>
<polygon fill="midnightblue" stroke="midnightblue" points="605.22,-10.5925 594.933,-13.1285 604.556,-17.561 605.22,-10.5925"/>
</g>
<!-- Node9 -->
<g id="node9" class="node"><title>Node9</title>
<g id="a_node9"><a xlink:href="CFuncaoDifusividade_8h.xhtml" target="_top" xlink:title="CFuncaoDifusividade.h">
<polygon fill="white" stroke="black" points="812.206,-56.5 812.206,-75.5 931.206,-75.5 931.206,-56.5 812.206,-56.5"/>
<text text-anchor="middle" x="871.706" y="-63.5" font-family="Helvetica,sans-Serif" font-size="10.00">CFuncaoDifusividade.h</text>
</a>
</g>
</g>
<!-- Node8&#45;&gt;Node9 -->
<g id="edge13" class="edge"><title>Node8&#45;&gt;Node9</title>
<path fill="none" stroke="midnightblue" d="M781.058,-112.324C798.378,-103.664 825.221,-90.2424 845.208,-80.249"/>
<polygon fill="midnightblue" stroke="midnightblue" points="847.018,-83.2572 854.397,-75.6545 843.887,-76.9962 847.018,-83.2572"/>
</g>
<!-- Node10 -->
<g id="node10" class="node"><title>Node10</title>
<g id="a_node10"><a xlink:href="CFuncaoCondutividade_8h.xhtml" target="_top" xlink:title="CFuncaoCondutividade.h">
<polygon fill="white" stroke="black" points="504.206,-56.5 504.206,-75.5 631.206,-75.5 631.206,-56.5 504.206,-56.5"/>
<text text-anchor="middle" x="567.706" y="-63.5" font-family="Helvetica,sans-Serif" font-size="10.00">CFuncaoCondutividade.h</text>
</a>
</g>
</g>
<!-- Node8&#45;&gt;Node10 -->
<g id="edge15" class="edge"><title>Node8&#45;&gt;Node10</title>
<path fill="none" stroke="midnightblue" d="M732.649,-112.444C699.102,-103.201 645.509,-88.4356 608.565,-78.2572"/>
<polygon fill="midnightblue" stroke="midnightblue" points="609.188,-74.7984 598.617,-75.5164 607.328,-81.5469 609.188,-74.7984"/>
</g>
<!-- Node11 -->
<g id="node11" class="node"><title>Node11</title>
<g id="a_node11"><a xlink:href="CFuncaoAdsorcao_8h.xhtml" target="_top" xlink:title="CFuncaoAdsorcao.h">
<polygon fill="white" stroke="black" points="649.706,-56.5 649.706,-75.5 755.706,-75.5 755.706,-56.5 649.706,-56.5"/>
<text text-anchor="middle" x="702.706" y="-63.5" font-family="Helvetica,sans-Serif" font-size="10.00">CFuncaoAdsorcao.h</text>
</a>
</g>
</g>
<!-- Node8&#45;&gt;Node11 -->
<g id="edge17" class="edge"><title>Node8&#45;&gt;Node11</title>
<path fill="none" stroke="midnightblue" d="M753.905,-112.324C744.888,-104.341 731.3,-92.3128 720.388,-82.6529"/>
<polygon fill="midnightblue" stroke="midnightblue" points="722.492,-79.8416 712.685,-75.8339 717.852,-85.083 722.492,-79.8416"/>
</g>
<!-- Node9&#45;&gt;Node3 -->
<g id="edge14" class="edge"><title>Node9&#45;&gt;Node3</title>
<path fill="none" stroke="midnightblue" d="M823.536,-56.4435C762.824,-45.6592 659.779,-27.3552 604.822,-17.593"/>
<polygon fill="midnightblue" stroke="midnightblue" points="605.277,-14.1192 594.819,-15.8162 604.053,-21.0113 605.277,-14.1192"/>
</g>
<!-- Node10&#45;&gt;Node3 -->
<g id="edge16" class="edge"><title>Node10&#45;&gt;Node3</title>
<path fill="none" stroke="midnightblue" d="M567.706,-56.083C567.706,-49.0059 567.706,-38.8611 567.706,-29.9865"/>
<polygon fill="midnightblue" stroke="midnightblue" points="571.206,-29.751 567.706,-19.7511 564.206,-29.7511 571.206,-29.751"/>
</g>
<!-- Node11&#45;&gt;Node3 -->
<g id="edge18" class="edge"><title>Node11&#45;&gt;Node3</title>
<path fill="none" stroke="midnightblue" d="M681.315,-56.4435C658.998,-47.5171 623.803,-33.4387 598.498,-23.3168"/>
<polygon fill="midnightblue" stroke="midnightblue" points="599.581,-19.9807 588.997,-19.5164 596.982,-26.4801 599.581,-19.9807"/>
</g>
<!-- Node12&#45;&gt;Node3 -->
<g id="edge20" class="edge"><title>Node12&#45;&gt;Node3</title>
<path fill="none" stroke="midnightblue" d="M438.108,-56.4435C463.902,-47.3986 504.782,-33.064 533.724,-22.9158"/>
<polygon fill="midnightblue" stroke="midnightblue" points="535.14,-26.1283 543.418,-19.5164 532.823,-19.5226 535.14,-26.1283"/>
</g>
<!-- Node13&#45;&gt;Node2 -->
<g id="edge23" class="edge"><title>Node13&#45;&gt;Node2</title>
<path fill="none" stroke="midnightblue" d="M299.39,-174.403C288.055,-164.958 269.633,-149.606 255.867,-138.134"/>
<polygon fill="midnightblue" stroke="midnightblue" points="257.925,-135.294 248.002,-131.581 253.444,-140.671 257.925,-135.294"/>
</g>
<!-- Node13&#45;&gt;Node3 -->
<g id="edge22" class="edge"><title>Node13&#45;&gt;Node3</title>
<path fill="none" stroke="midnightblue" d="M262.564,-175.215C237.268,-168.377 208.185,-155.634 192.706,-132 168.762,-95.4439 227.014,-64.7975 243.706,-56 292.787,-30.1318 455.69,-17.5367 530.075,-13.0228"/>
<polygon fill="midnightblue" stroke="midnightblue" points="530.607,-16.4976 540.384,-12.4148 530.195,-9.50976 530.607,-16.4976"/>
</g>
<!-- Node14&#45;&gt;Node3 -->
<g id="edge25" class="edge"><title>Node14&#45;&gt;Node3</title>
<path fill="none" stroke="midnightblue" d="M1026.01,-57.8641C1021.18,-57.2056 1016.35,-56.5719 1011.71,-56 861.149,-37.4516 681.176,-20.9532 604.849,-14.2187"/>
<polygon fill="midnightblue" stroke="midnightblue" points="605.048,-10.7228 594.78,-13.334 604.435,-17.6959 605.048,-10.7228"/>
</g>
<!-- Node15&#45;&gt;Node3 -->
<g id="edge27" class="edge"><title>Node15&#45;&gt;Node3</title>
<path fill="none" stroke="midnightblue" d="M992.123,-112.246C992.275,-98.0362 990.286,-70.1224 973.706,-56 945.898,-32.3147 699.887,-17.6068 604.9,-12.7672"/>
<polygon fill="midnightblue" stroke="midnightblue" points="605.037,-9.26973 594.874,-12.2646 604.686,-16.261 605.037,-9.26973"/>
</g>
<!-- Node16&#45;&gt;Node3 -->
<g id="edge29" class="edge"><title>Node16&#45;&gt;Node3</title>
<path fill="none" stroke="midnightblue" d="M800.769,-174.387C861.866,-156.008 987.722,-110.175 939.706,-56 917.707,-31.1802 694.704,-17.3479 604.89,-12.7475"/>
<polygon fill="midnightblue" stroke="midnightblue" points="605.032,-9.25031 594.869,-12.2444 604.681,-16.2415 605.032,-9.25031"/>
</g>
<!-- Node16&#45;&gt;Node8 -->
<g id="edge31" class="edge"><title>Node16&#45;&gt;Node8</title>
<path fill="none" stroke="midnightblue" d="M768.846,-174.403C768,-165.938 766.679,-152.728 765.588,-141.82"/>
<polygon fill="midnightblue" stroke="midnightblue" points="769.042,-141.183 764.564,-131.581 762.076,-141.879 769.042,-141.183"/>
</g>
<!-- Node16&#45;&gt;Node15 -->
<g id="edge30" class="edge"><title>Node16&#45;&gt;Node15</title>
<path fill="none" stroke="midnightblue" d="M801.513,-174.403C841.249,-163.664 909.237,-145.289 952.25,-133.664"/>
<polygon fill="midnightblue" stroke="midnightblue" points="953.346,-136.993 962.086,-131.005 951.519,-130.236 953.346,-136.993"/>
</g>
<!-- Node17&#45;&gt;Node3 -->
<g id="edge33" class="edge"><title>Node17&#45;&gt;Node3</title>
<path fill="none" stroke="midnightblue" d="M1156.12,-174.225C1159.34,-150.886 1164.43,-86.9568 1129.71,-56 1090.61,-21.1433 724.023,-13.1162 604.9,-11.4212"/>
<polygon fill="midnightblue" stroke="midnightblue" points="604.853,-7.92034 594.807,-11.2845 604.758,-14.9197 604.853,-7.92034"/>
</g>
<!-- Node17&#45;&gt;Node6 -->
<g id="edge35" class="edge"><title>Node17&#45;&gt;Node6</title>
<path fill="none" stroke="midnightblue" d="M1146.83,-174.403C1138.41,-165.225 1124.89,-150.47 1114.48,-139.117"/>
<polygon fill="midnightblue" stroke="midnightblue" points="1116.91,-136.587 1107.57,-131.581 1111.75,-141.317 1116.91,-136.587"/>
</g>
<!-- Node18 -->
<g id="node18" class="node"><title>Node18</title>
<polygon fill="white" stroke="#bfbfbf" points="1316.21,-112.5 1316.21,-131.5 1357.21,-131.5 1357.21,-112.5 1316.21,-112.5"/>
<text text-anchor="middle" x="1336.71" y="-119.5" font-family="Helvetica,sans-Serif" font-size="10.00">string</text>
</g>
<!-- Node17&#45;&gt;Node18 -->
<g id="edge34" class="edge"><title>Node17&#45;&gt;Node18</title>
<path fill="none" stroke="midnightblue" d="M1180.78,-174.403C1213.97,-163.462 1271.2,-144.594 1306.33,-133.015"/>
<polygon fill="midnightblue" stroke="midnightblue" points="1307.64,-136.268 1316.04,-129.813 1305.45,-129.62 1307.64,-136.268"/>
</g>
<!-- Node19 -->
<g id="node19" class="node"><title>Node19</title>
<polygon fill="white" stroke="#bfbfbf" points="1178.21,-112.5 1178.21,-131.5 1237.21,-131.5 1237.21,-112.5 1178.21,-112.5"/>
<text text-anchor="middle" x="1207.71" y="-119.5" font-family="Helvetica,sans-Serif" font-size="10.00">stdexcept</text>
</g>
<!-- Node17&#45;&gt;Node19 -->
<g id="edge36" class="edge"><title>Node17&#45;&gt;Node19</title>
<path fill="none" stroke="midnightblue" d="M1162.3,-174.403C1170.41,-165.225 1183.44,-150.47 1193.47,-139.117"/>
<polygon fill="midnightblue" stroke="midnightblue" points="1196.13,-141.392 1200.13,-131.581 1190.88,-136.758 1196.13,-141.392"/>
</g>
<!-- Node20 -->
<g id="node20" class="node"><title>Node20</title>
<polygon fill="white" stroke="#bfbfbf" points="1255.21,-112.5 1255.21,-131.5 1298.21,-131.5 1298.21,-112.5 1255.21,-112.5"/>
<text text-anchor="middle" x="1276.71" y="-119.5" font-family="Helvetica,sans-Serif" font-size="10.00">cstdio</text>
</g>
<!-- Node17&#45;&gt;Node20 -->
<g id="edge37" class="edge"><title>Node17&#45;&gt;Node20</title>
<path fill="none" stroke="midnightblue" d="M1172.19,-174.403C1192.57,-164.379 1226.48,-147.701 1250.13,-136.07"/>
<polygon fill="midnightblue" stroke="midnightblue" points="1251.83,-139.135 1259.26,-131.581 1248.74,-132.853 1251.83,-139.135"/>
</g>
</g>
</svg>
        <g id="navigator" transform="translate(0 0)" fill="#404254">
                <rect fill="#f2f5e9" fill-opacity="0.5" stroke="#606060" stroke-width=".5" x="0" y="0" width="60" height="60"/>
                <use id="zoomplus" xlink:href="#zoomPlus" x="17" y="9" onmousedown="handleZoom(evt,'in')"/>
                <use id="zoomminus" xlink:href="#zoomMin" x="42" y="9" onmousedown="handleZoom(evt,'out')"/>
                <use id="reset" xlink:href="#resetDef" x="30" y="36" onmousedown="handleReset()"/>
                <g id="arrowUp" xlink:href="#dirArrow" transform="translate(30 24)" onmousedown="handlePan(0,-1)">
                  <use xlink:href="#rim" fill="#404040">
                        <set attributeName="fill" to="#808080" begin="arrowUp.mouseover" end="arrowUp.mouseout"/>
                  </use>
                  <path fill="none" stroke="white" stroke-width="1.5" d="M0,-3.0v7 M-2.5,-0.5L0,-3.0L2.5,-0.5"/>
                </g>
                <g id="arrowRight" xlink:href="#dirArrow" transform="rotate(90) translate(36 -43)" onmousedown="handlePan(1,0)">
                  <use xlink:href="#rim" fill="#404040">
                        <set attributeName="fill" to="#808080" begin="arrowRight.mouseover" end="arrowRight.mouseout"/>
                  </use>
                  <path fill="none" stroke="white" stroke-width="1.5" d="M0,-3.0v7 M-2.5,-0.5L0,-3.0L2.5,-0.5"/>
                </g>
                <g id="arrowDown" xlink:href="#dirArrow" transform="rotate(180) translate(-30 -48)" onmousedown="handlePan(0,1)">
                  <use xlink:href="#rim" fill="#404040">
                        <set attributeName="fill" to="#808080" begin="arrowDown.mouseover" end="arrowDown.mouseout"/>
                  </use>
                  <path fill="none" stroke="white" stroke-width="1.5" d="M0,-3.0v7 M-2.5,-0.5L0,-3.0L2.5,-0.5"/>
                </g>
                <g id="arrowLeft" xlink:href="#dirArrow" transform="rotate(270) translate(-36 17)" onmousedown="handlePan(-1,0)">
                  <use xlink:href="#rim" fill="#404040">
                        <set attributeName="fill" to="#808080" begin="arrowLeft.mouseover" end="arrowLeft.mouseout"/>
                  </use>
                  <path fill="none" stroke="white" stroke-width="1.5" d="M0,-3.0v7 M-2.5,-0.5L0,-3.0L2.5,-0.5"/>
                </g>
        </g>
        <svg viewBox="0 0 15 15" width="100%" height="30px" preserveAspectRatio="xMaxYMin meet">
         <g id="arrow_out" transform="scale(0.3 0.3)">
          <a xlink:href="CInterface__SimuladorTelha_8h__incl_org.svg" target="_base">
           <rect id="button" ry="5" rx="5" y="6" x="6" height="38" width="38"
                fill="#f2f5e9" fill-opacity="0.5" stroke="#606060" stroke-width="1.0"/>
           <path id="arrow"
             d="M 11.500037,31.436501 C 11.940474,20.09759 22.043105,11.32322 32.158766,21.979434 L 37.068811,17.246167 C 37.068811,17.246167 37.088388,32 37.088388,32 L 22.160133,31.978069 C 22.160133,31.978069 26.997745,27.140456 26.997745,27.140456 C 18.528582,18.264221 13.291696,25.230495 11.500037,31.436501 z"
             style="fill:#404040;"/>
          </a>
         </g>
        </svg>
</svg>
