<?xml version="1.0" encoding="UTF-8" standalone="no"?>
<!DOCTYPE svg PUBLIC "-//W3C//DTD SVG 1.1//EN"
 "http://www.w3.org/Graphics/SVG/1.1/DTD/svg11.dtd">
<!-- Generated by graphviz version 2.34.0 (20140110.0949)
 -->
<!-- Title: Gnuplot::Grid Pages: 1 -->
<svg width="332pt" height="66pt"
 viewBox="0.00 0.00 332.00 66.00" xmlns="http://www.w3.org/2000/svg" xmlns:xlink="http://www.w3.org/1999/xlink">
<g id="graph0" class="graph" transform="scale(1 1) rotate(0) translate(4 62)">
<title>Gnuplot::Grid</title>
<polygon fill="white" stroke="white" points="-4,4 -4,-62 328,-62 328,4 -4,4"/>
<!-- Node1 -->
<g id="node1" class="node"><title>Node1</title>
<polygon fill="#bfbfbf" stroke="black" points="0,-19.5 0,-38.5 74,-38.5 74,-19.5 0,-19.5"/>
<text text-anchor="middle" x="37" y="-26.5" font-family="Helvetica,sans-Serif" font-size="10.00">Gnuplot::Grid</text>
</g>
<!-- Node2 -->
<g id="node2" class="node"><title>Node2</title>
<g id="a_node2"><a xlink:href="classGnuplot.xhtml#a4b7245b12dad1c0ef326e5f59eb83001" target="_top" xlink:title="Ativa o grid (padrao = desativado). ">
<polygon fill="white" stroke="black" points="115.5,-38.5 115.5,-57.5 206.5,-57.5 206.5,-38.5 115.5,-38.5"/>
<text text-anchor="middle" x="161" y="-45.5" font-family="Helvetica,sans-Serif" font-size="10.00">Gnuplot::set_grid</text>
</a>
</g>
</g>
<!-- Node1&#45;&gt;Node2 -->
<g id="edge1" class="edge"><title>Node1&#45;&gt;Node2</title>
<path fill="none" stroke="midnightblue" d="M74.2737,-34.6492C84.0676,-36.1745 94.8852,-37.8592 105.442,-39.5033"/>
<polygon fill="midnightblue" stroke="midnightblue" points="105.023,-42.9802 115.443,-41.0608 106.1,-36.0635 105.023,-42.9802"/>
</g>
<!-- Node4 -->
<g id="node4" class="node"><title>Node4</title>
<g id="a_node4"><a xlink:href="classGnuplot.xhtml#a8b9a16d5793c3f4939b917b2c263860c" target="_top" xlink:title="Desativa o grid (padrao = desativado). ">
<polygon fill="white" stroke="black" points="110.5,-0.5 110.5,-19.5 211.5,-19.5 211.5,-0.5 110.5,-0.5"/>
<text text-anchor="middle" x="161" y="-7.5" font-family="Helvetica,sans-Serif" font-size="10.00">Gnuplot::unset_grid</text>
</a>
</g>
</g>
<!-- Node1&#45;&gt;Node4 -->
<g id="edge3" class="edge"><title>Node1&#45;&gt;Node4</title>
<path fill="none" stroke="midnightblue" d="M74.2737,-23.3508C82.439,-22.0792 91.3157,-20.6967 100.16,-19.3193"/>
<polygon fill="midnightblue" stroke="midnightblue" points="100.75,-22.7698 110.092,-17.7726 99.6724,-15.8532 100.75,-22.7698"/>
</g>
<!-- Node3 -->
<g id="node3" class="node"><title>Node3</title>
<g id="a_node3"><a xlink:href="classGnuplot.xhtml#a07607803ede8dd5416906df0a1924fc5" target="_top" xlink:title="Envia comando para o gnuplot. ">
<polygon fill="white" stroke="black" points="248.5,-19.5 248.5,-38.5 323.5,-38.5 323.5,-19.5 248.5,-19.5"/>
<text text-anchor="middle" x="286" y="-26.5" font-family="Helvetica,sans-Serif" font-size="10.00">Gnuplot::cmd</text>
</a>
</g>
</g>
<!-- Node2&#45;&gt;Node3 -->
<g id="edge2" class="edge"><title>Node2&#45;&gt;Node3</title>
<path fill="none" stroke="midnightblue" d="M206.754,-41.0868C216.954,-39.5112 227.82,-37.8327 238.107,-36.2437"/>
<polygon fill="midnightblue" stroke="midnightblue" points="238.806,-39.6772 248.155,-34.6916 237.737,-32.7593 238.806,-39.6772"/>
</g>
<!-- Node4&#45;&gt;Node3 -->
<g id="edge4" class="edge"><title>Node4&#45;&gt;Node3</title>
<path fill="none" stroke="midnightblue" d="M211.674,-17.6733C220.492,-19.0353 229.647,-20.4495 238.376,-21.7979"/>
<polygon fill="midnightblue" stroke="midnightblue" points="237.965,-25.2759 248.382,-23.3436 239.034,-18.3579 237.965,-25.2759"/>
</g>
</g>
</svg>
