<?xml version="1.0" encoding="UTF-8" standalone="no"?>
<!DOCTYPE svg PUBLIC "-//W3C//DTD SVG 1.1//EN"
 "http://www.w3.org/Graphics/SVG/1.1/DTD/svg11.dtd">
<!-- Generated by graphviz version 2.34.0 (20140110.0949)
 -->
<!-- Title: CMeioPoroso_Telha::EntrarDadosObjeto Pages: 1 -->
<svg width="488pt" height="38pt"
 viewBox="0.00 0.00 488.00 38.00" xmlns="http://www.w3.org/2000/svg" xmlns:xlink="http://www.w3.org/1999/xlink">
<g id="graph0" class="graph" transform="scale(1 1) rotate(0) translate(4 34)">
<title>CMeioPoroso_Telha::EntrarDadosObjeto</title>
<polygon fill="white" stroke="white" points="-4,4 -4,-34 484,-34 484,4 -4,4"/>
<!-- Node1 -->
<g id="node1" class="node"><title>Node1</title>
<polygon fill="#bfbfbf" stroke="black" points="0.5,-0 0.5,-30 111.5,-30 111.5,-0 0.5,-0"/>
<text text-anchor="start" x="8.5" y="-18" font-family="Helvetica,sans-Serif" font-size="10.00">CMeioPoroso_Telha::</text>
<text text-anchor="middle" x="56" y="-7" font-family="Helvetica,sans-Serif" font-size="10.00">EntrarDadosObjeto</text>
</g>
<!-- Node2 -->
<g id="node2" class="node"><title>Node2</title>
<g id="a_node2"><a xlink:href="classCMeioPoroso__Telha__Discretizada__TDMA.xhtml#aaec5a7e2f667ae2c8dccdafa5938aea9" target="_top" xlink:title="Entrada de dados. ">
<polygon fill="white" stroke="black" points="148.5,-0 148.5,-30 313.5,-30 313.5,-0 148.5,-0"/>
<text text-anchor="start" x="156.5" y="-18" font-family="Helvetica,sans-Serif" font-size="10.00">CMeioPoroso_Telha_Discretizada</text>
<text text-anchor="middle" x="231" y="-7" font-family="Helvetica,sans-Serif" font-size="10.00">_TDMA::EntrarDadosObjeto</text>
</a>
</g>
</g>
<!-- Node1&#45;&gt;Node2 -->
<g id="edge1" class="edge"><title>Node1&#45;&gt;Node2</title>
<path fill="none" stroke="midnightblue" d="M121.784,-15C130.484,-15 139.497,-15 148.439,-15"/>
<polygon fill="midnightblue" stroke="midnightblue" points="121.738,-11.5001 111.738,-15 121.738,-18.5001 121.738,-11.5001"/>
</g>
<!-- Node3 -->
<g id="node3" class="node"><title>Node3</title>
<g id="a_node3"><a xlink:href="classCSimulador__Telha.xhtml#ad3ec0d6df9f0f7325de23d6a04e3b76a" target="_top" xlink:title="Entrada de dados. ">
<polygon fill="white" stroke="black" points="350.5,-0 350.5,-30 479.5,-30 479.5,-0 350.5,-0"/>
<text text-anchor="start" x="358.5" y="-18" font-family="Helvetica,sans-Serif" font-size="10.00">CSimulador_Telha::Entrar</text>
<text text-anchor="middle" x="415" y="-7" font-family="Helvetica,sans-Serif" font-size="10.00">DadosObjeto</text>
</a>
</g>
</g>
<!-- Node2&#45;&gt;Node3 -->
<g id="edge2" class="edge"><title>Node2&#45;&gt;Node3</title>
<path fill="none" stroke="midnightblue" d="M323.794,-15C332.761,-15 341.718,-15 350.316,-15"/>
<polygon fill="midnightblue" stroke="midnightblue" points="323.684,-11.5001 313.683,-15 323.683,-18.5001 323.684,-11.5001"/>
</g>
</g>
</svg>
