<?xml version="1.0" encoding="UTF-8" standalone="no"?>
<!DOCTYPE svg PUBLIC "-//W3C//DTD SVG 1.1//EN"
 "http://www.w3.org/Graphics/SVG/1.1/DTD/svg11.dtd">
<!-- Generated by graphviz version 2.34.0 (20140110.0949)
 -->
<!-- Title: CSimulador_Telha::CSimulador_Telha Pages: 1 -->
<!--zoomable 180 -->
<svg id="main" version="1.1" xmlns="http://www.w3.org/2000/svg" xmlns:xlink="http://www.w3.org/1999/xlink" xml:space="preserve" onload="init(evt)">
<style type="text/css"><![CDATA[
.edge:hover path { stroke: red; }
.edge:hover polygon { stroke: red; fill: red; }
]]></style>
<script type="text/javascript"><![CDATA[
var edges = document.getElementsByTagName('g');
if (edges && edges.length) {
  for (var i=0;i<edges.length;i++) {
    if (edges[i].id.substr(0,4)=='edge') {
      edges[i].setAttribute('class','edge');
    }
  }
}
]]></script>
        <defs>
                <circle id="rim" cx="0" cy="0" r="7"/>
                <circle id="rim2" cx="0" cy="0" r="3.5"/>
                <g id="zoomPlus">
                        <use xlink:href="#rim" fill="#404040">
                                <set attributeName="fill" to="#808080" begin="zoomplus.mouseover" end="zoomplus.mouseout"/>
                        </use>
                        <path d="M-4,0h8M0,-4v8" fill="none" stroke="white" stroke-width="1.5" pointer-events="none"/>
                </g>
                <g id="zoomMin">
                        <use xlink:href="#rim" fill="#404040">
                                <set attributeName="fill" to="#808080" begin="zoomminus.mouseover" end="zoomminus.mouseout"/>
                        </use>
                        <path d="M-4,0h8" fill="none" stroke="white" stroke-width="1.5" pointer-events="none"/>
                </g>
                <g id="dirArrow">
                        <path fill="none" stroke="white" stroke-width="1.5" d="M0,-3.0v7 M-2.5,-0.5L0,-3.0L2.5,-0.5"/>
                </g>
               <g id="resetDef">
                       <use xlink:href="#rim2" fill="#404040">
                               <set attributeName="fill" to="#808080" begin="reset.mouseover" end="reset.mouseout"/>
                       </use>
               </g>
        </defs>

<script type="text/javascript">
var viewWidth = 712;
var viewHeight = 180;
var sectionId = 'dynsection-2';
</script>
<script xlink:href="svgpan.js"/>
<svg id="graph" class="graph">
<g id="viewport">
<title>CSimulador_Telha::CSimulador_Telha</title>
<polygon fill="white" stroke="white" points="-4,4 -4,-176 708,-176 708,4 -4,4"/>
<!-- Node1 -->
<g id="node1" class="node"><title>Node1</title>
<polygon fill="#bfbfbf" stroke="black" points="0,-49 0,-79 154,-79 154,-49 0,-49"/>
<text text-anchor="start" x="8" y="-67" font-family="Helvetica,sans-Serif" font-size="10.00">CSimulador_Telha::CSimulador</text>
<text text-anchor="middle" x="77" y="-56" font-family="Helvetica,sans-Serif" font-size="10.00">_Telha</text>
</g>
<!-- Node2 -->
<g id="node2" class="node"><title>Node2</title>
<g id="a_node2"><a xlink:href="classCSimulador__Telha.xhtml#aa2592b5ca7cce1ac595cc3a658a17c85" target="_top" xlink:title="Dados default. ">
<polygon fill="white" stroke="black" points="190.5,-98.5 190.5,-117.5 353.5,-117.5 353.5,-98.5 190.5,-98.5"/>
<text text-anchor="middle" x="272" y="-105.5" font-family="Helvetica,sans-Serif" font-size="10.00">CSimulador_Telha::DadosDefault</text>
</a>
</g>
</g>
<!-- Node1&#45;&gt;Node2 -->
<g id="edge1" class="edge"><title>Node1&#45;&gt;Node2</title>
<path fill="none" stroke="midnightblue" d="M143.88,-79.0192C168.517,-84.636 196.125,-90.93 219.301,-96.2137"/>
<polygon fill="midnightblue" stroke="midnightblue" points="218.747,-99.6772 229.275,-98.4876 220.303,-92.8523 218.747,-99.6772"/>
</g>
<!-- Node7 -->
<g id="node7" class="node"><title>Node7</title>
<g id="a_node7"><a xlink:href="classCFuncaoConteudoMassicoWl.xhtml#ad0485b0cfceadae594c9f7dbe3e92ea2" target="_top" xlink:title="Seta ponteiro para fluido. ">
<polygon fill="white" stroke="black" points="198.5,-49 198.5,-79 345.5,-79 345.5,-49 198.5,-49"/>
<text text-anchor="start" x="206.5" y="-67" font-family="Helvetica,sans-Serif" font-size="10.00">CFuncaoConteudoMassicoWl</text>
<text text-anchor="middle" x="272" y="-56" font-family="Helvetica,sans-Serif" font-size="10.00">::Fluido</text>
</a>
</g>
</g>
<!-- Node1&#45;&gt;Node7 -->
<g id="edge6" class="edge"><title>Node1&#45;&gt;Node7</title>
<path fill="none" stroke="midnightblue" d="M154.002,-64C165.147,-64 176.675,-64 187.952,-64"/>
<polygon fill="midnightblue" stroke="midnightblue" points="188.221,-67.5001 198.221,-64 188.221,-60.5001 188.221,-67.5001"/>
</g>
<!-- Node8 -->
<g id="node8" class="node"><title>Node8</title>
<g id="a_node8"><a xlink:href="classCFuncaoConteudoMassicoWl.xhtml#a38d3306cbf1c7fe80143f4efccc4ca63" target="_top" xlink:title="Seta ponteiro para telha. ">
<polygon fill="white" stroke="black" points="198.5,-0 198.5,-30 345.5,-30 345.5,-0 198.5,-0"/>
<text text-anchor="start" x="206.5" y="-18" font-family="Helvetica,sans-Serif" font-size="10.00">CFuncaoConteudoMassicoWl</text>
<text text-anchor="middle" x="272" y="-7" font-family="Helvetica,sans-Serif" font-size="10.00">::Telha</text>
</a>
</g>
</g>
<!-- Node1&#45;&gt;Node8 -->
<g id="edge7" class="edge"><title>Node1&#45;&gt;Node8</title>
<path fill="none" stroke="midnightblue" d="M137.218,-48.9654C157.689,-43.7682 180.804,-37.8994 201.991,-32.5204"/>
<polygon fill="midnightblue" stroke="midnightblue" points="203.063,-35.8594 211.894,-30.0062 201.34,-29.0747 203.063,-35.8594"/>
</g>
<!-- Node3 -->
<g id="node3" class="node"><title>Node3</title>
<g id="a_node3"><a xlink:href="classCMeioPoroso__Telha__Discretizada__TDMA.xhtml#a6a9a0e50cbd1c9abb1c097ef548954a4" target="_top" xlink:title="Dados default. ">
<polygon fill="white" stroke="black" points="390.5,-142 390.5,-172 555.5,-172 555.5,-142 390.5,-142"/>
<text text-anchor="start" x="398.5" y="-160" font-family="Helvetica,sans-Serif" font-size="10.00">CMeioPoroso_Telha_Discretizada</text>
<text text-anchor="middle" x="473" y="-149" font-family="Helvetica,sans-Serif" font-size="10.00">_TDMA::DadosDefault</text>
</a>
</g>
</g>
<!-- Node2&#45;&gt;Node3 -->
<g id="edge2" class="edge"><title>Node2&#45;&gt;Node3</title>
<path fill="none" stroke="midnightblue" d="M311.842,-117.564C337.146,-123.795 370.914,-132.109 400.918,-139.497"/>
<polygon fill="midnightblue" stroke="midnightblue" points="400.385,-142.971 410.932,-141.963 402.058,-136.174 400.385,-142.971"/>
</g>
<!-- Node5 -->
<g id="node5" class="node"><title>Node5</title>
<g id="a_node5"><a xlink:href="classCTransferenciaCalorMassa.xhtml#a2c400d0fbb10492c2b940e6251c2011e" target="_top" xlink:title="Dados default. ">
<polygon fill="white" stroke="black" points="405,-93 405,-123 541,-123 541,-93 405,-93"/>
<text text-anchor="start" x="413" y="-111" font-family="Helvetica,sans-Serif" font-size="10.00">CTransferenciaCalorMassa</text>
<text text-anchor="middle" x="473" y="-100" font-family="Helvetica,sans-Serif" font-size="10.00">::DadosDefault</text>
</a>
</g>
</g>
<!-- Node2&#45;&gt;Node5 -->
<g id="edge4" class="edge"><title>Node2&#45;&gt;Node5</title>
<path fill="none" stroke="midnightblue" d="M353.654,-108C367.219,-108 381.269,-108 394.745,-108"/>
<polygon fill="midnightblue" stroke="midnightblue" points="394.921,-111.5 404.921,-108 394.921,-104.5 394.921,-111.5"/>
</g>
<!-- Node6 -->
<g id="node6" class="node"><title>Node6</title>
<g id="a_node6"><a xlink:href="classCSolver__TDMA.xhtml#a06cfc18536df7e616efed8262809f99c" target="_top" xlink:title="Dados default. ">
<polygon fill="white" stroke="black" points="397,-54.5 397,-73.5 549,-73.5 549,-54.5 397,-54.5"/>
<text text-anchor="middle" x="473" y="-61.5" font-family="Helvetica,sans-Serif" font-size="10.00">CSolver_TDMA::DadosDefault</text>
</a>
</g>
</g>
<!-- Node2&#45;&gt;Node6 -->
<g id="edge5" class="edge"><title>Node2&#45;&gt;Node6</title>
<path fill="none" stroke="midnightblue" d="M316.18,-98.4527C346.299,-91.7931 386.685,-82.8637 418.794,-75.7642"/>
<polygon fill="midnightblue" stroke="midnightblue" points="419.896,-79.1052 428.904,-73.5287 418.384,-72.2702 419.896,-79.1052"/>
</g>
<!-- Node4 -->
<g id="node4" class="node"><title>Node4</title>
<g id="a_node4"><a xlink:href="classCMeioPoroso__Telha.xhtml#a50594076983c72b8963c80bd9483239c" target="_top" xlink:title="Dados default. ">
<polygon fill="white" stroke="black" points="592.5,-142 592.5,-172 703.5,-172 703.5,-142 592.5,-142"/>
<text text-anchor="start" x="600.5" y="-160" font-family="Helvetica,sans-Serif" font-size="10.00">CMeioPoroso_Telha::</text>
<text text-anchor="middle" x="648" y="-149" font-family="Helvetica,sans-Serif" font-size="10.00">DadosDefault</text>
</a>
</g>
</g>
<!-- Node3&#45;&gt;Node4 -->
<g id="edge3" class="edge"><title>Node3&#45;&gt;Node4</title>
<path fill="none" stroke="midnightblue" d="M555.687,-157C564.616,-157 573.614,-157 582.298,-157"/>
<polygon fill="midnightblue" stroke="midnightblue" points="582.326,-160.5 592.326,-157 582.326,-153.5 582.326,-160.5"/>
</g>
</g>
</svg>
        <g id="navigator" transform="translate(0 0)" fill="#404254">
                <rect fill="#f2f5e9" fill-opacity="0.5" stroke="#606060" stroke-width=".5" x="0" y="0" width="60" height="60"/>
                <use id="zoomplus" xlink:href="#zoomPlus" x="17" y="9" onmousedown="handleZoom(evt,'in')"/>
                <use id="zoomminus" xlink:href="#zoomMin" x="42" y="9" onmousedown="handleZoom(evt,'out')"/>
                <use id="reset" xlink:href="#resetDef" x="30" y="36" onmousedown="handleReset()"/>
                <g id="arrowUp" xlink:href="#dirArrow" transform="translate(30 24)" onmousedown="handlePan(0,-1)">
                  <use xlink:href="#rim" fill="#404040">
                        <set attributeName="fill" to="#808080" begin="arrowUp.mouseover" end="arrowUp.mouseout"/>
                  </use>
                  <path fill="none" stroke="white" stroke-width="1.5" d="M0,-3.0v7 M-2.5,-0.5L0,-3.0L2.5,-0.5"/>
                </g>
                <g id="arrowRight" xlink:href="#dirArrow" transform="rotate(90) translate(36 -43)" onmousedown="handlePan(1,0)">
                  <use xlink:href="#rim" fill="#404040">
                        <set attributeName="fill" to="#808080" begin="arrowRight.mouseover" end="arrowRight.mouseout"/>
                  </use>
                  <path fill="none" stroke="white" stroke-width="1.5" d="M0,-3.0v7 M-2.5,-0.5L0,-3.0L2.5,-0.5"/>
                </g>
                <g id="arrowDown" xlink:href="#dirArrow" transform="rotate(180) translate(-30 -48)" onmousedown="handlePan(0,1)">
                  <use xlink:href="#rim" fill="#404040">
                        <set attributeName="fill" to="#808080" begin="arrowDown.mouseover" end="arrowDown.mouseout"/>
                  </use>
                  <path fill="none" stroke="white" stroke-width="1.5" d="M0,-3.0v7 M-2.5,-0.5L0,-3.0L2.5,-0.5"/>
                </g>
                <g id="arrowLeft" xlink:href="#dirArrow" transform="rotate(270) translate(-36 17)" onmousedown="handlePan(-1,0)">
                  <use xlink:href="#rim" fill="#404040">
                        <set attributeName="fill" to="#808080" begin="arrowLeft.mouseover" end="arrowLeft.mouseout"/>
                  </use>
                  <path fill="none" stroke="white" stroke-width="1.5" d="M0,-3.0v7 M-2.5,-0.5L0,-3.0L2.5,-0.5"/>
                </g>
        </g>
        <svg viewBox="0 0 15 15" width="100%" height="30px" preserveAspectRatio="xMaxYMin meet">
         <g id="arrow_out" transform="scale(0.3 0.3)">
          <a xlink:href="classCSimulador__Telha_a929740512badcd0448ec9fbf319dd281_cgraph_org.svg" target="_base">
           <rect id="button" ry="5" rx="5" y="6" x="6" height="38" width="38"
                fill="#f2f5e9" fill-opacity="0.5" stroke="#606060" stroke-width="1.0"/>
           <path id="arrow"
             d="M 11.500037,31.436501 C 11.940474,20.09759 22.043105,11.32322 32.158766,21.979434 L 37.068811,17.246167 C 37.068811,17.246167 37.088388,32 37.088388,32 L 22.160133,31.978069 C 22.160133,31.978069 26.997745,27.140456 26.997745,27.140456 C 18.528582,18.264221 13.291696,25.230495 11.500037,31.436501 z"
             style="fill:#404040;"/>
          </a>
         </g>
        </svg>
</svg>
