<?xml version="1.0" encoding="UTF-8" standalone="no"?>
<!DOCTYPE svg PUBLIC "-//W3C//DTD SVG 1.1//EN"
 "http://www.w3.org/Graphics/SVG/1.1/DTD/svg11.dtd">
<!-- Generated by graphviz version 2.34.0 (20140110.0949)
 -->
<!-- Title: CFuncaoDifusividade Pages: 1 -->
<svg width="138pt" height="228pt"
 viewBox="0.00 0.00 138.00 228.00" xmlns="http://www.w3.org/2000/svg" xmlns:xlink="http://www.w3.org/1999/xlink">
<g id="graph0" class="graph" transform="scale(1 1) rotate(0) translate(4 224)">
<title>CFuncaoDifusividade</title>
<polygon fill="white" stroke="white" points="-4,4 -4,-224 134,-224 134,4 -4,4"/>
<!-- Node1 -->
<g id="node1" class="node"><title>Node1</title>
<polygon fill="#bfbfbf" stroke="black" points="-0.5,-1 -0.5,-113 130.5,-113 130.5,-1 -0.5,-1"/>
<text text-anchor="middle" x="65" y="-101" font-family="Helvetica,sans-Serif" font-size="10.00">CFuncaoDifusividade</text>
<polyline fill="none" stroke="black" points="-0.5,-94 130.5,-94 "/>
<text text-anchor="middle" x="65" y="-82" font-family="Helvetica,sans-Serif" font-size="10.00"> </text>
<polyline fill="none" stroke="black" points="-0.5,-75 130.5,-75 "/>
<text text-anchor="start" x="7.5" y="-63" font-family="Helvetica,sans-Serif" font-size="10.00">+ CFuncaoDifusividade()</text>
<text text-anchor="start" x="7.5" y="-52" font-family="Helvetica,sans-Serif" font-size="10.00">+ ~CFuncaoDifusividade()</text>
<text text-anchor="start" x="7.5" y="-41" font-family="Helvetica,sans-Serif" font-size="10.00">+ DadosDefault()</text>
<text text-anchor="start" x="7.5" y="-30" font-family="Helvetica,sans-Serif" font-size="10.00">+ EntrarDadosFuncao()</text>
<text text-anchor="start" x="7.5" y="-19" font-family="Helvetica,sans-Serif" font-size="10.00">+ Difusividade()</text>
<text text-anchor="start" x="7.5" y="-8" font-family="Helvetica,sans-Serif" font-size="10.00">+ operator()()</text>
</g>
<!-- Node2 -->
<g id="node2" class="node"><title>Node2</title>
<polygon fill="white" stroke="#bfbfbf" points="42.5,-162.5 42.5,-219.5 87.5,-219.5 87.5,-162.5 42.5,-162.5"/>
<text text-anchor="middle" x="65" y="-207.5" font-family="Helvetica,sans-Serif" font-size="10.00">double</text>
<polyline fill="none" stroke="#bfbfbf" points="42.5,-200.5 87.5,-200.5 "/>
<text text-anchor="middle" x="65" y="-188.5" font-family="Helvetica,sans-Serif" font-size="10.00"> </text>
<polyline fill="none" stroke="#bfbfbf" points="42.5,-181.5 87.5,-181.5 "/>
<text text-anchor="middle" x="65" y="-169.5" font-family="Helvetica,sans-Serif" font-size="10.00"> </text>
</g>
<!-- Node2&#45;&gt;Node1 -->
<g id="edge1" class="edge"><title>Node2&#45;&gt;Node1</title>
<path fill="none" stroke="#404040" d="M65,-162.328C65,-151.389 65,-138.3 65,-125.15"/>
<polygon fill="none" stroke="#404040" points="65.0001,-125.116 61,-119.116 65,-113.116 69,-119.116 65.0001,-125.116"/>
<text text-anchor="middle" x="77.5" y="-135.5" font-family="Helvetica,sans-Serif" font-size="10.00"> #cdif</text>
</g>
</g>
</svg>
