<?xml version="1.0" encoding="UTF-8" standalone="no"?>
<!DOCTYPE svg PUBLIC "-//W3C//DTD SVG 1.1//EN"
 "http://www.w3.org/Graphics/SVG/1.1/DTD/svg11.dtd">
<!-- Generated by graphviz version 2.34.0 (20140110.0949)
 -->
<!-- Title: CFuncoesClima::EntrarDadosObjeto Pages: 1 -->
<svg width="544pt" height="77pt"
 viewBox="0.00 0.00 544.00 77.00" xmlns="http://www.w3.org/2000/svg" xmlns:xlink="http://www.w3.org/1999/xlink">
<g id="graph0" class="graph" transform="scale(1 1) rotate(0) translate(4 73)">
<title>CFuncoesClima::EntrarDadosObjeto</title>
<polygon fill="white" stroke="white" points="-4,4 -4,-73 540,-73 540,4 -4,4"/>
<!-- Node1 -->
<g id="node1" class="node"><title>Node1</title>
<polygon fill="#bfbfbf" stroke="black" points="0,-22 0,-52 148,-52 148,-22 0,-22"/>
<text text-anchor="start" x="8" y="-40" font-family="Helvetica,sans-Serif" font-size="10.00">CFuncoesClima::EntrarDados</text>
<text text-anchor="middle" x="74" y="-29" font-family="Helvetica,sans-Serif" font-size="10.00">Objeto</text>
</g>
<!-- Node2 -->
<g id="node2" class="node"><title>Node2</title>
<g id="a_node2"><a xlink:href="classCInterface.xhtml#a34d1e9acbf3da248890eaa8a8a309384" target="_top" xlink:title="CInterface::Carimbo">
<polygon fill="white" stroke="black" points="210.5,-49.5 210.5,-68.5 315.5,-68.5 315.5,-49.5 210.5,-49.5"/>
<text text-anchor="middle" x="263" y="-56.5" font-family="Helvetica,sans-Serif" font-size="10.00">CInterface::Carimbo</text>
</a>
</g>
</g>
<!-- Node1&#45;&gt;Node2 -->
<g id="edge1" class="edge"><title>Node1&#45;&gt;Node2</title>
<path fill="none" stroke="midnightblue" d="M148.103,-45.6003C165.323,-47.6263 183.514,-49.7664 200.182,-51.7273"/>
<polygon fill="midnightblue" stroke="midnightblue" points="200.001,-55.23 210.341,-52.9225 200.819,-48.278 200.001,-55.23"/>
</g>
<!-- Node3 -->
<g id="node3" class="node"><title>Node3</title>
<g id="a_node3"><a xlink:href="classCTermodinamica.xhtml#a49362abf7162741c870620b9afbccf66" target="_top" xlink:title="Cálculo da concentração de vapor. ">
<polygon fill="white" stroke="black" points="184,-0 184,-30 342,-30 342,-0 184,-0"/>
<text text-anchor="start" x="192" y="-18" font-family="Helvetica,sans-Serif" font-size="10.00">CTermodinamica::Concentracao</text>
<text text-anchor="middle" x="263" y="-7" font-family="Helvetica,sans-Serif" font-size="10.00">Vapor</text>
</a>
</g>
</g>
<!-- Node1&#45;&gt;Node3 -->
<g id="edge2" class="edge"><title>Node1&#45;&gt;Node3</title>
<path fill="none" stroke="midnightblue" d="M148.103,-28.3997C156.496,-27.4122 165.12,-26.3976 173.686,-25.3899"/>
<polygon fill="midnightblue" stroke="midnightblue" points="174.175,-28.8566 183.697,-24.2121 173.357,-21.9046 174.175,-28.8566"/>
</g>
<!-- Node4 -->
<g id="node4" class="node"><title>Node4</title>
<g id="a_node4"><a xlink:href="classCTermodinamica.xhtml#ad71e178a8b77f553f5fb2631a509f790" target="_top" xlink:title="CTermodinamica::PressaoVapor">
<polygon fill="white" stroke="black" points="378,-5.5 378,-24.5 536,-24.5 536,-5.5 378,-5.5"/>
<text text-anchor="middle" x="457" y="-12.5" font-family="Helvetica,sans-Serif" font-size="10.00">CTermodinamica::PressaoVapor</text>
</a>
</g>
</g>
<!-- Node3&#45;&gt;Node4 -->
<g id="edge3" class="edge"><title>Node3&#45;&gt;Node4</title>
<path fill="none" stroke="midnightblue" d="M342.094,-15C350.601,-15 359.302,-15 367.918,-15"/>
<polygon fill="midnightblue" stroke="midnightblue" points="367.975,-18.5001 377.975,-15 367.975,-11.5001 367.975,-18.5001"/>
</g>
</g>
</svg>
