<?xml version="1.0" encoding="UTF-8" standalone="no"?>
<!DOCTYPE svg PUBLIC "-//W3C//DTD SVG 1.1//EN"
 "http://www.w3.org/Graphics/SVG/1.1/DTD/svg11.dtd">
<!-- Generated by graphviz version 2.34.0 (20140110.0949)
 -->
<!-- Title: CMeioPoroso_Telha_Discretizada_TDMA::EntrarDadosObjeto Pages: 1 -->
<svg width="464pt" height="60pt"
 viewBox="0.00 0.00 464.00 60.00" xmlns="http://www.w3.org/2000/svg" xmlns:xlink="http://www.w3.org/1999/xlink">
<g id="graph0" class="graph" transform="scale(1 1) rotate(0) translate(4 56)">
<title>CMeioPoroso_Telha_Discretizada_TDMA::EntrarDadosObjeto</title>
<polygon fill="white" stroke="white" points="-4,4 -4,-56 460,-56 460,4 -4,4"/>
<!-- Node1 -->
<g id="node1" class="node"><title>Node1</title>
<polygon fill="#bfbfbf" stroke="black" points="0.5,-22 0.5,-52 165.5,-52 165.5,-22 0.5,-22"/>
<text text-anchor="start" x="8.5" y="-40" font-family="Helvetica,sans-Serif" font-size="10.00">CMeioPoroso_Telha_Discretizada</text>
<text text-anchor="middle" x="83" y="-29" font-family="Helvetica,sans-Serif" font-size="10.00">_TDMA::EntrarDadosObjeto</text>
</g>
<!-- Node2 -->
<g id="node2" class="node"><title>Node2</title>
<g id="a_node2"><a xlink:href="classCInterface.xhtml#a34d1e9acbf3da248890eaa8a8a309384" target="_top" xlink:title="CInterface::Carimbo">
<polygon fill="white" stroke="black" points="350.5,-27.5 350.5,-46.5 455.5,-46.5 455.5,-27.5 350.5,-27.5"/>
<text text-anchor="middle" x="403" y="-34.5" font-family="Helvetica,sans-Serif" font-size="10.00">CInterface::Carimbo</text>
</a>
</g>
</g>
<!-- Node1&#45;&gt;Node2 -->
<g id="edge1" class="edge"><title>Node1&#45;&gt;Node2</title>
<path fill="none" stroke="midnightblue" d="M165.566,-38.5626C177.778,-38.7443 190.219,-38.9002 202,-39 251.776,-39.4218 264.225,-39.5655 314,-39 322.457,-38.9039 331.37,-38.7559 340.147,-38.5829"/>
<polygon fill="midnightblue" stroke="midnightblue" points="340.428,-42.0779 350.352,-38.3699 340.281,-35.0794 340.428,-42.0779"/>
</g>
<!-- Node3 -->
<g id="node3" class="node"><title>Node3</title>
<g id="a_node3"><a xlink:href="classCMeioPoroso__Telha.xhtml#a70735fb3dc927168aca84bb0cecb0023" target="_top" xlink:title="Entrada de dados. ">
<polygon fill="white" stroke="black" points="202.5,-0 202.5,-30 313.5,-30 313.5,-0 202.5,-0"/>
<text text-anchor="start" x="210.5" y="-18" font-family="Helvetica,sans-Serif" font-size="10.00">CMeioPoroso_Telha::</text>
<text text-anchor="middle" x="258" y="-7" font-family="Helvetica,sans-Serif" font-size="10.00">EntrarDadosObjeto</text>
</a>
</g>
</g>
<!-- Node1&#45;&gt;Node3 -->
<g id="edge2" class="edge"><title>Node1&#45;&gt;Node3</title>
<path fill="none" stroke="midnightblue" d="M165.687,-26.612C174.616,-25.4765 183.614,-24.3323 192.298,-23.228"/>
<polygon fill="midnightblue" stroke="midnightblue" points="192.847,-26.6864 202.326,-21.9528 191.964,-19.7424 192.847,-26.6864"/>
</g>
<!-- Node3&#45;&gt;Node2 -->
<g id="edge3" class="edge"><title>Node3&#45;&gt;Node2</title>
<path fill="none" stroke="midnightblue" d="M313.879,-23.4429C322.483,-24.7667 331.428,-26.1428 340.176,-27.4887"/>
<polygon fill="midnightblue" stroke="midnightblue" points="339.907,-30.9884 350.323,-29.0497 340.972,-24.0698 339.907,-30.9884"/>
</g>
</g>
</svg>
