<?xml version="1.0" encoding="UTF-8" standalone="no"?>
<!DOCTYPE svg PUBLIC "-//W3C//DTD SVG 1.1//EN"
 "http://www.w3.org/Graphics/SVG/1.1/DTD/svg11.dtd">
<!-- Generated by graphviz version 2.34.0 (20140110.0949)
 -->
<!-- Title: CFuncaoAdsorcao_Pablo Pages: 1 -->
<svg width="176pt" height="402pt"
 viewBox="0.00 0.00 176.00 402.00" xmlns="http://www.w3.org/2000/svg" xmlns:xlink="http://www.w3.org/1999/xlink">
<g id="graph0" class="graph" transform="scale(1 1) rotate(0) translate(4 398)">
<title>CFuncaoAdsorcao_Pablo</title>
<polygon fill="white" stroke="white" points="-4,4 -4,-398 172,-398 172,4 -4,4"/>
<!-- Node1 -->
<g id="node1" class="node"><title>Node1</title>
<polygon fill="#bfbfbf" stroke="black" points="-0.5,-1 -0.5,-91 148.5,-91 148.5,-1 -0.5,-1"/>
<text text-anchor="middle" x="74" y="-79" font-family="Helvetica,sans-Serif" font-size="10.00">CFuncaoAdsorcao_Pablo</text>
<polyline fill="none" stroke="black" points="-0.5,-72 148.5,-72 "/>
<text text-anchor="middle" x="74" y="-60" font-family="Helvetica,sans-Serif" font-size="10.00"> </text>
<polyline fill="none" stroke="black" points="-0.5,-53 148.5,-53 "/>
<text text-anchor="start" x="7.5" y="-41" font-family="Helvetica,sans-Serif" font-size="10.00">+ CFuncaoAdsorcao_Pablo()</text>
<text text-anchor="start" x="7.5" y="-30" font-family="Helvetica,sans-Serif" font-size="10.00">+ ~CFuncaoAdsorcao_Pablo()</text>
<text text-anchor="start" x="7.5" y="-19" font-family="Helvetica,sans-Serif" font-size="10.00">+ DadosDefault()</text>
<text text-anchor="start" x="7.5" y="-8" font-family="Helvetica,sans-Serif" font-size="10.00">+ ResultadosEnsaio()</text>
</g>
<!-- Node2 -->
<g id="node2" class="node"><title>Node2</title>
<g id="a_node2"><a xlink:href="classCFuncaoAdsorcao.xhtml" target="_top" xlink:title="por causa rotinas entrada saída ">
<polygon fill="white" stroke="black" points="12.5,-131 12.5,-265 135.5,-265 135.5,-131 12.5,-131"/>
<text text-anchor="middle" x="74" y="-253" font-family="Helvetica,sans-Serif" font-size="10.00">CFuncaoAdsorcao</text>
<polyline fill="none" stroke="black" points="12.5,-246 135.5,-246 "/>
<text text-anchor="middle" x="74" y="-234" font-family="Helvetica,sans-Serif" font-size="10.00"> </text>
<polyline fill="none" stroke="black" points="12.5,-227 135.5,-227 "/>
<text text-anchor="start" x="20.5" y="-215" font-family="Helvetica,sans-Serif" font-size="10.00">+ CFuncaoAdsorcao()</text>
<text text-anchor="start" x="20.5" y="-204" font-family="Helvetica,sans-Serif" font-size="10.00">+ ~CFuncaoAdsorcao()</text>
<text text-anchor="start" x="20.5" y="-193" font-family="Helvetica,sans-Serif" font-size="10.00">+ DadosDefault()</text>
<text text-anchor="start" x="20.5" y="-182" font-family="Helvetica,sans-Serif" font-size="10.00">+ EntrarDadosFuncao()</text>
<text text-anchor="start" x="20.5" y="-171" font-family="Helvetica,sans-Serif" font-size="10.00">+ Umidade()</text>
<text text-anchor="start" x="20.5" y="-160" font-family="Helvetica,sans-Serif" font-size="10.00">+ operator()()</text>
<text text-anchor="start" x="20.5" y="-149" font-family="Helvetica,sans-Serif" font-size="10.00"># ResultadosEnsaio()</text>
<text text-anchor="start" x="20.5" y="-138" font-family="Helvetica,sans-Serif" font-size="10.00">&#45; CorrecaoTemperatura()</text>
</a>
</g>
</g>
<!-- Node2&#45;&gt;Node1 -->
<g id="edge1" class="edge"><title>Node2&#45;&gt;Node1</title>
<path fill="none" stroke="midnightblue" d="M74,-120.721C74,-110.655 74,-100.619 74,-91.3391"/>
<polygon fill="none" stroke="midnightblue" points="70.5001,-120.771 74,-130.771 77.5001,-120.771 70.5001,-120.771"/>
</g>
<!-- Node3 -->
<g id="node3" class="node"><title>Node3</title>
<polygon fill="white" stroke="#bfbfbf" points="51.5,-336.5 51.5,-393.5 96.5,-393.5 96.5,-336.5 51.5,-336.5"/>
<text text-anchor="middle" x="74" y="-381.5" font-family="Helvetica,sans-Serif" font-size="10.00">double</text>
<polyline fill="none" stroke="#bfbfbf" points="51.5,-374.5 96.5,-374.5 "/>
<text text-anchor="middle" x="74" y="-362.5" font-family="Helvetica,sans-Serif" font-size="10.00"> </text>
<polyline fill="none" stroke="#bfbfbf" points="51.5,-355.5 96.5,-355.5 "/>
<text text-anchor="middle" x="74" y="-343.5" font-family="Helvetica,sans-Serif" font-size="10.00"> </text>
</g>
<!-- Node3&#45;&gt;Node2 -->
<g id="edge2" class="edge"><title>Node3&#45;&gt;Node2</title>
<path fill="none" stroke="#404040" d="M74,-336.383C74,-320.048 74,-298.461 74,-277.249"/>
<polygon fill="none" stroke="#404040" points="74.0001,-277.194 70,-271.195 74,-265.194 78,-271.194 74.0001,-277.194"/>
<text text-anchor="start" x="74" y="-309.5" font-family="Helvetica,sans-Serif" font-size="10.00"> #temperatura_ensaio</text>
<text text-anchor="middle" x="121" y="-298.5" font-family="Helvetica,sans-Serif" font-size="10.00">_adsorcao</text>
<text text-anchor="middle" x="121" y="-287.5" font-family="Helvetica,sans-Serif" font-size="10.00">#h</text>
</g>
</g>
</svg>
