<?xml version="1.0" encoding="UTF-8" standalone="no"?>
<!DOCTYPE svg PUBLIC "-//W3C//DTD SVG 1.1//EN"
 "http://www.w3.org/Graphics/SVG/1.1/DTD/svg11.dtd">
<!-- Generated by graphviz version 2.34.0 (20140110.0949)
 -->
<!-- Title: CMeioPoroso_Telha Pages: 1 -->
<svg width="589pt" height="412pt"
 viewBox="0.00 0.00 588.58 412.00" xmlns="http://www.w3.org/2000/svg" xmlns:xlink="http://www.w3.org/1999/xlink">
<g id="graph0" class="graph" transform="scale(1 1) rotate(0) translate(4 408)">
<title>CMeioPoroso_Telha</title>
<polygon fill="white" stroke="white" points="-4,4 -4,-408 584.576,-408 584.576,4 -4,4"/>
<!-- Node1 -->
<g id="node1" class="node"><title>Node1</title>
<polygon fill="#bfbfbf" stroke="black" points="248.576,-1 248.576,-91 374.576,-91 374.576,-1 248.576,-1"/>
<text text-anchor="middle" x="311.576" y="-79" font-family="Helvetica,sans-Serif" font-size="10.00">CMeioPoroso_Telha</text>
<polyline fill="none" stroke="black" points="248.576,-72 374.576,-72 "/>
<text text-anchor="middle" x="311.576" y="-60" font-family="Helvetica,sans-Serif" font-size="10.00"> </text>
<polyline fill="none" stroke="black" points="248.576,-53 374.576,-53 "/>
<text text-anchor="start" x="256.576" y="-41" font-family="Helvetica,sans-Serif" font-size="10.00">+ CMeioPoroso_Telha()</text>
<text text-anchor="start" x="256.576" y="-30" font-family="Helvetica,sans-Serif" font-size="10.00">+ ~CMeioPoroso_Telha()</text>
<text text-anchor="start" x="256.576" y="-19" font-family="Helvetica,sans-Serif" font-size="10.00">+ DadosDefault()</text>
<text text-anchor="start" x="256.576" y="-8" font-family="Helvetica,sans-Serif" font-size="10.00">+ EntrarDadosObjeto()</text>
</g>
<!-- Node2 -->
<g id="node2" class="node"><title>Node2</title>
<polygon fill="white" stroke="#bfbfbf" points="212.076,-346.5 212.076,-403.5 257.076,-403.5 257.076,-346.5 212.076,-346.5"/>
<text text-anchor="middle" x="234.576" y="-391.5" font-family="Helvetica,sans-Serif" font-size="10.00">double</text>
<polyline fill="none" stroke="#bfbfbf" points="212.076,-384.5 257.076,-384.5 "/>
<text text-anchor="middle" x="234.576" y="-372.5" font-family="Helvetica,sans-Serif" font-size="10.00"> </text>
<polyline fill="none" stroke="#bfbfbf" points="212.076,-365.5 257.076,-365.5 "/>
<text text-anchor="middle" x="234.576" y="-353.5" font-family="Helvetica,sans-Serif" font-size="10.00"> </text>
</g>
<!-- Node2&#45;&gt;Node1 -->
<g id="edge1" class="edge"><title>Node2&#45;&gt;Node1</title>
<path fill="none" stroke="#404040" d="M211.772,-371.193C166.818,-364.292 67.4948,-341.953 25.5764,-276 -6.8462,-224.987 -9.94636,-188.905 25.5764,-140 73.3115,-74.2823 168.645,-54.0928 236.1,-48.3662"/>
<polygon fill="none" stroke="#404040" points="236.386,-48.345 242.074,-43.9122 248.353,-47.4575 242.665,-51.8903 236.386,-48.345"/>
<text text-anchor="middle" x="52.0764" y="-249.5" font-family="Helvetica,sans-Serif" font-size="10.00"> #ct</text>
<text text-anchor="middle" x="52.0764" y="-238.5" font-family="Helvetica,sans-Serif" font-size="10.00">#emis</text>
<text text-anchor="middle" x="52.0764" y="-227.5" font-family="Helvetica,sans-Serif" font-size="10.00">&#45;wl_inicial</text>
<text text-anchor="middle" x="52.0764" y="-216.5" font-family="Helvetica,sans-Serif" font-size="10.00">#alfa</text>
<text text-anchor="middle" x="52.0764" y="-205.5" font-family="Helvetica,sans-Serif" font-size="10.00">#porosidade</text>
<text text-anchor="middle" x="52.0764" y="-194.5" font-family="Helvetica,sans-Serif" font-size="10.00">#wli</text>
<text text-anchor="middle" x="52.0764" y="-183.5" font-family="Helvetica,sans-Serif" font-size="10.00">#larg</text>
<text text-anchor="middle" x="52.0764" y="-172.5" font-family="Helvetica,sans-Serif" font-size="10.00">#ki</text>
<text text-anchor="middle" x="52.0764" y="-161.5" font-family="Helvetica,sans-Serif" font-size="10.00">#rot</text>
</g>
<!-- Node3 -->
<g id="node3" class="node"><title>Node3</title>
<g id="a_node3"><a xlink:href="classCFuncaoCondutividade.xhtml" target="_top" xlink:title="por causa rotinas entrada saída ">
<polygon fill="white" stroke="black" points="87.5764,-152 87.5764,-264 227.576,-264 227.576,-152 87.5764,-152"/>
<text text-anchor="middle" x="157.576" y="-252" font-family="Helvetica,sans-Serif" font-size="10.00">CFuncaoCondutividade</text>
<polyline fill="none" stroke="black" points="87.5764,-245 227.576,-245 "/>
<text text-anchor="middle" x="157.576" y="-233" font-family="Helvetica,sans-Serif" font-size="10.00"> </text>
<polyline fill="none" stroke="black" points="87.5764,-226 227.576,-226 "/>
<text text-anchor="start" x="95.5764" y="-214" font-family="Helvetica,sans-Serif" font-size="10.00">+ CFuncaoCondutividade()</text>
<text text-anchor="start" x="95.5764" y="-203" font-family="Helvetica,sans-Serif" font-size="10.00">+ ~CFuncaoCondutividade()</text>
<text text-anchor="start" x="95.5764" y="-192" font-family="Helvetica,sans-Serif" font-size="10.00">+ DadosDefault()</text>
<text text-anchor="start" x="95.5764" y="-181" font-family="Helvetica,sans-Serif" font-size="10.00">+ EntrarDadosFuncao()</text>
<text text-anchor="start" x="95.5764" y="-170" font-family="Helvetica,sans-Serif" font-size="10.00">+ Condutividade()</text>
<text text-anchor="start" x="95.5764" y="-159" font-family="Helvetica,sans-Serif" font-size="10.00">+ operator()()</text>
</a>
</g>
</g>
<!-- Node2&#45;&gt;Node3 -->
<g id="edge3" class="edge"><title>Node2&#45;&gt;Node3</title>
<path fill="none" stroke="#404040" d="M221.688,-346.383C212.589,-326.883 199.995,-299.898 188.377,-275.002"/>
<polygon fill="none" stroke="#404040" points="188.373,-274.992 182.211,-271.247 183.298,-264.118 189.46,-267.864 188.373,-274.992"/>
<text text-anchor="middle" x="222.076" y="-314" font-family="Helvetica,sans-Serif" font-size="10.00"> #bk</text>
<text text-anchor="middle" x="222.076" y="-303" font-family="Helvetica,sans-Serif" font-size="10.00">#ak</text>
</g>
<!-- Node5 -->
<g id="node5" class="node"><title>Node5</title>
<g id="a_node5"><a xlink:href="classCFuncaoDifusividade.xhtml" target="_top" xlink:title="por causa rotinas entrada saída ">
<polygon fill="white" stroke="black" points="246.076,-152 246.076,-264 377.076,-264 377.076,-152 246.076,-152"/>
<text text-anchor="middle" x="311.576" y="-252" font-family="Helvetica,sans-Serif" font-size="10.00">CFuncaoDifusividade</text>
<polyline fill="none" stroke="black" points="246.076,-245 377.076,-245 "/>
<text text-anchor="middle" x="311.576" y="-233" font-family="Helvetica,sans-Serif" font-size="10.00"> </text>
<polyline fill="none" stroke="black" points="246.076,-226 377.076,-226 "/>
<text text-anchor="start" x="254.076" y="-214" font-family="Helvetica,sans-Serif" font-size="10.00">+ CFuncaoDifusividade()</text>
<text text-anchor="start" x="254.076" y="-203" font-family="Helvetica,sans-Serif" font-size="10.00">+ ~CFuncaoDifusividade()</text>
<text text-anchor="start" x="254.076" y="-192" font-family="Helvetica,sans-Serif" font-size="10.00">+ DadosDefault()</text>
<text text-anchor="start" x="254.076" y="-181" font-family="Helvetica,sans-Serif" font-size="10.00">+ EntrarDadosFuncao()</text>
<text text-anchor="start" x="254.076" y="-170" font-family="Helvetica,sans-Serif" font-size="10.00">+ Difusividade()</text>
<text text-anchor="start" x="254.076" y="-159" font-family="Helvetica,sans-Serif" font-size="10.00">+ operator()()</text>
</a>
</g>
</g>
<!-- Node2&#45;&gt;Node5 -->
<g id="edge6" class="edge"><title>Node2&#45;&gt;Node5</title>
<path fill="none" stroke="#404040" d="M247.464,-346.383C256.564,-326.883 269.157,-299.898 280.775,-275.002"/>
<polygon fill="none" stroke="#404040" points="280.78,-274.992 279.692,-267.864 285.855,-264.118 286.942,-271.247 280.78,-274.992"/>
<text text-anchor="middle" x="284.076" y="-308.5" font-family="Helvetica,sans-Serif" font-size="10.00"> #cdif</text>
</g>
<!-- Node6 -->
<g id="node6" class="node"><title>Node6</title>
<g id="a_node6"><a xlink:href="classCFuncaoAdsorcao.xhtml" target="_top" xlink:title="por causa rotinas entrada saída ">
<polygon fill="white" stroke="black" points="395.076,-141 395.076,-275 518.076,-275 518.076,-141 395.076,-141"/>
<text text-anchor="middle" x="456.576" y="-263" font-family="Helvetica,sans-Serif" font-size="10.00">CFuncaoAdsorcao</text>
<polyline fill="none" stroke="black" points="395.076,-256 518.076,-256 "/>
<text text-anchor="middle" x="456.576" y="-244" font-family="Helvetica,sans-Serif" font-size="10.00"> </text>
<polyline fill="none" stroke="black" points="395.076,-237 518.076,-237 "/>
<text text-anchor="start" x="403.076" y="-225" font-family="Helvetica,sans-Serif" font-size="10.00">+ CFuncaoAdsorcao()</text>
<text text-anchor="start" x="403.076" y="-214" font-family="Helvetica,sans-Serif" font-size="10.00">+ ~CFuncaoAdsorcao()</text>
<text text-anchor="start" x="403.076" y="-203" font-family="Helvetica,sans-Serif" font-size="10.00">+ DadosDefault()</text>
<text text-anchor="start" x="403.076" y="-192" font-family="Helvetica,sans-Serif" font-size="10.00">+ EntrarDadosFuncao()</text>
<text text-anchor="start" x="403.076" y="-181" font-family="Helvetica,sans-Serif" font-size="10.00">+ Umidade()</text>
<text text-anchor="start" x="403.076" y="-170" font-family="Helvetica,sans-Serif" font-size="10.00">+ operator()()</text>
<text text-anchor="start" x="403.076" y="-159" font-family="Helvetica,sans-Serif" font-size="10.00"># ResultadosEnsaio()</text>
<text text-anchor="start" x="403.076" y="-148" font-family="Helvetica,sans-Serif" font-size="10.00">&#45; CorrecaoTemperatura()</text>
</a>
</g>
</g>
<!-- Node2&#45;&gt;Node6 -->
<g id="edge8" class="edge"><title>Node2&#45;&gt;Node6</title>
<path fill="none" stroke="#404040" d="M257.186,-361.076C285.654,-344.443 335.886,-313.886 385.277,-275.92"/>
<polygon fill="none" stroke="#404040" points="385.345,-275.867 387.618,-269.023 394.81,-268.489 392.537,-275.333 385.345,-275.867"/>
<text text-anchor="start" x="358.576" y="-319.5" font-family="Helvetica,sans-Serif" font-size="10.00"> #temperatura_ensaio</text>
<text text-anchor="middle" x="405.576" y="-308.5" font-family="Helvetica,sans-Serif" font-size="10.00">_adsorcao</text>
<text text-anchor="middle" x="405.576" y="-297.5" font-family="Helvetica,sans-Serif" font-size="10.00">#h</text>
</g>
<!-- Node3&#45;&gt;Node1 -->
<g id="edge2" class="edge"><title>Node3&#45;&gt;Node1</title>
<path fill="none" stroke="#404040" d="M178.706,-151.962C186.053,-137.247 195.335,-122.09 206.576,-110 215.757,-100.126 226.834,-91.2782 238.303,-83.5535"/>
<polygon fill="none" stroke="#404040" points="238.341,-83.5295 241.236,-76.9249 248.446,-77.0568 245.551,-83.6614 238.341,-83.5295"/>
<text text-anchor="middle" x="257.076" y="-113.5" font-family="Helvetica,sans-Serif" font-size="10.00"> +funcaoCondutividade</text>
</g>
<!-- Node4 -->
<g id="node4" class="node"><title>Node4</title>
<polygon fill="white" stroke="#bfbfbf" points="536.076,-179.5 536.076,-236.5 571.076,-236.5 571.076,-179.5 536.076,-179.5"/>
<text text-anchor="middle" x="553.576" y="-224.5" font-family="Helvetica,sans-Serif" font-size="10.00">char</text>
<polyline fill="none" stroke="#bfbfbf" points="536.076,-217.5 571.076,-217.5 "/>
<text text-anchor="middle" x="553.576" y="-205.5" font-family="Helvetica,sans-Serif" font-size="10.00"> </text>
<polyline fill="none" stroke="#bfbfbf" points="536.076,-198.5 571.076,-198.5 "/>
<text text-anchor="middle" x="553.576" y="-186.5" font-family="Helvetica,sans-Serif" font-size="10.00"> </text>
</g>
<!-- Node4&#45;&gt;Node1 -->
<g id="edge4" class="edge"><title>Node4&#45;&gt;Node1</title>
<path fill="none" stroke="#404040" d="M546.64,-179.258C539.493,-156.79 526.012,-126.287 502.576,-110 468.036,-85.9962 423.71,-70.6329 386.456,-61.0936"/>
<polygon fill="none" stroke="#404040" points="386.286,-61.052 379.507,-63.5099 374.63,-58.1975 381.41,-55.7395 386.286,-61.052"/>
<text text-anchor="middle" x="548.576" y="-113.5" font-family="Helvetica,sans-Serif" font-size="10.00"> #tipo_material</text>
</g>
<!-- Node5&#45;&gt;Node1 -->
<g id="edge5" class="edge"><title>Node5&#45;&gt;Node1</title>
<path fill="none" stroke="#404040" d="M311.576,-151.937C311.576,-136.245 311.576,-119.131 311.576,-103.362"/>
<polygon fill="none" stroke="#404040" points="311.576,-103.058 307.576,-97.0582 311.576,-91.0581 315.576,-97.0581 311.576,-103.058"/>
<text text-anchor="middle" x="358.076" y="-113.5" font-family="Helvetica,sans-Serif" font-size="10.00"> +funcaoDifusividade</text>
</g>
<!-- Node6&#45;&gt;Node1 -->
<g id="edge7" class="edge"><title>Node6&#45;&gt;Node1</title>
<path fill="none" stroke="#404040" d="M429.846,-140.822C423.785,-129.868 416.695,-119.124 408.576,-110 401.545,-102.098 393.3,-94.7803 384.639,-88.1413"/>
<polygon fill="none" stroke="#404040" points="384.435,-87.9926 377.23,-87.7019 374.727,-80.939 381.932,-81.2298 384.435,-87.9926"/>
<text text-anchor="middle" x="458.576" y="-113.5" font-family="Helvetica,sans-Serif" font-size="10.00"> +funcaoAdsorcao</text>
</g>
</g>
</svg>
