<?xml version="1.0" encoding="UTF-8" standalone="no"?>
<!DOCTYPE svg PUBLIC "-//W3C//DTD SVG 1.1//EN"
 "http://www.w3.org/Graphics/SVG/1.1/DTD/svg11.dtd">
<!-- Generated by graphviz version 2.34.0 (20140110.0949)
 -->
<!-- Title: CMeioPoroso_Telha_Discretizada_TDMA Pages: 1 -->
<!--zoomable 794 -->
<svg id="main" version="1.1" xmlns="http://www.w3.org/2000/svg" xmlns:xlink="http://www.w3.org/1999/xlink" xml:space="preserve" onload="init(evt)">
<style type="text/css"><![CDATA[
.edge:hover path { stroke: red; }
.edge:hover polygon { stroke: red; fill: red; }
]]></style>
<script type="text/javascript"><![CDATA[
var edges = document.getElementsByTagName('g');
if (edges && edges.length) {
  for (var i=0;i<edges.length;i++) {
    if (edges[i].id.substr(0,4)=='edge') {
      edges[i].setAttribute('class','edge');
    }
  }
}
]]></script>
        <defs>
                <circle id="rim" cx="0" cy="0" r="7"/>
                <circle id="rim2" cx="0" cy="0" r="3.5"/>
                <g id="zoomPlus">
                        <use xlink:href="#rim" fill="#404040">
                                <set attributeName="fill" to="#808080" begin="zoomplus.mouseover" end="zoomplus.mouseout"/>
                        </use>
                        <path d="M-4,0h8M0,-4v8" fill="none" stroke="white" stroke-width="1.5" pointer-events="none"/>
                </g>
                <g id="zoomMin">
                        <use xlink:href="#rim" fill="#404040">
                                <set attributeName="fill" to="#808080" begin="zoomminus.mouseover" end="zoomminus.mouseout"/>
                        </use>
                        <path d="M-4,0h8" fill="none" stroke="white" stroke-width="1.5" pointer-events="none"/>
                </g>
                <g id="dirArrow">
                        <path fill="none" stroke="white" stroke-width="1.5" d="M0,-3.0v7 M-2.5,-0.5L0,-3.0L2.5,-0.5"/>
                </g>
               <g id="resetDef">
                       <use xlink:href="#rim2" fill="#404040">
                               <set attributeName="fill" to="#808080" begin="reset.mouseover" end="reset.mouseout"/>
                       </use>
               </g>
        </defs>

<script type="text/javascript">
var viewWidth = 690;
var viewHeight = 794;
var sectionId = 'dynsection-1';
</script>
<script xlink:href="svgpan.js"/>
<svg id="graph" class="graph">
<g id="viewport">
<title>CMeioPoroso_Telha_Discretizada_TDMA</title>
<polygon fill="white" stroke="white" points="-4,4 -4,-790 685.742,-790 685.742,4 -4,4"/>
<!-- Node1 -->
<g id="node1" class="node"><title>Node1</title>
<polygon fill="#bfbfbf" stroke="black" points="186.742,-1 186.742,-223 400.742,-223 400.742,-1 186.742,-1"/>
<text text-anchor="middle" x="293.742" y="-211" font-family="Helvetica,sans-Serif" font-size="10.00">CMeioPoroso_Telha_Discretizada_TDMA</text>
<polyline fill="none" stroke="black" points="186.742,-204 400.742,-204 "/>
<text text-anchor="start" x="194.742" y="-192" font-family="Helvetica,sans-Serif" font-size="10.00"># dif</text>
<text text-anchor="start" x="194.742" y="-181" font-family="Helvetica,sans-Serif" font-size="10.00"># esp</text>
<text text-anchor="start" x="194.742" y="-170" font-family="Helvetica,sans-Serif" font-size="10.00"># ol</text>
<text text-anchor="start" x="194.742" y="-159" font-family="Helvetica,sans-Serif" font-size="10.00"># tp</text>
<text text-anchor="start" x="194.742" y="-148" font-family="Helvetica,sans-Serif" font-size="10.00"># ola</text>
<text text-anchor="start" x="194.742" y="-137" font-family="Helvetica,sans-Serif" font-size="10.00"># tpa</text>
<text text-anchor="start" x="194.742" y="-126" font-family="Helvetica,sans-Serif" font-size="10.00"># espaa</text>
<text text-anchor="start" x="194.742" y="-115" font-family="Helvetica,sans-Serif" font-size="10.00"># olaa</text>
<text text-anchor="start" x="194.742" y="-104" font-family="Helvetica,sans-Serif" font-size="10.00"># tpaa</text>
<text text-anchor="start" x="194.742" y="-93" font-family="Helvetica,sans-Serif" font-size="10.00"># olChuva</text>
<text text-anchor="start" x="194.742" y="-82" font-family="Helvetica,sans-Serif" font-size="10.00">&#45; ti_inicial</text>
<text text-anchor="start" x="194.742" y="-71" font-family="Helvetica,sans-Serif" font-size="10.00">&#45; ol_inicial</text>
<polyline fill="none" stroke="black" points="186.742,-64 400.742,-64 "/>
<text text-anchor="start" x="194.742" y="-52" font-family="Helvetica,sans-Serif" font-size="10.00">+ CMeioPoroso_Telha_Discretizada_TDMA()</text>
<text text-anchor="start" x="194.742" y="-41" font-family="Helvetica,sans-Serif" font-size="10.00">+ ~CMeioPoroso_Telha</text>
<text text-anchor="start" x="194.742" y="-30" font-family="Helvetica,sans-Serif" font-size="10.00">_Discretizada_TDMA()</text>
<text text-anchor="start" x="194.742" y="-19" font-family="Helvetica,sans-Serif" font-size="10.00">+ DadosDefault()</text>
<text text-anchor="start" x="194.742" y="-8" font-family="Helvetica,sans-Serif" font-size="10.00">+ EntrarDadosObjeto()</text>
</g>
<!-- Node2 -->
<g id="node2" class="node"><title>Node2</title>
<g id="a_node2"><a xlink:href="classCMeioPoroso__Telha.xhtml" target="_top" xlink:title="por causa rotinas entrada saída ">
<polygon fill="white" stroke="black" points="230.742,-273 230.742,-363 356.742,-363 356.742,-273 230.742,-273"/>
<text text-anchor="middle" x="293.742" y="-351" font-family="Helvetica,sans-Serif" font-size="10.00">CMeioPoroso_Telha</text>
<polyline fill="none" stroke="black" points="230.742,-344 356.742,-344 "/>
<text text-anchor="middle" x="293.742" y="-332" font-family="Helvetica,sans-Serif" font-size="10.00"> </text>
<polyline fill="none" stroke="black" points="230.742,-325 356.742,-325 "/>
<text text-anchor="start" x="238.742" y="-313" font-family="Helvetica,sans-Serif" font-size="10.00">+ CMeioPoroso_Telha()</text>
<text text-anchor="start" x="238.742" y="-302" font-family="Helvetica,sans-Serif" font-size="10.00">+ ~CMeioPoroso_Telha()</text>
<text text-anchor="start" x="238.742" y="-291" font-family="Helvetica,sans-Serif" font-size="10.00">+ DadosDefault()</text>
<text text-anchor="start" x="238.742" y="-280" font-family="Helvetica,sans-Serif" font-size="10.00">+ EntrarDadosObjeto()</text>
</a>
</g>
</g>
<!-- Node2&#45;&gt;Node1 -->
<g id="edge1" class="edge"><title>Node2&#45;&gt;Node1</title>
<path fill="none" stroke="midnightblue" d="M293.742,-262.893C293.742,-250.509 293.742,-236.907 293.742,-223.106"/>
<polygon fill="none" stroke="midnightblue" points="290.242,-262.986 293.742,-272.986 297.242,-262.986 290.242,-262.986"/>
</g>
<!-- Node3 -->
<g id="node3" class="node"><title>Node3</title>
<polygon fill="white" stroke="#bfbfbf" points="187.242,-728.5 187.242,-785.5 232.242,-785.5 232.242,-728.5 187.242,-728.5"/>
<text text-anchor="middle" x="209.742" y="-773.5" font-family="Helvetica,sans-Serif" font-size="10.00">double</text>
<polyline fill="none" stroke="#bfbfbf" points="187.242,-766.5 232.242,-766.5 "/>
<text text-anchor="middle" x="209.742" y="-754.5" font-family="Helvetica,sans-Serif" font-size="10.00"> </text>
<polyline fill="none" stroke="#bfbfbf" points="187.242,-747.5 232.242,-747.5 "/>
<text text-anchor="middle" x="209.742" y="-735.5" font-family="Helvetica,sans-Serif" font-size="10.00"> </text>
</g>
<!-- Node3&#45;&gt;Node1 -->
<g id="edge10" class="edge"><title>Node3&#45;&gt;Node1</title>
<path fill="none" stroke="#404040" d="M187.196,-752.515C160.336,-747.353 115.379,-735.404 85.7422,-710 -25.9752,-614.238 -13.4778,-518.789 40.7422,-382 68.7692,-311.292 125.154,-248.349 177.595,-201.159"/>
<polygon fill="none" stroke="#404040" points="177.672,-201.09 179.507,-194.117 186.65,-193.128 184.815,-200.102 177.672,-201.09"/>
<text text-anchor="middle" x="61.7422" y="-495.5" font-family="Helvetica,sans-Serif" font-size="10.00"> #espa</text>
<text text-anchor="middle" x="61.7422" y="-484.5" font-family="Helvetica,sans-Serif" font-size="10.00">#rov</text>
<text text-anchor="middle" x="61.7422" y="-473.5" font-family="Helvetica,sans-Serif" font-size="10.00">#h</text>
<text text-anchor="middle" x="61.7422" y="-462.5" font-family="Helvetica,sans-Serif" font-size="10.00">#dx</text>
<text text-anchor="middle" x="61.7422" y="-451.5" font-family="Helvetica,sans-Serif" font-size="10.00">#k</text>
<text text-anchor="middle" x="61.7422" y="-440.5" font-family="Helvetica,sans-Serif" font-size="10.00">#tia</text>
<text text-anchor="middle" x="61.7422" y="-429.5" font-family="Helvetica,sans-Serif" font-size="10.00">&#45;tp_inicial</text>
<text text-anchor="middle" x="61.7422" y="-418.5" font-family="Helvetica,sans-Serif" font-size="10.00">#tiaa</text>
<text text-anchor="middle" x="61.7422" y="-407.5" font-family="Helvetica,sans-Serif" font-size="10.00">#ti</text>
<text text-anchor="middle" x="61.7422" y="-396.5" font-family="Helvetica,sans-Serif" font-size="10.00">#wl</text>
<text text-anchor="middle" x="61.7422" y="-385.5" font-family="Helvetica,sans-Serif" font-size="10.00">...</text>
</g>
<!-- Node3&#45;&gt;Node2 -->
<g id="edge2" class="edge"><title>Node3&#45;&gt;Node2</title>
<path fill="none" stroke="#404040" d="M187.069,-747.007C155.78,-733.202 100.637,-703.513 77.7422,-658 50.5792,-604.003 57.3664,-578.907 77.7422,-522 102.748,-452.164 168.072,-396.614 220.384,-361.403"/>
<polygon fill="none" stroke="#404040" points="220.637,-361.236 223.447,-354.595 230.658,-354.634 227.848,-361.275 220.637,-361.236"/>
<text text-anchor="middle" x="104.242" y="-631.5" font-family="Helvetica,sans-Serif" font-size="10.00"> #ct</text>
<text text-anchor="middle" x="104.242" y="-620.5" font-family="Helvetica,sans-Serif" font-size="10.00">#emis</text>
<text text-anchor="middle" x="104.242" y="-609.5" font-family="Helvetica,sans-Serif" font-size="10.00">&#45;wl_inicial</text>
<text text-anchor="middle" x="104.242" y="-598.5" font-family="Helvetica,sans-Serif" font-size="10.00">#alfa</text>
<text text-anchor="middle" x="104.242" y="-587.5" font-family="Helvetica,sans-Serif" font-size="10.00">#porosidade</text>
<text text-anchor="middle" x="104.242" y="-576.5" font-family="Helvetica,sans-Serif" font-size="10.00">#wli</text>
<text text-anchor="middle" x="104.242" y="-565.5" font-family="Helvetica,sans-Serif" font-size="10.00">#larg</text>
<text text-anchor="middle" x="104.242" y="-554.5" font-family="Helvetica,sans-Serif" font-size="10.00">#ki</text>
<text text-anchor="middle" x="104.242" y="-543.5" font-family="Helvetica,sans-Serif" font-size="10.00">#rot</text>
</g>
<!-- Node4 -->
<g id="node4" class="node"><title>Node4</title>
<g id="a_node4"><a xlink:href="classCFuncaoCondutividade.xhtml" target="_top" xlink:title="por causa rotinas entrada saída ">
<polygon fill="white" stroke="black" points="139.742,-534 139.742,-646 279.742,-646 279.742,-534 139.742,-534"/>
<text text-anchor="middle" x="209.742" y="-634" font-family="Helvetica,sans-Serif" font-size="10.00">CFuncaoCondutividade</text>
<polyline fill="none" stroke="black" points="139.742,-627 279.742,-627 "/>
<text text-anchor="middle" x="209.742" y="-615" font-family="Helvetica,sans-Serif" font-size="10.00"> </text>
<polyline fill="none" stroke="black" points="139.742,-608 279.742,-608 "/>
<text text-anchor="start" x="147.742" y="-596" font-family="Helvetica,sans-Serif" font-size="10.00">+ CFuncaoCondutividade()</text>
<text text-anchor="start" x="147.742" y="-585" font-family="Helvetica,sans-Serif" font-size="10.00">+ ~CFuncaoCondutividade()</text>
<text text-anchor="start" x="147.742" y="-574" font-family="Helvetica,sans-Serif" font-size="10.00">+ DadosDefault()</text>
<text text-anchor="start" x="147.742" y="-563" font-family="Helvetica,sans-Serif" font-size="10.00">+ EntrarDadosFuncao()</text>
<text text-anchor="start" x="147.742" y="-552" font-family="Helvetica,sans-Serif" font-size="10.00">+ Condutividade()</text>
<text text-anchor="start" x="147.742" y="-541" font-family="Helvetica,sans-Serif" font-size="10.00">+ operator()()</text>
</a>
</g>
</g>
<!-- Node3&#45;&gt;Node4 -->
<g id="edge4" class="edge"><title>Node3&#45;&gt;Node4</title>
<path fill="none" stroke="#404040" d="M209.742,-728.383C209.742,-709.233 209.742,-682.864 209.742,-658.344"/>
<polygon fill="none" stroke="#404040" points="209.742,-658.118 205.742,-652.118 209.742,-646.118 213.742,-652.118 209.742,-658.118"/>
<text text-anchor="middle" x="219.242" y="-696" font-family="Helvetica,sans-Serif" font-size="10.00"> #bk</text>
<text text-anchor="middle" x="219.242" y="-685" font-family="Helvetica,sans-Serif" font-size="10.00">#ak</text>
</g>
<!-- Node6 -->
<g id="node6" class="node"><title>Node6</title>
<g id="a_node6"><a xlink:href="classCFuncaoDifusividade.xhtml" target="_top" xlink:title="por causa rotinas entrada saída ">
<polygon fill="white" stroke="black" points="298.242,-534 298.242,-646 429.242,-646 429.242,-534 298.242,-534"/>
<text text-anchor="middle" x="363.742" y="-634" font-family="Helvetica,sans-Serif" font-size="10.00">CFuncaoDifusividade</text>
<polyline fill="none" stroke="black" points="298.242,-627 429.242,-627 "/>
<text text-anchor="middle" x="363.742" y="-615" font-family="Helvetica,sans-Serif" font-size="10.00"> </text>
<polyline fill="none" stroke="black" points="298.242,-608 429.242,-608 "/>
<text text-anchor="start" x="306.242" y="-596" font-family="Helvetica,sans-Serif" font-size="10.00">+ CFuncaoDifusividade()</text>
<text text-anchor="start" x="306.242" y="-585" font-family="Helvetica,sans-Serif" font-size="10.00">+ ~CFuncaoDifusividade()</text>
<text text-anchor="start" x="306.242" y="-574" font-family="Helvetica,sans-Serif" font-size="10.00">+ DadosDefault()</text>
<text text-anchor="start" x="306.242" y="-563" font-family="Helvetica,sans-Serif" font-size="10.00">+ EntrarDadosFuncao()</text>
<text text-anchor="start" x="306.242" y="-552" font-family="Helvetica,sans-Serif" font-size="10.00">+ Difusividade()</text>
<text text-anchor="start" x="306.242" y="-541" font-family="Helvetica,sans-Serif" font-size="10.00">+ operator()()</text>
</a>
</g>
</g>
<!-- Node3&#45;&gt;Node6 -->
<g id="edge7" class="edge"><title>Node3&#45;&gt;Node6</title>
<path fill="none" stroke="#404040" d="M232.465,-731.654C251.258,-711.519 278.826,-681.981 303.854,-655.166"/>
<polygon fill="none" stroke="#404040" points="304.04,-654.966 305.21,-647.851 312.228,-646.194 311.059,-653.309 304.04,-654.966"/>
<text text-anchor="middle" x="295.242" y="-690.5" font-family="Helvetica,sans-Serif" font-size="10.00"> #cdif</text>
</g>
<!-- Node7 -->
<g id="node7" class="node"><title>Node7</title>
<g id="a_node7"><a xlink:href="classCFuncaoAdsorcao.xhtml" target="_top" xlink:title="por causa rotinas entrada saída ">
<polygon fill="white" stroke="black" points="447.242,-523 447.242,-657 570.242,-657 570.242,-523 447.242,-523"/>
<text text-anchor="middle" x="508.742" y="-645" font-family="Helvetica,sans-Serif" font-size="10.00">CFuncaoAdsorcao</text>
<polyline fill="none" stroke="black" points="447.242,-638 570.242,-638 "/>
<text text-anchor="middle" x="508.742" y="-626" font-family="Helvetica,sans-Serif" font-size="10.00"> </text>
<polyline fill="none" stroke="black" points="447.242,-619 570.242,-619 "/>
<text text-anchor="start" x="455.242" y="-607" font-family="Helvetica,sans-Serif" font-size="10.00">+ CFuncaoAdsorcao()</text>
<text text-anchor="start" x="455.242" y="-596" font-family="Helvetica,sans-Serif" font-size="10.00">+ ~CFuncaoAdsorcao()</text>
<text text-anchor="start" x="455.242" y="-585" font-family="Helvetica,sans-Serif" font-size="10.00">+ DadosDefault()</text>
<text text-anchor="start" x="455.242" y="-574" font-family="Helvetica,sans-Serif" font-size="10.00">+ EntrarDadosFuncao()</text>
<text text-anchor="start" x="455.242" y="-563" font-family="Helvetica,sans-Serif" font-size="10.00">+ Umidade()</text>
<text text-anchor="start" x="455.242" y="-552" font-family="Helvetica,sans-Serif" font-size="10.00">+ operator()()</text>
<text text-anchor="start" x="455.242" y="-541" font-family="Helvetica,sans-Serif" font-size="10.00"># ResultadosEnsaio()</text>
<text text-anchor="start" x="455.242" y="-530" font-family="Helvetica,sans-Serif" font-size="10.00">&#45; CorrecaoTemperatura()</text>
</a>
</g>
</g>
<!-- Node3&#45;&gt;Node7 -->
<g id="edge9" class="edge"><title>Node3&#45;&gt;Node7</title>
<path fill="none" stroke="#404040" d="M232.403,-749.203C273.095,-736.408 360.645,-706.167 436.847,-658.058"/>
<polygon fill="none" stroke="#404040" points="436.959,-657.985 439.826,-651.368 447.037,-651.47 444.17,-658.086 436.959,-657.985"/>
<text text-anchor="start" x="403.742" y="-701.5" font-family="Helvetica,sans-Serif" font-size="10.00"> #temperatura_ensaio</text>
<text text-anchor="middle" x="450.742" y="-690.5" font-family="Helvetica,sans-Serif" font-size="10.00">_adsorcao</text>
<text text-anchor="middle" x="450.742" y="-679.5" font-family="Helvetica,sans-Serif" font-size="10.00">#h</text>
</g>
<!-- Node4&#45;&gt;Node2 -->
<g id="edge3" class="edge"><title>Node4&#45;&gt;Node2</title>
<path fill="none" stroke="#404040" d="M199.667,-533.698C194.466,-490.182 193.382,-429.216 216.742,-382 218.504,-378.439 220.571,-375.01 222.873,-371.717"/>
<polygon fill="none" stroke="#404040" points="222.938,-371.635 223.552,-364.45 230.42,-362.252 229.807,-369.437 222.938,-371.635"/>
<text text-anchor="middle" x="267.242" y="-440.5" font-family="Helvetica,sans-Serif" font-size="10.00"> +funcaoCondutividade</text>
</g>
<!-- Node5 -->
<g id="node5" class="node"><title>Node5</title>
<polygon fill="white" stroke="#bfbfbf" points="588.242,-561.5 588.242,-618.5 623.242,-618.5 623.242,-561.5 588.242,-561.5"/>
<text text-anchor="middle" x="605.742" y="-606.5" font-family="Helvetica,sans-Serif" font-size="10.00">char</text>
<polyline fill="none" stroke="#bfbfbf" points="588.242,-599.5 623.242,-599.5 "/>
<text text-anchor="middle" x="605.742" y="-587.5" font-family="Helvetica,sans-Serif" font-size="10.00"> </text>
<polyline fill="none" stroke="#bfbfbf" points="588.242,-580.5 623.242,-580.5 "/>
<text text-anchor="middle" x="605.742" y="-568.5" font-family="Helvetica,sans-Serif" font-size="10.00"> </text>
</g>
<!-- Node5&#45;&gt;Node2 -->
<g id="edge5" class="edge"><title>Node5&#45;&gt;Node2</title>
<path fill="none" stroke="#404040" d="M611.568,-561.462C619.248,-516.701 626.61,-428.495 577.742,-382 545.763,-351.574 427.813,-375.298 368.629,-363.709"/>
<polygon fill="none" stroke="#404040" points="368.557,-363.69 361.743,-366.05 356.944,-360.667 363.758,-358.308 368.557,-363.69"/>
<text text-anchor="middle" x="649.742" y="-440.5" font-family="Helvetica,sans-Serif" font-size="10.00"> #tipo_material</text>
</g>
<!-- Node6&#45;&gt;Node2 -->
<g id="edge6" class="edge"><title>Node6&#45;&gt;Node2</title>
<path fill="none" stroke="#404040" d="M355.886,-533.689C349.091,-491.509 337.811,-432.3 321.742,-382 320.974,-379.595 320.142,-377.159 319.263,-374.712"/>
<polygon fill="none" stroke="#404040" points="319.17,-374.471 313.281,-370.31 314.857,-363.273 320.746,-367.434 319.17,-374.471"/>
<text text-anchor="middle" x="398.242" y="-440.5" font-family="Helvetica,sans-Serif" font-size="10.00"> +funcaoDifusividade</text>
</g>
<!-- Node7&#45;&gt;Node2 -->
<g id="edge8" class="edge"><title>Node7&#45;&gt;Node2</title>
<path fill="none" stroke="#404040" d="M497.162,-522.826C486.555,-469.833 469.391,-401.279 448.742,-382 423.739,-358.655 404.606,-374.513 368.793,-364.28"/>
<polygon fill="none" stroke="#404040" points="368.445,-364.158 361.461,-365.952 357.119,-360.194 364.103,-358.401 368.445,-364.158"/>
<text text-anchor="middle" x="533.742" y="-440.5" font-family="Helvetica,sans-Serif" font-size="10.00"> +funcaoAdsorcao</text>
</g>
<!-- Node8 -->
<g id="node8" class="node"><title>Node8</title>
<polygon fill="white" stroke="#bfbfbf" points="374.742,-289.5 374.742,-346.5 428.742,-346.5 428.742,-289.5 374.742,-289.5"/>
<text text-anchor="middle" x="401.742" y="-334.5" font-family="Helvetica,sans-Serif" font-size="10.00">const int</text>
<polyline fill="none" stroke="#bfbfbf" points="374.742,-327.5 428.742,-327.5 "/>
<text text-anchor="middle" x="401.742" y="-315.5" font-family="Helvetica,sans-Serif" font-size="10.00"> </text>
<polyline fill="none" stroke="#bfbfbf" points="374.742,-308.5 428.742,-308.5 "/>
<text text-anchor="middle" x="401.742" y="-296.5" font-family="Helvetica,sans-Serif" font-size="10.00"> </text>
</g>
<!-- Node8&#45;&gt;Node1 -->
<g id="edge11" class="edge"><title>Node8&#45;&gt;Node1</title>
<path fill="none" stroke="#404040" d="M387.177,-289.488C379.247,-274.509 368.822,-254.817 357.818,-234.033"/>
<polygon fill="none" stroke="#404040" points="357.815,-234.027 351.473,-230.596 352.201,-223.422 358.543,-226.853 357.815,-234.027"/>
<text text-anchor="middle" x="374.742" y="-245.5" font-family="Helvetica,sans-Serif" font-size="10.00"> #n</text>
</g>
</g>
</svg>
        <g id="navigator" transform="translate(0 0)" fill="#404254">
                <rect fill="#f2f5e9" fill-opacity="0.5" stroke="#606060" stroke-width=".5" x="0" y="0" width="60" height="60"/>
                <use id="zoomplus" xlink:href="#zoomPlus" x="17" y="9" onmousedown="handleZoom(evt,'in')"/>
                <use id="zoomminus" xlink:href="#zoomMin" x="42" y="9" onmousedown="handleZoom(evt,'out')"/>
                <use id="reset" xlink:href="#resetDef" x="30" y="36" onmousedown="handleReset()"/>
                <g id="arrowUp" xlink:href="#dirArrow" transform="translate(30 24)" onmousedown="handlePan(0,-1)">
                  <use xlink:href="#rim" fill="#404040">
                        <set attributeName="fill" to="#808080" begin="arrowUp.mouseover" end="arrowUp.mouseout"/>
                  </use>
                  <path fill="none" stroke="white" stroke-width="1.5" d="M0,-3.0v7 M-2.5,-0.5L0,-3.0L2.5,-0.5"/>
                </g>
                <g id="arrowRight" xlink:href="#dirArrow" transform="rotate(90) translate(36 -43)" onmousedown="handlePan(1,0)">
                  <use xlink:href="#rim" fill="#404040">
                        <set attributeName="fill" to="#808080" begin="arrowRight.mouseover" end="arrowRight.mouseout"/>
                  </use>
                  <path fill="none" stroke="white" stroke-width="1.5" d="M0,-3.0v7 M-2.5,-0.5L0,-3.0L2.5,-0.5"/>
                </g>
                <g id="arrowDown" xlink:href="#dirArrow" transform="rotate(180) translate(-30 -48)" onmousedown="handlePan(0,1)">
                  <use xlink:href="#rim" fill="#404040">
                        <set attributeName="fill" to="#808080" begin="arrowDown.mouseover" end="arrowDown.mouseout"/>
                  </use>
                  <path fill="none" stroke="white" stroke-width="1.5" d="M0,-3.0v7 M-2.5,-0.5L0,-3.0L2.5,-0.5"/>
                </g>
                <g id="arrowLeft" xlink:href="#dirArrow" transform="rotate(270) translate(-36 17)" onmousedown="handlePan(-1,0)">
                  <use xlink:href="#rim" fill="#404040">
                        <set attributeName="fill" to="#808080" begin="arrowLeft.mouseover" end="arrowLeft.mouseout"/>
                  </use>
                  <path fill="none" stroke="white" stroke-width="1.5" d="M0,-3.0v7 M-2.5,-0.5L0,-3.0L2.5,-0.5"/>
                </g>
        </g>
        <svg viewBox="0 0 15 15" width="100%" height="30px" preserveAspectRatio="xMaxYMin meet">
         <g id="arrow_out" transform="scale(0.3 0.3)">
          <a xlink:href="classCMeioPoroso__Telha__Discretizada__TDMA__coll__graph_org.svg" target="_base">
           <rect id="button" ry="5" rx="5" y="6" x="6" height="38" width="38"
                fill="#f2f5e9" fill-opacity="0.5" stroke="#606060" stroke-width="1.0"/>
           <path id="arrow"
             d="M 11.500037,31.436501 C 11.940474,20.09759 22.043105,11.32322 32.158766,21.979434 L 37.068811,17.246167 C 37.068811,17.246167 37.088388,32 37.088388,32 L 22.160133,31.978069 C 22.160133,31.978069 26.997745,27.140456 26.997745,27.140456 C 18.528582,18.264221 13.291696,25.230495 11.500037,31.436501 z"
             style="fill:#404040;"/>
          </a>
         </g>
        </svg>
</svg>
