<?xml version="1.0" encoding="UTF-8" standalone="no"?>
<!DOCTYPE svg PUBLIC "-//W3C//DTD SVG 1.1//EN"
 "http://www.w3.org/Graphics/SVG/1.1/DTD/svg11.dtd">
<!-- Generated by graphviz version 2.34.0 (20140110.0949)
 -->
<!-- Title: CFuncoesClima::ExecutarFuncoesClima Pages: 1 -->
<svg width="566pt" height="38pt"
 viewBox="0.00 0.00 566.00 38.00" xmlns="http://www.w3.org/2000/svg" xmlns:xlink="http://www.w3.org/1999/xlink">
<g id="graph0" class="graph" transform="scale(1 1) rotate(0) translate(4 34)">
<title>CFuncoesClima::ExecutarFuncoesClima</title>
<polygon fill="white" stroke="white" points="-4,4 -4,-34 562,-34 562,4 -4,4"/>
<!-- Node1 -->
<g id="node1" class="node"><title>Node1</title>
<polygon fill="#bfbfbf" stroke="black" points="0,-0 0,-30 170,-30 170,-0 0,-0"/>
<text text-anchor="start" x="8" y="-18" font-family="Helvetica,sans-Serif" font-size="10.00">CFuncoesClima::ExecutarFuncoes</text>
<text text-anchor="middle" x="85" y="-7" font-family="Helvetica,sans-Serif" font-size="10.00">Clima</text>
</g>
<!-- Node2 -->
<g id="node2" class="node"><title>Node2</title>
<g id="a_node2"><a xlink:href="classCTermodinamica.xhtml#a49362abf7162741c870620b9afbccf66" target="_top" xlink:title="Cálculo da concentração de vapor. ">
<polygon fill="white" stroke="black" points="206,-0 206,-30 364,-30 364,-0 206,-0"/>
<text text-anchor="start" x="214" y="-18" font-family="Helvetica,sans-Serif" font-size="10.00">CTermodinamica::Concentracao</text>
<text text-anchor="middle" x="285" y="-7" font-family="Helvetica,sans-Serif" font-size="10.00">Vapor</text>
</a>
</g>
</g>
<!-- Node1&#45;&gt;Node2 -->
<g id="edge1" class="edge"><title>Node1&#45;&gt;Node2</title>
<path fill="none" stroke="midnightblue" d="M170.257,-15C178.638,-15 187.163,-15 195.585,-15"/>
<polygon fill="midnightblue" stroke="midnightblue" points="195.79,-18.5001 205.79,-15 195.79,-11.5001 195.79,-18.5001"/>
</g>
<!-- Node3 -->
<g id="node3" class="node"><title>Node3</title>
<g id="a_node3"><a xlink:href="classCTermodinamica.xhtml#ad71e178a8b77f553f5fb2631a509f790" target="_top" xlink:title="CTermodinamica::PressaoVapor">
<polygon fill="white" stroke="black" points="400,-5.5 400,-24.5 558,-24.5 558,-5.5 400,-5.5"/>
<text text-anchor="middle" x="479" y="-12.5" font-family="Helvetica,sans-Serif" font-size="10.00">CTermodinamica::PressaoVapor</text>
</a>
</g>
</g>
<!-- Node2&#45;&gt;Node3 -->
<g id="edge2" class="edge"><title>Node2&#45;&gt;Node3</title>
<path fill="none" stroke="midnightblue" d="M364.094,-15C372.601,-15 381.302,-15 389.918,-15"/>
<polygon fill="midnightblue" stroke="midnightblue" points="389.975,-18.5001 399.975,-15 389.975,-11.5001 389.975,-18.5001"/>
</g>
</g>
</svg>
