<?xml version="1.0" encoding="UTF-8" standalone="no"?>
<!DOCTYPE svg PUBLIC "-//W3C//DTD SVG 1.1//EN"
 "http://www.w3.org/Graphics/SVG/1.1/DTD/svg11.dtd">
<!-- Generated by graphviz version 2.34.0 (20140110.0949)
 -->
<!-- Title: CSimulador_Telha_GanhosEnergia::CSimulador_Telha_GanhosEnergia Pages: 1 -->
<svg width="940pt" height="126pt"
 viewBox="0.00 0.00 940.00 126.00" xmlns="http://www.w3.org/2000/svg" xmlns:xlink="http://www.w3.org/1999/xlink">
<g id="graph0" class="graph" transform="scale(1 1) rotate(0) translate(4 122)">
<title>CSimulador_Telha_GanhosEnergia::CSimulador_Telha_GanhosEnergia</title>
<polygon fill="white" stroke="white" points="-4,4 -4,-122 936,-122 936,4 -4,4"/>
<!-- Node1 -->
<g id="node1" class="node"><title>Node1</title>
<polygon fill="#bfbfbf" stroke="black" points="0.5,-44 0.5,-74 175.5,-74 175.5,-44 0.5,-44"/>
<text text-anchor="start" x="8.5" y="-62" font-family="Helvetica,sans-Serif" font-size="10.00">CSimulador_Telha_GanhosEnergia</text>
<text text-anchor="middle" x="88" y="-51" font-family="Helvetica,sans-Serif" font-size="10.00">::CSimulador_Telha_GanhosEnergia</text>
</g>
<!-- Node2 -->
<g id="node2" class="node"><title>Node2</title>
<g id="a_node2"><a xlink:href="classCSimulador__Telha__GanhosEnergia.xhtml#a8fee41da2f0f78851be425a7d0cc106d" target="_top" xlink:title="Dados default. ">
<polygon fill="white" stroke="black" points="212.5,-44 212.5,-74 381.5,-74 381.5,-44 212.5,-44"/>
<text text-anchor="start" x="220.5" y="-62" font-family="Helvetica,sans-Serif" font-size="10.00">CSimulador_Telha_GanhosEnergia</text>
<text text-anchor="middle" x="297" y="-51" font-family="Helvetica,sans-Serif" font-size="10.00">::DadosDefault</text>
</a>
</g>
</g>
<!-- Node1&#45;&gt;Node2 -->
<g id="edge1" class="edge"><title>Node1&#45;&gt;Node2</title>
<path fill="none" stroke="midnightblue" d="M175.587,-59C184.442,-59 193.466,-59 202.391,-59"/>
<polygon fill="midnightblue" stroke="midnightblue" points="202.411,-62.5001 212.411,-59 202.411,-55.5001 202.411,-62.5001"/>
</g>
<!-- Node3 -->
<g id="node3" class="node"><title>Node3</title>
<g id="a_node3"><a xlink:href="classCSimulador__Telha.xhtml#aa2592b5ca7cce1ac595cc3a658a17c85" target="_top" xlink:title="Dados default. ">
<polygon fill="white" stroke="black" points="418.5,-49.5 418.5,-68.5 581.5,-68.5 581.5,-49.5 418.5,-49.5"/>
<text text-anchor="middle" x="500" y="-56.5" font-family="Helvetica,sans-Serif" font-size="10.00">CSimulador_Telha::DadosDefault</text>
</a>
</g>
</g>
<!-- Node2&#45;&gt;Node3 -->
<g id="edge2" class="edge"><title>Node2&#45;&gt;Node3</title>
<path fill="none" stroke="midnightblue" d="M381.787,-59C390.458,-59 399.3,-59 408.045,-59"/>
<polygon fill="midnightblue" stroke="midnightblue" points="408.25,-62.5001 418.25,-59 408.25,-55.5001 408.25,-62.5001"/>
</g>
<!-- Node4 -->
<g id="node4" class="node"><title>Node4</title>
<g id="a_node4"><a xlink:href="classCTransferenciaCalorMassa.xhtml#a2c400d0fbb10492c2b940e6251c2011e" target="_top" xlink:title="Dados default. ">
<polygon fill="white" stroke="black" points="633,-88 633,-118 769,-118 769,-88 633,-88"/>
<text text-anchor="start" x="641" y="-106" font-family="Helvetica,sans-Serif" font-size="10.00">CTransferenciaCalorMassa</text>
<text text-anchor="middle" x="701" y="-95" font-family="Helvetica,sans-Serif" font-size="10.00">::DadosDefault</text>
</a>
</g>
</g>
<!-- Node3&#45;&gt;Node4 -->
<g id="edge3" class="edge"><title>Node3&#45;&gt;Node4</title>
<path fill="none" stroke="midnightblue" d="M544.18,-68.5473C567.088,-73.6124 595.934,-79.9905 622.561,-85.8779"/>
<polygon fill="midnightblue" stroke="midnightblue" points="622.121,-89.365 632.641,-88.1065 623.632,-82.53 622.121,-89.365"/>
</g>
<!-- Node5 -->
<g id="node5" class="node"><title>Node5</title>
<g id="a_node5"><a xlink:href="classCSolver__TDMA.xhtml#a06cfc18536df7e616efed8262809f99c" target="_top" xlink:title="Dados default. ">
<polygon fill="white" stroke="black" points="625,-49.5 625,-68.5 777,-68.5 777,-49.5 625,-49.5"/>
<text text-anchor="middle" x="701" y="-56.5" font-family="Helvetica,sans-Serif" font-size="10.00">CSolver_TDMA::DadosDefault</text>
</a>
</g>
</g>
<!-- Node3&#45;&gt;Node5 -->
<g id="edge4" class="edge"><title>Node3&#45;&gt;Node5</title>
<path fill="none" stroke="midnightblue" d="M581.654,-59C592.431,-59 603.515,-59 614.373,-59"/>
<polygon fill="midnightblue" stroke="midnightblue" points="614.698,-62.5001 624.698,-59 614.698,-55.5001 614.698,-62.5001"/>
</g>
<!-- Node6 -->
<g id="node6" class="node"><title>Node6</title>
<g id="a_node6"><a xlink:href="classCMeioPoroso__Telha__Discretizada__TDMA.xhtml#a6a9a0e50cbd1c9abb1c097ef548954a4" target="_top" xlink:title="Dados default. ">
<polygon fill="white" stroke="black" points="618.5,-0 618.5,-30 783.5,-30 783.5,-0 618.5,-0"/>
<text text-anchor="start" x="626.5" y="-18" font-family="Helvetica,sans-Serif" font-size="10.00">CMeioPoroso_Telha_Discretizada</text>
<text text-anchor="middle" x="701" y="-7" font-family="Helvetica,sans-Serif" font-size="10.00">_TDMA::DadosDefault</text>
</a>
</g>
</g>
<!-- Node3&#45;&gt;Node6 -->
<g id="edge5" class="edge"><title>Node3&#45;&gt;Node6</title>
<path fill="none" stroke="midnightblue" d="M544.18,-49.4527C566.885,-44.4324 595.424,-38.1223 621.854,-32.2785"/>
<polygon fill="midnightblue" stroke="midnightblue" points="622.855,-35.6418 631.863,-30.0654 621.344,-28.8069 622.855,-35.6418"/>
</g>
<!-- Node7 -->
<g id="node7" class="node"><title>Node7</title>
<g id="a_node7"><a xlink:href="classCMeioPoroso__Telha.xhtml#a50594076983c72b8963c80bd9483239c" target="_top" xlink:title="Dados default. ">
<polygon fill="white" stroke="black" points="820.5,-0 820.5,-30 931.5,-30 931.5,-0 820.5,-0"/>
<text text-anchor="start" x="828.5" y="-18" font-family="Helvetica,sans-Serif" font-size="10.00">CMeioPoroso_Telha::</text>
<text text-anchor="middle" x="876" y="-7" font-family="Helvetica,sans-Serif" font-size="10.00">DadosDefault</text>
</a>
</g>
</g>
<!-- Node6&#45;&gt;Node7 -->
<g id="edge6" class="edge"><title>Node6&#45;&gt;Node7</title>
<path fill="none" stroke="midnightblue" d="M783.687,-15C792.616,-15 801.614,-15 810.298,-15"/>
<polygon fill="midnightblue" stroke="midnightblue" points="810.326,-18.5001 820.326,-15 810.326,-11.5001 810.326,-18.5001"/>
</g>
</g>
</svg>
