<?xml version="1.0" encoding="UTF-8" standalone="no"?>
<!DOCTYPE svg PUBLIC "-//W3C//DTD SVG 1.1//EN"
 "http://www.w3.org/Graphics/SVG/1.1/DTD/svg11.dtd">
<!-- Generated by graphviz version 2.34.0 (20140110.0949)
 -->
<!-- Title: CFuncaoAdsorcao_Pablo Pages: 1 -->
<svg width="156pt" height="294pt"
 viewBox="0.00 0.00 156.00 294.00" xmlns="http://www.w3.org/2000/svg" xmlns:xlink="http://www.w3.org/1999/xlink">
<g id="graph0" class="graph" transform="scale(1 1) rotate(0) translate(4 290)">
<title>CFuncaoAdsorcao_Pablo</title>
<polygon fill="white" stroke="white" points="-4,4 -4,-290 152,-290 152,4 -4,4"/>
<!-- Node1 -->
<g id="node1" class="node"><title>Node1</title>
<polygon fill="#bfbfbf" stroke="black" points="-0.5,-1 -0.5,-91 148.5,-91 148.5,-1 -0.5,-1"/>
<text text-anchor="middle" x="74" y="-79" font-family="Helvetica,sans-Serif" font-size="10.00">CFuncaoAdsorcao_Pablo</text>
<polyline fill="none" stroke="black" points="-0.5,-72 148.5,-72 "/>
<text text-anchor="middle" x="74" y="-60" font-family="Helvetica,sans-Serif" font-size="10.00"> </text>
<polyline fill="none" stroke="black" points="-0.5,-53 148.5,-53 "/>
<text text-anchor="start" x="7.5" y="-41" font-family="Helvetica,sans-Serif" font-size="10.00">+ CFuncaoAdsorcao_Pablo()</text>
<text text-anchor="start" x="7.5" y="-30" font-family="Helvetica,sans-Serif" font-size="10.00">+ ~CFuncaoAdsorcao_Pablo()</text>
<text text-anchor="start" x="7.5" y="-19" font-family="Helvetica,sans-Serif" font-size="10.00">+ DadosDefault()</text>
<text text-anchor="start" x="7.5" y="-8" font-family="Helvetica,sans-Serif" font-size="10.00">+ ResultadosEnsaio()</text>
</g>
<!-- Node2 -->
<g id="node2" class="node"><title>Node2</title>
<g id="a_node2"><a xlink:href="classCFuncaoAdsorcao.xhtml" target="_top" xlink:title="por causa rotinas entrada saída ">
<polygon fill="white" stroke="black" points="12.5,-129 12.5,-285 135.5,-285 135.5,-129 12.5,-129"/>
<text text-anchor="middle" x="74" y="-273" font-family="Helvetica,sans-Serif" font-size="10.00">CFuncaoAdsorcao</text>
<polyline fill="none" stroke="black" points="12.5,-266 135.5,-266 "/>
<text text-anchor="start" x="20.5" y="-254" font-family="Helvetica,sans-Serif" font-size="10.00"># h</text>
<text text-anchor="start" x="20.5" y="-243" font-family="Helvetica,sans-Serif" font-size="10.00"># temperatura_ensaio</text>
<text text-anchor="start" x="20.5" y="-232" font-family="Helvetica,sans-Serif" font-size="10.00">_adsorcao</text>
<polyline fill="none" stroke="black" points="12.5,-225 135.5,-225 "/>
<text text-anchor="start" x="20.5" y="-213" font-family="Helvetica,sans-Serif" font-size="10.00">+ CFuncaoAdsorcao()</text>
<text text-anchor="start" x="20.5" y="-202" font-family="Helvetica,sans-Serif" font-size="10.00">+ ~CFuncaoAdsorcao()</text>
<text text-anchor="start" x="20.5" y="-191" font-family="Helvetica,sans-Serif" font-size="10.00">+ DadosDefault()</text>
<text text-anchor="start" x="20.5" y="-180" font-family="Helvetica,sans-Serif" font-size="10.00">+ EntrarDadosFuncao()</text>
<text text-anchor="start" x="20.5" y="-169" font-family="Helvetica,sans-Serif" font-size="10.00">+ Umidade()</text>
<text text-anchor="start" x="20.5" y="-158" font-family="Helvetica,sans-Serif" font-size="10.00">+ operator()()</text>
<text text-anchor="start" x="20.5" y="-147" font-family="Helvetica,sans-Serif" font-size="10.00"># ResultadosEnsaio()</text>
<text text-anchor="start" x="20.5" y="-136" font-family="Helvetica,sans-Serif" font-size="10.00">&#45; CorrecaoTemperatura()</text>
</a>
</g>
</g>
<!-- Node2&#45;&gt;Node1 -->
<g id="edge1" class="edge"><title>Node2&#45;&gt;Node1</title>
<path fill="none" stroke="midnightblue" d="M74,-118.8C74,-109.206 74,-99.7625 74,-91.0364"/>
<polygon fill="none" stroke="midnightblue" points="70.5001,-118.829 74,-128.829 77.5001,-118.829 70.5001,-118.829"/>
</g>
</g>
</svg>
