<?xml version="1.0" encoding="UTF-8" standalone="no"?>
<!DOCTYPE svg PUBLIC "-//W3C//DTD SVG 1.1//EN"
 "http://www.w3.org/Graphics/SVG/1.1/DTD/svg11.dtd">
<!-- Generated by graphviz version 2.34.0 (20140110.0949)
 -->
<!-- Title: CTransferenciaCalorMassa Pages: 1 -->
<svg width="164pt" height="250pt"
 viewBox="0.00 0.00 164.00 250.00" xmlns="http://www.w3.org/2000/svg" xmlns:xlink="http://www.w3.org/1999/xlink">
<g id="graph0" class="graph" transform="scale(1 1) rotate(0) translate(4 246)">
<title>CTransferenciaCalorMassa</title>
<polygon fill="white" stroke="white" points="-4,4 -4,-246 160,-246 160,4 -4,4"/>
<!-- Node1 -->
<g id="node1" class="node"><title>Node1</title>
<polygon fill="#bfbfbf" stroke="black" points="-0.5,-1 -0.5,-91 156.5,-91 156.5,-1 -0.5,-1"/>
<text text-anchor="middle" x="78" y="-79" font-family="Helvetica,sans-Serif" font-size="10.00">CTransferenciaCalorMassa</text>
<polyline fill="none" stroke="black" points="-0.5,-72 156.5,-72 "/>
<text text-anchor="middle" x="78" y="-60" font-family="Helvetica,sans-Serif" font-size="10.00"> </text>
<polyline fill="none" stroke="black" points="-0.5,-53 156.5,-53 "/>
<text text-anchor="start" x="7.5" y="-41" font-family="Helvetica,sans-Serif" font-size="10.00">+ CTransferenciaCalorMassa()</text>
<text text-anchor="start" x="7.5" y="-30" font-family="Helvetica,sans-Serif" font-size="10.00">+ ~CTransferenciaCalorMassa()</text>
<text text-anchor="start" x="7.5" y="-19" font-family="Helvetica,sans-Serif" font-size="10.00"># DadosDefault()</text>
<text text-anchor="start" x="7.5" y="-8" font-family="Helvetica,sans-Serif" font-size="10.00"># EntrarDadosObjeto()</text>
</g>
<!-- Node2 -->
<g id="node2" class="node"><title>Node2</title>
<polygon fill="white" stroke="#bfbfbf" points="55.5,-184.5 55.5,-241.5 100.5,-241.5 100.5,-184.5 55.5,-184.5"/>
<text text-anchor="middle" x="78" y="-229.5" font-family="Helvetica,sans-Serif" font-size="10.00">double</text>
<polyline fill="none" stroke="#bfbfbf" points="55.5,-222.5 100.5,-222.5 "/>
<text text-anchor="middle" x="78" y="-210.5" font-family="Helvetica,sans-Serif" font-size="10.00"> </text>
<polyline fill="none" stroke="#bfbfbf" points="55.5,-203.5 100.5,-203.5 "/>
<text text-anchor="middle" x="78" y="-191.5" font-family="Helvetica,sans-Serif" font-size="10.00"> </text>
</g>
<!-- Node2&#45;&gt;Node1 -->
<g id="edge1" class="edge"><title>Node2&#45;&gt;Node1</title>
<path fill="none" stroke="#404040" d="M78,-184.383C78,-162.345 78,-130.747 78,-103.409"/>
<polygon fill="none" stroke="#404040" points="78.0001,-103.197 74,-97.1975 78,-91.1975 82,-97.1975 78.0001,-103.197"/>
<text text-anchor="middle" x="94" y="-157.5" font-family="Helvetica,sans-Serif" font-size="10.00"> #hce</text>
<text text-anchor="middle" x="94" y="-146.5" font-family="Helvetica,sans-Serif" font-size="10.00">#hci</text>
<text text-anchor="middle" x="94" y="-135.5" font-family="Helvetica,sans-Serif" font-size="10.00">#hme</text>
<text text-anchor="middle" x="94" y="-124.5" font-family="Helvetica,sans-Serif" font-size="10.00">#hmi</text>
<text text-anchor="middle" x="94" y="-113.5" font-family="Helvetica,sans-Serif" font-size="10.00">#sigma</text>
</g>
</g>
</svg>
