<?xml version="1.0" encoding="UTF-8" standalone="no"?>
<!DOCTYPE svg PUBLIC "-//W3C//DTD SVG 1.1//EN"
 "http://www.w3.org/Graphics/SVG/1.1/DTD/svg11.dtd">
<!-- Generated by graphviz version 2.34.0 (20140110.0949)
 -->
<!-- Title: CTermodinamica::PressaoVapor Pages: 1 -->
<svg width="766pt" height="175pt"
 viewBox="0.00 0.00 766.00 175.00" xmlns="http://www.w3.org/2000/svg" xmlns:xlink="http://www.w3.org/1999/xlink">
<g id="graph0" class="graph" transform="scale(1 1) rotate(0) translate(4 171)">
<title>CTermodinamica::PressaoVapor</title>
<polygon fill="white" stroke="white" points="-4,4 -4,-171 762,-171 762,4 -4,4"/>
<!-- Node1 -->
<g id="node1" class="node"><title>Node1</title>
<polygon fill="#bfbfbf" stroke="black" points="0,-76.5 0,-95.5 158,-95.5 158,-76.5 0,-76.5"/>
<text text-anchor="middle" x="79" y="-83.5" font-family="Helvetica,sans-Serif" font-size="10.00">CTermodinamica::PressaoVapor</text>
</g>
<!-- Node2 -->
<g id="node2" class="node"><title>Node2</title>
<g id="a_node2"><a xlink:href="classCTermodinamica.xhtml#a49362abf7162741c870620b9afbccf66" target="_top" xlink:title="Cálculo da concentração de vapor. ">
<polygon fill="white" stroke="black" points="194,-71 194,-101 352,-101 352,-71 194,-71"/>
<text text-anchor="start" x="202" y="-89" font-family="Helvetica,sans-Serif" font-size="10.00">CTermodinamica::Concentracao</text>
<text text-anchor="middle" x="273" y="-78" font-family="Helvetica,sans-Serif" font-size="10.00">Vapor</text>
</a>
</g>
</g>
<!-- Node1&#45;&gt;Node2 -->
<g id="edge1" class="edge"><title>Node1&#45;&gt;Node2</title>
<path fill="none" stroke="midnightblue" d="M168.153,-86C176.769,-86 185.47,-86 193.975,-86"/>
<polygon fill="midnightblue" stroke="midnightblue" points="168.094,-82.5001 158.094,-86 168.094,-89.5001 168.094,-82.5001"/>
</g>
<!-- Node3 -->
<g id="node3" class="node"><title>Node3</title>
<g id="a_node3"><a xlink:href="classCSimulador__Telha.xhtml#a722e545a25689e36aff4d96cccd1ffcf" target="_top" xlink:title="Cálculo dos valores médios de condutividade e difusividade. ">
<polygon fill="white" stroke="black" points="403.5,-137 403.5,-167 542.5,-167 542.5,-137 403.5,-137"/>
<text text-anchor="start" x="411.5" y="-155" font-family="Helvetica,sans-Serif" font-size="10.00">CSimulador_Telha::Calcular</text>
<text text-anchor="middle" x="473" y="-144" font-family="Helvetica,sans-Serif" font-size="10.00">_wl_h_rov_dif_k</text>
</a>
</g>
</g>
<!-- Node2&#45;&gt;Node3 -->
<g id="edge2" class="edge"><title>Node2&#45;&gt;Node3</title>
<path fill="none" stroke="midnightblue" d="M323.659,-104.542C343.574,-111.8 366.791,-120.036 388,-127 398.264,-130.37 409.296,-133.794 419.88,-136.982"/>
<polygon fill="midnightblue" stroke="midnightblue" points="324.765,-101.22 314.171,-101.068 322.358,-107.793 324.765,-101.22"/>
</g>
<!-- Node4 -->
<g id="node4" class="node"><title>Node4</title>
<g id="a_node4"><a xlink:href="classCFuncoesClima.xhtml#adbb305c4199c55873aefeb0e22e0a5e4" target="_top" xlink:title="Dados default. ">
<polygon fill="white" stroke="black" points="396.5,-98.5 396.5,-117.5 549.5,-117.5 549.5,-98.5 396.5,-98.5"/>
<text text-anchor="middle" x="473" y="-105.5" font-family="Helvetica,sans-Serif" font-size="10.00">CFuncoesClima::DadosDefault</text>
</a>
</g>
</g>
<!-- Node2&#45;&gt;Node4 -->
<g id="edge3" class="edge"><title>Node2&#45;&gt;Node4</title>
<path fill="none" stroke="midnightblue" d="M362.525,-95.8361C373.782,-97.0869 385.221,-98.3579 396.253,-99.5837"/>
<polygon fill="midnightblue" stroke="midnightblue" points="362.58,-92.3208 352.255,-94.695 361.807,-99.278 362.58,-92.3208"/>
</g>
<!-- Node6 -->
<g id="node6" class="node"><title>Node6</title>
<g id="a_node6"><a xlink:href="classCFuncoesClima.xhtml#a7f03fe9f4313e2a03e36f33b54a71936" target="_top" xlink:title="Entrada de dados. ">
<polygon fill="white" stroke="black" points="399,-49 399,-79 547,-79 547,-49 399,-49"/>
<text text-anchor="start" x="407" y="-67" font-family="Helvetica,sans-Serif" font-size="10.00">CFuncoesClima::EntrarDados</text>
<text text-anchor="middle" x="473" y="-56" font-family="Helvetica,sans-Serif" font-size="10.00">Objeto</text>
</a>
</g>
</g>
<!-- Node2&#45;&gt;Node6 -->
<g id="edge5" class="edge"><title>Node2&#45;&gt;Node6</title>
<path fill="none" stroke="midnightblue" d="M362.412,-76.1765C374.583,-74.8241 386.97,-73.4478 398.826,-72.1305"/>
<polygon fill="midnightblue" stroke="midnightblue" points="361.807,-72.722 352.255,-77.305 362.58,-79.6792 361.807,-72.722"/>
</g>
<!-- Node7 -->
<g id="node7" class="node"><title>Node7</title>
<g id="a_node7"><a xlink:href="classCFuncoesClima.xhtml#a64e6dc948deb1d9481b45ea2a6cb6c15" target="_top" xlink:title="CFuncoesClima::ExecutarFuncoes\lClima">
<polygon fill="white" stroke="black" points="388,-0 388,-30 558,-30 558,-0 388,-0"/>
<text text-anchor="start" x="396" y="-18" font-family="Helvetica,sans-Serif" font-size="10.00">CFuncoesClima::ExecutarFuncoes</text>
<text text-anchor="middle" x="473" y="-7" font-family="Helvetica,sans-Serif" font-size="10.00">Clima</text>
</a>
</g>
</g>
<!-- Node2&#45;&gt;Node7 -->
<g id="edge6" class="edge"><title>Node2&#45;&gt;Node7</title>
<path fill="none" stroke="midnightblue" d="M317.134,-66.8707C338.275,-57.8419 364.241,-47.2624 388,-39 397.025,-35.8615 406.695,-32.8142 416.147,-30.0034"/>
<polygon fill="midnightblue" stroke="midnightblue" points="315.586,-63.7266 307.785,-70.8961 318.354,-70.1559 315.586,-63.7266"/>
</g>
<!-- Node5 -->
<g id="node5" class="node"><title>Node5</title>
<g id="a_node5"><a xlink:href="classCFuncoesClima.xhtml#aa5a957d0b3ab212fd5b1ecd471068b12" target="_top" xlink:title="Construtor. ">
<polygon fill="white" stroke="black" points="594,-98.5 594,-117.5 758,-117.5 758,-98.5 594,-98.5"/>
<text text-anchor="middle" x="676" y="-105.5" font-family="Helvetica,sans-Serif" font-size="10.00">CFuncoesClima::CFuncoesClima</text>
</a>
</g>
</g>
<!-- Node4&#45;&gt;Node5 -->
<g id="edge4" class="edge"><title>Node4&#45;&gt;Node5</title>
<path fill="none" stroke="midnightblue" d="M559.979,-108C571.263,-108 582.796,-108 593.993,-108"/>
<polygon fill="midnightblue" stroke="midnightblue" points="559.703,-104.5 549.703,-108 559.703,-111.5 559.703,-104.5"/>
</g>
<!-- Node8 -->
<g id="node8" class="node"><title>Node8</title>
<g id="a_node8"><a xlink:href="classCFuncoesClima.xhtml#ae5e9416ada714340dc87fd95b4c9898b" target="_top" xlink:title="Executa funções clima. ">
<polygon fill="white" stroke="black" points="609,-5.5 609,-24.5 743,-24.5 743,-5.5 609,-5.5"/>
<text text-anchor="middle" x="676" y="-12.5" font-family="Helvetica,sans-Serif" font-size="10.00">CFuncoesClima::operator()</text>
</a>
</g>
</g>
<!-- Node7&#45;&gt;Node8 -->
<g id="edge7" class="edge"><title>Node7&#45;&gt;Node8</title>
<path fill="none" stroke="midnightblue" d="M568.095,-15C581.913,-15 595.893,-15 608.985,-15"/>
<polygon fill="midnightblue" stroke="midnightblue" points="568.078,-11.5001 558.077,-15 568.077,-18.5001 568.078,-11.5001"/>
</g>
</g>
</svg>
