<?xml version="1.0" encoding="UTF-8" standalone="no"?>
<!DOCTYPE svg PUBLIC "-//W3C//DTD SVG 1.1//EN"
 "http://www.w3.org/Graphics/SVG/1.1/DTD/svg11.dtd">
<!-- Generated by graphviz version 2.34.0 (20140110.0949)
 -->
<!-- Title: Gnuplot::Hidden3d Pages: 1 -->
<svg width="380pt" height="66pt"
 viewBox="0.00 0.00 380.00 66.00" xmlns="http://www.w3.org/2000/svg" xmlns:xlink="http://www.w3.org/1999/xlink">
<g id="graph0" class="graph" transform="scale(1 1) rotate(0) translate(4 62)">
<title>Gnuplot::Hidden3d</title>
<polygon fill="white" stroke="white" points="-4,4 -4,-62 376,-62 376,4 -4,4"/>
<!-- Node1 -->
<g id="node1" class="node"><title>Node1</title>
<polygon fill="#bfbfbf" stroke="black" points="0,-19.5 0,-38.5 98,-38.5 98,-19.5 0,-19.5"/>
<text text-anchor="middle" x="49" y="-26.5" font-family="Helvetica,sans-Serif" font-size="10.00">Gnuplot::Hidden3d</text>
</g>
<!-- Node2 -->
<g id="node2" class="node"><title>Node2</title>
<g id="a_node2"><a xlink:href="classGnuplot.xhtml#a5ada5c76db0a735d3d331caa0eb4968a" target="_top" xlink:title="Ativa remocao de linhas ocultas na plotagem de superficies (para plotagen 3d). ">
<polygon fill="white" stroke="black" points="140,-38.5 140,-57.5 254,-57.5 254,-38.5 140,-38.5"/>
<text text-anchor="middle" x="197" y="-45.5" font-family="Helvetica,sans-Serif" font-size="10.00">Gnuplot::set_hidden3d</text>
</a>
</g>
</g>
<!-- Node1&#45;&gt;Node2 -->
<g id="edge1" class="edge"><title>Node1&#45;&gt;Node2</title>
<path fill="none" stroke="midnightblue" d="M98.2105,-35.274C108.344,-36.5928 119.202,-38.0057 129.862,-39.393"/>
<polygon fill="midnightblue" stroke="midnightblue" points="129.624,-42.8915 139.992,-40.7113 130.527,-35.95 129.624,-42.8915"/>
</g>
<!-- Node4 -->
<g id="node4" class="node"><title>Node4</title>
<g id="a_node4"><a xlink:href="classGnuplot.xhtml#a763ff17df1679cc2b1463b024aa89ebc" target="_top" xlink:title="Desativa remocao de linhas ocultas na plotagem de superficies (para plotagen 3d). ...">
<polygon fill="white" stroke="black" points="134.5,-0.5 134.5,-19.5 259.5,-19.5 259.5,-0.5 134.5,-0.5"/>
<text text-anchor="middle" x="197" y="-7.5" font-family="Helvetica,sans-Serif" font-size="10.00">Gnuplot::unset_hidden3d</text>
</a>
</g>
</g>
<!-- Node1&#45;&gt;Node4 -->
<g id="edge3" class="edge"><title>Node1&#45;&gt;Node4</title>
<path fill="none" stroke="midnightblue" d="M98.2105,-22.726C106.599,-21.6344 115.483,-20.4783 124.34,-19.3256"/>
<polygon fill="midnightblue" stroke="midnightblue" points="124.837,-22.7905 134.302,-18.0292 123.934,-15.849 124.837,-22.7905"/>
</g>
<!-- Node3 -->
<g id="node3" class="node"><title>Node3</title>
<g id="a_node3"><a xlink:href="classGnuplot.xhtml#a07607803ede8dd5416906df0a1924fc5" target="_top" xlink:title="Envia comando para o gnuplot. ">
<polygon fill="white" stroke="black" points="296.5,-19.5 296.5,-38.5 371.5,-38.5 371.5,-19.5 296.5,-19.5"/>
<text text-anchor="middle" x="334" y="-26.5" font-family="Helvetica,sans-Serif" font-size="10.00">Gnuplot::cmd</text>
</a>
</g>
</g>
<!-- Node2&#45;&gt;Node3 -->
<g id="edge2" class="edge"><title>Node2&#45;&gt;Node3</title>
<path fill="none" stroke="midnightblue" d="M254.079,-40.1074C264.729,-38.6086 275.768,-37.0548 286.097,-35.6012"/>
<polygon fill="midnightblue" stroke="midnightblue" points="286.732,-39.0463 296.147,-34.1867 285.757,-32.1146 286.732,-39.0463"/>
</g>
<!-- Node4&#45;&gt;Node3 -->
<g id="edge4" class="edge"><title>Node4&#45;&gt;Node3</title>
<path fill="none" stroke="midnightblue" d="M259.574,-18.666C268.473,-19.9185 277.511,-21.1904 286.062,-22.3938"/>
<polygon fill="midnightblue" stroke="midnightblue" points="285.818,-25.894 296.208,-23.8219 286.794,-18.9623 285.818,-25.894"/>
</g>
</g>
</svg>
