<?xml version="1.0" encoding="UTF-8" standalone="no"?>
<!DOCTYPE svg PUBLIC "-//W3C//DTD SVG 1.1//EN"
 "http://www.w3.org/Graphics/SVG/1.1/DTD/svg11.dtd">
<!-- Generated by graphviz version 2.34.0 (20140110.0949)
 -->
<!-- Title: Gnuplot::plot_xyz Pages: 1 -->
<svg width="394pt" height="85pt"
 viewBox="0.00 0.00 394.00 85.00" xmlns="http://www.w3.org/2000/svg" xmlns:xlink="http://www.w3.org/1999/xlink">
<g id="graph0" class="graph" transform="scale(1 1) rotate(0) translate(4 81)">
<title>Gnuplot::plot_xyz</title>
<polygon fill="white" stroke="white" points="-4,4 -4,-81 390,-81 390,4 -4,4"/>
<!-- Node1 -->
<g id="node1" class="node"><title>Node1</title>
<polygon fill="#bfbfbf" stroke="black" points="0.5,-38.5 0.5,-57.5 93.5,-57.5 93.5,-38.5 0.5,-38.5"/>
<text text-anchor="middle" x="47" y="-45.5" font-family="Helvetica,sans-Serif" font-size="10.00">Gnuplot::plot_xyz</text>
</g>
<!-- Node2 -->
<g id="node2" class="node"><title>Node2</title>
<g id="a_node2"><a xlink:href="classGnuplot.xhtml#a8ced9e766e0677b938178dafe9264ff7" target="_top" xlink:title="Cria arquivo temporario. ">
<polygon fill="white" stroke="black" points="130,-57.5 130,-76.5 248,-76.5 248,-57.5 130,-57.5"/>
<text text-anchor="middle" x="189" y="-64.5" font-family="Helvetica,sans-Serif" font-size="10.00">Gnuplot::create_tmpfile</text>
</a>
</g>
</g>
<!-- Node1&#45;&gt;Node2 -->
<g id="edge1" class="edge"><title>Node1&#45;&gt;Node2</title>
<path fill="none" stroke="midnightblue" d="M93.8412,-54.2213C102.185,-55.3536 111.05,-56.5568 119.876,-57.7545"/>
<polygon fill="midnightblue" stroke="midnightblue" points="119.413,-61.2238 129.793,-59.1005 120.355,-54.2874 119.413,-61.2238"/>
</g>
<!-- Node3 -->
<g id="node3" class="node"><title>Node3</title>
<g id="a_node3"><a xlink:href="classGnuplot.xhtml#abd1c17c49fc59979a1143384c77c5b66" target="_top" xlink:title="Plota valores de x,y,z a partir de um arquivo de disco. ">
<polygon fill="white" stroke="black" points="136,-19.5 136,-38.5 242,-38.5 242,-19.5 136,-19.5"/>
<text text-anchor="middle" x="189" y="-26.5" font-family="Helvetica,sans-Serif" font-size="10.00">Gnuplot::plotfile_xyz</text>
</a>
</g>
</g>
<!-- Node1&#45;&gt;Node3 -->
<g id="edge2" class="edge"><title>Node1&#45;&gt;Node3</title>
<path fill="none" stroke="midnightblue" d="M93.8412,-41.7787C103.994,-40.4008 114.919,-38.9181 125.606,-37.4678"/>
<polygon fill="midnightblue" stroke="midnightblue" points="126.306,-40.9049 135.745,-36.0918 125.365,-33.9685 126.306,-40.9049"/>
</g>
<!-- Node4 -->
<g id="node4" class="node"><title>Node4</title>
<g id="a_node4"><a xlink:href="classGnuplot.xhtml#abc0f1d75cb78804a5b8efdfa4df582cd" target="_top" xlink:title="Checa se o arquivo existe. ">
<polygon fill="white" stroke="black" points="284.5,-38.5 284.5,-57.5 385.5,-57.5 385.5,-38.5 284.5,-38.5"/>
<text text-anchor="middle" x="335" y="-45.5" font-family="Helvetica,sans-Serif" font-size="10.00">Gnuplot::file_exists</text>
</a>
</g>
</g>
<!-- Node3&#45;&gt;Node4 -->
<g id="edge3" class="edge"><title>Node3&#45;&gt;Node4</title>
<path fill="none" stroke="midnightblue" d="M242.395,-35.9132C252.755,-37.2801 263.701,-38.7244 274.282,-40.1205"/>
<polygon fill="midnightblue" stroke="midnightblue" points="273.912,-43.602 284.284,-41.4403 274.828,-36.6622 273.912,-43.602"/>
</g>
<!-- Node5 -->
<g id="node5" class="node"><title>Node5</title>
<g id="a_node5"><a xlink:href="classGnuplot.xhtml#a07607803ede8dd5416906df0a1924fc5" target="_top" xlink:title="Envia comando para o gnuplot. ">
<polygon fill="white" stroke="black" points="297.5,-0.5 297.5,-19.5 372.5,-19.5 372.5,-0.5 297.5,-0.5"/>
<text text-anchor="middle" x="335" y="-7.5" font-family="Helvetica,sans-Serif" font-size="10.00">Gnuplot::cmd</text>
</a>
</g>
</g>
<!-- Node3&#45;&gt;Node5 -->
<g id="edge4" class="edge"><title>Node3&#45;&gt;Node5</title>
<path fill="none" stroke="midnightblue" d="M242.395,-22.0868C257.019,-20.1572 272.812,-18.0735 287.098,-16.1885"/>
<polygon fill="midnightblue" stroke="midnightblue" points="287.739,-19.6343 297.195,-14.8562 286.823,-12.6944 287.739,-19.6343"/>
</g>
</g>
</svg>
