<?xml version="1.0" encoding="UTF-8" standalone="no"?>
<!DOCTYPE svg PUBLIC "-//W3C//DTD SVG 1.1//EN"
 "http://www.w3.org/Graphics/SVG/1.1/DTD/svg11.dtd">
<!-- Generated by graphviz version 2.34.0 (20140110.0949)
 -->
<!-- Title: Gnuplot::ResetAll Pages: 1 -->
<svg width="500pt" height="47pt"
 viewBox="0.00 0.00 500.00 47.00" xmlns="http://www.w3.org/2000/svg" xmlns:xlink="http://www.w3.org/1999/xlink">
<g id="graph0" class="graph" transform="scale(1 1) rotate(0) translate(4 43)">
<title>Gnuplot::ResetAll</title>
<polygon fill="white" stroke="white" points="-4,4 -4,-43 496,-43 496,4 -4,4"/>
<!-- Node1 -->
<g id="node1" class="node"><title>Node1</title>
<polygon fill="#bfbfbf" stroke="black" points="0,-19.5 0,-38.5 94,-38.5 94,-19.5 0,-19.5"/>
<text text-anchor="middle" x="47" y="-26.5" font-family="Helvetica,sans-Serif" font-size="10.00">Gnuplot::ResetAll</text>
</g>
<!-- Node2 -->
<g id="node2" class="node"><title>Node2</title>
<g id="a_node2"><a xlink:href="classGnuplot.xhtml#a9aedfe8371083a1a3ac2b9493810049c" target="_top" xlink:title="Gnuplot::reset_all">
<polygon fill="white" stroke="black" points="130.5,-19.5 130.5,-38.5 223.5,-38.5 223.5,-19.5 130.5,-19.5"/>
<text text-anchor="middle" x="177" y="-26.5" font-family="Helvetica,sans-Serif" font-size="10.00">Gnuplot::reset_all</text>
</a>
</g>
</g>
<!-- Node1&#45;&gt;Node2 -->
<g id="edge1" class="edge"><title>Node1&#45;&gt;Node2</title>
<path fill="none" stroke="midnightblue" d="M94.2109,-29C102.652,-29 111.541,-29 120.225,-29"/>
<polygon fill="midnightblue" stroke="midnightblue" points="120.286,-32.5001 130.286,-29 120.286,-25.5001 120.286,-32.5001"/>
</g>
<!-- Node3 -->
<g id="node3" class="node"><title>Node3</title>
<g id="a_node3"><a xlink:href="classGnuplot.xhtml#a07607803ede8dd5416906df0a1924fc5" target="_top" xlink:title="Envia comando para o gnuplot. ">
<polygon fill="white" stroke="black" points="416.5,-19.5 416.5,-38.5 491.5,-38.5 491.5,-19.5 416.5,-19.5"/>
<text text-anchor="middle" x="454" y="-26.5" font-family="Helvetica,sans-Serif" font-size="10.00">Gnuplot::cmd</text>
</a>
</g>
</g>
<!-- Node2&#45;&gt;Node3 -->
<g id="edge2" class="edge"><title>Node2&#45;&gt;Node3</title>
<path fill="none" stroke="midnightblue" d="M223.719,-29C274.301,-29 355.378,-29 406.336,-29"/>
<polygon fill="midnightblue" stroke="midnightblue" points="406.419,-32.5001 416.419,-29 406.419,-25.5001 406.419,-32.5001"/>
</g>
<!-- Node4 -->
<g id="node4" class="node"><title>Node4</title>
<g id="a_node4"><a xlink:href="classGnuplot.xhtml#a356d2faaa79f08d13fec9718b776b28d" target="_top" xlink:title="Mostrar na tela ou escrever no arquivo, seta o tipo de terminal para terminal_std. ">
<polygon fill="white" stroke="black" points="260.5,-0.5 260.5,-19.5 379.5,-19.5 379.5,-0.5 260.5,-0.5"/>
<text text-anchor="middle" x="320" y="-7.5" font-family="Helvetica,sans-Serif" font-size="10.00">Gnuplot::showonscreen</text>
</a>
</g>
</g>
<!-- Node2&#45;&gt;Node4 -->
<g id="edge3" class="edge"><title>Node2&#45;&gt;Node4</title>
<path fill="none" stroke="midnightblue" d="M223.779,-22.8312C232.25,-21.6897 241.267,-20.4746 250.246,-19.2647"/>
<polygon fill="midnightblue" stroke="midnightblue" points="250.894,-22.7092 260.337,-17.905 249.959,-15.7719 250.894,-22.7092"/>
</g>
<!-- Node4&#45;&gt;Node3 -->
<g id="edge4" class="edge"><title>Node4&#45;&gt;Node3</title>
<path fill="none" stroke="midnightblue" d="M379.666,-18.4443C388.673,-19.7408 397.865,-21.0638 406.559,-22.3152"/>
<polygon fill="midnightblue" stroke="midnightblue" points="406.098,-25.785 416.495,-23.7455 407.096,-18.8564 406.098,-25.785"/>
</g>
</g>
</svg>
