<?xml version="1.0" encoding="UTF-8" standalone="no"?>
<!DOCTYPE svg PUBLIC "-//W3C//DTD SVG 1.1//EN"
 "http://www.w3.org/Graphics/SVG/1.1/DTD/svg11.dtd">
<!-- Generated by graphviz version 2.34.0 (20140110.0949)
 -->
<!-- Title: CFuncaoAdsorcao Pages: 1 -->
<svg width="323pt" height="294pt"
 viewBox="0.00 0.00 323.00 294.00" xmlns="http://www.w3.org/2000/svg" xmlns:xlink="http://www.w3.org/1999/xlink">
<g id="graph0" class="graph" transform="scale(1 1) rotate(0) translate(4 290)">
<title>CFuncaoAdsorcao</title>
<polygon fill="white" stroke="white" points="-4,4 -4,-290 319,-290 319,4 -4,4"/>
<!-- Node1 -->
<g id="node1" class="node"><title>Node1</title>
<polygon fill="#bfbfbf" stroke="black" points="95.5,-129 95.5,-285 218.5,-285 218.5,-129 95.5,-129"/>
<text text-anchor="middle" x="157" y="-273" font-family="Helvetica,sans-Serif" font-size="10.00">CFuncaoAdsorcao</text>
<polyline fill="none" stroke="black" points="95.5,-266 218.5,-266 "/>
<text text-anchor="start" x="103.5" y="-254" font-family="Helvetica,sans-Serif" font-size="10.00"># h</text>
<text text-anchor="start" x="103.5" y="-243" font-family="Helvetica,sans-Serif" font-size="10.00"># temperatura_ensaio</text>
<text text-anchor="start" x="103.5" y="-232" font-family="Helvetica,sans-Serif" font-size="10.00">_adsorcao</text>
<polyline fill="none" stroke="black" points="95.5,-225 218.5,-225 "/>
<text text-anchor="start" x="103.5" y="-213" font-family="Helvetica,sans-Serif" font-size="10.00">+ CFuncaoAdsorcao()</text>
<text text-anchor="start" x="103.5" y="-202" font-family="Helvetica,sans-Serif" font-size="10.00">+ ~CFuncaoAdsorcao()</text>
<text text-anchor="start" x="103.5" y="-191" font-family="Helvetica,sans-Serif" font-size="10.00">+ DadosDefault()</text>
<text text-anchor="start" x="103.5" y="-180" font-family="Helvetica,sans-Serif" font-size="10.00">+ EntrarDadosFuncao()</text>
<text text-anchor="start" x="103.5" y="-169" font-family="Helvetica,sans-Serif" font-size="10.00">+ Umidade()</text>
<text text-anchor="start" x="103.5" y="-158" font-family="Helvetica,sans-Serif" font-size="10.00">+ operator()()</text>
<text text-anchor="start" x="103.5" y="-147" font-family="Helvetica,sans-Serif" font-size="10.00"># ResultadosEnsaio()</text>
<text text-anchor="start" x="103.5" y="-136" font-family="Helvetica,sans-Serif" font-size="10.00">&#45; CorrecaoTemperatura()</text>
</g>
<!-- Node2 -->
<g id="node2" class="node"><title>Node2</title>
<g id="a_node2"><a xlink:href="classCFuncaoAdsorcao__Celso.xhtml" target="_top" xlink:title="&#45;&#45;&#45;&#45;&#45;&#45;&#45;&#45;&#45;&#45;&#45;&#45;&#45;—— Bibliotecas &#45;&#45;&#45;&#45;&#45;&#45;&#45;&#45;&#45;&#45;&#45;&#45;&#45;&#45;&#45;&#45;&#45;&#45;&#45;&#45;&#45;&#45;&#45;&#45;&#45;&#45;—— ">
<polygon fill="white" stroke="black" points="-0.5,-1 -0.5,-91 148.5,-91 148.5,-1 -0.5,-1"/>
<text text-anchor="middle" x="74" y="-79" font-family="Helvetica,sans-Serif" font-size="10.00">CFuncaoAdsorcao_Celso</text>
<polyline fill="none" stroke="black" points="-0.5,-72 148.5,-72 "/>
<text text-anchor="middle" x="74" y="-60" font-family="Helvetica,sans-Serif" font-size="10.00"> </text>
<polyline fill="none" stroke="black" points="-0.5,-53 148.5,-53 "/>
<text text-anchor="start" x="7.5" y="-41" font-family="Helvetica,sans-Serif" font-size="10.00">+ CFuncaoAdsorcao_Celso()</text>
<text text-anchor="start" x="7.5" y="-30" font-family="Helvetica,sans-Serif" font-size="10.00">+ ~CFuncaoAdsorcao_Celso()</text>
<text text-anchor="start" x="7.5" y="-19" font-family="Helvetica,sans-Serif" font-size="10.00">+ DadosDefault()</text>
<text text-anchor="start" x="7.5" y="-8" font-family="Helvetica,sans-Serif" font-size="10.00">+ ResultadosEnsaio()</text>
</a>
</g>
</g>
<!-- Node1&#45;&gt;Node2 -->
<g id="edge1" class="edge"><title>Node1&#45;&gt;Node2</title>
<path fill="none" stroke="midnightblue" d="M111.955,-119.709C106.784,-109.803 101.687,-100.038 96.9875,-91.0364"/>
<polygon fill="none" stroke="midnightblue" points="108.985,-121.584 116.716,-128.829 115.191,-118.344 108.985,-121.584"/>
</g>
<!-- Node3 -->
<g id="node3" class="node"><title>Node3</title>
<g id="a_node3"><a xlink:href="classCFuncaoAdsorcao__Pablo.xhtml" target="_top" xlink:title="&#45;&#45;&#45;&#45;&#45;&#45;&#45;&#45;&#45;&#45;&#45;&#45;&#45;—— Bibliotecas &#45;&#45;&#45;&#45;&#45;&#45;&#45;&#45;&#45;&#45;&#45;&#45;&#45;&#45;&#45;&#45;&#45;&#45;&#45;&#45;&#45;&#45;&#45;&#45;&#45;&#45;—— ">
<polygon fill="white" stroke="black" points="166.5,-1 166.5,-91 315.5,-91 315.5,-1 166.5,-1"/>
<text text-anchor="middle" x="241" y="-79" font-family="Helvetica,sans-Serif" font-size="10.00">CFuncaoAdsorcao_Pablo</text>
<polyline fill="none" stroke="black" points="166.5,-72 315.5,-72 "/>
<text text-anchor="middle" x="241" y="-60" font-family="Helvetica,sans-Serif" font-size="10.00"> </text>
<polyline fill="none" stroke="black" points="166.5,-53 315.5,-53 "/>
<text text-anchor="start" x="174.5" y="-41" font-family="Helvetica,sans-Serif" font-size="10.00">+ CFuncaoAdsorcao_Pablo()</text>
<text text-anchor="start" x="174.5" y="-30" font-family="Helvetica,sans-Serif" font-size="10.00">+ ~CFuncaoAdsorcao_Pablo()</text>
<text text-anchor="start" x="174.5" y="-19" font-family="Helvetica,sans-Serif" font-size="10.00">+ DadosDefault()</text>
<text text-anchor="start" x="174.5" y="-8" font-family="Helvetica,sans-Serif" font-size="10.00">+ ResultadosEnsaio()</text>
</a>
</g>
</g>
<!-- Node1&#45;&gt;Node3 -->
<g id="edge2" class="edge"><title>Node1&#45;&gt;Node3</title>
<path fill="none" stroke="midnightblue" d="M202.588,-119.709C207.821,-109.803 212.98,-100.038 217.736,-91.0364"/>
<polygon fill="none" stroke="midnightblue" points="199.346,-118.352 197.77,-128.829 205.536,-121.622 199.346,-118.352"/>
</g>
</g>
</svg>
