<?xml version="1.0" encoding="UTF-8" standalone="no"?>
<!DOCTYPE svg PUBLIC "-//W3C//DTD SVG 1.1//EN"
 "http://www.w3.org/Graphics/SVG/1.1/DTD/svg11.dtd">
<!-- Generated by graphviz version 2.34.0 (20140110.0949)
 -->
<!-- Title: Gnuplot::plotfile_xy_err Pages: 1 -->
<svg width="564pt" height="66pt"
 viewBox="0.00 0.00 564.00 66.00" xmlns="http://www.w3.org/2000/svg" xmlns:xlink="http://www.w3.org/1999/xlink">
<g id="graph0" class="graph" transform="scale(1 1) rotate(0) translate(4 62)">
<title>Gnuplot::plotfile_xy_err</title>
<polygon fill="white" stroke="white" points="-4,4 -4,-62 560,-62 560,4 -4,4"/>
<!-- Node1 -->
<g id="node1" class="node"><title>Node1</title>
<polygon fill="#bfbfbf" stroke="black" points="0.5,-19.5 0.5,-38.5 117.5,-38.5 117.5,-19.5 0.5,-19.5"/>
<text text-anchor="middle" x="59" y="-26.5" font-family="Helvetica,sans-Serif" font-size="10.00">Gnuplot::plotfile_xy_err</text>
</g>
<!-- Node2 -->
<g id="node2" class="node"><title>Node2</title>
<g id="a_node2"><a xlink:href="classGnuplot.xhtml#a3dd3934b09094a9ba48035a2edf4d4fd" target="_top" xlink:title="Plota pares x,y com barra de erro dy a partir de vetores. ">
<polygon fill="white" stroke="black" points="172,-38.5 172,-57.5 276,-57.5 276,-38.5 172,-38.5"/>
<text text-anchor="middle" x="224" y="-45.5" font-family="Helvetica,sans-Serif" font-size="10.00">Gnuplot::plot_xy_err</text>
</a>
</g>
</g>
<!-- Node1&#45;&gt;Node2 -->
<g id="edge1" class="edge"><title>Node1&#45;&gt;Node2</title>
<path fill="none" stroke="midnightblue" d="M127.954,-36.921C142.611,-38.6295 157.87,-40.4081 171.761,-42.0274"/>
<polygon fill="midnightblue" stroke="midnightblue" points="128.265,-33.4336 117.927,-35.7522 127.454,-40.3865 128.265,-33.4336"/>
</g>
<!-- Node5 -->
<g id="node5" class="node"><title>Node5</title>
<g id="a_node5"><a xlink:href="classGnuplot.xhtml#a759edbd9404476415a4d6d5a286c360c" target="_top" xlink:title="Plota pares x,y com barra de erro dy a partir de um arquivo. ">
<polygon fill="white" stroke="black" points="154.5,-0.5 154.5,-19.5 293.5,-19.5 293.5,-0.5 154.5,-0.5"/>
<text text-anchor="middle" x="224" y="-7.5" font-family="Helvetica,sans-Serif" font-size="10.00">Gnuplot::PlotFileXYErrorBar</text>
</a>
</g>
</g>
<!-- Node1&#45;&gt;Node5 -->
<g id="edge4" class="edge"><title>Node1&#45;&gt;Node5</title>
<path fill="none" stroke="midnightblue" d="M128.033,-21.0698C136.746,-20.0542 145.67,-19.0139 154.392,-17.9973"/>
<polygon fill="midnightblue" stroke="midnightblue" points="127.454,-17.6135 117.927,-22.2478 128.265,-24.5664 127.454,-17.6135"/>
</g>
<!-- Node3 -->
<g id="node3" class="node"><title>Node3</title>
<g id="a_node3"><a xlink:href="classGnuplot.xhtml#a6d3863c1b14d93c14b50df0a11dfdbd8" target="_top" xlink:title="Plota pares x,y com barra de erro dy a partir de vetores. ">
<polygon fill="white" stroke="black" points="330,-38.5 330,-57.5 482,-57.5 482,-38.5 330,-38.5"/>
<text text-anchor="middle" x="406" y="-45.5" font-family="Helvetica,sans-Serif" font-size="10.00">Gnuplot::PlotVectorXYErrorBar</text>
</a>
</g>
</g>
<!-- Node2&#45;&gt;Node3 -->
<g id="edge2" class="edge"><title>Node2&#45;&gt;Node3</title>
<path fill="none" stroke="midnightblue" d="M286.136,-48C300.206,-48 315.329,-48 329.914,-48"/>
<polygon fill="midnightblue" stroke="midnightblue" points="286.099,-44.5001 276.099,-48 286.099,-51.5001 286.099,-44.5001"/>
</g>
<!-- Node4 -->
<g id="node4" class="node"><title>Node4</title>
<g id="a_node4"><a xlink:href="CGnuplot_8teste_8cpp.xhtml#a0ddf1224851353fc92bfbff6f499fa97" target="_top" xlink:title="Funcao principal. ">
<polygon fill="white" stroke="black" points="518,-38.5 518,-57.5 556,-57.5 556,-38.5 518,-38.5"/>
<text text-anchor="middle" x="537" y="-45.5" font-family="Helvetica,sans-Serif" font-size="10.00">main</text>
</a>
</g>
</g>
<!-- Node3&#45;&gt;Node4 -->
<g id="edge3" class="edge"><title>Node3&#45;&gt;Node4</title>
<path fill="none" stroke="midnightblue" d="M492.166,-48C501.688,-48 510.538,-48 517.757,-48"/>
<polygon fill="midnightblue" stroke="midnightblue" points="492.04,-44.5001 482.04,-48 492.04,-51.5001 492.04,-44.5001"/>
</g>
</g>
</svg>
