<?xml version="1.0" encoding="UTF-8" standalone="no"?>
<!DOCTYPE svg PUBLIC "-//W3C//DTD SVG 1.1//EN"
 "http://www.w3.org/Graphics/SVG/1.1/DTD/svg11.dtd">
<!-- Generated by graphviz version 2.34.0 (20140110.0949)
 -->
<!-- Title: Gnuplot::ZLogscale Pages: 1 -->
<svg width="386pt" height="66pt"
 viewBox="0.00 0.00 386.00 66.00" xmlns="http://www.w3.org/2000/svg" xmlns:xlink="http://www.w3.org/1999/xlink">
<g id="graph0" class="graph" transform="scale(1 1) rotate(0) translate(4 62)">
<title>Gnuplot::ZLogscale</title>
<polygon fill="white" stroke="white" points="-4,4 -4,-62 382,-62 382,4 -4,4"/>
<!-- Node1 -->
<g id="node1" class="node"><title>Node1</title>
<polygon fill="#bfbfbf" stroke="black" points="0.5,-19.5 0.5,-38.5 101.5,-38.5 101.5,-19.5 0.5,-19.5"/>
<text text-anchor="middle" x="51" y="-26.5" font-family="Helvetica,sans-Serif" font-size="10.00">Gnuplot::ZLogscale</text>
</g>
<!-- Node2 -->
<g id="node2" class="node"><title>Node2</title>
<g id="a_node2"><a xlink:href="classGnuplot.xhtml#a1da3838163b0dbde8809b55c5b5c56b1" target="_top" xlink:title="Ativa escala logaritma do eixo y (logscale nao e setado por default). ">
<polygon fill="white" stroke="black" points="144,-38.5 144,-57.5 260,-57.5 260,-38.5 144,-38.5"/>
<text text-anchor="middle" x="202" y="-45.5" font-family="Helvetica,sans-Serif" font-size="10.00">Gnuplot::set_zlogscale</text>
</a>
</g>
</g>
<!-- Node1&#45;&gt;Node2 -->
<g id="edge1" class="edge"><title>Node1&#45;&gt;Node2</title>
<path fill="none" stroke="midnightblue" d="M101.615,-35.3267C111.879,-36.6356 122.856,-38.0353 133.632,-39.4094"/>
<polygon fill="midnightblue" stroke="midnightblue" points="133.51,-42.9221 143.872,-40.7152 134.395,-35.9783 133.51,-42.9221"/>
</g>
<!-- Node4 -->
<g id="node4" class="node"><title>Node4</title>
<g id="a_node4"><a xlink:href="classGnuplot.xhtml#a294d7473091f849fe70e4dba8df8712a" target="_top" xlink:title="Desativa escala logaritma do eixo z (logscale nao e setado por default). ">
<polygon fill="white" stroke="black" points="138.5,-0.5 138.5,-19.5 265.5,-19.5 265.5,-0.5 138.5,-0.5"/>
<text text-anchor="middle" x="202" y="-7.5" font-family="Helvetica,sans-Serif" font-size="10.00">Gnuplot::unset_zlogscale</text>
</a>
</g>
</g>
<!-- Node1&#45;&gt;Node4 -->
<g id="edge3" class="edge"><title>Node1&#45;&gt;Node4</title>
<path fill="none" stroke="midnightblue" d="M101.615,-22.6733C110.164,-21.5831 119.208,-20.4298 128.218,-19.2809"/>
<polygon fill="midnightblue" stroke="midnightblue" points="128.872,-22.726 138.349,-17.9891 127.986,-15.7822 128.872,-22.726"/>
</g>
<!-- Node3 -->
<g id="node3" class="node"><title>Node3</title>
<g id="a_node3"><a xlink:href="classGnuplot.xhtml#a07607803ede8dd5416906df0a1924fc5" target="_top" xlink:title="Envia comando para o gnuplot. ">
<polygon fill="white" stroke="black" points="302.5,-19.5 302.5,-38.5 377.5,-38.5 377.5,-19.5 302.5,-19.5"/>
<text text-anchor="middle" x="340" y="-26.5" font-family="Helvetica,sans-Serif" font-size="10.00">Gnuplot::cmd</text>
</a>
</g>
</g>
<!-- Node2&#45;&gt;Node3 -->
<g id="edge2" class="edge"><title>Node2&#45;&gt;Node3</title>
<path fill="none" stroke="midnightblue" d="M260.282,-39.9974C270.953,-38.5065 281.986,-36.9652 292.292,-35.5253"/>
<polygon fill="midnightblue" stroke="midnightblue" points="292.897,-38.9749 302.317,-34.1249 291.929,-32.0422 292.897,-38.9749"/>
</g>
<!-- Node4&#45;&gt;Node3 -->
<g id="edge4" class="edge"><title>Node4&#45;&gt;Node3</title>
<path fill="none" stroke="midnightblue" d="M265.825,-18.777C274.731,-20.0213 283.757,-21.2822 292.285,-22.4737"/>
<polygon fill="midnightblue" stroke="midnightblue" points="292.013,-25.9695 302.401,-23.8869 292.981,-19.0368 292.013,-25.9695"/>
</g>
</g>
</svg>
