<?xml version="1.0" encoding="UTF-8" standalone="no"?>
<!DOCTYPE svg PUBLIC "-//W3C//DTD SVG 1.1//EN"
 "http://www.w3.org/Graphics/SVG/1.1/DTD/svg11.dtd">
<!-- Generated by graphviz version 2.34.0 (20140110.0949)
 -->
<!-- Title: Gnuplot::plot_xy Pages: 1 -->
<svg width="234pt" height="66pt"
 viewBox="0.00 0.00 234.00 66.00" xmlns="http://www.w3.org/2000/svg" xmlns:xlink="http://www.w3.org/1999/xlink">
<g id="graph0" class="graph" transform="scale(1 1) rotate(0) translate(4 62)">
<title>Gnuplot::plot_xy</title>
<polygon fill="white" stroke="white" points="-4,4 -4,-62 230,-62 230,4 -4,4"/>
<!-- Node1 -->
<g id="node1" class="node"><title>Node1</title>
<polygon fill="#bfbfbf" stroke="black" points="0,-19.5 0,-38.5 88,-38.5 88,-19.5 0,-19.5"/>
<text text-anchor="middle" x="44" y="-26.5" font-family="Helvetica,sans-Serif" font-size="10.00">Gnuplot::plot_xy</text>
</g>
<!-- Node2 -->
<g id="node2" class="node"><title>Node2</title>
<g id="a_node2"><a xlink:href="classGnuplot.xhtml#a24327b6116c71acdc195eadf665c67cb" target="_top" xlink:title="Construtor, plota um grafico do tipo x_y a partir de vetores, diretamente na construcao. ">
<polygon fill="white" stroke="black" points="130,-38.5 130,-57.5 220,-57.5 220,-38.5 130,-38.5"/>
<text text-anchor="middle" x="175" y="-45.5" font-family="Helvetica,sans-Serif" font-size="10.00">Gnuplot::Gnuplot</text>
</a>
</g>
</g>
<!-- Node1&#45;&gt;Node2 -->
<g id="edge1" class="edge"><title>Node1&#45;&gt;Node2</title>
<path fill="none" stroke="midnightblue" d="M98.5181,-36.8825C108.894,-38.4107 119.66,-39.9964 129.7,-41.4752"/>
<polygon fill="midnightblue" stroke="midnightblue" points="98.7173,-33.3742 88.314,-35.3796 97.6972,-40.2995 98.7173,-33.3742"/>
</g>
<!-- Node3 -->
<g id="node3" class="node"><title>Node3</title>
<g id="a_node3"><a xlink:href="classGnuplot.xhtml#ae282636936128008b2c82f569f607820" target="_top" xlink:title="Plota pares x,y a partir de vetores. ">
<polygon fill="white" stroke="black" points="124,-0.5 124,-19.5 226,-19.5 226,-0.5 124,-0.5"/>
<text text-anchor="middle" x="175" y="-7.5" font-family="Helvetica,sans-Serif" font-size="10.00">Gnuplot::PlotVector</text>
</a>
</g>
</g>
<!-- Node1&#45;&gt;Node3 -->
<g id="edge2" class="edge"><title>Node1&#45;&gt;Node3</title>
<path fill="none" stroke="midnightblue" d="M98.4254,-21.1311C106.854,-19.8898 115.542,-18.6101 123.892,-17.3803"/>
<polygon fill="midnightblue" stroke="midnightblue" points="97.6972,-17.7005 88.314,-22.6204 98.7173,-24.6258 97.6972,-17.7005"/>
</g>
</g>
</svg>
