<?xml version="1.0" encoding="UTF-8" standalone="no"?>
<!DOCTYPE svg PUBLIC "-//W3C//DTD SVG 1.1//EN"
 "http://www.w3.org/Graphics/SVG/1.1/DTD/svg11.dtd">
<!-- Generated by graphviz version 2.34.0 (20140110.0949)
 -->
<!-- Title: Gnuplot::Path Pages: 1 -->
<svg width="394pt" height="66pt"
 viewBox="0.00 0.00 394.00 66.00" xmlns="http://www.w3.org/2000/svg" xmlns:xlink="http://www.w3.org/1999/xlink">
<g id="graph0" class="graph" transform="scale(1 1) rotate(0) translate(4 62)">
<title>Gnuplot::Path</title>
<polygon fill="white" stroke="white" points="-4,4 -4,-62 390,-62 390,4 -4,4"/>
<!-- Node1 -->
<g id="node1" class="node"><title>Node1</title>
<polygon fill="#bfbfbf" stroke="black" points="0.5,-19.5 0.5,-38.5 77.5,-38.5 77.5,-19.5 0.5,-19.5"/>
<text text-anchor="middle" x="39" y="-26.5" font-family="Helvetica,sans-Serif" font-size="10.00">Gnuplot::Path</text>
</g>
<!-- Node2 -->
<g id="node2" class="node"><title>Node2</title>
<g id="a_node2"><a xlink:href="classGnuplot.xhtml#a3a769e47861d74fa713070ecd857dd17" target="_top" xlink:title="Retorna verdadeiro se a path esta presente. ">
<polygon fill="white" stroke="black" points="114,-19.5 114,-38.5 248,-38.5 248,-19.5 114,-19.5"/>
<text text-anchor="middle" x="181" y="-26.5" font-family="Helvetica,sans-Serif" font-size="10.00">Gnuplot::get_program_path</text>
</a>
</g>
</g>
<!-- Node1&#45;&gt;Node2 -->
<g id="edge1" class="edge"><title>Node1&#45;&gt;Node2</title>
<path fill="none" stroke="midnightblue" d="M77.5174,-29C85.6385,-29 94.509,-29 103.524,-29"/>
<polygon fill="midnightblue" stroke="midnightblue" points="103.732,-32.5001 113.731,-29 103.731,-25.5001 103.732,-32.5001"/>
</g>
<!-- Node3 -->
<g id="node3" class="node"><title>Node3</title>
<g id="a_node3"><a xlink:href="classGnuplot.xhtml#abc0f1d75cb78804a5b8efdfa4df582cd" target="_top" xlink:title="Checa se o arquivo existe. ">
<polygon fill="white" stroke="black" points="284.5,-38.5 284.5,-57.5 385.5,-57.5 385.5,-38.5 284.5,-38.5"/>
<text text-anchor="middle" x="335" y="-45.5" font-family="Helvetica,sans-Serif" font-size="10.00">Gnuplot::file_exists</text>
</a>
</g>
</g>
<!-- Node2&#45;&gt;Node3 -->
<g id="edge2" class="edge"><title>Node2&#45;&gt;Node3</title>
<path fill="none" stroke="midnightblue" d="M248.227,-37.2784C256.967,-38.3709 265.883,-39.4854 274.501,-40.5626"/>
<polygon fill="midnightblue" stroke="midnightblue" points="274.096,-44.0392 284.453,-41.8066 274.964,-37.0932 274.096,-44.0392"/>
</g>
<!-- Node4 -->
<g id="node4" class="node"><title>Node4</title>
<g id="a_node4"><a xlink:href="CGnuplot_8cpp.xhtml#a999b660e008a191d56b4c01a09a38f45" target="_top" xlink:title="stringtok">
<polygon fill="white" stroke="black" points="308,-0.5 308,-19.5 362,-19.5 362,-0.5 308,-0.5"/>
<text text-anchor="middle" x="335" y="-7.5" font-family="Helvetica,sans-Serif" font-size="10.00">stringtok</text>
</a>
</g>
</g>
<!-- Node2&#45;&gt;Node4 -->
<g id="edge3" class="edge"><title>Node2&#45;&gt;Node4</title>
<path fill="none" stroke="midnightblue" d="M248.227,-20.7216C265.223,-18.5972 282.881,-16.3899 297.726,-14.5342"/>
<polygon fill="midnightblue" stroke="midnightblue" points="298.5,-17.9648 307.989,-13.2514 297.632,-11.0188 298.5,-17.9648"/>
</g>
</g>
</svg>
