<?xml version="1.0" encoding="UTF-8" standalone="no"?>
<!DOCTYPE svg PUBLIC "-//W3C//DTD SVG 1.1//EN"
 "http://www.w3.org/Graphics/SVG/1.1/DTD/svg11.dtd">
<!-- Generated by graphviz version 2.34.0 (20140110.0949)
 -->
<!-- Title: CSolver_TDMA Pages: 1 -->
<svg width="150pt" height="282pt"
 viewBox="0.00 0.00 150.00 282.00" xmlns="http://www.w3.org/2000/svg" xmlns:xlink="http://www.w3.org/1999/xlink">
<g id="graph0" class="graph" transform="scale(1 1) rotate(0) translate(4 278)">
<title>CSolver_TDMA</title>
<polygon fill="white" stroke="white" points="-4,4 -4,-278 146,-278 146,4 -4,4"/>
<!-- Node1 -->
<g id="node1" class="node"><title>Node1</title>
<polygon fill="#bfbfbf" stroke="black" points="-0.5,-1 -0.5,-113 142.5,-113 142.5,-1 -0.5,-1"/>
<text text-anchor="middle" x="71" y="-101" font-family="Helvetica,sans-Serif" font-size="10.00">CSolver_TDMA</text>
<polyline fill="none" stroke="black" points="-0.5,-94 142.5,-94 "/>
<text text-anchor="middle" x="71" y="-82" font-family="Helvetica,sans-Serif" font-size="10.00"> </text>
<polyline fill="none" stroke="black" points="-0.5,-75 142.5,-75 "/>
<text text-anchor="start" x="7.5" y="-63" font-family="Helvetica,sans-Serif" font-size="10.00">+ CSolver_TDMA()</text>
<text text-anchor="start" x="7.5" y="-52" font-family="Helvetica,sans-Serif" font-size="10.00">+ ~CSolver_TDMA()</text>
<text text-anchor="start" x="7.5" y="-41" font-family="Helvetica,sans-Serif" font-size="10.00">+ DadosDefault()</text>
<text text-anchor="start" x="7.5" y="-30" font-family="Helvetica,sans-Serif" font-size="10.00">+ EntrarDadosObjeto()</text>
<text text-anchor="start" x="7.5" y="-19" font-family="Helvetica,sans-Serif" font-size="10.00"># ResolverSistemaEquacoes</text>
<text text-anchor="start" x="7.5" y="-8" font-family="Helvetica,sans-Serif" font-size="10.00">_TDMA_piqi()</text>
</g>
<!-- Node2 -->
<g id="node2" class="node"><title>Node2</title>
<polygon fill="white" stroke="#bfbfbf" points="48.5,-216.5 48.5,-273.5 93.5,-273.5 93.5,-216.5 48.5,-216.5"/>
<text text-anchor="middle" x="71" y="-261.5" font-family="Helvetica,sans-Serif" font-size="10.00">double</text>
<polyline fill="none" stroke="#bfbfbf" points="48.5,-254.5 93.5,-254.5 "/>
<text text-anchor="middle" x="71" y="-242.5" font-family="Helvetica,sans-Serif" font-size="10.00"> </text>
<polyline fill="none" stroke="#bfbfbf" points="48.5,-235.5 93.5,-235.5 "/>
<text text-anchor="middle" x="71" y="-223.5" font-family="Helvetica,sans-Serif" font-size="10.00"> </text>
</g>
<!-- Node2&#45;&gt;Node1 -->
<g id="edge1" class="edge"><title>Node2&#45;&gt;Node1</title>
<path fill="none" stroke="#404040" d="M71,-216.154C71,-192.177 71,-156.588 71,-125.239"/>
<polygon fill="none" stroke="#404040" points="71.0001,-125.016 67,-119.016 71,-113.016 75,-119.016 71.0001,-125.016"/>
<text text-anchor="middle" x="78" y="-190" font-family="Helvetica,sans-Serif" font-size="10.00"> #p</text>
<text text-anchor="middle" x="78" y="-179" font-family="Helvetica,sans-Serif" font-size="10.00">#q</text>
<text text-anchor="middle" x="78" y="-168" font-family="Helvetica,sans-Serif" font-size="10.00">#a</text>
<text text-anchor="middle" x="78" y="-157" font-family="Helvetica,sans-Serif" font-size="10.00">#b</text>
<text text-anchor="middle" x="78" y="-146" font-family="Helvetica,sans-Serif" font-size="10.00">#c</text>
<text text-anchor="middle" x="78" y="-135" font-family="Helvetica,sans-Serif" font-size="10.00">#d</text>
</g>
</g>
</svg>
