<?xml version="1.0" encoding="UTF-8" standalone="no"?>
<!DOCTYPE svg PUBLIC "-//W3C//DTD SVG 1.1//EN"
 "http://www.w3.org/Graphics/SVG/1.1/DTD/svg11.dtd">
<!-- Generated by graphviz version 2.34.0 (20140110.0949)
 -->
<!-- Title: Gnuplot::plotfile_xyz Pages: 1 -->
<svg width="382pt" height="85pt"
 viewBox="0.00 0.00 382.00 85.00" xmlns="http://www.w3.org/2000/svg" xmlns:xlink="http://www.w3.org/1999/xlink">
<g id="graph0" class="graph" transform="scale(1 1) rotate(0) translate(4 81)">
<title>Gnuplot::plotfile_xyz</title>
<polygon fill="white" stroke="white" points="-4,4 -4,-81 378,-81 378,4 -4,4"/>
<!-- Node1 -->
<g id="node1" class="node"><title>Node1</title>
<polygon fill="#bfbfbf" stroke="black" points="0,-19.5 0,-38.5 106,-38.5 106,-19.5 0,-19.5"/>
<text text-anchor="middle" x="53" y="-26.5" font-family="Helvetica,sans-Serif" font-size="10.00">Gnuplot::plotfile_xyz</text>
</g>
<!-- Node2 -->
<g id="node2" class="node"><title>Node2</title>
<g id="a_node2"><a xlink:href="classGnuplot.xhtml#aee30f21a00a4f31c8356a2ef1f0e26e3" target="_top" xlink:title="Plota valores de x,y,z a partir de vetores. ">
<polygon fill="white" stroke="black" points="142.5,-38.5 142.5,-57.5 235.5,-57.5 235.5,-38.5 142.5,-38.5"/>
<text text-anchor="middle" x="189" y="-45.5" font-family="Helvetica,sans-Serif" font-size="10.00">Gnuplot::plot_xyz</text>
</a>
</g>
</g>
<!-- Node1&#45;&gt;Node2 -->
<g id="edge1" class="edge"><title>Node1&#45;&gt;Node2</title>
<path fill="none" stroke="midnightblue" d="M116.356,-37.8416C125.087,-39.0795 133.923,-40.3324 142.268,-41.5157"/>
<polygon fill="midnightblue" stroke="midnightblue" points="116.584,-34.3389 106.192,-36.4003 115.601,-41.2696 116.584,-34.3389"/>
</g>
<!-- Node5 -->
<g id="node5" class="node"><title>Node5</title>
<g id="a_node5"><a xlink:href="classGnuplot.xhtml#a3f5f7127182ea22da3ee0b78f0ade35c" target="_top" xlink:title="Plota valores de x,y,z a partir de um arquivo de disco. ">
<polygon fill="white" stroke="black" points="144.5,-0.5 144.5,-19.5 233.5,-19.5 233.5,-0.5 144.5,-0.5"/>
<text text-anchor="middle" x="189" y="-7.5" font-family="Helvetica,sans-Serif" font-size="10.00">Gnuplot::PlotFile</text>
</a>
</g>
</g>
<!-- Node1&#45;&gt;Node5 -->
<g id="edge4" class="edge"><title>Node1&#45;&gt;Node5</title>
<path fill="none" stroke="midnightblue" d="M116.384,-20.1544C125.856,-18.8115 135.451,-17.451 144.407,-16.1811"/>
<polygon fill="midnightblue" stroke="midnightblue" points="115.601,-16.7304 106.192,-21.5997 116.584,-23.6611 115.601,-16.7304"/>
</g>
<!-- Node3 -->
<g id="node3" class="node"><title>Node3</title>
<g id="a_node3"><a xlink:href="classGnuplot.xhtml#a14191e89154f2716608f6907975cc012" target="_top" xlink:title="Construtor, plota um grafico de x_y_z a partir de vetores, diretamente na construcao. ">
<polygon fill="white" stroke="black" points="278,-57.5 278,-76.5 368,-76.5 368,-57.5 278,-57.5"/>
<text text-anchor="middle" x="323" y="-64.5" font-family="Helvetica,sans-Serif" font-size="10.00">Gnuplot::Gnuplot</text>
</a>
</g>
</g>
<!-- Node2&#45;&gt;Node3 -->
<g id="edge2" class="edge"><title>Node2&#45;&gt;Node3</title>
<path fill="none" stroke="midnightblue" d="M245.828,-56.0358C256.443,-57.5638 267.419,-59.1436 277.62,-60.6119"/>
<polygon fill="midnightblue" stroke="midnightblue" points="246.193,-52.5525 235.797,-54.592 245.196,-59.481 246.193,-52.5525"/>
</g>
<!-- Node4 -->
<g id="node4" class="node"><title>Node4</title>
<g id="a_node4"><a xlink:href="classGnuplot.xhtml#a239b222cd7ff6ba4a60d583b22248a4f" target="_top" xlink:title="Plota valores de x,y,z a partir de vetores. ">
<polygon fill="white" stroke="black" points="272,-19.5 272,-38.5 374,-38.5 374,-19.5 272,-19.5"/>
<text text-anchor="middle" x="323" y="-26.5" font-family="Helvetica,sans-Serif" font-size="10.00">Gnuplot::PlotVector</text>
</a>
</g>
</g>
<!-- Node2&#45;&gt;Node4 -->
<g id="edge3" class="edge"><title>Node2&#45;&gt;Node4</title>
<path fill="none" stroke="midnightblue" d="M245.781,-39.971C254.41,-38.7289 263.278,-37.4524 271.776,-36.2292"/>
<polygon fill="midnightblue" stroke="midnightblue" points="245.196,-36.519 235.797,-41.408 246.193,-43.4475 245.196,-36.519"/>
</g>
</g>
</svg>
