<?xml version="1.0" encoding="UTF-8" standalone="no"?>
<!DOCTYPE svg PUBLIC "-//W3C//DTD SVG 1.1//EN"
 "http://www.w3.org/Graphics/SVG/1.1/DTD/svg11.dtd">
<!-- Generated by graphviz version 2.34.0 (20140110.0949)
 -->
<!-- Title: Gnuplot::Title Pages: 1 -->
<svg width="462pt" height="47pt"
 viewBox="0.00 0.00 462.00 47.00" xmlns="http://www.w3.org/2000/svg" xmlns:xlink="http://www.w3.org/1999/xlink">
<g id="graph0" class="graph" transform="scale(1 1) rotate(0) translate(4 43)">
<title>Gnuplot::Title</title>
<polygon fill="white" stroke="white" points="-4,4 -4,-43 458,-43 458,4 -4,4"/>
<!-- Node1 -->
<g id="node1" class="node"><title>Node1</title>
<polygon fill="#bfbfbf" stroke="black" points="0.5,-19.5 0.5,-38.5 75.5,-38.5 75.5,-19.5 0.5,-19.5"/>
<text text-anchor="middle" x="38" y="-26.5" font-family="Helvetica,sans-Serif" font-size="10.00">Gnuplot::Title</text>
</g>
<!-- Node2 -->
<g id="node2" class="node"><title>Node2</title>
<g id="a_node2"><a xlink:href="classGnuplot.xhtml#aa693e806a115af1e2776a15078e75b46" target="_top" xlink:title="Ativa o titulo da secao do gnuplot. ">
<polygon fill="white" stroke="black" points="250.5,-19.5 250.5,-38.5 341.5,-38.5 341.5,-19.5 250.5,-19.5"/>
<text text-anchor="middle" x="296" y="-26.5" font-family="Helvetica,sans-Serif" font-size="10.00">Gnuplot::set_title</text>
</a>
</g>
</g>
<!-- Node1&#45;&gt;Node2 -->
<g id="edge1" class="edge"><title>Node1&#45;&gt;Node2</title>
<path fill="none" stroke="midnightblue" d="M75.6786,-29C118.66,-29 190.307,-29 239.961,-29"/>
<polygon fill="midnightblue" stroke="midnightblue" points="240.205,-32.5001 250.205,-29 240.205,-25.5001 240.205,-32.5001"/>
</g>
<!-- Node4 -->
<g id="node4" class="node"><title>Node4</title>
<g id="a_node4"><a xlink:href="classGnuplot.xhtml#a0d205a55ae104403292622b49af14ae7" target="_top" xlink:title="Desativa o titulo da secao do gnuplot. ">
<polygon fill="white" stroke="black" points="112.5,-0.5 112.5,-19.5 213.5,-19.5 213.5,-0.5 112.5,-0.5"/>
<text text-anchor="middle" x="163" y="-7.5" font-family="Helvetica,sans-Serif" font-size="10.00">Gnuplot::unset_title</text>
</a>
</g>
</g>
<!-- Node1&#45;&gt;Node4 -->
<g id="edge3" class="edge"><title>Node1&#45;&gt;Node4</title>
<path fill="none" stroke="midnightblue" d="M75.571,-23.3508C83.9061,-22.0633 92.9766,-20.6622 102.004,-19.2677"/>
<polygon fill="midnightblue" stroke="midnightblue" points="102.788,-22.6882 112.136,-17.7026 101.719,-15.7703 102.788,-22.6882"/>
</g>
<!-- Node3 -->
<g id="node3" class="node"><title>Node3</title>
<g id="a_node3"><a xlink:href="classGnuplot.xhtml#a07607803ede8dd5416906df0a1924fc5" target="_top" xlink:title="Envia comando para o gnuplot. ">
<polygon fill="white" stroke="black" points="378.5,-19.5 378.5,-38.5 453.5,-38.5 453.5,-19.5 378.5,-19.5"/>
<text text-anchor="middle" x="416" y="-26.5" font-family="Helvetica,sans-Serif" font-size="10.00">Gnuplot::cmd</text>
</a>
</g>
</g>
<!-- Node2&#45;&gt;Node3 -->
<g id="edge2" class="edge"><title>Node2&#45;&gt;Node3</title>
<path fill="none" stroke="midnightblue" d="M341.611,-29C350.336,-29 359.508,-29 368.299,-29"/>
<polygon fill="midnightblue" stroke="midnightblue" points="368.394,-32.5001 378.394,-29 368.394,-25.5001 368.394,-32.5001"/>
</g>
<!-- Node4&#45;&gt;Node2 -->
<g id="edge4" class="edge"><title>Node4&#45;&gt;Node2</title>
<path fill="none" stroke="midnightblue" d="M213.525,-17.1831C222.17,-18.4369 231.21,-19.7481 239.992,-21.0218"/>
<polygon fill="midnightblue" stroke="midnightblue" points="239.745,-24.5224 250.143,-22.4941 240.749,-17.5949 239.745,-24.5224"/>
</g>
</g>
</svg>
