<?xml version="1.0" encoding="UTF-8" standalone="no"?>
<!DOCTYPE svg PUBLIC "-//W3C//DTD SVG 1.1//EN"
 "http://www.w3.org/Graphics/SVG/1.1/DTD/svg11.dtd">
<!-- Generated by graphviz version 2.34.0 (20140110.0949)
 -->
<!-- Title: Gnuplot::create_tmpfile Pages: 1 -->
<svg width="472pt" height="294pt"
 viewBox="0.00 0.00 472.00 294.00" xmlns="http://www.w3.org/2000/svg" xmlns:xlink="http://www.w3.org/1999/xlink">
<g id="graph0" class="graph" transform="scale(1 1) rotate(0) translate(4 290)">
<title>Gnuplot::create_tmpfile</title>
<polygon fill="white" stroke="white" points="-4,4 -4,-290 468,-290 468,4 -4,4"/>
<!-- Node1 -->
<g id="node1" class="node"><title>Node1</title>
<polygon fill="#bfbfbf" stroke="black" points="0,-171.5 0,-190.5 118,-190.5 118,-171.5 0,-171.5"/>
<text text-anchor="middle" x="59" y="-178.5" font-family="Helvetica,sans-Serif" font-size="10.00">Gnuplot::create_tmpfile</text>
</g>
<!-- Node2 -->
<g id="node2" class="node"><title>Node2</title>
<g id="a_node2"><a xlink:href="classGnuplot.xhtml#a7570e646c15a59d9ee2d7ed304cbccb5" target="_top" xlink:title="Cria arquivo temporario. ">
<polygon fill="white" stroke="black" points="154.5,-266.5 154.5,-285.5 275.5,-285.5 275.5,-266.5 154.5,-266.5"/>
<text text-anchor="middle" x="215" y="-273.5" font-family="Helvetica,sans-Serif" font-size="10.00">Gnuplot::CreateTmpFile</text>
</a>
</g>
</g>
<!-- Node1&#45;&gt;Node2 -->
<g id="edge1" class="edge"><title>Node1&#45;&gt;Node2</title>
<path fill="none" stroke="midnightblue" d="M76.5481,-197.652C94.3071,-214.69 124.025,-240.885 154,-257 160.929,-260.725 168.707,-263.858 176.307,-266.437"/>
<polygon fill="midnightblue" stroke="midnightblue" points="78.8689,-195.026 69.2721,-190.537 73.9749,-200.031 78.8689,-195.026"/>
</g>
<!-- Node3 -->
<g id="node3" class="node"><title>Node3</title>
<g id="a_node3"><a xlink:href="classGnuplot.xhtml#ab71117b8fa74d53ea20c313717d86b5c" target="_top" xlink:title="Plota uma imagem. ">
<polygon fill="white" stroke="black" points="163,-228.5 163,-247.5 267,-247.5 267,-228.5 163,-228.5"/>
<text text-anchor="middle" x="215" y="-235.5" font-family="Helvetica,sans-Serif" font-size="10.00">Gnuplot::plot_image</text>
</a>
</g>
</g>
<!-- Node1&#45;&gt;Node3 -->
<g id="edge2" class="edge"><title>Node1&#45;&gt;Node3</title>
<path fill="none" stroke="midnightblue" d="M91.7149,-194.535C109.827,-202.084 133.038,-211.457 154,-219 163.15,-222.293 173.19,-225.592 182.395,-228.496"/>
<polygon fill="midnightblue" stroke="midnightblue" points="92.7991,-191.194 82.2237,-190.551 90.0901,-197.649 92.7991,-191.194"/>
</g>
<!-- Node5 -->
<g id="node5" class="node"><title>Node5</title>
<g id="a_node5"><a xlink:href="classGnuplot.xhtml#a9400d43204b9df62851c063aee604f0d" target="_top" xlink:title="Plota dados de um vector. ">
<polygon fill="white" stroke="black" points="173.5,-190.5 173.5,-209.5 256.5,-209.5 256.5,-190.5 173.5,-190.5"/>
<text text-anchor="middle" x="215" y="-197.5" font-family="Helvetica,sans-Serif" font-size="10.00">Gnuplot::plot_x</text>
</a>
</g>
</g>
<!-- Node1&#45;&gt;Node5 -->
<g id="edge4" class="edge"><title>Node1&#45;&gt;Node5</title>
<path fill="none" stroke="midnightblue" d="M128.26,-189.422C143.68,-191.324 159.574,-193.285 173.425,-194.994"/>
<polygon fill="midnightblue" stroke="midnightblue" points="128.574,-185.934 118.221,-188.183 127.717,-192.881 128.574,-185.934"/>
</g>
<!-- Node8 -->
<g id="node8" class="node"><title>Node8</title>
<g id="a_node8"><a xlink:href="classGnuplot.xhtml#a777b6a5474951d6d023dff4237d80a2b" target="_top" xlink:title="Plota pares x,y a partir de vetores. ">
<polygon fill="white" stroke="black" points="171,-152.5 171,-171.5 259,-171.5 259,-152.5 171,-152.5"/>
<text text-anchor="middle" x="215" y="-159.5" font-family="Helvetica,sans-Serif" font-size="10.00">Gnuplot::plot_xy</text>
</a>
</g>
</g>
<!-- Node1&#45;&gt;Node8 -->
<g id="edge7" class="edge"><title>Node1&#45;&gt;Node8</title>
<path fill="none" stroke="midnightblue" d="M128.529,-172.545C142.82,-170.782 157.506,-168.97 170.584,-167.357"/>
<polygon fill="midnightblue" stroke="midnightblue" points="127.717,-169.119 118.221,-173.817 128.574,-176.066 127.717,-169.119"/>
</g>
<!-- Node11 -->
<g id="node11" class="node"><title>Node11</title>
<g id="a_node11"><a xlink:href="classGnuplot.xhtml#a3dd3934b09094a9ba48035a2edf4d4fd" target="_top" xlink:title="Plota pares x,y com barra de erro dy a partir de vetores. ">
<polygon fill="white" stroke="black" points="163,-95.5 163,-114.5 267,-114.5 267,-95.5 163,-95.5"/>
<text text-anchor="middle" x="215" y="-102.5" font-family="Helvetica,sans-Serif" font-size="10.00">Gnuplot::plot_xy_err</text>
</a>
</g>
</g>
<!-- Node1&#45;&gt;Node11 -->
<g id="edge10" class="edge"><title>Node1&#45;&gt;Node11</title>
<path fill="none" stroke="midnightblue" d="M88.4875,-166.941C119.394,-151.689 167.894,-127.754 194.654,-114.547"/>
<polygon fill="midnightblue" stroke="midnightblue" points="86.9227,-163.81 79.5042,-171.375 90.0206,-170.088 86.9227,-163.81"/>
</g>
<!-- Node13 -->
<g id="node13" class="node"><title>Node13</title>
<g id="a_node13"><a xlink:href="classGnuplot.xhtml#aee30f21a00a4f31c8356a2ef1f0e26e3" target="_top" xlink:title="Plota valores de x,y,z a partir de vetores. ">
<polygon fill="white" stroke="black" points="168.5,-38.5 168.5,-57.5 261.5,-57.5 261.5,-38.5 168.5,-38.5"/>
<text text-anchor="middle" x="215" y="-45.5" font-family="Helvetica,sans-Serif" font-size="10.00">Gnuplot::plot_xyz</text>
</a>
</g>
</g>
<!-- Node1&#45;&gt;Node13 -->
<g id="edge12" class="edge"><title>Node1&#45;&gt;Node13</title>
<path fill="none" stroke="midnightblue" d="M74.9208,-163.704C92.6398,-143.714 123.632,-110.438 154,-86 167.544,-75.1003 184.37,-64.6796 196.754,-57.5168"/>
<polygon fill="midnightblue" stroke="midnightblue" points="72.1404,-161.566 68.1801,-171.393 77.4042,-166.181 72.1404,-161.566"/>
</g>
<!-- Node4 -->
<g id="node4" class="node"><title>Node4</title>
<g id="a_node4"><a xlink:href="classGnuplot.xhtml#aeb28a013344a81314bf831e14623154e" target="_top" xlink:title="Plota uma imagem. ">
<polygon fill="white" stroke="black" points="337.5,-266.5 337.5,-285.5 438.5,-285.5 438.5,-266.5 337.5,-266.5"/>
<text text-anchor="middle" x="388" y="-273.5" font-family="Helvetica,sans-Serif" font-size="10.00">Gnuplot::PlotImage</text>
</a>
</g>
</g>
<!-- Node3&#45;&gt;Node4 -->
<g id="edge3" class="edge"><title>Node3&#45;&gt;Node4</title>
<path fill="none" stroke="midnightblue" d="M269.209,-249.824C293.317,-255.182 321.44,-261.431 344.16,-266.48"/>
<polygon fill="midnightblue" stroke="midnightblue" points="269.672,-246.342 259.151,-247.589 268.153,-253.175 269.672,-246.342"/>
</g>
<!-- Node6 -->
<g id="node6" class="node"><title>Node6</title>
<g id="a_node6"><a xlink:href="classGnuplot.xhtml#a8ceac5808e42665c1dee305ae7ea9070" target="_top" xlink:title="Construtor, plota um grafico a partir de um vector, diretamente na construcao. ">
<polygon fill="white" stroke="black" points="343,-228.5 343,-247.5 433,-247.5 433,-228.5 343,-228.5"/>
<text text-anchor="middle" x="388" y="-235.5" font-family="Helvetica,sans-Serif" font-size="10.00">Gnuplot::Gnuplot</text>
</a>
</g>
</g>
<!-- Node5&#45;&gt;Node6 -->
<g id="edge5" class="edge"><title>Node5&#45;&gt;Node6</title>
<path fill="none" stroke="midnightblue" d="M266.428,-211.206C291.103,-216.69 320.493,-223.221 344.079,-228.462"/>
<polygon fill="midnightblue" stroke="midnightblue" points="267.046,-207.758 256.525,-209.005 265.527,-214.592 267.046,-207.758"/>
</g>
<!-- Node7 -->
<g id="node7" class="node"><title>Node7</title>
<g id="a_node7"><a xlink:href="classGnuplot.xhtml#ab478d91039848a22733fc7a0f7c25f04" target="_top" xlink:title="Plota dados de um vector. ">
<polygon fill="white" stroke="black" points="337,-190.5 337,-209.5 439,-209.5 439,-190.5 337,-190.5"/>
<text text-anchor="middle" x="388" y="-197.5" font-family="Helvetica,sans-Serif" font-size="10.00">Gnuplot::PlotVector</text>
</a>
</g>
</g>
<!-- Node5&#45;&gt;Node7 -->
<g id="edge6" class="edge"><title>Node5&#45;&gt;Node7</title>
<path fill="none" stroke="midnightblue" d="M266.752,-200C288.938,-200 314.885,-200 336.987,-200"/>
<polygon fill="midnightblue" stroke="midnightblue" points="266.525,-196.5 256.525,-200 266.525,-203.5 266.525,-196.5"/>
</g>
<!-- Node9 -->
<g id="node9" class="node"><title>Node9</title>
<g id="a_node9"><a xlink:href="classGnuplot.xhtml#a24327b6116c71acdc195eadf665c67cb" target="_top" xlink:title="Construtor, plota um grafico do tipo x_y a partir de vetores, diretamente na construcao. ">
<polygon fill="white" stroke="black" points="343,-152.5 343,-171.5 433,-171.5 433,-152.5 343,-152.5"/>
<text text-anchor="middle" x="388" y="-159.5" font-family="Helvetica,sans-Serif" font-size="10.00">Gnuplot::Gnuplot</text>
</a>
</g>
</g>
<!-- Node8&#45;&gt;Node9 -->
<g id="edge8" class="edge"><title>Node8&#45;&gt;Node9</title>
<path fill="none" stroke="midnightblue" d="M269.37,-162C293.023,-162 320.515,-162 342.97,-162"/>
<polygon fill="midnightblue" stroke="midnightblue" points="269.151,-158.5 259.151,-162 269.15,-165.5 269.151,-158.5"/>
</g>
<!-- Node10 -->
<g id="node10" class="node"><title>Node10</title>
<g id="a_node10"><a xlink:href="classGnuplot.xhtml#ae282636936128008b2c82f569f607820" target="_top" xlink:title="Plota pares x,y a partir de vetores. ">
<polygon fill="white" stroke="black" points="337,-114.5 337,-133.5 439,-133.5 439,-114.5 337,-114.5"/>
<text text-anchor="middle" x="388" y="-121.5" font-family="Helvetica,sans-Serif" font-size="10.00">Gnuplot::PlotVector</text>
</a>
</g>
</g>
<!-- Node8&#45;&gt;Node10 -->
<g id="edge9" class="edge"><title>Node8&#45;&gt;Node10</title>
<path fill="none" stroke="midnightblue" d="M269.209,-150.176C293.317,-144.818 321.44,-138.569 344.16,-133.52"/>
<polygon fill="midnightblue" stroke="midnightblue" points="268.153,-146.825 259.151,-152.411 269.672,-153.658 268.153,-146.825"/>
</g>
<!-- Node12 -->
<g id="node12" class="node"><title>Node12</title>
<g id="a_node12"><a xlink:href="classGnuplot.xhtml#a6d3863c1b14d93c14b50df0a11dfdbd8" target="_top" xlink:title="Plota pares x,y com barra de erro dy a partir de vetores. ">
<polygon fill="white" stroke="black" points="312,-76.5 312,-95.5 464,-95.5 464,-76.5 312,-76.5"/>
<text text-anchor="middle" x="388" y="-83.5" font-family="Helvetica,sans-Serif" font-size="10.00">Gnuplot::PlotVectorXYErrorBar</text>
</a>
</g>
</g>
<!-- Node11&#45;&gt;Node12 -->
<g id="edge11" class="edge"><title>Node11&#45;&gt;Node12</title>
<path fill="none" stroke="midnightblue" d="M277.344,-98.184C288.484,-96.9463 300.219,-95.6423 311.705,-94.3661"/>
<polygon fill="midnightblue" stroke="midnightblue" points="276.858,-94.7164 267.306,-99.2994 277.631,-101.674 276.858,-94.7164"/>
</g>
<!-- Node14 -->
<g id="node14" class="node"><title>Node14</title>
<g id="a_node14"><a xlink:href="classGnuplot.xhtml#a14191e89154f2716608f6907975cc012" target="_top" xlink:title="Construtor, plota um grafico de x_y_z a partir de vetores, diretamente na construcao. ">
<polygon fill="white" stroke="black" points="343,-38.5 343,-57.5 433,-57.5 433,-38.5 343,-38.5"/>
<text text-anchor="middle" x="388" y="-45.5" font-family="Helvetica,sans-Serif" font-size="10.00">Gnuplot::Gnuplot</text>
</a>
</g>
</g>
<!-- Node13&#45;&gt;Node14 -->
<g id="edge13" class="edge"><title>Node13&#45;&gt;Node14</title>
<path fill="none" stroke="midnightblue" d="M272.12,-48C295.08,-48 321.259,-48 342.821,-48"/>
<polygon fill="midnightblue" stroke="midnightblue" points="271.825,-44.5001 261.825,-48 271.825,-51.5001 271.825,-44.5001"/>
</g>
<!-- Node15 -->
<g id="node15" class="node"><title>Node15</title>
<g id="a_node15"><a xlink:href="classGnuplot.xhtml#a239b222cd7ff6ba4a60d583b22248a4f" target="_top" xlink:title="Plota valores de x,y,z a partir de vetores. ">
<polygon fill="white" stroke="black" points="337,-0.5 337,-19.5 439,-19.5 439,-0.5 337,-0.5"/>
<text text-anchor="middle" x="388" y="-7.5" font-family="Helvetica,sans-Serif" font-size="10.00">Gnuplot::PlotVector</text>
</a>
</g>
</g>
<!-- Node13&#45;&gt;Node15 -->
<g id="edge14" class="edge"><title>Node13&#45;&gt;Node15</title>
<path fill="none" stroke="midnightblue" d="M269.209,-36.1757C293.317,-30.8184 321.44,-24.5689 344.16,-19.5201"/>
<polygon fill="midnightblue" stroke="midnightblue" points="268.153,-32.825 259.151,-38.411 269.672,-39.6583 268.153,-32.825"/>
</g>
</g>
</svg>
