<?xml version="1.0" encoding="UTF-8" standalone="no"?>
<!DOCTYPE svg PUBLIC "-//W3C//DTD SVG 1.1//EN"
 "http://www.w3.org/Graphics/SVG/1.1/DTD/svg11.dtd">
<!-- Generated by graphviz version 2.34.0 (20140110.0949)
 -->
<!-- Title: Gnuplot::file_exists Pages: 1 -->
<svg width="646pt" height="441pt"
 viewBox="0.00 0.00 646.00 441.00" xmlns="http://www.w3.org/2000/svg" xmlns:xlink="http://www.w3.org/1999/xlink">
<g id="graph0" class="graph" transform="scale(1 1) rotate(0) translate(4 437)">
<title>Gnuplot::file_exists</title>
<polygon fill="white" stroke="white" points="-4,4 -4,-437 642,-437 642,4 -4,4"/>
<!-- Node1 -->
<g id="node1" class="node"><title>Node1</title>
<polygon fill="#bfbfbf" stroke="black" points="0.5,-209.5 0.5,-228.5 101.5,-228.5 101.5,-209.5 0.5,-209.5"/>
<text text-anchor="middle" x="51" y="-216.5" font-family="Helvetica,sans-Serif" font-size="10.00">Gnuplot::file_exists</text>
</g>
<!-- Node2 -->
<g id="node2" class="node"><title>Node2</title>
<g id="a_node2"><a xlink:href="classGnuplot.xhtml#a254ea8e7aa6e8821c3be25d1869e6e77" target="_top" xlink:title="Checa se o arquivo existe. ">
<polygon fill="white" stroke="black" points="156,-361.5 156,-380.5 256,-380.5 256,-361.5 156,-361.5"/>
<text text-anchor="middle" x="206" y="-368.5" font-family="Helvetica,sans-Serif" font-size="10.00">Gnuplot::FileExists</text>
</a>
</g>
</g>
<!-- Node1&#45;&gt;Node2 -->
<g id="edge1" class="edge"><title>Node1&#45;&gt;Node2</title>
<path fill="none" stroke="midnightblue" d="M59.2022,-238.181C71.0993,-267.232 97.6293,-322.157 138,-352 143.347,-355.953 149.49,-359.084 155.838,-361.565"/>
<polygon fill="midnightblue" stroke="midnightblue" points="62.4055,-236.763 55.4826,-228.743 55.8931,-239.33 62.4055,-236.763"/>
</g>
<!-- Node3 -->
<g id="node3" class="node"><title>Node3</title>
<g id="a_node3"><a xlink:href="classGnuplot.xhtml#a3a769e47861d74fa713070ecd857dd17" target="_top" xlink:title="Retorna verdadeiro se a path esta presente. ">
<polygon fill="white" stroke="black" points="139,-323.5 139,-342.5 273,-342.5 273,-323.5 139,-323.5"/>
<text text-anchor="middle" x="206" y="-330.5" font-family="Helvetica,sans-Serif" font-size="10.00">Gnuplot::get_program_path</text>
</a>
</g>
</g>
<!-- Node1&#45;&gt;Node3 -->
<g id="edge2" class="edge"><title>Node1&#45;&gt;Node3</title>
<path fill="none" stroke="midnightblue" d="M68.8541,-235.807C85.5791,-252.009 112.354,-276.698 138,-295 153.239,-305.875 171.848,-316.221 185.584,-323.363"/>
<polygon fill="midnightblue" stroke="midnightblue" points="71.0918,-233.099 61.5,-228.6 66.1923,-238.099 71.0918,-233.099"/>
</g>
<!-- Node8 -->
<g id="node8" class="node"><title>Node8</title>
<g id="a_node8"><a xlink:href="classGnuplot.xhtml#a4ca35415fa5560764597cfdfa46c6c40" target="_top" xlink:title="Plota dados de um arquivo de disco. ">
<polygon fill="white" stroke="black" points="158.5,-266.5 158.5,-285.5 253.5,-285.5 253.5,-266.5 158.5,-266.5"/>
<text text-anchor="middle" x="206" y="-273.5" font-family="Helvetica,sans-Serif" font-size="10.00">Gnuplot::plotfile_x</text>
</a>
</g>
</g>
<!-- Node1&#45;&gt;Node8 -->
<g id="edge7" class="edge"><title>Node1&#45;&gt;Node8</title>
<path fill="none" stroke="midnightblue" d="M87.0705,-232.065C115.194,-242.543 154.014,-257.005 179.308,-266.428"/>
<polygon fill="midnightblue" stroke="midnightblue" points="88.2015,-228.752 77.6088,-228.541 85.7577,-235.311 88.2015,-228.752"/>
</g>
<!-- Node13 -->
<g id="node13" class="node"><title>Node13</title>
<g id="a_node13"><a xlink:href="classGnuplot.xhtml#af226f395310d3c5c4f8b4d2aaf5d8823" target="_top" xlink:title="Plota pares x,y a partir de um arquivo de disco. ">
<polygon fill="white" stroke="black" points="155.5,-209.5 155.5,-228.5 256.5,-228.5 256.5,-209.5 155.5,-209.5"/>
<text text-anchor="middle" x="206" y="-216.5" font-family="Helvetica,sans-Serif" font-size="10.00">Gnuplot::plotfile_xy</text>
</a>
</g>
</g>
<!-- Node1&#45;&gt;Node13 -->
<g id="edge12" class="edge"><title>Node1&#45;&gt;Node13</title>
<path fill="none" stroke="midnightblue" d="M111.953,-219C126.308,-219 141.48,-219 155.313,-219"/>
<polygon fill="midnightblue" stroke="midnightblue" points="111.675,-215.5 101.675,-219 111.675,-222.5 111.675,-215.5"/>
</g>
<!-- Node18 -->
<g id="node18" class="node"><title>Node18</title>
<g id="a_node18"><a xlink:href="classGnuplot.xhtml#a33ab4bb031fa6a6b798c90a9089648e9" target="_top" xlink:title="Plota pares x,y com barra de erro dy a partir de um arquivo. ">
<polygon fill="white" stroke="black" points="147.5,-152.5 147.5,-171.5 264.5,-171.5 264.5,-152.5 147.5,-152.5"/>
<text text-anchor="middle" x="206" y="-159.5" font-family="Helvetica,sans-Serif" font-size="10.00">Gnuplot::plotfile_xy_err</text>
</a>
</g>
</g>
<!-- Node1&#45;&gt;Node18 -->
<g id="edge17" class="edge"><title>Node1&#45;&gt;Node18</title>
<path fill="none" stroke="midnightblue" d="M87.0705,-205.935C115.194,-195.457 154.014,-180.995 179.308,-171.572"/>
<polygon fill="midnightblue" stroke="midnightblue" points="85.7577,-202.689 77.6088,-209.459 88.2015,-209.248 85.7577,-202.689"/>
</g>
<!-- Node22 -->
<g id="node22" class="node"><title>Node22</title>
<g id="a_node22"><a xlink:href="classGnuplot.xhtml#abd1c17c49fc59979a1143384c77c5b66" target="_top" xlink:title="Plota valores de x,y,z a partir de um arquivo de disco. ">
<polygon fill="white" stroke="black" points="153,-76.5 153,-95.5 259,-95.5 259,-76.5 153,-76.5"/>
<text text-anchor="middle" x="206" y="-83.5" font-family="Helvetica,sans-Serif" font-size="10.00">Gnuplot::plotfile_xyz</text>
</a>
</g>
</g>
<!-- Node1&#45;&gt;Node22 -->
<g id="edge21" class="edge"><title>Node1&#45;&gt;Node22</title>
<path fill="none" stroke="midnightblue" d="M70.5169,-202.456C87.8735,-186.992 114.584,-163.304 138,-143 157.384,-126.192 180.181,-106.897 193.564,-95.6171"/>
<polygon fill="midnightblue" stroke="midnightblue" points="67.9364,-200.068 62.8032,-209.336 72.5958,-205.292 67.9364,-200.068"/>
</g>
<!-- Node27 -->
<g id="node27" class="node"><title>Node27</title>
<g id="a_node27"><a xlink:href="classGnuplot.xhtml#a67cae885c26ced821e335d98986f1967" target="_top" xlink:title="Seta caminho para path do gnuplot. ">
<polygon fill="white" stroke="black" points="138.5,-19.5 138.5,-38.5 273.5,-38.5 273.5,-19.5 138.5,-19.5"/>
<text text-anchor="middle" x="206" y="-26.5" font-family="Helvetica,sans-Serif" font-size="10.00">Gnuplot::set_GNUPlotPath</text>
</a>
</g>
</g>
<!-- Node1&#45;&gt;Node27 -->
<g id="edge26" class="edge"><title>Node1&#45;&gt;Node27</title>
<path fill="none" stroke="midnightblue" d="M58.9953,-199.652C71.0495,-168.503 98.3218,-106.72 138,-67 150.286,-54.701 167.372,-45.094 181.214,-38.6165"/>
<polygon fill="midnightblue" stroke="midnightblue" points="55.6091,-198.714 55.3709,-209.306 62.1625,-201.174 55.6091,-198.714"/>
</g>
<!-- Node4 -->
<g id="node4" class="node"><title>Node4</title>
<g id="a_node4"><a xlink:href="classGnuplot.xhtml#a08d1e4ec069ec1cb82bb96427d1e0d7f" target="_top" xlink:title="Cria arquivo temporario e retorna seu nome. Usa get_program_path(); e popen();. ">
<polygon fill="white" stroke="black" points="345.5,-380.5 345.5,-399.5 414.5,-399.5 414.5,-380.5 345.5,-380.5"/>
<text text-anchor="middle" x="380" y="-387.5" font-family="Helvetica,sans-Serif" font-size="10.00">Gnuplot::init</text>
</a>
</g>
</g>
<!-- Node3&#45;&gt;Node4 -->
<g id="edge3" class="edge"><title>Node3&#45;&gt;Node4</title>
<path fill="none" stroke="midnightblue" d="M255.768,-345.531C261.971,-347.503 268.181,-349.669 274,-352 290.795,-358.727 293.18,-364.337 310,-371 321.205,-375.439 333.825,-379.241 345.179,-382.253"/>
<polygon fill="midnightblue" stroke="midnightblue" points="256.666,-342.146 246.081,-342.595 254.636,-348.845 256.666,-342.146"/>
</g>
<!-- Node7 -->
<g id="node7" class="node"><title>Node7</title>
<g id="a_node7"><a xlink:href="classGnuplot.xhtml#a8b2a2073044fd58cc6084bf4954e07bc" target="_top" xlink:title="Retorna verdadeiro se a path esta presente. ">
<polygon fill="white" stroke="black" points="341.5,-342.5 341.5,-361.5 418.5,-361.5 418.5,-342.5 341.5,-342.5"/>
<text text-anchor="middle" x="380" y="-349.5" font-family="Helvetica,sans-Serif" font-size="10.00">Gnuplot::Path</text>
</a>
</g>
</g>
<!-- Node3&#45;&gt;Node7 -->
<g id="edge6" class="edge"><title>Node3&#45;&gt;Node7</title>
<path fill="none" stroke="midnightblue" d="M283.137,-341.41C303.287,-343.636 324.17,-345.943 341.28,-347.833"/>
<polygon fill="midnightblue" stroke="midnightblue" points="283.332,-337.911 273.008,-340.292 282.563,-344.868 283.332,-337.911"/>
</g>
<!-- Node5 -->
<g id="node5" class="node"><title>Node5</title>
<g id="a_node5"><a xlink:href="classGnuplot.xhtml#a187eb517b362cf379492fe7f1621ee50" target="_top" xlink:title="Construtor, seta o estilo do grafico na construcao. ">
<polygon fill="white" stroke="black" points="517,-413.5 517,-432.5 607,-432.5 607,-413.5 517,-413.5"/>
<text text-anchor="middle" x="562" y="-420.5" font-family="Helvetica,sans-Serif" font-size="10.00">Gnuplot::Gnuplot</text>
</a>
</g>
</g>
<!-- Node4&#45;&gt;Node5 -->
<g id="edge4" class="edge"><title>Node4&#45;&gt;Node5</title>
<path fill="none" stroke="midnightblue" d="M424.742,-398.019C452.658,-403.137 488.727,-409.75 516.742,-414.886"/>
<polygon fill="midnightblue" stroke="midnightblue" points="425.324,-394.568 414.857,-396.207 424.062,-401.453 425.324,-394.568"/>
</g>
<!-- Node6 -->
<g id="node6" class="node"><title>Node6</title>
<g id="a_node6"><a xlink:href="classGnuplot.xhtml#a1f0052a04c1259e2c008435de407959f" target="_top" xlink:title="Cria arquivo temporario e retorna seu nome. Usa get_program_path(); e popen();. ">
<polygon fill="white" stroke="black" points="527,-375.5 527,-394.5 597,-394.5 597,-375.5 527,-375.5"/>
<text text-anchor="middle" x="562" y="-382.5" font-family="Helvetica,sans-Serif" font-size="10.00">Gnuplot::Init</text>
</a>
</g>
</g>
<!-- Node4&#45;&gt;Node6 -->
<g id="edge5" class="edge"><title>Node4&#45;&gt;Node6</title>
<path fill="none" stroke="midnightblue" d="M425.088,-388.775C456.508,-387.903 498.123,-386.747 526.99,-385.945"/>
<polygon fill="midnightblue" stroke="midnightblue" points="424.756,-385.283 414.857,-389.06 424.95,-392.28 424.756,-385.283"/>
</g>
<!-- Node9 -->
<g id="node9" class="node"><title>Node9</title>
<g id="a_node9"><a xlink:href="classGnuplot.xhtml#a9400d43204b9df62851c063aee604f0d" target="_top" xlink:title="Plota dados de um vector. ">
<polygon fill="white" stroke="black" points="338.5,-304.5 338.5,-323.5 421.5,-323.5 421.5,-304.5 338.5,-304.5"/>
<text text-anchor="middle" x="380" y="-311.5" font-family="Helvetica,sans-Serif" font-size="10.00">Gnuplot::plot_x</text>
</a>
</g>
</g>
<!-- Node8&#45;&gt;Node9 -->
<g id="edge8" class="edge"><title>Node8&#45;&gt;Node9</title>
<path fill="none" stroke="midnightblue" d="M260.168,-287.746C285.336,-293.307 314.919,-299.843 338.272,-305.002"/>
<polygon fill="midnightblue" stroke="midnightblue" points="260.922,-284.329 250.403,-285.589 259.412,-291.164 260.922,-284.329"/>
</g>
<!-- Node12 -->
<g id="node12" class="node"><title>Node12</title>
<g id="a_node12"><a xlink:href="classGnuplot.xhtml#a12ba90a46e80421f655049cb1d1d835d" target="_top" xlink:title="Plota dados de um arquivo de disco. ">
<polygon fill="white" stroke="black" points="335.5,-266.5 335.5,-285.5 424.5,-285.5 424.5,-266.5 335.5,-266.5"/>
<text text-anchor="middle" x="380" y="-273.5" font-family="Helvetica,sans-Serif" font-size="10.00">Gnuplot::PlotFile</text>
</a>
</g>
</g>
<!-- Node8&#45;&gt;Node12 -->
<g id="edge11" class="edge"><title>Node8&#45;&gt;Node12</title>
<path fill="none" stroke="midnightblue" d="M263.663,-276C286.995,-276 313.601,-276 335.375,-276"/>
<polygon fill="midnightblue" stroke="midnightblue" points="263.546,-272.5 253.546,-276 263.546,-279.5 263.546,-272.5"/>
</g>
<!-- Node10 -->
<g id="node10" class="node"><title>Node10</title>
<g id="a_node10"><a xlink:href="classGnuplot.xhtml#a8ceac5808e42665c1dee305ae7ea9070" target="_top" xlink:title="Construtor, plota um grafico a partir de um vector, diretamente na construcao. ">
<polygon fill="white" stroke="black" points="517,-328.5 517,-347.5 607,-347.5 607,-328.5 517,-328.5"/>
<text text-anchor="middle" x="562" y="-335.5" font-family="Helvetica,sans-Serif" font-size="10.00">Gnuplot::Gnuplot</text>
</a>
</g>
</g>
<!-- Node9&#45;&gt;Node10 -->
<g id="edge9" class="edge"><title>Node9&#45;&gt;Node10</title>
<path fill="none" stroke="midnightblue" d="M431.802,-320.774C458.588,-324.345 491.13,-328.684 516.854,-332.114"/>
<polygon fill="midnightblue" stroke="midnightblue" points="432.22,-317.298 421.845,-319.446 431.294,-324.237 432.22,-317.298"/>
</g>
<!-- Node11 -->
<g id="node11" class="node"><title>Node11</title>
<g id="a_node11"><a xlink:href="classGnuplot.xhtml#ab478d91039848a22733fc7a0f7c25f04" target="_top" xlink:title="Plota dados de um vector. ">
<polygon fill="white" stroke="black" points="511,-290.5 511,-309.5 613,-309.5 613,-290.5 511,-290.5"/>
<text text-anchor="middle" x="562" y="-297.5" font-family="Helvetica,sans-Serif" font-size="10.00">Gnuplot::PlotVector</text>
</a>
</g>
</g>
<!-- Node9&#45;&gt;Node11 -->
<g id="edge10" class="edge"><title>Node9&#45;&gt;Node11</title>
<path fill="none" stroke="midnightblue" d="M432.076,-310.027C456.704,-308.112 486.148,-305.822 510.677,-303.914"/>
<polygon fill="midnightblue" stroke="midnightblue" points="431.543,-306.558 421.845,-310.823 432.086,-313.537 431.543,-306.558"/>
</g>
<!-- Node14 -->
<g id="node14" class="node"><title>Node14</title>
<g id="a_node14"><a xlink:href="classGnuplot.xhtml#a777b6a5474951d6d023dff4237d80a2b" target="_top" xlink:title="Plota pares x,y a partir de vetores. ">
<polygon fill="white" stroke="black" points="336,-228.5 336,-247.5 424,-247.5 424,-228.5 336,-228.5"/>
<text text-anchor="middle" x="380" y="-235.5" font-family="Helvetica,sans-Serif" font-size="10.00">Gnuplot::plot_xy</text>
</a>
</g>
</g>
<!-- Node13&#45;&gt;Node14 -->
<g id="edge13" class="edge"><title>Node13&#45;&gt;Node14</title>
<path fill="none" stroke="midnightblue" d="M266.95,-225.622C289.617,-228.126 314.948,-230.925 335.784,-233.226"/>
<polygon fill="midnightblue" stroke="midnightblue" points="267.073,-222.115 256.75,-224.496 266.305,-229.072 267.073,-222.115"/>
</g>
<!-- Node17 -->
<g id="node17" class="node"><title>Node17</title>
<g id="a_node17"><a xlink:href="classGnuplot.xhtml#a68d5b282f0fc0d65d432009b55705cbd" target="_top" xlink:title="Plota pares x,y a partir de um arquivo de disco. ">
<polygon fill="white" stroke="black" points="335.5,-190.5 335.5,-209.5 424.5,-209.5 424.5,-190.5 335.5,-190.5"/>
<text text-anchor="middle" x="380" y="-197.5" font-family="Helvetica,sans-Serif" font-size="10.00">Gnuplot::PlotFile</text>
</a>
</g>
</g>
<!-- Node13&#45;&gt;Node17 -->
<g id="edge16" class="edge"><title>Node13&#45;&gt;Node17</title>
<path fill="none" stroke="midnightblue" d="M266.909,-212.382C289.482,-209.889 314.704,-207.102 335.498,-204.805"/>
<polygon fill="midnightblue" stroke="midnightblue" points="266.305,-208.928 256.75,-213.504 267.073,-215.885 266.305,-208.928"/>
</g>
<!-- Node15 -->
<g id="node15" class="node"><title>Node15</title>
<g id="a_node15"><a xlink:href="classGnuplot.xhtml#a24327b6116c71acdc195eadf665c67cb" target="_top" xlink:title="Construtor, plota um grafico do tipo x_y a partir de vetores, diretamente na construcao. ">
<polygon fill="white" stroke="black" points="517,-233.5 517,-252.5 607,-252.5 607,-233.5 517,-233.5"/>
<text text-anchor="middle" x="562" y="-240.5" font-family="Helvetica,sans-Serif" font-size="10.00">Gnuplot::Gnuplot</text>
</a>
</g>
</g>
<!-- Node14&#45;&gt;Node15 -->
<g id="edge14" class="edge"><title>Node14&#45;&gt;Node15</title>
<path fill="none" stroke="midnightblue" d="M434.308,-239.481C460.645,-240.212 492.039,-241.084 516.987,-241.777"/>
<polygon fill="midnightblue" stroke="midnightblue" points="434.208,-235.977 424.114,-239.198 434.013,-242.974 434.208,-235.977"/>
</g>
<!-- Node16 -->
<g id="node16" class="node"><title>Node16</title>
<g id="a_node16"><a xlink:href="classGnuplot.xhtml#ae282636936128008b2c82f569f607820" target="_top" xlink:title="Plota pares x,y a partir de vetores. ">
<polygon fill="white" stroke="black" points="511,-195.5 511,-214.5 613,-214.5 613,-195.5 511,-195.5"/>
<text text-anchor="middle" x="562" y="-202.5" font-family="Helvetica,sans-Serif" font-size="10.00">Gnuplot::PlotVector</text>
</a>
</g>
</g>
<!-- Node14&#45;&gt;Node16 -->
<g id="edge15" class="edge"><title>Node14&#45;&gt;Node16</title>
<path fill="none" stroke="midnightblue" d="M434.22,-228.243C458.476,-223.796 487.037,-218.56 510.904,-214.184"/>
<polygon fill="midnightblue" stroke="midnightblue" points="433.319,-224.85 424.114,-230.096 434.582,-231.735 433.319,-224.85"/>
</g>
<!-- Node19 -->
<g id="node19" class="node"><title>Node19</title>
<g id="a_node19"><a xlink:href="classGnuplot.xhtml#a3dd3934b09094a9ba48035a2edf4d4fd" target="_top" xlink:title="Plota pares x,y com barra de erro dy a partir de vetores. ">
<polygon fill="white" stroke="black" points="328,-152.5 328,-171.5 432,-171.5 432,-152.5 328,-152.5"/>
<text text-anchor="middle" x="380" y="-159.5" font-family="Helvetica,sans-Serif" font-size="10.00">Gnuplot::plot_xy_err</text>
</a>
</g>
</g>
<!-- Node18&#45;&gt;Node19 -->
<g id="edge18" class="edge"><title>Node18&#45;&gt;Node19</title>
<path fill="none" stroke="midnightblue" d="M274.96,-162C292.545,-162 311.183,-162 327.752,-162"/>
<polygon fill="midnightblue" stroke="midnightblue" points="274.752,-158.5 264.752,-162 274.752,-165.5 274.752,-158.5"/>
</g>
<!-- Node21 -->
<g id="node21" class="node"><title>Node21</title>
<g id="a_node21"><a xlink:href="classGnuplot.xhtml#a759edbd9404476415a4d6d5a286c360c" target="_top" xlink:title="Plota pares x,y com barra de erro dy a partir de um arquivo. ">
<polygon fill="white" stroke="black" points="310.5,-114.5 310.5,-133.5 449.5,-133.5 449.5,-114.5 310.5,-114.5"/>
<text text-anchor="middle" x="380" y="-121.5" font-family="Helvetica,sans-Serif" font-size="10.00">Gnuplot::PlotFileXYErrorBar</text>
</a>
</g>
</g>
<!-- Node18&#45;&gt;Node21 -->
<g id="edge20" class="edge"><title>Node18&#45;&gt;Node21</title>
<path fill="none" stroke="midnightblue" d="M260.196,-150.247C284.517,-144.874 312.955,-138.591 335.909,-133.52"/>
<polygon fill="midnightblue" stroke="midnightblue" points="259.412,-146.836 250.403,-152.411 260.922,-153.671 259.412,-146.836"/>
</g>
<!-- Node20 -->
<g id="node20" class="node"><title>Node20</title>
<g id="a_node20"><a xlink:href="classGnuplot.xhtml#a6d3863c1b14d93c14b50df0a11dfdbd8" target="_top" xlink:title="Plota pares x,y com barra de erro dy a partir de vetores. ">
<polygon fill="white" stroke="black" points="486,-152.5 486,-171.5 638,-171.5 638,-152.5 486,-152.5"/>
<text text-anchor="middle" x="562" y="-159.5" font-family="Helvetica,sans-Serif" font-size="10.00">Gnuplot::PlotVectorXYErrorBar</text>
</a>
</g>
</g>
<!-- Node19&#45;&gt;Node20 -->
<g id="edge19" class="edge"><title>Node19&#45;&gt;Node20</title>
<path fill="none" stroke="midnightblue" d="M442.136,-162C456.206,-162 471.329,-162 485.914,-162"/>
<polygon fill="midnightblue" stroke="midnightblue" points="442.099,-158.5 432.099,-162 442.099,-165.5 442.099,-158.5"/>
</g>
<!-- Node23 -->
<g id="node23" class="node"><title>Node23</title>
<g id="a_node23"><a xlink:href="classGnuplot.xhtml#aee30f21a00a4f31c8356a2ef1f0e26e3" target="_top" xlink:title="Plota valores de x,y,z a partir de vetores. ">
<polygon fill="white" stroke="black" points="333.5,-76.5 333.5,-95.5 426.5,-95.5 426.5,-76.5 333.5,-76.5"/>
<text text-anchor="middle" x="380" y="-83.5" font-family="Helvetica,sans-Serif" font-size="10.00">Gnuplot::plot_xyz</text>
</a>
</g>
</g>
<!-- Node22&#45;&gt;Node23 -->
<g id="edge22" class="edge"><title>Node22&#45;&gt;Node23</title>
<path fill="none" stroke="midnightblue" d="M269.258,-86C290.398,-86 313.614,-86 333.227,-86"/>
<polygon fill="midnightblue" stroke="midnightblue" points="269.072,-82.5001 259.072,-86 269.072,-89.5001 269.072,-82.5001"/>
</g>
<!-- Node26 -->
<g id="node26" class="node"><title>Node26</title>
<g id="a_node26"><a xlink:href="classGnuplot.xhtml#a3f5f7127182ea22da3ee0b78f0ade35c" target="_top" xlink:title="Plota valores de x,y,z a partir de um arquivo de disco. ">
<polygon fill="white" stroke="black" points="335.5,-38.5 335.5,-57.5 424.5,-57.5 424.5,-38.5 335.5,-38.5"/>
<text text-anchor="middle" x="380" y="-45.5" font-family="Helvetica,sans-Serif" font-size="10.00">Gnuplot::PlotFile</text>
</a>
</g>
</g>
<!-- Node22&#45;&gt;Node26 -->
<g id="edge25" class="edge"><title>Node22&#45;&gt;Node26</title>
<path fill="none" stroke="midnightblue" d="M260.196,-74.2474C284.517,-68.8742 312.955,-62.5914 335.909,-57.5201"/>
<polygon fill="midnightblue" stroke="midnightblue" points="259.412,-70.836 250.403,-76.411 260.922,-77.6712 259.412,-70.836"/>
</g>
<!-- Node24 -->
<g id="node24" class="node"><title>Node24</title>
<g id="a_node24"><a xlink:href="classGnuplot.xhtml#a14191e89154f2716608f6907975cc012" target="_top" xlink:title="Construtor, plota um grafico de x_y_z a partir de vetores, diretamente na construcao. ">
<polygon fill="white" stroke="black" points="517,-95.5 517,-114.5 607,-114.5 607,-95.5 517,-95.5"/>
<text text-anchor="middle" x="562" y="-102.5" font-family="Helvetica,sans-Serif" font-size="10.00">Gnuplot::Gnuplot</text>
</a>
</g>
</g>
<!-- Node23&#45;&gt;Node24 -->
<g id="edge23" class="edge"><title>Node23&#45;&gt;Node24</title>
<path fill="none" stroke="midnightblue" d="M436.87,-91.8974C462.577,-94.6109 492.646,-97.7848 516.75,-100.329"/>
<polygon fill="midnightblue" stroke="midnightblue" points="437.2,-88.4128 426.887,-90.8437 436.465,-95.3741 437.2,-88.4128"/>
</g>
<!-- Node25 -->
<g id="node25" class="node"><title>Node25</title>
<g id="a_node25"><a xlink:href="classGnuplot.xhtml#a239b222cd7ff6ba4a60d583b22248a4f" target="_top" xlink:title="Plota valores de x,y,z a partir de vetores. ">
<polygon fill="white" stroke="black" points="511,-57.5 511,-76.5 613,-76.5 613,-57.5 511,-57.5"/>
<text text-anchor="middle" x="562" y="-64.5" font-family="Helvetica,sans-Serif" font-size="10.00">Gnuplot::PlotVector</text>
</a>
</g>
</g>
<!-- Node23&#45;&gt;Node25 -->
<g id="edge24" class="edge"><title>Node23&#45;&gt;Node25</title>
<path fill="none" stroke="midnightblue" d="M437.087,-80.0798C460.656,-77.5918 487.861,-74.7203 510.765,-72.3026"/>
<polygon fill="midnightblue" stroke="midnightblue" points="436.465,-76.6259 426.887,-81.1563 437.2,-83.5872 436.465,-76.6259"/>
</g>
<!-- Node28 -->
<g id="node28" class="node"><title>Node28</title>
<g id="a_node28"><a xlink:href="classGnuplot.xhtml#a3920eab5d6595ea80d4bc4f72b06dab1" target="_top" xlink:title="Seta caminho para path do gnuplot. ">
<polygon fill="white" stroke="black" points="341.5,-0.5 341.5,-19.5 418.5,-19.5 418.5,-0.5 341.5,-0.5"/>
<text text-anchor="middle" x="380" y="-7.5" font-family="Helvetica,sans-Serif" font-size="10.00">Gnuplot::Path</text>
</a>
</g>
</g>
<!-- Node27&#45;&gt;Node28 -->
<g id="edge27" class="edge"><title>Node27&#45;&gt;Node28</title>
<path fill="none" stroke="midnightblue" d="M283.987,-20.4956C303.857,-18.3007 324.375,-16.0341 341.237,-14.1715"/>
<polygon fill="midnightblue" stroke="midnightblue" points="283.547,-17.0228 273.992,-21.5997 284.316,-23.9805 283.547,-17.0228"/>
</g>
</g>
</svg>
