<?xml version="1.0" encoding="UTF-8" standalone="no"?>
<!DOCTYPE svg PUBLIC "-//W3C//DTD SVG 1.1//EN"
 "http://www.w3.org/Graphics/SVG/1.1/DTD/svg11.dtd">
<!-- Generated by graphviz version 2.34.0 (20140110.0949)
 -->
<!-- Title: Gnuplot::set_style Pages: 1 -->
<svg width="230pt" height="66pt"
 viewBox="0.00 0.00 230.00 66.00" xmlns="http://www.w3.org/2000/svg" xmlns:xlink="http://www.w3.org/1999/xlink">
<g id="graph0" class="graph" transform="scale(1 1) rotate(0) translate(4 62)">
<title>Gnuplot::set_style</title>
<polygon fill="white" stroke="white" points="-4,4 -4,-62 226,-62 226,4 -4,4"/>
<!-- Node1 -->
<g id="node1" class="node"><title>Node1</title>
<polygon fill="#bfbfbf" stroke="black" points="0,-19.5 0,-38.5 96,-38.5 96,-19.5 0,-19.5"/>
<text text-anchor="middle" x="48" y="-26.5" font-family="Helvetica,sans-Serif" font-size="10.00">Gnuplot::set_style</text>
</g>
<!-- Node2 -->
<g id="node2" class="node"><title>Node2</title>
<g id="a_node2"><a xlink:href="classGnuplot.xhtml#a187eb517b362cf379492fe7f1621ee50" target="_top" xlink:title="Construtor, seta o estilo do grafico na construcao. ">
<polygon fill="white" stroke="black" points="132,-38.5 132,-57.5 222,-57.5 222,-38.5 132,-38.5"/>
<text text-anchor="middle" x="177" y="-45.5" font-family="Helvetica,sans-Serif" font-size="10.00">Gnuplot::Gnuplot</text>
</a>
</g>
</g>
<!-- Node1&#45;&gt;Node2 -->
<g id="edge1" class="edge"><title>Node1&#45;&gt;Node2</title>
<path fill="none" stroke="midnightblue" d="M106.194,-37.5566C114.722,-38.8325 123.404,-40.1313 131.615,-41.3597"/>
<polygon fill="midnightblue" stroke="midnightblue" points="106.698,-34.0931 96.2901,-36.0749 105.662,-41.0161 106.698,-34.0931"/>
</g>
<!-- Node3 -->
<g id="node3" class="node"><title>Node3</title>
<g id="a_node3"><a xlink:href="classGnuplot.xhtml#ae64e911770994ba05cc2f6dcbfe31540" target="_top" xlink:title="Seta estilos de linhas (em alguns casos sao necessarias informacoes adicionais). lines, points, linespoints, impulses, dots, steps, fsteps, histeps, boxes, histograms, filledcurves. ">
<polygon fill="white" stroke="black" points="137.5,-0.5 137.5,-19.5 216.5,-19.5 216.5,-0.5 137.5,-0.5"/>
<text text-anchor="middle" x="177" y="-7.5" font-family="Helvetica,sans-Serif" font-size="10.00">Gnuplot::Style</text>
</a>
</g>
</g>
<!-- Node1&#45;&gt;Node3 -->
<g id="edge2" class="edge"><title>Node1&#45;&gt;Node3</title>
<path fill="none" stroke="midnightblue" d="M106.275,-20.4313C116.803,-18.8562 127.562,-17.2466 137.379,-15.778"/>
<polygon fill="midnightblue" stroke="midnightblue" points="105.662,-16.9839 96.2901,-21.9251 106.698,-23.9069 105.662,-16.9839"/>
</g>
</g>
</svg>
