<?xml version="1.0" encoding="UTF-8" standalone="no"?>
<!DOCTYPE svg PUBLIC "-//W3C//DTD SVG 1.1//EN"
 "http://www.w3.org/Graphics/SVG/1.1/DTD/svg11.dtd">
<!-- Generated by graphviz version 2.34.0 (20140110.0949)
 -->
<!-- Title: Gnuplot::reset_plot Pages: 1 -->
<svg width="244pt" height="66pt"
 viewBox="0.00 0.00 244.00 66.00" xmlns="http://www.w3.org/2000/svg" xmlns:xlink="http://www.w3.org/1999/xlink">
<g id="graph0" class="graph" transform="scale(1 1) rotate(0) translate(4 62)">
<title>Gnuplot::reset_plot</title>
<polygon fill="white" stroke="white" points="-4,4 -4,-62 240,-62 240,4 -4,4"/>
<!-- Node1 -->
<g id="node1" class="node"><title>Node1</title>
<polygon fill="#bfbfbf" stroke="black" points="0.5,-19.5 0.5,-38.5 99.5,-38.5 99.5,-19.5 0.5,-19.5"/>
<text text-anchor="middle" x="50" y="-26.5" font-family="Helvetica,sans-Serif" font-size="10.00">Gnuplot::reset_plot</text>
</g>
<!-- Node2 -->
<g id="node2" class="node"><title>Node2</title>
<g id="a_node2"><a xlink:href="classGnuplot.xhtml#ae32093aa955bc31938d9cb266085ae4b" target="_top" xlink:title="Gnuplot::Reset">
<polygon fill="white" stroke="black" points="144.5,-38.5 144.5,-57.5 227.5,-57.5 227.5,-38.5 144.5,-38.5"/>
<text text-anchor="middle" x="186" y="-45.5" font-family="Helvetica,sans-Serif" font-size="10.00">Gnuplot::Reset</text>
</a>
</g>
</g>
<!-- Node1&#45;&gt;Node2 -->
<g id="edge1" class="edge"><title>Node1&#45;&gt;Node2</title>
<path fill="none" stroke="midnightblue" d="M109.883,-37.3491C121.546,-39.0028 133.542,-40.7037 144.429,-42.2474"/>
<polygon fill="midnightblue" stroke="midnightblue" points="110.148,-33.8518 99.7561,-35.9132 109.166,-40.7825 110.148,-33.8518"/>
</g>
<!-- Node3 -->
<g id="node3" class="node"><title>Node3</title>
<g id="a_node3"><a xlink:href="classGnuplot.xhtml#a5180044de81d85bcd81aa7e9376eb9d1" target="_top" xlink:title="Gnuplot::ResetPlot">
<polygon fill="white" stroke="black" points="136,-0.5 136,-19.5 236,-19.5 236,-0.5 136,-0.5"/>
<text text-anchor="middle" x="186" y="-7.5" font-family="Helvetica,sans-Serif" font-size="10.00">Gnuplot::ResetPlot</text>
</a>
</g>
</g>
<!-- Node1&#45;&gt;Node3 -->
<g id="edge2" class="edge"><title>Node1&#45;&gt;Node3</title>
<path fill="none" stroke="midnightblue" d="M109.761,-20.6683C118.385,-19.4454 127.195,-18.1963 135.606,-17.0036"/>
<polygon fill="midnightblue" stroke="midnightblue" points="109.166,-17.2175 99.7561,-22.0868 110.148,-24.1482 109.166,-17.2175"/>
</g>
</g>
</svg>
