<?xml version="1.0" encoding="UTF-8" standalone="no"?>
<!DOCTYPE svg PUBLIC "-//W3C//DTD SVG 1.1//EN"
 "http://www.w3.org/Graphics/SVG/1.1/DTD/svg11.dtd">
<!-- Generated by graphviz version 2.34.0 (20140110.0949)
 -->
<!-- Title: Gnuplot::PlotVectorXYErrorBar Pages: 1 -->
<svg width="592pt" height="85pt"
 viewBox="0.00 0.00 592.00 85.00" xmlns="http://www.w3.org/2000/svg" xmlns:xlink="http://www.w3.org/1999/xlink">
<g id="graph0" class="graph" transform="scale(1 1) rotate(0) translate(4 81)">
<title>Gnuplot::PlotVectorXYErrorBar</title>
<polygon fill="white" stroke="white" points="-4,4 -4,-81 588,-81 588,4 -4,4"/>
<!-- Node1 -->
<g id="node1" class="node"><title>Node1</title>
<polygon fill="#bfbfbf" stroke="black" points="0,-38.5 0,-57.5 152,-57.5 152,-38.5 0,-38.5"/>
<text text-anchor="middle" x="76" y="-45.5" font-family="Helvetica,sans-Serif" font-size="10.00">Gnuplot::PlotVectorXYErrorBar</text>
</g>
<!-- Node2 -->
<g id="node2" class="node"><title>Node2</title>
<g id="a_node2"><a xlink:href="classGnuplot.xhtml#a3dd3934b09094a9ba48035a2edf4d4fd" target="_top" xlink:title="Plota pares x,y com barra de erro dy a partir de vetores. ">
<polygon fill="white" stroke="black" points="188,-38.5 188,-57.5 292,-57.5 292,-38.5 188,-38.5"/>
<text text-anchor="middle" x="240" y="-45.5" font-family="Helvetica,sans-Serif" font-size="10.00">Gnuplot::plot_xy_err</text>
</a>
</g>
</g>
<!-- Node1&#45;&gt;Node2 -->
<g id="edge1" class="edge"><title>Node1&#45;&gt;Node2</title>
<path fill="none" stroke="midnightblue" d="M152.309,-48C160.885,-48 169.547,-48 177.908,-48"/>
<polygon fill="midnightblue" stroke="midnightblue" points="177.93,-51.5001 187.93,-48 177.93,-44.5001 177.93,-51.5001"/>
</g>
<!-- Node3 -->
<g id="node3" class="node"><title>Node3</title>
<g id="a_node3"><a xlink:href="classGnuplot.xhtml#a8ced9e766e0677b938178dafe9264ff7" target="_top" xlink:title="Cria arquivo temporario. ">
<polygon fill="white" stroke="black" points="328,-57.5 328,-76.5 446,-76.5 446,-57.5 328,-57.5"/>
<text text-anchor="middle" x="387" y="-64.5" font-family="Helvetica,sans-Serif" font-size="10.00">Gnuplot::create_tmpfile</text>
</a>
</g>
</g>
<!-- Node2&#45;&gt;Node3 -->
<g id="edge2" class="edge"><title>Node2&#45;&gt;Node3</title>
<path fill="none" stroke="midnightblue" d="M292.122,-54.6987C300.443,-55.7891 309.178,-56.9336 317.83,-58.0673"/>
<polygon fill="midnightblue" stroke="midnightblue" points="317.549,-61.5604 327.919,-59.3894 318.458,-54.6197 317.549,-61.5604"/>
</g>
<!-- Node4 -->
<g id="node4" class="node"><title>Node4</title>
<g id="a_node4"><a xlink:href="classGnuplot.xhtml#a33ab4bb031fa6a6b798c90a9089648e9" target="_top" xlink:title="Plota pares x,y com barra de erro dy a partir de um arquivo. ">
<polygon fill="white" stroke="black" points="328.5,-19.5 328.5,-38.5 445.5,-38.5 445.5,-19.5 328.5,-19.5"/>
<text text-anchor="middle" x="387" y="-26.5" font-family="Helvetica,sans-Serif" font-size="10.00">Gnuplot::plotfile_xy_err</text>
</a>
</g>
</g>
<!-- Node2&#45;&gt;Node4 -->
<g id="edge3" class="edge"><title>Node2&#45;&gt;Node4</title>
<path fill="none" stroke="midnightblue" d="M292.122,-41.3013C300.652,-40.1835 309.617,-39.0089 318.481,-37.8473"/>
<polygon fill="midnightblue" stroke="midnightblue" points="318.958,-41.3148 328.419,-36.5451 318.049,-34.3741 318.958,-41.3148"/>
</g>
<!-- Node5 -->
<g id="node5" class="node"><title>Node5</title>
<g id="a_node5"><a xlink:href="classGnuplot.xhtml#a07607803ede8dd5416906df0a1924fc5" target="_top" xlink:title="Envia comando para o gnuplot. ">
<polygon fill="white" stroke="black" points="495.5,-38.5 495.5,-57.5 570.5,-57.5 570.5,-38.5 495.5,-38.5"/>
<text text-anchor="middle" x="533" y="-45.5" font-family="Helvetica,sans-Serif" font-size="10.00">Gnuplot::cmd</text>
</a>
</g>
</g>
<!-- Node4&#45;&gt;Node5 -->
<g id="edge4" class="edge"><title>Node4&#45;&gt;Node5</title>
<path fill="none" stroke="midnightblue" d="M445.741,-36.6185C458.822,-38.3446 472.558,-40.157 485.126,-41.8153"/>
<polygon fill="midnightblue" stroke="midnightblue" points="484.997,-45.3285 495.369,-43.1667 485.913,-38.3886 484.997,-45.3285"/>
</g>
<!-- Node6 -->
<g id="node6" class="node"><title>Node6</title>
<g id="a_node6"><a xlink:href="classGnuplot.xhtml#abc0f1d75cb78804a5b8efdfa4df582cd" target="_top" xlink:title="Checa se o arquivo existe. ">
<polygon fill="white" stroke="black" points="482.5,-0.5 482.5,-19.5 583.5,-19.5 583.5,-0.5 482.5,-0.5"/>
<text text-anchor="middle" x="533" y="-7.5" font-family="Helvetica,sans-Serif" font-size="10.00">Gnuplot::file_exists</text>
</a>
</g>
</g>
<!-- Node4&#45;&gt;Node6 -->
<g id="edge5" class="edge"><title>Node4&#45;&gt;Node6</title>
<path fill="none" stroke="midnightblue" d="M445.741,-21.3815C454.401,-20.2387 463.349,-19.0581 472.055,-17.9095"/>
<polygon fill="midnightblue" stroke="midnightblue" points="472.675,-21.358 482.131,-16.5799 471.759,-14.4182 472.675,-21.358"/>
</g>
</g>
</svg>
