<?xml version="1.0" encoding="UTF-8" standalone="no"?>
<!DOCTYPE svg PUBLIC "-//W3C//DTD SVG 1.1//EN"
 "http://www.w3.org/Graphics/SVG/1.1/DTD/svg11.dtd">
<!-- Generated by graphviz version 2.34.0 (20140110.0949)
 -->
<!-- Title: CSimulador_Telha::EntrarDadosObjeto Pages: 1 -->
<svg width="654pt" height="149pt"
 viewBox="0.00 0.00 654.00 149.03" xmlns="http://www.w3.org/2000/svg" xmlns:xlink="http://www.w3.org/1999/xlink">
<g id="graph0" class="graph" transform="scale(1 1) rotate(0) translate(4 145.031)">
<title>CSimulador_Telha::EntrarDadosObjeto</title>
<polygon fill="white" stroke="white" points="-4,4 -4,-145.031 650,-145.031 650,4 -4,4"/>
<!-- Node1 -->
<g id="node1" class="node"><title>Node1</title>
<polygon fill="#bfbfbf" stroke="black" points="0.5,-72 0.5,-102 129.5,-102 129.5,-72 0.5,-72"/>
<text text-anchor="start" x="8.5" y="-90" font-family="Helvetica,sans-Serif" font-size="10.00">CSimulador_Telha::Entrar</text>
<text text-anchor="middle" x="65" y="-79" font-family="Helvetica,sans-Serif" font-size="10.00">DadosObjeto</text>
</g>
<!-- Node2 -->
<g id="node2" class="node"><title>Node2</title>
<g id="a_node2"><a xlink:href="classCInterface.xhtml#a34d1e9acbf3da248890eaa8a8a309384" target="_top" xlink:title="CInterface::Carimbo">
<polygon fill="white" stroke="black" points="540.5,-71.5 540.5,-90.5 645.5,-90.5 645.5,-71.5 540.5,-71.5"/>
<text text-anchor="middle" x="593" y="-78.5" font-family="Helvetica,sans-Serif" font-size="10.00">CInterface::Carimbo</text>
</a>
</g>
</g>
<!-- Node1&#45;&gt;Node2 -->
<g id="edge1" class="edge"><title>Node1&#45;&gt;Node2</title>
<path fill="none" stroke="midnightblue" d="M115.729,-102.026C197.807,-124.507 366.258,-160.829 504,-127 528.155,-121.068 553.035,-107.211 570.15,-96.2459"/>
<polygon fill="midnightblue" stroke="midnightblue" points="572.396,-98.9568 578.806,-90.5207 568.535,-93.1183 572.396,-98.9568"/>
</g>
<!-- Node3 -->
<g id="node3" class="node"><title>Node3</title>
<g id="a_node3"><a xlink:href="classCTransferenciaCalorMassa.xhtml#a07a41f40068191679771e44309b75beb" target="_top" xlink:title="Entrada de dados. ">
<polygon fill="white" stroke="black" points="368,-88 368,-118 504,-118 504,-88 368,-88"/>
<text text-anchor="start" x="376" y="-106" font-family="Helvetica,sans-Serif" font-size="10.00">CTransferenciaCalorMassa</text>
<text text-anchor="middle" x="436" y="-95" font-family="Helvetica,sans-Serif" font-size="10.00">::EntrarDadosObjeto</text>
</a>
</g>
</g>
<!-- Node1&#45;&gt;Node3 -->
<g id="edge2" class="edge"><title>Node1&#45;&gt;Node3</title>
<path fill="none" stroke="midnightblue" d="M129.854,-89.7687C193.129,-92.5124 290.118,-96.7178 357.71,-99.6487"/>
<polygon fill="midnightblue" stroke="midnightblue" points="357.736,-103.153 367.878,-100.09 358.039,-96.1596 357.736,-103.153"/>
</g>
<!-- Node4 -->
<g id="node4" class="node"><title>Node4</title>
<g id="a_node4"><a xlink:href="classCSolver__TDMA.xhtml#adb33d54ac8591907073930707ff7cf66" target="_top" xlink:title="Entrada de dados. ">
<polygon fill="white" stroke="black" points="176,-50 176,-80 322,-80 322,-50 176,-50"/>
<text text-anchor="start" x="184" y="-68" font-family="Helvetica,sans-Serif" font-size="10.00">CSolver_TDMA::EntrarDados</text>
<text text-anchor="middle" x="249" y="-57" font-family="Helvetica,sans-Serif" font-size="10.00">Objeto</text>
</a>
</g>
</g>
<!-- Node1&#45;&gt;Node4 -->
<g id="edge4" class="edge"><title>Node1&#45;&gt;Node4</title>
<path fill="none" stroke="midnightblue" d="M129.655,-79.3055C141.347,-77.8921 153.703,-76.3985 165.847,-74.9306"/>
<polygon fill="midnightblue" stroke="midnightblue" points="166.471,-78.3807 175.979,-73.7058 165.631,-71.4313 166.471,-78.3807"/>
</g>
<!-- Node5 -->
<g id="node5" class="node"><title>Node5</title>
<g id="a_node5"><a xlink:href="classCMeioPoroso__Telha__Discretizada__TDMA.xhtml#aaec5a7e2f667ae2c8dccdafa5938aea9" target="_top" xlink:title="Entrada de dados. ">
<polygon fill="white" stroke="black" points="166.5,-1 166.5,-31 331.5,-31 331.5,-1 166.5,-1"/>
<text text-anchor="start" x="174.5" y="-19" font-family="Helvetica,sans-Serif" font-size="10.00">CMeioPoroso_Telha_Discretizada</text>
<text text-anchor="middle" x="249" y="-8" font-family="Helvetica,sans-Serif" font-size="10.00">_TDMA::EntrarDadosObjeto</text>
</a>
</g>
</g>
<!-- Node1&#45;&gt;Node5 -->
<g id="edge5" class="edge"><title>Node1&#45;&gt;Node5</title>
<path fill="none" stroke="midnightblue" d="M95.2361,-71.7913C114.904,-61.9275 141.602,-49.2404 166,-40 171.202,-38.0298 176.639,-36.1219 182.132,-34.3002"/>
<polygon fill="midnightblue" stroke="midnightblue" points="183.587,-37.509 192.038,-31.1195 181.447,-30.8441 183.587,-37.509"/>
</g>
<!-- Node3&#45;&gt;Node2 -->
<g id="edge3" class="edge"><title>Node3&#45;&gt;Node2</title>
<path fill="none" stroke="midnightblue" d="M504.084,-93.4784C512.787,-92.2431 521.669,-90.9825 530.279,-89.7603"/>
<polygon fill="midnightblue" stroke="midnightblue" points="530.827,-93.2178 540.236,-88.3472 529.843,-86.2873 530.827,-93.2178"/>
</g>
<!-- Node5&#45;&gt;Node2 -->
<g id="edge6" class="edge"><title>Node5&#45;&gt;Node2</title>
<path fill="none" stroke="midnightblue" d="M326.789,-31.0498C340.509,-33.7154 354.675,-36.4522 368,-39 422.918,-49.5005 485.46,-61.2061 530.476,-69.5868"/>
<polygon fill="midnightblue" stroke="midnightblue" points="529.906,-73.0408 540.378,-71.4292 531.187,-66.1589 529.906,-73.0408"/>
</g>
<!-- Node6 -->
<g id="node6" class="node"><title>Node6</title>
<g id="a_node6"><a xlink:href="classCMeioPoroso__Telha.xhtml#a70735fb3dc927168aca84bb0cecb0023" target="_top" xlink:title="Entrada de dados. ">
<polygon fill="white" stroke="black" points="380.5,-0 380.5,-30 491.5,-30 491.5,-0 380.5,-0"/>
<text text-anchor="start" x="388.5" y="-18" font-family="Helvetica,sans-Serif" font-size="10.00">CMeioPoroso_Telha::</text>
<text text-anchor="middle" x="436" y="-7" font-family="Helvetica,sans-Serif" font-size="10.00">EntrarDadosObjeto</text>
</a>
</g>
</g>
<!-- Node5&#45;&gt;Node6 -->
<g id="edge7" class="edge"><title>Node5&#45;&gt;Node6</title>
<path fill="none" stroke="midnightblue" d="M331.682,-15.5585C344.538,-15.489 357.676,-15.418 370.085,-15.3509"/>
<polygon fill="midnightblue" stroke="midnightblue" points="370.334,-18.8497 380.315,-15.2956 370.296,-11.8498 370.334,-18.8497"/>
</g>
<!-- Node6&#45;&gt;Node2 -->
<g id="edge8" class="edge"><title>Node6&#45;&gt;Node2</title>
<path fill="none" stroke="midnightblue" d="M472.56,-30.1417C499.031,-41.413 534.842,-56.6618 560.331,-67.5152"/>
<polygon fill="midnightblue" stroke="midnightblue" points="558.982,-70.7446 569.554,-71.4422 561.724,-64.3042 558.982,-70.7446"/>
</g>
</g>
</svg>
