<?xml version="1.0" encoding="UTF-8" standalone="no"?>
<!DOCTYPE svg PUBLIC "-//W3C//DTD SVG 1.1//EN"
 "http://www.w3.org/Graphics/SVG/1.1/DTD/svg11.dtd">
<!-- Generated by graphviz version 2.34.0 (20140110.0949)
 -->
<!-- Title: CSolver_TDMA::DadosDefault Pages: 1 -->
<svg width="778pt" height="38pt"
 viewBox="0.00 0.00 778.00 38.00" xmlns="http://www.w3.org/2000/svg" xmlns:xlink="http://www.w3.org/1999/xlink">
<g id="graph0" class="graph" transform="scale(1 1) rotate(0) translate(4 34)">
<title>CSolver_TDMA::DadosDefault</title>
<polygon fill="white" stroke="white" points="-4,4 -4,-34 774,-34 774,4 -4,4"/>
<!-- Node1 -->
<g id="node1" class="node"><title>Node1</title>
<polygon fill="#bfbfbf" stroke="black" points="0,-5.5 0,-24.5 152,-24.5 152,-5.5 0,-5.5"/>
<text text-anchor="middle" x="76" y="-12.5" font-family="Helvetica,sans-Serif" font-size="10.00">CSolver_TDMA::DadosDefault</text>
</g>
<!-- Node2 -->
<g id="node2" class="node"><title>Node2</title>
<g id="a_node2"><a xlink:href="classCSimulador__Telha.xhtml#aa2592b5ca7cce1ac595cc3a658a17c85" target="_top" xlink:title="Dados default. ">
<polygon fill="white" stroke="black" points="188.5,-5.5 188.5,-24.5 351.5,-24.5 351.5,-5.5 188.5,-5.5"/>
<text text-anchor="middle" x="270" y="-12.5" font-family="Helvetica,sans-Serif" font-size="10.00">CSimulador_Telha::DadosDefault</text>
</a>
</g>
</g>
<!-- Node1&#45;&gt;Node2 -->
<g id="edge1" class="edge"><title>Node1&#45;&gt;Node2</title>
<path fill="none" stroke="midnightblue" d="M162.175,-15C170.855,-15 179.654,-15 188.285,-15"/>
<polygon fill="midnightblue" stroke="midnightblue" points="162.057,-11.5001 152.057,-15 162.057,-18.5001 162.057,-11.5001"/>
</g>
<!-- Node3 -->
<g id="node3" class="node"><title>Node3</title>
<g id="a_node3"><a xlink:href="classCSimulador__Telha__GanhosEnergia.xhtml#a8fee41da2f0f78851be425a7d0cc106d" target="_top" xlink:title="Dados default. ">
<polygon fill="white" stroke="black" points="388.5,-0 388.5,-30 557.5,-30 557.5,-0 388.5,-0"/>
<text text-anchor="start" x="396.5" y="-18" font-family="Helvetica,sans-Serif" font-size="10.00">CSimulador_Telha_GanhosEnergia</text>
<text text-anchor="middle" x="473" y="-7" font-family="Helvetica,sans-Serif" font-size="10.00">::DadosDefault</text>
</a>
</g>
</g>
<!-- Node2&#45;&gt;Node3 -->
<g id="edge2" class="edge"><title>Node2&#45;&gt;Node3</title>
<path fill="none" stroke="midnightblue" d="M361.616,-15C370.544,-15 379.577,-15 388.429,-15"/>
<polygon fill="midnightblue" stroke="midnightblue" points="361.596,-11.5001 351.596,-15 361.596,-18.5001 361.596,-11.5001"/>
</g>
<!-- Node4 -->
<g id="node4" class="node"><title>Node4</title>
<g id="a_node4"><a xlink:href="classCSimulador__Telha__GanhosEnergia.xhtml#a57fee722f2205904797acbfb7332f178" target="_top" xlink:title="Construtor. ">
<polygon fill="white" stroke="black" points="594.5,-0 594.5,-30 769.5,-30 769.5,-0 594.5,-0"/>
<text text-anchor="start" x="602.5" y="-18" font-family="Helvetica,sans-Serif" font-size="10.00">CSimulador_Telha_GanhosEnergia</text>
<text text-anchor="middle" x="682" y="-7" font-family="Helvetica,sans-Serif" font-size="10.00">::CSimulador_Telha_GanhosEnergia</text>
</a>
</g>
</g>
<!-- Node3&#45;&gt;Node4 -->
<g id="edge3" class="edge"><title>Node3&#45;&gt;Node4</title>
<path fill="none" stroke="midnightblue" d="M567.61,-15C576.527,-15 585.543,-15 594.389,-15"/>
<polygon fill="midnightblue" stroke="midnightblue" points="567.598,-11.5001 557.598,-15 567.598,-18.5001 567.598,-11.5001"/>
</g>
</g>
</svg>
