<?xml version="1.0" encoding="UTF-8" standalone="no"?>
<!DOCTYPE svg PUBLIC "-//W3C//DTD SVG 1.1//EN"
 "http://www.w3.org/Graphics/SVG/1.1/DTD/svg11.dtd">
<!-- Generated by graphviz version 2.34.0 (20140110.0949)
 -->
<!-- Title: Gnuplot::Gnuplot Pages: 1 -->
<svg width="544pt" height="294pt"
 viewBox="0.00 0.00 544.00 294.00" xmlns="http://www.w3.org/2000/svg" xmlns:xlink="http://www.w3.org/1999/xlink">
<g id="graph0" class="graph" transform="scale(1 1) rotate(0) translate(4 290)">
<title>Gnuplot::Gnuplot</title>
<polygon fill="white" stroke="white" points="-4,4 -4,-290 540,-290 540,4 -4,4"/>
<!-- Node1 -->
<g id="node1" class="node"><title>Node1</title>
<polygon fill="#bfbfbf" stroke="black" points="0,-95.5 0,-114.5 90,-114.5 90,-95.5 0,-95.5"/>
<text text-anchor="middle" x="45" y="-102.5" font-family="Helvetica,sans-Serif" font-size="10.00">Gnuplot::Gnuplot</text>
</g>
<!-- Node2 -->
<g id="node2" class="node"><title>Node2</title>
<g id="a_node2"><a xlink:href="classGnuplot.xhtml#a08d1e4ec069ec1cb82bb96427d1e0d7f" target="_top" xlink:title="Cria arquivo temporario e retorna seu nome. Usa get_program_path(); e popen();. ">
<polygon fill="white" stroke="black" points="142.5,-228.5 142.5,-247.5 211.5,-247.5 211.5,-228.5 142.5,-228.5"/>
<text text-anchor="middle" x="177" y="-235.5" font-family="Helvetica,sans-Serif" font-size="10.00">Gnuplot::init</text>
</a>
</g>
</g>
<!-- Node1&#45;&gt;Node2 -->
<g id="edge1" class="edge"><title>Node1&#45;&gt;Node2</title>
<path fill="none" stroke="midnightblue" d="M55.3493,-114.565C77.1675,-136.887 131.687,-192.664 159.345,-220.961"/>
<polygon fill="midnightblue" stroke="midnightblue" points="156.892,-223.458 166.385,-228.163 161.898,-218.565 156.892,-223.458"/>
</g>
<!-- Node8 -->
<g id="node8" class="node"><title>Node8</title>
<g id="a_node8"><a xlink:href="classGnuplot.xhtml#aee30f21a00a4f31c8356a2ef1f0e26e3" target="_top" xlink:title="Plota valores de x,y,z a partir de vetores. ">
<polygon fill="white" stroke="black" points="130.5,-152.5 130.5,-171.5 223.5,-171.5 223.5,-152.5 130.5,-152.5"/>
<text text-anchor="middle" x="177" y="-159.5" font-family="Helvetica,sans-Serif" font-size="10.00">Gnuplot::plot_xyz</text>
</a>
</g>
</g>
<!-- Node1&#45;&gt;Node8 -->
<g id="edge7" class="edge"><title>Node1&#45;&gt;Node8</title>
<path fill="none" stroke="midnightblue" d="M67.7591,-114.541C88.8504,-123.788 121.058,-137.91 144.861,-148.347"/>
<polygon fill="midnightblue" stroke="midnightblue" points="143.606,-151.618 154.17,-152.428 146.417,-145.207 143.606,-151.618"/>
</g>
<!-- Node11 -->
<g id="node11" class="node"><title>Node11</title>
<g id="a_node11"><a xlink:href="classGnuplot.xhtml#acfdcda292650775ebed4683e8e1515b5" target="_top" xlink:title="Seta estilos de linhas (em alguns casos sao necessarias informacoes adicionais). lines, points, linespoints, impulses, dots, steps, fsteps, histeps, boxes, histograms, filledcurves. ">
<polygon fill="white" stroke="black" points="129,-0.5 129,-19.5 225,-19.5 225,-0.5 129,-0.5"/>
<text text-anchor="middle" x="177" y="-7.5" font-family="Helvetica,sans-Serif" font-size="10.00">Gnuplot::set_style</text>
</a>
</g>
</g>
<!-- Node1&#45;&gt;Node11 -->
<g id="edge12" class="edge"><title>Node1&#45;&gt;Node11</title>
<path fill="none" stroke="midnightblue" d="M53.9078,-95.3158C67.2737,-79.4948 95.838,-47.9712 126,-29 129.132,-27.0301 132.5,-25.2131 135.955,-23.5492"/>
<polygon fill="midnightblue" stroke="midnightblue" points="137.444,-26.7183 145.201,-19.5022 134.637,-20.3057 137.444,-26.7183"/>
</g>
<!-- Node12 -->
<g id="node12" class="node"><title>Node12</title>
<g id="a_node12"><a xlink:href="classGnuplot.xhtml#a58808028aec03a22b5c19693b14baeef" target="_top" xlink:title="Seta o rotulo (nome) do eixo x. ">
<polygon fill="white" stroke="black" points="280.5,-114.5 280.5,-133.5 381.5,-133.5 381.5,-114.5 280.5,-114.5"/>
<text text-anchor="middle" x="331" y="-121.5" font-family="Helvetica,sans-Serif" font-size="10.00">Gnuplot::set_xlabel</text>
</a>
</g>
</g>
<!-- Node1&#45;&gt;Node12 -->
<g id="edge13" class="edge"><title>Node1&#45;&gt;Node12</title>
<path fill="none" stroke="midnightblue" d="M90.0634,-107.948C138.365,-111.179 216.143,-116.383 269.991,-119.985"/>
<polygon fill="midnightblue" stroke="midnightblue" points="269.879,-123.486 280.09,-120.661 270.346,-116.501 269.879,-123.486"/>
</g>
<!-- Node13 -->
<g id="node13" class="node"><title>Node13</title>
<g id="a_node13"><a xlink:href="classGnuplot.xhtml#a7654b86e3873aec4c5101abb466fe4ab" target="_top" xlink:title="Seta o rotulo (nome) do eixo y. ">
<polygon fill="white" stroke="black" points="126.5,-76.5 126.5,-95.5 227.5,-95.5 227.5,-76.5 126.5,-76.5"/>
<text text-anchor="middle" x="177" y="-83.5" font-family="Helvetica,sans-Serif" font-size="10.00">Gnuplot::set_ylabel</text>
</a>
</g>
</g>
<!-- Node1&#45;&gt;Node13 -->
<g id="edge15" class="edge"><title>Node1&#45;&gt;Node13</title>
<path fill="none" stroke="midnightblue" d="M90.0121,-98.5675C98.468,-97.3316 107.455,-96.0181 116.309,-94.724"/>
<polygon fill="midnightblue" stroke="midnightblue" points="116.826,-98.1858 126.215,-93.2763 115.814,-91.2593 116.826,-98.1858"/>
</g>
<!-- Node14 -->
<g id="node14" class="node"><title>Node14</title>
<g id="a_node14"><a xlink:href="classGnuplot.xhtml#ab3206e715d20f05cc0dd1eec89ce8b07" target="_top" xlink:title="Seta o rotulo (nome) do eixo z. ">
<polygon fill="white" stroke="black" points="126.5,-38.5 126.5,-57.5 227.5,-57.5 227.5,-38.5 126.5,-38.5"/>
<text text-anchor="middle" x="177" y="-45.5" font-family="Helvetica,sans-Serif" font-size="10.00">Gnuplot::set_zlabel</text>
</a>
</g>
</g>
<!-- Node1&#45;&gt;Node14 -->
<g id="edge17" class="edge"><title>Node1&#45;&gt;Node14</title>
<path fill="none" stroke="midnightblue" d="M65.2007,-95.3461C81.284,-87.389 104.928,-75.9913 126,-67 130.513,-65.0742 135.294,-63.1338 140.039,-61.267"/>
<polygon fill="midnightblue" stroke="midnightblue" points="141.562,-64.431 149.632,-57.5666 139.043,-57.9 141.562,-64.431"/>
</g>
<!-- Node3 -->
<g id="node3" class="node"><title>Node3</title>
<g id="a_node3"><a xlink:href="classGnuplot.xhtml#a3a769e47861d74fa713070ecd857dd17" target="_top" xlink:title="Retorna verdadeiro se a path esta presente. ">
<polygon fill="white" stroke="black" points="264,-266.5 264,-285.5 398,-285.5 398,-266.5 264,-266.5"/>
<text text-anchor="middle" x="331" y="-273.5" font-family="Helvetica,sans-Serif" font-size="10.00">Gnuplot::get_program_path</text>
</a>
</g>
</g>
<!-- Node2&#45;&gt;Node3 -->
<g id="edge2" class="edge"><title>Node2&#45;&gt;Node3</title>
<path fill="none" stroke="midnightblue" d="M211.734,-246.433C232.381,-251.595 259.13,-258.282 281.965,-263.991"/>
<polygon fill="midnightblue" stroke="midnightblue" points="281.262,-267.423 291.813,-266.453 282.96,-260.632 281.262,-267.423"/>
</g>
<!-- Node6 -->
<g id="node6" class="node"><title>Node6</title>
<g id="a_node6"><a xlink:href="classGnuplot.xhtml#a356d2faaa79f08d13fec9718b776b28d" target="_top" xlink:title="Mostrar na tela ou escrever no arquivo, seta o tipo de terminal para terminal_std. ">
<polygon fill="white" stroke="black" points="271.5,-228.5 271.5,-247.5 390.5,-247.5 390.5,-228.5 271.5,-228.5"/>
<text text-anchor="middle" x="331" y="-235.5" font-family="Helvetica,sans-Serif" font-size="10.00">Gnuplot::showonscreen</text>
</a>
</g>
</g>
<!-- Node2&#45;&gt;Node6 -->
<g id="edge5" class="edge"><title>Node2&#45;&gt;Node6</title>
<path fill="none" stroke="midnightblue" d="M211.734,-238C226.356,-238 244.04,-238 261.226,-238"/>
<polygon fill="midnightblue" stroke="midnightblue" points="261.26,-241.5 271.26,-238 261.26,-234.5 261.26,-241.5"/>
</g>
<!-- Node4 -->
<g id="node4" class="node"><title>Node4</title>
<g id="a_node4"><a xlink:href="classGnuplot.xhtml#abc0f1d75cb78804a5b8efdfa4df582cd" target="_top" xlink:title="Checa se o arquivo existe. ">
<polygon fill="white" stroke="black" points="434.5,-190.5 434.5,-209.5 535.5,-209.5 535.5,-190.5 434.5,-190.5"/>
<text text-anchor="middle" x="485" y="-197.5" font-family="Helvetica,sans-Serif" font-size="10.00">Gnuplot::file_exists</text>
</a>
</g>
</g>
<!-- Node3&#45;&gt;Node4 -->
<g id="edge3" class="edge"><title>Node3&#45;&gt;Node4</title>
<path fill="none" stroke="midnightblue" d="M372.498,-266.456C381.096,-263.85 389.99,-260.701 398,-257 422.232,-245.804 447.395,-228.328 464.193,-215.677"/>
<polygon fill="midnightblue" stroke="midnightblue" points="466.362,-218.424 472.166,-209.56 462.101,-212.87 466.362,-218.424"/>
</g>
<!-- Node5 -->
<g id="node5" class="node"><title>Node5</title>
<g id="a_node5"><a xlink:href="CGnuplot_8cpp.xhtml#a999b660e008a191d56b4c01a09a38f45" target="_top" xlink:title="stringtok">
<polygon fill="white" stroke="black" points="458,-266.5 458,-285.5 512,-285.5 512,-266.5 458,-266.5"/>
<text text-anchor="middle" x="485" y="-273.5" font-family="Helvetica,sans-Serif" font-size="10.00">stringtok</text>
</a>
</g>
</g>
<!-- Node3&#45;&gt;Node5 -->
<g id="edge4" class="edge"><title>Node3&#45;&gt;Node5</title>
<path fill="none" stroke="midnightblue" d="M398.227,-276C415.223,-276 432.881,-276 447.726,-276"/>
<polygon fill="midnightblue" stroke="midnightblue" points="447.989,-279.5 457.989,-276 447.989,-272.5 447.989,-279.5"/>
</g>
<!-- Node7 -->
<g id="node7" class="node"><title>Node7</title>
<g id="a_node7"><a xlink:href="classGnuplot.xhtml#a07607803ede8dd5416906df0a1924fc5" target="_top" xlink:title="Envia comando para o gnuplot. ">
<polygon fill="white" stroke="black" points="447.5,-114.5 447.5,-133.5 522.5,-133.5 522.5,-114.5 447.5,-114.5"/>
<text text-anchor="middle" x="485" y="-121.5" font-family="Helvetica,sans-Serif" font-size="10.00">Gnuplot::cmd</text>
</a>
</g>
</g>
<!-- Node6&#45;&gt;Node7 -->
<g id="edge6" class="edge"><title>Node6&#45;&gt;Node7</title>
<path fill="none" stroke="midnightblue" d="M377.802,-228.423C384.851,-225.943 391.829,-222.849 398,-219 402.343,-216.291 444.906,-168.359 468.479,-141.64"/>
<polygon fill="midnightblue" stroke="midnightblue" points="471.407,-143.612 475.392,-133.795 466.155,-138.983 471.407,-143.612"/>
</g>
<!-- Node9 -->
<g id="node9" class="node"><title>Node9</title>
<g id="a_node9"><a xlink:href="classGnuplot.xhtml#a8ced9e766e0677b938178dafe9264ff7" target="_top" xlink:title="Cria arquivo temporario. ">
<polygon fill="white" stroke="black" points="272,-190.5 272,-209.5 390,-209.5 390,-190.5 272,-190.5"/>
<text text-anchor="middle" x="331" y="-197.5" font-family="Helvetica,sans-Serif" font-size="10.00">Gnuplot::create_tmpfile</text>
</a>
</g>
</g>
<!-- Node8&#45;&gt;Node9 -->
<g id="edge8" class="edge"><title>Node8&#45;&gt;Node9</title>
<path fill="none" stroke="midnightblue" d="M216.356,-171.589C236.324,-176.581 260.93,-182.732 282.133,-188.033"/>
<polygon fill="midnightblue" stroke="midnightblue" points="281.369,-191.45 291.92,-190.48 283.067,-184.659 281.369,-191.45"/>
</g>
<!-- Node10 -->
<g id="node10" class="node"><title>Node10</title>
<g id="a_node10"><a xlink:href="classGnuplot.xhtml#abd1c17c49fc59979a1143384c77c5b66" target="_top" xlink:title="Plota valores de x,y,z a partir de um arquivo de disco. ">
<polygon fill="white" stroke="black" points="278,-152.5 278,-171.5 384,-171.5 384,-152.5 278,-152.5"/>
<text text-anchor="middle" x="331" y="-159.5" font-family="Helvetica,sans-Serif" font-size="10.00">Gnuplot::plotfile_xyz</text>
</a>
</g>
</g>
<!-- Node8&#45;&gt;Node10 -->
<g id="edge9" class="edge"><title>Node8&#45;&gt;Node10</title>
<path fill="none" stroke="midnightblue" d="M223.605,-162C237.46,-162 252.928,-162 267.685,-162"/>
<polygon fill="midnightblue" stroke="midnightblue" points="267.758,-165.5 277.758,-162 267.758,-158.5 267.758,-165.5"/>
</g>
<!-- Node10&#45;&gt;Node4 -->
<g id="edge10" class="edge"><title>Node10&#45;&gt;Node4</title>
<path fill="none" stroke="midnightblue" d="M370.356,-171.589C390.324,-176.581 414.93,-182.732 436.133,-188.033"/>
<polygon fill="midnightblue" stroke="midnightblue" points="435.369,-191.45 445.92,-190.48 437.067,-184.659 435.369,-191.45"/>
</g>
<!-- Node10&#45;&gt;Node7 -->
<g id="edge11" class="edge"><title>Node10&#45;&gt;Node7</title>
<path fill="none" stroke="midnightblue" d="M370.356,-152.411C390.779,-147.305 416.055,-140.986 437.579,-135.605"/>
<polygon fill="midnightblue" stroke="midnightblue" points="438.637,-138.949 447.489,-133.128 436.939,-132.158 438.637,-138.949"/>
</g>
<!-- Node12&#45;&gt;Node7 -->
<g id="edge14" class="edge"><title>Node12&#45;&gt;Node7</title>
<path fill="none" stroke="midnightblue" d="M381.77,-124C399.575,-124 419.569,-124 437.121,-124"/>
<polygon fill="midnightblue" stroke="midnightblue" points="437.138,-127.5 447.138,-124 437.138,-120.5 437.138,-127.5"/>
</g>
<!-- Node13&#45;&gt;Node7 -->
<g id="edge16" class="edge"><title>Node13&#45;&gt;Node7</title>
<path fill="none" stroke="midnightblue" d="M227.588,-88.4192C272.322,-91.0433 339.83,-96.1017 398,-105 410.881,-106.97 424.716,-109.734 437.442,-112.545"/>
<polygon fill="midnightblue" stroke="midnightblue" points="436.845,-115.999 447.372,-114.795 438.392,-109.172 436.845,-115.999"/>
</g>
<!-- Node14&#45;&gt;Node7 -->
<g id="edge18" class="edge"><title>Node14&#45;&gt;Node7</title>
<path fill="none" stroke="midnightblue" d="M227.69,-53.4812C272.784,-59.235 340.773,-69.8683 398,-87 418.045,-93.0008 439.678,-102.323 456.232,-110.108"/>
<polygon fill="midnightblue" stroke="midnightblue" points="454.812,-113.309 465.342,-114.478 457.839,-106.997 454.812,-113.309"/>
</g>
</g>
</svg>
