<?xml version="1.0" encoding="UTF-8" standalone="no"?>
<!DOCTYPE svg PUBLIC "-//W3C//DTD SVG 1.1//EN"
 "http://www.w3.org/Graphics/SVG/1.1/DTD/svg11.dtd">
<!-- Generated by graphviz version 2.34.0 (20140110.0949)
 -->
<!-- Title: Gnuplot::Gnuplot Pages: 1 -->
<svg width="544pt" height="256pt"
 viewBox="0.00 0.00 544.00 256.00" xmlns="http://www.w3.org/2000/svg" xmlns:xlink="http://www.w3.org/1999/xlink">
<g id="graph0" class="graph" transform="scale(1 1) rotate(0) translate(4 252)">
<title>Gnuplot::Gnuplot</title>
<polygon fill="white" stroke="white" points="-4,4 -4,-252 540,-252 540,4 -4,4"/>
<!-- Node1 -->
<g id="node1" class="node"><title>Node1</title>
<polygon fill="#bfbfbf" stroke="black" points="0,-76.5 0,-95.5 90,-95.5 90,-76.5 0,-76.5"/>
<text text-anchor="middle" x="45" y="-83.5" font-family="Helvetica,sans-Serif" font-size="10.00">Gnuplot::Gnuplot</text>
</g>
<!-- Node2 -->
<g id="node2" class="node"><title>Node2</title>
<g id="a_node2"><a xlink:href="classGnuplot.xhtml#a08d1e4ec069ec1cb82bb96427d1e0d7f" target="_top" xlink:title="Cria arquivo temporario e retorna seu nome. Usa get_program_path(); e popen();. ">
<polygon fill="white" stroke="black" points="142.5,-190.5 142.5,-209.5 211.5,-209.5 211.5,-190.5 142.5,-190.5"/>
<text text-anchor="middle" x="177" y="-197.5" font-family="Helvetica,sans-Serif" font-size="10.00">Gnuplot::init</text>
</a>
</g>
</g>
<!-- Node1&#45;&gt;Node2 -->
<g id="edge1" class="edge"><title>Node1&#45;&gt;Node2</title>
<path fill="none" stroke="midnightblue" d="M57.0837,-95.7196C79.3418,-115.238 129.692,-159.391 157.198,-183.512"/>
<polygon fill="midnightblue" stroke="midnightblue" points="155.118,-186.343 164.944,-190.305 159.733,-181.08 155.118,-186.343"/>
</g>
<!-- Node8 -->
<g id="node8" class="node"><title>Node8</title>
<g id="a_node8"><a xlink:href="classGnuplot.xhtml#a9400d43204b9df62851c063aee604f0d" target="_top" xlink:title="Plota dados de um vector. ">
<polygon fill="white" stroke="black" points="135.5,-114.5 135.5,-133.5 218.5,-133.5 218.5,-114.5 135.5,-114.5"/>
<text text-anchor="middle" x="177" y="-121.5" font-family="Helvetica,sans-Serif" font-size="10.00">Gnuplot::plot_x</text>
</a>
</g>
</g>
<!-- Node1&#45;&gt;Node8 -->
<g id="edge7" class="edge"><title>Node1&#45;&gt;Node8</title>
<path fill="none" stroke="midnightblue" d="M78.8045,-95.589C95.2783,-100.404 115.443,-106.299 133.127,-111.468"/>
<polygon fill="midnightblue" stroke="midnightblue" points="132.626,-114.968 143.206,-114.414 134.59,-108.249 132.626,-114.968"/>
</g>
<!-- Node11 -->
<g id="node11" class="node"><title>Node11</title>
<g id="a_node11"><a xlink:href="classGnuplot.xhtml#acfdcda292650775ebed4683e8e1515b5" target="_top" xlink:title="Seta estilos de linhas (em alguns casos sao necessarias informacoes adicionais). lines, points, linespoints, impulses, dots, steps, fsteps, histeps, boxes, histograms, filledcurves. ">
<polygon fill="white" stroke="black" points="129,-0.5 129,-19.5 225,-19.5 225,-0.5 129,-0.5"/>
<text text-anchor="middle" x="177" y="-7.5" font-family="Helvetica,sans-Serif" font-size="10.00">Gnuplot::set_style</text>
</a>
</g>
</g>
<!-- Node1&#45;&gt;Node11 -->
<g id="edge12" class="edge"><title>Node1&#45;&gt;Node11</title>
<path fill="none" stroke="midnightblue" d="M59.5398,-76.4289C75.187,-65.5514 101.883,-47.5518 126,-34 132.091,-30.5773 138.746,-27.1667 145.156,-24.0363"/>
<polygon fill="midnightblue" stroke="midnightblue" points="146.762,-27.1483 154.278,-19.6817 143.746,-20.8312 146.762,-27.1483"/>
</g>
<!-- Node12 -->
<g id="node12" class="node"><title>Node12</title>
<g id="a_node12"><a xlink:href="classGnuplot.xhtml#a58808028aec03a22b5c19693b14baeef" target="_top" xlink:title="Seta o rotulo (nome) do eixo x. ">
<polygon fill="white" stroke="black" points="280.5,-38.5 280.5,-57.5 381.5,-57.5 381.5,-38.5 280.5,-38.5"/>
<text text-anchor="middle" x="331" y="-45.5" font-family="Helvetica,sans-Serif" font-size="10.00">Gnuplot::set_xlabel</text>
</a>
</g>
</g>
<!-- Node1&#45;&gt;Node12 -->
<g id="edge13" class="edge"><title>Node1&#45;&gt;Node12</title>
<path fill="none" stroke="midnightblue" d="M81.6247,-76.4079C95.4007,-72.9971 111.351,-69.4096 126,-67 174.211,-59.0701 229.417,-54.1799 270.231,-51.3504"/>
<polygon fill="midnightblue" stroke="midnightblue" points="270.542,-54.8375 280.285,-50.6749 270.072,-47.8533 270.542,-54.8375"/>
</g>
<!-- Node13 -->
<g id="node13" class="node"><title>Node13</title>
<g id="a_node13"><a xlink:href="classGnuplot.xhtml#a7654b86e3873aec4c5101abb466fe4ab" target="_top" xlink:title="Seta o rotulo (nome) do eixo y. ">
<polygon fill="white" stroke="black" points="126.5,-76.5 126.5,-95.5 227.5,-95.5 227.5,-76.5 126.5,-76.5"/>
<text text-anchor="middle" x="177" y="-83.5" font-family="Helvetica,sans-Serif" font-size="10.00">Gnuplot::set_ylabel</text>
</a>
</g>
</g>
<!-- Node1&#45;&gt;Node13 -->
<g id="edge15" class="edge"><title>Node1&#45;&gt;Node13</title>
<path fill="none" stroke="midnightblue" d="M90.0121,-86C98.3771,-86 107.262,-86 116.024,-86"/>
<polygon fill="midnightblue" stroke="midnightblue" points="116.215,-89.5001 126.215,-86 116.215,-82.5001 116.215,-89.5001"/>
</g>
<!-- Node3 -->
<g id="node3" class="node"><title>Node3</title>
<g id="a_node3"><a xlink:href="classGnuplot.xhtml#a3a769e47861d74fa713070ecd857dd17" target="_top" xlink:title="Retorna verdadeiro se a path esta presente. ">
<polygon fill="white" stroke="black" points="264,-228.5 264,-247.5 398,-247.5 398,-228.5 264,-228.5"/>
<text text-anchor="middle" x="331" y="-235.5" font-family="Helvetica,sans-Serif" font-size="10.00">Gnuplot::get_program_path</text>
</a>
</g>
</g>
<!-- Node2&#45;&gt;Node3 -->
<g id="edge2" class="edge"><title>Node2&#45;&gt;Node3</title>
<path fill="none" stroke="midnightblue" d="M211.734,-208.433C232.381,-213.595 259.13,-220.282 281.965,-225.991"/>
<polygon fill="midnightblue" stroke="midnightblue" points="281.262,-229.423 291.813,-228.453 282.96,-222.632 281.262,-229.423"/>
</g>
<!-- Node6 -->
<g id="node6" class="node"><title>Node6</title>
<g id="a_node6"><a xlink:href="classGnuplot.xhtml#a356d2faaa79f08d13fec9718b776b28d" target="_top" xlink:title="Mostrar na tela ou escrever no arquivo, seta o tipo de terminal para terminal_std. ">
<polygon fill="white" stroke="black" points="271.5,-190.5 271.5,-209.5 390.5,-209.5 390.5,-190.5 271.5,-190.5"/>
<text text-anchor="middle" x="331" y="-197.5" font-family="Helvetica,sans-Serif" font-size="10.00">Gnuplot::showonscreen</text>
</a>
</g>
</g>
<!-- Node2&#45;&gt;Node6 -->
<g id="edge5" class="edge"><title>Node2&#45;&gt;Node6</title>
<path fill="none" stroke="midnightblue" d="M211.734,-200C226.356,-200 244.04,-200 261.226,-200"/>
<polygon fill="midnightblue" stroke="midnightblue" points="261.26,-203.5 271.26,-200 261.26,-196.5 261.26,-203.5"/>
</g>
<!-- Node4 -->
<g id="node4" class="node"><title>Node4</title>
<g id="a_node4"><a xlink:href="classGnuplot.xhtml#abc0f1d75cb78804a5b8efdfa4df582cd" target="_top" xlink:title="Checa se o arquivo existe. ">
<polygon fill="white" stroke="black" points="434.5,-152.5 434.5,-171.5 535.5,-171.5 535.5,-152.5 434.5,-152.5"/>
<text text-anchor="middle" x="485" y="-159.5" font-family="Helvetica,sans-Serif" font-size="10.00">Gnuplot::file_exists</text>
</a>
</g>
</g>
<!-- Node3&#45;&gt;Node4 -->
<g id="edge3" class="edge"><title>Node3&#45;&gt;Node4</title>
<path fill="none" stroke="midnightblue" d="M372.498,-228.456C381.096,-225.85 389.99,-222.701 398,-219 422.232,-207.804 447.395,-190.328 464.193,-177.677"/>
<polygon fill="midnightblue" stroke="midnightblue" points="466.362,-180.424 472.166,-171.56 462.101,-174.87 466.362,-180.424"/>
</g>
<!-- Node5 -->
<g id="node5" class="node"><title>Node5</title>
<g id="a_node5"><a xlink:href="CGnuplot_8cpp.xhtml#a999b660e008a191d56b4c01a09a38f45" target="_top" xlink:title="stringtok">
<polygon fill="white" stroke="black" points="458,-228.5 458,-247.5 512,-247.5 512,-228.5 458,-228.5"/>
<text text-anchor="middle" x="485" y="-235.5" font-family="Helvetica,sans-Serif" font-size="10.00">stringtok</text>
</a>
</g>
</g>
<!-- Node3&#45;&gt;Node5 -->
<g id="edge4" class="edge"><title>Node3&#45;&gt;Node5</title>
<path fill="none" stroke="midnightblue" d="M398.227,-238C415.223,-238 432.881,-238 447.726,-238"/>
<polygon fill="midnightblue" stroke="midnightblue" points="447.989,-241.5 457.989,-238 447.989,-234.5 447.989,-241.5"/>
</g>
<!-- Node7 -->
<g id="node7" class="node"><title>Node7</title>
<g id="a_node7"><a xlink:href="classGnuplot.xhtml#a07607803ede8dd5416906df0a1924fc5" target="_top" xlink:title="Envia comando para o gnuplot. ">
<polygon fill="white" stroke="black" points="447.5,-95.5 447.5,-114.5 522.5,-114.5 522.5,-95.5 447.5,-95.5"/>
<text text-anchor="middle" x="485" y="-102.5" font-family="Helvetica,sans-Serif" font-size="10.00">Gnuplot::cmd</text>
</a>
</g>
</g>
<!-- Node6&#45;&gt;Node7 -->
<g id="edge6" class="edge"><title>Node6&#45;&gt;Node7</title>
<path fill="none" stroke="midnightblue" d="M377.379,-190.421C384.555,-187.936 391.684,-184.841 398,-181 417.878,-168.912 416.682,-158.534 434,-143 442.644,-135.247 452.749,-127.368 461.604,-120.809"/>
<polygon fill="midnightblue" stroke="midnightblue" points="463.913,-123.458 469.942,-114.745 459.796,-117.797 463.913,-123.458"/>
</g>
<!-- Node9 -->
<g id="node9" class="node"><title>Node9</title>
<g id="a_node9"><a xlink:href="classGnuplot.xhtml#a8ced9e766e0677b938178dafe9264ff7" target="_top" xlink:title="Cria arquivo temporario. ">
<polygon fill="white" stroke="black" points="272,-152.5 272,-171.5 390,-171.5 390,-152.5 272,-152.5"/>
<text text-anchor="middle" x="331" y="-159.5" font-family="Helvetica,sans-Serif" font-size="10.00">Gnuplot::create_tmpfile</text>
</a>
</g>
</g>
<!-- Node8&#45;&gt;Node9 -->
<g id="edge8" class="edge"><title>Node8&#45;&gt;Node9</title>
<path fill="none" stroke="midnightblue" d="M216.356,-133.589C236.324,-138.581 260.93,-144.732 282.133,-150.033"/>
<polygon fill="midnightblue" stroke="midnightblue" points="281.369,-153.45 291.92,-152.48 283.067,-146.659 281.369,-153.45"/>
</g>
<!-- Node10 -->
<g id="node10" class="node"><title>Node10</title>
<g id="a_node10"><a xlink:href="classGnuplot.xhtml#a4ca35415fa5560764597cfdfa46c6c40" target="_top" xlink:title="Plota dados de um arquivo de disco. ">
<polygon fill="white" stroke="black" points="283.5,-114.5 283.5,-133.5 378.5,-133.5 378.5,-114.5 283.5,-114.5"/>
<text text-anchor="middle" x="331" y="-121.5" font-family="Helvetica,sans-Serif" font-size="10.00">Gnuplot::plotfile_x</text>
</a>
</g>
</g>
<!-- Node8&#45;&gt;Node10 -->
<g id="edge9" class="edge"><title>Node8&#45;&gt;Node10</title>
<path fill="none" stroke="midnightblue" d="M218.733,-124C235.424,-124 255.031,-124 273.098,-124"/>
<polygon fill="midnightblue" stroke="midnightblue" points="273.236,-127.5 283.236,-124 273.236,-120.5 273.236,-127.5"/>
</g>
<!-- Node10&#45;&gt;Node4 -->
<g id="edge10" class="edge"><title>Node10&#45;&gt;Node4</title>
<path fill="none" stroke="midnightblue" d="M370.356,-133.589C390.324,-138.581 414.93,-144.732 436.133,-150.033"/>
<polygon fill="midnightblue" stroke="midnightblue" points="435.369,-153.45 445.92,-152.48 437.067,-146.659 435.369,-153.45"/>
</g>
<!-- Node10&#45;&gt;Node7 -->
<g id="edge11" class="edge"><title>Node10&#45;&gt;Node7</title>
<path fill="none" stroke="midnightblue" d="M378.845,-118.144C397.392,-115.826 418.67,-113.166 437.211,-110.849"/>
<polygon fill="midnightblue" stroke="midnightblue" points="437.707,-114.314 447.196,-109.601 436.839,-107.368 437.707,-114.314"/>
</g>
<!-- Node12&#45;&gt;Node7 -->
<g id="edge14" class="edge"><title>Node12&#45;&gt;Node7</title>
<path fill="none" stroke="midnightblue" d="M358.693,-57.5857C370.722,-61.9365 385.094,-67.1778 398,-72 415.244,-78.4431 434.368,-85.764 450.195,-91.8706"/>
<polygon fill="midnightblue" stroke="midnightblue" points="448.988,-95.1563 459.578,-95.4971 451.512,-88.6271 448.988,-95.1563"/>
</g>
<!-- Node13&#45;&gt;Node7 -->
<g id="edge16" class="edge"><title>Node13&#45;&gt;Node7</title>
<path fill="none" stroke="midnightblue" d="M227.504,-89.0738C285.308,-92.6629 380.214,-98.5558 436.945,-102.078"/>
<polygon fill="midnightblue" stroke="midnightblue" points="436.878,-105.581 447.076,-102.707 437.312,-98.5942 436.878,-105.581"/>
</g>
</g>
</svg>
