<?xml version="1.0" encoding="UTF-8" standalone="no"?>
<!DOCTYPE svg PUBLIC "-//W3C//DTD SVG 1.1//EN"
 "http://www.w3.org/Graphics/SVG/1.1/DTD/svg11.dtd">
<!-- Generated by graphviz version 2.34.0 (20140110.0949)
 -->
<!-- Title: Gnuplot Pages: 1 -->
<!--zoomable 750 -->
<svg id="main" version="1.1" xmlns="http://www.w3.org/2000/svg" xmlns:xlink="http://www.w3.org/1999/xlink" xml:space="preserve" onload="init(evt)">
<style type="text/css"><![CDATA[
.edge:hover path { stroke: red; }
.edge:hover polygon { stroke: red; fill: red; }
]]></style>
<script type="text/javascript"><![CDATA[
var edges = document.getElementsByTagName('g');
if (edges && edges.length) {
  for (var i=0;i<edges.length;i++) {
    if (edges[i].id.substr(0,4)=='edge') {
      edges[i].setAttribute('class','edge');
    }
  }
}
]]></script>
        <defs>
                <circle id="rim" cx="0" cy="0" r="7"/>
                <circle id="rim2" cx="0" cy="0" r="3.5"/>
                <g id="zoomPlus">
                        <use xlink:href="#rim" fill="#404040">
                                <set attributeName="fill" to="#808080" begin="zoomplus.mouseover" end="zoomplus.mouseout"/>
                        </use>
                        <path d="M-4,0h8M0,-4v8" fill="none" stroke="white" stroke-width="1.5" pointer-events="none"/>
                </g>
                <g id="zoomMin">
                        <use xlink:href="#rim" fill="#404040">
                                <set attributeName="fill" to="#808080" begin="zoomminus.mouseover" end="zoomminus.mouseout"/>
                        </use>
                        <path d="M-4,0h8" fill="none" stroke="white" stroke-width="1.5" pointer-events="none"/>
                </g>
                <g id="dirArrow">
                        <path fill="none" stroke="white" stroke-width="1.5" d="M0,-3.0v7 M-2.5,-0.5L0,-3.0L2.5,-0.5"/>
                </g>
               <g id="resetDef">
                       <use xlink:href="#rim2" fill="#404040">
                               <set attributeName="fill" to="#808080" begin="reset.mouseover" end="reset.mouseout"/>
                       </use>
               </g>
        </defs>

<script type="text/javascript">
var viewWidth = 489;
var viewHeight = 750;
var sectionId = 'dynsection-0';
</script>
<script xlink:href="svgpan.js"/>
<svg id="graph" class="graph">
<g id="viewport">
<title>Gnuplot</title>
<polygon fill="white" stroke="white" points="-4,4 -4,-746 485,-746 485,4 -4,4"/>
<!-- Node1 -->
<g id="node1" class="node"><title>Node1</title>
<polygon fill="#bfbfbf" stroke="black" points="103,-1 103,-311 213,-311 213,-1 103,-1"/>
<text text-anchor="middle" x="158" y="-299" font-family="Helvetica,sans-Serif" font-size="10.00">Gnuplot</text>
<polyline fill="none" stroke="black" points="103,-292 213,-292 "/>
<text text-anchor="start" x="111" y="-280" font-family="Helvetica,sans-Serif" font-size="10.00">&#45; fhidden3d</text>
<text text-anchor="start" x="111" y="-269" font-family="Helvetica,sans-Serif" font-size="10.00">&#45; ftitle</text>
<polyline fill="none" stroke="black" points="103,-262 213,-262 "/>
<text text-anchor="start" x="111" y="-250" font-family="Helvetica,sans-Serif" font-size="10.00">+ Gnuplot()</text>
<text text-anchor="start" x="111" y="-239" font-family="Helvetica,sans-Serif" font-size="10.00">+ Gnuplot()</text>
<text text-anchor="start" x="111" y="-228" font-family="Helvetica,sans-Serif" font-size="10.00">+ Gnuplot()</text>
<text text-anchor="start" x="111" y="-217" font-family="Helvetica,sans-Serif" font-size="10.00">+ Gnuplot()</text>
<text text-anchor="start" x="111" y="-206" font-family="Helvetica,sans-Serif" font-size="10.00">+ ~Gnuplot()</text>
<text text-anchor="start" x="111" y="-195" font-family="Helvetica,sans-Serif" font-size="10.00">+ cmd()</text>
<text text-anchor="start" x="111" y="-184" font-family="Helvetica,sans-Serif" font-size="10.00">+ Cmd()</text>
<text text-anchor="start" x="111" y="-173" font-family="Helvetica,sans-Serif" font-size="10.00">+ Command()</text>
<text text-anchor="start" x="111" y="-162" font-family="Helvetica,sans-Serif" font-size="10.00">+ operator&lt;&lt;()</text>
<text text-anchor="start" x="111" y="-151" font-family="Helvetica,sans-Serif" font-size="10.00">+ showonscreen()</text>
<text text-anchor="start" x="111" y="-140" font-family="Helvetica,sans-Serif" font-size="10.00">and 101 more...</text>
<text text-anchor="start" x="111" y="-129" font-family="Helvetica,sans-Serif" font-size="10.00">+ set_GNUPlotPath()</text>
<text text-anchor="start" x="111" y="-118" font-family="Helvetica,sans-Serif" font-size="10.00">+ Path()</text>
<text text-anchor="start" x="111" y="-107" font-family="Helvetica,sans-Serif" font-size="10.00">+ set_terminal_std()</text>
<text text-anchor="start" x="111" y="-96" font-family="Helvetica,sans-Serif" font-size="10.00">+ Terminal()</text>
<text text-anchor="start" x="111" y="-85" font-family="Helvetica,sans-Serif" font-size="10.00">&#45; init()</text>
<text text-anchor="start" x="111" y="-74" font-family="Helvetica,sans-Serif" font-size="10.00">&#45; Init()</text>
<text text-anchor="start" x="111" y="-63" font-family="Helvetica,sans-Serif" font-size="10.00">&#45; create_tmpfile()</text>
<text text-anchor="start" x="111" y="-52" font-family="Helvetica,sans-Serif" font-size="10.00">&#45; CreateTmpFile()</text>
<text text-anchor="start" x="111" y="-41" font-family="Helvetica,sans-Serif" font-size="10.00">&#45; get_program_path()</text>
<text text-anchor="start" x="111" y="-30" font-family="Helvetica,sans-Serif" font-size="10.00">&#45; Path()</text>
<text text-anchor="start" x="111" y="-19" font-family="Helvetica,sans-Serif" font-size="10.00">&#45; file_exists()</text>
<text text-anchor="start" x="111" y="-8" font-family="Helvetica,sans-Serif" font-size="10.00">&#45; FileExists()</text>
</g>
<!-- Node2 -->
<g id="node2" class="node"><title>Node2</title>
<polygon fill="white" stroke="#bfbfbf" points="0,-470.5 0,-527.5 44,-527.5 44,-470.5 0,-470.5"/>
<text text-anchor="middle" x="22" y="-515.5" font-family="Helvetica,sans-Serif" font-size="10.00">FILE *</text>
<polyline fill="none" stroke="#bfbfbf" points="0,-508.5 44,-508.5 "/>
<text text-anchor="middle" x="22" y="-496.5" font-family="Helvetica,sans-Serif" font-size="10.00"> </text>
<polyline fill="none" stroke="#bfbfbf" points="0,-489.5 44,-489.5 "/>
<text text-anchor="middle" x="22" y="-477.5" font-family="Helvetica,sans-Serif" font-size="10.00"> </text>
</g>
<!-- Node2&#45;&gt;Node1 -->
<g id="edge1" class="edge"><title>Node2&#45;&gt;Node1</title>
<path fill="none" stroke="#404040" d="M19.9501,-470.292C18.3986,-436.194 18.901,-377.036 36,-330 49.3117,-293.382 72.5209,-257.423 95.1469,-227.858"/>
<polygon fill="none" stroke="#404040" points="95.3946,-227.541 95.9366,-220.35 102.783,-218.085 102.241,-225.276 95.3946,-227.541"/>
<text text-anchor="middle" x="56.5" y="-388.5" font-family="Helvetica,sans-Serif" font-size="10.00"> &#45;gnucmd</text>
</g>
<!-- Node3 -->
<g id="node3" class="node"><title>Node3</title>
<polygon fill="white" stroke="#bfbfbf" points="71.5,-470.5 71.5,-527.5 100.5,-527.5 100.5,-470.5 71.5,-470.5"/>
<text text-anchor="middle" x="86" y="-515.5" font-family="Helvetica,sans-Serif" font-size="10.00">int</text>
<polyline fill="none" stroke="#bfbfbf" points="71.5,-508.5 100.5,-508.5 "/>
<text text-anchor="middle" x="86" y="-496.5" font-family="Helvetica,sans-Serif" font-size="10.00"> </text>
<polyline fill="none" stroke="#bfbfbf" points="71.5,-489.5 100.5,-489.5 "/>
<text text-anchor="middle" x="86" y="-477.5" font-family="Helvetica,sans-Serif" font-size="10.00"> </text>
</g>
<!-- Node3&#45;&gt;Node1 -->
<g id="edge2" class="edge"><title>Node3&#45;&gt;Node1</title>
<path fill="none" stroke="#404040" d="M82.9655,-470.32C80.0157,-436.75 77.261,-378.618 87,-330 89.9183,-315.431 94.0623,-300.543 98.9005,-285.914"/>
<polygon fill="none" stroke="#404040" points="99.0106,-285.594 97.1831,-278.619 102.919,-274.249 104.747,-281.224 99.0106,-285.594"/>
<text text-anchor="middle" x="115.5" y="-394" font-family="Helvetica,sans-Serif" font-size="10.00"> &#45;nplots</text>
<text text-anchor="middle" x="115.5" y="-383" font-family="Helvetica,sans-Serif" font-size="10.00">&#45;tmpfile_num</text>
</g>
<!-- Node4 -->
<g id="node4" class="node"><title>Node4</title>
<g id="a_node4"><a xlink:title="STL class. ">
<polygon fill="white" stroke="#bfbfbf" points="183,-576.5 183,-633.5 243,-633.5 243,-576.5 183,-576.5"/>
<text text-anchor="middle" x="213" y="-621.5" font-family="Helvetica,sans-Serif" font-size="10.00">std::string</text>
<polyline fill="none" stroke="#bfbfbf" points="183,-614.5 243,-614.5 "/>
<text text-anchor="middle" x="213" y="-602.5" font-family="Helvetica,sans-Serif" font-size="10.00"> </text>
<polyline fill="none" stroke="#bfbfbf" points="183,-595.5 243,-595.5 "/>
<text text-anchor="middle" x="213" y="-583.5" font-family="Helvetica,sans-Serif" font-size="10.00"> </text>
</a>
</g>
</g>
<!-- Node4&#45;&gt;Node1 -->
<g id="edge3" class="edge"><title>Node4&#45;&gt;Node1</title>
<path fill="none" stroke="#404040" d="M191.518,-576.433C182.104,-562.684 172.061,-545.321 167,-528 155.936,-490.132 153.398,-403.595 153.76,-323.617"/>
<polygon fill="none" stroke="#404040" points="153.762,-323.36 149.8,-317.334 153.838,-311.36 157.8,-317.385 153.762,-323.36"/>
<text text-anchor="middle" x="220.5" y="-518.5" font-family="Helvetica,sans-Serif" font-size="10.00"> &#45;m_sGNUPlotFileName</text>
<text text-anchor="middle" x="220.5" y="-507.5" font-family="Helvetica,sans-Serif" font-size="10.00">&#45;m_sGNUPlotPath</text>
<text text-anchor="middle" x="220.5" y="-496.5" font-family="Helvetica,sans-Serif" font-size="10.00">&#45;terminal_std</text>
<text text-anchor="middle" x="220.5" y="-485.5" font-family="Helvetica,sans-Serif" font-size="10.00">&#45;smooth</text>
<text text-anchor="middle" x="220.5" y="-474.5" font-family="Helvetica,sans-Serif" font-size="10.00">&#45;pstyle</text>
</g>
<!-- Node7 -->
<g id="node7" class="node"><title>Node7</title>
<polygon fill="white" stroke="#bfbfbf" points="283.5,-470.5 283.5,-527.5 408.5,-527.5 408.5,-470.5 283.5,-470.5"/>
<text text-anchor="middle" x="346" y="-515.5" font-family="Helvetica,sans-Serif" font-size="10.00">std::vector&lt; std::string &gt;</text>
<polyline fill="none" stroke="#bfbfbf" points="283.5,-508.5 408.5,-508.5 "/>
<text text-anchor="middle" x="346" y="-496.5" font-family="Helvetica,sans-Serif" font-size="10.00"> </text>
<polyline fill="none" stroke="#bfbfbf" points="283.5,-489.5 408.5,-489.5 "/>
<text text-anchor="middle" x="346" y="-477.5" font-family="Helvetica,sans-Serif" font-size="10.00"> </text>
</g>
<!-- Node4&#45;&gt;Node7 -->
<g id="edge7" class="edge"><title>Node4&#45;&gt;Node7</title>
<path fill="none" stroke="#404040" d="M243.18,-580.401C260.279,-567.03 282,-550.045 301.068,-535.134"/>
<polygon fill="none" stroke="#404040" points="301.306,-534.948 303.569,-528.102 310.759,-527.557 308.497,-534.404 301.306,-534.948"/>
<text text-anchor="middle" x="308.5" y="-549.5" font-family="Helvetica,sans-Serif" font-size="10.00"> +elements</text>
</g>
<!-- Node5 -->
<g id="node5" class="node"><title>Node5</title>
<g id="a_node5"><a xlink:title="STL class. ">
<polygon fill="white" stroke="#bfbfbf" points="165.5,-673 165.5,-741 260.5,-741 260.5,-673 165.5,-673"/>
<text text-anchor="start" x="173.5" y="-729" font-family="Helvetica,sans-Serif" font-size="10.00">std::basic_string&lt;</text>
<text text-anchor="middle" x="213" y="-718" font-family="Helvetica,sans-Serif" font-size="10.00"> char &gt;</text>
<polyline fill="none" stroke="#bfbfbf" points="165.5,-711 260.5,-711 "/>
<text text-anchor="middle" x="213" y="-699" font-family="Helvetica,sans-Serif" font-size="10.00"> </text>
<polyline fill="none" stroke="#bfbfbf" points="165.5,-692 260.5,-692 "/>
<text text-anchor="middle" x="213" y="-680" font-family="Helvetica,sans-Serif" font-size="10.00"> </text>
</a>
</g>
</g>
<!-- Node5&#45;&gt;Node4 -->
<g id="edge4" class="edge"><title>Node5&#45;&gt;Node4</title>
<path fill="none" stroke="midnightblue" d="M213,-662.857C213,-652.952 213,-642.682 213,-633.64"/>
<polygon fill="none" stroke="midnightblue" points="209.5,-662.979 213,-672.979 216.5,-662.979 209.5,-662.979"/>
</g>
<!-- Node6 -->
<g id="node6" class="node"><title>Node6</title>
<polygon fill="white" stroke="#bfbfbf" points="426.5,-470.5 426.5,-527.5 461.5,-527.5 461.5,-470.5 426.5,-470.5"/>
<text text-anchor="middle" x="444" y="-515.5" font-family="Helvetica,sans-Serif" font-size="10.00">bool</text>
<polyline fill="none" stroke="#bfbfbf" points="426.5,-508.5 461.5,-508.5 "/>
<text text-anchor="middle" x="444" y="-496.5" font-family="Helvetica,sans-Serif" font-size="10.00"> </text>
<polyline fill="none" stroke="#bfbfbf" points="426.5,-489.5 461.5,-489.5 "/>
<text text-anchor="middle" x="444" y="-477.5" font-family="Helvetica,sans-Serif" font-size="10.00"> </text>
</g>
<!-- Node6&#45;&gt;Node1 -->
<g id="edge5" class="edge"><title>Node6&#45;&gt;Node1</title>
<path fill="none" stroke="#404040" d="M437.68,-470.204C428.658,-434.958 409.478,-373.545 377,-330 335.438,-274.276 271.676,-226.674 223.651,-195.593"/>
<polygon fill="none" stroke="#404040" points="223.466,-195.474 216.256,-195.62 213.349,-189.021 220.559,-188.875 223.466,-195.474"/>
<text text-anchor="middle" x="457" y="-443.5" font-family="Helvetica,sans-Serif" font-size="10.00"> &#45;fsmooth</text>
<text text-anchor="middle" x="457" y="-432.5" font-family="Helvetica,sans-Serif" font-size="10.00">&#45;fzlogscale</text>
<text text-anchor="middle" x="457" y="-421.5" font-family="Helvetica,sans-Serif" font-size="10.00">&#45;fcontour</text>
<text text-anchor="middle" x="457" y="-410.5" font-family="Helvetica,sans-Serif" font-size="10.00">&#45;fylogscale</text>
<text text-anchor="middle" x="457" y="-399.5" font-family="Helvetica,sans-Serif" font-size="10.00">&#45;two_dim</text>
<text text-anchor="middle" x="457" y="-388.5" font-family="Helvetica,sans-Serif" font-size="10.00">&#45;fxlogscale</text>
<text text-anchor="middle" x="457" y="-377.5" font-family="Helvetica,sans-Serif" font-size="10.00">&#45;valid</text>
<text text-anchor="middle" x="457" y="-366.5" font-family="Helvetica,sans-Serif" font-size="10.00">&#45;fgrid</text>
<text text-anchor="middle" x="457" y="-355.5" font-family="Helvetica,sans-Serif" font-size="10.00">&#45;fsurface</text>
<text text-anchor="middle" x="457" y="-344.5" font-family="Helvetica,sans-Serif" font-size="10.00">&#45;flegend</text>
<text text-anchor="middle" x="457" y="-333.5" font-family="Helvetica,sans-Serif" font-size="10.00">...</text>
</g>
<!-- Node7&#45;&gt;Node1 -->
<g id="edge6" class="edge"><title>Node7&#45;&gt;Node1</title>
<path fill="none" stroke="#404040" d="M330.774,-470.383C306.704,-426.723 258.549,-339.379 219.179,-267.968"/>
<polygon fill="none" stroke="#404040" points="218.983,-267.613 212.584,-264.29 213.19,-257.105 219.589,-260.428 218.983,-267.613"/>
<text text-anchor="middle" x="346" y="-388.5" font-family="Helvetica,sans-Serif" font-size="10.00"> &#45;tmpfile_list</text>
</g>
</g>
</svg>
        <g id="navigator" transform="translate(0 0)" fill="#404254">
                <rect fill="#f2f5e9" fill-opacity="0.5" stroke="#606060" stroke-width=".5" x="0" y="0" width="60" height="60"/>
                <use id="zoomplus" xlink:href="#zoomPlus" x="17" y="9" onmousedown="handleZoom(evt,'in')"/>
                <use id="zoomminus" xlink:href="#zoomMin" x="42" y="9" onmousedown="handleZoom(evt,'out')"/>
                <use id="reset" xlink:href="#resetDef" x="30" y="36" onmousedown="handleReset()"/>
                <g id="arrowUp" xlink:href="#dirArrow" transform="translate(30 24)" onmousedown="handlePan(0,-1)">
                  <use xlink:href="#rim" fill="#404040">
                        <set attributeName="fill" to="#808080" begin="arrowUp.mouseover" end="arrowUp.mouseout"/>
                  </use>
                  <path fill="none" stroke="white" stroke-width="1.5" d="M0,-3.0v7 M-2.5,-0.5L0,-3.0L2.5,-0.5"/>
                </g>
                <g id="arrowRight" xlink:href="#dirArrow" transform="rotate(90) translate(36 -43)" onmousedown="handlePan(1,0)">
                  <use xlink:href="#rim" fill="#404040">
                        <set attributeName="fill" to="#808080" begin="arrowRight.mouseover" end="arrowRight.mouseout"/>
                  </use>
                  <path fill="none" stroke="white" stroke-width="1.5" d="M0,-3.0v7 M-2.5,-0.5L0,-3.0L2.5,-0.5"/>
                </g>
                <g id="arrowDown" xlink:href="#dirArrow" transform="rotate(180) translate(-30 -48)" onmousedown="handlePan(0,1)">
                  <use xlink:href="#rim" fill="#404040">
                        <set attributeName="fill" to="#808080" begin="arrowDown.mouseover" end="arrowDown.mouseout"/>
                  </use>
                  <path fill="none" stroke="white" stroke-width="1.5" d="M0,-3.0v7 M-2.5,-0.5L0,-3.0L2.5,-0.5"/>
                </g>
                <g id="arrowLeft" xlink:href="#dirArrow" transform="rotate(270) translate(-36 17)" onmousedown="handlePan(-1,0)">
                  <use xlink:href="#rim" fill="#404040">
                        <set attributeName="fill" to="#808080" begin="arrowLeft.mouseover" end="arrowLeft.mouseout"/>
                  </use>
                  <path fill="none" stroke="white" stroke-width="1.5" d="M0,-3.0v7 M-2.5,-0.5L0,-3.0L2.5,-0.5"/>
                </g>
        </g>
        <svg viewBox="0 0 15 15" width="100%" height="30px" preserveAspectRatio="xMaxYMin meet">
         <g id="arrow_out" transform="scale(0.3 0.3)">
          <a xlink:href="classGnuplot__coll__graph_org.svg" target="_base">
           <rect id="button" ry="5" rx="5" y="6" x="6" height="38" width="38"
                fill="#f2f5e9" fill-opacity="0.5" stroke="#606060" stroke-width="1.0"/>
           <path id="arrow"
             d="M 11.500037,31.436501 C 11.940474,20.09759 22.043105,11.32322 32.158766,21.979434 L 37.068811,17.246167 C 37.068811,17.246167 37.088388,32 37.088388,32 L 22.160133,31.978069 C 22.160133,31.978069 26.997745,27.140456 26.997745,27.140456 C 18.528582,18.264221 13.291696,25.230495 11.500037,31.436501 z"
             style="fill:#404040;"/>
          </a>
         </g>
        </svg>
</svg>
