<?xml version="1.0" encoding="UTF-8" standalone="no"?>
<!DOCTYPE svg PUBLIC "-//W3C//DTD SVG 1.1//EN"
 "http://www.w3.org/Graphics/SVG/1.1/DTD/svg11.dtd">
<!-- Generated by graphviz version 2.34.0 (20140110.0949)
 -->
<!-- Title: CFuncoesClima Pages: 1 -->
<svg width="236pt" height="426pt"
 viewBox="0.00 0.00 236.00 426.00" xmlns="http://www.w3.org/2000/svg" xmlns:xlink="http://www.w3.org/1999/xlink">
<g id="graph0" class="graph" transform="scale(1 1) rotate(0) translate(4 422)">
<title>CFuncoesClima</title>
<polygon fill="white" stroke="white" points="-4,4 -4,-422 232,-422 232,4 -4,4"/>
<!-- Node1 -->
<g id="node1" class="node"><title>Node1</title>
<polygon fill="#bfbfbf" stroke="black" points="6,-1 6,-201 140,-201 140,-1 6,-1"/>
<text text-anchor="middle" x="73" y="-189" font-family="Helvetica,sans-Serif" font-size="10.00">CFuncoesClima</text>
<polyline fill="none" stroke="black" points="6,-182 140,-182 "/>
<text text-anchor="start" x="14" y="-170" font-family="Helvetica,sans-Serif" font-size="10.00"># text</text>
<text text-anchor="start" x="14" y="-159" font-family="Helvetica,sans-Serif" font-size="10.00"># tint</text>
<text text-anchor="start" x="14" y="-148" font-family="Helvetica,sans-Serif" font-size="10.00"># rove</text>
<polyline fill="none" stroke="black" points="6,-141 140,-141 "/>
<text text-anchor="start" x="14" y="-129" font-family="Helvetica,sans-Serif" font-size="10.00">+ CFuncoesClima()</text>
<text text-anchor="start" x="14" y="-118" font-family="Helvetica,sans-Serif" font-size="10.00">+ ~CFuncoesClima()</text>
<text text-anchor="start" x="14" y="-107" font-family="Helvetica,sans-Serif" font-size="10.00">+ DadosDefault()</text>
<text text-anchor="start" x="14" y="-96" font-family="Helvetica,sans-Serif" font-size="10.00">+ EntrarDadosObjeto()</text>
<text text-anchor="start" x="14" y="-85" font-family="Helvetica,sans-Serif" font-size="10.00">+ ExecutarFuncoesClima()</text>
<text text-anchor="start" x="14" y="-74" font-family="Helvetica,sans-Serif" font-size="10.00">+ operator()()</text>
<text text-anchor="start" x="14" y="-63" font-family="Helvetica,sans-Serif" font-size="10.00">&#45; TemperaturaExterna()</text>
<text text-anchor="start" x="14" y="-52" font-family="Helvetica,sans-Serif" font-size="10.00">&#45; TemperaturaInterna()</text>
<text text-anchor="start" x="14" y="-41" font-family="Helvetica,sans-Serif" font-size="10.00">&#45; UmidadeExterna()</text>
<text text-anchor="start" x="14" y="-30" font-family="Helvetica,sans-Serif" font-size="10.00">&#45; UmidadeInterna()</text>
<text text-anchor="start" x="14" y="-19" font-family="Helvetica,sans-Serif" font-size="10.00">&#45; RadiacaoOndaCurta()</text>
<text text-anchor="start" x="14" y="-8" font-family="Helvetica,sans-Serif" font-size="10.00">&#45; RadiacaoOndaLonga()</text>
</g>
<!-- Node2 -->
<g id="node2" class="node"><title>Node2</title>
<polygon fill="white" stroke="#bfbfbf" points="-0.5,-360.5 -0.5,-417.5 44.5,-417.5 44.5,-360.5 -0.5,-360.5"/>
<text text-anchor="middle" x="22" y="-405.5" font-family="Helvetica,sans-Serif" font-size="10.00">double</text>
<polyline fill="none" stroke="#bfbfbf" points="-0.5,-398.5 44.5,-398.5 "/>
<text text-anchor="middle" x="22" y="-386.5" font-family="Helvetica,sans-Serif" font-size="10.00"> </text>
<polyline fill="none" stroke="#bfbfbf" points="-0.5,-379.5 44.5,-379.5 "/>
<text text-anchor="middle" x="22" y="-367.5" font-family="Helvetica,sans-Serif" font-size="10.00"> </text>
</g>
<!-- Node2&#45;&gt;Node1 -->
<g id="edge1" class="edge"><title>Node2&#45;&gt;Node1</title>
<path fill="none" stroke="#404040" d="M18.8721,-360.301C15.8304,-326.712 12.9853,-268.562 23,-220 23.4803,-217.671 24.0076,-215.331 24.5772,-212.985"/>
<polygon fill="none" stroke="#404040" points="24.6246,-212.809 22.3286,-205.973 27.7554,-201.224 30.0515,-208.06 24.6246,-212.809"/>
<text text-anchor="middle" x="62.5" y="-333.5" font-family="Helvetica,sans-Serif" font-size="10.00"> #horaInicioChuva</text>
<text text-anchor="middle" x="62.5" y="-322.5" font-family="Helvetica,sans-Serif" font-size="10.00">#radoc</text>
<text text-anchor="middle" x="62.5" y="-311.5" font-family="Helvetica,sans-Serif" font-size="10.00">#rovi</text>
<text text-anchor="middle" x="62.5" y="-300.5" font-family="Helvetica,sans-Serif" font-size="10.00">#retardo</text>
<text text-anchor="middle" x="62.5" y="-289.5" font-family="Helvetica,sans-Serif" font-size="10.00">#hint</text>
<text text-anchor="middle" x="62.5" y="-278.5" font-family="Helvetica,sans-Serif" font-size="10.00">#precipitacao</text>
<text text-anchor="middle" x="62.5" y="-267.5" font-family="Helvetica,sans-Serif" font-size="10.00">#horaFimChuva</text>
<text text-anchor="middle" x="62.5" y="-256.5" font-family="Helvetica,sans-Serif" font-size="10.00">#amortecimento</text>
<text text-anchor="middle" x="62.5" y="-245.5" font-family="Helvetica,sans-Serif" font-size="10.00">#radol</text>
<text text-anchor="middle" x="62.5" y="-234.5" font-family="Helvetica,sans-Serif" font-size="10.00">#hext</text>
<text text-anchor="middle" x="62.5" y="-223.5" font-family="Helvetica,sans-Serif" font-size="10.00">...</text>
</g>
<!-- Node3 -->
<g id="node3" class="node"><title>Node3</title>
<polygon fill="white" stroke="#bfbfbf" points="106.5,-360.5 106.5,-417.5 141.5,-417.5 141.5,-360.5 106.5,-360.5"/>
<text text-anchor="middle" x="124" y="-405.5" font-family="Helvetica,sans-Serif" font-size="10.00">char</text>
<polyline fill="none" stroke="#bfbfbf" points="106.5,-398.5 141.5,-398.5 "/>
<text text-anchor="middle" x="124" y="-386.5" font-family="Helvetica,sans-Serif" font-size="10.00"> </text>
<polyline fill="none" stroke="#bfbfbf" points="106.5,-379.5 141.5,-379.5 "/>
<text text-anchor="middle" x="124" y="-367.5" font-family="Helvetica,sans-Serif" font-size="10.00"> </text>
</g>
<!-- Node3&#45;&gt;Node1 -->
<g id="edge2" class="edge"><title>Node3&#45;&gt;Node1</title>
<path fill="none" stroke="#404040" d="M121.344,-360.5C117.902,-327.106 111.228,-269.148 102,-220 101.569,-217.706 101.122,-215.391 100.66,-213.059"/>
<polygon fill="none" stroke="#404040" points="100.658,-213.05 95.5294,-207.98 98.2365,-201.297 103.365,-206.366 100.658,-213.05"/>
<text text-anchor="middle" x="173.5" y="-289.5" font-family="Helvetica,sans-Serif" font-size="10.00"> #respHumidadeExterna</text>
<text text-anchor="middle" x="173.5" y="-278.5" font-family="Helvetica,sans-Serif" font-size="10.00">#respTemperaturaInterna</text>
<text text-anchor="middle" x="173.5" y="-267.5" font-family="Helvetica,sans-Serif" font-size="10.00">#respHumidadeInterna</text>
</g>
</g>
</svg>
