<?xml version="1.0" encoding="UTF-8" standalone="no"?>
<!DOCTYPE svg PUBLIC "-//W3C//DTD SVG 1.1//EN"
 "http://www.w3.org/Graphics/SVG/1.1/DTD/svg11.dtd">
<!-- Generated by graphviz version 2.34.0 (20140110.0949)
 -->
<!-- Title: Gnuplot::set_contour Pages: 1 -->
<svg width="244pt" height="66pt"
 viewBox="0.00 0.00 244.00 66.00" xmlns="http://www.w3.org/2000/svg" xmlns:xlink="http://www.w3.org/1999/xlink">
<g id="graph0" class="graph" transform="scale(1 1) rotate(0) translate(4 62)">
<title>Gnuplot::set_contour</title>
<polygon fill="white" stroke="white" points="-4,4 -4,-62 240,-62 240,4 -4,4"/>
<!-- Node1 -->
<g id="node1" class="node"><title>Node1</title>
<polygon fill="#bfbfbf" stroke="black" points="0.5,-19.5 0.5,-38.5 107.5,-38.5 107.5,-19.5 0.5,-19.5"/>
<text text-anchor="middle" x="54" y="-26.5" font-family="Helvetica,sans-Serif" font-size="10.00">Gnuplot::set_contour</text>
</g>
<!-- Node2 -->
<g id="node2" class="node"><title>Node2</title>
<g id="a_node2"><a xlink:href="classGnuplot.xhtml#a826a0f860cd984748f8c7ee80228fce7" target="_top" xlink:title="Ativa/Desativa desenho do contorno em superficies (para plotagen 3d). ">
<polygon fill="white" stroke="black" points="144.5,-38.5 144.5,-57.5 235.5,-57.5 235.5,-38.5 144.5,-38.5"/>
<text text-anchor="middle" x="190" y="-45.5" font-family="Helvetica,sans-Serif" font-size="10.00">Gnuplot::Contour</text>
</a>
</g>
</g>
<!-- Node1&#45;&gt;Node2 -->
<g id="edge1" class="edge"><title>Node1&#45;&gt;Node2</title>
<path fill="none" stroke="midnightblue" d="M117.675,-37.8867C126.69,-39.165 135.81,-40.4581 144.378,-41.6731"/>
<polygon fill="midnightblue" stroke="midnightblue" points="117.968,-34.3934 107.576,-36.4548 116.985,-41.3241 117.968,-34.3934"/>
</g>
<!-- Node3 -->
<g id="node3" class="node"><title>Node3</title>
<g id="a_node3"><a xlink:href="classGnuplot.xhtml#a9eaf8050edfad9d926d41b102d2f24cb" target="_top" xlink:title="Gnuplot::Smooth">
<polygon fill="white" stroke="black" points="145,-0.5 145,-19.5 235,-19.5 235,-0.5 145,-0.5"/>
<text text-anchor="middle" x="190" y="-7.5" font-family="Helvetica,sans-Serif" font-size="10.00">Gnuplot::Smooth</text>
</a>
</g>
</g>
<!-- Node1&#45;&gt;Node3 -->
<g id="edge2" class="edge"><title>Node1&#45;&gt;Node3</title>
<path fill="none" stroke="midnightblue" d="M117.503,-20.1376C126.724,-18.8302 136.058,-17.5067 144.804,-16.2666"/>
<polygon fill="midnightblue" stroke="midnightblue" points="116.985,-16.6759 107.576,-21.5452 117.968,-23.6066 116.985,-16.6759"/>
</g>
</g>
</svg>
