<?xml version="1.0" encoding="UTF-8" standalone="no"?>
<!DOCTYPE svg PUBLIC "-//W3C//DTD SVG 1.1//EN"
 "http://www.w3.org/Graphics/SVG/1.1/DTD/svg11.dtd">
<!-- Generated by graphviz version 2.34.0 (20140110.0949)
 -->
<!-- Title: CInterface_SimuladorTelha::CInterface_SimuladorTelha Pages: 1 -->
<svg width="322pt" height="38pt"
 viewBox="0.00 0.00 322.00 38.00" xmlns="http://www.w3.org/2000/svg" xmlns:xlink="http://www.w3.org/1999/xlink">
<g id="graph0" class="graph" transform="scale(1 1) rotate(0) translate(4 34)">
<title>CInterface_SimuladorTelha::CInterface_SimuladorTelha</title>
<polygon fill="white" stroke="white" points="-4,4 -4,-34 318,-34 318,4 -4,4"/>
<!-- Node1 -->
<g id="node1" class="node"><title>Node1</title>
<polygon fill="#bfbfbf" stroke="black" points="0.5,-0 0.5,-30 141.5,-30 141.5,-0 0.5,-0"/>
<text text-anchor="start" x="8.5" y="-18" font-family="Helvetica,sans-Serif" font-size="10.00">CInterface_SimuladorTelha</text>
<text text-anchor="middle" x="71" y="-7" font-family="Helvetica,sans-Serif" font-size="10.00">::CInterface_SimuladorTelha</text>
</g>
<!-- Node2 -->
<g id="node2" class="node"><title>Node2</title>
<g id="a_node2"><a xlink:href="classCInterface__SimuladorTelha.xhtml#aaeaad0080daf4c219eecab93f31f5509" target="_top" xlink:title="Dados default. ">
<polygon fill="white" stroke="black" points="178.5,-0 178.5,-30 313.5,-30 313.5,-0 178.5,-0"/>
<text text-anchor="start" x="186.5" y="-18" font-family="Helvetica,sans-Serif" font-size="10.00">CInterface_SimuladorTelha</text>
<text text-anchor="middle" x="246" y="-7" font-family="Helvetica,sans-Serif" font-size="10.00">::DadosDefault</text>
</a>
</g>
</g>
<!-- Node1&#45;&gt;Node2 -->
<g id="edge1" class="edge"><title>Node1&#45;&gt;Node2</title>
<path fill="none" stroke="midnightblue" d="M141.867,-15C150.495,-15 159.351,-15 168.077,-15"/>
<polygon fill="midnightblue" stroke="midnightblue" points="168.237,-18.5001 178.237,-15 168.237,-11.5001 168.237,-18.5001"/>
</g>
</g>
</svg>
