<?xml version="1.0" encoding="UTF-8" standalone="no"?>
<!DOCTYPE svg PUBLIC "-//W3C//DTD SVG 1.1//EN"
 "http://www.w3.org/Graphics/SVG/1.1/DTD/svg11.dtd">
<!-- Generated by graphviz version 2.34.0 (20140110.0949)
 -->
<!-- Title: Gnuplot::XLogscale Pages: 1 -->
<svg width="386pt" height="66pt"
 viewBox="0.00 0.00 386.00 66.00" xmlns="http://www.w3.org/2000/svg" xmlns:xlink="http://www.w3.org/1999/xlink">
<g id="graph0" class="graph" transform="scale(1 1) rotate(0) translate(4 62)">
<title>Gnuplot::XLogscale</title>
<polygon fill="white" stroke="white" points="-4,4 -4,-62 382,-62 382,4 -4,4"/>
<!-- Node1 -->
<g id="node1" class="node"><title>Node1</title>
<polygon fill="#bfbfbf" stroke="black" points="0,-19.5 0,-38.5 102,-38.5 102,-19.5 0,-19.5"/>
<text text-anchor="middle" x="51" y="-26.5" font-family="Helvetica,sans-Serif" font-size="10.00">Gnuplot::XLogscale</text>
</g>
<!-- Node2 -->
<g id="node2" class="node"><title>Node2</title>
<g id="a_node2"><a xlink:href="classGnuplot.xhtml#aff546fad227d93babeb5d2cc9f047b89" target="_top" xlink:title="Ativa escala logaritma do eixo x (logscale nao e setado por default). ">
<polygon fill="white" stroke="black" points="144,-38.5 144,-57.5 260,-57.5 260,-38.5 144,-38.5"/>
<text text-anchor="middle" x="202" y="-45.5" font-family="Helvetica,sans-Serif" font-size="10.00">Gnuplot::set_xlogscale</text>
</a>
</g>
</g>
<!-- Node1&#45;&gt;Node2 -->
<g id="edge1" class="edge"><title>Node1&#45;&gt;Node2</title>
<path fill="none" stroke="midnightblue" d="M102.029,-35.3796C112.216,-36.6786 123.09,-38.0651 133.762,-39.4261"/>
<polygon fill="midnightblue" stroke="midnightblue" points="133.542,-42.9262 143.905,-40.7194 134.428,-35.9825 133.542,-42.9262"/>
</g>
<!-- Node4 -->
<g id="node4" class="node"><title>Node4</title>
<g id="a_node4"><a xlink:href="classGnuplot.xhtml#aed8f962539fd8f53ab2c0218da7a6010" target="_top" xlink:title="Desativa escala logaritma do eixo x (logscale nao e setado por default). ">
<polygon fill="white" stroke="black" points="138.5,-0.5 138.5,-19.5 265.5,-19.5 265.5,-0.5 138.5,-0.5"/>
<text text-anchor="middle" x="202" y="-7.5" font-family="Helvetica,sans-Serif" font-size="10.00">Gnuplot::unset_xlogscale</text>
</a>
</g>
</g>
<!-- Node1&#45;&gt;Node4 -->
<g id="edge3" class="edge"><title>Node1&#45;&gt;Node4</title>
<path fill="none" stroke="midnightblue" d="M102.029,-22.6204C110.506,-21.5395 119.458,-20.3979 128.375,-19.2609"/>
<polygon fill="midnightblue" stroke="midnightblue" points="128.922,-22.7195 138.399,-17.9826 128.037,-15.7758 128.922,-22.7195"/>
</g>
<!-- Node3 -->
<g id="node3" class="node"><title>Node3</title>
<g id="a_node3"><a xlink:href="classGnuplot.xhtml#a07607803ede8dd5416906df0a1924fc5" target="_top" xlink:title="Envia comando para o gnuplot. ">
<polygon fill="white" stroke="black" points="302.5,-19.5 302.5,-38.5 377.5,-38.5 377.5,-19.5 302.5,-19.5"/>
<text text-anchor="middle" x="340" y="-26.5" font-family="Helvetica,sans-Serif" font-size="10.00">Gnuplot::cmd</text>
</a>
</g>
</g>
<!-- Node2&#45;&gt;Node3 -->
<g id="edge2" class="edge"><title>Node2&#45;&gt;Node3</title>
<path fill="none" stroke="midnightblue" d="M260.282,-39.9974C270.953,-38.5065 281.986,-36.9652 292.292,-35.5253"/>
<polygon fill="midnightblue" stroke="midnightblue" points="292.897,-38.9749 302.317,-34.1249 291.929,-32.0422 292.897,-38.9749"/>
</g>
<!-- Node4&#45;&gt;Node3 -->
<g id="edge4" class="edge"><title>Node4&#45;&gt;Node3</title>
<path fill="none" stroke="midnightblue" d="M265.825,-18.777C274.731,-20.0213 283.757,-21.2822 292.285,-22.4737"/>
<polygon fill="midnightblue" stroke="midnightblue" points="292.013,-25.9695 302.401,-23.8869 292.981,-19.0368 292.013,-25.9695"/>
</g>
</g>
</svg>
