<?xml version="1.0" encoding="UTF-8" standalone="no"?>
<!DOCTYPE svg PUBLIC "-//W3C//DTD SVG 1.1//EN"
 "http://www.w3.org/Graphics/SVG/1.1/DTD/svg11.dtd">
<!-- Generated by graphviz version 2.34.0 (20140110.0949)
 -->
<!-- Title: Gnuplot::plot_x Pages: 1 -->
<svg width="384pt" height="85pt"
 viewBox="0.00 0.00 384.00 85.00" xmlns="http://www.w3.org/2000/svg" xmlns:xlink="http://www.w3.org/1999/xlink">
<g id="graph0" class="graph" transform="scale(1 1) rotate(0) translate(4 81)">
<title>Gnuplot::plot_x</title>
<polygon fill="white" stroke="white" points="-4,4 -4,-81 380,-81 380,4 -4,4"/>
<!-- Node1 -->
<g id="node1" class="node"><title>Node1</title>
<polygon fill="#bfbfbf" stroke="black" points="0.5,-38.5 0.5,-57.5 83.5,-57.5 83.5,-38.5 0.5,-38.5"/>
<text text-anchor="middle" x="42" y="-45.5" font-family="Helvetica,sans-Serif" font-size="10.00">Gnuplot::plot_x</text>
</g>
<!-- Node2 -->
<g id="node2" class="node"><title>Node2</title>
<g id="a_node2"><a xlink:href="classGnuplot.xhtml#a8ced9e766e0677b938178dafe9264ff7" target="_top" xlink:title="Cria arquivo temporario. ">
<polygon fill="white" stroke="black" points="120,-57.5 120,-76.5 238,-76.5 238,-57.5 120,-57.5"/>
<text text-anchor="middle" x="179" y="-64.5" font-family="Helvetica,sans-Serif" font-size="10.00">Gnuplot::create_tmpfile</text>
</a>
</g>
</g>
<!-- Node1&#45;&gt;Node2 -->
<g id="edge1" class="edge"><title>Node1&#45;&gt;Node2</title>
<path fill="none" stroke="midnightblue" d="M83.5045,-53.7006C91.7431,-54.8601 100.624,-56.1101 109.528,-57.3632"/>
<polygon fill="midnightblue" stroke="midnightblue" points="109.167,-60.8468 119.557,-58.7747 110.142,-53.9151 109.167,-60.8468"/>
</g>
<!-- Node3 -->
<g id="node3" class="node"><title>Node3</title>
<g id="a_node3"><a xlink:href="classGnuplot.xhtml#a4ca35415fa5560764597cfdfa46c6c40" target="_top" xlink:title="Plota dados de um arquivo de disco. ">
<polygon fill="white" stroke="black" points="131.5,-19.5 131.5,-38.5 226.5,-38.5 226.5,-19.5 131.5,-19.5"/>
<text text-anchor="middle" x="179" y="-26.5" font-family="Helvetica,sans-Serif" font-size="10.00">Gnuplot::plotfile_x</text>
</a>
</g>
</g>
<!-- Node1&#45;&gt;Node3 -->
<g id="edge2" class="edge"><title>Node1&#45;&gt;Node3</title>
<path fill="none" stroke="midnightblue" d="M83.5045,-42.2994C95.3934,-40.6261 108.62,-38.7646 121.322,-36.9769"/>
<polygon fill="midnightblue" stroke="midnightblue" points="121.946,-40.4237 131.36,-35.5641 120.97,-33.492 121.946,-40.4237"/>
</g>
<!-- Node4 -->
<g id="node4" class="node"><title>Node4</title>
<g id="a_node4"><a xlink:href="classGnuplot.xhtml#abc0f1d75cb78804a5b8efdfa4df582cd" target="_top" xlink:title="Checa se o arquivo existe. ">
<polygon fill="white" stroke="black" points="274.5,-38.5 274.5,-57.5 375.5,-57.5 375.5,-38.5 274.5,-38.5"/>
<text text-anchor="middle" x="325" y="-45.5" font-family="Helvetica,sans-Serif" font-size="10.00">Gnuplot::file_exists</text>
</a>
</g>
</g>
<!-- Node3&#45;&gt;Node4 -->
<g id="edge3" class="edge"><title>Node3&#45;&gt;Node4</title>
<path fill="none" stroke="midnightblue" d="M226.753,-35.1688C238.558,-36.7264 251.4,-38.4208 263.766,-40.0525"/>
<polygon fill="midnightblue" stroke="midnightblue" points="263.636,-43.5656 274.008,-41.4039 264.552,-36.6258 263.636,-43.5656"/>
</g>
<!-- Node5 -->
<g id="node5" class="node"><title>Node5</title>
<g id="a_node5"><a xlink:href="classGnuplot.xhtml#a07607803ede8dd5416906df0a1924fc5" target="_top" xlink:title="Envia comando para o gnuplot. ">
<polygon fill="white" stroke="black" points="287.5,-0.5 287.5,-19.5 362.5,-19.5 362.5,-0.5 287.5,-0.5"/>
<text text-anchor="middle" x="325" y="-7.5" font-family="Helvetica,sans-Serif" font-size="10.00">Gnuplot::cmd</text>
</a>
</g>
</g>
<!-- Node3&#45;&gt;Node5 -->
<g id="edge4" class="edge"><title>Node3&#45;&gt;Node5</title>
<path fill="none" stroke="midnightblue" d="M226.753,-22.8312C242.786,-20.7157 260.732,-18.3479 276.8,-16.2278"/>
<polygon fill="midnightblue" stroke="midnightblue" points="277.593,-19.6535 287.049,-14.8754 276.677,-12.7137 277.593,-19.6535"/>
</g>
</g>
</svg>
