<?xml version="1.0" encoding="UTF-8" standalone="no"?>
<!DOCTYPE svg PUBLIC "-//W3C//DTD SVG 1.1//EN"
 "http://www.w3.org/Graphics/SVG/1.1/DTD/svg11.dtd">
<!-- Generated by graphviz version 2.34.0 (20140110.0949)
 -->
<!-- Title: Gnuplot::reset_all Pages: 1 -->
<svg width="370pt" height="47pt"
 viewBox="0.00 0.00 370.00 47.00" xmlns="http://www.w3.org/2000/svg" xmlns:xlink="http://www.w3.org/1999/xlink">
<g id="graph0" class="graph" transform="scale(1 1) rotate(0) translate(4 43)">
<title>Gnuplot::reset_all</title>
<polygon fill="white" stroke="white" points="-4,4 -4,-43 366,-43 366,4 -4,4"/>
<!-- Node1 -->
<g id="node1" class="node"><title>Node1</title>
<polygon fill="#bfbfbf" stroke="black" points="0.5,-19.5 0.5,-38.5 93.5,-38.5 93.5,-19.5 0.5,-19.5"/>
<text text-anchor="middle" x="47" y="-26.5" font-family="Helvetica,sans-Serif" font-size="10.00">Gnuplot::reset_all</text>
</g>
<!-- Node2 -->
<g id="node2" class="node"><title>Node2</title>
<g id="a_node2"><a xlink:href="classGnuplot.xhtml#a07607803ede8dd5416906df0a1924fc5" target="_top" xlink:title="Envia comando para o gnuplot. ">
<polygon fill="white" stroke="black" points="286.5,-19.5 286.5,-38.5 361.5,-38.5 361.5,-19.5 286.5,-19.5"/>
<text text-anchor="middle" x="324" y="-26.5" font-family="Helvetica,sans-Serif" font-size="10.00">Gnuplot::cmd</text>
</a>
</g>
</g>
<!-- Node1&#45;&gt;Node2 -->
<g id="edge1" class="edge"><title>Node1&#45;&gt;Node2</title>
<path fill="none" stroke="midnightblue" d="M93.7194,-29C144.301,-29 225.378,-29 276.336,-29"/>
<polygon fill="midnightblue" stroke="midnightblue" points="276.419,-32.5001 286.419,-29 276.419,-25.5001 276.419,-32.5001"/>
</g>
<!-- Node3 -->
<g id="node3" class="node"><title>Node3</title>
<g id="a_node3"><a xlink:href="classGnuplot.xhtml#a356d2faaa79f08d13fec9718b776b28d" target="_top" xlink:title="Mostrar na tela ou escrever no arquivo, seta o tipo de terminal para terminal_std. ">
<polygon fill="white" stroke="black" points="130.5,-0.5 130.5,-19.5 249.5,-19.5 249.5,-0.5 130.5,-0.5"/>
<text text-anchor="middle" x="190" y="-7.5" font-family="Helvetica,sans-Serif" font-size="10.00">Gnuplot::showonscreen</text>
</a>
</g>
</g>
<!-- Node1&#45;&gt;Node3 -->
<g id="edge2" class="edge"><title>Node1&#45;&gt;Node3</title>
<path fill="none" stroke="midnightblue" d="M93.7787,-22.8312C102.25,-21.6897 111.267,-20.4746 120.246,-19.2647"/>
<polygon fill="midnightblue" stroke="midnightblue" points="120.894,-22.7092 130.337,-17.905 119.959,-15.7719 120.894,-22.7092"/>
</g>
<!-- Node3&#45;&gt;Node2 -->
<g id="edge3" class="edge"><title>Node3&#45;&gt;Node2</title>
<path fill="none" stroke="midnightblue" d="M249.666,-18.4443C258.673,-19.7408 267.865,-21.0638 276.559,-22.3152"/>
<polygon fill="midnightblue" stroke="midnightblue" points="276.098,-25.785 286.495,-23.7455 277.096,-18.8564 276.098,-25.785"/>
</g>
</g>
</svg>
