<?xml version="1.0" encoding="UTF-8" standalone="no"?>
<!DOCTYPE svg PUBLIC "-//W3C//DTD SVG 1.1//EN"
 "http://www.w3.org/Graphics/SVG/1.1/DTD/svg11.dtd">
<!-- Generated by graphviz version 2.34.0 (20140110.0949)
 -->
<!-- Title: Gnuplot::ShowOnScreen Pages: 1 -->
<svg width="402pt" height="28pt"
 viewBox="0.00 0.00 402.00 28.00" xmlns="http://www.w3.org/2000/svg" xmlns:xlink="http://www.w3.org/1999/xlink">
<g id="graph0" class="graph" transform="scale(1 1) rotate(0) translate(4 24)">
<title>Gnuplot::ShowOnScreen</title>
<polygon fill="white" stroke="white" points="-4,4 -4,-24 398,-24 398,4 -4,4"/>
<!-- Node1 -->
<g id="node1" class="node"><title>Node1</title>
<polygon fill="#bfbfbf" stroke="black" points="0.5,-0.5 0.5,-19.5 125.5,-19.5 125.5,-0.5 0.5,-0.5"/>
<text text-anchor="middle" x="63" y="-7.5" font-family="Helvetica,sans-Serif" font-size="10.00">Gnuplot::ShowOnScreen</text>
</g>
<!-- Node2 -->
<g id="node2" class="node"><title>Node2</title>
<g id="a_node2"><a xlink:href="classGnuplot.xhtml#a356d2faaa79f08d13fec9718b776b28d" target="_top" xlink:title="Mostrar na tela ou escrever no arquivo, seta o tipo de terminal para terminal_std. ">
<polygon fill="white" stroke="black" points="162.5,-0.5 162.5,-19.5 281.5,-19.5 281.5,-0.5 162.5,-0.5"/>
<text text-anchor="middle" x="222" y="-7.5" font-family="Helvetica,sans-Serif" font-size="10.00">Gnuplot::showonscreen</text>
</a>
</g>
</g>
<!-- Node1&#45;&gt;Node2 -->
<g id="edge1" class="edge"><title>Node1&#45;&gt;Node2</title>
<path fill="none" stroke="midnightblue" d="M125.6,-10C134.306,-10 143.303,-10 152.135,-10"/>
<polygon fill="midnightblue" stroke="midnightblue" points="152.4,-13.5001 162.4,-10 152.4,-6.5001 152.4,-13.5001"/>
</g>
<!-- Node3 -->
<g id="node3" class="node"><title>Node3</title>
<g id="a_node3"><a xlink:href="classGnuplot.xhtml#a07607803ede8dd5416906df0a1924fc5" target="_top" xlink:title="Envia comando para o gnuplot. ">
<polygon fill="white" stroke="black" points="318.5,-0.5 318.5,-19.5 393.5,-19.5 393.5,-0.5 318.5,-0.5"/>
<text text-anchor="middle" x="356" y="-7.5" font-family="Helvetica,sans-Serif" font-size="10.00">Gnuplot::cmd</text>
</a>
</g>
</g>
<!-- Node2&#45;&gt;Node3 -->
<g id="edge2" class="edge"><title>Node2&#45;&gt;Node3</title>
<path fill="none" stroke="midnightblue" d="M281.666,-10C290.575,-10 299.665,-10 308.275,-10"/>
<polygon fill="midnightblue" stroke="midnightblue" points="308.495,-13.5001 318.495,-10 308.495,-6.5001 308.495,-13.5001"/>
</g>
</g>
</svg>
