<?xml version="1.0" encoding="UTF-8" standalone="no"?>
<!DOCTYPE svg PUBLIC "-//W3C//DTD SVG 1.1//EN"
 "http://www.w3.org/Graphics/SVG/1.1/DTD/svg11.dtd">
<!-- Generated by graphviz version 2.34.0 (20140110.0949)
 -->
<!-- Title: CFuncaoCondutividade::Condutividade Pages: 1 -->
<svg width="284pt" height="38pt"
 viewBox="0.00 0.00 284.00 38.00" xmlns="http://www.w3.org/2000/svg" xmlns:xlink="http://www.w3.org/1999/xlink">
<g id="graph0" class="graph" transform="scale(1 1) rotate(0) translate(4 34)">
<title>CFuncaoCondutividade::Condutividade</title>
<polygon fill="white" stroke="white" points="-4,4 -4,-34 280,-34 280,4 -4,4"/>
<!-- Node1 -->
<g id="node1" class="node"><title>Node1</title>
<polygon fill="#bfbfbf" stroke="black" points="0.5,-0 0.5,-30 119.5,-30 119.5,-0 0.5,-0"/>
<text text-anchor="start" x="8.5" y="-18" font-family="Helvetica,sans-Serif" font-size="10.00">CFuncaoCondutividade</text>
<text text-anchor="middle" x="60" y="-7" font-family="Helvetica,sans-Serif" font-size="10.00">::Condutividade</text>
</g>
<!-- Node2 -->
<g id="node2" class="node"><title>Node2</title>
<g id="a_node2"><a xlink:href="classCFuncaoCondutividade.xhtml#aa3601b2978a4eaf57cee39b1fb8d00d1" target="_top" xlink:title="CFuncaoCondutividade\l::operator()">
<polygon fill="white" stroke="black" points="156.5,-0 156.5,-30 275.5,-30 275.5,-0 156.5,-0"/>
<text text-anchor="start" x="164.5" y="-18" font-family="Helvetica,sans-Serif" font-size="10.00">CFuncaoCondutividade</text>
<text text-anchor="middle" x="216" y="-7" font-family="Helvetica,sans-Serif" font-size="10.00">::operator()</text>
</a>
</g>
</g>
<!-- Node1&#45;&gt;Node2 -->
<g id="edge1" class="edge"><title>Node1&#45;&gt;Node2</title>
<path fill="none" stroke="midnightblue" d="M129.894,-15C138.691,-15 147.631,-15 156.248,-15"/>
<polygon fill="midnightblue" stroke="midnightblue" points="129.66,-11.5001 119.66,-15 129.66,-18.5001 129.66,-11.5001"/>
</g>
</g>
</svg>
