<?xml version="1.0" encoding="UTF-8" standalone="no"?>
<!DOCTYPE svg PUBLIC "-//W3C//DTD SVG 1.1//EN"
 "http://www.w3.org/Graphics/SVG/1.1/DTD/svg11.dtd">
<!-- Generated by graphviz version 2.34.0 (20140110.0949)
 -->
<!-- Title: CTransferenciaCalorMassa::DadosDefault Pages: 1 -->
<svg width="762pt" height="38pt"
 viewBox="0.00 0.00 762.00 38.00" xmlns="http://www.w3.org/2000/svg" xmlns:xlink="http://www.w3.org/1999/xlink">
<g id="graph0" class="graph" transform="scale(1 1) rotate(0) translate(4 34)">
<title>CTransferenciaCalorMassa::DadosDefault</title>
<polygon fill="white" stroke="white" points="-4,4 -4,-34 758,-34 758,4 -4,4"/>
<!-- Node1 -->
<g id="node1" class="node"><title>Node1</title>
<polygon fill="#bfbfbf" stroke="black" points="0,-0 0,-30 136,-30 136,-0 0,-0"/>
<text text-anchor="start" x="8" y="-18" font-family="Helvetica,sans-Serif" font-size="10.00">CTransferenciaCalorMassa</text>
<text text-anchor="middle" x="68" y="-7" font-family="Helvetica,sans-Serif" font-size="10.00">::DadosDefault</text>
</g>
<!-- Node2 -->
<g id="node2" class="node"><title>Node2</title>
<g id="a_node2"><a xlink:href="classCSimulador__Telha.xhtml#aa2592b5ca7cce1ac595cc3a658a17c85" target="_top" xlink:title="Dados default. ">
<polygon fill="white" stroke="black" points="172.5,-5.5 172.5,-24.5 335.5,-24.5 335.5,-5.5 172.5,-5.5"/>
<text text-anchor="middle" x="254" y="-12.5" font-family="Helvetica,sans-Serif" font-size="10.00">CSimulador_Telha::DadosDefault</text>
</a>
</g>
</g>
<!-- Node1&#45;&gt;Node2 -->
<g id="edge1" class="edge"><title>Node1&#45;&gt;Node2</title>
<path fill="none" stroke="midnightblue" d="M146.483,-15C154.991,-15 163.669,-15 172.216,-15"/>
<polygon fill="midnightblue" stroke="midnightblue" points="146.209,-11.5001 136.209,-15 146.209,-18.5001 146.209,-11.5001"/>
</g>
<!-- Node3 -->
<g id="node3" class="node"><title>Node3</title>
<g id="a_node3"><a xlink:href="classCSimulador__Telha__GanhosEnergia.xhtml#a8fee41da2f0f78851be425a7d0cc106d" target="_top" xlink:title="Dados default. ">
<polygon fill="white" stroke="black" points="372.5,-0 372.5,-30 541.5,-30 541.5,-0 372.5,-0"/>
<text text-anchor="start" x="380.5" y="-18" font-family="Helvetica,sans-Serif" font-size="10.00">CSimulador_Telha_GanhosEnergia</text>
<text text-anchor="middle" x="457" y="-7" font-family="Helvetica,sans-Serif" font-size="10.00">::DadosDefault</text>
</a>
</g>
</g>
<!-- Node2&#45;&gt;Node3 -->
<g id="edge2" class="edge"><title>Node2&#45;&gt;Node3</title>
<path fill="none" stroke="midnightblue" d="M345.616,-15C354.544,-15 363.577,-15 372.429,-15"/>
<polygon fill="midnightblue" stroke="midnightblue" points="345.596,-11.5001 335.596,-15 345.596,-18.5001 345.596,-11.5001"/>
</g>
<!-- Node4 -->
<g id="node4" class="node"><title>Node4</title>
<g id="a_node4"><a xlink:href="classCSimulador__Telha__GanhosEnergia.xhtml#a57fee722f2205904797acbfb7332f178" target="_top" xlink:title="Construtor. ">
<polygon fill="white" stroke="black" points="578.5,-0 578.5,-30 753.5,-30 753.5,-0 578.5,-0"/>
<text text-anchor="start" x="586.5" y="-18" font-family="Helvetica,sans-Serif" font-size="10.00">CSimulador_Telha_GanhosEnergia</text>
<text text-anchor="middle" x="666" y="-7" font-family="Helvetica,sans-Serif" font-size="10.00">::CSimulador_Telha_GanhosEnergia</text>
</a>
</g>
</g>
<!-- Node3&#45;&gt;Node4 -->
<g id="edge3" class="edge"><title>Node3&#45;&gt;Node4</title>
<path fill="none" stroke="midnightblue" d="M551.61,-15C560.527,-15 569.543,-15 578.389,-15"/>
<polygon fill="midnightblue" stroke="midnightblue" points="551.598,-11.5001 541.598,-15 551.598,-18.5001 551.598,-11.5001"/>
</g>
</g>
</svg>
