<?xml version="1.0" encoding="UTF-8" standalone="no"?>
<!DOCTYPE svg PUBLIC "-//W3C//DTD SVG 1.1//EN"
 "http://www.w3.org/Graphics/SVG/1.1/DTD/svg11.dtd">
<!-- Generated by graphviz version 2.34.0 (20140110.0949)
 -->
<!-- Title: CSimulador_Telha_GanhosEnergia::DadosDefault Pages: 1 -->
<svg width="728pt" height="126pt"
 viewBox="0.00 0.00 728.00 126.00" xmlns="http://www.w3.org/2000/svg" xmlns:xlink="http://www.w3.org/1999/xlink">
<g id="graph0" class="graph" transform="scale(1 1) rotate(0) translate(4 122)">
<title>CSimulador_Telha_GanhosEnergia::DadosDefault</title>
<polygon fill="white" stroke="white" points="-4,4 -4,-122 724,-122 724,4 -4,4"/>
<!-- Node1 -->
<g id="node1" class="node"><title>Node1</title>
<polygon fill="#bfbfbf" stroke="black" points="0.5,-44 0.5,-74 169.5,-74 169.5,-44 0.5,-44"/>
<text text-anchor="start" x="8.5" y="-62" font-family="Helvetica,sans-Serif" font-size="10.00">CSimulador_Telha_GanhosEnergia</text>
<text text-anchor="middle" x="85" y="-51" font-family="Helvetica,sans-Serif" font-size="10.00">::DadosDefault</text>
</g>
<!-- Node2 -->
<g id="node2" class="node"><title>Node2</title>
<g id="a_node2"><a xlink:href="classCSimulador__Telha.xhtml#aa2592b5ca7cce1ac595cc3a658a17c85" target="_top" xlink:title="Dados default. ">
<polygon fill="white" stroke="black" points="206.5,-49.5 206.5,-68.5 369.5,-68.5 369.5,-49.5 206.5,-49.5"/>
<text text-anchor="middle" x="288" y="-56.5" font-family="Helvetica,sans-Serif" font-size="10.00">CSimulador_Telha::DadosDefault</text>
</a>
</g>
</g>
<!-- Node1&#45;&gt;Node2 -->
<g id="edge1" class="edge"><title>Node1&#45;&gt;Node2</title>
<path fill="none" stroke="midnightblue" d="M169.787,-59C178.458,-59 187.3,-59 196.045,-59"/>
<polygon fill="midnightblue" stroke="midnightblue" points="196.25,-62.5001 206.25,-59 196.25,-55.5001 196.25,-62.5001"/>
</g>
<!-- Node3 -->
<g id="node3" class="node"><title>Node3</title>
<g id="a_node3"><a xlink:href="classCTransferenciaCalorMassa.xhtml#a2c400d0fbb10492c2b940e6251c2011e" target="_top" xlink:title="Dados default. ">
<polygon fill="white" stroke="black" points="421,-88 421,-118 557,-118 557,-88 421,-88"/>
<text text-anchor="start" x="429" y="-106" font-family="Helvetica,sans-Serif" font-size="10.00">CTransferenciaCalorMassa</text>
<text text-anchor="middle" x="489" y="-95" font-family="Helvetica,sans-Serif" font-size="10.00">::DadosDefault</text>
</a>
</g>
</g>
<!-- Node2&#45;&gt;Node3 -->
<g id="edge2" class="edge"><title>Node2&#45;&gt;Node3</title>
<path fill="none" stroke="midnightblue" d="M332.18,-68.5473C355.088,-73.6124 383.934,-79.9905 410.561,-85.8779"/>
<polygon fill="midnightblue" stroke="midnightblue" points="410.121,-89.365 420.641,-88.1065 411.632,-82.53 410.121,-89.365"/>
</g>
<!-- Node4 -->
<g id="node4" class="node"><title>Node4</title>
<g id="a_node4"><a xlink:href="classCSolver__TDMA.xhtml#a06cfc18536df7e616efed8262809f99c" target="_top" xlink:title="Dados default. ">
<polygon fill="white" stroke="black" points="413,-49.5 413,-68.5 565,-68.5 565,-49.5 413,-49.5"/>
<text text-anchor="middle" x="489" y="-56.5" font-family="Helvetica,sans-Serif" font-size="10.00">CSolver_TDMA::DadosDefault</text>
</a>
</g>
</g>
<!-- Node2&#45;&gt;Node4 -->
<g id="edge3" class="edge"><title>Node2&#45;&gt;Node4</title>
<path fill="none" stroke="midnightblue" d="M369.654,-59C380.431,-59 391.515,-59 402.373,-59"/>
<polygon fill="midnightblue" stroke="midnightblue" points="402.698,-62.5001 412.698,-59 402.698,-55.5001 402.698,-62.5001"/>
</g>
<!-- Node5 -->
<g id="node5" class="node"><title>Node5</title>
<g id="a_node5"><a xlink:href="classCMeioPoroso__Telha__Discretizada__TDMA.xhtml#a6a9a0e50cbd1c9abb1c097ef548954a4" target="_top" xlink:title="Dados default. ">
<polygon fill="white" stroke="black" points="406.5,-0 406.5,-30 571.5,-30 571.5,-0 406.5,-0"/>
<text text-anchor="start" x="414.5" y="-18" font-family="Helvetica,sans-Serif" font-size="10.00">CMeioPoroso_Telha_Discretizada</text>
<text text-anchor="middle" x="489" y="-7" font-family="Helvetica,sans-Serif" font-size="10.00">_TDMA::DadosDefault</text>
</a>
</g>
</g>
<!-- Node2&#45;&gt;Node5 -->
<g id="edge4" class="edge"><title>Node2&#45;&gt;Node5</title>
<path fill="none" stroke="midnightblue" d="M332.18,-49.4527C354.885,-44.4324 383.424,-38.1223 409.854,-32.2785"/>
<polygon fill="midnightblue" stroke="midnightblue" points="410.855,-35.6418 419.863,-30.0654 409.344,-28.8069 410.855,-35.6418"/>
</g>
<!-- Node6 -->
<g id="node6" class="node"><title>Node6</title>
<g id="a_node6"><a xlink:href="classCMeioPoroso__Telha.xhtml#a50594076983c72b8963c80bd9483239c" target="_top" xlink:title="Dados default. ">
<polygon fill="white" stroke="black" points="608.5,-0 608.5,-30 719.5,-30 719.5,-0 608.5,-0"/>
<text text-anchor="start" x="616.5" y="-18" font-family="Helvetica,sans-Serif" font-size="10.00">CMeioPoroso_Telha::</text>
<text text-anchor="middle" x="664" y="-7" font-family="Helvetica,sans-Serif" font-size="10.00">DadosDefault</text>
</a>
</g>
</g>
<!-- Node5&#45;&gt;Node6 -->
<g id="edge5" class="edge"><title>Node5&#45;&gt;Node6</title>
<path fill="none" stroke="midnightblue" d="M571.687,-15C580.616,-15 589.614,-15 598.298,-15"/>
<polygon fill="midnightblue" stroke="midnightblue" points="598.326,-18.5001 608.326,-15 598.326,-11.5001 598.326,-18.5001"/>
</g>
</g>
</svg>
