<?xml version="1.0" encoding="UTF-8" standalone="no"?>
<!DOCTYPE svg PUBLIC "-//W3C//DTD SVG 1.1//EN"
 "http://www.w3.org/Graphics/SVG/1.1/DTD/svg11.dtd">
<!-- Generated by graphviz version 2.34.0 (20140110.0949)
 -->
<!-- Title: Gnuplot::PlotVector Pages: 1 -->
<svg width="526pt" height="85pt"
 viewBox="0.00 0.00 526.00 85.00" xmlns="http://www.w3.org/2000/svg" xmlns:xlink="http://www.w3.org/1999/xlink">
<g id="graph0" class="graph" transform="scale(1 1) rotate(0) translate(4 81)">
<title>Gnuplot::PlotVector</title>
<polygon fill="white" stroke="white" points="-4,4 -4,-81 522,-81 522,4 -4,4"/>
<!-- Node1 -->
<g id="node1" class="node"><title>Node1</title>
<polygon fill="#bfbfbf" stroke="black" points="0,-38.5 0,-57.5 102,-57.5 102,-38.5 0,-38.5"/>
<text text-anchor="middle" x="51" y="-45.5" font-family="Helvetica,sans-Serif" font-size="10.00">Gnuplot::PlotVector</text>
</g>
<!-- Node2 -->
<g id="node2" class="node"><title>Node2</title>
<g id="a_node2"><a xlink:href="classGnuplot.xhtml#a777b6a5474951d6d023dff4237d80a2b" target="_top" xlink:title="Plota pares x,y a partir de vetores. ">
<polygon fill="white" stroke="black" points="138,-38.5 138,-57.5 226,-57.5 226,-38.5 138,-38.5"/>
<text text-anchor="middle" x="182" y="-45.5" font-family="Helvetica,sans-Serif" font-size="10.00">Gnuplot::plot_xy</text>
</a>
</g>
</g>
<!-- Node1&#45;&gt;Node2 -->
<g id="edge1" class="edge"><title>Node1&#45;&gt;Node2</title>
<path fill="none" stroke="midnightblue" d="M102.244,-48C110.593,-48 119.277,-48 127.699,-48"/>
<polygon fill="midnightblue" stroke="midnightblue" points="127.801,-51.5001 137.801,-48 127.801,-44.5001 127.801,-51.5001"/>
</g>
<!-- Node3 -->
<g id="node3" class="node"><title>Node3</title>
<g id="a_node3"><a xlink:href="classGnuplot.xhtml#a8ced9e766e0677b938178dafe9264ff7" target="_top" xlink:title="Cria arquivo temporario. ">
<polygon fill="white" stroke="black" points="262,-57.5 262,-76.5 380,-76.5 380,-57.5 262,-57.5"/>
<text text-anchor="middle" x="321" y="-64.5" font-family="Helvetica,sans-Serif" font-size="10.00">Gnuplot::create_tmpfile</text>
</a>
</g>
</g>
<!-- Node2&#45;&gt;Node3 -->
<g id="edge2" class="edge"><title>Node2&#45;&gt;Node3</title>
<path fill="none" stroke="midnightblue" d="M226.348,-54.0117C234.461,-55.137 243.122,-56.338 251.776,-57.5383"/>
<polygon fill="midnightblue" stroke="midnightblue" points="251.514,-61.0353 261.9,-58.9423 252.475,-54.1017 251.514,-61.0353"/>
</g>
<!-- Node4 -->
<g id="node4" class="node"><title>Node4</title>
<g id="a_node4"><a xlink:href="classGnuplot.xhtml#af226f395310d3c5c4f8b4d2aaf5d8823" target="_top" xlink:title="Plota pares x,y a partir de um arquivo de disco. ">
<polygon fill="white" stroke="black" points="270.5,-19.5 270.5,-38.5 371.5,-38.5 371.5,-19.5 270.5,-19.5"/>
<text text-anchor="middle" x="321" y="-26.5" font-family="Helvetica,sans-Serif" font-size="10.00">Gnuplot::plotfile_xy</text>
</a>
</g>
</g>
<!-- Node2&#45;&gt;Node4 -->
<g id="edge3" class="edge"><title>Node2&#45;&gt;Node4</title>
<path fill="none" stroke="midnightblue" d="M226.348,-41.9883C237.14,-40.4915 248.9,-38.8606 260.326,-37.2759"/>
<polygon fill="midnightblue" stroke="midnightblue" points="260.825,-40.7404 270.249,-35.8997 259.863,-33.8067 260.825,-40.7404"/>
</g>
<!-- Node5 -->
<g id="node5" class="node"><title>Node5</title>
<g id="a_node5"><a xlink:href="classGnuplot.xhtml#a07607803ede8dd5416906df0a1924fc5" target="_top" xlink:title="Envia comando para o gnuplot. ">
<polygon fill="white" stroke="black" points="429.5,-38.5 429.5,-57.5 504.5,-57.5 504.5,-38.5 429.5,-38.5"/>
<text text-anchor="middle" x="467" y="-45.5" font-family="Helvetica,sans-Serif" font-size="10.00">Gnuplot::cmd</text>
</a>
</g>
</g>
<!-- Node4&#45;&gt;Node5 -->
<g id="edge4" class="edge"><title>Node4&#45;&gt;Node5</title>
<path fill="none" stroke="midnightblue" d="M371.557,-35.5387C386.892,-37.5622 403.737,-39.7847 418.901,-41.7856"/>
<polygon fill="midnightblue" stroke="midnightblue" points="418.72,-45.2919 429.092,-43.1302 419.636,-38.352 418.72,-45.2919"/>
</g>
<!-- Node6 -->
<g id="node6" class="node"><title>Node6</title>
<g id="a_node6"><a xlink:href="classGnuplot.xhtml#abc0f1d75cb78804a5b8efdfa4df582cd" target="_top" xlink:title="Checa se o arquivo existe. ">
<polygon fill="white" stroke="black" points="416.5,-0.5 416.5,-19.5 517.5,-19.5 517.5,-0.5 416.5,-0.5"/>
<text text-anchor="middle" x="467" y="-7.5" font-family="Helvetica,sans-Serif" font-size="10.00">Gnuplot::file_exists</text>
</a>
</g>
</g>
<!-- Node4&#45;&gt;Node6 -->
<g id="edge5" class="edge"><title>Node4&#45;&gt;Node6</title>
<path fill="none" stroke="midnightblue" d="M371.557,-22.4613C382.757,-20.9835 394.762,-19.3994 406.33,-17.8731"/>
<polygon fill="midnightblue" stroke="midnightblue" points="406.896,-21.3289 416.352,-16.5508 405.98,-14.389 406.896,-21.3289"/>
</g>
</g>
</svg>
