<?xml version="1.0" encoding="UTF-8" standalone="no"?>
<!DOCTYPE svg PUBLIC "-//W3C//DTD SVG 1.1//EN"
 "http://www.w3.org/Graphics/SVG/1.1/DTD/svg11.dtd">
<!-- Generated by graphviz version 2.34.0 (20140110.0949)
 -->
<!-- Title: Gnuplot::Smooth Pages: 1 -->
<svg width="364pt" height="66pt"
 viewBox="0.00 0.00 364.00 66.00" xmlns="http://www.w3.org/2000/svg" xmlns:xlink="http://www.w3.org/1999/xlink">
<g id="graph0" class="graph" transform="scale(1 1) rotate(0) translate(4 62)">
<title>Gnuplot::Smooth</title>
<polygon fill="white" stroke="white" points="-4,4 -4,-62 360,-62 360,4 -4,4"/>
<!-- Node1 -->
<g id="node1" class="node"><title>Node1</title>
<polygon fill="#bfbfbf" stroke="black" points="0,-19.5 0,-38.5 90,-38.5 90,-19.5 0,-19.5"/>
<text text-anchor="middle" x="45" y="-26.5" font-family="Helvetica,sans-Serif" font-size="10.00">Gnuplot::Smooth</text>
</g>
<!-- Node2 -->
<g id="node2" class="node"><title>Node2</title>
<g id="a_node2"><a xlink:href="classGnuplot.xhtml#af845efc728a90d7e10de764eff0b2423" target="_top" xlink:title="Ativa desenho do contorno em superficies (para plotagen 3d). ">
<polygon fill="white" stroke="black" points="131.5,-38.5 131.5,-57.5 238.5,-57.5 238.5,-38.5 131.5,-38.5"/>
<text text-anchor="middle" x="185" y="-45.5" font-family="Helvetica,sans-Serif" font-size="10.00">Gnuplot::set_contour</text>
</a>
</g>
</g>
<!-- Node1&#45;&gt;Node2 -->
<g id="edge1" class="edge"><title>Node1&#45;&gt;Node2</title>
<path fill="none" stroke="midnightblue" d="M90.0435,-35.064C99.9664,-36.4302 110.685,-37.9059 121.21,-39.3549"/>
<polygon fill="midnightblue" stroke="midnightblue" points="120.824,-42.8348 131.208,-40.7316 121.779,-35.9002 120.824,-42.8348"/>
</g>
<!-- Node4 -->
<g id="node4" class="node"><title>Node4</title>
<g id="a_node4"><a xlink:href="classGnuplot.xhtml#a39d10e6ce85875939a9c594d132a10d7" target="_top" xlink:title="Desativa desenho do contorno em superficies (para plotagen 3d). ">
<polygon fill="white" stroke="black" points="126,-0.5 126,-19.5 244,-19.5 244,-0.5 126,-0.5"/>
<text text-anchor="middle" x="185" y="-7.5" font-family="Helvetica,sans-Serif" font-size="10.00">Gnuplot::unset_contour</text>
</a>
</g>
</g>
<!-- Node1&#45;&gt;Node4 -->
<g id="edge3" class="edge"><title>Node1&#45;&gt;Node4</title>
<path fill="none" stroke="midnightblue" d="M90.0435,-22.936C98.2076,-21.812 106.91,-20.6138 115.601,-19.4173"/>
<polygon fill="midnightblue" stroke="midnightblue" points="116.334,-22.8494 125.763,-18.0181 115.379,-15.9149 116.334,-22.8494"/>
</g>
<!-- Node3 -->
<g id="node3" class="node"><title>Node3</title>
<g id="a_node3"><a xlink:href="classGnuplot.xhtml#a07607803ede8dd5416906df0a1924fc5" target="_top" xlink:title="Envia comando para o gnuplot. ">
<polygon fill="white" stroke="black" points="280.5,-19.5 280.5,-38.5 355.5,-38.5 355.5,-19.5 280.5,-19.5"/>
<text text-anchor="middle" x="318" y="-26.5" font-family="Helvetica,sans-Serif" font-size="10.00">Gnuplot::cmd</text>
</a>
</g>
</g>
<!-- Node2&#45;&gt;Node3 -->
<g id="edge2" class="edge"><title>Node2&#45;&gt;Node3</title>
<path fill="none" stroke="midnightblue" d="M238.528,-40.3815C248.992,-38.8638 259.916,-37.2794 270.173,-35.7917"/>
<polygon fill="midnightblue" stroke="midnightblue" points="270.772,-39.2415 280.166,-34.3423 269.767,-32.314 270.772,-39.2415"/>
</g>
<!-- Node4&#45;&gt;Node3 -->
<g id="edge4" class="edge"><title>Node4&#45;&gt;Node3</title>
<path fill="none" stroke="midnightblue" d="M244.221,-18.4443C252.966,-19.7126 261.886,-21.0063 270.347,-22.2335"/>
<polygon fill="midnightblue" stroke="midnightblue" points="269.999,-25.7196 280.398,-23.6913 271.004,-18.7921 269.999,-25.7196"/>
</g>
</g>
</svg>
