<?xml version="1.0" encoding="UTF-8" standalone="no"?>
<!DOCTYPE svg PUBLIC "-//W3C//DTD SVG 1.1//EN"
 "http://www.w3.org/Graphics/SVG/1.1/DTD/svg11.dtd">
<!-- Generated by graphviz version 2.34.0 (20140110.0949)
 -->
<!-- Title: Gnuplot::plotfile_x Pages: 1 -->
<svg width="368pt" height="85pt"
 viewBox="0.00 0.00 368.00 85.00" xmlns="http://www.w3.org/2000/svg" xmlns:xlink="http://www.w3.org/1999/xlink">
<g id="graph0" class="graph" transform="scale(1 1) rotate(0) translate(4 81)">
<title>Gnuplot::plotfile_x</title>
<polygon fill="white" stroke="white" points="-4,4 -4,-81 364,-81 364,4 -4,4"/>
<!-- Node1 -->
<g id="node1" class="node"><title>Node1</title>
<polygon fill="#bfbfbf" stroke="black" points="0.5,-19.5 0.5,-38.5 95.5,-38.5 95.5,-19.5 0.5,-19.5"/>
<text text-anchor="middle" x="48" y="-26.5" font-family="Helvetica,sans-Serif" font-size="10.00">Gnuplot::plotfile_x</text>
</g>
<!-- Node2 -->
<g id="node2" class="node"><title>Node2</title>
<g id="a_node2"><a xlink:href="classGnuplot.xhtml#a9400d43204b9df62851c063aee604f0d" target="_top" xlink:title="Plota dados de um vector. ">
<polygon fill="white" stroke="black" points="135.5,-38.5 135.5,-57.5 218.5,-57.5 218.5,-38.5 135.5,-38.5"/>
<text text-anchor="middle" x="177" y="-45.5" font-family="Helvetica,sans-Serif" font-size="10.00">Gnuplot::plot_x</text>
</a>
</g>
</g>
<!-- Node1&#45;&gt;Node2 -->
<g id="edge1" class="edge"><title>Node1&#45;&gt;Node2</title>
<path fill="none" stroke="midnightblue" d="M105.493,-37.4517C115.533,-38.9538 125.81,-40.4913 135.303,-41.9115"/>
<polygon fill="midnightblue" stroke="midnightblue" points="105.977,-33.9852 95.569,-35.967 104.941,-40.9082 105.977,-33.9852"/>
</g>
<!-- Node5 -->
<g id="node5" class="node"><title>Node5</title>
<g id="a_node5"><a xlink:href="classGnuplot.xhtml#a12ba90a46e80421f655049cb1d1d835d" target="_top" xlink:title="Plota dados de um arquivo de disco. ">
<polygon fill="white" stroke="black" points="132.5,-0.5 132.5,-19.5 221.5,-19.5 221.5,-0.5 132.5,-0.5"/>
<text text-anchor="middle" x="177" y="-7.5" font-family="Helvetica,sans-Serif" font-size="10.00">Gnuplot::PlotFile</text>
</a>
</g>
</g>
<!-- Node1&#45;&gt;Node5 -->
<g id="edge4" class="edge"><title>Node1&#45;&gt;Node5</title>
<path fill="none" stroke="midnightblue" d="M105.599,-20.5325C114.587,-19.1878 123.761,-17.8152 132.391,-16.5242"/>
<polygon fill="midnightblue" stroke="midnightblue" points="104.941,-17.0918 95.569,-22.033 105.977,-24.0148 104.941,-17.0918"/>
</g>
<!-- Node3 -->
<g id="node3" class="node"><title>Node3</title>
<g id="a_node3"><a xlink:href="classGnuplot.xhtml#a8ceac5808e42665c1dee305ae7ea9070" target="_top" xlink:title="Construtor, plota um grafico a partir de um vector, diretamente na construcao. ">
<polygon fill="white" stroke="black" points="264,-57.5 264,-76.5 354,-76.5 354,-57.5 264,-57.5"/>
<text text-anchor="middle" x="309" y="-64.5" font-family="Helvetica,sans-Serif" font-size="10.00">Gnuplot::Gnuplot</text>
</a>
</g>
</g>
<!-- Node2&#45;&gt;Node3 -->
<g id="edge2" class="edge"><title>Node2&#45;&gt;Node3</title>
<path fill="none" stroke="midnightblue" d="M228.735,-55.4151C240.298,-57.1051 252.495,-58.8877 263.761,-60.5343"/>
<polygon fill="midnightblue" stroke="midnightblue" points="229.177,-51.9426 218.776,-53.9596 228.165,-58.8691 229.177,-51.9426"/>
</g>
<!-- Node4 -->
<g id="node4" class="node"><title>Node4</title>
<g id="a_node4"><a xlink:href="classGnuplot.xhtml#ab478d91039848a22733fc7a0f7c25f04" target="_top" xlink:title="Plota dados de um vector. ">
<polygon fill="white" stroke="black" points="258,-19.5 258,-38.5 360,-38.5 360,-19.5 258,-19.5"/>
<text text-anchor="middle" x="309" y="-26.5" font-family="Helvetica,sans-Serif" font-size="10.00">Gnuplot::PlotVector</text>
</a>
</g>
</g>
<!-- Node2&#45;&gt;Node4 -->
<g id="edge3" class="edge"><title>Node2&#45;&gt;Node4</title>
<path fill="none" stroke="midnightblue" d="M228.874,-40.5646C238.37,-39.1767 248.289,-37.7269 257.766,-36.3419"/>
<polygon fill="midnightblue" stroke="midnightblue" points="228.165,-37.1309 218.776,-42.0404 229.177,-44.0574 228.165,-37.1309"/>
</g>
</g>
</svg>
