<?xml version="1.0" encoding="UTF-8" standalone="no"?>
<!DOCTYPE svg PUBLIC "-//W3C//DTD SVG 1.1//EN"
 "http://www.w3.org/Graphics/SVG/1.1/DTD/svg11.dtd">
<!-- Generated by graphviz version 2.34.0 (20140110.0949)
 -->
<!-- Title: CFuncao_wl Pages: 1 -->
<svg width="744pt" height="676pt"
 viewBox="0.00 0.00 744.00 676.00" xmlns="http://www.w3.org/2000/svg" xmlns:xlink="http://www.w3.org/1999/xlink">
<g id="graph0" class="graph" transform="scale(1 1) rotate(0) translate(4 672)">
<title>CFuncao_wl</title>
<polygon fill="white" stroke="white" points="-4,4 -4,-672 740,-672 740,4 -4,4"/>
<!-- Node1 -->
<g id="node1" class="node"><title>Node1</title>
<polygon fill="#bfbfbf" stroke="black" points="149.5,-1 149.5,-135 268.5,-135 268.5,-1 149.5,-1"/>
<text text-anchor="middle" x="209" y="-123" font-family="Helvetica,sans-Serif" font-size="10.00">CFuncao_wl</text>
<polyline fill="none" stroke="black" points="149.5,-116 268.5,-116 "/>
<text text-anchor="middle" x="209" y="-104" font-family="Helvetica,sans-Serif" font-size="10.00"> </text>
<polyline fill="none" stroke="black" points="149.5,-97 268.5,-97 "/>
<text text-anchor="start" x="157.5" y="-85" font-family="Helvetica,sans-Serif" font-size="10.00">+ CFuncao_wl()</text>
<text text-anchor="start" x="157.5" y="-74" font-family="Helvetica,sans-Serif" font-size="10.00">+ ~CFuncao_wl()</text>
<text text-anchor="start" x="157.5" y="-63" font-family="Helvetica,sans-Serif" font-size="10.00">+ DadosDefault()</text>
<text text-anchor="start" x="157.5" y="-52" font-family="Helvetica,sans-Serif" font-size="10.00">+ EntrarDadosFuncao()</text>
<text text-anchor="start" x="157.5" y="-41" font-family="Helvetica,sans-Serif" font-size="10.00">+ Wl()</text>
<text text-anchor="start" x="157.5" y="-30" font-family="Helvetica,sans-Serif" font-size="10.00">+ Fluido()</text>
<text text-anchor="start" x="157.5" y="-19" font-family="Helvetica,sans-Serif" font-size="10.00">+ Telha()</text>
<text text-anchor="start" x="157.5" y="-8" font-family="Helvetica,sans-Serif" font-size="10.00">+ operator()()</text>
</g>
<!-- Node2 -->
<g id="node2" class="node"><title>Node2</title>
<g id="a_node2"><a xlink:href="classCFluido.xhtml" target="_top" xlink:title="Representa um fluido com atributos: rol, cl, lv. ">
<polygon fill="white" stroke="black" points="-0.5,-295 -0.5,-385 114.5,-385 114.5,-295 -0.5,-295"/>
<text text-anchor="middle" x="57" y="-373" font-family="Helvetica,sans-Serif" font-size="10.00">CFluido</text>
<polyline fill="none" stroke="black" points="-0.5,-366 114.5,-366 "/>
<text text-anchor="middle" x="57" y="-354" font-family="Helvetica,sans-Serif" font-size="10.00"> </text>
<polyline fill="none" stroke="black" points="-0.5,-347 114.5,-347 "/>
<text text-anchor="start" x="7.5" y="-335" font-family="Helvetica,sans-Serif" font-size="10.00">+ CFluido()</text>
<text text-anchor="start" x="7.5" y="-324" font-family="Helvetica,sans-Serif" font-size="10.00">+ ~CFluido()</text>
<text text-anchor="start" x="7.5" y="-313" font-family="Helvetica,sans-Serif" font-size="10.00">+ DadosDefault()</text>
<text text-anchor="start" x="7.5" y="-302" font-family="Helvetica,sans-Serif" font-size="10.00">+ EntrarDadosObjeto()</text>
</a>
</g>
</g>
<!-- Node2&#45;&gt;Node1 -->
<g id="edge1" class="edge"><title>Node2&#45;&gt;Node1</title>
<path fill="none" stroke="#404040" d="M81.9295,-294.717C104.637,-254.382 138.665,-193.938 165.794,-145.747"/>
<polygon fill="none" stroke="#404040" points="165.937,-145.494 165.394,-138.303 171.823,-135.037 172.366,-142.228 165.937,-145.494"/>
<text text-anchor="middle" x="159" y="-227.5" font-family="Helvetica,sans-Serif" font-size="10.00"> #fluido</text>
</g>
<!-- Node3 -->
<g id="node3" class="node"><title>Node3</title>
<polygon fill="white" stroke="#bfbfbf" points="248.5,-610.5 248.5,-667.5 293.5,-667.5 293.5,-610.5 248.5,-610.5"/>
<text text-anchor="middle" x="271" y="-655.5" font-family="Helvetica,sans-Serif" font-size="10.00">double</text>
<polyline fill="none" stroke="#bfbfbf" points="248.5,-648.5 293.5,-648.5 "/>
<text text-anchor="middle" x="271" y="-636.5" font-family="Helvetica,sans-Serif" font-size="10.00"> </text>
<polyline fill="none" stroke="#bfbfbf" points="248.5,-629.5 293.5,-629.5 "/>
<text text-anchor="middle" x="271" y="-617.5" font-family="Helvetica,sans-Serif" font-size="10.00"> </text>
</g>
<!-- Node3&#45;&gt;Node2 -->
<g id="edge2" class="edge"><title>Node3&#45;&gt;Node2</title>
<path fill="none" stroke="#404040" d="M248.248,-635.077C205.851,-629.153 117.224,-614.364 97,-592 49.398,-539.361 45.8207,-453.79 49.739,-397.445"/>
<polygon fill="none" stroke="#404040" points="49.7631,-397.15 46.2653,-390.844 50.7409,-385.189 54.2387,-391.495 49.7631,-397.15"/>
<text text-anchor="middle" x="106.5" y="-583.5" font-family="Helvetica,sans-Serif" font-size="10.00"> #rol</text>
<text text-anchor="middle" x="106.5" y="-572.5" font-family="Helvetica,sans-Serif" font-size="10.00">#cl</text>
<text text-anchor="middle" x="106.5" y="-561.5" font-family="Helvetica,sans-Serif" font-size="10.00">#lv</text>
</g>
<!-- Node4 -->
<g id="node4" class="node"><title>Node4</title>
<g id="a_node4"><a xlink:href="classCMeioPoroso__Telha.xhtml" target="_top" xlink:title="Representa meio poroso agregando funções difusidade, condutividade e adsorção. Representa ao mesmo te...">
<polygon fill="white" stroke="black" points="292,-185 292,-275 418,-275 418,-185 292,-185"/>
<text text-anchor="middle" x="355" y="-263" font-family="Helvetica,sans-Serif" font-size="10.00">CMeioPoroso_Telha</text>
<polyline fill="none" stroke="black" points="292,-256 418,-256 "/>
<text text-anchor="middle" x="355" y="-244" font-family="Helvetica,sans-Serif" font-size="10.00"> </text>
<polyline fill="none" stroke="black" points="292,-237 418,-237 "/>
<text text-anchor="start" x="300" y="-225" font-family="Helvetica,sans-Serif" font-size="10.00">+ CMeioPoroso_Telha()</text>
<text text-anchor="start" x="300" y="-214" font-family="Helvetica,sans-Serif" font-size="10.00">+ ~CMeioPoroso_Telha()</text>
<text text-anchor="start" x="300" y="-203" font-family="Helvetica,sans-Serif" font-size="10.00">+ DadosDefault()</text>
<text text-anchor="start" x="300" y="-192" font-family="Helvetica,sans-Serif" font-size="10.00">+ EntrarDadosObjeto()</text>
</a>
</g>
</g>
<!-- Node3&#45;&gt;Node4 -->
<g id="edge4" class="edge"><title>Node3&#45;&gt;Node4</title>
<path fill="none" stroke="#404040" d="M248.327,-629.007C217.038,-615.202 161.895,-585.513 139,-540 111.837,-486.003 114.893,-459.429 139,-404 166.281,-341.272 230.026,-294.808 281.238,-265.918"/>
<polygon fill="none" stroke="#404040" points="281.444,-265.805 284.773,-259.408 291.958,-260.021 288.629,-266.417 281.444,-265.805"/>
<text text-anchor="middle" x="165.5" y="-513.5" font-family="Helvetica,sans-Serif" font-size="10.00"> #ct</text>
<text text-anchor="middle" x="165.5" y="-502.5" font-family="Helvetica,sans-Serif" font-size="10.00">#emis</text>
<text text-anchor="middle" x="165.5" y="-491.5" font-family="Helvetica,sans-Serif" font-size="10.00">&#45;wl_inicial</text>
<text text-anchor="middle" x="165.5" y="-480.5" font-family="Helvetica,sans-Serif" font-size="10.00">#alfa</text>
<text text-anchor="middle" x="165.5" y="-469.5" font-family="Helvetica,sans-Serif" font-size="10.00">#porosidade</text>
<text text-anchor="middle" x="165.5" y="-458.5" font-family="Helvetica,sans-Serif" font-size="10.00">#wli</text>
<text text-anchor="middle" x="165.5" y="-447.5" font-family="Helvetica,sans-Serif" font-size="10.00">#larg</text>
<text text-anchor="middle" x="165.5" y="-436.5" font-family="Helvetica,sans-Serif" font-size="10.00">#ki</text>
<text text-anchor="middle" x="165.5" y="-425.5" font-family="Helvetica,sans-Serif" font-size="10.00">#rot</text>
</g>
<!-- Node5 -->
<g id="node5" class="node"><title>Node5</title>
<g id="a_node5"><a xlink:href="classCFuncaoCondutividade.xhtml" target="_top" xlink:title="Calcula a condutividade a partir de correlações fornecidas pelo usuário. ">
<polygon fill="white" stroke="black" points="201,-416 201,-528 341,-528 341,-416 201,-416"/>
<text text-anchor="middle" x="271" y="-516" font-family="Helvetica,sans-Serif" font-size="10.00">CFuncaoCondutividade</text>
<polyline fill="none" stroke="black" points="201,-509 341,-509 "/>
<text text-anchor="middle" x="271" y="-497" font-family="Helvetica,sans-Serif" font-size="10.00"> </text>
<polyline fill="none" stroke="black" points="201,-490 341,-490 "/>
<text text-anchor="start" x="209" y="-478" font-family="Helvetica,sans-Serif" font-size="10.00">+ CFuncaoCondutividade()</text>
<text text-anchor="start" x="209" y="-467" font-family="Helvetica,sans-Serif" font-size="10.00">+ ~CFuncaoCondutividade()</text>
<text text-anchor="start" x="209" y="-456" font-family="Helvetica,sans-Serif" font-size="10.00">+ DadosDefault()</text>
<text text-anchor="start" x="209" y="-445" font-family="Helvetica,sans-Serif" font-size="10.00">+ EntrarDadosFuncao()</text>
<text text-anchor="start" x="209" y="-434" font-family="Helvetica,sans-Serif" font-size="10.00">+ Condutividade()</text>
<text text-anchor="start" x="209" y="-423" font-family="Helvetica,sans-Serif" font-size="10.00">+ operator()()</text>
</a>
</g>
</g>
<!-- Node3&#45;&gt;Node5 -->
<g id="edge6" class="edge"><title>Node3&#45;&gt;Node5</title>
<path fill="none" stroke="#404040" d="M271,-610.383C271,-591.233 271,-564.864 271,-540.344"/>
<polygon fill="none" stroke="#404040" points="271,-540.118 267,-534.118 271,-528.118 275,-534.118 271,-540.118"/>
<text text-anchor="middle" x="280.5" y="-578" font-family="Helvetica,sans-Serif" font-size="10.00"> #bk</text>
<text text-anchor="middle" x="280.5" y="-567" font-family="Helvetica,sans-Serif" font-size="10.00">#ak</text>
</g>
<!-- Node7 -->
<g id="node7" class="node"><title>Node7</title>
<g id="a_node7"><a xlink:href="classCFuncaoDifusividade.xhtml" target="_top" xlink:title="Representa a função de difusidade ao vapor de um meio poroso; no caso específico, a telha de cerâmica...">
<polygon fill="white" stroke="black" points="359.5,-416 359.5,-528 490.5,-528 490.5,-416 359.5,-416"/>
<text text-anchor="middle" x="425" y="-516" font-family="Helvetica,sans-Serif" font-size="10.00">CFuncaoDifusividade</text>
<polyline fill="none" stroke="black" points="359.5,-509 490.5,-509 "/>
<text text-anchor="middle" x="425" y="-497" font-family="Helvetica,sans-Serif" font-size="10.00"> </text>
<polyline fill="none" stroke="black" points="359.5,-490 490.5,-490 "/>
<text text-anchor="start" x="367.5" y="-478" font-family="Helvetica,sans-Serif" font-size="10.00">+ CFuncaoDifusividade()</text>
<text text-anchor="start" x="367.5" y="-467" font-family="Helvetica,sans-Serif" font-size="10.00">+ ~CFuncaoDifusividade()</text>
<text text-anchor="start" x="367.5" y="-456" font-family="Helvetica,sans-Serif" font-size="10.00">+ DadosDefault()</text>
<text text-anchor="start" x="367.5" y="-445" font-family="Helvetica,sans-Serif" font-size="10.00">+ EntrarDadosFuncao()</text>
<text text-anchor="start" x="367.5" y="-434" font-family="Helvetica,sans-Serif" font-size="10.00">+ Difusividade()</text>
<text text-anchor="start" x="367.5" y="-423" font-family="Helvetica,sans-Serif" font-size="10.00">+ operator()()</text>
</a>
</g>
</g>
<!-- Node3&#45;&gt;Node7 -->
<g id="edge9" class="edge"><title>Node3&#45;&gt;Node7</title>
<path fill="none" stroke="#404040" d="M293.723,-613.654C312.516,-593.519 340.084,-563.981 365.112,-537.166"/>
<polygon fill="none" stroke="#404040" points="365.298,-536.966 366.468,-529.851 373.486,-528.194 372.316,-535.309 365.298,-536.966"/>
<text text-anchor="middle" x="356.5" y="-572.5" font-family="Helvetica,sans-Serif" font-size="10.00"> #cdif</text>
</g>
<!-- Node8 -->
<g id="node8" class="node"><title>Node8</title>
<g id="a_node8"><a xlink:href="classCFuncaoAdsorcao.xhtml" target="_top" xlink:title="Calcula a umidade a partir das curvas de adsorção do material (correlações fornecidas pelo usuário)...">
<polygon fill="white" stroke="black" points="508.5,-405 508.5,-539 631.5,-539 631.5,-405 508.5,-405"/>
<text text-anchor="middle" x="570" y="-527" font-family="Helvetica,sans-Serif" font-size="10.00">CFuncaoAdsorcao</text>
<polyline fill="none" stroke="black" points="508.5,-520 631.5,-520 "/>
<text text-anchor="middle" x="570" y="-508" font-family="Helvetica,sans-Serif" font-size="10.00"> </text>
<polyline fill="none" stroke="black" points="508.5,-501 631.5,-501 "/>
<text text-anchor="start" x="516.5" y="-489" font-family="Helvetica,sans-Serif" font-size="10.00">+ CFuncaoAdsorcao()</text>
<text text-anchor="start" x="516.5" y="-478" font-family="Helvetica,sans-Serif" font-size="10.00">+ ~CFuncaoAdsorcao()</text>
<text text-anchor="start" x="516.5" y="-467" font-family="Helvetica,sans-Serif" font-size="10.00">+ DadosDefault()</text>
<text text-anchor="start" x="516.5" y="-456" font-family="Helvetica,sans-Serif" font-size="10.00">+ EntrarDadosFuncao()</text>
<text text-anchor="start" x="516.5" y="-445" font-family="Helvetica,sans-Serif" font-size="10.00">+ Umidade()</text>
<text text-anchor="start" x="516.5" y="-434" font-family="Helvetica,sans-Serif" font-size="10.00">+ operator()()</text>
<text text-anchor="start" x="516.5" y="-423" font-family="Helvetica,sans-Serif" font-size="10.00"># ResultadosEnsaio()</text>
<text text-anchor="start" x="516.5" y="-412" font-family="Helvetica,sans-Serif" font-size="10.00">&#45; CorrecaoTemperatura()</text>
</a>
</g>
</g>
<!-- Node3&#45;&gt;Node8 -->
<g id="edge11" class="edge"><title>Node3&#45;&gt;Node8</title>
<path fill="none" stroke="#404040" d="M293.661,-631.203C334.353,-618.408 421.903,-588.167 498.104,-540.058"/>
<polygon fill="none" stroke="#404040" points="498.217,-539.985 501.084,-533.368 508.294,-533.47 505.427,-540.086 498.217,-539.985"/>
<text text-anchor="start" x="465" y="-583.5" font-family="Helvetica,sans-Serif" font-size="10.00"> #temperatura_ensaio</text>
<text text-anchor="middle" x="512" y="-572.5" font-family="Helvetica,sans-Serif" font-size="10.00">_adsorcao</text>
<text text-anchor="middle" x="512" y="-561.5" font-family="Helvetica,sans-Serif" font-size="10.00">#h</text>
</g>
<!-- Node4&#45;&gt;Node1 -->
<g id="edge3" class="edge"><title>Node4&#45;&gt;Node1</title>
<path fill="none" stroke="#404040" d="M314.718,-184.856C303.017,-172.032 289.902,-157.659 276.996,-143.516"/>
<polygon fill="none" stroke="#404040" points="276.651,-143.138 269.652,-141.402 268.562,-134.274 275.561,-136.01 276.651,-143.138"/>
<text text-anchor="middle" x="311" y="-157.5" font-family="Helvetica,sans-Serif" font-size="10.00"> #telha</text>
</g>
<!-- Node5&#45;&gt;Node4 -->
<g id="edge5" class="edge"><title>Node5&#45;&gt;Node4</title>
<path fill="none" stroke="#404040" d="M261.913,-415.863C258.531,-379.399 259.278,-331.572 278,-294 279.772,-290.444 281.847,-287.019 284.156,-283.729"/>
<polygon fill="none" stroke="#404040" points="284.224,-283.645 284.847,-276.461 291.719,-274.273 291.095,-281.457 284.224,-283.645"/>
<text text-anchor="middle" x="328.5" y="-337.5" font-family="Helvetica,sans-Serif" font-size="10.00"> +funcaoCondutividade</text>
</g>
<!-- Node6 -->
<g id="node6" class="node"><title>Node6</title>
<polygon fill="white" stroke="#bfbfbf" points="649.5,-443.5 649.5,-500.5 684.5,-500.5 684.5,-443.5 649.5,-443.5"/>
<text text-anchor="middle" x="667" y="-488.5" font-family="Helvetica,sans-Serif" font-size="10.00">char</text>
<polyline fill="none" stroke="#bfbfbf" points="649.5,-481.5 684.5,-481.5 "/>
<text text-anchor="middle" x="667" y="-469.5" font-family="Helvetica,sans-Serif" font-size="10.00"> </text>
<polyline fill="none" stroke="#bfbfbf" points="649.5,-462.5 684.5,-462.5 "/>
<text text-anchor="middle" x="667" y="-450.5" font-family="Helvetica,sans-Serif" font-size="10.00"> </text>
</g>
<!-- Node6&#45;&gt;Node4 -->
<g id="edge7" class="edge"><title>Node6&#45;&gt;Node4</title>
<path fill="none" stroke="#404040" d="M670.948,-443.25C674.778,-404.482 675.305,-334.347 637,-294 609.067,-264.578 503.858,-247.185 430.173,-238.367"/>
<polygon fill="none" stroke="#404040" points="430.098,-238.358 423.677,-241.639 418.178,-236.973 424.6,-233.692 430.098,-238.358"/>
<text text-anchor="middle" x="704" y="-337.5" font-family="Helvetica,sans-Serif" font-size="10.00"> #tipo_material</text>
</g>
<!-- Node7&#45;&gt;Node4 -->
<g id="edge8" class="edge"><title>Node7&#45;&gt;Node4</title>
<path fill="none" stroke="#404040" d="M414.617,-415.642C407.329,-380.365 396.487,-333.947 383,-294 382.192,-291.608 381.328,-289.182 380.421,-286.745"/>
<polygon fill="none" stroke="#404040" points="380.325,-286.5 374.404,-282.383 375.926,-275.335 381.847,-279.451 380.325,-286.5"/>
<text text-anchor="middle" x="454.5" y="-337.5" font-family="Helvetica,sans-Serif" font-size="10.00"> +funcaoDifusividade</text>
</g>
<!-- Node8&#45;&gt;Node4 -->
<g id="edge10" class="edge"><title>Node8&#45;&gt;Node4</title>
<path fill="none" stroke="#404040" d="M559.102,-404.793C550.067,-368.203 533.831,-324.18 505,-294 484.86,-272.918 456.573,-258.594 429.985,-249.007"/>
<polygon fill="none" stroke="#404040" points="429.689,-248.907 422.723,-250.769 418.324,-245.055 425.291,-243.192 429.689,-248.907"/>
<text text-anchor="middle" x="593" y="-337.5" font-family="Helvetica,sans-Serif" font-size="10.00"> +funcaoAdsorcao</text>
</g>
</g>
</svg>
