<?xml version="1.0" encoding="UTF-8" standalone="no"?>
<!DOCTYPE svg PUBLIC "-//W3C//DTD SVG 1.1//EN"
 "http://www.w3.org/Graphics/SVG/1.1/DTD/svg11.dtd">
<!-- Generated by graphviz version 2.34.0 (20140110.0949)
 -->
<!-- Title: Gnuplot::plot_xy_err Pages: 1 -->
<svg width="404pt" height="85pt"
 viewBox="0.00 0.00 404.00 85.00" xmlns="http://www.w3.org/2000/svg" xmlns:xlink="http://www.w3.org/1999/xlink">
<g id="graph0" class="graph" transform="scale(1 1) rotate(0) translate(4 81)">
<title>Gnuplot::plot_xy_err</title>
<polygon fill="white" stroke="white" points="-4,4 -4,-81 400,-81 400,4 -4,4"/>
<!-- Node1 -->
<g id="node1" class="node"><title>Node1</title>
<polygon fill="#bfbfbf" stroke="black" points="0,-38.5 0,-57.5 104,-57.5 104,-38.5 0,-38.5"/>
<text text-anchor="middle" x="52" y="-45.5" font-family="Helvetica,sans-Serif" font-size="10.00">Gnuplot::plot_xy_err</text>
</g>
<!-- Node2 -->
<g id="node2" class="node"><title>Node2</title>
<g id="a_node2"><a xlink:href="classGnuplot.xhtml#a8ced9e766e0677b938178dafe9264ff7" target="_top" xlink:title="Cria arquivo temporario. ">
<polygon fill="white" stroke="black" points="140,-57.5 140,-76.5 258,-76.5 258,-57.5 140,-57.5"/>
<text text-anchor="middle" x="199" y="-64.5" font-family="Helvetica,sans-Serif" font-size="10.00">Gnuplot::create_tmpfile</text>
</a>
</g>
</g>
<!-- Node1&#45;&gt;Node2 -->
<g id="edge1" class="edge"><title>Node1&#45;&gt;Node2</title>
<path fill="none" stroke="midnightblue" d="M104.122,-54.6987C112.443,-55.7891 121.178,-56.9336 129.83,-58.0673"/>
<polygon fill="midnightblue" stroke="midnightblue" points="129.549,-61.5604 139.919,-59.3894 130.458,-54.6197 129.549,-61.5604"/>
</g>
<!-- Node3 -->
<g id="node3" class="node"><title>Node3</title>
<g id="a_node3"><a xlink:href="classGnuplot.xhtml#a33ab4bb031fa6a6b798c90a9089648e9" target="_top" xlink:title="Plota pares x,y com barra de erro dy a partir de um arquivo. ">
<polygon fill="white" stroke="black" points="140.5,-19.5 140.5,-38.5 257.5,-38.5 257.5,-19.5 140.5,-19.5"/>
<text text-anchor="middle" x="199" y="-26.5" font-family="Helvetica,sans-Serif" font-size="10.00">Gnuplot::plotfile_xy_err</text>
</a>
</g>
</g>
<!-- Node1&#45;&gt;Node3 -->
<g id="edge2" class="edge"><title>Node1&#45;&gt;Node3</title>
<path fill="none" stroke="midnightblue" d="M104.122,-41.3013C112.652,-40.1835 121.617,-39.0089 130.481,-37.8473"/>
<polygon fill="midnightblue" stroke="midnightblue" points="130.958,-41.3148 140.419,-36.5451 130.049,-34.3741 130.958,-41.3148"/>
</g>
<!-- Node4 -->
<g id="node4" class="node"><title>Node4</title>
<g id="a_node4"><a xlink:href="classGnuplot.xhtml#abc0f1d75cb78804a5b8efdfa4df582cd" target="_top" xlink:title="Checa se o arquivo existe. ">
<polygon fill="white" stroke="black" points="294.5,-38.5 294.5,-57.5 395.5,-57.5 395.5,-38.5 294.5,-38.5"/>
<text text-anchor="middle" x="345" y="-45.5" font-family="Helvetica,sans-Serif" font-size="10.00">Gnuplot::file_exists</text>
</a>
</g>
</g>
<!-- Node3&#45;&gt;Node4 -->
<g id="edge3" class="edge"><title>Node3&#45;&gt;Node4</title>
<path fill="none" stroke="midnightblue" d="M257.741,-36.6185C266.401,-37.7613 275.349,-38.9419 284.055,-40.0905"/>
<polygon fill="midnightblue" stroke="midnightblue" points="283.759,-43.5818 294.131,-41.4201 284.675,-36.642 283.759,-43.5818"/>
</g>
<!-- Node5 -->
<g id="node5" class="node"><title>Node5</title>
<g id="a_node5"><a xlink:href="classGnuplot.xhtml#a07607803ede8dd5416906df0a1924fc5" target="_top" xlink:title="Envia comando para o gnuplot. ">
<polygon fill="white" stroke="black" points="307.5,-0.5 307.5,-19.5 382.5,-19.5 382.5,-0.5 307.5,-0.5"/>
<text text-anchor="middle" x="345" y="-7.5" font-family="Helvetica,sans-Serif" font-size="10.00">Gnuplot::cmd</text>
</a>
</g>
</g>
<!-- Node3&#45;&gt;Node5 -->
<g id="edge4" class="edge"><title>Node3&#45;&gt;Node5</title>
<path fill="none" stroke="midnightblue" d="M257.741,-21.3815C270.822,-19.6554 284.558,-17.843 297.126,-16.1847"/>
<polygon fill="midnightblue" stroke="midnightblue" points="297.913,-19.6114 307.369,-14.8333 296.997,-12.6715 297.913,-19.6114"/>
</g>
</g>
</svg>
