<?xml version="1.0" encoding="UTF-8" standalone="no"?>
<!DOCTYPE svg PUBLIC "-//W3C//DTD SVG 1.1//EN"
 "http://www.w3.org/Graphics/SVG/1.1/DTD/svg11.dtd">
<!-- Generated by graphviz version 2.34.0 (20140110.0949)
 -->
<!-- Title: Gnuplot::plotfile_xy Pages: 1 -->
<svg width="374pt" height="85pt"
 viewBox="0.00 0.00 374.00 85.00" xmlns="http://www.w3.org/2000/svg" xmlns:xlink="http://www.w3.org/1999/xlink">
<g id="graph0" class="graph" transform="scale(1 1) rotate(0) translate(4 81)">
<title>Gnuplot::plotfile_xy</title>
<polygon fill="white" stroke="white" points="-4,4 -4,-81 370,-81 370,4 -4,4"/>
<!-- Node1 -->
<g id="node1" class="node"><title>Node1</title>
<polygon fill="#bfbfbf" stroke="black" points="0.5,-19.5 0.5,-38.5 101.5,-38.5 101.5,-19.5 0.5,-19.5"/>
<text text-anchor="middle" x="51" y="-26.5" font-family="Helvetica,sans-Serif" font-size="10.00">Gnuplot::plotfile_xy</text>
</g>
<!-- Node2 -->
<g id="node2" class="node"><title>Node2</title>
<g id="a_node2"><a xlink:href="classGnuplot.xhtml#a777b6a5474951d6d023dff4237d80a2b" target="_top" xlink:title="Plota pares x,y a partir de vetores. ">
<polygon fill="white" stroke="black" points="139,-38.5 139,-57.5 227,-57.5 227,-38.5 139,-38.5"/>
<text text-anchor="middle" x="183" y="-45.5" font-family="Helvetica,sans-Serif" font-size="10.00">Gnuplot::plot_xy</text>
</a>
</g>
</g>
<!-- Node1&#45;&gt;Node2 -->
<g id="edge1" class="edge"><title>Node1&#45;&gt;Node2</title>
<path fill="none" stroke="midnightblue" d="M111.484,-37.6939C120.756,-39.049 130.179,-40.4262 138.991,-41.7141"/>
<polygon fill="midnightblue" stroke="midnightblue" points="111.919,-34.2203 101.518,-36.2373 110.907,-41.1468 111.919,-34.2203"/>
</g>
<!-- Node5 -->
<g id="node5" class="node"><title>Node5</title>
<g id="a_node5"><a xlink:href="classGnuplot.xhtml#a68d5b282f0fc0d65d432009b55705cbd" target="_top" xlink:title="Plota pares x,y a partir de um arquivo de disco. ">
<polygon fill="white" stroke="black" points="138.5,-0.5 138.5,-19.5 227.5,-19.5 227.5,-0.5 138.5,-0.5"/>
<text text-anchor="middle" x="183" y="-7.5" font-family="Helvetica,sans-Serif" font-size="10.00">Gnuplot::PlotFile</text>
</a>
</g>
</g>
<!-- Node1&#45;&gt;Node5 -->
<g id="edge4" class="edge"><title>Node1&#45;&gt;Node5</title>
<path fill="none" stroke="midnightblue" d="M111.539,-20.2981C120.5,-18.9884 129.6,-17.6584 138.152,-16.4085"/>
<polygon fill="midnightblue" stroke="midnightblue" points="110.907,-16.8532 101.518,-21.7627 111.919,-23.7797 110.907,-16.8532"/>
</g>
<!-- Node3 -->
<g id="node3" class="node"><title>Node3</title>
<g id="a_node3"><a xlink:href="classGnuplot.xhtml#a24327b6116c71acdc195eadf665c67cb" target="_top" xlink:title="Construtor, plota um grafico do tipo x_y a partir de vetores, diretamente na construcao. ">
<polygon fill="white" stroke="black" points="270,-57.5 270,-76.5 360,-76.5 360,-57.5 270,-57.5"/>
<text text-anchor="middle" x="315" y="-64.5" font-family="Helvetica,sans-Serif" font-size="10.00">Gnuplot::Gnuplot</text>
</a>
</g>
</g>
<!-- Node2&#45;&gt;Node3 -->
<g id="edge2" class="edge"><title>Node2&#45;&gt;Node3</title>
<path fill="none" stroke="midnightblue" d="M237.375,-55.8009C248.075,-57.3648 259.21,-58.9923 269.568,-60.5061"/>
<polygon fill="midnightblue" stroke="midnightblue" points="237.689,-52.3098 227.288,-54.3267 236.677,-59.2362 237.689,-52.3098"/>
</g>
<!-- Node4 -->
<g id="node4" class="node"><title>Node4</title>
<g id="a_node4"><a xlink:href="classGnuplot.xhtml#ae282636936128008b2c82f569f607820" target="_top" xlink:title="Plota pares x,y a partir de vetores. ">
<polygon fill="white" stroke="black" points="264,-19.5 264,-38.5 366,-38.5 366,-19.5 264,-19.5"/>
<text text-anchor="middle" x="315" y="-26.5" font-family="Helvetica,sans-Serif" font-size="10.00">Gnuplot::PlotVector</text>
</a>
</g>
</g>
<!-- Node2&#45;&gt;Node4 -->
<g id="edge3" class="edge"><title>Node2&#45;&gt;Node4</title>
<path fill="none" stroke="midnightblue" d="M237.346,-40.2033C246.06,-38.9297 255.063,-37.6138 263.701,-36.3514"/>
<polygon fill="midnightblue" stroke="midnightblue" points="236.677,-36.7638 227.288,-41.6733 237.689,-43.6902 236.677,-36.7638"/>
</g>
</g>
</svg>
