<?xml version="1.0" encoding="UTF-8" standalone="no"?>
<!DOCTYPE svg PUBLIC "-//W3C//DTD SVG 1.1//EN"
 "http://www.w3.org/Graphics/SVG/1.1/DTD/svg11.dtd">
<!-- Generated by graphviz version 2.34.0 (20140110.0949)
 -->
<!-- Title: CMeioPoroso_Telha_Discretizada_TDMA::DadosDefault Pages: 1 -->
<svg width="868pt" height="82pt"
 viewBox="0.00 0.00 868.00 82.00" xmlns="http://www.w3.org/2000/svg" xmlns:xlink="http://www.w3.org/1999/xlink">
<g id="graph0" class="graph" transform="scale(1 1) rotate(0) translate(4 78)">
<title>CMeioPoroso_Telha_Discretizada_TDMA::DadosDefault</title>
<polygon fill="white" stroke="white" points="-4,4 -4,-78 864,-78 864,4 -4,4"/>
<!-- Node1 -->
<g id="node1" class="node"><title>Node1</title>
<polygon fill="#bfbfbf" stroke="black" points="0.5,-22 0.5,-52 165.5,-52 165.5,-22 0.5,-22"/>
<text text-anchor="start" x="8.5" y="-40" font-family="Helvetica,sans-Serif" font-size="10.00">CMeioPoroso_Telha_Discretizada</text>
<text text-anchor="middle" x="83" y="-29" font-family="Helvetica,sans-Serif" font-size="10.00">_TDMA::DadosDefault</text>
</g>
<!-- Node2 -->
<g id="node2" class="node"><title>Node2</title>
<g id="a_node2"><a xlink:href="classCMeioPoroso__Telha__Discretizada__TDMA.xhtml#a60b109e2b1fce0d1980b921062594b85" target="_top" xlink:title="double errorecorrenciaol,errorecorrenciatp,errorecorrenciaola,errorecorrenciatpa; ...">
<polygon fill="white" stroke="black" points="202.5,-44 202.5,-74 441.5,-74 441.5,-44 202.5,-44"/>
<text text-anchor="start" x="210.5" y="-62" font-family="Helvetica,sans-Serif" font-size="10.00">CMeioPoroso_Telha_Discretizada</text>
<text text-anchor="middle" x="322" y="-51" font-family="Helvetica,sans-Serif" font-size="10.00">_TDMA::CMeioPoroso_Telha_Discretizada_TDMA</text>
</a>
</g>
</g>
<!-- Node1&#45;&gt;Node2 -->
<g id="edge1" class="edge"><title>Node1&#45;&gt;Node2</title>
<path fill="none" stroke="midnightblue" d="M175.736,-45.5156C184.494,-46.3285 193.457,-47.1606 202.421,-47.9927"/>
<polygon fill="midnightblue" stroke="midnightblue" points="175.843,-42.0105 165.562,-44.5712 175.196,-48.9806 175.843,-42.0105"/>
</g>
<!-- Node3 -->
<g id="node3" class="node"><title>Node3</title>
<g id="a_node3"><a xlink:href="classCSimulador__Telha.xhtml#aa2592b5ca7cce1ac595cc3a658a17c85" target="_top" xlink:title="Dados default. ">
<polygon fill="white" stroke="black" points="240.5,-5.5 240.5,-24.5 403.5,-24.5 403.5,-5.5 240.5,-5.5"/>
<text text-anchor="middle" x="322" y="-12.5" font-family="Helvetica,sans-Serif" font-size="10.00">CSimulador_Telha::DadosDefault</text>
</a>
</g>
</g>
<!-- Node1&#45;&gt;Node3 -->
<g id="edge2" class="edge"><title>Node1&#45;&gt;Node3</title>
<path fill="none" stroke="midnightblue" d="M175.619,-28.4953C197.007,-26.5099 219.628,-24.4101 240.491,-22.4734"/>
<polygon fill="midnightblue" stroke="midnightblue" points="175.196,-25.0194 165.562,-29.4288 175.843,-31.9895 175.196,-25.0194"/>
</g>
<!-- Node4 -->
<g id="node4" class="node"><title>Node4</title>
<g id="a_node4"><a xlink:href="classCSimulador__Telha__GanhosEnergia.xhtml#a8fee41da2f0f78851be425a7d0cc106d" target="_top" xlink:title="Dados default. ">
<polygon fill="white" stroke="black" points="478.5,-0 478.5,-30 647.5,-30 647.5,-0 478.5,-0"/>
<text text-anchor="start" x="486.5" y="-18" font-family="Helvetica,sans-Serif" font-size="10.00">CSimulador_Telha_GanhosEnergia</text>
<text text-anchor="middle" x="563" y="-7" font-family="Helvetica,sans-Serif" font-size="10.00">::DadosDefault</text>
</a>
</g>
</g>
<!-- Node3&#45;&gt;Node4 -->
<g id="edge3" class="edge"><title>Node3&#45;&gt;Node4</title>
<path fill="none" stroke="midnightblue" d="M413.827,-15C434.932,-15 457.305,-15 478.095,-15"/>
<polygon fill="midnightblue" stroke="midnightblue" points="413.581,-11.5001 403.581,-15 413.581,-18.5001 413.581,-11.5001"/>
</g>
<!-- Node5 -->
<g id="node5" class="node"><title>Node5</title>
<g id="a_node5"><a xlink:href="classCSimulador__Telha__GanhosEnergia.xhtml#a57fee722f2205904797acbfb7332f178" target="_top" xlink:title="Construtor. ">
<polygon fill="white" stroke="black" points="684.5,-0 684.5,-30 859.5,-30 859.5,-0 684.5,-0"/>
<text text-anchor="start" x="692.5" y="-18" font-family="Helvetica,sans-Serif" font-size="10.00">CSimulador_Telha_GanhosEnergia</text>
<text text-anchor="middle" x="772" y="-7" font-family="Helvetica,sans-Serif" font-size="10.00">::CSimulador_Telha_GanhosEnergia</text>
</a>
</g>
</g>
<!-- Node4&#45;&gt;Node5 -->
<g id="edge4" class="edge"><title>Node4&#45;&gt;Node5</title>
<path fill="none" stroke="midnightblue" d="M657.61,-15C666.527,-15 675.543,-15 684.389,-15"/>
<polygon fill="midnightblue" stroke="midnightblue" points="657.598,-11.5001 647.598,-15 657.598,-18.5001 657.598,-11.5001"/>
</g>
</g>
</svg>
