<?xml version="1.0" encoding="UTF-8" standalone="no"?>
<!DOCTYPE svg PUBLIC "-//W3C//DTD SVG 1.1//EN"
 "http://www.w3.org/Graphics/SVG/1.1/DTD/svg11.dtd">
<!-- Generated by graphviz version 2.34.0 (20140110.0949)
 -->
<!-- Title: Gnuplot::PlotFile Pages: 1 -->
<svg width="374pt" height="66pt"
 viewBox="0.00 0.00 374.00 66.00" xmlns="http://www.w3.org/2000/svg" xmlns:xlink="http://www.w3.org/1999/xlink">
<g id="graph0" class="graph" transform="scale(1 1) rotate(0) translate(4 62)">
<title>Gnuplot::PlotFile</title>
<polygon fill="white" stroke="white" points="-4,4 -4,-62 370,-62 370,4 -4,4"/>
<!-- Node1 -->
<g id="node1" class="node"><title>Node1</title>
<polygon fill="#bfbfbf" stroke="black" points="0.5,-19.5 0.5,-38.5 89.5,-38.5 89.5,-19.5 0.5,-19.5"/>
<text text-anchor="middle" x="45" y="-26.5" font-family="Helvetica,sans-Serif" font-size="10.00">Gnuplot::PlotFile</text>
</g>
<!-- Node2 -->
<g id="node2" class="node"><title>Node2</title>
<g id="a_node2"><a xlink:href="classGnuplot.xhtml#af226f395310d3c5c4f8b4d2aaf5d8823" target="_top" xlink:title="Plota pares x,y a partir de um arquivo de disco. ">
<polygon fill="white" stroke="black" points="126.5,-19.5 126.5,-38.5 227.5,-38.5 227.5,-19.5 126.5,-19.5"/>
<text text-anchor="middle" x="177" y="-26.5" font-family="Helvetica,sans-Serif" font-size="10.00">Gnuplot::plotfile_xy</text>
</a>
</g>
</g>
<!-- Node1&#45;&gt;Node2 -->
<g id="edge1" class="edge"><title>Node1&#45;&gt;Node2</title>
<path fill="none" stroke="midnightblue" d="M89.6498,-29C98.2246,-29 107.357,-29 116.352,-29"/>
<polygon fill="midnightblue" stroke="midnightblue" points="116.412,-32.5001 126.412,-29 116.412,-25.5001 116.412,-32.5001"/>
</g>
<!-- Node3 -->
<g id="node3" class="node"><title>Node3</title>
<g id="a_node3"><a xlink:href="classGnuplot.xhtml#abc0f1d75cb78804a5b8efdfa4df582cd" target="_top" xlink:title="Checa se o arquivo existe. ">
<polygon fill="white" stroke="black" points="264.5,-38.5 264.5,-57.5 365.5,-57.5 365.5,-38.5 264.5,-38.5"/>
<text text-anchor="middle" x="315" y="-45.5" font-family="Helvetica,sans-Serif" font-size="10.00">Gnuplot::file_exists</text>
</a>
</g>
</g>
<!-- Node2&#45;&gt;Node3 -->
<g id="edge2" class="edge"><title>Node2&#45;&gt;Node3</title>
<path fill="none" stroke="midnightblue" d="M227.869,-35.967C236.369,-37.1545 245.277,-38.399 254.006,-39.6186"/>
<polygon fill="midnightblue" stroke="midnightblue" points="253.749,-43.1165 264.137,-41.0338 254.717,-36.1838 253.749,-43.1165"/>
</g>
<!-- Node4 -->
<g id="node4" class="node"><title>Node4</title>
<g id="a_node4"><a xlink:href="classGnuplot.xhtml#a07607803ede8dd5416906df0a1924fc5" target="_top" xlink:title="Envia comando para o gnuplot. ">
<polygon fill="white" stroke="black" points="277.5,-0.5 277.5,-19.5 352.5,-19.5 352.5,-0.5 277.5,-0.5"/>
<text text-anchor="middle" x="315" y="-7.5" font-family="Helvetica,sans-Serif" font-size="10.00">Gnuplot::cmd</text>
</a>
</g>
</g>
<!-- Node2&#45;&gt;Node4 -->
<g id="edge3" class="edge"><title>Node2&#45;&gt;Node4</title>
<path fill="none" stroke="midnightblue" d="M227.869,-22.033C240.79,-20.2279 254.653,-18.2912 267.399,-16.5105"/>
<polygon fill="midnightblue" stroke="midnightblue" points="267.923,-19.9714 277.342,-15.1213 266.954,-13.0387 267.923,-19.9714"/>
</g>
</g>
</svg>
