<?xml version="1.0" encoding="UTF-8" standalone="no"?>
<!DOCTYPE svg PUBLIC "-//W3C//DTD SVG 1.1//EN"
 "http://www.w3.org/Graphics/SVG/1.1/DTD/svg11.dtd">
<!-- Generated by graphviz version 2.34.0 (20140110.0949)
 -->
<!-- Title: CSimulador_Telha::DadosDefault Pages: 1 -->
<svg width="590pt" height="38pt"
 viewBox="0.00 0.00 590.00 38.00" xmlns="http://www.w3.org/2000/svg" xmlns:xlink="http://www.w3.org/1999/xlink">
<g id="graph0" class="graph" transform="scale(1 1) rotate(0) translate(4 34)">
<title>CSimulador_Telha::DadosDefault</title>
<polygon fill="white" stroke="white" points="-4,4 -4,-34 586,-34 586,4 -4,4"/>
<!-- Node1 -->
<g id="node1" class="node"><title>Node1</title>
<polygon fill="#bfbfbf" stroke="black" points="0.5,-5.5 0.5,-24.5 163.5,-24.5 163.5,-5.5 0.5,-5.5"/>
<text text-anchor="middle" x="82" y="-12.5" font-family="Helvetica,sans-Serif" font-size="10.00">CSimulador_Telha::DadosDefault</text>
</g>
<!-- Node2 -->
<g id="node2" class="node"><title>Node2</title>
<g id="a_node2"><a xlink:href="classCSimulador__Telha__GanhosEnergia.xhtml#a8fee41da2f0f78851be425a7d0cc106d" target="_top" xlink:title="Dados default. ">
<polygon fill="white" stroke="black" points="200.5,-0 200.5,-30 369.5,-30 369.5,-0 200.5,-0"/>
<text text-anchor="start" x="208.5" y="-18" font-family="Helvetica,sans-Serif" font-size="10.00">CSimulador_Telha_GanhosEnergia</text>
<text text-anchor="middle" x="285" y="-7" font-family="Helvetica,sans-Serif" font-size="10.00">::DadosDefault</text>
</a>
</g>
</g>
<!-- Node1&#45;&gt;Node2 -->
<g id="edge1" class="edge"><title>Node1&#45;&gt;Node2</title>
<path fill="none" stroke="midnightblue" d="M173.616,-15C182.544,-15 191.577,-15 200.429,-15"/>
<polygon fill="midnightblue" stroke="midnightblue" points="173.596,-11.5001 163.596,-15 173.596,-18.5001 173.596,-11.5001"/>
</g>
<!-- Node3 -->
<g id="node3" class="node"><title>Node3</title>
<g id="a_node3"><a xlink:href="classCSimulador__Telha__GanhosEnergia.xhtml#a57fee722f2205904797acbfb7332f178" target="_top" xlink:title="Construtor. ">
<polygon fill="white" stroke="black" points="406.5,-0 406.5,-30 581.5,-30 581.5,-0 406.5,-0"/>
<text text-anchor="start" x="414.5" y="-18" font-family="Helvetica,sans-Serif" font-size="10.00">CSimulador_Telha_GanhosEnergia</text>
<text text-anchor="middle" x="494" y="-7" font-family="Helvetica,sans-Serif" font-size="10.00">::CSimulador_Telha_GanhosEnergia</text>
</a>
</g>
</g>
<!-- Node2&#45;&gt;Node3 -->
<g id="edge2" class="edge"><title>Node2&#45;&gt;Node3</title>
<path fill="none" stroke="midnightblue" d="M379.61,-15C388.527,-15 397.543,-15 406.389,-15"/>
<polygon fill="midnightblue" stroke="midnightblue" points="379.598,-11.5001 369.598,-15 379.598,-18.5001 379.598,-11.5001"/>
</g>
</g>
</svg>
