<?xml version="1.0" encoding="UTF-8" standalone="no"?>
<!DOCTYPE svg PUBLIC "-//W3C//DTD SVG 1.1//EN"
 "http://www.w3.org/Graphics/SVG/1.1/DTD/svg11.dtd">
<!-- Generated by graphviz version 2.34.0 (20140110.0949)
 -->
<!-- Title: Gnuplot::plotfile_xyz Pages: 1 -->
<svg width="252pt" height="66pt"
 viewBox="0.00 0.00 252.00 66.00" xmlns="http://www.w3.org/2000/svg" xmlns:xlink="http://www.w3.org/1999/xlink">
<g id="graph0" class="graph" transform="scale(1 1) rotate(0) translate(4 62)">
<title>Gnuplot::plotfile_xyz</title>
<polygon fill="white" stroke="white" points="-4,4 -4,-62 248,-62 248,4 -4,4"/>
<!-- Node1 -->
<g id="node1" class="node"><title>Node1</title>
<polygon fill="#bfbfbf" stroke="black" points="0,-19.5 0,-38.5 106,-38.5 106,-19.5 0,-19.5"/>
<text text-anchor="middle" x="53" y="-26.5" font-family="Helvetica,sans-Serif" font-size="10.00">Gnuplot::plotfile_xyz</text>
</g>
<!-- Node2 -->
<g id="node2" class="node"><title>Node2</title>
<g id="a_node2"><a xlink:href="classGnuplot.xhtml#a07607803ede8dd5416906df0a1924fc5" target="_top" xlink:title="Envia comando para o gnuplot. ">
<polygon fill="white" stroke="black" points="155.5,-38.5 155.5,-57.5 230.5,-57.5 230.5,-38.5 155.5,-38.5"/>
<text text-anchor="middle" x="193" y="-45.5" font-family="Helvetica,sans-Serif" font-size="10.00">Gnuplot::cmd</text>
</a>
</g>
</g>
<!-- Node1&#45;&gt;Node2 -->
<g id="edge1" class="edge"><title>Node1&#45;&gt;Node2</title>
<path fill="none" stroke="midnightblue" d="M106.172,-36.1831C118.933,-37.94 132.511,-39.8095 145.013,-41.5308"/>
<polygon fill="midnightblue" stroke="midnightblue" points="144.836,-45.0393 155.22,-42.936 145.79,-38.1047 144.836,-45.0393"/>
</g>
<!-- Node3 -->
<g id="node3" class="node"><title>Node3</title>
<g id="a_node3"><a xlink:href="classGnuplot.xhtml#abc0f1d75cb78804a5b8efdfa4df582cd" target="_top" xlink:title="Checa se o arquivo existe. ">
<polygon fill="white" stroke="black" points="142.5,-0.5 142.5,-19.5 243.5,-19.5 243.5,-0.5 142.5,-0.5"/>
<text text-anchor="middle" x="193" y="-7.5" font-family="Helvetica,sans-Serif" font-size="10.00">Gnuplot::file_exists</text>
</a>
</g>
</g>
<!-- Node1&#45;&gt;Node3 -->
<g id="edge2" class="edge"><title>Node1&#45;&gt;Node3</title>
<path fill="none" stroke="midnightblue" d="M106.172,-21.8169C114.73,-20.6386 123.656,-19.4097 132.378,-18.2088"/>
<polygon fill="midnightblue" stroke="midnightblue" points="133.06,-21.648 142.489,-16.8167 132.106,-14.7134 133.06,-21.648"/>
</g>
</g>
</svg>
