<?xml version="1.0" encoding="UTF-8" standalone="no"?>
<!DOCTYPE svg PUBLIC "-//W3C//DTD SVG 1.1//EN"
 "http://www.w3.org/Graphics/SVG/1.1/DTD/svg11.dtd">
<!-- Generated by graphviz version 2.34.0 (20140110.0949)
 -->
<!-- Title: Gnuplot::PlotEquation Pages: 1 -->
<svg width="382pt" height="28pt"
 viewBox="0.00 0.00 382.00 28.00" xmlns="http://www.w3.org/2000/svg" xmlns:xlink="http://www.w3.org/1999/xlink">
<g id="graph0" class="graph" transform="scale(1 1) rotate(0) translate(4 24)">
<title>Gnuplot::PlotEquation</title>
<polygon fill="white" stroke="white" points="-4,4 -4,-24 378,-24 378,4 -4,4"/>
<!-- Node1 -->
<g id="node1" class="node"><title>Node1</title>
<polygon fill="#bfbfbf" stroke="black" points="0,-0.5 0,-19.5 112,-19.5 112,-0.5 0,-0.5"/>
<text text-anchor="middle" x="56" y="-7.5" font-family="Helvetica,sans-Serif" font-size="10.00">Gnuplot::PlotEquation</text>
</g>
<!-- Node2 -->
<g id="node2" class="node"><title>Node2</title>
<g id="a_node2"><a xlink:href="classGnuplot.xhtml#a42dfb8c9d4636745c7be277ed818e849" target="_top" xlink:title="Plota uma equacao fornecida como uma std::string y=f(x). Escrever somente a funcao f(x) e nao y= A va...">
<polygon fill="white" stroke="black" points="148,-0.5 148,-19.5 262,-19.5 262,-0.5 148,-0.5"/>
<text text-anchor="middle" x="205" y="-7.5" font-family="Helvetica,sans-Serif" font-size="10.00">Gnuplot::plot_equation</text>
</a>
</g>
</g>
<!-- Node1&#45;&gt;Node2 -->
<g id="edge1" class="edge"><title>Node1&#45;&gt;Node2</title>
<path fill="none" stroke="midnightblue" d="M112.156,-10C120.38,-10 128.932,-10 137.362,-10"/>
<polygon fill="midnightblue" stroke="midnightblue" points="137.555,-13.5001 147.555,-10 137.555,-6.5001 137.555,-13.5001"/>
</g>
<!-- Node3 -->
<g id="node3" class="node"><title>Node3</title>
<g id="a_node3"><a xlink:href="classGnuplot.xhtml#a07607803ede8dd5416906df0a1924fc5" target="_top" xlink:title="Envia comando para o gnuplot. ">
<polygon fill="white" stroke="black" points="298.5,-0.5 298.5,-19.5 373.5,-19.5 373.5,-0.5 298.5,-0.5"/>
<text text-anchor="middle" x="336" y="-7.5" font-family="Helvetica,sans-Serif" font-size="10.00">Gnuplot::cmd</text>
</a>
</g>
</g>
<!-- Node2&#45;&gt;Node3 -->
<g id="edge2" class="edge"><title>Node2&#45;&gt;Node3</title>
<path fill="none" stroke="midnightblue" d="M262.206,-10C270.895,-10 279.787,-10 288.239,-10"/>
<polygon fill="midnightblue" stroke="midnightblue" points="288.287,-13.5001 298.287,-10 288.287,-6.5001 288.287,-13.5001"/>
</g>
</g>
</svg>
