<?xml version="1.0" encoding="UTF-8" standalone="no"?>
<!DOCTYPE svg PUBLIC "-//W3C//DTD SVG 1.1//EN"
 "http://www.w3.org/Graphics/SVG/1.1/DTD/svg11.dtd">
<!-- Generated by graphviz version 2.34.0 (20140110.0949)
 -->
<!-- Title: Gnuplot::Legend Pages: 1 -->
<svg width="358pt" height="66pt"
 viewBox="0.00 0.00 358.00 66.00" xmlns="http://www.w3.org/2000/svg" xmlns:xlink="http://www.w3.org/1999/xlink">
<g id="graph0" class="graph" transform="scale(1 1) rotate(0) translate(4 62)">
<title>Gnuplot::Legend</title>
<polygon fill="white" stroke="white" points="-4,4 -4,-62 354,-62 354,4 -4,4"/>
<!-- Node1 -->
<g id="node1" class="node"><title>Node1</title>
<polygon fill="#bfbfbf" stroke="black" points="0,-19.5 0,-38.5 88,-38.5 88,-19.5 0,-19.5"/>
<text text-anchor="middle" x="44" y="-26.5" font-family="Helvetica,sans-Serif" font-size="10.00">Gnuplot::Legend</text>
</g>
<!-- Node2 -->
<g id="node2" class="node"><title>Node2</title>
<g id="a_node2"><a xlink:href="classGnuplot.xhtml#ad64a717dac18167f656c4f09239973f8" target="_top" xlink:title="Ativa a legenda (a legenda é setada por padrao). Posicao: inside/outside, left/center/right, top/center/bottom, nobox/box. ">
<polygon fill="white" stroke="black" points="129,-38.5 129,-57.5 233,-57.5 233,-38.5 129,-38.5"/>
<text text-anchor="middle" x="181" y="-45.5" font-family="Helvetica,sans-Serif" font-size="10.00">Gnuplot::set_legend</text>
</a>
</g>
</g>
<!-- Node1&#45;&gt;Node2 -->
<g id="edge1" class="edge"><title>Node1&#45;&gt;Node2</title>
<path fill="none" stroke="midnightblue" d="M88.086,-35.064C97.8089,-36.4324 108.313,-37.9107 118.624,-39.362"/>
<polygon fill="midnightblue" stroke="midnightblue" points="118.446,-42.8712 128.836,-40.7991 119.421,-35.9395 118.446,-42.8712"/>
</g>
<!-- Node4 -->
<g id="node4" class="node"><title>Node4</title>
<g id="a_node4"><a xlink:href="classGnuplot.xhtml#a584e0710d7f5bcaa35653d1987f1563e" target="_top" xlink:title="Desativa a legenda (a legenda é setada por padrao). ">
<polygon fill="white" stroke="black" points="124,-0.5 124,-19.5 238,-19.5 238,-0.5 124,-0.5"/>
<text text-anchor="middle" x="181" y="-7.5" font-family="Helvetica,sans-Serif" font-size="10.00">Gnuplot::unset_legend</text>
</a>
</g>
</g>
<!-- Node1&#45;&gt;Node4 -->
<g id="edge3" class="edge"><title>Node1&#45;&gt;Node4</title>
<path fill="none" stroke="midnightblue" d="M88.086,-22.936C96.1836,-21.7964 104.823,-20.5805 113.442,-19.3675"/>
<polygon fill="midnightblue" stroke="midnightblue" points="114.102,-22.8092 123.516,-17.9496 113.126,-15.8775 114.102,-22.8092"/>
</g>
<!-- Node3 -->
<g id="node3" class="node"><title>Node3</title>
<g id="a_node3"><a xlink:href="classGnuplot.xhtml#a07607803ede8dd5416906df0a1924fc5" target="_top" xlink:title="Envia comando para o gnuplot. ">
<polygon fill="white" stroke="black" points="274.5,-19.5 274.5,-38.5 349.5,-38.5 349.5,-19.5 274.5,-19.5"/>
<text text-anchor="middle" x="312" y="-26.5" font-family="Helvetica,sans-Serif" font-size="10.00">Gnuplot::cmd</text>
</a>
</g>
</g>
<!-- Node2&#45;&gt;Node3 -->
<g id="edge2" class="edge"><title>Node2&#45;&gt;Node3</title>
<path fill="none" stroke="midnightblue" d="M233.355,-40.4361C243.471,-38.9461 254.039,-37.3897 264.003,-35.9221"/>
<polygon fill="midnightblue" stroke="midnightblue" points="264.741,-39.3512 274.124,-34.4313 263.721,-32.4259 264.741,-39.3512"/>
</g>
<!-- Node4&#45;&gt;Node3 -->
<g id="edge4" class="edge"><title>Node4&#45;&gt;Node3</title>
<path fill="none" stroke="midnightblue" d="M238.206,-18.2784C246.895,-19.5581 255.787,-20.8679 264.239,-22.1128"/>
<polygon fill="midnightblue" stroke="midnightblue" points="263.884,-25.5981 274.287,-23.5927 264.904,-18.6728 263.884,-25.5981"/>
</g>
</g>
</svg>
