<?xml version="1.0" encoding="UTF-8" standalone="no"?>
<!DOCTYPE svg PUBLIC "-//W3C//DTD SVG 1.1//EN"
 "http://www.w3.org/Graphics/SVG/1.1/DTD/svg11.dtd">
<!-- Generated by graphviz version 2.34.0 (20140110.0949)
 -->
<!-- Title: Gnuplot::Path Pages: 1 -->
<svg width="396pt" height="28pt"
 viewBox="0.00 0.00 396.00 28.00" xmlns="http://www.w3.org/2000/svg" xmlns:xlink="http://www.w3.org/1999/xlink">
<g id="graph0" class="graph" transform="scale(1 1) rotate(0) translate(4 24)">
<title>Gnuplot::Path</title>
<polygon fill="white" stroke="white" points="-4,4 -4,-24 392,-24 392,4 -4,4"/>
<!-- Node1 -->
<g id="node1" class="node"><title>Node1</title>
<polygon fill="#bfbfbf" stroke="black" points="0.5,-0.5 0.5,-19.5 77.5,-19.5 77.5,-0.5 0.5,-0.5"/>
<text text-anchor="middle" x="39" y="-7.5" font-family="Helvetica,sans-Serif" font-size="10.00">Gnuplot::Path</text>
</g>
<!-- Node2 -->
<g id="node2" class="node"><title>Node2</title>
<g id="a_node2"><a xlink:href="classGnuplot.xhtml#a67cae885c26ced821e335d98986f1967" target="_top" xlink:title="Seta caminho para path do gnuplot. ">
<polygon fill="white" stroke="black" points="114.5,-0.5 114.5,-19.5 249.5,-19.5 249.5,-0.5 114.5,-0.5"/>
<text text-anchor="middle" x="182" y="-7.5" font-family="Helvetica,sans-Serif" font-size="10.00">Gnuplot::set_GNUPlotPath</text>
</a>
</g>
</g>
<!-- Node1&#45;&gt;Node2 -->
<g id="edge1" class="edge"><title>Node1&#45;&gt;Node2</title>
<path fill="none" stroke="midnightblue" d="M77.7854,-10C85.9645,-10 94.8984,-10 103.978,-10"/>
<polygon fill="midnightblue" stroke="midnightblue" points="104.258,-13.5001 114.258,-10 104.258,-6.5001 104.258,-13.5001"/>
</g>
<!-- Node3 -->
<g id="node3" class="node"><title>Node3</title>
<g id="a_node3"><a xlink:href="classGnuplot.xhtml#abc0f1d75cb78804a5b8efdfa4df582cd" target="_top" xlink:title="Checa se o arquivo existe. ">
<polygon fill="white" stroke="black" points="286.5,-0.5 286.5,-19.5 387.5,-19.5 387.5,-0.5 286.5,-0.5"/>
<text text-anchor="middle" x="337" y="-7.5" font-family="Helvetica,sans-Serif" font-size="10.00">Gnuplot::file_exists</text>
</a>
</g>
</g>
<!-- Node2&#45;&gt;Node3 -->
<g id="edge2" class="edge"><title>Node2&#45;&gt;Node3</title>
<path fill="none" stroke="midnightblue" d="M249.663,-10C258.461,-10 267.435,-10 276.11,-10"/>
<polygon fill="midnightblue" stroke="midnightblue" points="276.127,-13.5001 286.127,-10 276.127,-6.5001 276.127,-13.5001"/>
</g>
</g>
</svg>
