<?xml version="1.0" encoding="UTF-8" standalone="no"?>
<!DOCTYPE svg PUBLIC "-//W3C//DTD SVG 1.1//EN"
 "http://www.w3.org/Graphics/SVG/1.1/DTD/svg11.dtd">
<!-- Generated by graphviz version 2.34.0 (20140110.0949)
 -->
<!-- Title: Gnuplot::PlotVector Pages: 1 -->
<svg width="532pt" height="85pt"
 viewBox="0.00 0.00 532.00 85.00" xmlns="http://www.w3.org/2000/svg" xmlns:xlink="http://www.w3.org/1999/xlink">
<g id="graph0" class="graph" transform="scale(1 1) rotate(0) translate(4 81)">
<title>Gnuplot::PlotVector</title>
<polygon fill="white" stroke="white" points="-4,4 -4,-81 528,-81 528,4 -4,4"/>
<!-- Node1 -->
<g id="node1" class="node"><title>Node1</title>
<polygon fill="#bfbfbf" stroke="black" points="0,-38.5 0,-57.5 102,-57.5 102,-38.5 0,-38.5"/>
<text text-anchor="middle" x="51" y="-45.5" font-family="Helvetica,sans-Serif" font-size="10.00">Gnuplot::PlotVector</text>
</g>
<!-- Node2 -->
<g id="node2" class="node"><title>Node2</title>
<g id="a_node2"><a xlink:href="classGnuplot.xhtml#aee30f21a00a4f31c8356a2ef1f0e26e3" target="_top" xlink:title="Plota valores de x,y,z a partir de vetores. ">
<polygon fill="white" stroke="black" points="138.5,-38.5 138.5,-57.5 231.5,-57.5 231.5,-38.5 138.5,-38.5"/>
<text text-anchor="middle" x="185" y="-45.5" font-family="Helvetica,sans-Serif" font-size="10.00">Gnuplot::plot_xyz</text>
</a>
</g>
</g>
<!-- Node1&#45;&gt;Node2 -->
<g id="edge1" class="edge"><title>Node1&#45;&gt;Node2</title>
<path fill="none" stroke="midnightblue" d="M102.28,-48C110.671,-48 119.422,-48 127.947,-48"/>
<polygon fill="midnightblue" stroke="midnightblue" points="128.193,-51.5001 138.193,-48 128.193,-44.5001 128.193,-51.5001"/>
</g>
<!-- Node3 -->
<g id="node3" class="node"><title>Node3</title>
<g id="a_node3"><a xlink:href="classGnuplot.xhtml#a8ced9e766e0677b938178dafe9264ff7" target="_top" xlink:title="Cria arquivo temporario. ">
<polygon fill="white" stroke="black" points="268,-57.5 268,-76.5 386,-76.5 386,-57.5 268,-57.5"/>
<text text-anchor="middle" x="327" y="-64.5" font-family="Helvetica,sans-Serif" font-size="10.00">Gnuplot::create_tmpfile</text>
</a>
</g>
</g>
<!-- Node2&#45;&gt;Node3 -->
<g id="edge2" class="edge"><title>Node2&#45;&gt;Node3</title>
<path fill="none" stroke="midnightblue" d="M231.841,-54.2213C240.185,-55.3536 249.05,-56.5568 257.876,-57.7545"/>
<polygon fill="midnightblue" stroke="midnightblue" points="257.413,-61.2238 267.793,-59.1005 258.355,-54.2874 257.413,-61.2238"/>
</g>
<!-- Node4 -->
<g id="node4" class="node"><title>Node4</title>
<g id="a_node4"><a xlink:href="classGnuplot.xhtml#abd1c17c49fc59979a1143384c77c5b66" target="_top" xlink:title="Plota valores de x,y,z a partir de um arquivo de disco. ">
<polygon fill="white" stroke="black" points="274,-19.5 274,-38.5 380,-38.5 380,-19.5 274,-19.5"/>
<text text-anchor="middle" x="327" y="-26.5" font-family="Helvetica,sans-Serif" font-size="10.00">Gnuplot::plotfile_xyz</text>
</a>
</g>
</g>
<!-- Node2&#45;&gt;Node4 -->
<g id="edge3" class="edge"><title>Node2&#45;&gt;Node4</title>
<path fill="none" stroke="midnightblue" d="M231.841,-41.7787C241.994,-40.4008 252.919,-38.9181 263.606,-37.4678"/>
<polygon fill="midnightblue" stroke="midnightblue" points="264.306,-40.9049 273.745,-36.0918 263.365,-33.9685 264.306,-40.9049"/>
</g>
<!-- Node5 -->
<g id="node5" class="node"><title>Node5</title>
<g id="a_node5"><a xlink:href="classGnuplot.xhtml#a07607803ede8dd5416906df0a1924fc5" target="_top" xlink:title="Envia comando para o gnuplot. ">
<polygon fill="white" stroke="black" points="435.5,-38.5 435.5,-57.5 510.5,-57.5 510.5,-38.5 435.5,-38.5"/>
<text text-anchor="middle" x="473" y="-45.5" font-family="Helvetica,sans-Serif" font-size="10.00">Gnuplot::cmd</text>
</a>
</g>
</g>
<!-- Node4&#45;&gt;Node5 -->
<g id="edge4" class="edge"><title>Node4&#45;&gt;Node5</title>
<path fill="none" stroke="midnightblue" d="M380.395,-35.9132C395.019,-37.8428 410.812,-39.9265 425.098,-41.8115"/>
<polygon fill="midnightblue" stroke="midnightblue" points="424.823,-45.3056 435.195,-43.1438 425.739,-38.3657 424.823,-45.3056"/>
</g>
<!-- Node6 -->
<g id="node6" class="node"><title>Node6</title>
<g id="a_node6"><a xlink:href="classGnuplot.xhtml#abc0f1d75cb78804a5b8efdfa4df582cd" target="_top" xlink:title="Checa se o arquivo existe. ">
<polygon fill="white" stroke="black" points="422.5,-0.5 422.5,-19.5 523.5,-19.5 523.5,-0.5 422.5,-0.5"/>
<text text-anchor="middle" x="473" y="-7.5" font-family="Helvetica,sans-Serif" font-size="10.00">Gnuplot::file_exists</text>
</a>
</g>
</g>
<!-- Node4&#45;&gt;Node6 -->
<g id="edge5" class="edge"><title>Node4&#45;&gt;Node6</title>
<path fill="none" stroke="midnightblue" d="M380.395,-22.0868C390.755,-20.7199 401.701,-19.2756 412.282,-17.8795"/>
<polygon fill="midnightblue" stroke="midnightblue" points="412.828,-21.3378 422.284,-16.5597 411.912,-14.398 412.828,-21.3378"/>
</g>
</g>
</svg>
