<?xml version="1.0" encoding="UTF-8" standalone="no"?>
<!DOCTYPE svg PUBLIC "-//W3C//DTD SVG 1.1//EN"
 "http://www.w3.org/Graphics/SVG/1.1/DTD/svg11.dtd">
<!-- Generated by graphviz version 2.34.0 (20140110.0949)
 -->
<!-- Title: CFuncoesClima Pages: 1 -->
<svg width="456pt" height="470pt"
 viewBox="0.00 0.00 456.00 470.00" xmlns="http://www.w3.org/2000/svg" xmlns:xlink="http://www.w3.org/1999/xlink">
<g id="graph0" class="graph" transform="scale(1 1) rotate(0) translate(4 466)">
<title>CFuncoesClima</title>
<polygon fill="white" stroke="white" points="-4,4 -4,-466 452,-466 452,4 -4,4"/>
<!-- Node1 -->
<g id="node1" class="node"><title>Node1</title>
<polygon fill="#bfbfbf" stroke="black" points="106.5,-1 106.5,-223 261.5,-223 261.5,-1 106.5,-1"/>
<text text-anchor="middle" x="184" y="-211" font-family="Helvetica,sans-Serif" font-size="10.00">CFuncoesClima</text>
<polyline fill="none" stroke="black" points="106.5,-204 261.5,-204 "/>
<text text-anchor="start" x="114.5" y="-192" font-family="Helvetica,sans-Serif" font-size="10.00"># text</text>
<text text-anchor="start" x="114.5" y="-181" font-family="Helvetica,sans-Serif" font-size="10.00"># tint</text>
<text text-anchor="start" x="114.5" y="-170" font-family="Helvetica,sans-Serif" font-size="10.00"># rove</text>
<text text-anchor="start" x="114.5" y="-159" font-family="Helvetica,sans-Serif" font-size="10.00"># umidadeExterna</text>
<polyline fill="none" stroke="black" points="106.5,-152 261.5,-152 "/>
<text text-anchor="start" x="114.5" y="-140" font-family="Helvetica,sans-Serif" font-size="10.00">+ CFuncoesClima()</text>
<text text-anchor="start" x="114.5" y="-129" font-family="Helvetica,sans-Serif" font-size="10.00">+ ~CFuncoesClima()</text>
<text text-anchor="start" x="114.5" y="-118" font-family="Helvetica,sans-Serif" font-size="10.00">+ EntrarDadosObjeto()</text>
<text text-anchor="start" x="114.5" y="-107" font-family="Helvetica,sans-Serif" font-size="10.00">+ ExecutarFuncoesClima()</text>
<text text-anchor="start" x="114.5" y="-96" font-family="Helvetica,sans-Serif" font-size="10.00">+ operator()()</text>
<text text-anchor="start" x="114.5" y="-85" font-family="Helvetica,sans-Serif" font-size="10.00">+ FuncaoTemperaturaExterna()</text>
<text text-anchor="start" x="114.5" y="-74" font-family="Helvetica,sans-Serif" font-size="10.00">+ FuncaoTemperaturaInterna()</text>
<text text-anchor="start" x="114.5" y="-63" font-family="Helvetica,sans-Serif" font-size="10.00">+ FuncaoUmidadeExterna()</text>
<text text-anchor="start" x="114.5" y="-52" font-family="Helvetica,sans-Serif" font-size="10.00">+ FuncaoUmidadeInterna()</text>
<text text-anchor="start" x="114.5" y="-41" font-family="Helvetica,sans-Serif" font-size="10.00">+ FuncaoConcentracaoVapor()</text>
<text text-anchor="start" x="114.5" y="-30" font-family="Helvetica,sans-Serif" font-size="10.00">+ FuncaoPressaoVapor()</text>
<text text-anchor="start" x="114.5" y="-19" font-family="Helvetica,sans-Serif" font-size="10.00">+ FuncaoRadiacaoOndaCurta()</text>
<text text-anchor="start" x="114.5" y="-8" font-family="Helvetica,sans-Serif" font-size="10.00">+ FuncaoRadiacaoOndaLonga()</text>
</g>
<!-- Node1&#45;&gt;Node1 -->
<g id="edge3" class="edge"><title>Node1&#45;&gt;Node1</title>
<path fill="none" stroke="#404040" d="M261.531,-143.605C272.018,-138.306 279,-127.771 279,-112 279,-101.896 276.135,-93.9419 271.318,-88.1365"/>
<polygon fill="none" stroke="#404040" points="270.943,-87.8398 263.755,-87.2549 261.531,-80.3954 268.718,-80.9804 270.943,-87.8398"/>
<text text-anchor="middle" x="290" y="-109.5" font-family="Helvetica,sans-Serif" font-size="10.00"> +obj</text>
</g>
<!-- Node2 -->
<g id="node2" class="node"><title>Node2</title>
<polygon fill="white" stroke="#bfbfbf" points="-0.5,-393.5 -0.5,-450.5 44.5,-450.5 44.5,-393.5 -0.5,-393.5"/>
<text text-anchor="middle" x="22" y="-438.5" font-family="Helvetica,sans-Serif" font-size="10.00">double</text>
<polyline fill="none" stroke="#bfbfbf" points="-0.5,-431.5 44.5,-431.5 "/>
<text text-anchor="middle" x="22" y="-419.5" font-family="Helvetica,sans-Serif" font-size="10.00"> </text>
<polyline fill="none" stroke="#bfbfbf" points="-0.5,-412.5 44.5,-412.5 "/>
<text text-anchor="middle" x="22" y="-400.5" font-family="Helvetica,sans-Serif" font-size="10.00"> </text>
</g>
<!-- Node2&#45;&gt;Node1 -->
<g id="edge1" class="edge"><title>Node2&#45;&gt;Node1</title>
<path fill="none" stroke="#404040" d="M17.5216,-393.221C12.9645,-356.496 9.62017,-290.749 34,-242 48.3721,-213.262 72.2707,-188.301 96.8141,-168.194"/>
<polygon fill="none" stroke="#404040" points="96.8295,-168.182 99.0469,-161.32 106.234,-160.728 104.016,-167.59 96.8295,-168.182"/>
<text text-anchor="middle" x="70.5" y="-355.5" font-family="Helvetica,sans-Serif" font-size="10.00"> #fimChuva</text>
<text text-anchor="middle" x="70.5" y="-344.5" font-family="Helvetica,sans-Serif" font-size="10.00">#inicioChuva</text>
<text text-anchor="middle" x="70.5" y="-333.5" font-family="Helvetica,sans-Serif" font-size="10.00">#radoc</text>
<text text-anchor="middle" x="70.5" y="-322.5" font-family="Helvetica,sans-Serif" font-size="10.00">#rovi</text>
<text text-anchor="middle" x="70.5" y="-311.5" font-family="Helvetica,sans-Serif" font-size="10.00">#umidadeInterna</text>
<text text-anchor="middle" x="70.5" y="-300.5" font-family="Helvetica,sans-Serif" font-size="10.00">#retardo</text>
<text text-anchor="middle" x="70.5" y="-289.5" font-family="Helvetica,sans-Serif" font-size="10.00">#olChuva</text>
<text text-anchor="middle" x="70.5" y="-278.5" font-family="Helvetica,sans-Serif" font-size="10.00">#precipitacao</text>
<text text-anchor="middle" x="70.5" y="-267.5" font-family="Helvetica,sans-Serif" font-size="10.00">#amortecimento</text>
<text text-anchor="middle" x="70.5" y="-256.5" font-family="Helvetica,sans-Serif" font-size="10.00">#radol</text>
<text text-anchor="middle" x="70.5" y="-245.5" font-family="Helvetica,sans-Serif" font-size="10.00">...</text>
</g>
<!-- Node3 -->
<g id="node3" class="node"><title>Node3</title>
<polygon fill="white" stroke="#bfbfbf" points="100.5,-393.5 100.5,-450.5 135.5,-450.5 135.5,-393.5 100.5,-393.5"/>
<text text-anchor="middle" x="118" y="-438.5" font-family="Helvetica,sans-Serif" font-size="10.00">char</text>
<polyline fill="none" stroke="#bfbfbf" points="100.5,-431.5 135.5,-431.5 "/>
<text text-anchor="middle" x="118" y="-419.5" font-family="Helvetica,sans-Serif" font-size="10.00"> </text>
<polyline fill="none" stroke="#bfbfbf" points="100.5,-412.5 135.5,-412.5 "/>
<text text-anchor="middle" x="118" y="-400.5" font-family="Helvetica,sans-Serif" font-size="10.00"> </text>
</g>
<!-- Node3&#45;&gt;Node1 -->
<g id="edge2" class="edge"><title>Node3&#45;&gt;Node1</title>
<path fill="none" stroke="#404040" d="M114.28,-393.237C110.386,-357.64 106.421,-294.271 119,-242 119.561,-239.668 120.171,-237.331 120.825,-234.992"/>
<polygon fill="none" stroke="#404040" points="120.898,-234.757 118.85,-227.843 124.445,-223.294 126.493,-230.208 120.898,-234.757"/>
<text text-anchor="middle" x="173.5" y="-311.5" font-family="Helvetica,sans-Serif" font-size="10.00"> #respHumidadeExterna</text>
<text text-anchor="middle" x="173.5" y="-300.5" font-family="Helvetica,sans-Serif" font-size="10.00">#respTemperaturaInterna</text>
<text text-anchor="middle" x="173.5" y="-289.5" font-family="Helvetica,sans-Serif" font-size="10.00">#respHumidadeInterna</text>
</g>
<!-- Node4 -->
<g id="node4" class="node"><title>Node4</title>
<polygon fill="white" stroke="#bfbfbf" points="178.5,-382.5 178.5,-461.5 321.5,-461.5 321.5,-382.5 178.5,-382.5"/>
<text text-anchor="start" x="186.5" y="-449.5" font-family="Helvetica,sans-Serif" font-size="10.00">aquiaqui incluir saída</text>
<text text-anchor="start" x="186.5" y="-438.5" font-family="Helvetica,sans-Serif" font-size="10.00"> para cout que será chamada</text>
<text text-anchor="middle" x="250" y="-427.5" font-family="Helvetica,sans-Serif" font-size="10.00"> pelo simulador</text>
<polyline fill="none" stroke="#bfbfbf" points="178.5,-420.5 321.5,-420.5 "/>
<text text-anchor="middle" x="250" y="-408.5" font-family="Helvetica,sans-Serif" font-size="10.00"> </text>
<polyline fill="none" stroke="#bfbfbf" points="178.5,-401.5 321.5,-401.5 "/>
<text text-anchor="middle" x="250" y="-389.5" font-family="Helvetica,sans-Serif" font-size="10.00"> </text>
</g>
<!-- Node4&#45;&gt;Node1 -->
<g id="edge4" class="edge"><title>Node4&#45;&gt;Node1</title>
<path fill="none" stroke="#404040" d="M247.551,-382.192C244.702,-345.663 238.921,-289.607 228,-242 227.464,-239.665 226.902,-237.313 226.316,-234.948"/>
<polygon fill="none" stroke="#404040" points="226.241,-234.659 220.853,-229.866 223.206,-223.049 228.593,-227.842 226.241,-234.659"/>
<text text-anchor="middle" x="257.5" y="-300.5" font-family="Helvetica,sans-Serif" font-size="10.00"> +std</text>
</g>
<!-- Node5 -->
<g id="node5" class="node"><title>Node5</title>
<polygon fill="white" stroke="#bfbfbf" points="340,-388 340,-456 448,-456 448,-388 340,-388"/>
<text text-anchor="start" x="348" y="-444" font-family="Helvetica,sans-Serif" font-size="10.00">aquiaqui incluir saída</text>
<text text-anchor="middle" x="394" y="-433" font-family="Helvetica,sans-Serif" font-size="10.00"> para cout</text>
<polyline fill="none" stroke="#bfbfbf" points="340,-426 448,-426 "/>
<text text-anchor="middle" x="394" y="-414" font-family="Helvetica,sans-Serif" font-size="10.00"> </text>
<polyline fill="none" stroke="#bfbfbf" points="340,-407 448,-407 "/>
<text text-anchor="middle" x="394" y="-395" font-family="Helvetica,sans-Serif" font-size="10.00"> </text>
</g>
<!-- Node5&#45;&gt;Node1 -->
<g id="edge5" class="edge"><title>Node5&#45;&gt;Node1</title>
<path fill="none" stroke="#404040" d="M371.792,-387.945C347.594,-351.975 307.693,-292.801 273,-242 271.022,-239.104 269.017,-236.172 266.994,-233.216"/>
<polygon fill="none" stroke="#404040" points="266.836,-232.985 260.145,-230.296 260.054,-223.086 266.745,-225.775 266.836,-232.985"/>
<text text-anchor="middle" x="364" y="-300.5" font-family="Helvetica,sans-Serif" font-size="10.00"> +os</text>
</g>
</g>
</svg>
