<?xml version="1.0" encoding="UTF-8" standalone="no"?>
<!DOCTYPE svg PUBLIC "-//W3C//DTD SVG 1.1//EN"
 "http://www.w3.org/Graphics/SVG/1.1/DTD/svg11.dtd">
<!-- Generated by graphviz version 2.34.0 (20140110.0949)
 -->
<!-- Title: Gnuplot::plot_x Pages: 1 -->
<svg width="230pt" height="66pt"
 viewBox="0.00 0.00 230.00 66.00" xmlns="http://www.w3.org/2000/svg" xmlns:xlink="http://www.w3.org/1999/xlink">
<g id="graph0" class="graph" transform="scale(1 1) rotate(0) translate(4 62)">
<title>Gnuplot::plot_x</title>
<polygon fill="white" stroke="white" points="-4,4 -4,-62 226,-62 226,4 -4,4"/>
<!-- Node1 -->
<g id="node1" class="node"><title>Node1</title>
<polygon fill="#bfbfbf" stroke="black" points="0.5,-19.5 0.5,-38.5 83.5,-38.5 83.5,-19.5 0.5,-19.5"/>
<text text-anchor="middle" x="42" y="-26.5" font-family="Helvetica,sans-Serif" font-size="10.00">Gnuplot::plot_x</text>
</g>
<!-- Node2 -->
<g id="node2" class="node"><title>Node2</title>
<g id="a_node2"><a xlink:href="classGnuplot.xhtml#a8ceac5808e42665c1dee305ae7ea9070" target="_top" xlink:title="Construtor, plota um grafico a partir de um vector, diretamente na construcao. ">
<polygon fill="white" stroke="black" points="126,-38.5 126,-57.5 216,-57.5 216,-38.5 126,-38.5"/>
<text text-anchor="middle" x="171" y="-45.5" font-family="Helvetica,sans-Serif" font-size="10.00">Gnuplot::Gnuplot</text>
</a>
</g>
</g>
<!-- Node1&#45;&gt;Node2 -->
<g id="edge1" class="edge"><title>Node1&#45;&gt;Node2</title>
<path fill="none" stroke="midnightblue" d="M93.5829,-36.5675C104.272,-38.1667 115.471,-39.8421 125.898,-41.402"/>
<polygon fill="midnightblue" stroke="midnightblue" points="93.9406,-33.0822 83.5328,-35.064 92.9048,-40.0051 93.9406,-33.0822"/>
</g>
<!-- Node3 -->
<g id="node3" class="node"><title>Node3</title>
<g id="a_node3"><a xlink:href="classGnuplot.xhtml#ab478d91039848a22733fc7a0f7c25f04" target="_top" xlink:title="Plota dados de um vector. ">
<polygon fill="white" stroke="black" points="120,-0.5 120,-19.5 222,-19.5 222,-0.5 120,-0.5"/>
<text text-anchor="middle" x="171" y="-7.5" font-family="Helvetica,sans-Serif" font-size="10.00">Gnuplot::PlotVector</text>
</a>
</g>
</g>
<!-- Node1&#45;&gt;Node3 -->
<g id="edge2" class="edge"><title>Node1&#45;&gt;Node3</title>
<path fill="none" stroke="midnightblue" d="M93.4443,-21.4532C102.053,-20.1654 110.995,-18.8275 119.602,-17.5398"/>
<polygon fill="midnightblue" stroke="midnightblue" points="92.9048,-17.9949 83.5328,-22.936 93.9406,-24.9178 92.9048,-17.9949"/>
</g>
</g>
</svg>
