<?xml version="1.0" encoding="UTF-8" standalone="no"?>
<!DOCTYPE svg PUBLIC "-//W3C//DTD SVG 1.1//EN"
 "http://www.w3.org/Graphics/SVG/1.1/DTD/svg11.dtd">
<!-- Generated by graphviz version 2.34.0 (20140110.0949)
 -->
<!-- Title: Gnuplot::CBRange Pages: 1 -->
<svg width="366pt" height="28pt"
 viewBox="0.00 0.00 366.00 28.00" xmlns="http://www.w3.org/2000/svg" xmlns:xlink="http://www.w3.org/1999/xlink">
<g id="graph0" class="graph" transform="scale(1 1) rotate(0) translate(4 24)">
<title>Gnuplot::CBRange</title>
<polygon fill="white" stroke="white" points="-4,4 -4,-24 362,-24 362,4 -4,4"/>
<!-- Node1 -->
<g id="node1" class="node"><title>Node1</title>
<polygon fill="#bfbfbf" stroke="black" points="0.5,-0.5 0.5,-19.5 99.5,-19.5 99.5,-0.5 0.5,-0.5"/>
<text text-anchor="middle" x="50" y="-7.5" font-family="Helvetica,sans-Serif" font-size="10.00">Gnuplot::CBRange</text>
</g>
<!-- Node2 -->
<g id="node2" class="node"><title>Node2</title>
<g id="a_node2"><a xlink:href="classGnuplot.xhtml#a2c8c8ae0441f54dd728bc6594051c137" target="_top" xlink:title="Seta intervalo da palette (autoscale por padrao). ">
<polygon fill="white" stroke="black" points="136,-0.5 136,-19.5 246,-19.5 246,-0.5 136,-0.5"/>
<text text-anchor="middle" x="191" y="-7.5" font-family="Helvetica,sans-Serif" font-size="10.00">Gnuplot::set_cbrange</text>
</a>
</g>
</g>
<!-- Node1&#45;&gt;Node2 -->
<g id="edge1" class="edge"><title>Node1&#45;&gt;Node2</title>
<path fill="none" stroke="midnightblue" d="M99.6155,-10C108.056,-10 116.949,-10 125.731,-10"/>
<polygon fill="midnightblue" stroke="midnightblue" points="125.954,-13.5001 135.954,-10 125.954,-6.5001 125.954,-13.5001"/>
</g>
<!-- Node3 -->
<g id="node3" class="node"><title>Node3</title>
<g id="a_node3"><a xlink:href="classGnuplot.xhtml#a07607803ede8dd5416906df0a1924fc5" target="_top" xlink:title="Envia comando para o gnuplot. ">
<polygon fill="white" stroke="black" points="282.5,-0.5 282.5,-19.5 357.5,-19.5 357.5,-0.5 282.5,-0.5"/>
<text text-anchor="middle" x="320" y="-7.5" font-family="Helvetica,sans-Serif" font-size="10.00">Gnuplot::cmd</text>
</a>
</g>
</g>
<!-- Node2&#45;&gt;Node3 -->
<g id="edge2" class="edge"><title>Node2&#45;&gt;Node3</title>
<path fill="none" stroke="midnightblue" d="M246.228,-10C254.855,-10 263.716,-10 272.155,-10"/>
<polygon fill="midnightblue" stroke="midnightblue" points="272.194,-13.5001 282.194,-10 272.194,-6.5001 272.194,-13.5001"/>
</g>
</g>
</svg>
