<?xml version="1.0" encoding="UTF-8" standalone="no"?>
<!DOCTYPE svg PUBLIC "-//W3C//DTD SVG 1.1//EN"
 "http://www.w3.org/Graphics/SVG/1.1/DTD/svg11.dtd">
<!-- Generated by graphviz version 2.34.0 (20140110.0949)
 -->
<!-- Title: Gnuplot::Legend Pages: 1 -->
<svg width="348pt" height="28pt"
 viewBox="0.00 0.00 348.00 28.00" xmlns="http://www.w3.org/2000/svg" xmlns:xlink="http://www.w3.org/1999/xlink">
<g id="graph0" class="graph" transform="scale(1 1) rotate(0) translate(4 24)">
<title>Gnuplot::Legend</title>
<polygon fill="white" stroke="white" points="-4,4 -4,-24 344,-24 344,4 -4,4"/>
<!-- Node1 -->
<g id="node1" class="node"><title>Node1</title>
<polygon fill="#bfbfbf" stroke="black" points="0,-0.5 0,-19.5 88,-19.5 88,-0.5 0,-0.5"/>
<text text-anchor="middle" x="44" y="-7.5" font-family="Helvetica,sans-Serif" font-size="10.00">Gnuplot::Legend</text>
</g>
<!-- Node2 -->
<g id="node2" class="node"><title>Node2</title>
<g id="a_node2"><a xlink:href="classGnuplot.xhtml#ad64a717dac18167f656c4f09239973f8" target="_top" xlink:title="Ativa a legenda (a legenda é setada por padrao). Posicao: inside/outside, left/center/right, top/center/bottom, nobox/box. ">
<polygon fill="white" stroke="black" points="124,-0.5 124,-19.5 228,-19.5 228,-0.5 124,-0.5"/>
<text text-anchor="middle" x="176" y="-7.5" font-family="Helvetica,sans-Serif" font-size="10.00">Gnuplot::set_legend</text>
</a>
</g>
</g>
<!-- Node1&#45;&gt;Node2 -->
<g id="edge1" class="edge"><title>Node1&#45;&gt;Node2</title>
<path fill="none" stroke="midnightblue" d="M88.2881,-10C96.4637,-10 105.157,-10 113.762,-10"/>
<polygon fill="midnightblue" stroke="midnightblue" points="113.787,-13.5001 123.787,-10 113.787,-6.5001 113.787,-13.5001"/>
</g>
<!-- Node3 -->
<g id="node3" class="node"><title>Node3</title>
<g id="a_node3"><a xlink:href="classGnuplot.xhtml#a07607803ede8dd5416906df0a1924fc5" target="_top" xlink:title="Envia comando para o gnuplot. ">
<polygon fill="white" stroke="black" points="264.5,-0.5 264.5,-19.5 339.5,-19.5 339.5,-0.5 264.5,-0.5"/>
<text text-anchor="middle" x="302" y="-7.5" font-family="Helvetica,sans-Serif" font-size="10.00">Gnuplot::cmd</text>
</a>
</g>
</g>
<!-- Node2&#45;&gt;Node3 -->
<g id="edge2" class="edge"><title>Node2&#45;&gt;Node3</title>
<path fill="none" stroke="midnightblue" d="M228.151,-10C236.784,-10 245.705,-10 254.219,-10"/>
<polygon fill="midnightblue" stroke="midnightblue" points="254.354,-13.5001 264.354,-10 254.354,-6.5001 254.354,-13.5001"/>
</g>
</g>
</svg>
