<?xml version="1.0" encoding="UTF-8" standalone="no"?>
<!DOCTYPE svg PUBLIC "-//W3C//DTD SVG 1.1//EN"
 "http://www.w3.org/Graphics/SVG/1.1/DTD/svg11.dtd">
<!-- Generated by graphviz version 2.34.0 (20140110.0949)
 -->
<!-- Title: Gnuplot::plot_xyz Pages: 1 -->
<svg width="240pt" height="66pt"
 viewBox="0.00 0.00 240.00 66.00" xmlns="http://www.w3.org/2000/svg" xmlns:xlink="http://www.w3.org/1999/xlink">
<g id="graph0" class="graph" transform="scale(1 1) rotate(0) translate(4 62)">
<title>Gnuplot::plot_xyz</title>
<polygon fill="white" stroke="white" points="-4,4 -4,-62 236,-62 236,4 -4,4"/>
<!-- Node1 -->
<g id="node1" class="node"><title>Node1</title>
<polygon fill="#bfbfbf" stroke="black" points="0.5,-19.5 0.5,-38.5 93.5,-38.5 93.5,-19.5 0.5,-19.5"/>
<text text-anchor="middle" x="47" y="-26.5" font-family="Helvetica,sans-Serif" font-size="10.00">Gnuplot::plot_xyz</text>
</g>
<!-- Node2 -->
<g id="node2" class="node"><title>Node2</title>
<g id="a_node2"><a xlink:href="classGnuplot.xhtml#a14191e89154f2716608f6907975cc012" target="_top" xlink:title="Construtor, plota um grafico de x_y_z a partir de vetores, diretamente na construcao. ">
<polygon fill="white" stroke="black" points="136,-38.5 136,-57.5 226,-57.5 226,-38.5 136,-38.5"/>
<text text-anchor="middle" x="181" y="-45.5" font-family="Helvetica,sans-Serif" font-size="10.00">Gnuplot::Gnuplot</text>
</a>
</g>
</g>
<!-- Node1&#45;&gt;Node2 -->
<g id="edge1" class="edge"><title>Node1&#45;&gt;Node2</title>
<path fill="none" stroke="midnightblue" d="M103.828,-37.0358C114.443,-38.5638 125.419,-40.1436 135.62,-41.6119"/>
<polygon fill="midnightblue" stroke="midnightblue" points="104.193,-33.5525 93.7967,-35.592 103.196,-40.481 104.193,-33.5525"/>
</g>
<!-- Node3 -->
<g id="node3" class="node"><title>Node3</title>
<g id="a_node3"><a xlink:href="classGnuplot.xhtml#a239b222cd7ff6ba4a60d583b22248a4f" target="_top" xlink:title="Plota valores de x,y,z a partir de vetores. ">
<polygon fill="white" stroke="black" points="130,-0.5 130,-19.5 232,-19.5 232,-0.5 130,-0.5"/>
<text text-anchor="middle" x="181" y="-7.5" font-family="Helvetica,sans-Serif" font-size="10.00">Gnuplot::PlotVector</text>
</a>
</g>
</g>
<!-- Node1&#45;&gt;Node3 -->
<g id="edge2" class="edge"><title>Node1&#45;&gt;Node3</title>
<path fill="none" stroke="midnightblue" d="M103.781,-20.971C112.41,-19.7289 121.278,-18.4524 129.776,-17.2292"/>
<polygon fill="midnightblue" stroke="midnightblue" points="103.196,-17.519 93.7967,-22.408 104.193,-24.4475 103.196,-17.519"/>
</g>
</g>
</svg>
