<?xml version="1.0" encoding="UTF-8" standalone="no"?>
<!DOCTYPE svg PUBLIC "-//W3C//DTD SVG 1.1//EN"
 "http://www.w3.org/Graphics/SVG/1.1/DTD/svg11.dtd">
<!-- Generated by graphviz version 2.34.0 (20140110.0949)
 -->
<!-- Title: Gnuplot::set_title Pages: 1 -->
<svg width="350pt" height="66pt"
 viewBox="0.00 0.00 350.00 66.00" xmlns="http://www.w3.org/2000/svg" xmlns:xlink="http://www.w3.org/1999/xlink">
<g id="graph0" class="graph" transform="scale(1 1) rotate(0) translate(4 62)">
<title>Gnuplot::set_title</title>
<polygon fill="white" stroke="white" points="-4,4 -4,-62 346,-62 346,4 -4,4"/>
<!-- Node1 -->
<g id="node1" class="node"><title>Node1</title>
<polygon fill="#bfbfbf" stroke="black" points="0.5,-19.5 0.5,-38.5 91.5,-38.5 91.5,-19.5 0.5,-19.5"/>
<text text-anchor="middle" x="46" y="-26.5" font-family="Helvetica,sans-Serif" font-size="10.00">Gnuplot::set_title</text>
</g>
<!-- Node2 -->
<g id="node2" class="node"><title>Node2</title>
<g id="a_node2"><a xlink:href="classGnuplot.xhtml#a73bb8c97a946cafea0eca683450a6a62" target="_top" xlink:title="Ativa/Desativa o titulo da secao do gnuplot. ">
<polygon fill="white" stroke="black" points="141.5,-38.5 141.5,-57.5 216.5,-57.5 216.5,-38.5 141.5,-38.5"/>
<text text-anchor="middle" x="179" y="-45.5" font-family="Helvetica,sans-Serif" font-size="10.00">Gnuplot::Title</text>
</a>
</g>
</g>
<!-- Node1&#45;&gt;Node2 -->
<g id="edge1" class="edge"><title>Node1&#45;&gt;Node2</title>
<path fill="none" stroke="midnightblue" d="M101.758,-36.942C115.094,-38.8763 129.042,-40.8992 141.306,-42.678"/>
<polygon fill="midnightblue" stroke="midnightblue" points="102.115,-33.4573 91.7164,-35.4856 101.11,-40.3848 102.115,-33.4573"/>
</g>
<!-- Node3 -->
<g id="node3" class="node"><title>Node3</title>
<g id="a_node3"><a xlink:href="classGnuplot.xhtml#a0d205a55ae104403292622b49af14ae7" target="_top" xlink:title="Desativa o titulo da secao do gnuplot. ">
<polygon fill="white" stroke="black" points="128.5,-0.5 128.5,-19.5 229.5,-19.5 229.5,-0.5 128.5,-0.5"/>
<text text-anchor="middle" x="179" y="-7.5" font-family="Helvetica,sans-Serif" font-size="10.00">Gnuplot::unset_title</text>
</a>
</g>
</g>
<!-- Node1&#45;&gt;Node3 -->
<g id="edge2" class="edge"><title>Node1&#45;&gt;Node3</title>
<path fill="none" stroke="midnightblue" d="M101.794,-21.0528C110.513,-19.7882 119.492,-18.4859 128.091,-17.2388"/>
<polygon fill="midnightblue" stroke="midnightblue" points="101.11,-17.6152 91.7164,-22.5144 102.115,-24.5427 101.11,-17.6152"/>
</g>
<!-- Node4 -->
<g id="node4" class="node"><title>Node4</title>
<g id="a_node4"><a xlink:href="classGnuplot.xhtml#afeab18e210616ae239adb7d816ecb2e9" target="_top" xlink:title="Gnuplot::Title">
<polygon fill="white" stroke="black" points="266.5,-0.5 266.5,-19.5 341.5,-19.5 341.5,-0.5 266.5,-0.5"/>
<text text-anchor="middle" x="304" y="-7.5" font-family="Helvetica,sans-Serif" font-size="10.00">Gnuplot::Title</text>
</a>
</g>
</g>
<!-- Node3&#45;&gt;Node4 -->
<g id="edge3" class="edge"><title>Node3&#45;&gt;Node4</title>
<path fill="none" stroke="midnightblue" d="M239.842,-10C248.903,-10 258.013,-10 266.382,-10"/>
<polygon fill="midnightblue" stroke="midnightblue" points="239.674,-6.5001 229.674,-10 239.674,-13.5001 239.674,-6.5001"/>
</g>
</g>
</svg>
