<?xml version="1.0" encoding="UTF-8" standalone="no"?>
<!DOCTYPE svg PUBLIC "-//W3C//DTD SVG 1.1//EN"
 "http://www.w3.org/Graphics/SVG/1.1/DTD/svg11.dtd">
<!-- Generated by graphviz version 2.34.0 (20140110.0949)
 -->
<!-- Title: CMeioPoroso_Telha::CMeioPoroso_Telha Pages: 1 -->
<svg width="268pt" height="38pt"
 viewBox="0.00 0.00 268.00 38.00" xmlns="http://www.w3.org/2000/svg" xmlns:xlink="http://www.w3.org/1999/xlink">
<g id="graph0" class="graph" transform="scale(1 1) rotate(0) translate(4 34)">
<title>CMeioPoroso_Telha::CMeioPoroso_Telha</title>
<polygon fill="white" stroke="white" points="-4,4 -4,-34 264,-34 264,4 -4,4"/>
<!-- Node1 -->
<g id="node1" class="node"><title>Node1</title>
<polygon fill="#bfbfbf" stroke="black" points="0.5,-0 0.5,-30 111.5,-30 111.5,-0 0.5,-0"/>
<text text-anchor="start" x="8.5" y="-18" font-family="Helvetica,sans-Serif" font-size="10.00">CMeioPoroso_Telha::</text>
<text text-anchor="middle" x="56" y="-7" font-family="Helvetica,sans-Serif" font-size="10.00">CMeioPoroso_Telha</text>
</g>
<!-- Node2 -->
<g id="node2" class="node"><title>Node2</title>
<g id="a_node2"><a xlink:href="classCMeioPoroso__Telha.xhtml#a50594076983c72b8963c80bd9483239c" target="_top" xlink:title="Dados default. ">
<polygon fill="white" stroke="black" points="148.5,-0 148.5,-30 259.5,-30 259.5,-0 148.5,-0"/>
<text text-anchor="start" x="156.5" y="-18" font-family="Helvetica,sans-Serif" font-size="10.00">CMeioPoroso_Telha::</text>
<text text-anchor="middle" x="204" y="-7" font-family="Helvetica,sans-Serif" font-size="10.00">DadosDefault</text>
</a>
</g>
</g>
<!-- Node1&#45;&gt;Node2 -->
<g id="edge1" class="edge"><title>Node1&#45;&gt;Node2</title>
<path fill="none" stroke="midnightblue" d="M111.78,-15C120.388,-15 129.356,-15 138.164,-15"/>
<polygon fill="midnightblue" stroke="midnightblue" points="138.398,-18.5001 148.398,-15 138.398,-11.5001 138.398,-18.5001"/>
</g>
</g>
</svg>
