<?xml version="1.0" encoding="UTF-8" standalone="no"?>
<!DOCTYPE svg PUBLIC "-//W3C//DTD SVG 1.1//EN"
 "http://www.w3.org/Graphics/SVG/1.1/DTD/svg11.dtd">
<!-- Generated by graphviz version 2.34.0 (20140110.0949)
 -->
<!-- Title: CMeioPoroso_Telha::DadosDefault Pages: 1 -->
<svg width="1016pt" height="109pt"
 viewBox="0.00 0.00 1016.00 109.00" xmlns="http://www.w3.org/2000/svg" xmlns:xlink="http://www.w3.org/1999/xlink">
<g id="graph0" class="graph" transform="scale(1 1) rotate(0) translate(4 105)">
<title>CMeioPoroso_Telha::DadosDefault</title>
<polygon fill="white" stroke="white" points="-4,4 -4,-105 1012,-105 1012,4 -4,4"/>
<!-- Node1 -->
<g id="node1" class="node"><title>Node1</title>
<polygon fill="#bfbfbf" stroke="black" points="0.5,-46 0.5,-76 111.5,-76 111.5,-46 0.5,-46"/>
<text text-anchor="start" x="8.5" y="-64" font-family="Helvetica,sans-Serif" font-size="10.00">CMeioPoroso_Telha::</text>
<text text-anchor="middle" x="56" y="-53" font-family="Helvetica,sans-Serif" font-size="10.00">DadosDefault</text>
</g>
<!-- Node2 -->
<g id="node2" class="node"><title>Node2</title>
<g id="a_node2"><a xlink:href="classCMeioPoroso__Telha.xhtml#a0f4ddb7e7d00257dbaa340a4e8c4df42" target="_top" xlink:title="Construtor default/sobrecarregado, recebe o tipo de material. ">
<polygon fill="white" stroke="black" points="175.5,-71 175.5,-101 286.5,-101 286.5,-71 175.5,-71"/>
<text text-anchor="start" x="183.5" y="-89" font-family="Helvetica,sans-Serif" font-size="10.00">CMeioPoroso_Telha::</text>
<text text-anchor="middle" x="231" y="-78" font-family="Helvetica,sans-Serif" font-size="10.00">CMeioPoroso_Telha</text>
</a>
</g>
</g>
<!-- Node1&#45;&gt;Node2 -->
<g id="edge1" class="edge"><title>Node1&#45;&gt;Node2</title>
<path fill="none" stroke="midnightblue" d="M121.921,-70.3817C139.506,-72.9228 158.362,-75.6476 175.321,-78.0984"/>
<polygon fill="midnightblue" stroke="midnightblue" points="122.136,-66.8765 111.738,-68.9102 121.135,-73.8045 122.136,-66.8765"/>
</g>
<!-- Node3 -->
<g id="node3" class="node"><title>Node3</title>
<g id="a_node3"><a xlink:href="classCMeioPoroso__Telha__Discretizada__TDMA.xhtml#a6a9a0e50cbd1c9abb1c097ef548954a4" target="_top" xlink:title="Dados default. ">
<polygon fill="white" stroke="black" points="148.5,-22 148.5,-52 313.5,-52 313.5,-22 148.5,-22"/>
<text text-anchor="start" x="156.5" y="-40" font-family="Helvetica,sans-Serif" font-size="10.00">CMeioPoroso_Telha_Discretizada</text>
<text text-anchor="middle" x="231" y="-29" font-family="Helvetica,sans-Serif" font-size="10.00">_TDMA::DadosDefault</text>
</a>
</g>
</g>
<!-- Node1&#45;&gt;Node3 -->
<g id="edge2" class="edge"><title>Node1&#45;&gt;Node3</title>
<path fill="none" stroke="midnightblue" d="M121.784,-52.0126C130.484,-50.8057 139.497,-49.5554 148.439,-48.3148"/>
<polygon fill="midnightblue" stroke="midnightblue" points="121.162,-48.5652 111.738,-53.4062 122.124,-55.4988 121.162,-48.5652"/>
</g>
<!-- Node4 -->
<g id="node4" class="node"><title>Node4</title>
<g id="a_node4"><a xlink:href="classCMeioPoroso__Telha__Discretizada__TDMA.xhtml#a60b109e2b1fce0d1980b921062594b85" target="_top" xlink:title="double errorecorrenciaol,errorecorrenciatp,errorecorrenciaola,errorecorrenciatpa; ...">
<polygon fill="white" stroke="black" points="350.5,-44 350.5,-74 589.5,-74 589.5,-44 350.5,-44"/>
<text text-anchor="start" x="358.5" y="-62" font-family="Helvetica,sans-Serif" font-size="10.00">CMeioPoroso_Telha_Discretizada</text>
<text text-anchor="middle" x="470" y="-51" font-family="Helvetica,sans-Serif" font-size="10.00">_TDMA::CMeioPoroso_Telha_Discretizada_TDMA</text>
</a>
</g>
</g>
<!-- Node3&#45;&gt;Node4 -->
<g id="edge3" class="edge"><title>Node3&#45;&gt;Node4</title>
<path fill="none" stroke="midnightblue" d="M323.736,-45.5156C332.494,-46.3285 341.457,-47.1606 350.421,-47.9927"/>
<polygon fill="midnightblue" stroke="midnightblue" points="323.843,-42.0105 313.562,-44.5712 323.196,-48.9806 323.843,-42.0105"/>
</g>
<!-- Node5 -->
<g id="node5" class="node"><title>Node5</title>
<g id="a_node5"><a xlink:href="classCSimulador__Telha.xhtml#aa2592b5ca7cce1ac595cc3a658a17c85" target="_top" xlink:title="Dados default. ">
<polygon fill="white" stroke="black" points="388.5,-5.5 388.5,-24.5 551.5,-24.5 551.5,-5.5 388.5,-5.5"/>
<text text-anchor="middle" x="470" y="-12.5" font-family="Helvetica,sans-Serif" font-size="10.00">CSimulador_Telha::DadosDefault</text>
</a>
</g>
</g>
<!-- Node3&#45;&gt;Node5 -->
<g id="edge4" class="edge"><title>Node3&#45;&gt;Node5</title>
<path fill="none" stroke="midnightblue" d="M323.619,-28.4953C345.007,-26.5099 367.628,-24.4101 388.491,-22.4734"/>
<polygon fill="midnightblue" stroke="midnightblue" points="323.196,-25.0194 313.562,-29.4288 323.843,-31.9895 323.196,-25.0194"/>
</g>
<!-- Node6 -->
<g id="node6" class="node"><title>Node6</title>
<g id="a_node6"><a xlink:href="classCSimulador__Telha__GanhosEnergia.xhtml#a8fee41da2f0f78851be425a7d0cc106d" target="_top" xlink:title="Dados default. ">
<polygon fill="white" stroke="black" points="626.5,-0 626.5,-30 795.5,-30 795.5,-0 626.5,-0"/>
<text text-anchor="start" x="634.5" y="-18" font-family="Helvetica,sans-Serif" font-size="10.00">CSimulador_Telha_GanhosEnergia</text>
<text text-anchor="middle" x="711" y="-7" font-family="Helvetica,sans-Serif" font-size="10.00">::DadosDefault</text>
</a>
</g>
</g>
<!-- Node5&#45;&gt;Node6 -->
<g id="edge5" class="edge"><title>Node5&#45;&gt;Node6</title>
<path fill="none" stroke="midnightblue" d="M561.827,-15C582.932,-15 605.305,-15 626.095,-15"/>
<polygon fill="midnightblue" stroke="midnightblue" points="561.581,-11.5001 551.581,-15 561.581,-18.5001 561.581,-11.5001"/>
</g>
<!-- Node7 -->
<g id="node7" class="node"><title>Node7</title>
<g id="a_node7"><a xlink:href="classCSimulador__Telha__GanhosEnergia.xhtml#a57fee722f2205904797acbfb7332f178" target="_top" xlink:title="Construtor. ">
<polygon fill="white" stroke="black" points="832.5,-0 832.5,-30 1007.5,-30 1007.5,-0 832.5,-0"/>
<text text-anchor="start" x="840.5" y="-18" font-family="Helvetica,sans-Serif" font-size="10.00">CSimulador_Telha_GanhosEnergia</text>
<text text-anchor="middle" x="920" y="-7" font-family="Helvetica,sans-Serif" font-size="10.00">::CSimulador_Telha_GanhosEnergia</text>
</a>
</g>
</g>
<!-- Node6&#45;&gt;Node7 -->
<g id="edge6" class="edge"><title>Node6&#45;&gt;Node7</title>
<path fill="none" stroke="midnightblue" d="M805.61,-15C814.527,-15 823.543,-15 832.389,-15"/>
<polygon fill="midnightblue" stroke="midnightblue" points="805.598,-11.5001 795.598,-15 805.598,-18.5001 805.598,-11.5001"/>
</g>
</g>
</svg>
