<?xml version="1.0" encoding="UTF-8" standalone="no"?>
<!DOCTYPE svg PUBLIC "-//W3C//DTD SVG 1.1//EN"
 "http://www.w3.org/Graphics/SVG/1.1/DTD/svg11.dtd">
<!-- Generated by graphviz version 2.34.0 (20140110.0949)
 -->
<!-- Title: CFuncoesClima::operator() Pages: 1 -->
<svg width="736pt" height="38pt"
 viewBox="0.00 0.00 736.00 38.00" xmlns="http://www.w3.org/2000/svg" xmlns:xlink="http://www.w3.org/1999/xlink">
<g id="graph0" class="graph" transform="scale(1 1) rotate(0) translate(4 34)">
<title>CFuncoesClima::operator()</title>
<polygon fill="white" stroke="white" points="-4,4 -4,-34 732,-34 732,4 -4,4"/>
<!-- Node1 -->
<g id="node1" class="node"><title>Node1</title>
<polygon fill="#bfbfbf" stroke="black" points="0,-5.5 0,-24.5 134,-24.5 134,-5.5 0,-5.5"/>
<text text-anchor="middle" x="67" y="-12.5" font-family="Helvetica,sans-Serif" font-size="10.00">CFuncoesClima::operator()</text>
</g>
<!-- Node2 -->
<g id="node2" class="node"><title>Node2</title>
<g id="a_node2"><a xlink:href="classCFuncoesClima.xhtml#a64e6dc948deb1d9481b45ea2a6cb6c15" target="_top" xlink:title="CFuncoesClima::ExecutarFuncoes\lClima">
<polygon fill="white" stroke="black" points="170,-0 170,-30 340,-30 340,-0 170,-0"/>
<text text-anchor="start" x="178" y="-18" font-family="Helvetica,sans-Serif" font-size="10.00">CFuncoesClima::ExecutarFuncoes</text>
<text text-anchor="middle" x="255" y="-7" font-family="Helvetica,sans-Serif" font-size="10.00">Clima</text>
</a>
</g>
</g>
<!-- Node1&#45;&gt;Node2 -->
<g id="edge1" class="edge"><title>Node1&#45;&gt;Node2</title>
<path fill="none" stroke="midnightblue" d="M134.1,-15C142.431,-15 151.077,-15 159.737,-15"/>
<polygon fill="midnightblue" stroke="midnightblue" points="159.892,-18.5001 169.892,-15 159.892,-11.5001 159.892,-18.5001"/>
</g>
<!-- Node3 -->
<g id="node3" class="node"><title>Node3</title>
<g id="a_node3"><a xlink:href="classCTermodinamica.xhtml#a49362abf7162741c870620b9afbccf66" target="_top" xlink:title="Cálculo da concentração de vapor. ">
<polygon fill="white" stroke="black" points="376,-0 376,-30 534,-30 534,-0 376,-0"/>
<text text-anchor="start" x="384" y="-18" font-family="Helvetica,sans-Serif" font-size="10.00">CTermodinamica::Concentracao</text>
<text text-anchor="middle" x="455" y="-7" font-family="Helvetica,sans-Serif" font-size="10.00">Vapor</text>
</a>
</g>
</g>
<!-- Node2&#45;&gt;Node3 -->
<g id="edge2" class="edge"><title>Node2&#45;&gt;Node3</title>
<path fill="none" stroke="midnightblue" d="M340.257,-15C348.638,-15 357.163,-15 365.585,-15"/>
<polygon fill="midnightblue" stroke="midnightblue" points="365.79,-18.5001 375.79,-15 365.79,-11.5001 365.79,-18.5001"/>
</g>
<!-- Node4 -->
<g id="node4" class="node"><title>Node4</title>
<g id="a_node4"><a xlink:href="classCTermodinamica.xhtml#ad71e178a8b77f553f5fb2631a509f790" target="_top" xlink:title="CTermodinamica::PressaoVapor">
<polygon fill="white" stroke="black" points="570,-5.5 570,-24.5 728,-24.5 728,-5.5 570,-5.5"/>
<text text-anchor="middle" x="649" y="-12.5" font-family="Helvetica,sans-Serif" font-size="10.00">CTermodinamica::PressaoVapor</text>
</a>
</g>
</g>
<!-- Node3&#45;&gt;Node4 -->
<g id="edge3" class="edge"><title>Node3&#45;&gt;Node4</title>
<path fill="none" stroke="midnightblue" d="M534.094,-15C542.601,-15 551.302,-15 559.918,-15"/>
<polygon fill="midnightblue" stroke="midnightblue" points="559.975,-18.5001 569.975,-15 559.975,-11.5001 559.975,-18.5001"/>
</g>
</g>
</svg>
