<?xml version="1.0" encoding="UTF-8" standalone="no"?>
<!DOCTYPE svg PUBLIC "-//W3C//DTD SVG 1.1//EN"
 "http://www.w3.org/Graphics/SVG/1.1/DTD/svg11.dtd">
<!-- Generated by graphviz version 2.34.0 (20140110.0949)
 -->
<!-- Title: Gnuplot::cmd Pages: 1 -->
<svg width="406pt" height="1700pt"
 viewBox="0.00 0.00 406.00 1700.00" xmlns="http://www.w3.org/2000/svg" xmlns:xlink="http://www.w3.org/1999/xlink">
<g id="graph0" class="graph" transform="scale(1 1) rotate(0) translate(4 1696)">
<title>Gnuplot::cmd</title>
<polygon fill="white" stroke="white" points="-4,4 -4,-1696 402,-1696 402,4 -4,4"/>
<!-- Node1 -->
<g id="node1" class="node"><title>Node1</title>
<polygon fill="#bfbfbf" stroke="black" points="0.5,-836.5 0.5,-855.5 75.5,-855.5 75.5,-836.5 0.5,-836.5"/>
<text text-anchor="middle" x="38" y="-843.5" font-family="Helvetica,sans-Serif" font-size="10.00">Gnuplot::cmd</text>
</g>
<!-- Node2 -->
<g id="node2" class="node"><title>Node2</title>
<g id="a_node2"><a xlink:href="classGnuplot.xhtml#af9ffb5b4c18cdf7c56e5c446f72e515d" target="_top" xlink:title="Envia comando para o gnuplot. ">
<polygon fill="white" stroke="black" points="137.5,-1672.5 137.5,-1691.5 214.5,-1691.5 214.5,-1672.5 137.5,-1672.5"/>
<text text-anchor="middle" x="176" y="-1679.5" font-family="Helvetica,sans-Serif" font-size="10.00">Gnuplot::Cmd</text>
</a>
</g>
</g>
<!-- Node1&#45;&gt;Node2 -->
<g id="edge1" class="edge"><title>Node1&#45;&gt;Node2</title>
<path fill="none" stroke="midnightblue" d="M39.4646,-865.942C42.4096,-985.027 60.0526,-1599.22 112,-1663 118.349,-1670.79 127.777,-1675.48 137.417,-1678.26"/>
<polygon fill="midnightblue" stroke="midnightblue" points="42.9585,-865.644 39.2185,-855.731 35.9605,-865.812 42.9585,-865.644"/>
</g>
<!-- Node3 -->
<g id="node3" class="node"><title>Node3</title>
<g id="a_node3"><a xlink:href="classGnuplot.xhtml#a0d6db1521e789d7b73415ce85b723046" target="_top" xlink:title="Envia comando para o gnuplot. ">
<polygon fill="white" stroke="black" points="125.5,-1634.5 125.5,-1653.5 226.5,-1653.5 226.5,-1634.5 125.5,-1634.5"/>
<text text-anchor="middle" x="176" y="-1641.5" font-family="Helvetica,sans-Serif" font-size="10.00">Gnuplot::Command</text>
</a>
</g>
</g>
<!-- Node1&#45;&gt;Node3 -->
<g id="edge2" class="edge"><title>Node1&#45;&gt;Node3</title>
<path fill="none" stroke="midnightblue" d="M39.5498,-865.723C42.9311,-980.982 62.4199,-1564.39 112,-1625 115.617,-1629.42 120.224,-1632.84 125.297,-1635.48"/>
<polygon fill="midnightblue" stroke="midnightblue" points="43.0432,-865.44 39.2578,-855.544 36.0461,-865.641 43.0432,-865.44"/>
</g>
<!-- Node4 -->
<g id="node4" class="node"><title>Node4</title>
<g id="a_node4"><a xlink:href="classGnuplot.xhtml#ae56495dc15f23d32f099129d3a50dd6c" target="_top" xlink:title="Sobrecarga operador &lt;&lt;, funciona como Comando. ">
<polygon fill="white" stroke="black" points="124,-1596.5 124,-1615.5 228,-1615.5 228,-1596.5 124,-1596.5"/>
<text text-anchor="middle" x="176" y="-1603.5" font-family="Helvetica,sans-Serif" font-size="10.00">Gnuplot::operator&lt;&lt;</text>
</a>
</g>
</g>
<!-- Node1&#45;&gt;Node4 -->
<g id="edge3" class="edge"><title>Node1&#45;&gt;Node4</title>
<path fill="none" stroke="midnightblue" d="M39.6522,-865.797C43.5124,-977.856 64.8266,-1529.61 112,-1587 115.265,-1590.97 119.328,-1594.13 123.809,-1596.65"/>
<polygon fill="midnightblue" stroke="midnightblue" points="43.1432,-865.47 39.3075,-855.594 36.1472,-865.706 43.1432,-865.47"/>
</g>
<!-- Node5 -->
<g id="node5" class="node"><title>Node5</title>
<g id="a_node5"><a xlink:href="classGnuplot.xhtml#a42dfb8c9d4636745c7be277ed818e849" target="_top" xlink:title="Plota uma equacao fornecida como uma std::string y=f(x). Escrever somente a funcao f(x) e nao y= A va...">
<polygon fill="white" stroke="black" points="119,-1558.5 119,-1577.5 233,-1577.5 233,-1558.5 119,-1558.5"/>
<text text-anchor="middle" x="176" y="-1565.5" font-family="Helvetica,sans-Serif" font-size="10.00">Gnuplot::plot_equation</text>
</a>
</g>
</g>
<!-- Node1&#45;&gt;Node5 -->
<g id="edge4" class="edge"><title>Node1&#45;&gt;Node5</title>
<path fill="none" stroke="midnightblue" d="M39.7628,-865.789C44.1161,-974.364 67.2181,-1494.82 112,-1549 115.202,-1552.87 119.165,-1555.98 123.532,-1558.46"/>
<polygon fill="midnightblue" stroke="midnightblue" points="43.2525,-865.458 39.3614,-855.603 36.258,-865.734 43.2525,-865.458"/>
</g>
<!-- Node7 -->
<g id="node7" class="node"><title>Node7</title>
<g id="a_node7"><a xlink:href="classGnuplot.xhtml#a79aed3a6927f7d1d3497cba441e8a943" target="_top" xlink:title="Plota uma equacao fornecida na forma de uma std::string z=f(x,y). Escrever somente a funcao f(x...">
<polygon fill="white" stroke="black" points="113.5,-1520.5 113.5,-1539.5 238.5,-1539.5 238.5,-1520.5 113.5,-1520.5"/>
<text text-anchor="middle" x="176" y="-1527.5" font-family="Helvetica,sans-Serif" font-size="10.00">Gnuplot::plot_equation3d</text>
</a>
</g>
</g>
<!-- Node1&#45;&gt;Node7 -->
<g id="edge6" class="edge"><title>Node1&#45;&gt;Node7</title>
<path fill="none" stroke="midnightblue" d="M39.8818,-865.694C44.7419,-970.509 69.5945,-1460 112,-1511 115.214,-1514.87 119.184,-1517.96 123.555,-1520.44"/>
<polygon fill="midnightblue" stroke="midnightblue" points="43.3722,-865.401 39.4196,-855.571 36.3795,-865.72 43.3722,-865.401"/>
</g>
<!-- Node9 -->
<g id="node9" class="node"><title>Node9</title>
<g id="a_node9"><a xlink:href="classGnuplot.xhtml#ab71117b8fa74d53ea20c313717d86b5c" target="_top" xlink:title="Plota uma imagem. ">
<polygon fill="white" stroke="black" points="124,-1482.5 124,-1501.5 228,-1501.5 228,-1482.5 124,-1482.5"/>
<text text-anchor="middle" x="176" y="-1489.5" font-family="Helvetica,sans-Serif" font-size="10.00">Gnuplot::plot_image</text>
</a>
</g>
</g>
<!-- Node1&#45;&gt;Node9 -->
<g id="edge8" class="edge"><title>Node1&#45;&gt;Node9</title>
<path fill="none" stroke="midnightblue" d="M40.0439,-866.152C45.5019,-968.23 72.0401,-1425.26 112,-1473 115.3,-1476.94 119.386,-1480.09 123.88,-1482.59"/>
<polygon fill="midnightblue" stroke="midnightblue" points="43.529,-865.777 39.5072,-855.975 36.5387,-866.145 43.529,-865.777"/>
</g>
<!-- Node11 -->
<g id="node11" class="node"><title>Node11</title>
<g id="a_node11"><a xlink:href="classGnuplot.xhtml#a51ea5105eb87285820bb93910f8d346c" target="_top" xlink:title="Plota uma equacao da forma y = ax + b, voce fornece os coeficientes a e b. ">
<polygon fill="white" stroke="black" points="125.5,-1444.5 125.5,-1463.5 226.5,-1463.5 226.5,-1444.5 125.5,-1444.5"/>
<text text-anchor="middle" x="176" y="-1451.5" font-family="Helvetica,sans-Serif" font-size="10.00">Gnuplot::plot_slope</text>
</a>
</g>
</g>
<!-- Node1&#45;&gt;Node11 -->
<g id="edge10" class="edge"><title>Node1&#45;&gt;Node11</title>
<path fill="none" stroke="midnightblue" d="M38.6628,-866.067C37.5103,-958.957 37.3091,-1346.43 112,-1435 115.682,-1439.37 120.33,-1442.75 125.424,-1445.37"/>
<polygon fill="midnightblue" stroke="midnightblue" points="42.1661,-865.86 38.8101,-855.811 35.1668,-865.76 42.1661,-865.86"/>
</g>
<!-- Node13 -->
<g id="node13" class="node"><title>Node13</title>
<g id="a_node13"><a xlink:href="classGnuplot.xhtml#a4ca35415fa5560764597cfdfa46c6c40" target="_top" xlink:title="Plota dados de um arquivo de disco. ">
<polygon fill="white" stroke="red" points="128.5,-1406.5 128.5,-1425.5 223.5,-1425.5 223.5,-1406.5 128.5,-1406.5"/>
<text text-anchor="middle" x="176" y="-1413.5" font-family="Helvetica,sans-Serif" font-size="10.00">Gnuplot::plotfile_x</text>
</a>
</g>
</g>
<!-- Node1&#45;&gt;Node13 -->
<g id="edge12" class="edge"><title>Node1&#45;&gt;Node13</title>
<path fill="none" stroke="midnightblue" d="M38.8551,-865.611C38.5992,-954 41.9257,-1314.61 112,-1397 116.367,-1402.13 122.067,-1405.91 128.254,-1408.68"/>
<polygon fill="midnightblue" stroke="midnightblue" points="42.355,-865.62 38.9041,-855.603 35.3551,-865.586 42.355,-865.62"/>
</g>
<!-- Node14 -->
<g id="node14" class="node"><title>Node14</title>
<g id="a_node14"><a xlink:href="classGnuplot.xhtml#af226f395310d3c5c4f8b4d2aaf5d8823" target="_top" xlink:title="Plota pares x,y a partir de um arquivo de disco. ">
<polygon fill="white" stroke="red" points="125.5,-1368.5 125.5,-1387.5 226.5,-1387.5 226.5,-1368.5 125.5,-1368.5"/>
<text text-anchor="middle" x="176" y="-1375.5" font-family="Helvetica,sans-Serif" font-size="10.00">Gnuplot::plotfile_xy</text>
</a>
</g>
</g>
<!-- Node1&#45;&gt;Node14 -->
<g id="edge13" class="edge"><title>Node1&#45;&gt;Node14</title>
<path fill="none" stroke="midnightblue" d="M39.0707,-865.855C39.7733,-950.83 46.717,-1282.99 112,-1359 115.647,-1363.25 120.206,-1366.56 125.195,-1369.15"/>
<polygon fill="midnightblue" stroke="midnightblue" points="42.5701,-865.731 39.0083,-855.753 35.5702,-865.775 42.5701,-865.731"/>
</g>
<!-- Node15 -->
<g id="node15" class="node"><title>Node15</title>
<g id="a_node15"><a xlink:href="classGnuplot.xhtml#a33ab4bb031fa6a6b798c90a9089648e9" target="_top" xlink:title="Plota pares x,y com barra de erro dy a partir de um arquivo. ">
<polygon fill="white" stroke="red" points="117.5,-1330.5 117.5,-1349.5 234.5,-1349.5 234.5,-1330.5 117.5,-1330.5"/>
<text text-anchor="middle" x="176" y="-1337.5" font-family="Helvetica,sans-Serif" font-size="10.00">Gnuplot::plotfile_xy_err</text>
</a>
</g>
</g>
<!-- Node1&#45;&gt;Node15 -->
<g id="edge14" class="edge"><title>Node1&#45;&gt;Node15</title>
<path fill="none" stroke="midnightblue" d="M39.3273,-866.167C41.0534,-947.629 51.5088,-1251.36 112,-1321 115.371,-1324.88 119.504,-1327.98 124.026,-1330.46"/>
<polygon fill="midnightblue" stroke="midnightblue" points="42.8201,-865.747 39.1311,-855.815 35.8213,-865.88 42.8201,-865.747"/>
</g>
<!-- Node16 -->
<g id="node16" class="node"><title>Node16</title>
<g id="a_node16"><a xlink:href="classGnuplot.xhtml#abd1c17c49fc59979a1143384c77c5b66" target="_top" xlink:title="Plota valores de x,y,z a partir de um arquivo de disco. ">
<polygon fill="white" stroke="red" points="123,-1292.5 123,-1311.5 229,-1311.5 229,-1292.5 123,-1292.5"/>
<text text-anchor="middle" x="176" y="-1299.5" font-family="Helvetica,sans-Serif" font-size="10.00">Gnuplot::plotfile_xyz</text>
</a>
</g>
</g>
<!-- Node1&#45;&gt;Node16 -->
<g id="edge15" class="edge"><title>Node1&#45;&gt;Node16</title>
<path fill="none" stroke="midnightblue" d="M39.619,-866.02C42.4008,-943.104 56.1714,-1219.56 112,-1283 115.396,-1286.86 119.545,-1289.95 124.077,-1292.42"/>
<polygon fill="midnightblue" stroke="midnightblue" points="43.1089,-865.657 39.2733,-855.781 36.1129,-865.893 43.1089,-865.657"/>
</g>
<!-- Node17 -->
<g id="node17" class="node"><title>Node17</title>
<g id="a_node17"><a xlink:href="classGnuplot.xhtml#ae4f110479cfd8dc9b1b3d45809fb05e0" target="_top" xlink:title="Gnuplot::replot">
<polygon fill="white" stroke="red" points="136,-1254.5 136,-1273.5 216,-1273.5 216,-1254.5 136,-1254.5"/>
<text text-anchor="middle" x="176" y="-1261.5" font-family="Helvetica,sans-Serif" font-size="10.00">Gnuplot::replot</text>
</a>
</g>
</g>
<!-- Node1&#45;&gt;Node17 -->
<g id="edge16" class="edge"><title>Node1&#45;&gt;Node17</title>
<path fill="none" stroke="midnightblue" d="M40.1757,-866.213C44.7514,-938.349 63.5745,-1181.92 112,-1240 118.146,-1247.37 126.819,-1252.48 135.769,-1256.03"/>
<polygon fill="midnightblue" stroke="midnightblue" points="43.6443,-865.589 39.5414,-855.821 36.6573,-866.015 43.6443,-865.589"/>
</g>
<!-- Node18 -->
<g id="node18" class="node"><title>Node18</title>
<g id="a_node18"><a xlink:href="classGnuplot.xhtml#a9aedfe8371083a1a3ac2b9493810049c" target="_top" xlink:title="Gnuplot::reset_all">
<polygon fill="white" stroke="red" points="290.5,-760.5 290.5,-779.5 383.5,-779.5 383.5,-760.5 290.5,-760.5"/>
<text text-anchor="middle" x="337" y="-767.5" font-family="Helvetica,sans-Serif" font-size="10.00">Gnuplot::reset_all</text>
</a>
</g>
</g>
<!-- Node1&#45;&gt;Node18 -->
<g id="edge17" class="edge"><title>Node1&#45;&gt;Node18</title>
<path fill="none" stroke="midnightblue" d="M39.8521,-866.024C43.2596,-935.333 58.4304,-1163.18 112,-1207 156.033,-1243.02 195.667,-1242.65 240,-1207 310.066,-1150.66 331.915,-838.857 335.456,-779.693"/>
<polygon fill="midnightblue" stroke="midnightblue" points="43.3309,-865.481 39.3737,-855.653 36.3384,-865.804 43.3309,-865.481"/>
</g>
<!-- Node19 -->
<g id="node19" class="node"><title>Node19</title>
<g id="a_node19"><a xlink:href="classGnuplot.xhtml#a032072c7c01b508a7535a17fb08562b1" target="_top" xlink:title="Salva sessao do gnuplot para um arquivo postscript, nome do arquivo sem extensao. ...">
<polygon fill="white" stroke="red" points="128,-1178.5 128,-1197.5 224,-1197.5 224,-1178.5 128,-1178.5"/>
<text text-anchor="middle" x="176" y="-1185.5" font-family="Helvetica,sans-Serif" font-size="10.00">Gnuplot::savetops</text>
</a>
</g>
</g>
<!-- Node1&#45;&gt;Node19 -->
<g id="edge18" class="edge"><title>Node1&#45;&gt;Node19</title>
<path fill="none" stroke="midnightblue" d="M40.8907,-865.861C47.2927,-929.072 70.1244,-1124.06 112,-1169 116.361,-1173.68 121.829,-1177.22 127.711,-1179.9"/>
<polygon fill="midnightblue" stroke="midnightblue" points="44.3492,-865.267 39.8856,-855.658 37.3829,-865.953 44.3492,-865.267"/>
</g>
<!-- Node20 -->
<g id="node20" class="node"><title>Node20</title>
<g id="a_node20"><a xlink:href="classGnuplot.xhtml#a2c8c8ae0441f54dd728bc6594051c137" target="_top" xlink:title="Seta intervalo da palette (autoscale por padrao). ">
<polygon fill="white" stroke="red" points="121,-1140.5 121,-1159.5 231,-1159.5 231,-1140.5 121,-1140.5"/>
<text text-anchor="middle" x="176" y="-1147.5" font-family="Helvetica,sans-Serif" font-size="10.00">Gnuplot::set_cbrange</text>
</a>
</g>
</g>
<!-- Node1&#45;&gt;Node20 -->
<g id="edge19" class="edge"><title>Node1&#45;&gt;Node20</title>
<path fill="none" stroke="midnightblue" d="M41.524,-865.769C49.3133,-923.814 74.7198,-1092.11 112,-1131 115.716,-1134.88 120.191,-1137.97 125.021,-1140.44"/>
<polygon fill="midnightblue" stroke="midnightblue" points="44.9743,-865.16 40.2028,-855.701 38.0338,-866.071 44.9743,-865.16"/>
</g>
<!-- Node21 -->
<g id="node21" class="node"><title>Node21</title>
<g id="a_node21"><a xlink:href="classGnuplot.xhtml#af845efc728a90d7e10de764eff0b2423" target="_top" xlink:title="Ativa desenho do contorno em superficies (para plotagen 3d). ">
<polygon fill="white" stroke="red" points="122.5,-1102.5 122.5,-1121.5 229.5,-1121.5 229.5,-1102.5 122.5,-1102.5"/>
<text text-anchor="middle" x="176" y="-1109.5" font-family="Helvetica,sans-Serif" font-size="10.00">Gnuplot::set_contour</text>
</a>
</g>
</g>
<!-- Node1&#45;&gt;Node21 -->
<g id="edge20" class="edge"><title>Node1&#45;&gt;Node21</title>
<path fill="none" stroke="midnightblue" d="M38.8734,-865.86C39.6879,-912.32 48.3421,-1028.99 112,-1093 115.867,-1096.89 120.498,-1099.99 125.472,-1102.45"/>
<polygon fill="midnightblue" stroke="midnightblue" points="42.372,-865.613 38.8066,-855.636 35.3721,-865.659 42.372,-865.613"/>
</g>
<!-- Node22 -->
<g id="node22" class="node"><title>Node22</title>
<g id="a_node22"><a xlink:href="classGnuplot.xhtml#a4b7245b12dad1c0ef326e5f59eb83001" target="_top" xlink:title="Ativa o grid (padrao = desativado). ">
<polygon fill="white" stroke="red" points="130.5,-1064.5 130.5,-1083.5 221.5,-1083.5 221.5,-1064.5 130.5,-1064.5"/>
<text text-anchor="middle" x="176" y="-1071.5" font-family="Helvetica,sans-Serif" font-size="10.00">Gnuplot::set_grid</text>
</a>
</g>
</g>
<!-- Node1&#45;&gt;Node22 -->
<g id="edge21" class="edge"><title>Node1&#45;&gt;Node22</title>
<path fill="none" stroke="midnightblue" d="M40.1091,-865.567C43.5056,-906.67 57.1976,-1002.51 112,-1055 117.198,-1059.98 123.653,-1063.66 130.431,-1066.37"/>
<polygon fill="midnightblue" stroke="midnightblue" points="43.5945,-865.236 39.3985,-855.507 36.6119,-865.729 43.5945,-865.236"/>
</g>
<!-- Node23 -->
<g id="node23" class="node"><title>Node23</title>
<g id="a_node23"><a xlink:href="classGnuplot.xhtml#a5ada5c76db0a735d3d331caa0eb4968a" target="_top" xlink:title="Ativa remocao de linhas ocultas na plotagem de superficies (para plotagen 3d). ">
<polygon fill="white" stroke="red" points="119,-1026.5 119,-1045.5 233,-1045.5 233,-1026.5 119,-1026.5"/>
<text text-anchor="middle" x="176" y="-1033.5" font-family="Helvetica,sans-Serif" font-size="10.00">Gnuplot::set_hidden3d</text>
</a>
</g>
</g>
<!-- Node1&#45;&gt;Node23 -->
<g id="edge22" class="edge"><title>Node1&#45;&gt;Node23</title>
<path fill="none" stroke="midnightblue" d="M41.9033,-865.859C48.1507,-901.405 66.2074,-976.01 112,-1017 116.341,-1020.89 121.453,-1023.98 126.856,-1026.44"/>
<polygon fill="midnightblue" stroke="midnightblue" points="45.325,-865.094 40.2697,-855.783 38.4152,-866.214 45.325,-865.094"/>
</g>
<!-- Node24 -->
<g id="node24" class="node"><title>Node24</title>
<g id="a_node24"><a xlink:href="classGnuplot.xhtml#ab810fa4c02fb49ae197786c305b78702" target="_top" xlink:title="Seta densidade de isolinhas para plotagem de funcoes como superficies (para plotagen 3d)...">
<polygon fill="white" stroke="red" points="113.5,-988.5 113.5,-1007.5 238.5,-1007.5 238.5,-988.5 113.5,-988.5"/>
<text text-anchor="middle" x="176" y="-995.5" font-family="Helvetica,sans-Serif" font-size="10.00">Gnuplot::set_isosamples</text>
</a>
</g>
</g>
<!-- Node1&#45;&gt;Node24 -->
<g id="edge23" class="edge"><title>Node1&#45;&gt;Node24</title>
<path fill="none" stroke="midnightblue" d="M44.4689,-865.457C53.6205,-894.466 74.7962,-948.861 112,-979 116.793,-982.883 122.368,-985.974 128.18,-988.433"/>
<polygon fill="midnightblue" stroke="midnightblue" points="47.7642,-864.261 41.5418,-855.686 41.0586,-866.269 47.7642,-864.261"/>
</g>
<!-- Node25 -->
<g id="node25" class="node"><title>Node25</title>
<g id="a_node25"><a xlink:href="classGnuplot.xhtml#ad64a717dac18167f656c4f09239973f8" target="_top" xlink:title="Ativa a legenda (a legenda é setada por padrao). Posicao: inside/outside, left/center/right, top/center/bottom, nobox/box. ">
<polygon fill="white" stroke="red" points="124,-950.5 124,-969.5 228,-969.5 228,-950.5 124,-950.5"/>
<text text-anchor="middle" x="176" y="-957.5" font-family="Helvetica,sans-Serif" font-size="10.00">Gnuplot::set_legend</text>
</a>
</g>
</g>
<!-- Node1&#45;&gt;Node25 -->
<g id="edge24" class="edge"><title>Node1&#45;&gt;Node25</title>
<path fill="none" stroke="midnightblue" d="M48.5183,-864.5C60.4974,-885.982 83.0552,-921.016 112,-941 117.641,-944.894 124.098,-948.007 130.679,-950.49"/>
<polygon fill="midnightblue" stroke="midnightblue" points="51.5956,-862.832 43.7738,-855.686 45.4319,-866.15 51.5956,-862.832"/>
</g>
<!-- Node26 -->
<g id="node26" class="node"><title>Node26</title>
<g id="a_node26"><a xlink:href="classGnuplot.xhtml#a95ec1636a871447dfe99463b769339c7" target="_top" xlink:title="Desativa suavizacao. ">
<polygon fill="white" stroke="red" points="119,-912.5 119,-931.5 233,-931.5 233,-912.5 119,-912.5"/>
<text text-anchor="middle" x="176" y="-919.5" font-family="Helvetica,sans-Serif" font-size="10.00">Gnuplot::set_pointsize</text>
</a>
</g>
</g>
<!-- Node1&#45;&gt;Node26 -->
<g id="edge25" class="edge"><title>Node1&#45;&gt;Node26</title>
<path fill="none" stroke="midnightblue" d="M56.4633,-862.689C70.4981,-875.309 91.2326,-892.243 112,-903 119.202,-906.731 127.255,-909.853 135.134,-912.418"/>
<polygon fill="midnightblue" stroke="midnightblue" points="58.751,-860.038 49.0245,-855.837 54.0084,-865.187 58.751,-860.038"/>
</g>
<!-- Node27 -->
<g id="node27" class="node"><title>Node27</title>
<g id="a_node27"><a xlink:href="classGnuplot.xhtml#a671cbe7b18a267ea59f532c83a0035f6" target="_top" xlink:title="Seta taxa de amostragem das funcoes, ou dos dados de interpolacao. ">
<polygon fill="white" stroke="red" points="120,-874.5 120,-893.5 232,-893.5 232,-874.5 120,-874.5"/>
<text text-anchor="middle" x="176" y="-881.5" font-family="Helvetica,sans-Serif" font-size="10.00">Gnuplot::set_samples</text>
</a>
</g>
</g>
<!-- Node1&#45;&gt;Node27 -->
<g id="edge26" class="edge"><title>Node1&#45;&gt;Node27</title>
<path fill="none" stroke="midnightblue" d="M83.0866,-858.318C101.772,-863.539 123.218,-869.532 140.692,-874.414"/>
<polygon fill="midnightblue" stroke="midnightblue" points="83.8915,-854.909 73.3185,-855.589 82.0078,-861.651 83.8915,-854.909"/>
</g>
<!-- Node28 -->
<g id="node28" class="node"><title>Node28</title>
<g id="a_node28"><a xlink:href="classGnuplot.xhtml#a0e36dcd81618234c6cdd135a9e1eee2b" target="_top" xlink:title="Ativa a visualizacao da superficie (para plotagen 3d). ">
<polygon fill="white" stroke="red" points="122.5,-836.5 122.5,-855.5 229.5,-855.5 229.5,-836.5 122.5,-836.5"/>
<text text-anchor="middle" x="176" y="-843.5" font-family="Helvetica,sans-Serif" font-size="10.00">Gnuplot::set_surface</text>
</a>
</g>
</g>
<!-- Node1&#45;&gt;Node28 -->
<g id="edge27" class="edge"><title>Node1&#45;&gt;Node28</title>
<path fill="none" stroke="midnightblue" d="M85.857,-846C97.6177,-846 110.315,-846 122.338,-846"/>
<polygon fill="midnightblue" stroke="midnightblue" points="85.8036,-842.5 75.8036,-846 85.8035,-849.5 85.8036,-842.5"/>
</g>
<!-- Node29 -->
<g id="node29" class="node"><title>Node29</title>
<g id="a_node29"><a xlink:href="classGnuplot.xhtml#aa693e806a115af1e2776a15078e75b46" target="_top" xlink:title="Ativa o titulo da secao do gnuplot. ">
<polygon fill="white" stroke="red" points="130.5,-798.5 130.5,-817.5 221.5,-817.5 221.5,-798.5 130.5,-798.5"/>
<text text-anchor="middle" x="176" y="-805.5" font-family="Helvetica,sans-Serif" font-size="10.00">Gnuplot::set_title</text>
</a>
</g>
</g>
<!-- Node1&#45;&gt;Node29 -->
<g id="edge28" class="edge"><title>Node1&#45;&gt;Node29</title>
<path fill="none" stroke="midnightblue" d="M83.0866,-833.682C101.772,-828.461 123.218,-822.468 140.692,-817.586"/>
<polygon fill="midnightblue" stroke="midnightblue" points="82.0078,-830.349 73.3185,-836.411 83.8915,-837.091 82.0078,-830.349"/>
</g>
<!-- Node30 -->
<g id="node30" class="node"><title>Node30</title>
<g id="a_node30"><a xlink:href="classGnuplot.xhtml#a453688dc2eb979f842082290f3c02ac3" target="_top" xlink:title="Seta escalonamento automatico do eixo x (default). ">
<polygon fill="white" stroke="red" points="115,-760.5 115,-779.5 237,-779.5 237,-760.5 115,-760.5"/>
<text text-anchor="middle" x="176" y="-767.5" font-family="Helvetica,sans-Serif" font-size="10.00">Gnuplot::set_xautoscale</text>
</a>
</g>
</g>
<!-- Node1&#45;&gt;Node30 -->
<g id="edge29" class="edge"><title>Node1&#45;&gt;Node30</title>
<path fill="none" stroke="midnightblue" d="M56.4633,-829.311C70.4981,-816.691 91.2326,-799.757 112,-789 119.202,-785.269 127.255,-782.147 135.134,-779.582"/>
<polygon fill="midnightblue" stroke="midnightblue" points="54.0084,-826.813 49.0245,-836.163 58.751,-831.962 54.0084,-826.813"/>
</g>
<!-- Node31 -->
<g id="node31" class="node"><title>Node31</title>
<g id="a_node31"><a xlink:href="classGnuplot.xhtml#a58808028aec03a22b5c19693b14baeef" target="_top" xlink:title="Seta o rotulo (nome) do eixo x. ">
<polygon fill="white" stroke="red" points="125.5,-722.5 125.5,-741.5 226.5,-741.5 226.5,-722.5 125.5,-722.5"/>
<text text-anchor="middle" x="176" y="-729.5" font-family="Helvetica,sans-Serif" font-size="10.00">Gnuplot::set_xlabel</text>
</a>
</g>
</g>
<!-- Node1&#45;&gt;Node31 -->
<g id="edge30" class="edge"><title>Node1&#45;&gt;Node31</title>
<path fill="none" stroke="midnightblue" d="M48.5183,-827.5C60.4974,-806.018 83.0552,-770.984 112,-751 117.641,-747.106 124.098,-743.993 130.679,-741.51"/>
<polygon fill="midnightblue" stroke="midnightblue" points="45.4319,-825.85 43.7738,-836.314 51.5956,-829.168 45.4319,-825.85"/>
</g>
<!-- Node32 -->
<g id="node32" class="node"><title>Node32</title>
<g id="a_node32"><a xlink:href="classGnuplot.xhtml#aff546fad227d93babeb5d2cc9f047b89" target="_top" xlink:title="Ativa escala logaritma do eixo x (logscale nao e setado por default). ">
<polygon fill="white" stroke="red" points="118,-684.5 118,-703.5 234,-703.5 234,-684.5 118,-684.5"/>
<text text-anchor="middle" x="176" y="-691.5" font-family="Helvetica,sans-Serif" font-size="10.00">Gnuplot::set_xlogscale</text>
</a>
</g>
</g>
<!-- Node1&#45;&gt;Node32 -->
<g id="edge31" class="edge"><title>Node1&#45;&gt;Node32</title>
<path fill="none" stroke="midnightblue" d="M44.4689,-826.543C53.6205,-797.534 74.7962,-743.139 112,-713 116.793,-709.117 122.368,-706.026 128.18,-703.567"/>
<polygon fill="midnightblue" stroke="midnightblue" points="41.0586,-825.731 41.5418,-836.314 47.7642,-827.739 41.0586,-825.731"/>
</g>
<!-- Node33 -->
<g id="node33" class="node"><title>Node33</title>
<g id="a_node33"><a xlink:href="classGnuplot.xhtml#a726232ac7226b9fc8811eaefa87c902b" target="_top" xlink:title="Seta intervalo do eixo x. ">
<polygon fill="white" stroke="red" points="124,-646.5 124,-665.5 228,-665.5 228,-646.5 124,-646.5"/>
<text text-anchor="middle" x="176" y="-653.5" font-family="Helvetica,sans-Serif" font-size="10.00">Gnuplot::set_xrange</text>
</a>
</g>
</g>
<!-- Node1&#45;&gt;Node33 -->
<g id="edge32" class="edge"><title>Node1&#45;&gt;Node33</title>
<path fill="none" stroke="midnightblue" d="M41.9033,-826.141C48.1507,-790.595 66.2074,-715.99 112,-675 116.341,-671.114 121.453,-668.022 126.856,-665.563"/>
<polygon fill="midnightblue" stroke="midnightblue" points="38.4152,-825.786 40.2697,-836.217 45.325,-826.906 38.4152,-825.786"/>
</g>
<!-- Node34 -->
<g id="node34" class="node"><title>Node34</title>
<g id="a_node34"><a xlink:href="classGnuplot.xhtml#a3cc19dba32bb2d3ac59494ae1493faa7" target="_top" xlink:title="Seta escalonamento automatico do eixo y (default). ">
<polygon fill="white" stroke="red" points="115,-608.5 115,-627.5 237,-627.5 237,-608.5 115,-608.5"/>
<text text-anchor="middle" x="176" y="-615.5" font-family="Helvetica,sans-Serif" font-size="10.00">Gnuplot::set_yautoscale</text>
</a>
</g>
</g>
<!-- Node1&#45;&gt;Node34 -->
<g id="edge33" class="edge"><title>Node1&#45;&gt;Node34</title>
<path fill="none" stroke="midnightblue" d="M40.1091,-826.433C43.5056,-785.33 57.1976,-689.489 112,-637 116.043,-633.128 120.846,-630.042 125.97,-627.583"/>
<polygon fill="midnightblue" stroke="midnightblue" points="36.6119,-826.271 39.3985,-836.493 43.5945,-826.764 36.6119,-826.271"/>
</g>
<!-- Node35 -->
<g id="node35" class="node"><title>Node35</title>
<g id="a_node35"><a xlink:href="classGnuplot.xhtml#a7654b86e3873aec4c5101abb466fe4ab" target="_top" xlink:title="Seta o rotulo (nome) do eixo y. ">
<polygon fill="white" stroke="red" points="125.5,-570.5 125.5,-589.5 226.5,-589.5 226.5,-570.5 125.5,-570.5"/>
<text text-anchor="middle" x="176" y="-577.5" font-family="Helvetica,sans-Serif" font-size="10.00">Gnuplot::set_ylabel</text>
</a>
</g>
</g>
<!-- Node1&#45;&gt;Node35 -->
<g id="edge34" class="edge"><title>Node1&#45;&gt;Node35</title>
<path fill="none" stroke="midnightblue" d="M38.8734,-826.14C39.6879,-779.68 48.3421,-663.012 112,-599 115.867,-595.112 120.498,-592.014 125.472,-589.546"/>
<polygon fill="midnightblue" stroke="midnightblue" points="35.3721,-826.341 38.8066,-836.364 42.372,-826.387 35.3721,-826.341"/>
</g>
<!-- Node36 -->
<g id="node36" class="node"><title>Node36</title>
<g id="a_node36"><a xlink:href="classGnuplot.xhtml#a201a802d2f27fece0d39809c4eb3bce0" target="_top" xlink:title="Ativa escala logaritma do eixo y (logscale nao e setado por default). ">
<polygon fill="white" stroke="red" points="118,-532.5 118,-551.5 234,-551.5 234,-532.5 118,-532.5"/>
<text text-anchor="middle" x="176" y="-539.5" font-family="Helvetica,sans-Serif" font-size="10.00">Gnuplot::set_ylogscale</text>
</a>
</g>
</g>
<!-- Node1&#45;&gt;Node36 -->
<g id="edge35" class="edge"><title>Node1&#45;&gt;Node36</title>
<path fill="none" stroke="midnightblue" d="M41.524,-826.231C49.3133,-768.186 74.7198,-599.886 112,-561 115.716,-557.124 120.191,-554.031 125.021,-551.564"/>
<polygon fill="midnightblue" stroke="midnightblue" points="38.0338,-825.929 40.2028,-836.299 44.9743,-826.84 38.0338,-825.929"/>
</g>
<!-- Node37 -->
<g id="node37" class="node"><title>Node37</title>
<g id="a_node37"><a xlink:href="classGnuplot.xhtml#af621a43664a07523f098ffc3fb5a99b0" target="_top" xlink:title="Seta intervalo do eixo y. ">
<polygon fill="white" stroke="red" points="124,-494.5 124,-513.5 228,-513.5 228,-494.5 124,-494.5"/>
<text text-anchor="middle" x="176" y="-501.5" font-family="Helvetica,sans-Serif" font-size="10.00">Gnuplot::set_yrange</text>
</a>
</g>
</g>
<!-- Node1&#45;&gt;Node37 -->
<g id="edge36" class="edge"><title>Node1&#45;&gt;Node37</title>
<path fill="none" stroke="midnightblue" d="M40.8907,-826.139C47.2927,-762.928 70.1244,-567.943 112,-523 115.582,-519.155 119.911,-516.079 124.603,-513.618"/>
<polygon fill="midnightblue" stroke="midnightblue" points="37.3829,-826.047 39.8856,-836.342 44.3492,-826.733 37.3829,-826.047"/>
</g>
<!-- Node38 -->
<g id="node38" class="node"><title>Node38</title>
<g id="a_node38"><a xlink:href="classGnuplot.xhtml#ad72aa208fad039b6b7d13ea9595ce157" target="_top" xlink:title="Seta escalonamento automatico do eixo z (default). ">
<polygon fill="white" stroke="red" points="115,-456.5 115,-475.5 237,-475.5 237,-456.5 115,-456.5"/>
<text text-anchor="middle" x="176" y="-463.5" font-family="Helvetica,sans-Serif" font-size="10.00">Gnuplot::set_zautoscale</text>
</a>
</g>
</g>
<!-- Node1&#45;&gt;Node38 -->
<g id="edge37" class="edge"><title>Node1&#45;&gt;Node38</title>
<path fill="none" stroke="midnightblue" d="M40.3838,-826.057C45.4987,-757.964 65.5006,-536.058 112,-485 115.538,-481.115 119.839,-478.012 124.514,-475.537"/>
<polygon fill="midnightblue" stroke="midnightblue" points="36.8759,-826.041 39.6433,-836.268 43.8576,-826.547 36.8759,-826.041"/>
</g>
<!-- Node39 -->
<g id="node39" class="node"><title>Node39</title>
<g id="a_node39"><a xlink:href="classGnuplot.xhtml#ab3206e715d20f05cc0dd1eec89ce8b07" target="_top" xlink:title="Seta o rotulo (nome) do eixo z. ">
<polygon fill="white" stroke="red" points="125.5,-418.5 125.5,-437.5 226.5,-437.5 226.5,-418.5 125.5,-418.5"/>
<text text-anchor="middle" x="176" y="-425.5" font-family="Helvetica,sans-Serif" font-size="10.00">Gnuplot::set_zlabel</text>
</a>
</g>
</g>
<!-- Node1&#45;&gt;Node39 -->
<g id="edge38" class="edge"><title>Node1&#45;&gt;Node39</title>
<path fill="none" stroke="midnightblue" d="M39.9493,-826.338C43.8271,-754.06 60.7701,-504.312 112,-447 115.731,-442.826 120.341,-439.555 125.358,-436.992"/>
<polygon fill="midnightblue" stroke="midnightblue" points="36.4523,-826.191 39.4359,-836.357 43.4432,-826.55 36.4523,-826.191"/>
</g>
<!-- Node40 -->
<g id="node40" class="node"><title>Node40</title>
<g id="a_node40"><a xlink:href="classGnuplot.xhtml#a1da3838163b0dbde8809b55c5b5c56b1" target="_top" xlink:title="Ativa escala logaritma do eixo y (logscale nao e setado por default). ">
<polygon fill="white" stroke="red" points="118,-380.5 118,-399.5 234,-399.5 234,-380.5 118,-380.5"/>
<text text-anchor="middle" x="176" y="-387.5" font-family="Helvetica,sans-Serif" font-size="10.00">Gnuplot::set_zlogscale</text>
</a>
</g>
</g>
<!-- Node1&#45;&gt;Node40 -->
<g id="edge39" class="edge"><title>Node1&#45;&gt;Node40</title>
<path fill="none" stroke="midnightblue" d="M39.619,-825.98C42.4008,-748.896 56.1714,-472.436 112,-409 115.396,-405.141 119.545,-402.051 124.077,-399.58"/>
<polygon fill="midnightblue" stroke="midnightblue" points="36.1129,-826.107 39.2733,-836.219 43.1089,-826.343 36.1129,-826.107"/>
</g>
<!-- Node41 -->
<g id="node41" class="node"><title>Node41</title>
<g id="a_node41"><a xlink:href="classGnuplot.xhtml#a91666451b8cfd1c5b279d2e585b11af6" target="_top" xlink:title="Seta intervalo do eixo z. ">
<polygon fill="white" stroke="red" points="124,-342.5 124,-361.5 228,-361.5 228,-342.5 124,-342.5"/>
<text text-anchor="middle" x="176" y="-349.5" font-family="Helvetica,sans-Serif" font-size="10.00">Gnuplot::set_zrange</text>
</a>
</g>
</g>
<!-- Node1&#45;&gt;Node41 -->
<g id="edge40" class="edge"><title>Node1&#45;&gt;Node41</title>
<path fill="none" stroke="midnightblue" d="M39.3273,-825.833C41.0534,-744.371 51.5088,-440.643 112,-371 115.371,-367.119 119.504,-364.015 124.026,-361.535"/>
<polygon fill="midnightblue" stroke="midnightblue" points="35.8213,-826.12 39.1311,-836.185 42.8201,-826.253 35.8213,-826.12"/>
</g>
<!-- Node42 -->
<g id="node42" class="node"><title>Node42</title>
<g id="a_node42"><a xlink:href="classGnuplot.xhtml#a356d2faaa79f08d13fec9718b776b28d" target="_top" xlink:title="Mostrar na tela ou escrever no arquivo, seta o tipo de terminal para terminal_std. ">
<polygon fill="white" stroke="red" points="116.5,-304.5 116.5,-323.5 235.5,-323.5 235.5,-304.5 116.5,-304.5"/>
<text text-anchor="middle" x="176" y="-311.5" font-family="Helvetica,sans-Serif" font-size="10.00">Gnuplot::showonscreen</text>
</a>
</g>
</g>
<!-- Node1&#45;&gt;Node42 -->
<g id="edge41" class="edge"><title>Node1&#45;&gt;Node42</title>
<path fill="none" stroke="midnightblue" d="M39.0707,-826.145C39.7733,-741.17 46.717,-409.011 112,-333 115.275,-329.187 119.285,-326.123 123.682,-323.664"/>
<polygon fill="midnightblue" stroke="midnightblue" points="35.5702,-826.225 39.0083,-836.247 42.5701,-826.269 35.5702,-826.225"/>
</g>
<!-- Node43 -->
<g id="node43" class="node"><title>Node43</title>
<g id="a_node43"><a xlink:href="classGnuplot.xhtml#a39d10e6ce85875939a9c594d132a10d7" target="_top" xlink:title="Desativa desenho do contorno em superficies (para plotagen 3d). ">
<polygon fill="white" stroke="red" points="117,-266.5 117,-285.5 235,-285.5 235,-266.5 117,-266.5"/>
<text text-anchor="middle" x="176" y="-273.5" font-family="Helvetica,sans-Serif" font-size="10.00">Gnuplot::unset_contour</text>
</a>
</g>
</g>
<!-- Node1&#45;&gt;Node43 -->
<g id="edge43" class="edge"><title>Node1&#45;&gt;Node43</title>
<path fill="none" stroke="midnightblue" d="M38.8551,-826.389C38.5992,-738 41.9257,-377.389 112,-295 115.257,-291.171 119.255,-288.097 123.644,-285.632"/>
<polygon fill="midnightblue" stroke="midnightblue" points="35.3551,-826.414 38.9041,-836.397 42.355,-826.38 35.3551,-826.414"/>
</g>
<!-- Node44 -->
<g id="node44" class="node"><title>Node44</title>
<g id="a_node44"><a xlink:href="classGnuplot.xhtml#a8b9a16d5793c3f4939b917b2c263860c" target="_top" xlink:title="Desativa o grid (padrao = desativado). ">
<polygon fill="white" stroke="red" points="125.5,-228.5 125.5,-247.5 226.5,-247.5 226.5,-228.5 125.5,-228.5"/>
<text text-anchor="middle" x="176" y="-235.5" font-family="Helvetica,sans-Serif" font-size="10.00">Gnuplot::unset_grid</text>
</a>
</g>
</g>
<!-- Node1&#45;&gt;Node44 -->
<g id="edge44" class="edge"><title>Node1&#45;&gt;Node44</title>
<path fill="none" stroke="midnightblue" d="M38.6628,-825.933C37.5103,-733.043 37.3091,-345.569 112,-257 115.682,-252.633 120.33,-249.248 125.424,-246.626"/>
<polygon fill="midnightblue" stroke="midnightblue" points="35.1668,-826.24 38.8101,-836.189 42.1661,-826.14 35.1668,-826.24"/>
</g>
<!-- Node45 -->
<g id="node45" class="node"><title>Node45</title>
<g id="a_node45"><a xlink:href="classGnuplot.xhtml#a763ff17df1679cc2b1463b024aa89ebc" target="_top" xlink:title="Desativa remocao de linhas ocultas na plotagem de superficies (para plotagen 3d). ...">
<polygon fill="white" stroke="red" points="113.5,-190.5 113.5,-209.5 238.5,-209.5 238.5,-190.5 113.5,-190.5"/>
<text text-anchor="middle" x="176" y="-197.5" font-family="Helvetica,sans-Serif" font-size="10.00">Gnuplot::unset_hidden3d</text>
</a>
</g>
</g>
<!-- Node1&#45;&gt;Node45 -->
<g id="edge45" class="edge"><title>Node1&#45;&gt;Node45</title>
<path fill="none" stroke="midnightblue" d="M40.0439,-825.848C45.5019,-723.77 72.0401,-266.742 112,-219 115.226,-215.145 119.205,-212.055 123.581,-209.579"/>
<polygon fill="midnightblue" stroke="midnightblue" points="36.5387,-825.855 39.5072,-836.025 43.529,-826.223 36.5387,-825.855"/>
</g>
<!-- Node46 -->
<g id="node46" class="node"><title>Node46</title>
<g id="a_node46"><a xlink:href="classGnuplot.xhtml#a584e0710d7f5bcaa35653d1987f1563e" target="_top" xlink:title="Desativa a legenda (a legenda é setada por padrao). ">
<polygon fill="white" stroke="red" points="119,-152.5 119,-171.5 233,-171.5 233,-152.5 119,-152.5"/>
<text text-anchor="middle" x="176" y="-159.5" font-family="Helvetica,sans-Serif" font-size="10.00">Gnuplot::unset_legend</text>
</a>
</g>
</g>
<!-- Node1&#45;&gt;Node46 -->
<g id="edge46" class="edge"><title>Node1&#45;&gt;Node46</title>
<path fill="none" stroke="midnightblue" d="M39.8818,-826.306C44.7419,-721.491 69.5945,-232.003 112,-181 115.214,-177.135 119.184,-174.037 123.555,-171.557"/>
<polygon fill="midnightblue" stroke="midnightblue" points="36.3795,-826.28 39.4196,-836.429 43.3722,-826.599 36.3795,-826.28"/>
</g>
<!-- Node47 -->
<g id="node47" class="node"><title>Node47</title>
<g id="a_node47"><a xlink:href="classGnuplot.xhtml#a805f1807c9b3a0a6745d66fa1729e3be" target="_top" xlink:title="Desativa a visualizacao da superficie (para plotagen 3d). ">
<polygon fill="white" stroke="red" points="117,-114.5 117,-133.5 235,-133.5 235,-114.5 117,-114.5"/>
<text text-anchor="middle" x="176" y="-121.5" font-family="Helvetica,sans-Serif" font-size="10.00">Gnuplot::unset_surface</text>
</a>
</g>
</g>
<!-- Node1&#45;&gt;Node47 -->
<g id="edge47" class="edge"><title>Node1&#45;&gt;Node47</title>
<path fill="none" stroke="midnightblue" d="M39.7628,-826.211C44.1161,-717.636 67.2181,-197.184 112,-143 115.202,-139.125 119.165,-136.021 123.532,-133.538"/>
<polygon fill="midnightblue" stroke="midnightblue" points="36.258,-826.266 39.3614,-836.397 43.2525,-826.542 36.258,-826.266"/>
</g>
<!-- Node48 -->
<g id="node48" class="node"><title>Node48</title>
<g id="a_node48"><a xlink:href="classGnuplot.xhtml#aed8f962539fd8f53ab2c0218da7a6010" target="_top" xlink:title="Desativa escala logaritma do eixo x (logscale nao e setado por default). ">
<polygon fill="white" stroke="red" points="112.5,-76.5 112.5,-95.5 239.5,-95.5 239.5,-76.5 112.5,-76.5"/>
<text text-anchor="middle" x="176" y="-83.5" font-family="Helvetica,sans-Serif" font-size="10.00">Gnuplot::unset_xlogscale</text>
</a>
</g>
</g>
<!-- Node1&#45;&gt;Node48 -->
<g id="edge48" class="edge"><title>Node1&#45;&gt;Node48</title>
<path fill="none" stroke="midnightblue" d="M39.6522,-826.203C43.5124,-714.144 64.8266,-162.385 112,-105 115.192,-101.117 119.148,-98.0075 123.511,-95.5203"/>
<polygon fill="midnightblue" stroke="midnightblue" points="36.1472,-826.294 39.3075,-836.406 43.1432,-826.53 36.1472,-826.294"/>
</g>
<!-- Node49 -->
<g id="node49" class="node"><title>Node49</title>
<g id="a_node49"><a xlink:href="classGnuplot.xhtml#a74ebc96273b30c98fb9c8f047dd34ac0" target="_top" xlink:title="Desativa escala logaritma do eixo y (logscale nao e setado por default). ">
<polygon fill="white" stroke="red" points="112.5,-38.5 112.5,-57.5 239.5,-57.5 239.5,-38.5 112.5,-38.5"/>
<text text-anchor="middle" x="176" y="-45.5" font-family="Helvetica,sans-Serif" font-size="10.00">Gnuplot::unset_ylogscale</text>
</a>
</g>
</g>
<!-- Node1&#45;&gt;Node49 -->
<g id="edge49" class="edge"><title>Node1&#45;&gt;Node49</title>
<path fill="none" stroke="midnightblue" d="M39.5498,-826.277C42.9311,-711.018 62.4199,-127.606 112,-67 115.183,-63.1094 119.133,-59.9949 123.492,-57.5047"/>
<polygon fill="midnightblue" stroke="midnightblue" points="36.0461,-826.359 39.2578,-836.456 43.0432,-826.56 36.0461,-826.359"/>
</g>
<!-- Node50 -->
<g id="node50" class="node"><title>Node50</title>
<g id="a_node50"><a xlink:href="classGnuplot.xhtml#a294d7473091f849fe70e4dba8df8712a" target="_top" xlink:title="Desativa escala logaritma do eixo z (logscale nao e setado por default). ">
<polygon fill="white" stroke="red" points="112.5,-0.5 112.5,-19.5 239.5,-19.5 239.5,-0.5 112.5,-0.5"/>
<text text-anchor="middle" x="176" y="-7.5" font-family="Helvetica,sans-Serif" font-size="10.00">Gnuplot::unset_zlogscale</text>
</a>
</g>
</g>
<!-- Node1&#45;&gt;Node50 -->
<g id="edge50" class="edge"><title>Node1&#45;&gt;Node50</title>
<path fill="none" stroke="midnightblue" d="M39.4646,-826.058C42.4096,-706.973 60.0526,-92.781 112,-29 115.102,-25.1911 118.94,-22.1257 123.178,-19.6615"/>
<polygon fill="midnightblue" stroke="midnightblue" points="35.9605,-826.188 39.2185,-836.269 42.9585,-826.356 35.9605,-826.188"/>
</g>
<!-- Node6 -->
<g id="node6" class="node"><title>Node6</title>
<g id="a_node6"><a xlink:href="classGnuplot.xhtml#a901b030726d78e791f7005acf987bc44" target="_top" xlink:title="Plota uma equacao fornecida como uma std::string y=f(x). Escrever somente a funcao f(x) e nao y= A va...">
<polygon fill="white" stroke="black" points="281,-1558.5 281,-1577.5 393,-1577.5 393,-1558.5 281,-1558.5"/>
<text text-anchor="middle" x="337" y="-1565.5" font-family="Helvetica,sans-Serif" font-size="10.00">Gnuplot::PlotEquation</text>
</a>
</g>
</g>
<!-- Node5&#45;&gt;Node6 -->
<g id="edge5" class="edge"><title>Node5&#45;&gt;Node6</title>
<path fill="none" stroke="midnightblue" d="M243.427,-1568C255.93,-1568 268.877,-1568 280.984,-1568"/>
<polygon fill="midnightblue" stroke="midnightblue" points="243.057,-1564.5 233.057,-1568 243.057,-1571.5 243.057,-1564.5"/>
</g>
<!-- Node8 -->
<g id="node8" class="node"><title>Node8</title>
<g id="a_node8"><a xlink:href="classGnuplot.xhtml#a545ea6339c234d277339ab148cd11dba" target="_top" xlink:title="Plota uma equacao fornecida na forma de uma std::string z=f(x,y). Escrever somente a funcao f(x...">
<polygon fill="white" stroke="black" points="276,-1520.5 276,-1539.5 398,-1539.5 398,-1520.5 276,-1520.5"/>
<text text-anchor="middle" x="337" y="-1527.5" font-family="Helvetica,sans-Serif" font-size="10.00">Gnuplot::PlotEquation3d</text>
</a>
</g>
</g>
<!-- Node7&#45;&gt;Node8 -->
<g id="edge7" class="edge"><title>Node7&#45;&gt;Node8</title>
<path fill="none" stroke="midnightblue" d="M248.975,-1530C257.944,-1530 267.041,-1530 275.806,-1530"/>
<polygon fill="midnightblue" stroke="midnightblue" points="248.929,-1526.5 238.929,-1530 248.929,-1533.5 248.929,-1526.5"/>
</g>
<!-- Node10 -->
<g id="node10" class="node"><title>Node10</title>
<g id="a_node10"><a xlink:href="classGnuplot.xhtml#aeb28a013344a81314bf831e14623154e" target="_top" xlink:title="Plota uma imagem. ">
<polygon fill="white" stroke="black" points="286.5,-1482.5 286.5,-1501.5 387.5,-1501.5 387.5,-1482.5 286.5,-1482.5"/>
<text text-anchor="middle" x="337" y="-1489.5" font-family="Helvetica,sans-Serif" font-size="10.00">Gnuplot::PlotImage</text>
</a>
</g>
</g>
<!-- Node9&#45;&gt;Node10 -->
<g id="edge9" class="edge"><title>Node9&#45;&gt;Node10</title>
<path fill="none" stroke="midnightblue" d="M238.418,-1492C254.257,-1492 271.107,-1492 286.269,-1492"/>
<polygon fill="midnightblue" stroke="midnightblue" points="238.184,-1488.5 228.184,-1492 238.184,-1495.5 238.184,-1488.5"/>
</g>
<!-- Node12 -->
<g id="node12" class="node"><title>Node12</title>
<g id="a_node12"><a xlink:href="classGnuplot.xhtml#af4c2215781aa7a32ba73caa26941407c" target="_top" xlink:title="Plota uma equacao da forma y = ax + b, voce fornece os coeficientes a e b. ">
<polygon fill="white" stroke="black" points="288,-1444.5 288,-1463.5 386,-1463.5 386,-1444.5 288,-1444.5"/>
<text text-anchor="middle" x="337" y="-1451.5" font-family="Helvetica,sans-Serif" font-size="10.00">Gnuplot::PlotSlope</text>
</a>
</g>
</g>
<!-- Node11&#45;&gt;Node12 -->
<g id="edge11" class="edge"><title>Node11&#45;&gt;Node12</title>
<path fill="none" stroke="midnightblue" d="M237.138,-1454C253.927,-1454 271.943,-1454 287.936,-1454"/>
<polygon fill="midnightblue" stroke="midnightblue" points="236.872,-1450.5 226.872,-1454 236.872,-1457.5 236.872,-1450.5"/>
</g>
<!-- Node42&#45;&gt;Node18 -->
<g id="edge42" class="edge"><title>Node42&#45;&gt;Node18</title>
<path fill="none" stroke="midnightblue" d="M236.067,-329.291C237.456,-330.441 238.773,-331.675 240,-333 300.962,-398.824 330.072,-701.672 335.176,-760.195"/>
<polygon fill="midnightblue" stroke="midnightblue" points="237.697,-326.174 227.42,-323.597 233.847,-332.02 237.697,-326.174"/>
</g>
</g>
</svg>
