<?xml version="1.0" encoding="UTF-8" standalone="no"?>
<!DOCTYPE svg PUBLIC "-//W3C//DTD SVG 1.1//EN"
 "http://www.w3.org/Graphics/SVG/1.1/DTD/svg11.dtd">
<!-- Generated by graphviz version 2.34.0 (20140110.0949)
 -->
<!-- Title: CInterface Pages: 1 -->
<svg width="164pt" height="370pt"
 viewBox="0.00 0.00 164.00 370.00" xmlns="http://www.w3.org/2000/svg" xmlns:xlink="http://www.w3.org/1999/xlink">
<g id="graph0" class="graph" transform="scale(1 1) rotate(0) translate(4 366)">
<title>CInterface</title>
<polygon fill="white" stroke="white" points="-4,4 -4,-366 160,-366 160,4 -4,4"/>
<!-- Node1 -->
<g id="node1" class="node"><title>Node1</title>
<polygon fill="#bfbfbf" stroke="black" points="44,-304.5 44,-361.5 112,-361.5 112,-304.5 44,-304.5"/>
<text text-anchor="middle" x="78" y="-349.5" font-family="Helvetica,sans-Serif" font-size="10.00">CInterface</text>
<polyline fill="none" stroke="black" points="44,-342.5 112,-342.5 "/>
<text text-anchor="middle" x="78" y="-330.5" font-family="Helvetica,sans-Serif" font-size="10.00"> </text>
<polyline fill="none" stroke="black" points="44,-323.5 112,-323.5 "/>
<text text-anchor="start" x="52" y="-311.5" font-family="Helvetica,sans-Serif" font-size="10.00">+ Carimbo()</text>
</g>
<!-- Node2 -->
<g id="node2" class="node"><title>Node2</title>
<g id="a_node2"><a xlink:href="classCInterface__SimuladorTelha.xhtml" target="_top" xlink:title="&#45;&#45;&#45;&#45;&#45;&#45;&#45;&#45;&#45;&#45;——— Bibliotecas &#45;&#45;&#45;&#45;&#45;&#45;&#45;&#45;&#45;&#45;&#45;&#45;&#45;&#45;&#45;&#45;&#45;&#45;&#45;&#45;&#45;&#45;&#45;——— ">
<polygon fill="white" stroke="black" points="0,-1 0,-267 156,-267 156,-1 0,-1"/>
<text text-anchor="middle" x="78" y="-255" font-family="Helvetica,sans-Serif" font-size="10.00">CInterface_SimuladorTelha</text>
<polyline fill="none" stroke="black" points="0,-248 156,-248 "/>
<text text-anchor="start" x="8" y="-236" font-family="Helvetica,sans-Serif" font-size="10.00"># simuladorTelha</text>
<text text-anchor="start" x="8" y="-225" font-family="Helvetica,sans-Serif" font-size="10.00"># tempoInicioSimulacao</text>
<text text-anchor="start" x="8" y="-214" font-family="Helvetica,sans-Serif" font-size="10.00"># tempoFimSimulacao</text>
<text text-anchor="start" x="8" y="-203" font-family="Helvetica,sans-Serif" font-size="10.00"># fout</text>
<text text-anchor="start" x="8" y="-192" font-family="Helvetica,sans-Serif" font-size="10.00"># tipoSaida</text>
<text text-anchor="start" x="8" y="-181" font-family="Helvetica,sans-Serif" font-size="10.00"># nomeArquivoSaidaDisco</text>
<text text-anchor="start" x="8" y="-170" font-family="Helvetica,sans-Serif" font-size="10.00"># tempoInicioSaida</text>
<text text-anchor="start" x="8" y="-159" font-family="Helvetica,sans-Serif" font-size="10.00"># intervaloSaidaResultados</text>
<text text-anchor="start" x="8" y="-148" font-family="Helvetica,sans-Serif" font-size="10.00"># contadorPassoSaida</text>
<polyline fill="none" stroke="black" points="0,-141 156,-141 "/>
<text text-anchor="start" x="8" y="-129" font-family="Helvetica,sans-Serif" font-size="10.00">+ CInterface_SimuladorTelha()</text>
<text text-anchor="start" x="8" y="-118" font-family="Helvetica,sans-Serif" font-size="10.00">+ ~CInterface_SimuladorTelha()</text>
<text text-anchor="start" x="8" y="-107" font-family="Helvetica,sans-Serif" font-size="10.00">+ DadosDefault()</text>
<text text-anchor="start" x="8" y="-96" font-family="Helvetica,sans-Serif" font-size="10.00">+ EntrarDadosObjeto()</text>
<text text-anchor="start" x="8" y="-85" font-family="Helvetica,sans-Serif" font-size="10.00">+ ExecutarSimulador()</text>
<text text-anchor="start" x="8" y="-74" font-family="Helvetica,sans-Serif" font-size="10.00"># LimparTela()</text>
<text text-anchor="start" x="8" y="-63" font-family="Helvetica,sans-Serif" font-size="10.00"># Leiame()</text>
<text text-anchor="start" x="8" y="-52" font-family="Helvetica,sans-Serif" font-size="10.00"># FolhaRosto()</text>
<text text-anchor="start" x="8" y="-41" font-family="Helvetica,sans-Serif" font-size="10.00"># InicioSaida()</text>
<text text-anchor="start" x="8" y="-30" font-family="Helvetica,sans-Serif" font-size="10.00"># Saida()</text>
<text text-anchor="start" x="8" y="-19" font-family="Helvetica,sans-Serif" font-size="10.00"># SaidaTela()</text>
<text text-anchor="start" x="8" y="-8" font-family="Helvetica,sans-Serif" font-size="10.00"># FimSaida()</text>
</a>
</g>
</g>
<!-- Node1&#45;&gt;Node2 -->
<g id="edge1" class="edge"><title>Node1&#45;&gt;Node2</title>
<path fill="none" stroke="midnightblue" d="M78,-294C78,-285.821 78,-276.734 78,-267.165"/>
<polygon fill="none" stroke="midnightblue" points="74.5001,-294.193 78,-304.193 81.5001,-294.193 74.5001,-294.193"/>
</g>
</g>
</svg>
