<?xml version="1.0" encoding="UTF-8" standalone="no"?>
<!DOCTYPE svg PUBLIC "-//W3C//DTD SVG 1.1//EN"
 "http://www.w3.org/Graphics/SVG/1.1/DTD/svg11.dtd">
<!-- Generated by graphviz version 2.34.0 (20140110.0949)
 -->
<!-- Title: Gnuplot::plot_xy Pages: 1 -->
<svg width="388pt" height="85pt"
 viewBox="0.00 0.00 388.00 85.00" xmlns="http://www.w3.org/2000/svg" xmlns:xlink="http://www.w3.org/1999/xlink">
<g id="graph0" class="graph" transform="scale(1 1) rotate(0) translate(4 81)">
<title>Gnuplot::plot_xy</title>
<polygon fill="white" stroke="white" points="-4,4 -4,-81 384,-81 384,4 -4,4"/>
<!-- Node1 -->
<g id="node1" class="node"><title>Node1</title>
<polygon fill="#bfbfbf" stroke="black" points="0,-38.5 0,-57.5 88,-57.5 88,-38.5 0,-38.5"/>
<text text-anchor="middle" x="44" y="-45.5" font-family="Helvetica,sans-Serif" font-size="10.00">Gnuplot::plot_xy</text>
</g>
<!-- Node2 -->
<g id="node2" class="node"><title>Node2</title>
<g id="a_node2"><a xlink:href="classGnuplot.xhtml#a8ced9e766e0677b938178dafe9264ff7" target="_top" xlink:title="Cria arquivo temporario. ">
<polygon fill="white" stroke="black" points="124,-57.5 124,-76.5 242,-76.5 242,-57.5 124,-57.5"/>
<text text-anchor="middle" x="183" y="-64.5" font-family="Helvetica,sans-Serif" font-size="10.00">Gnuplot::create_tmpfile</text>
</a>
</g>
</g>
<!-- Node1&#45;&gt;Node2 -->
<g id="edge1" class="edge"><title>Node1&#45;&gt;Node2</title>
<path fill="none" stroke="midnightblue" d="M88.3477,-54.0117C96.4612,-55.137 105.122,-56.338 113.776,-57.5383"/>
<polygon fill="midnightblue" stroke="midnightblue" points="113.514,-61.0353 123.9,-58.9423 114.475,-54.1017 113.514,-61.0353"/>
</g>
<!-- Node3 -->
<g id="node3" class="node"><title>Node3</title>
<g id="a_node3"><a xlink:href="classGnuplot.xhtml#af226f395310d3c5c4f8b4d2aaf5d8823" target="_top" xlink:title="Plota pares x,y a partir de um arquivo de disco. ">
<polygon fill="white" stroke="black" points="132.5,-19.5 132.5,-38.5 233.5,-38.5 233.5,-19.5 132.5,-19.5"/>
<text text-anchor="middle" x="183" y="-26.5" font-family="Helvetica,sans-Serif" font-size="10.00">Gnuplot::plotfile_xy</text>
</a>
</g>
</g>
<!-- Node1&#45;&gt;Node3 -->
<g id="edge2" class="edge"><title>Node1&#45;&gt;Node3</title>
<path fill="none" stroke="midnightblue" d="M88.3477,-41.9883C99.14,-40.4915 110.9,-38.8606 122.326,-37.2759"/>
<polygon fill="midnightblue" stroke="midnightblue" points="122.825,-40.7404 132.249,-35.8997 121.863,-33.8067 122.825,-40.7404"/>
</g>
<!-- Node4 -->
<g id="node4" class="node"><title>Node4</title>
<g id="a_node4"><a xlink:href="classGnuplot.xhtml#abc0f1d75cb78804a5b8efdfa4df582cd" target="_top" xlink:title="Checa se o arquivo existe. ">
<polygon fill="white" stroke="black" points="278.5,-38.5 278.5,-57.5 379.5,-57.5 379.5,-38.5 278.5,-38.5"/>
<text text-anchor="middle" x="329" y="-45.5" font-family="Helvetica,sans-Serif" font-size="10.00">Gnuplot::file_exists</text>
</a>
</g>
</g>
<!-- Node3&#45;&gt;Node4 -->
<g id="edge3" class="edge"><title>Node3&#45;&gt;Node4</title>
<path fill="none" stroke="midnightblue" d="M233.557,-35.5387C244.757,-37.0165 256.762,-38.6006 268.33,-40.1269"/>
<polygon fill="midnightblue" stroke="midnightblue" points="267.98,-43.611 278.352,-41.4492 268.896,-36.6711 267.98,-43.611"/>
</g>
<!-- Node5 -->
<g id="node5" class="node"><title>Node5</title>
<g id="a_node5"><a xlink:href="classGnuplot.xhtml#a07607803ede8dd5416906df0a1924fc5" target="_top" xlink:title="Envia comando para o gnuplot. ">
<polygon fill="white" stroke="black" points="291.5,-0.5 291.5,-19.5 366.5,-19.5 366.5,-0.5 291.5,-0.5"/>
<text text-anchor="middle" x="329" y="-7.5" font-family="Helvetica,sans-Serif" font-size="10.00">Gnuplot::cmd</text>
</a>
</g>
</g>
<!-- Node3&#45;&gt;Node5 -->
<g id="edge4" class="edge"><title>Node3&#45;&gt;Node5</title>
<path fill="none" stroke="midnightblue" d="M233.557,-22.4613C248.892,-20.4378 265.737,-18.2153 280.901,-16.2144"/>
<polygon fill="midnightblue" stroke="midnightblue" points="281.636,-19.648 291.092,-14.8698 280.72,-12.7081 281.636,-19.648"/>
</g>
</g>
</svg>
