<?xml version="1.0" encoding="UTF-8" standalone="no"?>
<!DOCTYPE svg PUBLIC "-//W3C//DTD SVG 1.1//EN"
 "http://www.w3.org/Graphics/SVG/1.1/DTD/svg11.dtd">
<!-- Generated by graphviz version 2.34.0 (20140110.0949)
 -->
<!-- Title: Gnuplot::get_program_path Pages: 1 -->
<svg width="382pt" height="85pt"
 viewBox="0.00 0.00 382.00 85.00" xmlns="http://www.w3.org/2000/svg" xmlns:xlink="http://www.w3.org/1999/xlink">
<g id="graph0" class="graph" transform="scale(1 1) rotate(0) translate(4 81)">
<title>Gnuplot::get_program_path</title>
<polygon fill="white" stroke="white" points="-4,4 -4,-81 378,-81 378,4 -4,4"/>
<!-- Node1 -->
<g id="node1" class="node"><title>Node1</title>
<polygon fill="#bfbfbf" stroke="black" points="0,-19.5 0,-38.5 134,-38.5 134,-19.5 0,-19.5"/>
<text text-anchor="middle" x="67" y="-26.5" font-family="Helvetica,sans-Serif" font-size="10.00">Gnuplot::get_program_path</text>
</g>
<!-- Node2 -->
<g id="node2" class="node"><title>Node2</title>
<g id="a_node2"><a xlink:href="classGnuplot.xhtml#a08d1e4ec069ec1cb82bb96427d1e0d7f" target="_top" xlink:title="Cria arquivo temporario e retorna seu nome. Usa get_program_path(); e popen();. ">
<polygon fill="white" stroke="black" points="174.5,-38.5 174.5,-57.5 243.5,-57.5 243.5,-38.5 174.5,-38.5"/>
<text text-anchor="middle" x="209" y="-45.5" font-family="Helvetica,sans-Serif" font-size="10.00">Gnuplot::init</text>
</a>
</g>
</g>
<!-- Node1&#45;&gt;Node2 -->
<g id="edge1" class="edge"><title>Node1&#45;&gt;Node2</title>
<path fill="none" stroke="midnightblue" d="M144.378,-39.3656C154.849,-40.7867 165.129,-42.1818 174.269,-43.4222"/>
<polygon fill="midnightblue" stroke="midnightblue" points="144.69,-35.8759 134.31,-37.9992 143.749,-42.8123 144.69,-35.8759"/>
</g>
<!-- Node5 -->
<g id="node5" class="node"><title>Node5</title>
<g id="a_node5"><a xlink:href="classGnuplot.xhtml#a8b2a2073044fd58cc6084bf4954e07bc" target="_top" xlink:title="Retorna verdadeiro se a path esta presente. ">
<polygon fill="white" stroke="black" points="170.5,-0.5 170.5,-19.5 247.5,-19.5 247.5,-0.5 170.5,-0.5"/>
<text text-anchor="middle" x="209" y="-7.5" font-family="Helvetica,sans-Serif" font-size="10.00">Gnuplot::Path</text>
</a>
</g>
</g>
<!-- Node1&#45;&gt;Node5 -->
<g id="edge4" class="edge"><title>Node1&#45;&gt;Node5</title>
<path fill="none" stroke="midnightblue" d="M144.401,-18.6313C153.314,-17.4217 162.087,-16.2311 170.136,-15.1387"/>
<polygon fill="midnightblue" stroke="midnightblue" points="143.749,-15.1877 134.31,-20.0008 144.69,-22.1241 143.749,-15.1877"/>
</g>
<!-- Node3 -->
<g id="node3" class="node"><title>Node3</title>
<g id="a_node3"><a xlink:href="classGnuplot.xhtml#a187eb517b362cf379492fe7f1621ee50" target="_top" xlink:title="Construtor, seta o estilo do grafico na construcao. ">
<polygon fill="white" stroke="black" points="284,-57.5 284,-76.5 374,-76.5 374,-57.5 284,-57.5"/>
<text text-anchor="middle" x="329" y="-64.5" font-family="Helvetica,sans-Serif" font-size="10.00">Gnuplot::Gnuplot</text>
</a>
</g>
</g>
<!-- Node2&#45;&gt;Node3 -->
<g id="edge2" class="edge"><title>Node2&#45;&gt;Node3</title>
<path fill="none" stroke="midnightblue" d="M253.716,-55.039C263.472,-56.6099 273.828,-58.2773 283.611,-59.8527"/>
<polygon fill="midnightblue" stroke="midnightblue" points="254.243,-51.5789 243.814,-53.4446 253.13,-58.4899 254.243,-51.5789"/>
</g>
<!-- Node4 -->
<g id="node4" class="node"><title>Node4</title>
<g id="a_node4"><a xlink:href="classGnuplot.xhtml#a1f0052a04c1259e2c008435de407959f" target="_top" xlink:title="Cria arquivo temporario e retorna seu nome. Usa get_program_path(); e popen();. ">
<polygon fill="white" stroke="black" points="294,-19.5 294,-38.5 364,-38.5 364,-19.5 294,-19.5"/>
<text text-anchor="middle" x="329" y="-26.5" font-family="Helvetica,sans-Serif" font-size="10.00">Gnuplot::Init</text>
</a>
</g>
</g>
<!-- Node2&#45;&gt;Node4 -->
<g id="edge3" class="edge"><title>Node2&#45;&gt;Node4</title>
<path fill="none" stroke="midnightblue" d="M254.061,-40.9054C267.188,-38.7917 281.372,-36.5079 293.772,-34.5113"/>
<polygon fill="midnightblue" stroke="midnightblue" points="253.13,-37.5101 243.814,-42.5554 254.243,-44.4211 253.13,-37.5101"/>
</g>
</g>
</svg>
