<?xml version="1.0" encoding="UTF-8" standalone="no"?>
<!DOCTYPE svg PUBLIC "-//W3C//DTD SVG 1.1//EN"
 "http://www.w3.org/Graphics/SVG/1.1/DTD/svg11.dtd">
<!-- Generated by graphviz version 2.34.0 (20140110.0949)
 -->
<!-- Title: Gnuplot::showonscreen Pages: 1 -->
<svg width="420pt" height="142pt"
 viewBox="0.00 0.00 420.00 142.00" xmlns="http://www.w3.org/2000/svg" xmlns:xlink="http://www.w3.org/1999/xlink">
<g id="graph0" class="graph" transform="scale(1 1) rotate(0) translate(4 138)">
<title>Gnuplot::showonscreen</title>
<polygon fill="white" stroke="white" points="-4,4 -4,-138 416,-138 416,4 -4,4"/>
<!-- Node1 -->
<g id="node1" class="node"><title>Node1</title>
<polygon fill="#bfbfbf" stroke="black" points="0.5,-38.5 0.5,-57.5 119.5,-57.5 119.5,-38.5 0.5,-38.5"/>
<text text-anchor="middle" x="60" y="-45.5" font-family="Helvetica,sans-Serif" font-size="10.00">Gnuplot::showonscreen</text>
</g>
<!-- Node2 -->
<g id="node2" class="node"><title>Node2</title>
<g id="a_node2"><a xlink:href="classGnuplot.xhtml#a08d1e4ec069ec1cb82bb96427d1e0d7f" target="_top" xlink:title="Cria arquivo temporario e retorna seu nome. Usa get_program_path(); e popen();. ">
<polygon fill="white" stroke="black" points="184.5,-76.5 184.5,-95.5 253.5,-95.5 253.5,-76.5 184.5,-76.5"/>
<text text-anchor="middle" x="219" y="-83.5" font-family="Helvetica,sans-Serif" font-size="10.00">Gnuplot::init</text>
</a>
</g>
</g>
<!-- Node1&#45;&gt;Node2 -->
<g id="edge1" class="edge"><title>Node1&#45;&gt;Node2</title>
<path fill="none" stroke="midnightblue" d="M110.612,-60.0079C134.603,-65.8147 162.778,-72.6341 184.247,-77.8305"/>
<polygon fill="midnightblue" stroke="midnightblue" points="111.16,-56.5398 100.618,-57.589 109.514,-63.3433 111.16,-56.5398"/>
</g>
<!-- Node5 -->
<g id="node5" class="node"><title>Node5</title>
<g id="a_node5"><a xlink:href="classGnuplot.xhtml#a9aedfe8371083a1a3ac2b9493810049c" target="_top" xlink:title="Gnuplot::reset_all">
<polygon fill="white" stroke="black" points="172.5,-38.5 172.5,-57.5 265.5,-57.5 265.5,-38.5 172.5,-38.5"/>
<text text-anchor="middle" x="219" y="-45.5" font-family="Helvetica,sans-Serif" font-size="10.00">Gnuplot::reset_all</text>
</a>
</g>
</g>
<!-- Node1&#45;&gt;Node5 -->
<g id="edge4" class="edge"><title>Node1&#45;&gt;Node5</title>
<path fill="none" stroke="midnightblue" d="M130.129,-48C144.304,-48 158.893,-48 172.01,-48"/>
<polygon fill="midnightblue" stroke="midnightblue" points="129.908,-44.5001 119.908,-48 129.908,-51.5001 129.908,-44.5001"/>
</g>
<!-- Node7 -->
<g id="node7" class="node"><title>Node7</title>
<g id="a_node7"><a xlink:href="classGnuplot.xhtml#aee70cb6dfc893d6f19976fa9042c8e7c" target="_top" xlink:title="Mostrar na tela ou escrever no arquivo, seta o tipo de terminal para terminal_std. ">
<polygon fill="white" stroke="black" points="156.5,-0.5 156.5,-19.5 281.5,-19.5 281.5,-0.5 156.5,-0.5"/>
<text text-anchor="middle" x="219" y="-7.5" font-family="Helvetica,sans-Serif" font-size="10.00">Gnuplot::ShowOnScreen</text>
</a>
</g>
</g>
<!-- Node1&#45;&gt;Node7 -->
<g id="edge6" class="edge"><title>Node1&#45;&gt;Node7</title>
<path fill="none" stroke="midnightblue" d="M110.447,-36.032C132.448,-30.7069 157.994,-24.5238 178.667,-19.5201"/>
<polygon fill="midnightblue" stroke="midnightblue" points="109.514,-32.6567 100.618,-38.411 111.16,-39.4602 109.514,-32.6567"/>
</g>
<!-- Node3 -->
<g id="node3" class="node"><title>Node3</title>
<g id="a_node3"><a xlink:href="classGnuplot.xhtml#a187eb517b362cf379492fe7f1621ee50" target="_top" xlink:title="Construtor, seta o estilo do grafico na construcao. ">
<polygon fill="white" stroke="black" points="320,-114.5 320,-133.5 410,-133.5 410,-114.5 320,-114.5"/>
<text text-anchor="middle" x="365" y="-121.5" font-family="Helvetica,sans-Serif" font-size="10.00">Gnuplot::Gnuplot</text>
</a>
</g>
</g>
<!-- Node2&#45;&gt;Node3 -->
<g id="edge2" class="edge"><title>Node2&#45;&gt;Node3</title>
<path fill="none" stroke="midnightblue" d="M263.532,-97.4875C284.114,-102.919 308.397,-109.327 327.933,-114.482"/>
<polygon fill="midnightblue" stroke="midnightblue" points="264.324,-94.0768 253.762,-94.9093 262.538,-100.845 264.324,-94.0768"/>
</g>
<!-- Node4 -->
<g id="node4" class="node"><title>Node4</title>
<g id="a_node4"><a xlink:href="classGnuplot.xhtml#a1f0052a04c1259e2c008435de407959f" target="_top" xlink:title="Cria arquivo temporario e retorna seu nome. Usa get_program_path(); e popen();. ">
<polygon fill="white" stroke="black" points="330,-76.5 330,-95.5 400,-95.5 400,-76.5 330,-76.5"/>
<text text-anchor="middle" x="365" y="-83.5" font-family="Helvetica,sans-Serif" font-size="10.00">Gnuplot::Init</text>
</a>
</g>
</g>
<!-- Node2&#45;&gt;Node4 -->
<g id="edge3" class="edge"><title>Node2&#45;&gt;Node4</title>
<path fill="none" stroke="midnightblue" d="M263.833,-86C285.068,-86 310.182,-86 329.951,-86"/>
<polygon fill="midnightblue" stroke="midnightblue" points="263.762,-82.5001 253.762,-86 263.762,-89.5001 263.762,-82.5001"/>
</g>
<!-- Node6 -->
<g id="node6" class="node"><title>Node6</title>
<g id="a_node6"><a xlink:href="classGnuplot.xhtml#ae9e88b397cc6ddd052f6378a58373b0c" target="_top" xlink:title="Gnuplot::ResetAll">
<polygon fill="white" stroke="black" points="318,-38.5 318,-57.5 412,-57.5 412,-38.5 318,-38.5"/>
<text text-anchor="middle" x="365" y="-45.5" font-family="Helvetica,sans-Serif" font-size="10.00">Gnuplot::ResetAll</text>
</a>
</g>
</g>
<!-- Node5&#45;&gt;Node6 -->
<g id="edge5" class="edge"><title>Node5&#45;&gt;Node6</title>
<path fill="none" stroke="midnightblue" d="M275.94,-48C289.77,-48 304.433,-48 317.744,-48"/>
<polygon fill="midnightblue" stroke="midnightblue" points="275.563,-44.5001 265.562,-48 275.562,-51.5001 275.563,-44.5001"/>
</g>
</g>
</svg>
