<?xml version="1.0" encoding="UTF-8" standalone="no"?>
<!DOCTYPE svg PUBLIC "-//W3C//DTD SVG 1.1//EN"
 "http://www.w3.org/Graphics/SVG/1.1/DTD/svg11.dtd">
<!-- Generated by graphviz version 2.34.0 (20140110.0949)
 -->
<!-- Title: Gnuplot::Contour Pages: 1 -->
<svg width="366pt" height="66pt"
 viewBox="0.00 0.00 366.00 66.00" xmlns="http://www.w3.org/2000/svg" xmlns:xlink="http://www.w3.org/1999/xlink">
<g id="graph0" class="graph" transform="scale(1 1) rotate(0) translate(4 62)">
<title>Gnuplot::Contour</title>
<polygon fill="white" stroke="white" points="-4,4 -4,-62 362,-62 362,4 -4,4"/>
<!-- Node1 -->
<g id="node1" class="node"><title>Node1</title>
<polygon fill="#bfbfbf" stroke="black" points="0.5,-19.5 0.5,-38.5 91.5,-38.5 91.5,-19.5 0.5,-19.5"/>
<text text-anchor="middle" x="46" y="-26.5" font-family="Helvetica,sans-Serif" font-size="10.00">Gnuplot::Contour</text>
</g>
<!-- Node2 -->
<g id="node2" class="node"><title>Node2</title>
<g id="a_node2"><a xlink:href="classGnuplot.xhtml#af845efc728a90d7e10de764eff0b2423" target="_top" xlink:title="Ativa desenho do contorno em superficies (para plotagen 3d). ">
<polygon fill="white" stroke="black" points="133.5,-38.5 133.5,-57.5 240.5,-57.5 240.5,-38.5 133.5,-38.5"/>
<text text-anchor="middle" x="187" y="-45.5" font-family="Helvetica,sans-Serif" font-size="10.00">Gnuplot::set_contour</text>
</a>
</g>
</g>
<!-- Node1&#45;&gt;Node2 -->
<g id="edge1" class="edge"><title>Node1&#45;&gt;Node2</title>
<path fill="none" stroke="midnightblue" d="M91.7456,-35.1163C101.729,-36.481 112.497,-37.9528 123.061,-39.3968"/>
<polygon fill="midnightblue" stroke="midnightblue" points="122.712,-42.8816 133.094,-40.7682 123.66,-35.9461 122.712,-42.8816"/>
</g>
<!-- Node4 -->
<g id="node4" class="node"><title>Node4</title>
<g id="a_node4"><a xlink:href="classGnuplot.xhtml#a39d10e6ce85875939a9c594d132a10d7" target="_top" xlink:title="Desativa desenho do contorno em superficies (para plotagen 3d). ">
<polygon fill="white" stroke="black" points="128,-0.5 128,-19.5 246,-19.5 246,-0.5 128,-0.5"/>
<text text-anchor="middle" x="187" y="-7.5" font-family="Helvetica,sans-Serif" font-size="10.00">Gnuplot::unset_contour</text>
</a>
</g>
</g>
<!-- Node1&#45;&gt;Node4 -->
<g id="edge3" class="edge"><title>Node1&#45;&gt;Node4</title>
<path fill="none" stroke="midnightblue" d="M91.7456,-22.8837C100.049,-21.7487 108.895,-20.5396 117.714,-19.334"/>
<polygon fill="midnightblue" stroke="midnightblue" points="118.197,-22.8007 127.63,-17.9786 117.249,-15.8652 118.197,-22.8007"/>
</g>
<!-- Node3 -->
<g id="node3" class="node"><title>Node3</title>
<g id="a_node3"><a xlink:href="classGnuplot.xhtml#a07607803ede8dd5416906df0a1924fc5" target="_top" xlink:title="Envia comando para o gnuplot. ">
<polygon fill="white" stroke="black" points="282.5,-19.5 282.5,-38.5 357.5,-38.5 357.5,-19.5 282.5,-19.5"/>
<text text-anchor="middle" x="320" y="-26.5" font-family="Helvetica,sans-Serif" font-size="10.00">Gnuplot::cmd</text>
</a>
</g>
</g>
<!-- Node2&#45;&gt;Node3 -->
<g id="edge2" class="edge"><title>Node2&#45;&gt;Node3</title>
<path fill="none" stroke="midnightblue" d="M240.528,-40.3815C250.992,-38.8638 261.916,-37.2794 272.173,-35.7917"/>
<polygon fill="midnightblue" stroke="midnightblue" points="272.772,-39.2415 282.166,-34.3423 271.767,-32.314 272.772,-39.2415"/>
</g>
<!-- Node4&#45;&gt;Node3 -->
<g id="edge4" class="edge"><title>Node4&#45;&gt;Node3</title>
<path fill="none" stroke="midnightblue" d="M246.221,-18.4443C254.966,-19.7126 263.886,-21.0063 272.347,-22.2335"/>
<polygon fill="midnightblue" stroke="midnightblue" points="271.999,-25.7196 282.398,-23.6913 273.004,-18.7921 271.999,-25.7196"/>
</g>
</g>
</svg>
