<?xml version="1.0" encoding="UTF-8" standalone="no"?>
<!DOCTYPE svg PUBLIC "-//W3C//DTD SVG 1.1//EN"
 "http://www.w3.org/Graphics/SVG/1.1/DTD/svg11.dtd">
<!-- Generated by graphviz version 2.34.0 (20140110.0949)
 -->
<!-- Title: Gnuplot::PlotVector Pages: 1 -->
<svg width="522pt" height="85pt"
 viewBox="0.00 0.00 522.00 85.00" xmlns="http://www.w3.org/2000/svg" xmlns:xlink="http://www.w3.org/1999/xlink">
<g id="graph0" class="graph" transform="scale(1 1) rotate(0) translate(4 81)">
<title>Gnuplot::PlotVector</title>
<polygon fill="white" stroke="white" points="-4,4 -4,-81 518,-81 518,4 -4,4"/>
<!-- Node1 -->
<g id="node1" class="node"><title>Node1</title>
<polygon fill="#bfbfbf" stroke="black" points="0,-38.5 0,-57.5 102,-57.5 102,-38.5 0,-38.5"/>
<text text-anchor="middle" x="51" y="-45.5" font-family="Helvetica,sans-Serif" font-size="10.00">Gnuplot::PlotVector</text>
</g>
<!-- Node2 -->
<g id="node2" class="node"><title>Node2</title>
<g id="a_node2"><a xlink:href="classGnuplot.xhtml#a9400d43204b9df62851c063aee604f0d" target="_top" xlink:title="Plota dados de um vector. ">
<polygon fill="white" stroke="black" points="138.5,-38.5 138.5,-57.5 221.5,-57.5 221.5,-38.5 138.5,-38.5"/>
<text text-anchor="middle" x="180" y="-45.5" font-family="Helvetica,sans-Serif" font-size="10.00">Gnuplot::plot_x</text>
</a>
</g>
</g>
<!-- Node1&#45;&gt;Node2 -->
<g id="edge1" class="edge"><title>Node1&#45;&gt;Node2</title>
<path fill="none" stroke="midnightblue" d="M102.194,-48C110.672,-48 119.481,-48 127.98,-48"/>
<polygon fill="midnightblue" stroke="midnightblue" points="128.15,-51.5001 138.15,-48 128.15,-44.5001 128.15,-51.5001"/>
</g>
<!-- Node3 -->
<g id="node3" class="node"><title>Node3</title>
<g id="a_node3"><a xlink:href="classGnuplot.xhtml#a8ced9e766e0677b938178dafe9264ff7" target="_top" xlink:title="Cria arquivo temporario. ">
<polygon fill="white" stroke="black" points="258,-57.5 258,-76.5 376,-76.5 376,-57.5 258,-57.5"/>
<text text-anchor="middle" x="317" y="-64.5" font-family="Helvetica,sans-Serif" font-size="10.00">Gnuplot::create_tmpfile</text>
</a>
</g>
</g>
<!-- Node2&#45;&gt;Node3 -->
<g id="edge2" class="edge"><title>Node2&#45;&gt;Node3</title>
<path fill="none" stroke="midnightblue" d="M221.504,-53.7006C229.743,-54.8601 238.624,-56.1101 247.528,-57.3632"/>
<polygon fill="midnightblue" stroke="midnightblue" points="247.167,-60.8468 257.557,-58.7747 248.142,-53.9151 247.167,-60.8468"/>
</g>
<!-- Node4 -->
<g id="node4" class="node"><title>Node4</title>
<g id="a_node4"><a xlink:href="classGnuplot.xhtml#a4ca35415fa5560764597cfdfa46c6c40" target="_top" xlink:title="Plota dados de um arquivo de disco. ">
<polygon fill="white" stroke="black" points="269.5,-19.5 269.5,-38.5 364.5,-38.5 364.5,-19.5 269.5,-19.5"/>
<text text-anchor="middle" x="317" y="-26.5" font-family="Helvetica,sans-Serif" font-size="10.00">Gnuplot::plotfile_x</text>
</a>
</g>
</g>
<!-- Node2&#45;&gt;Node4 -->
<g id="edge3" class="edge"><title>Node2&#45;&gt;Node4</title>
<path fill="none" stroke="midnightblue" d="M221.504,-42.2994C233.393,-40.6261 246.62,-38.7646 259.322,-36.9769"/>
<polygon fill="midnightblue" stroke="midnightblue" points="259.946,-40.4237 269.36,-35.5641 258.97,-33.492 259.946,-40.4237"/>
</g>
<!-- Node5 -->
<g id="node5" class="node"><title>Node5</title>
<g id="a_node5"><a xlink:href="classGnuplot.xhtml#a07607803ede8dd5416906df0a1924fc5" target="_top" xlink:title="Envia comando para o gnuplot. ">
<polygon fill="white" stroke="black" points="425.5,-38.5 425.5,-57.5 500.5,-57.5 500.5,-38.5 425.5,-38.5"/>
<text text-anchor="middle" x="463" y="-45.5" font-family="Helvetica,sans-Serif" font-size="10.00">Gnuplot::cmd</text>
</a>
</g>
</g>
<!-- Node4&#45;&gt;Node5 -->
<g id="edge4" class="edge"><title>Node4&#45;&gt;Node5</title>
<path fill="none" stroke="midnightblue" d="M364.753,-35.1688C380.786,-37.2843 398.732,-39.6521 414.8,-41.7722"/>
<polygon fill="midnightblue" stroke="midnightblue" points="414.677,-45.2863 425.049,-43.1246 415.593,-38.3465 414.677,-45.2863"/>
</g>
<!-- Node6 -->
<g id="node6" class="node"><title>Node6</title>
<g id="a_node6"><a xlink:href="classGnuplot.xhtml#abc0f1d75cb78804a5b8efdfa4df582cd" target="_top" xlink:title="Checa se o arquivo existe. ">
<polygon fill="white" stroke="black" points="412.5,-0.5 412.5,-19.5 513.5,-19.5 513.5,-0.5 412.5,-0.5"/>
<text text-anchor="middle" x="463" y="-7.5" font-family="Helvetica,sans-Serif" font-size="10.00">Gnuplot::file_exists</text>
</a>
</g>
</g>
<!-- Node4&#45;&gt;Node6 -->
<g id="edge5" class="edge"><title>Node4&#45;&gt;Node6</title>
<path fill="none" stroke="midnightblue" d="M364.753,-22.8312C376.558,-21.2736 389.4,-19.5792 401.766,-17.9475"/>
<polygon fill="midnightblue" stroke="midnightblue" points="402.552,-21.3742 412.008,-16.5961 401.636,-14.4344 402.552,-21.3742"/>
</g>
</g>
</svg>
