<?xml version="1.0" encoding="UTF-8" standalone="no"?>
<!DOCTYPE svg PUBLIC "-//W3C//DTD SVG 1.1//EN"
 "http://www.w3.org/Graphics/SVG/1.1/DTD/svg11.dtd">
<!-- Generated by graphviz version 2.34.0 (20140110.0949)
 -->
<!-- Title: CMeioPoroso_Telha_Discretizada_TDMA::Calcular_efeitos_chuva_ol Pages: 1 -->
<svg width="382pt" height="38pt"
 viewBox="0.00 0.00 382.00 38.00" xmlns="http://www.w3.org/2000/svg" xmlns:xlink="http://www.w3.org/1999/xlink">
<g id="graph0" class="graph" transform="scale(1 1) rotate(0) translate(4 34)">
<title>CMeioPoroso_Telha_Discretizada_TDMA::Calcular_efeitos_chuva_ol</title>
<polygon fill="white" stroke="white" points="-4,4 -4,-34 378,-34 378,4 -4,4"/>
<!-- Node1 -->
<g id="node1" class="node"><title>Node1</title>
<polygon fill="#bfbfbf" stroke="black" points="0.5,-0 0.5,-30 171.5,-30 171.5,-0 0.5,-0"/>
<text text-anchor="start" x="8.5" y="-18" font-family="Helvetica,sans-Serif" font-size="10.00">CMeioPoroso_Telha_Discretizada</text>
<text text-anchor="middle" x="86" y="-7" font-family="Helvetica,sans-Serif" font-size="10.00">_TDMA::Calcular_efeitos_chuva_ol</text>
</g>
<!-- Node2 -->
<g id="node2" class="node"><title>Node2</title>
<g id="a_node2"><a xlink:href="classCMeioPoroso__Telha__Discretizada__TDMA.xhtml#ad00fec55ef41bd9a62b6a2583395719f" target="_top" xlink:title="Cálculo de tp. ">
<polygon fill="white" stroke="black" points="208.5,-0 208.5,-30 373.5,-30 373.5,-0 208.5,-0"/>
<text text-anchor="start" x="216.5" y="-18" font-family="Helvetica,sans-Serif" font-size="10.00">CMeioPoroso_Telha_Discretizada</text>
<text text-anchor="middle" x="291" y="-7" font-family="Helvetica,sans-Serif" font-size="10.00">_TDMA::Calcular_tp</text>
</a>
</g>
</g>
<!-- Node1&#45;&gt;Node2 -->
<g id="edge1" class="edge"><title>Node1&#45;&gt;Node2</title>
<path fill="none" stroke="midnightblue" d="M171.62,-15C180.473,-15 189.502,-15 198.428,-15"/>
<polygon fill="midnightblue" stroke="midnightblue" points="198.447,-18.5001 208.447,-15 198.447,-11.5001 198.447,-18.5001"/>
</g>
</g>
</svg>
