<?xml version="1.0" encoding="UTF-8" standalone="no"?>
<!DOCTYPE svg PUBLIC "-//W3C//DTD SVG 1.1//EN"
 "http://www.w3.org/Graphics/SVG/1.1/DTD/svg11.dtd">
<!-- Generated by graphviz version 2.34.0 (20140110.0949)
 -->
<!-- Title: Gnuplot::Gnuplot Pages: 1 -->
<svg width="538pt" height="123pt"
 viewBox="0.00 0.00 538.00 123.00" xmlns="http://www.w3.org/2000/svg" xmlns:xlink="http://www.w3.org/1999/xlink">
<g id="graph0" class="graph" transform="scale(1 1) rotate(0) translate(4 119)">
<title>Gnuplot::Gnuplot</title>
<polygon fill="white" stroke="white" points="-4,4 -4,-119 534,-119 534,4 -4,4"/>
<!-- Node1 -->
<g id="node1" class="node"><title>Node1</title>
<polygon fill="#bfbfbf" stroke="black" points="0,-19.5 0,-38.5 90,-38.5 90,-19.5 0,-19.5"/>
<text text-anchor="middle" x="45" y="-26.5" font-family="Helvetica,sans-Serif" font-size="10.00">Gnuplot::Gnuplot</text>
</g>
<!-- Node2 -->
<g id="node2" class="node"><title>Node2</title>
<g id="a_node2"><a xlink:href="classGnuplot.xhtml#a08d1e4ec069ec1cb82bb96427d1e0d7f" target="_top" xlink:title="Cria arquivo temporario e retorna seu nome. Usa get_program_path(); e popen();. ">
<polygon fill="white" stroke="black" points="139.5,-38.5 139.5,-57.5 208.5,-57.5 208.5,-38.5 139.5,-38.5"/>
<text text-anchor="middle" x="174" y="-45.5" font-family="Helvetica,sans-Serif" font-size="10.00">Gnuplot::init</text>
</a>
</g>
</g>
<!-- Node1&#45;&gt;Node2 -->
<g id="edge1" class="edge"><title>Node1&#45;&gt;Node2</title>
<path fill="none" stroke="midnightblue" d="M90.062,-35.592C102.838,-37.5033 116.775,-39.5884 129.515,-41.4944"/>
<polygon fill="midnightblue" stroke="midnightblue" points="129.023,-44.9597 139.431,-42.9779 130.059,-38.0367 129.023,-44.9597"/>
</g>
<!-- Node8 -->
<g id="node8" class="node"><title>Node8</title>
<g id="a_node8"><a xlink:href="classGnuplot.xhtml#acfdcda292650775ebed4683e8e1515b5" target="_top" xlink:title="Seta estilos de linhas (em alguns casos sao necessarias informacoes adicionais). lines, points, linespoints, impulses, dots, steps, fsteps, histeps, boxes, histograms, filledcurves. ">
<polygon fill="white" stroke="black" points="126,-0.5 126,-19.5 222,-19.5 222,-0.5 126,-0.5"/>
<text text-anchor="middle" x="174" y="-7.5" font-family="Helvetica,sans-Serif" font-size="10.00">Gnuplot::set_style</text>
</a>
</g>
</g>
<!-- Node1&#45;&gt;Node8 -->
<g id="edge7" class="edge"><title>Node1&#45;&gt;Node8</title>
<path fill="none" stroke="midnightblue" d="M90.062,-22.408C98.4038,-21.1601 107.241,-19.838 115.917,-18.54"/>
<polygon fill="midnightblue" stroke="midnightblue" points="116.616,-21.9745 125.988,-17.0334 115.58,-15.0516 116.616,-21.9745"/>
</g>
<!-- Node3 -->
<g id="node3" class="node"><title>Node3</title>
<g id="a_node3"><a xlink:href="classGnuplot.xhtml#a3a769e47861d74fa713070ecd857dd17" target="_top" xlink:title="Retorna verdadeiro se a path esta presente. ">
<polygon fill="white" stroke="black" points="258,-57.5 258,-76.5 392,-76.5 392,-57.5 258,-57.5"/>
<text text-anchor="middle" x="325" y="-64.5" font-family="Helvetica,sans-Serif" font-size="10.00">Gnuplot::get_program_path</text>
</a>
</g>
</g>
<!-- Node2&#45;&gt;Node3 -->
<g id="edge2" class="edge"><title>Node2&#45;&gt;Node3</title>
<path fill="none" stroke="midnightblue" d="M208.81,-52.3114C220.487,-53.8003 234.087,-55.5346 247.765,-57.2788"/>
<polygon fill="midnightblue" stroke="midnightblue" points="247.35,-60.7541 257.713,-58.5472 248.236,-53.8103 247.35,-60.7541"/>
</g>
<!-- Node6 -->
<g id="node6" class="node"><title>Node6</title>
<g id="a_node6"><a xlink:href="classGnuplot.xhtml#a356d2faaa79f08d13fec9718b776b28d" target="_top" xlink:title="Mostrar na tela ou escrever no arquivo, seta o tipo de terminal para terminal_std. ">
<polygon fill="white" stroke="black" points="265.5,-19.5 265.5,-38.5 384.5,-38.5 384.5,-19.5 265.5,-19.5"/>
<text text-anchor="middle" x="325" y="-26.5" font-family="Helvetica,sans-Serif" font-size="10.00">Gnuplot::showonscreen</text>
</a>
</g>
</g>
<!-- Node2&#45;&gt;Node6 -->
<g id="edge5" class="edge"><title>Node2&#45;&gt;Node6</title>
<path fill="none" stroke="midnightblue" d="M208.81,-43.6886C222.676,-41.9205 239.254,-39.8066 255.453,-37.7408"/>
<polygon fill="midnightblue" stroke="midnightblue" points="255.987,-41.2013 265.464,-36.4644 255.101,-34.2575 255.987,-41.2013"/>
</g>
<!-- Node4 -->
<g id="node4" class="node"><title>Node4</title>
<g id="a_node4"><a xlink:href="classGnuplot.xhtml#abc0f1d75cb78804a5b8efdfa4df582cd" target="_top" xlink:title="Checa se o arquivo existe. ">
<polygon fill="white" stroke="black" points="428.5,-95.5 428.5,-114.5 529.5,-114.5 529.5,-95.5 428.5,-95.5"/>
<text text-anchor="middle" x="479" y="-102.5" font-family="Helvetica,sans-Serif" font-size="10.00">Gnuplot::file_exists</text>
</a>
</g>
</g>
<!-- Node3&#45;&gt;Node4 -->
<g id="edge3" class="edge"><title>Node3&#45;&gt;Node4</title>
<path fill="none" stroke="midnightblue" d="M364.356,-76.589C384.324,-81.5809 408.93,-87.7324 430.133,-93.0334"/>
<polygon fill="midnightblue" stroke="midnightblue" points="429.369,-96.45 439.92,-95.4799 431.067,-89.659 429.369,-96.45"/>
</g>
<!-- Node5 -->
<g id="node5" class="node"><title>Node5</title>
<g id="a_node5"><a xlink:href="CGnuplot_8cpp.xhtml#a999b660e008a191d56b4c01a09a38f45" target="_top" xlink:title="stringtok">
<polygon fill="white" stroke="black" points="452,-57.5 452,-76.5 506,-76.5 506,-57.5 452,-57.5"/>
<text text-anchor="middle" x="479" y="-64.5" font-family="Helvetica,sans-Serif" font-size="10.00">stringtok</text>
</a>
</g>
</g>
<!-- Node3&#45;&gt;Node5 -->
<g id="edge4" class="edge"><title>Node3&#45;&gt;Node5</title>
<path fill="none" stroke="midnightblue" d="M392.227,-67C409.223,-67 426.881,-67 441.726,-67"/>
<polygon fill="midnightblue" stroke="midnightblue" points="441.989,-70.5001 451.989,-67 441.989,-63.5001 441.989,-70.5001"/>
</g>
<!-- Node7 -->
<g id="node7" class="node"><title>Node7</title>
<g id="a_node7"><a xlink:href="classGnuplot.xhtml#a07607803ede8dd5416906df0a1924fc5" target="_top" xlink:title="Envia comando para o gnuplot. ">
<polygon fill="white" stroke="black" points="441.5,-19.5 441.5,-38.5 516.5,-38.5 516.5,-19.5 441.5,-19.5"/>
<text text-anchor="middle" x="479" y="-26.5" font-family="Helvetica,sans-Serif" font-size="10.00">Gnuplot::cmd</text>
</a>
</g>
</g>
<!-- Node6&#45;&gt;Node7 -->
<g id="edge6" class="edge"><title>Node6&#45;&gt;Node7</title>
<path fill="none" stroke="midnightblue" d="M384.767,-29C400.094,-29 416.408,-29 431.034,-29"/>
<polygon fill="midnightblue" stroke="midnightblue" points="431.347,-32.5001 441.347,-29 431.347,-25.5001 431.347,-32.5001"/>
</g>
</g>
</svg>
