<?xml version="1.0" encoding="UTF-8" standalone="no"?>
<!DOCTYPE svg PUBLIC "-//W3C//DTD SVG 1.1//EN"
 "http://www.w3.org/Graphics/SVG/1.1/DTD/svg11.dtd">
<!-- Generated by graphviz version 2.34.0 (20140110.0949)
 -->
<!-- Title: CTermodinamica::ConcentracaoVapor Pages: 1 -->
<!--zoomable 175 -->
<svg id="main" version="1.1" xmlns="http://www.w3.org/2000/svg" xmlns:xlink="http://www.w3.org/1999/xlink" xml:space="preserve" onload="init(evt)">
<style type="text/css"><![CDATA[
.edge:hover path { stroke: red; }
.edge:hover polygon { stroke: red; fill: red; }
]]></style>
<script type="text/javascript"><![CDATA[
var edges = document.getElementsByTagName('g');
if (edges && edges.length) {
  for (var i=0;i<edges.length;i++) {
    if (edges[i].id.substr(0,4)=='edge') {
      edges[i].setAttribute('class','edge');
    }
  }
}
]]></script>
        <defs>
                <circle id="rim" cx="0" cy="0" r="7"/>
                <circle id="rim2" cx="0" cy="0" r="3.5"/>
                <g id="zoomPlus">
                        <use xlink:href="#rim" fill="#404040">
                                <set attributeName="fill" to="#808080" begin="zoomplus.mouseover" end="zoomplus.mouseout"/>
                        </use>
                        <path d="M-4,0h8M0,-4v8" fill="none" stroke="white" stroke-width="1.5" pointer-events="none"/>
                </g>
                <g id="zoomMin">
                        <use xlink:href="#rim" fill="#404040">
                                <set attributeName="fill" to="#808080" begin="zoomminus.mouseover" end="zoomminus.mouseout"/>
                        </use>
                        <path d="M-4,0h8" fill="none" stroke="white" stroke-width="1.5" pointer-events="none"/>
                </g>
                <g id="dirArrow">
                        <path fill="none" stroke="white" stroke-width="1.5" d="M0,-3.0v7 M-2.5,-0.5L0,-3.0L2.5,-0.5"/>
                </g>
               <g id="resetDef">
                       <use xlink:href="#rim2" fill="#404040">
                               <set attributeName="fill" to="#808080" begin="reset.mouseover" end="reset.mouseout"/>
                       </use>
               </g>
        </defs>

<script type="text/javascript">
var viewWidth = 572;
var viewHeight = 175;
var sectionId = 'dynsection-2';
</script>
<script xlink:href="svgpan.js"/>
<svg id="graph" class="graph">
<g id="viewport">
<title>CTermodinamica::ConcentracaoVapor</title>
<polygon fill="white" stroke="white" points="-4,4 -4,-171 568,-171 568,4 -4,4"/>
<!-- Node1 -->
<g id="node1" class="node"><title>Node1</title>
<polygon fill="#bfbfbf" stroke="black" points="0,-71 0,-101 158,-101 158,-71 0,-71"/>
<text text-anchor="start" x="8" y="-89" font-family="Helvetica,sans-Serif" font-size="10.00">CTermodinamica::Concentracao</text>
<text text-anchor="middle" x="79" y="-78" font-family="Helvetica,sans-Serif" font-size="10.00">Vapor</text>
</g>
<!-- Node2 -->
<g id="node2" class="node"><title>Node2</title>
<g id="a_node2"><a xlink:href="classCSimulador__Telha.xhtml#a722e545a25689e36aff4d96cccd1ffcf" target="_top" xlink:title="Cálculo dos valores médios de condutividade e difusividade. ">
<polygon fill="white" stroke="black" points="209.5,-137 209.5,-167 348.5,-167 348.5,-137 209.5,-137"/>
<text text-anchor="start" x="217.5" y="-155" font-family="Helvetica,sans-Serif" font-size="10.00">CSimulador_Telha::Calcular</text>
<text text-anchor="middle" x="279" y="-144" font-family="Helvetica,sans-Serif" font-size="10.00">_wl_h_rov_dif_k</text>
</a>
</g>
</g>
<!-- Node1&#45;&gt;Node2 -->
<g id="edge1" class="edge"><title>Node1&#45;&gt;Node2</title>
<path fill="none" stroke="midnightblue" d="M129.659,-104.542C149.574,-111.8 172.791,-120.036 194,-127 204.264,-130.37 215.296,-133.794 225.88,-136.982"/>
<polygon fill="midnightblue" stroke="midnightblue" points="130.765,-101.22 120.171,-101.068 128.358,-107.793 130.765,-101.22"/>
</g>
<!-- Node3 -->
<g id="node3" class="node"><title>Node3</title>
<g id="a_node3"><a xlink:href="classCFuncoesClima.xhtml#adbb305c4199c55873aefeb0e22e0a5e4" target="_top" xlink:title="Dados default. ">
<polygon fill="white" stroke="black" points="202.5,-98.5 202.5,-117.5 355.5,-117.5 355.5,-98.5 202.5,-98.5"/>
<text text-anchor="middle" x="279" y="-105.5" font-family="Helvetica,sans-Serif" font-size="10.00">CFuncoesClima::DadosDefault</text>
</a>
</g>
</g>
<!-- Node1&#45;&gt;Node3 -->
<g id="edge2" class="edge"><title>Node1&#45;&gt;Node3</title>
<path fill="none" stroke="midnightblue" d="M168.525,-95.8361C179.782,-97.0869 191.221,-98.3579 202.253,-99.5837"/>
<polygon fill="midnightblue" stroke="midnightblue" points="168.58,-92.3208 158.255,-94.695 167.807,-99.278 168.58,-92.3208"/>
</g>
<!-- Node5 -->
<g id="node5" class="node"><title>Node5</title>
<g id="a_node5"><a xlink:href="classCFuncoesClima.xhtml#a7f03fe9f4313e2a03e36f33b54a71936" target="_top" xlink:title="Entrada de dados. ">
<polygon fill="white" stroke="black" points="205,-49 205,-79 353,-79 353,-49 205,-49"/>
<text text-anchor="start" x="213" y="-67" font-family="Helvetica,sans-Serif" font-size="10.00">CFuncoesClima::EntrarDados</text>
<text text-anchor="middle" x="279" y="-56" font-family="Helvetica,sans-Serif" font-size="10.00">Objeto</text>
</a>
</g>
</g>
<!-- Node1&#45;&gt;Node5 -->
<g id="edge4" class="edge"><title>Node1&#45;&gt;Node5</title>
<path fill="none" stroke="midnightblue" d="M168.412,-76.1765C180.583,-74.8241 192.97,-73.4478 204.826,-72.1305"/>
<polygon fill="midnightblue" stroke="midnightblue" points="167.807,-72.722 158.255,-77.305 168.58,-79.6792 167.807,-72.722"/>
</g>
<!-- Node6 -->
<g id="node6" class="node"><title>Node6</title>
<g id="a_node6"><a xlink:href="classCFuncoesClima.xhtml#a64e6dc948deb1d9481b45ea2a6cb6c15" target="_top" xlink:title="CFuncoesClima::ExecutarFuncoes\lClima">
<polygon fill="white" stroke="black" points="194,-0 194,-30 364,-30 364,-0 194,-0"/>
<text text-anchor="start" x="202" y="-18" font-family="Helvetica,sans-Serif" font-size="10.00">CFuncoesClima::ExecutarFuncoes</text>
<text text-anchor="middle" x="279" y="-7" font-family="Helvetica,sans-Serif" font-size="10.00">Clima</text>
</a>
</g>
</g>
<!-- Node1&#45;&gt;Node6 -->
<g id="edge5" class="edge"><title>Node1&#45;&gt;Node6</title>
<path fill="none" stroke="midnightblue" d="M123.134,-66.8707C144.275,-57.8419 170.241,-47.2624 194,-39 203.025,-35.8615 212.695,-32.8142 222.147,-30.0034"/>
<polygon fill="midnightblue" stroke="midnightblue" points="121.586,-63.7266 113.785,-70.8961 124.354,-70.1559 121.586,-63.7266"/>
</g>
<!-- Node4 -->
<g id="node4" class="node"><title>Node4</title>
<g id="a_node4"><a xlink:href="classCFuncoesClima.xhtml#aa5a957d0b3ab212fd5b1ecd471068b12" target="_top" xlink:title="Construtor. ">
<polygon fill="white" stroke="black" points="400,-98.5 400,-117.5 564,-117.5 564,-98.5 400,-98.5"/>
<text text-anchor="middle" x="482" y="-105.5" font-family="Helvetica,sans-Serif" font-size="10.00">CFuncoesClima::CFuncoesClima</text>
</a>
</g>
</g>
<!-- Node3&#45;&gt;Node4 -->
<g id="edge3" class="edge"><title>Node3&#45;&gt;Node4</title>
<path fill="none" stroke="midnightblue" d="M365.979,-108C377.263,-108 388.796,-108 399.993,-108"/>
<polygon fill="midnightblue" stroke="midnightblue" points="365.703,-104.5 355.703,-108 365.703,-111.5 365.703,-104.5"/>
</g>
<!-- Node7 -->
<g id="node7" class="node"><title>Node7</title>
<g id="a_node7"><a xlink:href="classCFuncoesClima.xhtml#ae5e9416ada714340dc87fd95b4c9898b" target="_top" xlink:title="Executa funções clima. ">
<polygon fill="white" stroke="black" points="415,-5.5 415,-24.5 549,-24.5 549,-5.5 415,-5.5"/>
<text text-anchor="middle" x="482" y="-12.5" font-family="Helvetica,sans-Serif" font-size="10.00">CFuncoesClima::operator()</text>
</a>
</g>
</g>
<!-- Node6&#45;&gt;Node7 -->
<g id="edge6" class="edge"><title>Node6&#45;&gt;Node7</title>
<path fill="none" stroke="midnightblue" d="M374.095,-15C387.913,-15 401.893,-15 414.985,-15"/>
<polygon fill="midnightblue" stroke="midnightblue" points="374.078,-11.5001 364.077,-15 374.077,-18.5001 374.078,-11.5001"/>
</g>
</g>
</svg>
        <g id="navigator" transform="translate(0 0)" fill="#404254">
                <rect fill="#f2f5e9" fill-opacity="0.5" stroke="#606060" stroke-width=".5" x="0" y="0" width="60" height="60"/>
                <use id="zoomplus" xlink:href="#zoomPlus" x="17" y="9" onmousedown="handleZoom(evt,'in')"/>
                <use id="zoomminus" xlink:href="#zoomMin" x="42" y="9" onmousedown="handleZoom(evt,'out')"/>
                <use id="reset" xlink:href="#resetDef" x="30" y="36" onmousedown="handleReset()"/>
                <g id="arrowUp" xlink:href="#dirArrow" transform="translate(30 24)" onmousedown="handlePan(0,-1)">
                  <use xlink:href="#rim" fill="#404040">
                        <set attributeName="fill" to="#808080" begin="arrowUp.mouseover" end="arrowUp.mouseout"/>
                  </use>
                  <path fill="none" stroke="white" stroke-width="1.5" d="M0,-3.0v7 M-2.5,-0.5L0,-3.0L2.5,-0.5"/>
                </g>
                <g id="arrowRight" xlink:href="#dirArrow" transform="rotate(90) translate(36 -43)" onmousedown="handlePan(1,0)">
                  <use xlink:href="#rim" fill="#404040">
                        <set attributeName="fill" to="#808080" begin="arrowRight.mouseover" end="arrowRight.mouseout"/>
                  </use>
                  <path fill="none" stroke="white" stroke-width="1.5" d="M0,-3.0v7 M-2.5,-0.5L0,-3.0L2.5,-0.5"/>
                </g>
                <g id="arrowDown" xlink:href="#dirArrow" transform="rotate(180) translate(-30 -48)" onmousedown="handlePan(0,1)">
                  <use xlink:href="#rim" fill="#404040">
                        <set attributeName="fill" to="#808080" begin="arrowDown.mouseover" end="arrowDown.mouseout"/>
                  </use>
                  <path fill="none" stroke="white" stroke-width="1.5" d="M0,-3.0v7 M-2.5,-0.5L0,-3.0L2.5,-0.5"/>
                </g>
                <g id="arrowLeft" xlink:href="#dirArrow" transform="rotate(270) translate(-36 17)" onmousedown="handlePan(-1,0)">
                  <use xlink:href="#rim" fill="#404040">
                        <set attributeName="fill" to="#808080" begin="arrowLeft.mouseover" end="arrowLeft.mouseout"/>
                  </use>
                  <path fill="none" stroke="white" stroke-width="1.5" d="M0,-3.0v7 M-2.5,-0.5L0,-3.0L2.5,-0.5"/>
                </g>
        </g>
        <svg viewBox="0 0 15 15" width="100%" height="30px" preserveAspectRatio="xMaxYMin meet">
         <g id="arrow_out" transform="scale(0.3 0.3)">
          <a xlink:href="classCTermodinamica_a49362abf7162741c870620b9afbccf66_icgraph_org.svg" target="_base">
           <rect id="button" ry="5" rx="5" y="6" x="6" height="38" width="38"
                fill="#f2f5e9" fill-opacity="0.5" stroke="#606060" stroke-width="1.0"/>
           <path id="arrow"
             d="M 11.500037,31.436501 C 11.940474,20.09759 22.043105,11.32322 32.158766,21.979434 L 37.068811,17.246167 C 37.068811,17.246167 37.088388,32 37.088388,32 L 22.160133,31.978069 C 22.160133,31.978069 26.997745,27.140456 26.997745,27.140456 C 18.528582,18.264221 13.291696,25.230495 11.500037,31.436501 z"
             style="fill:#404040;"/>
          </a>
         </g>
        </svg>
</svg>
