<?xml version="1.0" encoding="UTF-8" standalone="no"?>
<!DOCTYPE svg PUBLIC "-//W3C//DTD SVG 1.1//EN"
 "http://www.w3.org/Graphics/SVG/1.1/DTD/svg11.dtd">
<!-- Generated by graphviz version 2.34.0 (20140110.0949)
 -->
<!-- Title: CFluido Pages: 1 -->
<svg width="122pt" height="228pt"
 viewBox="0.00 0.00 122.00 228.00" xmlns="http://www.w3.org/2000/svg" xmlns:xlink="http://www.w3.org/1999/xlink">
<g id="graph0" class="graph" transform="scale(1 1) rotate(0) translate(4 224)">
<title>CFluido</title>
<polygon fill="white" stroke="white" points="-4,4 -4,-224 118,-224 118,4 -4,4"/>
<!-- Node1 -->
<g id="node1" class="node"><title>Node1</title>
<polygon fill="#bfbfbf" stroke="black" points="-0.5,-1 -0.5,-91 114.5,-91 114.5,-1 -0.5,-1"/>
<text text-anchor="middle" x="57" y="-79" font-family="Helvetica,sans-Serif" font-size="10.00">CFluido</text>
<polyline fill="none" stroke="black" points="-0.5,-72 114.5,-72 "/>
<text text-anchor="middle" x="57" y="-60" font-family="Helvetica,sans-Serif" font-size="10.00"> </text>
<polyline fill="none" stroke="black" points="-0.5,-53 114.5,-53 "/>
<text text-anchor="start" x="7.5" y="-41" font-family="Helvetica,sans-Serif" font-size="10.00">+ CFluido()</text>
<text text-anchor="start" x="7.5" y="-30" font-family="Helvetica,sans-Serif" font-size="10.00">+ ~CFluido()</text>
<text text-anchor="start" x="7.5" y="-19" font-family="Helvetica,sans-Serif" font-size="10.00">+ DadosDefault()</text>
<text text-anchor="start" x="7.5" y="-8" font-family="Helvetica,sans-Serif" font-size="10.00">+ EntrarDadosObjeto()</text>
</g>
<!-- Node2 -->
<g id="node2" class="node"><title>Node2</title>
<polygon fill="white" stroke="#bfbfbf" points="34.5,-162.5 34.5,-219.5 79.5,-219.5 79.5,-162.5 34.5,-162.5"/>
<text text-anchor="middle" x="57" y="-207.5" font-family="Helvetica,sans-Serif" font-size="10.00">double</text>
<polyline fill="none" stroke="#bfbfbf" points="34.5,-200.5 79.5,-200.5 "/>
<text text-anchor="middle" x="57" y="-188.5" font-family="Helvetica,sans-Serif" font-size="10.00"> </text>
<polyline fill="none" stroke="#bfbfbf" points="34.5,-181.5 79.5,-181.5 "/>
<text text-anchor="middle" x="57" y="-169.5" font-family="Helvetica,sans-Serif" font-size="10.00"> </text>
</g>
<!-- Node2&#45;&gt;Node1 -->
<g id="edge1" class="edge"><title>Node2&#45;&gt;Node1</title>
<path fill="none" stroke="#404040" d="M57,-162.428C57,-145.614 57,-123.507 57,-103.145"/>
<polygon fill="none" stroke="#404040" points="57.0001,-103.084 53,-97.0838 57,-91.0837 61,-97.0837 57.0001,-103.084"/>
<text text-anchor="middle" x="66.5" y="-135.5" font-family="Helvetica,sans-Serif" font-size="10.00"> #rol</text>
<text text-anchor="middle" x="66.5" y="-124.5" font-family="Helvetica,sans-Serif" font-size="10.00">#cl</text>
<text text-anchor="middle" x="66.5" y="-113.5" font-family="Helvetica,sans-Serif" font-size="10.00">#lv</text>
</g>
</g>
</svg>
