<?xml version="1.0" encoding="UTF-8" standalone="no"?>
<!DOCTYPE svg PUBLIC "-//W3C//DTD SVG 1.1//EN"
 "http://www.w3.org/Graphics/SVG/1.1/DTD/svg11.dtd">
<!-- Generated by graphviz version 2.34.0 (20140110.0949)
 -->
<!-- Title: CInterface::Carimbo Pages: 1 -->
<!--zoomable 381 -->
<svg id="main" version="1.1" xmlns="http://www.w3.org/2000/svg" xmlns:xlink="http://www.w3.org/1999/xlink" xml:space="preserve" onload="init(evt)">
<style type="text/css"><![CDATA[
.edge:hover path { stroke: red; }
.edge:hover polygon { stroke: red; fill: red; }
]]></style>
<script type="text/javascript"><![CDATA[
var edges = document.getElementsByTagName('g');
if (edges && edges.length) {
  for (var i=0;i<edges.length;i++) {
    if (edges[i].id.substr(0,4)=='edge') {
      edges[i].setAttribute('class','edge');
    }
  }
}
]]></script>
        <defs>
                <circle id="rim" cx="0" cy="0" r="7"/>
                <circle id="rim2" cx="0" cy="0" r="3.5"/>
                <g id="zoomPlus">
                        <use xlink:href="#rim" fill="#404040">
                                <set attributeName="fill" to="#808080" begin="zoomplus.mouseover" end="zoomplus.mouseout"/>
                        </use>
                        <path d="M-4,0h8M0,-4v8" fill="none" stroke="white" stroke-width="1.5" pointer-events="none"/>
                </g>
                <g id="zoomMin">
                        <use xlink:href="#rim" fill="#404040">
                                <set attributeName="fill" to="#808080" begin="zoomminus.mouseover" end="zoomminus.mouseout"/>
                        </use>
                        <path d="M-4,0h8" fill="none" stroke="white" stroke-width="1.5" pointer-events="none"/>
                </g>
                <g id="dirArrow">
                        <path fill="none" stroke="white" stroke-width="1.5" d="M0,-3.0v7 M-2.5,-0.5L0,-3.0L2.5,-0.5"/>
                </g>
               <g id="resetDef">
                       <use xlink:href="#rim2" fill="#404040">
                               <set attributeName="fill" to="#808080" begin="reset.mouseover" end="reset.mouseout"/>
                       </use>
               </g>
        </defs>

<script type="text/javascript">
var viewWidth = 676;
var viewHeight = 381;
var sectionId = 'dynsection-2';
</script>
<script xlink:href="svgpan.js"/>
<svg id="graph" class="graph">
<g id="viewport">
<title>CInterface::Carimbo</title>
<polygon fill="white" stroke="white" points="-4,4 -4,-377.453 672,-377.453 672,4 -4,4"/>
<!-- Node1 -->
<g id="node1" class="node"><title>Node1</title>
<polygon fill="#bfbfbf" stroke="black" points="0.5,-168.953 0.5,-187.953 105.5,-187.953 105.5,-168.953 0.5,-168.953"/>
<text text-anchor="middle" x="53" y="-175.953" font-family="Helvetica,sans-Serif" font-size="10.00">CInterface::Carimbo</text>
</g>
<!-- Node2 -->
<g id="node2" class="node"><title>Node2</title>
<g id="a_node2"><a xlink:href="classCFuncaoAdsorcao.xhtml#a361e4302a433b5604ec1f97a83e425ef" target="_top" xlink:title="Entrada de dados (associados aos ensaios) ">
<polygon fill="white" stroke="black" points="142,-343.453 142,-373.453 300,-373.453 300,-343.453 142,-343.453"/>
<text text-anchor="start" x="150" y="-361.453" font-family="Helvetica,sans-Serif" font-size="10.00">CFuncaoAdsorcao::EntrarDados</text>
<text text-anchor="middle" x="221" y="-350.453" font-family="Helvetica,sans-Serif" font-size="10.00">Funcao</text>
</a>
</g>
</g>
<!-- Node1&#45;&gt;Node2 -->
<g id="edge1" class="edge"><title>Node1&#45;&gt;Node2</title>
<path fill="none" stroke="midnightblue" d="M59.8104,-197.805C70.6179,-230.532 96.9033,-296.813 142,-333.453 146.746,-337.308 152.098,-340.574 157.719,-343.339"/>
<polygon fill="midnightblue" stroke="midnightblue" points="63.0881,-196.562 56.7337,-188.084 56.4144,-198.674 63.0881,-196.562"/>
</g>
<!-- Node3 -->
<g id="node3" class="node"><title>Node3</title>
<g id="a_node3"><a xlink:href="classCFuncaoDifusividade.xhtml#a47f0332d0eee64d26382f55ad82d09f2" target="_top" xlink:title="Entrada de dados (associados aos ensaios) ">
<polygon fill="white" stroke="black" points="166,-294.453 166,-324.453 276,-324.453 276,-294.453 166,-294.453"/>
<text text-anchor="start" x="174" y="-312.453" font-family="Helvetica,sans-Serif" font-size="10.00">CFuncaoDifusividade</text>
<text text-anchor="middle" x="221" y="-301.453" font-family="Helvetica,sans-Serif" font-size="10.00">::EntrarDadosFuncao</text>
</a>
</g>
</g>
<!-- Node1&#45;&gt;Node3 -->
<g id="edge2" class="edge"><title>Node1&#45;&gt;Node3</title>
<path fill="none" stroke="midnightblue" d="M64.6811,-196.933C79.2449,-220.55 107.508,-261.156 142,-284.453 149.188,-289.308 157.38,-293.269 165.688,-296.486"/>
<polygon fill="midnightblue" stroke="midnightblue" points="67.6058,-195.004 59.4611,-188.228 61.6026,-198.605 67.6058,-195.004"/>
</g>
<!-- Node4 -->
<g id="node4" class="node"><title>Node4</title>
<g id="a_node4"><a xlink:href="classCFuncaoCondutividade.xhtml#a2cbe70afdd9eef1cdc237904710ee751" target="_top" xlink:title="Entrada de dados (associados aos ensaios) ">
<polygon fill="white" stroke="black" points="161.5,-245.453 161.5,-275.453 280.5,-275.453 280.5,-245.453 161.5,-245.453"/>
<text text-anchor="start" x="169.5" y="-263.453" font-family="Helvetica,sans-Serif" font-size="10.00">CFuncaoCondutividade</text>
<text text-anchor="middle" x="221" y="-252.453" font-family="Helvetica,sans-Serif" font-size="10.00">::EntrarDadosFuncao</text>
</a>
</g>
</g>
<!-- Node1&#45;&gt;Node4 -->
<g id="edge3" class="edge"><title>Node1&#45;&gt;Node4</title>
<path fill="none" stroke="midnightblue" d="M74.7123,-194.125C91.9868,-206.629 117.626,-223.904 142,-235.453 149.71,-239.106 158.091,-242.42 166.405,-245.353"/>
<polygon fill="midnightblue" stroke="midnightblue" points="76.6212,-191.184 66.4923,-188.076 72.4726,-196.822 76.6212,-191.184"/>
</g>
<!-- Node5 -->
<g id="node5" class="node"><title>Node5</title>
<g id="a_node5"><a xlink:href="classCFluido.xhtml#a86b2d6d0cb5b81d50d976385aa69dcf8" target="_top" xlink:title="Entrada de dados. ">
<polygon fill="white" stroke="black" points="151,-206.953 151,-225.953 291,-225.953 291,-206.953 151,-206.953"/>
<text text-anchor="middle" x="221" y="-213.953" font-family="Helvetica,sans-Serif" font-size="10.00">CFluido::EntrarDadosObjeto</text>
</a>
</g>
</g>
<!-- Node1&#45;&gt;Node5 -->
<g id="edge4" class="edge"><title>Node1&#45;&gt;Node5</title>
<path fill="none" stroke="midnightblue" d="M105.653,-190.277C129.056,-195.634 156.357,-201.884 178.412,-206.933"/>
<polygon fill="midnightblue" stroke="midnightblue" points="106.418,-186.861 95.8888,-188.042 104.856,-193.685 106.418,-186.861"/>
</g>
<!-- Node6 -->
<g id="node6" class="node"><title>Node6</title>
<g id="a_node6"><a xlink:href="classCTransferenciaCalorMassa.xhtml#a07a41f40068191679771e44309b75beb" target="_top" xlink:title="Entrada de dados. ">
<polygon fill="white" stroke="black" points="351,-169.453 351,-199.453 487,-199.453 487,-169.453 351,-169.453"/>
<text text-anchor="start" x="359" y="-187.453" font-family="Helvetica,sans-Serif" font-size="10.00">CTransferenciaCalorMassa</text>
<text text-anchor="middle" x="419" y="-176.453" font-family="Helvetica,sans-Serif" font-size="10.00">::EntrarDadosObjeto</text>
</a>
</g>
</g>
<!-- Node1&#45;&gt;Node6 -->
<g id="edge5" class="edge"><title>Node1&#45;&gt;Node6</title>
<path fill="none" stroke="midnightblue" d="M115.916,-179.473C181.219,-180.55 283.773,-182.24 350.952,-183.347"/>
<polygon fill="midnightblue" stroke="midnightblue" points="115.822,-175.971 105.766,-179.306 115.707,-182.97 115.822,-175.971"/>
</g>
<!-- Node7 -->
<g id="node7" class="node"><title>Node7</title>
<g id="a_node7"><a xlink:href="classCSimulador__Telha.xhtml#ad3ec0d6df9f0f7325de23d6a04e3b76a" target="_top" xlink:title="Entrada de dados. ">
<polygon fill="white" stroke="black" points="538.5,-125.453 538.5,-155.453 667.5,-155.453 667.5,-125.453 538.5,-125.453"/>
<text text-anchor="start" x="546.5" y="-143.453" font-family="Helvetica,sans-Serif" font-size="10.00">CSimulador_Telha::Entrar</text>
<text text-anchor="middle" x="603" y="-132.453" font-family="Helvetica,sans-Serif" font-size="10.00">DadosObjeto</text>
</a>
</g>
</g>
<!-- Node1&#45;&gt;Node7 -->
<g id="edge12" class="edge"><title>Node1&#45;&gt;Node7</title>
<path fill="none" stroke="midnightblue" d="M115.663,-174.177C220.498,-166.907 432.397,-152.213 538.481,-144.857"/>
<polygon fill="midnightblue" stroke="midnightblue" points="115.288,-170.694 105.555,-174.878 115.773,-177.677 115.288,-170.694"/>
</g>
<!-- Node8 -->
<g id="node8" class="node"><title>Node8</title>
<g id="a_node8"><a xlink:href="classCFuncoesClima.xhtml#a7f03fe9f4313e2a03e36f33b54a71936" target="_top" xlink:title="Entrada de dados. ">
<polygon fill="white" stroke="black" points="147,-81.4526 147,-111.453 295,-111.453 295,-81.4526 147,-81.4526"/>
<text text-anchor="start" x="155" y="-99.4526" font-family="Helvetica,sans-Serif" font-size="10.00">CFuncoesClima::EntrarDados</text>
<text text-anchor="middle" x="221" y="-88.4526" font-family="Helvetica,sans-Serif" font-size="10.00">Objeto</text>
</a>
</g>
</g>
<!-- Node1&#45;&gt;Node8 -->
<g id="edge7" class="edge"><title>Node1&#45;&gt;Node8</title>
<path fill="none" stroke="midnightblue" d="M77.4062,-163.17C94.8067,-152.171 119.354,-137.404 142,-126.453 153.102,-121.083 165.431,-115.972 176.948,-111.54"/>
<polygon fill="midnightblue" stroke="midnightblue" points="75.0712,-160.508 68.5321,-168.844 78.8424,-166.406 75.0712,-160.508"/>
</g>
<!-- Node9 -->
<g id="node9" class="node"><title>Node9</title>
<g id="a_node9"><a xlink:href="classCMeioPoroso__Telha.xhtml#a70735fb3dc927168aca84bb0cecb0023" target="_top" xlink:title="Entrada de dados. ">
<polygon fill="white" stroke="black" points="165.5,-32.4526 165.5,-62.4526 276.5,-62.4526 276.5,-32.4526 165.5,-32.4526"/>
<text text-anchor="start" x="173.5" y="-50.4526" font-family="Helvetica,sans-Serif" font-size="10.00">CMeioPoroso_Telha::</text>
<text text-anchor="middle" x="221" y="-39.4526" font-family="Helvetica,sans-Serif" font-size="10.00">EntrarDadosObjeto</text>
</a>
</g>
</g>
<!-- Node1&#45;&gt;Node9 -->
<g id="edge8" class="edge"><title>Node1&#45;&gt;Node9</title>
<path fill="none" stroke="midnightblue" d="M64.3782,-160.094C78.7842,-136.238 107.057,-94.8751 142,-71.4526 149.061,-66.7194 157.097,-62.8865 165.263,-59.7919"/>
<polygon fill="midnightblue" stroke="midnightblue" points="61.274,-158.468 59.2322,-168.864 67.3115,-162.011 61.274,-158.468"/>
</g>
<!-- Node10 -->
<g id="node10" class="node"><title>Node10</title>
<g id="a_node10"><a xlink:href="classCMeioPoroso__Telha__Discretizada__TDMA.xhtml#aaec5a7e2f667ae2c8dccdafa5938aea9" target="_top" xlink:title="Entrada de dados. ">
<polygon fill="white" stroke="black" points="336.5,-32.4526 336.5,-62.4526 501.5,-62.4526 501.5,-32.4526 336.5,-32.4526"/>
<text text-anchor="start" x="344.5" y="-50.4526" font-family="Helvetica,sans-Serif" font-size="10.00">CMeioPoroso_Telha_Discretizada</text>
<text text-anchor="middle" x="419" y="-39.4526" font-family="Helvetica,sans-Serif" font-size="10.00">_TDMA::EntrarDadosObjeto</text>
</a>
</g>
</g>
<!-- Node1&#45;&gt;Node10 -->
<g id="edge11" class="edge"><title>Node1&#45;&gt;Node10</title>
<path fill="none" stroke="midnightblue" d="M58.3034,-158.851C67.1214,-124.045 90.8766,-52.3103 142,-22.4526 218.861,22.4364 328.77,-10.609 383.823,-32.3918"/>
<polygon fill="midnightblue" stroke="midnightblue" points="54.857,-158.215 55.9495,-168.754 61.6672,-159.834 54.857,-158.215"/>
</g>
<!-- Node6&#45;&gt;Node7 -->
<g id="edge6" class="edge"><title>Node6&#45;&gt;Node7</title>
<path fill="none" stroke="midnightblue" d="M491.877,-167.076C507.737,-163.241 524.409,-159.211 539.846,-155.479"/>
<polygon fill="midnightblue" stroke="midnightblue" points="491.023,-163.681 482.125,-169.433 492.668,-170.485 491.023,-163.681"/>
</g>
<!-- Node9&#45;&gt;Node10 -->
<g id="edge9" class="edge"><title>Node9&#45;&gt;Node10</title>
<path fill="none" stroke="midnightblue" d="M286.779,-47.4526C302.591,-47.4526 319.711,-47.4526 336.202,-47.4526"/>
<polygon fill="midnightblue" stroke="midnightblue" points="286.597,-43.9527 276.597,-47.4526 286.597,-50.9527 286.597,-43.9527"/>
</g>
<!-- Node10&#45;&gt;Node7 -->
<g id="edge10" class="edge"><title>Node10&#45;&gt;Node7</title>
<path fill="none" stroke="midnightblue" d="M458.815,-67.2864C492.793,-84.6492 541.435,-109.505 572.366,-125.31"/>
<polygon fill="midnightblue" stroke="midnightblue" points="460.144,-64.0352 449.647,-62.6016 456.959,-70.2686 460.144,-64.0352"/>
</g>
</g>
</svg>
        <g id="navigator" transform="translate(0 0)" fill="#404254">
                <rect fill="#f2f5e9" fill-opacity="0.5" stroke="#606060" stroke-width=".5" x="0" y="0" width="60" height="60"/>
                <use id="zoomplus" xlink:href="#zoomPlus" x="17" y="9" onmousedown="handleZoom(evt,'in')"/>
                <use id="zoomminus" xlink:href="#zoomMin" x="42" y="9" onmousedown="handleZoom(evt,'out')"/>
                <use id="reset" xlink:href="#resetDef" x="30" y="36" onmousedown="handleReset()"/>
                <g id="arrowUp" xlink:href="#dirArrow" transform="translate(30 24)" onmousedown="handlePan(0,-1)">
                  <use xlink:href="#rim" fill="#404040">
                        <set attributeName="fill" to="#808080" begin="arrowUp.mouseover" end="arrowUp.mouseout"/>
                  </use>
                  <path fill="none" stroke="white" stroke-width="1.5" d="M0,-3.0v7 M-2.5,-0.5L0,-3.0L2.5,-0.5"/>
                </g>
                <g id="arrowRight" xlink:href="#dirArrow" transform="rotate(90) translate(36 -43)" onmousedown="handlePan(1,0)">
                  <use xlink:href="#rim" fill="#404040">
                        <set attributeName="fill" to="#808080" begin="arrowRight.mouseover" end="arrowRight.mouseout"/>
                  </use>
                  <path fill="none" stroke="white" stroke-width="1.5" d="M0,-3.0v7 M-2.5,-0.5L0,-3.0L2.5,-0.5"/>
                </g>
                <g id="arrowDown" xlink:href="#dirArrow" transform="rotate(180) translate(-30 -48)" onmousedown="handlePan(0,1)">
                  <use xlink:href="#rim" fill="#404040">
                        <set attributeName="fill" to="#808080" begin="arrowDown.mouseover" end="arrowDown.mouseout"/>
                  </use>
                  <path fill="none" stroke="white" stroke-width="1.5" d="M0,-3.0v7 M-2.5,-0.5L0,-3.0L2.5,-0.5"/>
                </g>
                <g id="arrowLeft" xlink:href="#dirArrow" transform="rotate(270) translate(-36 17)" onmousedown="handlePan(-1,0)">
                  <use xlink:href="#rim" fill="#404040">
                        <set attributeName="fill" to="#808080" begin="arrowLeft.mouseover" end="arrowLeft.mouseout"/>
                  </use>
                  <path fill="none" stroke="white" stroke-width="1.5" d="M0,-3.0v7 M-2.5,-0.5L0,-3.0L2.5,-0.5"/>
                </g>
        </g>
        <svg viewBox="0 0 15 15" width="100%" height="30px" preserveAspectRatio="xMaxYMin meet">
         <g id="arrow_out" transform="scale(0.3 0.3)">
          <a xlink:href="classCInterface_a34d1e9acbf3da248890eaa8a8a309384_icgraph_org.svg" target="_base">
           <rect id="button" ry="5" rx="5" y="6" x="6" height="38" width="38"
                fill="#f2f5e9" fill-opacity="0.5" stroke="#606060" stroke-width="1.0"/>
           <path id="arrow"
             d="M 11.500037,31.436501 C 11.940474,20.09759 22.043105,11.32322 32.158766,21.979434 L 37.068811,17.246167 C 37.068811,17.246167 37.088388,32 37.088388,32 L 22.160133,31.978069 C 22.160133,31.978069 26.997745,27.140456 26.997745,27.140456 C 18.528582,18.264221 13.291696,25.230495 11.500037,31.436501 z"
             style="fill:#404040;"/>
          </a>
         </g>
        </svg>
</svg>
