<?xml version="1.0" encoding="UTF-8" standalone="no"?>
<!DOCTYPE svg PUBLIC "-//W3C//DTD SVG 1.1//EN"
 "http://www.w3.org/Graphics/SVG/1.1/DTD/svg11.dtd">
<!-- Generated by graphviz version 2.34.0 (20140110.0949)
 -->
<!-- Title: Gnuplot::unset_contour Pages: 1 -->
<svg width="254pt" height="66pt"
 viewBox="0.00 0.00 254.00 66.00" xmlns="http://www.w3.org/2000/svg" xmlns:xlink="http://www.w3.org/1999/xlink">
<g id="graph0" class="graph" transform="scale(1 1) rotate(0) translate(4 62)">
<title>Gnuplot::unset_contour</title>
<polygon fill="white" stroke="white" points="-4,4 -4,-62 250,-62 250,4 -4,4"/>
<!-- Node1 -->
<g id="node1" class="node"><title>Node1</title>
<polygon fill="#bfbfbf" stroke="black" points="0,-19.5 0,-38.5 118,-38.5 118,-19.5 0,-19.5"/>
<text text-anchor="middle" x="59" y="-26.5" font-family="Helvetica,sans-Serif" font-size="10.00">Gnuplot::unset_contour</text>
</g>
<!-- Node2 -->
<g id="node2" class="node"><title>Node2</title>
<g id="a_node2"><a xlink:href="classGnuplot.xhtml#ab2918e5653c9d421bf924d7dc2467429" target="_top" xlink:title="Gnuplot::Contour">
<polygon fill="white" stroke="black" points="154.5,-38.5 154.5,-57.5 245.5,-57.5 245.5,-38.5 154.5,-38.5"/>
<text text-anchor="middle" x="200" y="-45.5" font-family="Helvetica,sans-Serif" font-size="10.00">Gnuplot::Contour</text>
</a>
</g>
</g>
<!-- Node1&#45;&gt;Node2 -->
<g id="edge1" class="edge"><title>Node1&#45;&gt;Node2</title>
<path fill="none" stroke="midnightblue" d="M128.104,-38.3091C136.964,-39.5203 145.856,-40.7357 154.2,-41.8763"/>
<polygon fill="midnightblue" stroke="midnightblue" points="128.525,-34.8343 118.143,-36.9476 127.577,-41.7698 128.525,-34.8343"/>
</g>
<!-- Node3 -->
<g id="node3" class="node"><title>Node3</title>
<g id="a_node3"><a xlink:href="classGnuplot.xhtml#a9eaf8050edfad9d926d41b102d2f24cb" target="_top" xlink:title="Gnuplot::Smooth">
<polygon fill="white" stroke="black" points="155,-0.5 155,-19.5 245,-19.5 245,-0.5 155,-0.5"/>
<text text-anchor="middle" x="200" y="-7.5" font-family="Helvetica,sans-Serif" font-size="10.00">Gnuplot::Smooth</text>
</a>
</g>
</g>
<!-- Node1&#45;&gt;Node3 -->
<g id="edge2" class="edge"><title>Node1&#45;&gt;Node3</title>
<path fill="none" stroke="midnightblue" d="M128.227,-19.674C137.198,-18.4478 146.196,-17.2178 154.625,-16.0656"/>
<polygon fill="midnightblue" stroke="midnightblue" points="127.577,-16.2302 118.143,-21.0524 128.525,-23.1657 127.577,-16.2302"/>
</g>
</g>
</svg>
