<?xml version="1.0" encoding="UTF-8" standalone="no"?>
<!DOCTYPE svg PUBLIC "-//W3C//DTD SVG 1.1//EN"
 "http://www.w3.org/Graphics/SVG/1.1/DTD/svg11.dtd">
<!-- Generated by graphviz version 2.34.0 (20140110.0949)
 -->
<!-- Title: src/CMeioPoroso_Telha.h Pages: 1 -->
<svg width="412pt" height="140pt"
 viewBox="0.00 0.00 412.18 140.00" xmlns="http://www.w3.org/2000/svg" xmlns:xlink="http://www.w3.org/1999/xlink">
<g id="graph0" class="graph" transform="scale(1 1) rotate(0) translate(4 136)">
<title>src/CMeioPoroso_Telha.h</title>
<polygon fill="white" stroke="white" points="-4,4 -4,-136 408.181,-136 408.181,4 -4,4"/>
<!-- Node1 -->
<g id="node1" class="node"><title>Node1</title>
<polygon fill="#bfbfbf" stroke="black" points="80.1814,-112.5 80.1814,-131.5 210.181,-131.5 210.181,-112.5 80.1814,-112.5"/>
<text text-anchor="middle" x="145.181" y="-119.5" font-family="Helvetica,sans-Serif" font-size="10.00">src/CMeioPoroso_Telha.h</text>
</g>
<!-- Node2 -->
<g id="node2" class="node"><title>Node2</title>
<polygon fill="white" stroke="#bfbfbf" points="118.181,-0.5 118.181,-19.5 172.181,-19.5 172.181,-0.5 118.181,-0.5"/>
<text text-anchor="middle" x="145.181" y="-7.5" font-family="Helvetica,sans-Serif" font-size="10.00">iostream</text>
</g>
<!-- Node1&#45;&gt;Node2 -->
<g id="edge1" class="edge"><title>Node1&#45;&gt;Node2</title>
<path fill="none" stroke="midnightblue" d="M80.0244,-116.408C52.6149,-110.866 23.1904,-99.3846 6.18142,-76 -21.9073,-37.3825 57.4872,-20.9768 107.618,-14.6108"/>
<polygon fill="midnightblue" stroke="midnightblue" points="108.303,-18.0541 117.821,-13.4004 107.479,-11.1029 108.303,-18.0541"/>
</g>
<!-- Node3 -->
<g id="node3" class="node"><title>Node3</title>
<g id="a_node3"><a xlink:href="CFuncaoDifusividade_8h.xhtml" target="_top" xlink:title="CFuncaoDifusividade.h">
<polygon fill="white" stroke="black" points="15.6814,-56.5 15.6814,-75.5 134.681,-75.5 134.681,-56.5 15.6814,-56.5"/>
<text text-anchor="middle" x="75.1814" y="-63.5" font-family="Helvetica,sans-Serif" font-size="10.00">CFuncaoDifusividade.h</text>
</a>
</g>
</g>
<!-- Node1&#45;&gt;Node3 -->
<g id="edge2" class="edge"><title>Node1&#45;&gt;Node3</title>
<path fill="none" stroke="midnightblue" d="M133.935,-112.324C123.384,-104.185 107.381,-91.8395 94.7392,-82.0874"/>
<polygon fill="midnightblue" stroke="midnightblue" points="96.6884,-79.1707 86.6328,-75.8339 92.4128,-84.7132 96.6884,-79.1707"/>
</g>
<!-- Node4 -->
<g id="node4" class="node"><title>Node4</title>
<g id="a_node4"><a xlink:href="CFuncaoCondutividade_8h.xhtml" target="_top" xlink:title="CFuncaoCondutividade.h">
<polygon fill="white" stroke="black" points="152.681,-56.5 152.681,-75.5 279.681,-75.5 279.681,-56.5 152.681,-56.5"/>
<text text-anchor="middle" x="216.181" y="-63.5" font-family="Helvetica,sans-Serif" font-size="10.00">CFuncaoCondutividade.h</text>
</a>
</g>
</g>
<!-- Node1&#45;&gt;Node4 -->
<g id="edge4" class="edge"><title>Node1&#45;&gt;Node4</title>
<path fill="none" stroke="midnightblue" d="M156.589,-112.324C167.29,-104.185 183.522,-91.8395 196.344,-82.0874"/>
<polygon fill="midnightblue" stroke="midnightblue" points="198.726,-84.6734 204.566,-75.8339 194.488,-79.1018 198.726,-84.6734"/>
</g>
<!-- Node5 -->
<g id="node5" class="node"><title>Node5</title>
<g id="a_node5"><a xlink:href="CFuncaoAdsorcao_8h.xhtml" target="_top" xlink:title="CFuncaoAdsorcao.h">
<polygon fill="white" stroke="black" points="298.181,-56.5 298.181,-75.5 404.181,-75.5 404.181,-56.5 298.181,-56.5"/>
<text text-anchor="middle" x="351.181" y="-63.5" font-family="Helvetica,sans-Serif" font-size="10.00">CFuncaoAdsorcao.h</text>
</a>
</g>
</g>
<!-- Node1&#45;&gt;Node5 -->
<g id="edge6" class="edge"><title>Node1&#45;&gt;Node5</title>
<path fill="none" stroke="midnightblue" d="M177.823,-112.444C213.232,-103.162 269.891,-88.3093 308.734,-78.127"/>
<polygon fill="midnightblue" stroke="midnightblue" points="309.907,-81.4378 318.693,-75.5164 308.132,-74.6666 309.907,-81.4378"/>
</g>
<!-- Node3&#45;&gt;Node2 -->
<g id="edge3" class="edge"><title>Node3&#45;&gt;Node2</title>
<path fill="none" stroke="midnightblue" d="M86.4281,-56.324C96.9788,-48.1849 112.982,-35.8395 125.624,-26.0874"/>
<polygon fill="midnightblue" stroke="midnightblue" points="127.95,-28.7132 133.73,-19.8339 123.674,-23.1707 127.95,-28.7132"/>
</g>
<!-- Node4&#45;&gt;Node2 -->
<g id="edge5" class="edge"><title>Node4&#45;&gt;Node2</title>
<path fill="none" stroke="midnightblue" d="M204.774,-56.324C194.073,-48.1849 177.841,-35.8395 165.019,-26.0874"/>
<polygon fill="midnightblue" stroke="midnightblue" points="166.875,-23.1018 156.796,-19.8339 162.637,-28.6734 166.875,-23.1018"/>
</g>
<!-- Node5&#45;&gt;Node2 -->
<g id="edge7" class="edge"><title>Node5&#45;&gt;Node2</title>
<path fill="none" stroke="midnightblue" d="M318.54,-56.4435C281.465,-46.7248 221.093,-30.8991 182.267,-20.7216"/>
<polygon fill="midnightblue" stroke="midnightblue" points="182.968,-17.287 172.407,-18.1368 181.193,-24.0582 182.968,-17.287"/>
</g>
</g>
</svg>
