<?xml version="1.0" encoding="UTF-8" standalone="no"?>
<!DOCTYPE svg PUBLIC "-//W3C//DTD SVG 1.1//EN"
 "http://www.w3.org/Graphics/SVG/1.1/DTD/svg11.dtd">
<!-- Generated by graphviz version 2.34.0 (20140110.0949)
 -->
<!-- Title: src/CMeioPoroso_Telha_Discretizada_TDMA.cpp Pages: 1 -->
<svg width="617pt" height="276pt"
 viewBox="0.00 0.00 617.00 276.00" xmlns="http://www.w3.org/2000/svg" xmlns:xlink="http://www.w3.org/1999/xlink">
<g id="graph0" class="graph" transform="scale(1 1) rotate(0) translate(4 272)">
<title>src/CMeioPoroso_Telha_Discretizada_TDMA.cpp</title>
<polygon fill="white" stroke="white" points="-4,4 -4,-272 613,-272 613,4 -4,4"/>
<!-- Node1 -->
<g id="node1" class="node"><title>Node1</title>
<polygon fill="#bfbfbf" stroke="black" points="-0.5,-237 -0.5,-267 128.5,-267 128.5,-237 -0.5,-237"/>
<text text-anchor="start" x="7.5" y="-255" font-family="Helvetica,sans-Serif" font-size="10.00">src/CMeioPoroso_Telha</text>
<text text-anchor="middle" x="64" y="-244" font-family="Helvetica,sans-Serif" font-size="10.00">_Discretizada_TDMA.cpp</text>
</g>
<!-- Node2 -->
<g id="node2" class="node"><title>Node2</title>
<polygon fill="white" stroke="#bfbfbf" points="165,-0.5 165,-19.5 219,-19.5 219,-0.5 165,-0.5"/>
<text text-anchor="middle" x="192" y="-7.5" font-family="Helvetica,sans-Serif" font-size="10.00">iostream</text>
</g>
<!-- Node1&#45;&gt;Node2 -->
<g id="edge1" class="edge"><title>Node1&#45;&gt;Node2</title>
<path fill="none" stroke="midnightblue" d="M56.915,-236.71C44.989,-210.494 24.1509,-153.587 45,-112 67.642,-66.8366 121.135,-38.2155 156.956,-23.3961"/>
<polygon fill="midnightblue" stroke="midnightblue" points="158.552,-26.5281 166.551,-19.58 155.965,-20.0237 158.552,-26.5281"/>
</g>
<!-- Node3 -->
<g id="node3" class="node"><title>Node3</title>
<g id="a_node3"><a xlink:href="CInterface_8h.xhtml" target="_top" xlink:title="CInterface.h">
<polygon fill="white" stroke="black" points="54.5,-112.5 54.5,-131.5 125.5,-131.5 125.5,-112.5 54.5,-112.5"/>
<text text-anchor="middle" x="90" y="-119.5" font-family="Helvetica,sans-Serif" font-size="10.00">CInterface.h</text>
</a>
</g>
</g>
<!-- Node1&#45;&gt;Node3 -->
<g id="edge2" class="edge"><title>Node1&#45;&gt;Node3</title>
<path fill="none" stroke="midnightblue" d="M66.8818,-236.813C71.6038,-213.566 80.9871,-167.371 86.2309,-141.556"/>
<polygon fill="midnightblue" stroke="midnightblue" points="89.6977,-142.07 88.2584,-131.574 82.8378,-140.677 89.6977,-142.07"/>
</g>
<!-- Node4 -->
<g id="node4" class="node"><title>Node4</title>
<g id="a_node4"><a xlink:href="CMeioPoroso__Telha__Discretizada__TDMA_8h.xhtml" target="_top" xlink:title="CMeioPoroso_Telha_Discretizada\l_TDMA.h">
<polygon fill="white" stroke="black" points="92.5,-169 92.5,-199 257.5,-199 257.5,-169 92.5,-169"/>
<text text-anchor="start" x="100.5" y="-187" font-family="Helvetica,sans-Serif" font-size="10.00">CMeioPoroso_Telha_Discretizada</text>
<text text-anchor="middle" x="175" y="-176" font-family="Helvetica,sans-Serif" font-size="10.00">_TDMA.h</text>
</a>
</g>
</g>
<!-- Node1&#45;&gt;Node4 -->
<g id="edge4" class="edge"><title>Node1&#45;&gt;Node4</title>
<path fill="none" stroke="midnightblue" d="M87.8123,-236.841C103.761,-227.359 124.959,-214.754 142.46,-204.348"/>
<polygon fill="midnightblue" stroke="midnightblue" points="144.421,-207.254 151.227,-199.135 140.843,-201.238 144.421,-207.254"/>
</g>
<!-- Node3&#45;&gt;Node2 -->
<g id="edge3" class="edge"><title>Node3&#45;&gt;Node2</title>
<path fill="none" stroke="midnightblue" d="M95.9526,-112.143C104.836,-99.2 122.409,-74.6358 140,-56 150.116,-45.2833 162.566,-34.439 172.748,-26.0818"/>
<polygon fill="midnightblue" stroke="midnightblue" points="175.074,-28.7027 180.666,-19.704 170.682,-23.2513 175.074,-28.7027"/>
</g>
<!-- Node4&#45;&gt;Node2 -->
<g id="edge5" class="edge"><title>Node4&#45;&gt;Node2</title>
<path fill="none" stroke="midnightblue" d="M176.391,-168.925C179.44,-138.073 186.714,-64.4842 190.146,-29.7549"/>
<polygon fill="midnightblue" stroke="midnightblue" points="193.651,-29.8805 191.152,-19.5847 186.685,-29.1919 193.651,-29.8805"/>
</g>
<!-- Node4&#45;&gt;Node3 -->
<g id="edge6" class="edge"><title>Node4&#45;&gt;Node3</title>
<path fill="none" stroke="midnightblue" d="M154.856,-168.781C141.405,-159.286 123.778,-146.843 110.296,-137.327"/>
<polygon fill="midnightblue" stroke="midnightblue" points="112.309,-134.463 102.121,-131.556 108.272,-140.182 112.309,-134.463"/>
</g>
<!-- Node5 -->
<g id="node5" class="node"><title>Node5</title>
<g id="a_node5"><a xlink:href="CMeioPoroso__Telha_8h.xhtml" target="_top" xlink:title="CMeioPoroso_Telha.h">
<polygon fill="white" stroke="black" points="223.5,-112.5 223.5,-131.5 336.5,-131.5 336.5,-112.5 223.5,-112.5"/>
<text text-anchor="middle" x="280" y="-119.5" font-family="Helvetica,sans-Serif" font-size="10.00">CMeioPoroso_Telha.h</text>
</a>
</g>
</g>
<!-- Node4&#45;&gt;Node5 -->
<g id="edge7" class="edge"><title>Node4&#45;&gt;Node5</title>
<path fill="none" stroke="midnightblue" d="M199.618,-168.933C216.7,-159.171 239.33,-146.24 256.225,-136.586"/>
<polygon fill="midnightblue" stroke="midnightblue" points="258.004,-139.6 264.95,-131.6 254.531,-133.523 258.004,-139.6"/>
</g>
<!-- Node5&#45;&gt;Node2 -->
<g id="edge8" class="edge"><title>Node5&#45;&gt;Node2</title>
<path fill="none" stroke="midnightblue" d="M259.305,-112.347C243.856,-104.876 223.362,-92.6501 211,-76 201.035,-62.5779 196.278,-44.0136 194.018,-30.16"/>
<polygon fill="midnightblue" stroke="midnightblue" points="197.435,-29.2988 192.648,-19.8471 190.496,-30.2211 197.435,-29.2988"/>
</g>
<!-- Node6 -->
<g id="node6" class="node"><title>Node6</title>
<g id="a_node6"><a xlink:href="CFuncaoDifusividade_8h.xhtml" target="_top" xlink:title="CFuncaoDifusividade.h">
<polygon fill="white" stroke="black" points="220.5,-56.5 220.5,-75.5 339.5,-75.5 339.5,-56.5 220.5,-56.5"/>
<text text-anchor="middle" x="280" y="-63.5" font-family="Helvetica,sans-Serif" font-size="10.00">CFuncaoDifusividade.h</text>
</a>
</g>
</g>
<!-- Node5&#45;&gt;Node6 -->
<g id="edge9" class="edge"><title>Node5&#45;&gt;Node6</title>
<path fill="none" stroke="midnightblue" d="M280,-112.083C280,-105.006 280,-94.8611 280,-85.9865"/>
<polygon fill="midnightblue" stroke="midnightblue" points="283.5,-85.751 280,-75.7511 276.5,-85.7511 283.5,-85.751"/>
</g>
<!-- Node7 -->
<g id="node7" class="node"><title>Node7</title>
<g id="a_node7"><a xlink:href="CFuncaoCondutividade_8h.xhtml" target="_top" xlink:title="CFuncaoCondutividade.h">
<polygon fill="white" stroke="black" points="357.5,-56.5 357.5,-75.5 484.5,-75.5 484.5,-56.5 357.5,-56.5"/>
<text text-anchor="middle" x="421" y="-63.5" font-family="Helvetica,sans-Serif" font-size="10.00">CFuncaoCondutividade.h</text>
</a>
</g>
</g>
<!-- Node5&#45;&gt;Node7 -->
<g id="edge11" class="edge"><title>Node5&#45;&gt;Node7</title>
<path fill="none" stroke="midnightblue" d="M302.342,-112.444C325.753,-103.478 362.736,-89.314 389.19,-79.1827"/>
<polygon fill="midnightblue" stroke="midnightblue" points="390.676,-82.3615 398.763,-75.5164 388.172,-75.8245 390.676,-82.3615"/>
</g>
<!-- Node8 -->
<g id="node8" class="node"><title>Node8</title>
<g id="a_node8"><a xlink:href="CFuncaoAdsorcao_8h.xhtml" target="_top" xlink:title="CFuncaoAdsorcao.h">
<polygon fill="white" stroke="black" points="503,-56.5 503,-75.5 609,-75.5 609,-56.5 503,-56.5"/>
<text text-anchor="middle" x="556" y="-63.5" font-family="Helvetica,sans-Serif" font-size="10.00">CFuncaoAdsorcao.h</text>
</a>
</g>
</g>
<!-- Node5&#45;&gt;Node8 -->
<g id="edge13" class="edge"><title>Node5&#45;&gt;Node8</title>
<path fill="none" stroke="midnightblue" d="M323.733,-112.444C372.183,-102.964 450.329,-87.6747 502.418,-77.4835"/>
<polygon fill="midnightblue" stroke="midnightblue" points="503.33,-80.8715 512.472,-75.5164 501.986,-74.0017 503.33,-80.8715"/>
</g>
<!-- Node6&#45;&gt;Node2 -->
<g id="edge10" class="edge"><title>Node6&#45;&gt;Node2</title>
<path fill="none" stroke="midnightblue" d="M265.861,-56.324C252.134,-47.9002 231.064,-34.9709 214.936,-25.0741"/>
<polygon fill="midnightblue" stroke="midnightblue" points="216.457,-21.9016 206.104,-19.6545 212.796,-27.8678 216.457,-21.9016"/>
</g>
<!-- Node7&#45;&gt;Node2 -->
<g id="edge12" class="edge"><title>Node7&#45;&gt;Node2</title>
<path fill="none" stroke="midnightblue" d="M384.714,-56.4435C342.098,-46.3943 271.792,-29.8156 228.908,-19.7033"/>
<polygon fill="midnightblue" stroke="midnightblue" points="229.688,-16.2912 219.152,-17.4026 228.082,-23.1044 229.688,-16.2912"/>
</g>
<!-- Node8&#45;&gt;Node2 -->
<g id="edge14" class="edge"><title>Node8&#45;&gt;Node2</title>
<path fill="none" stroke="midnightblue" d="M502.681,-57.0901C428.046,-46.0178 294.299,-26.1763 229.385,-16.5462"/>
<polygon fill="midnightblue" stroke="midnightblue" points="229.612,-13.0415 219.206,-15.0361 228.584,-19.9657 229.612,-13.0415"/>
</g>
</g>
</svg>
