<?xml version="1.0" encoding="UTF-8" standalone="no"?>
<!DOCTYPE svg PUBLIC "-//W3C//DTD SVG 1.1//EN"
 "http://www.w3.org/Graphics/SVG/1.1/DTD/svg11.dtd">
<!-- Generated by graphviz version 2.34.0 (20140110.0949)
 -->
<!-- Title: src/CMeioPoroso_Telha_Discretizada_TDMA.h Pages: 1 -->
<!--zoomable 208 -->
<svg id="main" version="1.1" xmlns="http://www.w3.org/2000/svg" xmlns:xlink="http://www.w3.org/1999/xlink" xml:space="preserve" onload="init(evt)">
<style type="text/css"><![CDATA[
.edge:hover path { stroke: red; }
.edge:hover polygon { stroke: red; fill: red; }
]]></style>
<script type="text/javascript"><![CDATA[
var edges = document.getElementsByTagName('g');
if (edges && edges.length) {
  for (var i=0;i<edges.length;i++) {
    if (edges[i].id.substr(0,4)=='edge') {
      edges[i].setAttribute('class','edge');
    }
  }
}
]]></script>
        <defs>
                <circle id="rim" cx="0" cy="0" r="7"/>
                <circle id="rim2" cx="0" cy="0" r="3.5"/>
                <g id="zoomPlus">
                        <use xlink:href="#rim" fill="#404040">
                                <set attributeName="fill" to="#808080" begin="zoomplus.mouseover" end="zoomplus.mouseout"/>
                        </use>
                        <path d="M-4,0h8M0,-4v8" fill="none" stroke="white" stroke-width="1.5" pointer-events="none"/>
                </g>
                <g id="zoomMin">
                        <use xlink:href="#rim" fill="#404040">
                                <set attributeName="fill" to="#808080" begin="zoomminus.mouseover" end="zoomminus.mouseout"/>
                        </use>
                        <path d="M-4,0h8" fill="none" stroke="white" stroke-width="1.5" pointer-events="none"/>
                </g>
                <g id="dirArrow">
                        <path fill="none" stroke="white" stroke-width="1.5" d="M0,-3.0v7 M-2.5,-0.5L0,-3.0L2.5,-0.5"/>
                </g>
               <g id="resetDef">
                       <use xlink:href="#rim2" fill="#404040">
                               <set attributeName="fill" to="#808080" begin="reset.mouseover" end="reset.mouseout"/>
                       </use>
               </g>
        </defs>

<script type="text/javascript">
var viewWidth = 503;
var viewHeight = 208;
var sectionId = 'dynsection-0';
</script>
<script xlink:href="svgpan.js"/>
<svg id="graph" class="graph">
<g id="viewport">
<title>src/CMeioPoroso_Telha_Discretizada_TDMA.h</title>
<polygon fill="white" stroke="white" points="-4,4 -4,-204 499,-204 499,4 -4,4"/>
<!-- Node1 -->
<g id="node1" class="node"><title>Node1</title>
<polygon fill="#bfbfbf" stroke="black" points="0,-169 0,-199 122,-199 122,-169 0,-169"/>
<text text-anchor="start" x="8" y="-187" font-family="Helvetica,sans-Serif" font-size="10.00">src/CMeioPoroso_Telha</text>
<text text-anchor="middle" x="61" y="-176" font-family="Helvetica,sans-Serif" font-size="10.00">_Discretizada_TDMA.h</text>
</g>
<!-- Node2 -->
<g id="node2" class="node"><title>Node2</title>
<polygon fill="white" stroke="#bfbfbf" points="95,-0.5 95,-19.5 149,-19.5 149,-0.5 95,-0.5"/>
<text text-anchor="middle" x="122" y="-7.5" font-family="Helvetica,sans-Serif" font-size="10.00">iostream</text>
</g>
<!-- Node1&#45;&gt;Node2 -->
<g id="edge1" class="edge"><title>Node1&#45;&gt;Node2</title>
<path fill="none" stroke="midnightblue" d="M41.9674,-168.807C25.9464,-154.993 6.97698,-133.061 16,-112 32.745,-72.9157 72.8652,-41.7852 98.6631,-24.9018"/>
<polygon fill="midnightblue" stroke="midnightblue" points="100.557,-27.8449 107.129,-19.5344 96.8093,-21.933 100.557,-27.8449"/>
</g>
<!-- Node3 -->
<g id="node3" class="node"><title>Node3</title>
<g id="a_node3"><a xlink:href="CInterface_8h.xhtml" target="_top" xlink:title="CInterface.h">
<polygon fill="white" stroke="black" points="25.5,-112.5 25.5,-131.5 96.5,-131.5 96.5,-112.5 25.5,-112.5"/>
<text text-anchor="middle" x="61" y="-119.5" font-family="Helvetica,sans-Serif" font-size="10.00">CInterface.h</text>
</a>
</g>
</g>
<!-- Node1&#45;&gt;Node3 -->
<g id="edge2" class="edge"><title>Node1&#45;&gt;Node3</title>
<path fill="none" stroke="midnightblue" d="M61,-168.781C61,-160.781 61,-150.689 61,-142.017"/>
<polygon fill="midnightblue" stroke="midnightblue" points="64.5001,-141.73 61,-131.731 57.5001,-141.731 64.5001,-141.73"/>
</g>
<!-- Node4 -->
<g id="node4" class="node"><title>Node4</title>
<g id="a_node4"><a xlink:href="CMeioPoroso__Telha_8h.xhtml" target="_top" xlink:title="CMeioPoroso_Telha.h">
<polygon fill="white" stroke="black" points="114.5,-112.5 114.5,-131.5 227.5,-131.5 227.5,-112.5 114.5,-112.5"/>
<text text-anchor="middle" x="171" y="-119.5" font-family="Helvetica,sans-Serif" font-size="10.00">CMeioPoroso_Telha.h</text>
</a>
</g>
</g>
<!-- Node1&#45;&gt;Node4 -->
<g id="edge4" class="edge"><title>Node1&#45;&gt;Node4</title>
<path fill="none" stroke="midnightblue" d="M86.7901,-168.933C104.686,-159.171 128.393,-146.24 146.093,-136.586"/>
<polygon fill="midnightblue" stroke="midnightblue" points="148.13,-139.461 155.233,-131.6 144.778,-133.316 148.13,-139.461"/>
</g>
<!-- Node3&#45;&gt;Node2 -->
<g id="edge3" class="edge"><title>Node3&#45;&gt;Node2</title>
<path fill="none" stroke="midnightblue" d="M64.2336,-112.322C69.1135,-99.6031 78.9695,-75.3146 90,-56 95.5861,-46.2187 102.786,-35.9363 108.941,-27.6734"/>
<polygon fill="midnightblue" stroke="midnightblue" points="111.802,-29.693 115.084,-19.6192 106.236,-25.4477 111.802,-29.693"/>
</g>
<!-- Node4&#45;&gt;Node2 -->
<g id="edge5" class="edge"><title>Node4&#45;&gt;Node2</title>
<path fill="none" stroke="midnightblue" d="M144.071,-112.356C127.281,-105.411 107.022,-93.8247 97,-76 88.2503,-60.4387 97.9108,-41.2043 107.655,-27.7108"/>
<polygon fill="midnightblue" stroke="midnightblue" points="110.465,-29.7992 113.878,-19.7691 104.955,-25.4818 110.465,-29.7992"/>
</g>
<!-- Node5 -->
<g id="node5" class="node"><title>Node5</title>
<g id="a_node5"><a xlink:href="CFuncaoDifusividade_8h.xhtml" target="_top" xlink:title="CFuncaoDifusividade.h">
<polygon fill="white" stroke="black" points="106.5,-56.5 106.5,-75.5 225.5,-75.5 225.5,-56.5 106.5,-56.5"/>
<text text-anchor="middle" x="166" y="-63.5" font-family="Helvetica,sans-Serif" font-size="10.00">CFuncaoDifusividade.h</text>
</a>
</g>
</g>
<!-- Node4&#45;&gt;Node5 -->
<g id="edge6" class="edge"><title>Node4&#45;&gt;Node5</title>
<path fill="none" stroke="midnightblue" d="M170.174,-112.083C169.519,-105.006 168.58,-94.8611 167.758,-85.9865"/>
<polygon fill="midnightblue" stroke="midnightblue" points="171.217,-85.3858 166.81,-75.7511 164.247,-86.0312 171.217,-85.3858"/>
</g>
<!-- Node6 -->
<g id="node6" class="node"><title>Node6</title>
<g id="a_node6"><a xlink:href="CFuncaoCondutividade_8h.xhtml" target="_top" xlink:title="CFuncaoCondutividade.h">
<polygon fill="white" stroke="black" points="243.5,-56.5 243.5,-75.5 370.5,-75.5 370.5,-56.5 243.5,-56.5"/>
<text text-anchor="middle" x="307" y="-63.5" font-family="Helvetica,sans-Serif" font-size="10.00">CFuncaoCondutividade.h</text>
</a>
</g>
</g>
<!-- Node4&#45;&gt;Node6 -->
<g id="edge8" class="edge"><title>Node4&#45;&gt;Node6</title>
<path fill="none" stroke="midnightblue" d="M192.55,-112.444C215.031,-103.517 250.488,-89.4387 275.98,-79.3168"/>
<polygon fill="midnightblue" stroke="midnightblue" points="277.549,-82.4598 285.551,-75.5164 274.965,-75.9539 277.549,-82.4598"/>
</g>
<!-- Node7 -->
<g id="node7" class="node"><title>Node7</title>
<g id="a_node7"><a xlink:href="CFuncaoAdsorcao_8h.xhtml" target="_top" xlink:title="CFuncaoAdsorcao.h">
<polygon fill="white" stroke="black" points="389,-56.5 389,-75.5 495,-75.5 495,-56.5 389,-56.5"/>
<text text-anchor="middle" x="442" y="-63.5" font-family="Helvetica,sans-Serif" font-size="10.00">CFuncaoAdsorcao.h</text>
</a>
</g>
</g>
<!-- Node4&#45;&gt;Node7 -->
<g id="edge10" class="edge"><title>Node4&#45;&gt;Node7</title>
<path fill="none" stroke="midnightblue" d="M213.941,-112.444C261.513,-102.964 338.244,-87.6747 389.389,-77.4835"/>
<polygon fill="midnightblue" stroke="midnightblue" points="390.137,-80.9032 399.26,-75.5164 388.769,-74.0382 390.137,-80.9032"/>
</g>
<!-- Node5&#45;&gt;Node2 -->
<g id="edge7" class="edge"><title>Node5&#45;&gt;Node2</title>
<path fill="none" stroke="midnightblue" d="M158.734,-56.083C152.455,-48.3768 143.212,-37.0333 135.569,-27.6531"/>
<polygon fill="midnightblue" stroke="midnightblue" points="138.161,-25.2926 129.131,-19.7511 132.734,-29.7143 138.161,-25.2926"/>
</g>
<!-- Node6&#45;&gt;Node2 -->
<g id="edge9" class="edge"><title>Node6&#45;&gt;Node2</title>
<path fill="none" stroke="midnightblue" d="M277.686,-56.4435C245.509,-47.0511 193.79,-31.9549 158.881,-21.7654"/>
<polygon fill="midnightblue" stroke="midnightblue" points="159.65,-18.3438 149.07,-18.9015 157.689,-25.0634 159.65,-18.3438"/>
</g>
<!-- Node7&#45;&gt;Node2 -->
<g id="edge11" class="edge"><title>Node7&#45;&gt;Node2</title>
<path fill="none" stroke="midnightblue" d="M391.295,-56.4435C326.757,-45.5528 216.775,-26.9932 159.372,-17.3065"/>
<polygon fill="midnightblue" stroke="midnightblue" points="159.731,-13.8178 149.288,-15.6049 158.567,-20.7202 159.731,-13.8178"/>
</g>
</g>
</svg>
        <g id="navigator" transform="translate(0 0)" fill="#404254">
                <rect fill="#f2f5e9" fill-opacity="0.5" stroke="#606060" stroke-width=".5" x="0" y="0" width="60" height="60"/>
                <use id="zoomplus" xlink:href="#zoomPlus" x="17" y="9" onmousedown="handleZoom(evt,'in')"/>
                <use id="zoomminus" xlink:href="#zoomMin" x="42" y="9" onmousedown="handleZoom(evt,'out')"/>
                <use id="reset" xlink:href="#resetDef" x="30" y="36" onmousedown="handleReset()"/>
                <g id="arrowUp" xlink:href="#dirArrow" transform="translate(30 24)" onmousedown="handlePan(0,-1)">
                  <use xlink:href="#rim" fill="#404040">
                        <set attributeName="fill" to="#808080" begin="arrowUp.mouseover" end="arrowUp.mouseout"/>
                  </use>
                  <path fill="none" stroke="white" stroke-width="1.5" d="M0,-3.0v7 M-2.5,-0.5L0,-3.0L2.5,-0.5"/>
                </g>
                <g id="arrowRight" xlink:href="#dirArrow" transform="rotate(90) translate(36 -43)" onmousedown="handlePan(1,0)">
                  <use xlink:href="#rim" fill="#404040">
                        <set attributeName="fill" to="#808080" begin="arrowRight.mouseover" end="arrowRight.mouseout"/>
                  </use>
                  <path fill="none" stroke="white" stroke-width="1.5" d="M0,-3.0v7 M-2.5,-0.5L0,-3.0L2.5,-0.5"/>
                </g>
                <g id="arrowDown" xlink:href="#dirArrow" transform="rotate(180) translate(-30 -48)" onmousedown="handlePan(0,1)">
                  <use xlink:href="#rim" fill="#404040">
                        <set attributeName="fill" to="#808080" begin="arrowDown.mouseover" end="arrowDown.mouseout"/>
                  </use>
                  <path fill="none" stroke="white" stroke-width="1.5" d="M0,-3.0v7 M-2.5,-0.5L0,-3.0L2.5,-0.5"/>
                </g>
                <g id="arrowLeft" xlink:href="#dirArrow" transform="rotate(270) translate(-36 17)" onmousedown="handlePan(-1,0)">
                  <use xlink:href="#rim" fill="#404040">
                        <set attributeName="fill" to="#808080" begin="arrowLeft.mouseover" end="arrowLeft.mouseout"/>
                  </use>
                  <path fill="none" stroke="white" stroke-width="1.5" d="M0,-3.0v7 M-2.5,-0.5L0,-3.0L2.5,-0.5"/>
                </g>
        </g>
        <svg viewBox="0 0 15 15" width="100%" height="30px" preserveAspectRatio="xMaxYMin meet">
         <g id="arrow_out" transform="scale(0.3 0.3)">
          <a xlink:href="CMeioPoroso__Telha__Discretizada__TDMA_8h__incl_org.svg" target="_base">
           <rect id="button" ry="5" rx="5" y="6" x="6" height="38" width="38"
                fill="#f2f5e9" fill-opacity="0.5" stroke="#606060" stroke-width="1.0"/>
           <path id="arrow"
             d="M 11.500037,31.436501 C 11.940474,20.09759 22.043105,11.32322 32.158766,21.979434 L 37.068811,17.246167 C 37.068811,17.246167 37.088388,32 37.088388,32 L 22.160133,31.978069 C 22.160133,31.978069 26.997745,27.140456 26.997745,27.140456 C 18.528582,18.264221 13.291696,25.230495 11.500037,31.436501 z"
             style="fill:#404040;"/>
          </a>
         </g>
        </svg>
</svg>
