<?xml version="1.0" encoding="UTF-8" standalone="no"?>
<!DOCTYPE svg PUBLIC "-//W3C//DTD SVG 1.1//EN"
 "http://www.w3.org/Graphics/SVG/1.1/DTD/svg11.dtd">
<!-- Generated by graphviz version 2.34.0 (20140110.0949)
 -->
<!-- Title: src/CMeioPoroso_Telha_Discretizada_TDMA.h Pages: 1 -->
<svg width="478pt" height="312pt"
 viewBox="0.00 0.00 478.00 312.00" xmlns="http://www.w3.org/2000/svg" xmlns:xlink="http://www.w3.org/1999/xlink">
<g id="graph0" class="graph" transform="scale(1 1) rotate(0) translate(4 308)">
<title>src/CMeioPoroso_Telha_Discretizada_TDMA.h</title>
<polygon fill="white" stroke="white" points="-4,4 -4,-308 474,-308 474,4 -4,4"/>
<!-- Node1 -->
<g id="node1" class="node"><title>Node1</title>
<polygon fill="#bfbfbf" stroke="black" points="273,-273 273,-303 395,-303 395,-273 273,-273"/>
<text text-anchor="start" x="281" y="-291" font-family="Helvetica,sans-Serif" font-size="10.00">src/CMeioPoroso_Telha</text>
<text text-anchor="middle" x="334" y="-280" font-family="Helvetica,sans-Serif" font-size="10.00">_Discretizada_TDMA.h</text>
</g>
<!-- Node2 -->
<g id="node2" class="node"><title>Node2</title>
<g id="a_node2"><a xlink:href="CSimulador__Telha_8h.xhtml" target="_top" xlink:title="src/CSimulador_Telha.h">
<polygon fill="white" stroke="black" points="201,-210.5 201,-229.5 323,-229.5 323,-210.5 201,-210.5"/>
<text text-anchor="middle" x="262" y="-217.5" font-family="Helvetica,sans-Serif" font-size="10.00">src/CSimulador_Telha.h</text>
</a>
</g>
</g>
<!-- Node1&#45;&gt;Node2 -->
<g id="edge1" class="edge"><title>Node1&#45;&gt;Node2</title>
<path fill="none" stroke="midnightblue" d="M310.929,-265.852C297.635,-253.666 281.629,-238.993 271.631,-229.828"/>
<polygon fill="midnightblue" stroke="midnightblue" points="308.64,-268.502 318.377,-272.679 313.371,-263.342 308.64,-268.502"/>
</g>
<!-- Node9 -->
<g id="node9" class="node"><title>Node9</title>
<g id="a_node9"><a xlink:href="CMeioPoroso__Telha__Discretizada__TDMA_8cpp.xhtml" target="_top" xlink:title="src/CMeioPoroso_Telha\l_Discretizada_TDMA.cpp">
<polygon fill="white" stroke="black" points="341.5,-205 341.5,-235 470.5,-235 470.5,-205 341.5,-205"/>
<text text-anchor="start" x="349.5" y="-223" font-family="Helvetica,sans-Serif" font-size="10.00">src/CMeioPoroso_Telha</text>
<text text-anchor="middle" x="406" y="-212" font-family="Helvetica,sans-Serif" font-size="10.00">_Discretizada_TDMA.cpp</text>
</a>
</g>
</g>
<!-- Node1&#45;&gt;Node9 -->
<g id="edge8" class="edge"><title>Node1&#45;&gt;Node9</title>
<path fill="none" stroke="midnightblue" d="M357.153,-265.776C368.025,-255.81 380.696,-244.196 390.408,-235.293"/>
<polygon fill="midnightblue" stroke="midnightblue" points="354.629,-263.342 349.623,-272.679 359.36,-268.502 354.629,-263.342"/>
</g>
<!-- Node3 -->
<g id="node3" class="node"><title>Node3</title>
<g id="a_node3"><a xlink:href="CSimulador__Telha__GanhosEnergia_8h.xhtml" target="_top" xlink:title="src/CSimulador_Telha\l_GanhosEnergia.h">
<polygon fill="white" stroke="black" points="135.5,-137 135.5,-167 248.5,-167 248.5,-137 135.5,-137"/>
<text text-anchor="start" x="143.5" y="-155" font-family="Helvetica,sans-Serif" font-size="10.00">src/CSimulador_Telha</text>
<text text-anchor="middle" x="192" y="-144" font-family="Helvetica,sans-Serif" font-size="10.00">_GanhosEnergia.h</text>
</a>
</g>
</g>
<!-- Node2&#45;&gt;Node3 -->
<g id="edge2" class="edge"><title>Node2&#45;&gt;Node3</title>
<path fill="none" stroke="midnightblue" d="M245.493,-203.436C233.841,-192.45 218.352,-177.846 207.041,-167.181"/>
<polygon fill="midnightblue" stroke="midnightblue" points="243.172,-206.058 252.849,-210.372 247.974,-200.965 243.172,-206.058"/>
</g>
<!-- Node8 -->
<g id="node8" class="node"><title>Node8</title>
<g id="a_node8"><a xlink:href="CSimulador__Telha_8cpp.xhtml" target="_top" xlink:title="src/CSimulador_Telha.cpp">
<polygon fill="white" stroke="black" points="267,-142.5 267,-161.5 399,-161.5 399,-142.5 267,-142.5"/>
<text text-anchor="middle" x="333" y="-149.5" font-family="Helvetica,sans-Serif" font-size="10.00">src/CSimulador_Telha.cpp</text>
</a>
</g>
</g>
<!-- Node2&#45;&gt;Node8 -->
<g id="edge7" class="edge"><title>Node2&#45;&gt;Node8</title>
<path fill="none" stroke="midnightblue" d="M278.769,-203.412C292.716,-190.447 312.07,-172.456 323.489,-161.841"/>
<polygon fill="midnightblue" stroke="midnightblue" points="276.223,-201 271.282,-210.372 280.989,-206.127 276.223,-201"/>
</g>
<!-- Node4 -->
<g id="node4" class="node"><title>Node4</title>
<g id="a_node4"><a xlink:href="CInterface__SimuladorTelha_8h.xhtml" target="_top" xlink:title="src/CInterface_Simulador\lTelha.h">
<polygon fill="white" stroke="black" points="59,-69 59,-99 187,-99 187,-69 59,-69"/>
<text text-anchor="start" x="67" y="-87" font-family="Helvetica,sans-Serif" font-size="10.00">src/CInterface_Simulador</text>
<text text-anchor="middle" x="123" y="-76" font-family="Helvetica,sans-Serif" font-size="10.00">Telha.h</text>
</a>
</g>
</g>
<!-- Node3&#45;&gt;Node4 -->
<g id="edge3" class="edge"><title>Node3&#45;&gt;Node4</title>
<path fill="none" stroke="midnightblue" d="M169.508,-129.485C159.157,-119.585 147.16,-108.109 137.943,-99.2931"/>
<polygon fill="midnightblue" stroke="midnightblue" points="167.382,-132.296 177.028,-136.679 172.221,-127.237 167.382,-132.296"/>
</g>
<!-- Node7 -->
<g id="node7" class="node"><title>Node7</title>
<g id="a_node7"><a xlink:href="CSimulador__Telha__GanhosEnergia_8cpp.xhtml" target="_top" xlink:title="src/CSimulador_Telha\l_GanhosEnergia.cpp">
<polygon fill="white" stroke="black" points="205.5,-69 205.5,-99 318.5,-99 318.5,-69 205.5,-69"/>
<text text-anchor="start" x="213.5" y="-87" font-family="Helvetica,sans-Serif" font-size="10.00">src/CSimulador_Telha</text>
<text text-anchor="middle" x="262" y="-76" font-family="Helvetica,sans-Serif" font-size="10.00">_GanhosEnergia.cpp</text>
</a>
</g>
</g>
<!-- Node3&#45;&gt;Node7 -->
<g id="edge6" class="edge"><title>Node3&#45;&gt;Node7</title>
<path fill="none" stroke="midnightblue" d="M214.51,-129.776C225.08,-119.81 237.399,-108.196 246.841,-99.2931"/>
<polygon fill="midnightblue" stroke="midnightblue" points="212.064,-127.272 207.189,-136.679 216.866,-132.365 212.064,-127.272"/>
</g>
<!-- Node5 -->
<g id="node5" class="node"><title>Node5</title>
<g id="a_node5"><a xlink:href="CInterface__SimuladorTelha_8cpp.xhtml" target="_top" xlink:title="src/CInterface_Simulador\lTelha.cpp">
<polygon fill="white" stroke="black" points="0,-1 0,-31 128,-31 128,-1 0,-1"/>
<text text-anchor="start" x="8" y="-19" font-family="Helvetica,sans-Serif" font-size="10.00">src/CInterface_Simulador</text>
<text text-anchor="middle" x="64" y="-8" font-family="Helvetica,sans-Serif" font-size="10.00">Telha.cpp</text>
</a>
</g>
</g>
<!-- Node4&#45;&gt;Node5 -->
<g id="edge4" class="edge"><title>Node4&#45;&gt;Node5</title>
<path fill="none" stroke="midnightblue" d="M103.507,-61.1939C94.7162,-51.3605 84.5809,-40.0228 76.7771,-31.2931"/>
<polygon fill="midnightblue" stroke="midnightblue" points="100.924,-63.5562 110.198,-68.679 106.143,-58.891 100.924,-63.5562"/>
</g>
<!-- Node6 -->
<g id="node6" class="node"><title>Node6</title>
<g id="a_node6"><a xlink:href="main_8cpp.xhtml" target="_top" xlink:title="src/main.cpp">
<polygon fill="white" stroke="black" points="146.5,-6.5 146.5,-25.5 219.5,-25.5 219.5,-6.5 146.5,-6.5"/>
<text text-anchor="middle" x="183" y="-13.5" font-family="Helvetica,sans-Serif" font-size="10.00">src/main.cpp</text>
</a>
</g>
</g>
<!-- Node4&#45;&gt;Node6 -->
<g id="edge5" class="edge"><title>Node4&#45;&gt;Node6</title>
<path fill="none" stroke="midnightblue" d="M142.849,-61.1658C153.801,-49.119 166.799,-34.8216 174.974,-25.8283"/>
<polygon fill="midnightblue" stroke="midnightblue" points="140.156,-58.9252 136.019,-68.679 145.336,-63.6339 140.156,-58.9252"/>
</g>
</g>
</svg>
