<?xml version="1.0" encoding="UTF-8" standalone="no"?>
<!DOCTYPE svg PUBLIC "-//W3C//DTD SVG 1.1//EN"
 "http://www.w3.org/Graphics/SVG/1.1/DTD/svg11.dtd">
<!-- Generated by graphviz version 2.34.0 (20140110.0949)
 -->
<!-- Title: src/CMeioPoroso_Telha.cpp Pages: 1 -->
<svg width="819pt" height="196pt"
 viewBox="0.00 0.00 819.00 196.00" xmlns="http://www.w3.org/2000/svg" xmlns:xlink="http://www.w3.org/1999/xlink">
<g id="graph0" class="graph" transform="scale(1 1) rotate(0) translate(4 192)">
<title>src/CMeioPoroso_Telha.cpp</title>
<polygon fill="white" stroke="white" points="-4,4 -4,-192 815,-192 815,4 -4,4"/>
<!-- Node1 -->
<g id="node1" class="node"><title>Node1</title>
<polygon fill="#bfbfbf" stroke="black" points="269,-168.5 269,-187.5 409,-187.5 409,-168.5 269,-168.5"/>
<text text-anchor="middle" x="339" y="-175.5" font-family="Helvetica,sans-Serif" font-size="10.00">src/CMeioPoroso_Telha.cpp</text>
</g>
<!-- Node2 -->
<g id="node2" class="node"><title>Node2</title>
<polygon fill="white" stroke="#bfbfbf" points="-0.5,-112.5 -0.5,-131.5 48.5,-131.5 48.5,-112.5 -0.5,-112.5"/>
<text text-anchor="middle" x="24" y="-119.5" font-family="Helvetica,sans-Serif" font-size="10.00">cassert</text>
</g>
<!-- Node1&#45;&gt;Node2 -->
<g id="edge1" class="edge"><title>Node1&#45;&gt;Node2</title>
<path fill="none" stroke="midnightblue" d="M274.209,-168.5C219.381,-160.88 138.549,-148.646 59.0101,-132.031"/>
<polygon fill="midnightblue" stroke="midnightblue" points="59.3215,-128.519 48.8137,-129.875 57.8734,-135.368 59.3215,-128.519"/>
</g>
<!-- Node3 -->
<g id="node3" class="node"><title>Node3</title>
<polygon fill="white" stroke="#bfbfbf" points="67,-112.5 67,-131.5 117,-131.5 117,-112.5 67,-112.5"/>
<text text-anchor="middle" x="92" y="-119.5" font-family="Helvetica,sans-Serif" font-size="10.00">fstream</text>
</g>
<!-- Node1&#45;&gt;Node3 -->
<g id="edge2" class="edge"><title>Node1&#45;&gt;Node3</title>
<path fill="none" stroke="midnightblue" d="M298.701,-168.453C256.772,-159.52 189.231,-145.017 131,-132 129.741,-131.719 128.46,-131.431 127.166,-131.139"/>
<polygon fill="midnightblue" stroke="midnightblue" points="127.691,-127.669 117.164,-128.86 126.137,-134.494 127.691,-127.669"/>
</g>
<!-- Node4 -->
<g id="node4" class="node"><title>Node4</title>
<polygon fill="white" stroke="#bfbfbf" points="345,-0.5 345,-19.5 399,-19.5 399,-0.5 345,-0.5"/>
<text text-anchor="middle" x="372" y="-7.5" font-family="Helvetica,sans-Serif" font-size="10.00">iostream</text>
</g>
<!-- Node1&#45;&gt;Node4 -->
<g id="edge3" class="edge"><title>Node1&#45;&gt;Node4</title>
<path fill="none" stroke="midnightblue" d="M303.307,-168.443C240.172,-151.66 119.469,-111.195 164,-56 185.042,-29.9184 280.708,-18.2043 334.672,-13.5922"/>
<polygon fill="midnightblue" stroke="midnightblue" points="335.191,-17.0616 344.874,-12.7623 334.623,-10.0846 335.191,-17.0616"/>
</g>
<!-- Node5 -->
<g id="node5" class="node"><title>Node5</title>
<polygon fill="white" stroke="#bfbfbf" points="761,-112.5 761,-131.5 811,-131.5 811,-112.5 761,-112.5"/>
<text text-anchor="middle" x="786" y="-119.5" font-family="Helvetica,sans-Serif" font-size="10.00">iomanip</text>
</g>
<!-- Node1&#45;&gt;Node5 -->
<g id="edge4" class="edge"><title>Node1&#45;&gt;Node5</title>
<path fill="none" stroke="midnightblue" d="M409.011,-171.784C490.557,-165.13 629.146,-152.027 747,-132 748.272,-131.784 749.564,-131.552 750.867,-131.307"/>
<polygon fill="midnightblue" stroke="midnightblue" points="751.82,-134.685 760.912,-129.244 750.412,-127.828 751.82,-134.685"/>
</g>
<!-- Node6 -->
<g id="node6" class="node"><title>Node6</title>
<polygon fill="white" stroke="#bfbfbf" points="708,-56.5 708,-75.5 752,-75.5 752,-56.5 708,-56.5"/>
<text text-anchor="middle" x="730" y="-63.5" font-family="Helvetica,sans-Serif" font-size="10.00">cmath</text>
</g>
<!-- Node1&#45;&gt;Node6 -->
<g id="edge5" class="edge"><title>Node1&#45;&gt;Node6</title>
<path fill="none" stroke="midnightblue" d="M409.246,-177.788C505.148,-177.36 670.174,-170.783 714,-132 726.9,-120.585 730.225,-100.599 730.739,-85.7931"/>
<polygon fill="midnightblue" stroke="midnightblue" points="734.239,-85.6937 730.696,-75.7088 727.239,-85.7237 734.239,-85.6937"/>
</g>
<!-- Node7 -->
<g id="node7" class="node"><title>Node7</title>
<g id="a_node7"><a xlink:href="CInterface_8h.xhtml" target="_top" xlink:title="CInterface.h">
<polygon fill="white" stroke="black" points="173.5,-56.5 173.5,-75.5 244.5,-75.5 244.5,-56.5 173.5,-56.5"/>
<text text-anchor="middle" x="209" y="-63.5" font-family="Helvetica,sans-Serif" font-size="10.00">CInterface.h</text>
</a>
</g>
</g>
<!-- Node1&#45;&gt;Node7 -->
<g id="edge6" class="edge"><title>Node1&#45;&gt;Node7</title>
<path fill="none" stroke="midnightblue" d="M324.783,-168.44C311.017,-159.895 289.818,-146.045 273,-132 254.679,-116.7 235.747,-96.8855 223.274,-83.1753"/>
<polygon fill="midnightblue" stroke="midnightblue" points="225.69,-80.6269 216.406,-75.5225 220.48,-85.3025 225.69,-80.6269"/>
</g>
<!-- Node8 -->
<g id="node8" class="node"><title>Node8</title>
<g id="a_node8"><a xlink:href="CFuncaoAdsorcao__Celso_8h.xhtml" target="_top" xlink:title="CFuncaoAdsorcao_Celso.h">
<polygon fill="white" stroke="black" points="413.5,-112.5 413.5,-131.5 550.5,-131.5 550.5,-112.5 413.5,-112.5"/>
<text text-anchor="middle" x="482" y="-119.5" font-family="Helvetica,sans-Serif" font-size="10.00">CFuncaoAdsorcao_Celso.h</text>
</a>
</g>
</g>
<!-- Node1&#45;&gt;Node8 -->
<g id="edge8" class="edge"><title>Node1&#45;&gt;Node8</title>
<path fill="none" stroke="midnightblue" d="M361.659,-168.444C385.402,-159.478 422.909,-145.314 449.738,-135.183"/>
<polygon fill="midnightblue" stroke="midnightblue" points="451.329,-138.324 459.447,-131.516 448.856,-131.775 451.329,-138.324"/>
</g>
<!-- Node10 -->
<g id="node10" class="node"><title>Node10</title>
<g id="a_node10"><a xlink:href="CFuncaoAdsorcao__Pablo_8h.xhtml" target="_top" xlink:title="CFuncaoAdsorcao_Pablo.h">
<polygon fill="white" stroke="black" points="569,-112.5 569,-131.5 705,-131.5 705,-112.5 569,-112.5"/>
<text text-anchor="middle" x="637" y="-119.5" font-family="Helvetica,sans-Serif" font-size="10.00">CFuncaoAdsorcao_Pablo.h</text>
</a>
</g>
</g>
<!-- Node1&#45;&gt;Node10 -->
<g id="edge12" class="edge"><title>Node1&#45;&gt;Node10</title>
<path fill="none" stroke="midnightblue" d="M386.219,-168.444C438.749,-158.925 523.61,-143.547 579.848,-133.356"/>
<polygon fill="midnightblue" stroke="midnightblue" points="580.786,-136.743 590.002,-131.516 579.538,-129.856 580.786,-136.743"/>
</g>
<!-- Node11 -->
<g id="node11" class="node"><title>Node11</title>
<g id="a_node11"><a xlink:href="CMeioPoroso__Telha_8h.xhtml" target="_top" xlink:title="CMeioPoroso_Telha.h">
<polygon fill="white" stroke="black" points="282.5,-112.5 282.5,-131.5 395.5,-131.5 395.5,-112.5 282.5,-112.5"/>
<text text-anchor="middle" x="339" y="-119.5" font-family="Helvetica,sans-Serif" font-size="10.00">CMeioPoroso_Telha.h</text>
</a>
</g>
</g>
<!-- Node1&#45;&gt;Node11 -->
<g id="edge15" class="edge"><title>Node1&#45;&gt;Node11</title>
<path fill="none" stroke="midnightblue" d="M339,-168.083C339,-161.006 339,-150.861 339,-141.986"/>
<polygon fill="midnightblue" stroke="midnightblue" points="342.5,-141.751 339,-131.751 335.5,-141.751 342.5,-141.751"/>
</g>
<!-- Node7&#45;&gt;Node4 -->
<g id="edge7" class="edge"><title>Node7&#45;&gt;Node4</title>
<path fill="none" stroke="midnightblue" d="M234.828,-56.4435C262.249,-47.3591 305.777,-32.9388 336.432,-22.7831"/>
<polygon fill="midnightblue" stroke="midnightblue" points="337.901,-25.9837 346.293,-19.5164 335.7,-19.3389 337.901,-25.9837"/>
</g>
<!-- Node8&#45;&gt;Node6 -->
<g id="edge9" class="edge"><title>Node8&#45;&gt;Node6</title>
<path fill="none" stroke="midnightblue" d="M528.378,-112.47C570.323,-104.512 633.971,-91.8326 697.866,-76.1388"/>
<polygon fill="midnightblue" stroke="midnightblue" points="698.842,-79.5029 707.705,-73.6983 697.157,-72.7087 698.842,-79.5029"/>
</g>
<!-- Node9 -->
<g id="node9" class="node"><title>Node9</title>
<g id="a_node9"><a xlink:href="CFuncaoAdsorcao_8h.xhtml" target="_top" xlink:title="CFuncaoAdsorcao.h">
<polygon fill="white" stroke="black" points="584,-56.5 584,-75.5 690,-75.5 690,-56.5 584,-56.5"/>
<text text-anchor="middle" x="637" y="-63.5" font-family="Helvetica,sans-Serif" font-size="10.00">CFuncaoAdsorcao.h</text>
</a>
</g>
</g>
<!-- Node8&#45;&gt;Node9 -->
<g id="edge10" class="edge"><title>Node8&#45;&gt;Node9</title>
<path fill="none" stroke="midnightblue" d="M506.56,-112.444C532.523,-103.399 573.668,-89.064 602.797,-78.9158"/>
<polygon fill="midnightblue" stroke="midnightblue" points="604.263,-82.1116 612.555,-75.5164 601.96,-75.5013 604.263,-82.1116"/>
</g>
<!-- Node9&#45;&gt;Node4 -->
<g id="edge11" class="edge"><title>Node9&#45;&gt;Node4</title>
<path fill="none" stroke="midnightblue" d="M595.01,-56.4435C543.779,-46.0041 457.969,-28.5183 409.077,-18.5553"/>
<polygon fill="midnightblue" stroke="midnightblue" points="409.728,-15.116 399.23,-16.5488 408.33,-21.9751 409.728,-15.116"/>
</g>
<!-- Node10&#45;&gt;Node6 -->
<g id="edge13" class="edge"><title>Node10&#45;&gt;Node6</title>
<path fill="none" stroke="midnightblue" d="M651.942,-112.324C666.585,-103.822 689.134,-90.7288 706.238,-80.7975"/>
<polygon fill="midnightblue" stroke="midnightblue" points="708.205,-83.7027 715.095,-75.6545 704.69,-77.6491 708.205,-83.7027"/>
</g>
<!-- Node10&#45;&gt;Node9 -->
<g id="edge14" class="edge"><title>Node10&#45;&gt;Node9</title>
<path fill="none" stroke="midnightblue" d="M637,-112.083C637,-105.006 637,-94.8611 637,-85.9865"/>
<polygon fill="midnightblue" stroke="midnightblue" points="640.5,-85.751 637,-75.7511 633.5,-85.7511 640.5,-85.751"/>
</g>
<!-- Node11&#45;&gt;Node4 -->
<g id="edge16" class="edge"><title>Node11&#45;&gt;Node4</title>
<path fill="none" stroke="midnightblue" d="M357.984,-112.398C371.886,-104.954 389.714,-92.741 398,-76 405.961,-59.9161 396.089,-40.762 386.307,-27.4301"/>
<polygon fill="midnightblue" stroke="midnightblue" points="389.044,-25.2486 380.08,-19.6007 383.565,-29.6058 389.044,-25.2486"/>
</g>
<!-- Node11&#45;&gt;Node9 -->
<g id="edge21" class="edge"><title>Node11&#45;&gt;Node9</title>
<path fill="none" stroke="midnightblue" d="M386.219,-112.444C438.749,-102.925 523.61,-87.5472 579.848,-77.3563"/>
<polygon fill="midnightblue" stroke="midnightblue" points="580.786,-80.7435 590.002,-75.5164 579.538,-73.8556 580.786,-80.7435"/>
</g>
<!-- Node12 -->
<g id="node12" class="node"><title>Node12</title>
<g id="a_node12"><a xlink:href="CFuncaoDifusividade_8h.xhtml" target="_top" xlink:title="CFuncaoDifusividade.h">
<polygon fill="white" stroke="black" points="446.5,-56.5 446.5,-75.5 565.5,-75.5 565.5,-56.5 446.5,-56.5"/>
<text text-anchor="middle" x="506" y="-63.5" font-family="Helvetica,sans-Serif" font-size="10.00">CFuncaoDifusividade.h</text>
</a>
</g>
</g>
<!-- Node11&#45;&gt;Node12 -->
<g id="edge17" class="edge"><title>Node11&#45;&gt;Node12</title>
<path fill="none" stroke="midnightblue" d="M365.462,-112.444C393.678,-103.32 438.54,-88.8133 469.968,-78.6509"/>
<polygon fill="midnightblue" stroke="midnightblue" points="471.224,-81.9234 479.662,-75.5164 469.07,-75.263 471.224,-81.9234"/>
</g>
<!-- Node13 -->
<g id="node13" class="node"><title>Node13</title>
<g id="a_node13"><a xlink:href="CFuncaoCondutividade_8h.xhtml" target="_top" xlink:title="CFuncaoCondutividade.h">
<polygon fill="white" stroke="black" points="262.5,-56.5 262.5,-75.5 389.5,-75.5 389.5,-56.5 262.5,-56.5"/>
<text text-anchor="middle" x="326" y="-63.5" font-family="Helvetica,sans-Serif" font-size="10.00">CFuncaoCondutividade.h</text>
</a>
</g>
</g>
<!-- Node11&#45;&gt;Node13 -->
<g id="edge19" class="edge"><title>Node11&#45;&gt;Node13</title>
<path fill="none" stroke="midnightblue" d="M336.853,-112.083C335.131,-104.927 332.653,-94.6353 330.5,-85.6911"/>
<polygon fill="midnightblue" stroke="midnightblue" points="333.85,-84.6541 328.107,-75.7511 327.045,-86.2925 333.85,-84.6541"/>
</g>
<!-- Node12&#45;&gt;Node4 -->
<g id="edge18" class="edge"><title>Node12&#45;&gt;Node4</title>
<path fill="none" stroke="midnightblue" d="M484.767,-56.4435C462.616,-47.5171 427.681,-33.4387 402.564,-23.3168"/>
<polygon fill="midnightblue" stroke="midnightblue" points="403.717,-20.0079 393.133,-19.5164 401.1,-26.5006 403.717,-20.0079"/>
</g>
<!-- Node13&#45;&gt;Node4 -->
<g id="edge20" class="edge"><title>Node13&#45;&gt;Node4</title>
<path fill="none" stroke="midnightblue" d="M333.596,-56.083C340.227,-48.2982 350.021,-36.8015 358.058,-27.3665"/>
<polygon fill="midnightblue" stroke="midnightblue" points="360.725,-29.6332 364.545,-19.7511 355.396,-25.0939 360.725,-29.6332"/>
</g>
</g>
</svg>
