<?xml version="1.0" encoding="UTF-8" standalone="no"?>
<!DOCTYPE svg PUBLIC "-//W3C//DTD SVG 1.1//EN"
 "http://www.w3.org/Graphics/SVG/1.1/DTD/svg11.dtd">
<!-- Generated by graphviz version 2.34.0 (20140110.0949)
 -->
<!-- Title: src/CSimulador_Telha_GanhosEnergia.cpp Pages: 1 -->
<!--zoomable 388 -->
<svg id="main" version="1.1" xmlns="http://www.w3.org/2000/svg" xmlns:xlink="http://www.w3.org/1999/xlink" xml:space="preserve" onload="init(evt)">
<style type="text/css"><![CDATA[
.edge:hover path { stroke: red; }
.edge:hover polygon { stroke: red; fill: red; }
]]></style>
<script type="text/javascript"><![CDATA[
var edges = document.getElementsByTagName('g');
if (edges && edges.length) {
  for (var i=0;i<edges.length;i++) {
    if (edges[i].id.substr(0,4)=='edge') {
      edges[i].setAttribute('class','edge');
    }
  }
}
]]></script>
        <defs>
                <circle id="rim" cx="0" cy="0" r="7"/>
                <circle id="rim2" cx="0" cy="0" r="3.5"/>
                <g id="zoomPlus">
                        <use xlink:href="#rim" fill="#404040">
                                <set attributeName="fill" to="#808080" begin="zoomplus.mouseover" end="zoomplus.mouseout"/>
                        </use>
                        <path d="M-4,0h8M0,-4v8" fill="none" stroke="white" stroke-width="1.5" pointer-events="none"/>
                </g>
                <g id="zoomMin">
                        <use xlink:href="#rim" fill="#404040">
                                <set attributeName="fill" to="#808080" begin="zoomminus.mouseover" end="zoomminus.mouseout"/>
                        </use>
                        <path d="M-4,0h8" fill="none" stroke="white" stroke-width="1.5" pointer-events="none"/>
                </g>
                <g id="dirArrow">
                        <path fill="none" stroke="white" stroke-width="1.5" d="M0,-3.0v7 M-2.5,-0.5L0,-3.0L2.5,-0.5"/>
                </g>
               <g id="resetDef">
                       <use xlink:href="#rim2" fill="#404040">
                               <set attributeName="fill" to="#808080" begin="reset.mouseover" end="reset.mouseout"/>
                       </use>
               </g>
        </defs>

<script type="text/javascript">
var viewWidth = 1238;
var viewHeight = 388;
var sectionId = 'dynsection-0';
</script>
<script xlink:href="svgpan.js"/>
<svg id="graph" class="graph">
<g id="viewport">
<title>src/CSimulador_Telha_GanhosEnergia.cpp</title>
<polygon fill="white" stroke="white" points="-4,4 -4,-384 1234,-384 1234,4 -4,4"/>
<!-- Node1 -->
<g id="node1" class="node"><title>Node1</title>
<polygon fill="#bfbfbf" stroke="black" points="146.5,-349 146.5,-379 259.5,-379 259.5,-349 146.5,-349"/>
<text text-anchor="start" x="154.5" y="-367" font-family="Helvetica,sans-Serif" font-size="10.00">src/CSimulador_Telha</text>
<text text-anchor="middle" x="203" y="-356" font-family="Helvetica,sans-Serif" font-size="10.00">_GanhosEnergia.cpp</text>
</g>
<!-- Node2 -->
<g id="node2" class="node"><title>Node2</title>
<polygon fill="white" stroke="#bfbfbf" points="-0.5,-292.5 -0.5,-311.5 48.5,-311.5 48.5,-292.5 -0.5,-292.5"/>
<text text-anchor="middle" x="24" y="-299.5" font-family="Helvetica,sans-Serif" font-size="10.00">cassert</text>
</g>
<!-- Node1&#45;&gt;Node2 -->
<g id="edge1" class="edge"><title>Node1&#45;&gt;Node2</title>
<path fill="none" stroke="midnightblue" d="M161.032,-348.933C129.789,-338.46 87.6594,-324.338 58.396,-314.529"/>
<polygon fill="midnightblue" stroke="midnightblue" points="59.2146,-311.112 48.6207,-311.253 56.9898,-317.75 59.2146,-311.112"/>
</g>
<!-- Node3 -->
<g id="node3" class="node"><title>Node3</title>
<polygon fill="white" stroke="#bfbfbf" points="67,-292.5 67,-311.5 117,-311.5 117,-292.5 67,-292.5"/>
<text text-anchor="middle" x="92" y="-299.5" font-family="Helvetica,sans-Serif" font-size="10.00">fstream</text>
</g>
<!-- Node1&#45;&gt;Node3 -->
<g id="edge2" class="edge"><title>Node1&#45;&gt;Node3</title>
<path fill="none" stroke="midnightblue" d="M176.975,-348.933C158.917,-339.171 134.994,-326.24 117.133,-316.586"/>
<polygon fill="midnightblue" stroke="midnightblue" points="118.371,-313.276 107.91,-311.6 115.043,-319.434 118.371,-313.276"/>
</g>
<!-- Node4 -->
<g id="node4" class="node"><title>Node4</title>
<polygon fill="white" stroke="#bfbfbf" points="677,-0.5 677,-19.5 731,-19.5 731,-0.5 677,-0.5"/>
<text text-anchor="middle" x="704" y="-7.5" font-family="Helvetica,sans-Serif" font-size="10.00">iostream</text>
</g>
<!-- Node1&#45;&gt;Node4 -->
<g id="edge3" class="edge"><title>Node1&#45;&gt;Node4</title>
<path fill="none" stroke="midnightblue" d="M189.839,-348.803C181.426,-339.073 170.847,-325.525 164,-312 150.406,-285.147 145,-277.098 145,-247 145,-247 145,-247 145,-121 145,-81.3821 170.389,-73.3616 206,-56 287.205,-16.41 565.549,-11.4499 666.797,-10.9791"/>
<polygon fill="midnightblue" stroke="midnightblue" points="666.877,-14.479 676.865,-10.9447 666.853,-7.47899 666.877,-14.479"/>
</g>
<!-- Node5 -->
<g id="node5" class="node"><title>Node5</title>
<polygon fill="white" stroke="#bfbfbf" points="369,-292.5 369,-311.5 419,-311.5 419,-292.5 369,-292.5"/>
<text text-anchor="middle" x="394" y="-299.5" font-family="Helvetica,sans-Serif" font-size="10.00">iomanip</text>
</g>
<!-- Node1&#45;&gt;Node5 -->
<g id="edge4" class="edge"><title>Node1&#45;&gt;Node5</title>
<path fill="none" stroke="midnightblue" d="M247.781,-348.933C281.808,-338.244 327.936,-323.753 359.217,-313.927"/>
<polygon fill="midnightblue" stroke="midnightblue" points="360.325,-317.247 368.817,-310.911 358.227,-310.569 360.325,-317.247"/>
</g>
<!-- Node6 -->
<g id="node6" class="node"><title>Node6</title>
<polygon fill="white" stroke="#bfbfbf" points="437,-292.5 437,-311.5 481,-311.5 481,-292.5 437,-292.5"/>
<text text-anchor="middle" x="459" y="-299.5" font-family="Helvetica,sans-Serif" font-size="10.00">cmath</text>
</g>
<!-- Node1&#45;&gt;Node6 -->
<g id="edge5" class="edge"><title>Node1&#45;&gt;Node6</title>
<path fill="none" stroke="midnightblue" d="M259.63,-351.143C302.948,-341.85 364.368,-328.196 426.686,-312.231"/>
<polygon fill="midnightblue" stroke="midnightblue" points="427.884,-315.536 436.693,-309.649 426.135,-308.758 427.884,-315.536"/>
</g>
<!-- Node7 -->
<g id="node7" class="node"><title>Node7</title>
<g id="a_node7"><a xlink:href="CSimulador__Telha__GanhosEnergia_8h.xhtml" target="_top" xlink:title="CSimulador_Telha_GanhosEnergia.h">
<polygon fill="white" stroke="black" points="173.5,-292.5 173.5,-311.5 350.5,-311.5 350.5,-292.5 173.5,-292.5"/>
<text text-anchor="middle" x="262" y="-299.5" font-family="Helvetica,sans-Serif" font-size="10.00">CSimulador_Telha_GanhosEnergia.h</text>
</a>
</g>
</g>
<!-- Node1&#45;&gt;Node7 -->
<g id="edge6" class="edge"><title>Node1&#45;&gt;Node7</title>
<path fill="none" stroke="midnightblue" d="M216.982,-348.781C225.821,-339.792 237.257,-328.162 246.391,-318.873"/>
<polygon fill="midnightblue" stroke="midnightblue" points="248.899,-321.315 253.415,-311.731 243.908,-316.407 248.899,-321.315"/>
</g>
<!-- Node7&#45;&gt;Node4 -->
<g id="edge7" class="edge"><title>Node7&#45;&gt;Node4</title>
<path fill="none" stroke="midnightblue" d="M350.672,-292.835C353.82,-292.552 356.937,-292.273 360,-292 457.011,-283.358 1230,-282.395 1230,-185 1230,-185 1230,-185 1230,-121 1230,-21.0425 861.464,-11.3519 741.352,-10.848"/>
<polygon fill="midnightblue" stroke="midnightblue" points="741.18,-7.34772 731.172,-10.8253 741.165,-14.3477 741.18,-7.34772"/>
</g>
<!-- Node8 -->
<g id="node8" class="node"><title>Node8</title>
<g id="a_node8"><a xlink:href="CSimulador__Telha_8h.xhtml" target="_top" xlink:title="CSimulador_Telha.h">
<polygon fill="white" stroke="black" points="663.5,-236.5 663.5,-255.5 768.5,-255.5 768.5,-236.5 663.5,-236.5"/>
<text text-anchor="middle" x="716" y="-243.5" font-family="Helvetica,sans-Serif" font-size="10.00">CSimulador_Telha.h</text>
</a>
</g>
</g>
<!-- Node7&#45;&gt;Node8 -->
<g id="edge8" class="edge"><title>Node7&#45;&gt;Node8</title>
<path fill="none" stroke="midnightblue" d="M333.687,-292.473C421.718,-282.003 569.618,-264.411 653.315,-254.456"/>
<polygon fill="midnightblue" stroke="midnightblue" points="653.927,-257.908 663.444,-253.251 653.1,-250.957 653.927,-257.908"/>
</g>
<!-- Node8&#45;&gt;Node4 -->
<g id="edge9" class="edge"><title>Node8&#45;&gt;Node4</title>
<path fill="none" stroke="midnightblue" d="M768.622,-244.109C835.975,-241.591 955.491,-232.448 1052,-200 1114.69,-178.923 1205.56,-168.988 1172,-112 1145.95,-67.7736 1119.82,-71.8596 1071,-56 954.808,-18.2505 808.541,-11.7583 741.134,-10.9118"/>
<polygon fill="midnightblue" stroke="midnightblue" points="741.04,-7.41093 731.009,-10.8205 740.977,-14.4106 741.04,-7.41093"/>
</g>
<!-- Node9 -->
<g id="node9" class="node"><title>Node9</title>
<polygon fill="white" stroke="#bfbfbf" points="883,-112.5 883,-131.5 927,-131.5 927,-112.5 883,-112.5"/>
<text text-anchor="middle" x="905" y="-119.5" font-family="Helvetica,sans-Serif" font-size="10.00">vector</text>
</g>
<!-- Node8&#45;&gt;Node9 -->
<g id="edge10" class="edge"><title>Node8&#45;&gt;Node9</title>
<path fill="none" stroke="midnightblue" d="M768.801,-240.926C801.597,-235.894 842.741,-224.724 871,-200 888.322,-184.845 897.199,-159.192 901.466,-141.695"/>
<polygon fill="midnightblue" stroke="midnightblue" points="904.964,-142.08 903.647,-131.567 898.12,-140.607 904.964,-142.08"/>
</g>
<!-- Node10 -->
<g id="node10" class="node"><title>Node10</title>
<g id="a_node10"><a xlink:href="CMeioPoroso__Telha__Discretizada__TDMA_8h.xhtml" target="_top" xlink:title="CMeioPoroso_Telha_Discretizada\l_TDMA.h">
<polygon fill="white" stroke="black" points="173.5,-169 173.5,-199 338.5,-199 338.5,-169 173.5,-169"/>
<text text-anchor="start" x="181.5" y="-187" font-family="Helvetica,sans-Serif" font-size="10.00">CMeioPoroso_Telha_Discretizada</text>
<text text-anchor="middle" x="256" y="-176" font-family="Helvetica,sans-Serif" font-size="10.00">_TDMA.h</text>
</a>
</g>
</g>
<!-- Node8&#45;&gt;Node10 -->
<g id="edge11" class="edge"><title>Node8&#45;&gt;Node10</title>
<path fill="none" stroke="midnightblue" d="M663.199,-239.214C593.611,-231.44 467.144,-216.799 348.697,-200.064"/>
<polygon fill="midnightblue" stroke="midnightblue" points="349.121,-196.59 338.728,-198.648 348.136,-203.52 349.121,-196.59"/>
</g>
<!-- Node16 -->
<g id="node16" class="node"><title>Node16</title>
<g id="a_node16"><a xlink:href="CTransferenciaCalorMassa_8h.xhtml" target="_top" xlink:title="CTransferenciaCalorMassa.h">
<polygon fill="white" stroke="black" points="732,-56.5 732,-75.5 876,-75.5 876,-56.5 732,-56.5"/>
<text text-anchor="middle" x="804" y="-63.5" font-family="Helvetica,sans-Serif" font-size="10.00">CTransferenciaCalorMassa.h</text>
</a>
</g>
</g>
<!-- Node8&#45;&gt;Node16 -->
<g id="edge23" class="edge"><title>Node8&#45;&gt;Node16</title>
<path fill="none" stroke="midnightblue" d="M693.212,-236.471C677.674,-229.316 658.293,-217.435 649,-200 630.604,-165.485 625.514,-143.274 649,-112 660.353,-96.8823 702.804,-85.1989 740.414,-77.5297"/>
<polygon fill="midnightblue" stroke="midnightblue" points="741.221,-80.9381 750.355,-75.5703 739.867,-74.0702 741.221,-80.9381"/>
</g>
<!-- Node17 -->
<g id="node17" class="node"><title>Node17</title>
<g id="a_node17"><a xlink:href="CSolver__TDMA_8h.xhtml" target="_top" xlink:title="CSolver_TDMA.h">
<polygon fill="white" stroke="black" points="357,-174.5 357,-193.5 451,-193.5 451,-174.5 357,-174.5"/>
<text text-anchor="middle" x="404" y="-181.5" font-family="Helvetica,sans-Serif" font-size="10.00">CSolver_TDMA.h</text>
</a>
</g>
</g>
<!-- Node8&#45;&gt;Node17 -->
<g id="edge25" class="edge"><title>Node8&#45;&gt;Node17</title>
<path fill="none" stroke="midnightblue" d="M671.629,-236.467C615.489,-225.671 518.845,-207.086 458.341,-195.45"/>
<polygon fill="midnightblue" stroke="midnightblue" points="458.699,-191.955 448.218,-193.503 457.377,-198.829 458.699,-191.955"/>
</g>
<!-- Node18 -->
<g id="node18" class="node"><title>Node18</title>
<g id="a_node18"><a xlink:href="CFuncoesClima_8h.xhtml" target="_top" xlink:title="CFuncoesClima.h">
<polygon fill="white" stroke="black" points="894.5,-56.5 894.5,-75.5 989.5,-75.5 989.5,-56.5 894.5,-56.5"/>
<text text-anchor="middle" x="942" y="-63.5" font-family="Helvetica,sans-Serif" font-size="10.00">CFuncoesClima.h</text>
</a>
</g>
</g>
<!-- Node8&#45;&gt;Node18 -->
<g id="edge28" class="edge"><title>Node8&#45;&gt;Node18</title>
<path fill="none" stroke="midnightblue" d="M706.949,-236.153C693.111,-221.51 669.635,-191.52 683,-168 707.026,-125.72 732.243,-131.016 777,-112 812.91,-96.7424 855.429,-85.2917 888.311,-77.7598"/>
<polygon fill="midnightblue" stroke="midnightblue" points="889.194,-81.1488 898.188,-75.5483 887.665,-74.3179 889.194,-81.1488"/>
</g>
<!-- Node19 -->
<g id="node19" class="node"><title>Node19</title>
<g id="a_node19"><a xlink:href="CFluido_8h.xhtml" target="_top" xlink:title="CFluido.h">
<polygon fill="white" stroke="black" points="805.5,-112.5 805.5,-131.5 864.5,-131.5 864.5,-112.5 805.5,-112.5"/>
<text text-anchor="middle" x="835" y="-119.5" font-family="Helvetica,sans-Serif" font-size="10.00">CFluido.h</text>
</a>
</g>
</g>
<!-- Node8&#45;&gt;Node19 -->
<g id="edge30" class="edge"><title>Node8&#45;&gt;Node19</title>
<path fill="none" stroke="midnightblue" d="M768.729,-242.562C799.24,-238.11 835.38,-226.974 855,-200 867.768,-182.446 857.322,-157.426 847.353,-140.722"/>
<polygon fill="midnightblue" stroke="midnightblue" points="850.073,-138.481 841.717,-131.968 844.187,-142.27 850.073,-138.481"/>
</g>
<!-- Node20 -->
<g id="node20" class="node"><title>Node20</title>
<g id="a_node20"><a xlink:href="CFuncaoConteudoMassicoWl_8h.xhtml" target="_top" xlink:title="CFuncaoConteudoMassicoWl.h">
<polygon fill="white" stroke="black" points="691.5,-174.5 691.5,-193.5 846.5,-193.5 846.5,-174.5 691.5,-174.5"/>
<text text-anchor="middle" x="769" y="-181.5" font-family="Helvetica,sans-Serif" font-size="10.00">CFuncaoConteudoMassicoWl.h</text>
</a>
</g>
</g>
<!-- Node8&#45;&gt;Node20 -->
<g id="edge32" class="edge"><title>Node8&#45;&gt;Node20</title>
<path fill="none" stroke="midnightblue" d="M723.594,-236.403C731.701,-227.225 744.735,-212.47 754.763,-201.117"/>
<polygon fill="midnightblue" stroke="midnightblue" points="757.423,-203.392 761.42,-193.581 752.177,-198.758 757.423,-203.392"/>
</g>
<!-- Node21 -->
<g id="node21" class="node"><title>Node21</title>
<g id="a_node21"><a xlink:href="CGnuplot_8h.xhtml" target="_top" xlink:title="CGnuplot.h">
<polygon fill="white" stroke="black" points="977,-174.5 977,-193.5 1043,-193.5 1043,-174.5 977,-174.5"/>
<text text-anchor="middle" x="1010" y="-181.5" font-family="Helvetica,sans-Serif" font-size="10.00">CGnuplot.h</text>
</a>
</g>
</g>
<!-- Node8&#45;&gt;Node21 -->
<g id="edge36" class="edge"><title>Node8&#45;&gt;Node21</title>
<path fill="none" stroke="midnightblue" d="M757.811,-236.467C813.329,-225.137 910.884,-205.228 966.997,-193.776"/>
<polygon fill="midnightblue" stroke="midnightblue" points="967.875,-197.169 976.973,-191.74 966.475,-190.311 967.875,-197.169"/>
</g>
<!-- Node10&#45;&gt;Node4 -->
<g id="edge12" class="edge"><title>Node10&#45;&gt;Node4</title>
<path fill="none" stroke="midnightblue" d="M233.9,-168.868C222.034,-159.908 208.534,-147.158 202,-132 187.493,-98.3437 203.215,-75.8869 234,-56 270.071,-32.6984 562.014,-17.3923 666.762,-12.6053"/>
<polygon fill="midnightblue" stroke="midnightblue" points="667.042,-16.0963 676.874,-12.1494 666.726,-9.10342 667.042,-16.0963"/>
</g>
<!-- Node11 -->
<g id="node11" class="node"><title>Node11</title>
<g id="a_node11"><a xlink:href="CInterface_8h.xhtml" target="_top" xlink:title="CInterface.h">
<polygon fill="white" stroke="black" points="211.5,-112.5 211.5,-131.5 282.5,-131.5 282.5,-112.5 211.5,-112.5"/>
<text text-anchor="middle" x="247" y="-119.5" font-family="Helvetica,sans-Serif" font-size="10.00">CInterface.h</text>
</a>
</g>
</g>
<!-- Node10&#45;&gt;Node11 -->
<g id="edge13" class="edge"><title>Node10&#45;&gt;Node11</title>
<path fill="none" stroke="midnightblue" d="M253.867,-168.781C252.654,-160.691 251.119,-150.462 249.809,-141.725"/>
<polygon fill="midnightblue" stroke="midnightblue" points="253.254,-141.101 248.31,-131.731 246.332,-142.139 253.254,-141.101"/>
</g>
<!-- Node12 -->
<g id="node12" class="node"><title>Node12</title>
<g id="a_node12"><a xlink:href="CMeioPoroso__Telha_8h.xhtml" target="_top" xlink:title="CMeioPoroso_Telha.h">
<polygon fill="white" stroke="black" points="457.5,-112.5 457.5,-131.5 570.5,-131.5 570.5,-112.5 457.5,-112.5"/>
<text text-anchor="middle" x="514" y="-119.5" font-family="Helvetica,sans-Serif" font-size="10.00">CMeioPoroso_Telha.h</text>
</a>
</g>
</g>
<!-- Node10&#45;&gt;Node12 -->
<g id="edge15" class="edge"><title>Node10&#45;&gt;Node12</title>
<path fill="none" stroke="midnightblue" d="M316.49,-168.933C362.681,-158.19 425.383,-143.609 467.644,-133.78"/>
<polygon fill="midnightblue" stroke="midnightblue" points="468.448,-137.187 477.395,-131.513 466.863,-130.369 468.448,-137.187"/>
</g>
<!-- Node11&#45;&gt;Node4 -->
<g id="edge14" class="edge"><title>Node11&#45;&gt;Node4</title>
<path fill="none" stroke="midnightblue" d="M243.303,-112.119C238.184,-98.2355 231.046,-71.3892 245,-56 273.177,-24.9256 562.778,-14.5718 666.937,-11.8377"/>
<polygon fill="midnightblue" stroke="midnightblue" points="667.087,-15.3351 676.995,-11.5824 666.909,-8.33737 667.087,-15.3351"/>
</g>
<!-- Node12&#45;&gt;Node4 -->
<g id="edge16" class="edge"><title>Node12&#45;&gt;Node4</title>
<path fill="none" stroke="midnightblue" d="M569.623,-112.425C613.001,-104.663 668.556,-92.0049 685,-76 697.365,-63.965 701.797,-44.3654 703.328,-29.8305"/>
<polygon fill="midnightblue" stroke="midnightblue" points="706.844,-29.7152 704.03,-19.5008 699.86,-29.2405 706.844,-29.7152"/>
</g>
<!-- Node13 -->
<g id="node13" class="node"><title>Node13</title>
<g id="a_node13"><a xlink:href="CFuncaoDifusividade_8h.xhtml" target="_top" xlink:title="CFuncaoDifusividade.h">
<polygon fill="white" stroke="black" points="287.5,-56.5 287.5,-75.5 406.5,-75.5 406.5,-56.5 287.5,-56.5"/>
<text text-anchor="middle" x="347" y="-63.5" font-family="Helvetica,sans-Serif" font-size="10.00">CFuncaoDifusividade.h</text>
</a>
</g>
</g>
<!-- Node12&#45;&gt;Node13 -->
<g id="edge17" class="edge"><title>Node12&#45;&gt;Node13</title>
<path fill="none" stroke="midnightblue" d="M487.538,-112.444C459.322,-103.32 414.46,-88.8133 383.032,-78.6509"/>
<polygon fill="midnightblue" stroke="midnightblue" points="383.93,-75.263 373.338,-75.5164 381.776,-81.9234 383.93,-75.263"/>
</g>
<!-- Node14 -->
<g id="node14" class="node"><title>Node14</title>
<g id="a_node14"><a xlink:href="CFuncaoCondutividade_8h.xhtml" target="_top" xlink:title="CFuncaoCondutividade.h">
<polygon fill="white" stroke="black" points="424.5,-56.5 424.5,-75.5 551.5,-75.5 551.5,-56.5 424.5,-56.5"/>
<text text-anchor="middle" x="488" y="-63.5" font-family="Helvetica,sans-Serif" font-size="10.00">CFuncaoCondutividade.h</text>
</a>
</g>
</g>
<!-- Node12&#45;&gt;Node14 -->
<g id="edge19" class="edge"><title>Node12&#45;&gt;Node14</title>
<path fill="none" stroke="midnightblue" d="M509.707,-112.083C506.148,-104.691 500.978,-93.9533 496.576,-84.8111"/>
<polygon fill="midnightblue" stroke="midnightblue" points="499.705,-83.2427 492.213,-75.7511 493.398,-86.2795 499.705,-83.2427"/>
</g>
<!-- Node15 -->
<g id="node15" class="node"><title>Node15</title>
<g id="a_node15"><a xlink:href="CFuncaoAdsorcao_8h.xhtml" target="_top" xlink:title="CFuncaoAdsorcao.h">
<polygon fill="white" stroke="black" points="570,-56.5 570,-75.5 676,-75.5 676,-56.5 570,-56.5"/>
<text text-anchor="middle" x="623" y="-63.5" font-family="Helvetica,sans-Serif" font-size="10.00">CFuncaoAdsorcao.h</text>
</a>
</g>
</g>
<!-- Node12&#45;&gt;Node15 -->
<g id="edge21" class="edge"><title>Node12&#45;&gt;Node15</title>
<path fill="none" stroke="midnightblue" d="M531.513,-112.324C549.072,-103.625 576.331,-90.1202 596.531,-80.113"/>
<polygon fill="midnightblue" stroke="midnightblue" points="598.124,-83.23 605.531,-75.6545 595.016,-76.9575 598.124,-83.23"/>
</g>
<!-- Node13&#45;&gt;Node4 -->
<g id="edge18" class="edge"><title>Node13&#45;&gt;Node4</title>
<path fill="none" stroke="midnightblue" d="M403.568,-56.4435C477.167,-45.3108 603.745,-26.1647 666.487,-16.6742"/>
<polygon fill="midnightblue" stroke="midnightblue" points="667.349,-20.0837 676.713,-15.1274 666.302,-13.1625 667.349,-20.0837"/>
</g>
<!-- Node14&#45;&gt;Node4 -->
<g id="edge20" class="edge"><title>Node14&#45;&gt;Node4</title>
<path fill="none" stroke="midnightblue" d="M522.226,-56.4435C561.705,-46.5738 626.377,-30.4057 666.995,-20.2512"/>
<polygon fill="midnightblue" stroke="midnightblue" points="667.921,-23.6276 676.773,-17.8067 666.223,-16.8366 667.921,-23.6276"/>
</g>
<!-- Node15&#45;&gt;Node4 -->
<g id="edge22" class="edge"><title>Node15&#45;&gt;Node4</title>
<path fill="none" stroke="midnightblue" d="M636.014,-56.324C648.532,-47.979 667.682,-35.2122 682.471,-25.3524"/>
<polygon fill="midnightblue" stroke="midnightblue" points="684.639,-28.1137 691.018,-19.6545 680.756,-22.2894 684.639,-28.1137"/>
</g>
<!-- Node16&#45;&gt;Node4 -->
<g id="edge24" class="edge"><title>Node16&#45;&gt;Node4</title>
<path fill="none" stroke="midnightblue" d="M787.933,-56.324C772.042,-47.7428 747.493,-34.486 729.042,-24.5224"/>
<polygon fill="midnightblue" stroke="midnightblue" points="730.489,-21.3264 720.027,-19.6545 727.163,-27.4857 730.489,-21.3264"/>
</g>
<!-- Node17&#45;&gt;Node4 -->
<g id="edge26" class="edge"><title>Node17&#45;&gt;Node4</title>
<path fill="none" stroke="midnightblue" d="M386.385,-174.485C357.38,-159.348 300.537,-124.705 278,-76 274.267,-67.9329 272.054,-62.6073 278,-56 303.8,-27.3313 567.506,-15.5764 666.618,-12.1485"/>
<polygon fill="midnightblue" stroke="midnightblue" points="666.9,-15.6411 676.777,-11.8066 666.665,-8.64508 666.9,-15.6411"/>
</g>
<!-- Node17&#45;&gt;Node11 -->
<g id="edge27" class="edge"><title>Node17&#45;&gt;Node11</title>
<path fill="none" stroke="midnightblue" d="M381.506,-174.403C354.691,-164.156 309.685,-146.956 279.191,-135.302"/>
<polygon fill="midnightblue" stroke="midnightblue" points="280.043,-131.881 269.453,-131.581 277.544,-138.42 280.043,-131.881"/>
</g>
<!-- Node18&#45;&gt;Node4 -->
<g id="edge29" class="edge"><title>Node18&#45;&gt;Node4</title>
<path fill="none" stroke="midnightblue" d="M904.288,-56.4435C859.539,-46.2903 785.413,-29.4719 740.985,-19.3915"/>
<polygon fill="midnightblue" stroke="midnightblue" points="741.698,-15.9644 731.171,-17.1649 740.149,-22.7909 741.698,-15.9644"/>
</g>
<!-- Node19&#45;&gt;Node4 -->
<g id="edge31" class="edge"><title>Node19&#45;&gt;Node4</title>
<path fill="none" stroke="midnightblue" d="M864.809,-114.112C867.912,-113.398 871.02,-112.683 874,-112 946.618,-95.3482 1080.97,-112.147 1032,-56 994.654,-13.1807 819.371,-9.6595 741.473,-10.2764"/>
<polygon fill="midnightblue" stroke="midnightblue" points="741.114,-6.77992 731.152,-10.3872 741.189,-13.7795 741.114,-6.77992"/>
</g>
<!-- Node20&#45;&gt;Node4 -->
<g id="edge33" class="edge"><title>Node20&#45;&gt;Node4</title>
<path fill="none" stroke="midnightblue" d="M769.74,-174.456C771.533,-159.335 777.523,-127.951 797,-112 868.746,-53.2432 1058.41,-126.36 998,-56 965.366,-17.9905 813.296,-11.7478 741.596,-10.9525"/>
<polygon fill="midnightblue" stroke="midnightblue" points="741.244,-7.44963 731.216,-10.8695 741.188,-14.4494 741.244,-7.44963"/>
</g>
<!-- Node20&#45;&gt;Node12 -->
<g id="edge35" class="edge"><title>Node20&#45;&gt;Node12</title>
<path fill="none" stroke="midnightblue" d="M732.736,-174.467C687.326,-163.783 609.492,-145.469 559.955,-133.813"/>
<polygon fill="midnightblue" stroke="midnightblue" points="560.675,-130.387 550.139,-131.503 559.072,-137.201 560.675,-130.387"/>
</g>
<!-- Node20&#45;&gt;Node19 -->
<g id="edge34" class="edge"><title>Node20&#45;&gt;Node19</title>
<path fill="none" stroke="midnightblue" d="M778.456,-174.403C788.748,-165.047 805.416,-149.895 817.994,-138.46"/>
<polygon fill="midnightblue" stroke="midnightblue" points="820.516,-140.897 825.561,-131.581 815.808,-135.718 820.516,-140.897"/>
</g>
<!-- Node21&#45;&gt;Node4 -->
<g id="edge37" class="edge"><title>Node21&#45;&gt;Node4</title>
<path fill="none" stroke="midnightblue" d="M1028.16,-174.386C1043.55,-165.975 1064.56,-151.583 1074,-132 1086.25,-106.579 1054.03,-58.3271 1051,-56 1003.11,-19.2116 820.3,-12.4233 741.03,-11.2262"/>
<polygon fill="midnightblue" stroke="midnightblue" points="741.045,-7.72615 731,-11.0965 740.954,-14.7256 741.045,-7.72615"/>
</g>
<!-- Node21&#45;&gt;Node9 -->
<g id="edge39" class="edge"><title>Node21&#45;&gt;Node9</title>
<path fill="none" stroke="midnightblue" d="M994.956,-174.403C977.725,-164.557 949.26,-148.291 928.966,-136.695"/>
<polygon fill="midnightblue" stroke="midnightblue" points="930.435,-133.503 920.016,-131.581 926.962,-139.581 930.435,-133.503"/>
</g>
<!-- Node22 -->
<g id="node22" class="node"><title>Node22</title>
<polygon fill="white" stroke="#bfbfbf" points="1122.5,-112.5 1122.5,-131.5 1163.5,-131.5 1163.5,-112.5 1122.5,-112.5"/>
<text text-anchor="middle" x="1143" y="-119.5" font-family="Helvetica,sans-Serif" font-size="10.00">string</text>
</g>
<!-- Node21&#45;&gt;Node22 -->
<g id="edge38" class="edge"><title>Node21&#45;&gt;Node22</title>
<path fill="none" stroke="midnightblue" d="M1029.06,-174.403C1051.47,-164.29 1088.91,-147.404 1114.71,-135.761"/>
<polygon fill="midnightblue" stroke="midnightblue" points="1116.3,-138.883 1123.98,-131.581 1113.43,-132.502 1116.3,-138.883"/>
</g>
<!-- Node23 -->
<g id="node23" class="node"><title>Node23</title>
<polygon fill="white" stroke="#bfbfbf" points="945.5,-112.5 945.5,-131.5 1004.5,-131.5 1004.5,-112.5 945.5,-112.5"/>
<text text-anchor="middle" x="975" y="-119.5" font-family="Helvetica,sans-Serif" font-size="10.00">stdexcept</text>
</g>
<!-- Node21&#45;&gt;Node23 -->
<g id="edge40" class="edge"><title>Node21&#45;&gt;Node23</title>
<path fill="none" stroke="midnightblue" d="M1004.99,-174.403C999.839,-165.582 991.688,-151.608 985.182,-140.455"/>
<polygon fill="midnightblue" stroke="midnightblue" points="988.067,-138.455 980.005,-131.581 982.021,-141.982 988.067,-138.455"/>
</g>
<!-- Node24 -->
<g id="node24" class="node"><title>Node24</title>
<polygon fill="white" stroke="#bfbfbf" points="1022.5,-112.5 1022.5,-131.5 1065.5,-131.5 1065.5,-112.5 1022.5,-112.5"/>
<text text-anchor="middle" x="1044" y="-119.5" font-family="Helvetica,sans-Serif" font-size="10.00">cstdio</text>
</g>
<!-- Node21&#45;&gt;Node24 -->
<g id="edge41" class="edge"><title>Node21&#45;&gt;Node24</title>
<path fill="none" stroke="midnightblue" d="M1014.87,-174.403C1019.87,-165.582 1027.79,-151.608 1034.11,-140.455"/>
<polygon fill="midnightblue" stroke="midnightblue" points="1037.25,-142.006 1039.14,-131.581 1031.16,-138.555 1037.25,-142.006"/>
</g>
</g>
</svg>
        <g id="navigator" transform="translate(0 0)" fill="#404254">
                <rect fill="#f2f5e9" fill-opacity="0.5" stroke="#606060" stroke-width=".5" x="0" y="0" width="60" height="60"/>
                <use id="zoomplus" xlink:href="#zoomPlus" x="17" y="9" onmousedown="handleZoom(evt,'in')"/>
                <use id="zoomminus" xlink:href="#zoomMin" x="42" y="9" onmousedown="handleZoom(evt,'out')"/>
                <use id="reset" xlink:href="#resetDef" x="30" y="36" onmousedown="handleReset()"/>
                <g id="arrowUp" xlink:href="#dirArrow" transform="translate(30 24)" onmousedown="handlePan(0,-1)">
                  <use xlink:href="#rim" fill="#404040">
                        <set attributeName="fill" to="#808080" begin="arrowUp.mouseover" end="arrowUp.mouseout"/>
                  </use>
                  <path fill="none" stroke="white" stroke-width="1.5" d="M0,-3.0v7 M-2.5,-0.5L0,-3.0L2.5,-0.5"/>
                </g>
                <g id="arrowRight" xlink:href="#dirArrow" transform="rotate(90) translate(36 -43)" onmousedown="handlePan(1,0)">
                  <use xlink:href="#rim" fill="#404040">
                        <set attributeName="fill" to="#808080" begin="arrowRight.mouseover" end="arrowRight.mouseout"/>
                  </use>
                  <path fill="none" stroke="white" stroke-width="1.5" d="M0,-3.0v7 M-2.5,-0.5L0,-3.0L2.5,-0.5"/>
                </g>
                <g id="arrowDown" xlink:href="#dirArrow" transform="rotate(180) translate(-30 -48)" onmousedown="handlePan(0,1)">
                  <use xlink:href="#rim" fill="#404040">
                        <set attributeName="fill" to="#808080" begin="arrowDown.mouseover" end="arrowDown.mouseout"/>
                  </use>
                  <path fill="none" stroke="white" stroke-width="1.5" d="M0,-3.0v7 M-2.5,-0.5L0,-3.0L2.5,-0.5"/>
                </g>
                <g id="arrowLeft" xlink:href="#dirArrow" transform="rotate(270) translate(-36 17)" onmousedown="handlePan(-1,0)">
                  <use xlink:href="#rim" fill="#404040">
                        <set attributeName="fill" to="#808080" begin="arrowLeft.mouseover" end="arrowLeft.mouseout"/>
                  </use>
                  <path fill="none" stroke="white" stroke-width="1.5" d="M0,-3.0v7 M-2.5,-0.5L0,-3.0L2.5,-0.5"/>
                </g>
        </g>
        <svg viewBox="0 0 15 15" width="100%" height="30px" preserveAspectRatio="xMaxYMin meet">
         <g id="arrow_out" transform="scale(0.3 0.3)">
          <a xlink:href="CSimulador__Telha__GanhosEnergia_8cpp__incl_org.svg" target="_base">
           <rect id="button" ry="5" rx="5" y="6" x="6" height="38" width="38"
                fill="#f2f5e9" fill-opacity="0.5" stroke="#606060" stroke-width="1.0"/>
           <path id="arrow"
             d="M 11.500037,31.436501 C 11.940474,20.09759 22.043105,11.32322 32.158766,21.979434 L 37.068811,17.246167 C 37.068811,17.246167 37.088388,32 37.088388,32 L 22.160133,31.978069 C 22.160133,31.978069 26.997745,27.140456 26.997745,27.140456 C 18.528582,18.264221 13.291696,25.230495 11.500037,31.436501 z"
             style="fill:#404040;"/>
          </a>
         </g>
        </svg>
</svg>
