<?xml version="1.0" encoding="UTF-8" standalone="no"?>
<!DOCTYPE svg PUBLIC "-//W3C//DTD SVG 1.1//EN"
 "http://www.w3.org/Graphics/SVG/1.1/DTD/svg11.dtd">
<!-- Generated by graphviz version 2.34.0 (20140110.0949)
 -->
<!-- Title: src/CSimulador_Telha.h Pages: 1 -->
<!--zoomable 264 -->
<svg id="main" version="1.1" xmlns="http://www.w3.org/2000/svg" xmlns:xlink="http://www.w3.org/1999/xlink" xml:space="preserve" onload="init(evt)">
<style type="text/css"><![CDATA[
.edge:hover path { stroke: red; }
.edge:hover polygon { stroke: red; fill: red; }
]]></style>
<script type="text/javascript"><![CDATA[
var edges = document.getElementsByTagName('g');
if (edges && edges.length) {
  for (var i=0;i<edges.length;i++) {
    if (edges[i].id.substr(0,4)=='edge') {
      edges[i].setAttribute('class','edge');
    }
  }
}
]]></script>
        <defs>
                <circle id="rim" cx="0" cy="0" r="7"/>
                <circle id="rim2" cx="0" cy="0" r="3.5"/>
                <g id="zoomPlus">
                        <use xlink:href="#rim" fill="#404040">
                                <set attributeName="fill" to="#808080" begin="zoomplus.mouseover" end="zoomplus.mouseout"/>
                        </use>
                        <path d="M-4,0h8M0,-4v8" fill="none" stroke="white" stroke-width="1.5" pointer-events="none"/>
                </g>
                <g id="zoomMin">
                        <use xlink:href="#rim" fill="#404040">
                                <set attributeName="fill" to="#808080" begin="zoomminus.mouseover" end="zoomminus.mouseout"/>
                        </use>
                        <path d="M-4,0h8" fill="none" stroke="white" stroke-width="1.5" pointer-events="none"/>
                </g>
                <g id="dirArrow">
                        <path fill="none" stroke="white" stroke-width="1.5" d="M0,-3.0v7 M-2.5,-0.5L0,-3.0L2.5,-0.5"/>
                </g>
               <g id="resetDef">
                       <use xlink:href="#rim2" fill="#404040">
                               <set attributeName="fill" to="#808080" begin="reset.mouseover" end="reset.mouseout"/>
                       </use>
               </g>
        </defs>

<script type="text/javascript">
var viewWidth = 1247;
var viewHeight = 264;
var sectionId = 'dynsection-0';
</script>
<script xlink:href="svgpan.js"/>
<svg id="graph" class="graph">
<g id="viewport">
<title>src/CSimulador_Telha.h</title>
<polygon fill="white" stroke="white" points="-4,4 -4,-260 1243.27,-260 1243.27,4 -4,4"/>
<!-- Node1 -->
<g id="node1" class="node"><title>Node1</title>
<polygon fill="#bfbfbf" stroke="black" points="638.274,-236.5 638.274,-255.5 760.274,-255.5 760.274,-236.5 638.274,-236.5"/>
<text text-anchor="middle" x="699.274" y="-243.5" font-family="Helvetica,sans-Serif" font-size="10.00">src/CSimulador_Telha.h</text>
</g>
<!-- Node2 -->
<g id="node2" class="node"><title>Node2</title>
<polygon fill="white" stroke="#bfbfbf" points="338.274,-0.5 338.274,-19.5 392.274,-19.5 392.274,-0.5 338.274,-0.5"/>
<text text-anchor="middle" x="365.274" y="-7.5" font-family="Helvetica,sans-Serif" font-size="10.00">iostream</text>
</g>
<!-- Node1&#45;&gt;Node2 -->
<g id="edge1" class="edge"><title>Node1&#45;&gt;Node2</title>
<path fill="none" stroke="midnightblue" d="M638.184,-245.595C479.203,-246.505 62.0002,-244.584 20.2736,-200 -15.3563,-161.931 -5.84227,-111.828 64.2736,-56 104.279,-24.1471 255.869,-14.7362 327.432,-12.0404"/>
<polygon fill="midnightblue" stroke="midnightblue" points="327.924,-15.5254 337.795,-11.6762 327.678,-8.52972 327.924,-15.5254"/>
</g>
<!-- Node3 -->
<g id="node3" class="node"><title>Node3</title>
<polygon fill="white" stroke="#bfbfbf" points="959.274,-112.5 959.274,-131.5 1003.27,-131.5 1003.27,-112.5 959.274,-112.5"/>
<text text-anchor="middle" x="981.274" y="-119.5" font-family="Helvetica,sans-Serif" font-size="10.00">vector</text>
</g>
<!-- Node1&#45;&gt;Node3 -->
<g id="edge2" class="edge"><title>Node1&#45;&gt;Node3</title>
<path fill="none" stroke="midnightblue" d="M760.47,-242.566C805.663,-238.401 867.236,-227.593 914.274,-200 939.034,-185.475 959.288,-158.498 970.823,-140.646"/>
<polygon fill="midnightblue" stroke="midnightblue" points="974.01,-142.146 976.307,-131.803 968.062,-138.457 974.01,-142.146"/>
</g>
<!-- Node4 -->
<g id="node4" class="node"><title>Node4</title>
<g id="a_node4"><a xlink:href="CMeioPoroso__Telha__Discretizada__TDMA_8h.xhtml" target="_top" xlink:title="CMeioPoroso_Telha_Discretizada\l_TDMA.h">
<polygon fill="white" stroke="black" points="29.7736,-169 29.7736,-199 194.774,-199 194.774,-169 29.7736,-169"/>
<text text-anchor="start" x="37.7736" y="-187" font-family="Helvetica,sans-Serif" font-size="10.00">CMeioPoroso_Telha_Discretizada</text>
<text text-anchor="middle" x="112.274" y="-176" font-family="Helvetica,sans-Serif" font-size="10.00">_TDMA.h</text>
</a>
</g>
</g>
<!-- Node1&#45;&gt;Node4 -->
<g id="edge3" class="edge"><title>Node1&#45;&gt;Node4</title>
<path fill="none" stroke="midnightblue" d="M638.158,-240.846C546.456,-234.304 367.605,-220.346 205.166,-200.053"/>
<polygon fill="midnightblue" stroke="midnightblue" points="205.345,-196.548 194.985,-198.77 204.469,-203.493 205.345,-196.548"/>
</g>
<!-- Node10 -->
<g id="node10" class="node"><title>Node10</title>
<g id="a_node10"><a xlink:href="CTransferenciaCalorMassa_8h.xhtml" target="_top" xlink:title="CTransferenciaCalorMassa.h">
<polygon fill="white" stroke="black" points="588.274,-56.5 588.274,-75.5 732.274,-75.5 732.274,-56.5 588.274,-56.5"/>
<text text-anchor="middle" x="660.274" y="-63.5" font-family="Helvetica,sans-Serif" font-size="10.00">CTransferenciaCalorMassa.h</text>
</a>
</g>
</g>
<!-- Node1&#45;&gt;Node10 -->
<g id="edge15" class="edge"><title>Node1&#45;&gt;Node10</title>
<path fill="none" stroke="midnightblue" d="M696.291,-236.457C693.229,-227.467 688.472,-212.863 685.274,-200 675.248,-159.682 667.145,-111.604 663.091,-85.7239"/>
<polygon fill="midnightblue" stroke="midnightblue" points="666.543,-85.1423 661.565,-75.7899 659.624,-86.2055 666.543,-85.1423"/>
</g>
<!-- Node11 -->
<g id="node11" class="node"><title>Node11</title>
<g id="a_node11"><a xlink:href="CSolver__TDMA_8h.xhtml" target="_top" xlink:title="CSolver_TDMA.h">
<polygon fill="white" stroke="black" points="213.274,-174.5 213.274,-193.5 307.274,-193.5 307.274,-174.5 213.274,-174.5"/>
<text text-anchor="middle" x="260.274" y="-181.5" font-family="Helvetica,sans-Serif" font-size="10.00">CSolver_TDMA.h</text>
</a>
</g>
</g>
<!-- Node1&#45;&gt;Node11 -->
<g id="edge17" class="edge"><title>Node1&#45;&gt;Node11</title>
<path fill="none" stroke="midnightblue" d="M638.233,-236.657C553.195,-225.035 400.216,-204.127 317.351,-192.801"/>
<polygon fill="midnightblue" stroke="midnightblue" points="317.74,-189.322 307.358,-191.435 316.792,-196.257 317.74,-189.322"/>
</g>
<!-- Node12 -->
<g id="node12" class="node"><title>Node12</title>
<g id="a_node12"><a xlink:href="CFuncoesClima_8h.xhtml" target="_top" xlink:title="CFuncoesClima.h">
<polygon fill="white" stroke="black" points="750.774,-56.5 750.774,-75.5 845.774,-75.5 845.774,-56.5 750.774,-56.5"/>
<text text-anchor="middle" x="798.274" y="-63.5" font-family="Helvetica,sans-Serif" font-size="10.00">CFuncoesClima.h</text>
</a>
</g>
</g>
<!-- Node1&#45;&gt;Node12 -->
<g id="edge20" class="edge"><title>Node1&#45;&gt;Node12</title>
<path fill="none" stroke="midnightblue" d="M700.229,-236.035C702.077,-221.223 706.998,-190.995 718.274,-168 734.745,-134.409 763.841,-101.6 782.034,-82.8885"/>
<polygon fill="midnightblue" stroke="midnightblue" points="784.757,-85.1135 789.319,-75.5509 779.79,-80.1816 784.757,-85.1135"/>
</g>
<!-- Node13 -->
<g id="node13" class="node"><title>Node13</title>
<g id="a_node13"><a xlink:href="CFluido_8h.xhtml" target="_top" xlink:title="CFluido.h">
<polygon fill="white" stroke="black" points="881.774,-112.5 881.774,-131.5 940.774,-131.5 940.774,-112.5 881.774,-112.5"/>
<text text-anchor="middle" x="911.274" y="-119.5" font-family="Helvetica,sans-Serif" font-size="10.00">CFluido.h</text>
</a>
</g>
</g>
<!-- Node1&#45;&gt;Node13 -->
<g id="edge22" class="edge"><title>Node1&#45;&gt;Node13</title>
<path fill="none" stroke="midnightblue" d="M760.343,-237.613C809.302,-230.469 872.779,-218.058 891.274,-200 906.838,-184.803 910.821,-159.16 911.582,-141.677"/>
<polygon fill="midnightblue" stroke="midnightblue" points="915.083,-141.6 911.706,-131.558 908.084,-141.514 915.083,-141.6"/>
</g>
<!-- Node14 -->
<g id="node14" class="node"><title>Node14</title>
<g id="a_node14"><a xlink:href="CFuncaoConteudoMassicoWl_8h.xhtml" target="_top" xlink:title="CFuncaoConteudoMassicoWl.h">
<polygon fill="white" stroke="black" points="727.774,-174.5 727.774,-193.5 882.774,-193.5 882.774,-174.5 727.774,-174.5"/>
<text text-anchor="middle" x="805.274" y="-181.5" font-family="Helvetica,sans-Serif" font-size="10.00">CFuncaoConteudoMassicoWl.h</text>
</a>
</g>
</g>
<!-- Node1&#45;&gt;Node14 -->
<g id="edge24" class="edge"><title>Node1&#45;&gt;Node14</title>
<path fill="none" stroke="midnightblue" d="M714.461,-236.403C731.935,-226.512 760.852,-210.144 781.357,-198.538"/>
<polygon fill="midnightblue" stroke="midnightblue" points="783.136,-201.553 790.115,-193.581 779.688,-195.461 783.136,-201.553"/>
</g>
<!-- Node15 -->
<g id="node15" class="node"><title>Node15</title>
<g id="a_node15"><a xlink:href="CGnuplot_8h.xhtml" target="_top" xlink:title="CGnuplot.h">
<polygon fill="white" stroke="black" points="1052.27,-174.5 1052.27,-193.5 1118.27,-193.5 1118.27,-174.5 1052.27,-174.5"/>
<text text-anchor="middle" x="1085.27" y="-181.5" font-family="Helvetica,sans-Serif" font-size="10.00">CGnuplot.h</text>
</a>
</g>
</g>
<!-- Node1&#45;&gt;Node15 -->
<g id="edge28" class="edge"><title>Node1&#45;&gt;Node15</title>
<path fill="none" stroke="midnightblue" d="M754.168,-236.467C831.577,-224.435 971.231,-202.727 1041.86,-191.748"/>
<polygon fill="midnightblue" stroke="midnightblue" points="1042.83,-195.14 1052.17,-190.145 1041.75,-188.223 1042.83,-195.14"/>
</g>
<!-- Node4&#45;&gt;Node2 -->
<g id="edge4" class="edge"><title>Node4&#45;&gt;Node2</title>
<path fill="none" stroke="midnightblue" d="M90.1739,-168.868C78.3073,-159.908 64.8073,-147.158 58.2736,-132 43.7662,-98.3437 60.1693,-76.903 90.2736,-56 128.104,-29.7322 261.782,-17.6454 327.808,-13.1757"/>
<polygon fill="midnightblue" stroke="midnightblue" points="328.427,-16.6429 338.178,-12.4989 327.971,-9.65772 328.427,-16.6429"/>
</g>
<!-- Node5 -->
<g id="node5" class="node"><title>Node5</title>
<g id="a_node5"><a xlink:href="CInterface_8h.xhtml" target="_top" xlink:title="CInterface.h">
<polygon fill="white" stroke="black" points="67.7736,-112.5 67.7736,-131.5 138.774,-131.5 138.774,-112.5 67.7736,-112.5"/>
<text text-anchor="middle" x="103.274" y="-119.5" font-family="Helvetica,sans-Serif" font-size="10.00">CInterface.h</text>
</a>
</g>
</g>
<!-- Node4&#45;&gt;Node5 -->
<g id="edge5" class="edge"><title>Node4&#45;&gt;Node5</title>
<path fill="none" stroke="midnightblue" d="M110.141,-168.781C108.927,-160.691 107.393,-150.462 106.082,-141.725"/>
<polygon fill="midnightblue" stroke="midnightblue" points="109.528,-141.101 104.583,-131.731 102.605,-142.139 109.528,-141.101"/>
</g>
<!-- Node6 -->
<g id="node6" class="node"><title>Node6</title>
<g id="a_node6"><a xlink:href="CMeioPoroso__Telha_8h.xhtml" target="_top" xlink:title="CMeioPoroso_Telha.h">
<polygon fill="white" stroke="black" points="264.774,-112.5 264.774,-131.5 377.774,-131.5 377.774,-112.5 264.774,-112.5"/>
<text text-anchor="middle" x="321.274" y="-119.5" font-family="Helvetica,sans-Serif" font-size="10.00">CMeioPoroso_Telha.h</text>
</a>
</g>
</g>
<!-- Node4&#45;&gt;Node6 -->
<g id="edge7" class="edge"><title>Node4&#45;&gt;Node6</title>
<path fill="none" stroke="midnightblue" d="M161.275,-168.933C198.062,-158.372 247.776,-144.1 281.975,-134.282"/>
<polygon fill="midnightblue" stroke="midnightblue" points="282.975,-137.636 291.621,-131.513 281.044,-130.908 282.975,-137.636"/>
</g>
<!-- Node5&#45;&gt;Node2 -->
<g id="edge6" class="edge"><title>Node5&#45;&gt;Node2</title>
<path fill="none" stroke="midnightblue" d="M99.7085,-112.235C94.7702,-98.509 87.8752,-71.8755 101.274,-56 129.822,-22.174 261.94,-13.7718 327.776,-11.6868"/>
<polygon fill="midnightblue" stroke="midnightblue" points="328.229,-15.1755 338.126,-11.394 328.031,-8.1783 328.229,-15.1755"/>
</g>
<!-- Node6&#45;&gt;Node2 -->
<g id="edge8" class="edge"><title>Node6&#45;&gt;Node2</title>
<path fill="none" stroke="midnightblue" d="M313.231,-112.275C302.479,-99.4969 285.908,-75.1359 296.274,-56 304.022,-41.6958 318.508,-31.2188 332.214,-23.992"/>
<polygon fill="midnightblue" stroke="midnightblue" points="334.011,-27.0103 341.485,-19.501 330.96,-20.7104 334.011,-27.0103"/>
</g>
<!-- Node7 -->
<g id="node7" class="node"><title>Node7</title>
<g id="a_node7"><a xlink:href="CFuncaoDifusividade_8h.xhtml" target="_top" xlink:title="CFuncaoDifusividade.h">
<polygon fill="white" stroke="black" points="305.774,-56.5 305.774,-75.5 424.774,-75.5 424.774,-56.5 305.774,-56.5"/>
<text text-anchor="middle" x="365.274" y="-63.5" font-family="Helvetica,sans-Serif" font-size="10.00">CFuncaoDifusividade.h</text>
</a>
</g>
</g>
<!-- Node6&#45;&gt;Node7 -->
<g id="edge9" class="edge"><title>Node6&#45;&gt;Node7</title>
<path fill="none" stroke="midnightblue" d="M328.539,-112.083C334.818,-104.377 344.061,-93.0333 351.704,-83.6531"/>
<polygon fill="midnightblue" stroke="midnightblue" points="354.54,-85.7143 358.143,-75.7511 349.113,-81.2926 354.54,-85.7143"/>
</g>
<!-- Node8 -->
<g id="node8" class="node"><title>Node8</title>
<g id="a_node8"><a xlink:href="CFuncaoCondutividade_8h.xhtml" target="_top" xlink:title="CFuncaoCondutividade.h">
<polygon fill="white" stroke="black" points="442.774,-56.5 442.774,-75.5 569.774,-75.5 569.774,-56.5 442.774,-56.5"/>
<text text-anchor="middle" x="506.274" y="-63.5" font-family="Helvetica,sans-Serif" font-size="10.00">CFuncaoCondutividade.h</text>
</a>
</g>
</g>
<!-- Node6&#45;&gt;Node8 -->
<g id="edge11" class="edge"><title>Node6&#45;&gt;Node8</title>
<path fill="none" stroke="midnightblue" d="M350.587,-112.444C382.116,-103.241 432.405,-88.5617 467.259,-78.3879"/>
<polygon fill="midnightblue" stroke="midnightblue" points="468.478,-81.6783 477.097,-75.5164 466.517,-74.9587 468.478,-81.6783"/>
</g>
<!-- Node9 -->
<g id="node9" class="node"><title>Node9</title>
<g id="a_node9"><a xlink:href="CFuncaoAdsorcao_8h.xhtml" target="_top" xlink:title="CFuncaoAdsorcao.h">
<polygon fill="white" stroke="black" points="143.274,-56.5 143.274,-75.5 249.274,-75.5 249.274,-56.5 143.274,-56.5"/>
<text text-anchor="middle" x="196.274" y="-63.5" font-family="Helvetica,sans-Serif" font-size="10.00">CFuncaoAdsorcao.h</text>
</a>
</g>
</g>
<!-- Node6&#45;&gt;Node9 -->
<g id="edge13" class="edge"><title>Node6&#45;&gt;Node9</title>
<path fill="none" stroke="midnightblue" d="M301.467,-112.444C280.987,-103.596 248.791,-89.6875 225.409,-79.5865"/>
<polygon fill="midnightblue" stroke="midnightblue" points="226.556,-76.2692 215.988,-75.5164 223.78,-82.6953 226.556,-76.2692"/>
</g>
<!-- Node7&#45;&gt;Node2 -->
<g id="edge10" class="edge"><title>Node7&#45;&gt;Node2</title>
<path fill="none" stroke="midnightblue" d="M365.274,-56.083C365.274,-49.0059 365.274,-38.8611 365.274,-29.9865"/>
<polygon fill="midnightblue" stroke="midnightblue" points="368.774,-29.751 365.274,-19.7511 361.774,-29.7511 368.774,-29.751"/>
</g>
<!-- Node8&#45;&gt;Node2 -->
<g id="edge12" class="edge"><title>Node8&#45;&gt;Node2</title>
<path fill="none" stroke="midnightblue" d="M483.932,-56.4435C460.521,-47.4776 423.538,-33.314 397.084,-23.1827"/>
<polygon fill="midnightblue" stroke="midnightblue" points="398.101,-19.8245 387.511,-19.5164 395.598,-26.3615 398.101,-19.8245"/>
</g>
<!-- Node9&#45;&gt;Node2 -->
<g id="edge14" class="edge"><title>Node9&#45;&gt;Node2</title>
<path fill="none" stroke="midnightblue" d="M223.052,-56.4435C251.607,-47.3196 297.006,-32.8133 328.811,-22.6509"/>
<polygon fill="midnightblue" stroke="midnightblue" points="330.16,-25.8941 338.62,-19.5164 328.03,-19.2262 330.16,-25.8941"/>
</g>
<!-- Node10&#45;&gt;Node2 -->
<g id="edge16" class="edge"><title>Node10&#45;&gt;Node2</title>
<path fill="none" stroke="midnightblue" d="M613.53,-56.4435C555.043,-45.7374 456.069,-27.6202 402.458,-17.8067"/>
<polygon fill="midnightblue" stroke="midnightblue" points="402.833,-14.3172 392.366,-15.9593 401.573,-21.2028 402.833,-14.3172"/>
</g>
<!-- Node11&#45;&gt;Node2 -->
<g id="edge18" class="edge"><title>Node11&#45;&gt;Node2</title>
<path fill="none" stroke="midnightblue" d="M242.659,-174.485C213.654,-159.348 156.81,-124.705 134.274,-76 130.541,-67.9329 128.621,-62.86 134.274,-56 158.417,-26.6998 269.243,-16.2255 328.174,-12.685"/>
<polygon fill="midnightblue" stroke="midnightblue" points="328.411,-16.1773 338.198,-12.1197 328.017,-9.18838 328.411,-16.1773"/>
</g>
<!-- Node11&#45;&gt;Node5 -->
<g id="edge19" class="edge"><title>Node11&#45;&gt;Node5</title>
<path fill="none" stroke="midnightblue" d="M237.779,-174.403C210.965,-164.156 165.959,-146.956 135.464,-135.302"/>
<polygon fill="midnightblue" stroke="midnightblue" points="136.317,-131.881 125.726,-131.581 133.818,-138.42 136.317,-131.881"/>
</g>
<!-- Node12&#45;&gt;Node2 -->
<g id="edge21" class="edge"><title>Node12&#45;&gt;Node2</title>
<path fill="none" stroke="midnightblue" d="M750.708,-57.353C747.517,-56.8822 744.35,-56.4268 741.274,-56 617.648,-38.8484 470.602,-22.3881 402.858,-15.0261"/>
<polygon fill="midnightblue" stroke="midnightblue" points="403.001,-11.5212 392.682,-13.924 402.247,-18.4805 403.001,-11.5212"/>
</g>
<!-- Node13&#45;&gt;Node2 -->
<g id="edge23" class="edge"><title>Node13&#45;&gt;Node2</title>
<path fill="none" stroke="midnightblue" d="M911.006,-112.133C910.047,-97.7617 905.886,-69.6204 888.274,-56 850.037,-26.4303 515.979,-14.9654 402.676,-11.9057"/>
<polygon fill="midnightblue" stroke="midnightblue" points="402.506,-8.40008 392.417,-11.6355 402.322,-15.3977 402.506,-8.40008"/>
</g>
<!-- Node14&#45;&gt;Node2 -->
<g id="edge25" class="edge"><title>Node14&#45;&gt;Node2</title>
<path fill="none" stroke="midnightblue" d="M813.906,-174.475C835.361,-152.285 887.083,-91.9672 854.274,-56 823.969,-22.7791 511.498,-13.7514 402.52,-11.6035"/>
<polygon fill="midnightblue" stroke="midnightblue" points="402.393,-8.10052 392.329,-11.4111 402.261,-15.0993 402.393,-8.10052"/>
</g>
<!-- Node14&#45;&gt;Node6 -->
<g id="edge27" class="edge"><title>Node14&#45;&gt;Node6</title>
<path fill="none" stroke="midnightblue" d="M736.699,-174.499C643.948,-163.001 479.592,-142.626 387.872,-131.256"/>
<polygon fill="midnightblue" stroke="midnightblue" points="388.225,-127.773 377.87,-130.016 387.364,-134.72 388.225,-127.773"/>
</g>
<!-- Node14&#45;&gt;Node13 -->
<g id="edge26" class="edge"><title>Node14&#45;&gt;Node13</title>
<path fill="none" stroke="midnightblue" d="M820.461,-174.403C837.935,-164.512 866.852,-148.144 887.357,-136.538"/>
<polygon fill="midnightblue" stroke="midnightblue" points="889.136,-139.553 896.115,-131.581 885.688,-133.461 889.136,-139.553"/>
</g>
<!-- Node15&#45;&gt;Node2 -->
<g id="edge29" class="edge"><title>Node15&#45;&gt;Node2</title>
<path fill="none" stroke="midnightblue" d="M1103.58,-174.39C1128.8,-161.376 1169.08,-135.695 1150.27,-112 1103.09,-52.5449 552.608,-20.4835 402.742,-12.8181"/>
<polygon fill="midnightblue" stroke="midnightblue" points="402.821,-9.31773 392.657,-12.3084 402.467,-16.3088 402.821,-9.31773"/>
</g>
<!-- Node15&#45;&gt;Node3 -->
<g id="edge31" class="edge"><title>Node15&#45;&gt;Node3</title>
<path fill="none" stroke="midnightblue" d="M1070.37,-174.403C1053.31,-164.557 1025.11,-148.291 1005.01,-136.695"/>
<polygon fill="midnightblue" stroke="midnightblue" points="1006.56,-133.546 996.147,-131.581 1003.06,-139.61 1006.56,-133.546"/>
</g>
<!-- Node16 -->
<g id="node16" class="node"><title>Node16</title>
<polygon fill="white" stroke="#bfbfbf" points="1198.77,-112.5 1198.77,-131.5 1239.77,-131.5 1239.77,-112.5 1198.77,-112.5"/>
<text text-anchor="middle" x="1219.27" y="-119.5" font-family="Helvetica,sans-Serif" font-size="10.00">string</text>
</g>
<!-- Node15&#45;&gt;Node16 -->
<g id="edge30" class="edge"><title>Node15&#45;&gt;Node16</title>
<path fill="none" stroke="midnightblue" d="M1104.47,-174.403C1127.06,-164.29 1164.77,-147.404 1190.77,-135.761"/>
<polygon fill="midnightblue" stroke="midnightblue" points="1192.41,-138.862 1200.11,-131.581 1189.55,-132.473 1192.41,-138.862"/>
</g>
<!-- Node17 -->
<g id="node17" class="node"><title>Node17</title>
<polygon fill="white" stroke="#bfbfbf" points="1021.77,-112.5 1021.77,-131.5 1080.77,-131.5 1080.77,-112.5 1021.77,-112.5"/>
<text text-anchor="middle" x="1051.27" y="-119.5" font-family="Helvetica,sans-Serif" font-size="10.00">stdexcept</text>
</g>
<!-- Node15&#45;&gt;Node17 -->
<g id="edge32" class="edge"><title>Node15&#45;&gt;Node17</title>
<path fill="none" stroke="midnightblue" d="M1080.4,-174.403C1075.4,-165.582 1067.48,-151.608 1061.16,-140.455"/>
<polygon fill="midnightblue" stroke="midnightblue" points="1064.11,-138.555 1056.14,-131.581 1058.02,-142.006 1064.11,-138.555"/>
</g>
<!-- Node18 -->
<g id="node18" class="node"><title>Node18</title>
<polygon fill="white" stroke="#bfbfbf" points="1098.77,-112.5 1098.77,-131.5 1141.77,-131.5 1141.77,-112.5 1098.77,-112.5"/>
<text text-anchor="middle" x="1120.27" y="-119.5" font-family="Helvetica,sans-Serif" font-size="10.00">cstdio</text>
</g>
<!-- Node15&#45;&gt;Node18 -->
<g id="edge33" class="edge"><title>Node15&#45;&gt;Node18</title>
<path fill="none" stroke="midnightblue" d="M1090.29,-174.403C1095.43,-165.582 1103.59,-151.608 1110.09,-140.455"/>
<polygon fill="midnightblue" stroke="midnightblue" points="1113.25,-141.982 1115.27,-131.581 1107.21,-138.455 1113.25,-141.982"/>
</g>
</g>
</svg>
        <g id="navigator" transform="translate(0 0)" fill="#404254">
                <rect fill="#f2f5e9" fill-opacity="0.5" stroke="#606060" stroke-width=".5" x="0" y="0" width="60" height="60"/>
                <use id="zoomplus" xlink:href="#zoomPlus" x="17" y="9" onmousedown="handleZoom(evt,'in')"/>
                <use id="zoomminus" xlink:href="#zoomMin" x="42" y="9" onmousedown="handleZoom(evt,'out')"/>
                <use id="reset" xlink:href="#resetDef" x="30" y="36" onmousedown="handleReset()"/>
                <g id="arrowUp" xlink:href="#dirArrow" transform="translate(30 24)" onmousedown="handlePan(0,-1)">
                  <use xlink:href="#rim" fill="#404040">
                        <set attributeName="fill" to="#808080" begin="arrowUp.mouseover" end="arrowUp.mouseout"/>
                  </use>
                  <path fill="none" stroke="white" stroke-width="1.5" d="M0,-3.0v7 M-2.5,-0.5L0,-3.0L2.5,-0.5"/>
                </g>
                <g id="arrowRight" xlink:href="#dirArrow" transform="rotate(90) translate(36 -43)" onmousedown="handlePan(1,0)">
                  <use xlink:href="#rim" fill="#404040">
                        <set attributeName="fill" to="#808080" begin="arrowRight.mouseover" end="arrowRight.mouseout"/>
                  </use>
                  <path fill="none" stroke="white" stroke-width="1.5" d="M0,-3.0v7 M-2.5,-0.5L0,-3.0L2.5,-0.5"/>
                </g>
                <g id="arrowDown" xlink:href="#dirArrow" transform="rotate(180) translate(-30 -48)" onmousedown="handlePan(0,1)">
                  <use xlink:href="#rim" fill="#404040">
                        <set attributeName="fill" to="#808080" begin="arrowDown.mouseover" end="arrowDown.mouseout"/>
                  </use>
                  <path fill="none" stroke="white" stroke-width="1.5" d="M0,-3.0v7 M-2.5,-0.5L0,-3.0L2.5,-0.5"/>
                </g>
                <g id="arrowLeft" xlink:href="#dirArrow" transform="rotate(270) translate(-36 17)" onmousedown="handlePan(-1,0)">
                  <use xlink:href="#rim" fill="#404040">
                        <set attributeName="fill" to="#808080" begin="arrowLeft.mouseover" end="arrowLeft.mouseout"/>
                  </use>
                  <path fill="none" stroke="white" stroke-width="1.5" d="M0,-3.0v7 M-2.5,-0.5L0,-3.0L2.5,-0.5"/>
                </g>
        </g>
        <svg viewBox="0 0 15 15" width="100%" height="30px" preserveAspectRatio="xMaxYMin meet">
         <g id="arrow_out" transform="scale(0.3 0.3)">
          <a xlink:href="CSimulador__Telha_8h__incl_org.svg" target="_base">
           <rect id="button" ry="5" rx="5" y="6" x="6" height="38" width="38"
                fill="#f2f5e9" fill-opacity="0.5" stroke="#606060" stroke-width="1.0"/>
           <path id="arrow"
             d="M 11.500037,31.436501 C 11.940474,20.09759 22.043105,11.32322 32.158766,21.979434 L 37.068811,17.246167 C 37.068811,17.246167 37.088388,32 37.088388,32 L 22.160133,31.978069 C 22.160133,31.978069 26.997745,27.140456 26.997745,27.140456 C 18.528582,18.264221 13.291696,25.230495 11.500037,31.436501 z"
             style="fill:#404040;"/>
          </a>
         </g>
        </svg>
</svg>
