<?xml version="1.0" encoding="UTF-8" standalone="no"?>
<!DOCTYPE svg PUBLIC "-//W3C//DTD SVG 1.1//EN"
 "http://www.w3.org/Graphics/SVG/1.1/DTD/svg11.dtd">
<!-- Generated by graphviz version 2.34.0 (20140110.0949)
 -->
<!-- Title: src/CSimulador_Telha_GanhosEnergia.h Pages: 1 -->
<svg width="326pt" height="176pt"
 viewBox="0.00 0.00 326.00 176.00" xmlns="http://www.w3.org/2000/svg" xmlns:xlink="http://www.w3.org/1999/xlink">
<g id="graph0" class="graph" transform="scale(1 1) rotate(0) translate(4 172)">
<title>src/CSimulador_Telha_GanhosEnergia.h</title>
<polygon fill="white" stroke="white" points="-4,4 -4,-172 322,-172 322,4 -4,4"/>
<!-- Node1 -->
<g id="node1" class="node"><title>Node1</title>
<polygon fill="#bfbfbf" stroke="black" points="135.5,-137 135.5,-167 248.5,-167 248.5,-137 135.5,-137"/>
<text text-anchor="start" x="143.5" y="-155" font-family="Helvetica,sans-Serif" font-size="10.00">src/CSimulador_Telha</text>
<text text-anchor="middle" x="192" y="-144" font-family="Helvetica,sans-Serif" font-size="10.00">_GanhosEnergia.h</text>
</g>
<!-- Node2 -->
<g id="node2" class="node"><title>Node2</title>
<g id="a_node2"><a xlink:href="CInterface__SimuladorTelha_8h.xhtml" target="_top" xlink:title="src/CInterface_Simulador\lTelha.h">
<polygon fill="white" stroke="black" points="59,-69 59,-99 187,-99 187,-69 59,-69"/>
<text text-anchor="start" x="67" y="-87" font-family="Helvetica,sans-Serif" font-size="10.00">src/CInterface_Simulador</text>
<text text-anchor="middle" x="123" y="-76" font-family="Helvetica,sans-Serif" font-size="10.00">Telha.h</text>
</a>
</g>
</g>
<!-- Node1&#45;&gt;Node2 -->
<g id="edge1" class="edge"><title>Node1&#45;&gt;Node2</title>
<path fill="none" stroke="midnightblue" d="M169.508,-129.485C159.157,-119.585 147.16,-108.109 137.943,-99.2931"/>
<polygon fill="midnightblue" stroke="midnightblue" points="167.382,-132.296 177.028,-136.679 172.221,-127.237 167.382,-132.296"/>
</g>
<!-- Node5 -->
<g id="node5" class="node"><title>Node5</title>
<g id="a_node5"><a xlink:href="CSimulador__Telha__GanhosEnergia_8cpp.xhtml" target="_top" xlink:title="src/CSimulador_Telha\l_GanhosEnergia.cpp">
<polygon fill="white" stroke="black" points="205.5,-69 205.5,-99 318.5,-99 318.5,-69 205.5,-69"/>
<text text-anchor="start" x="213.5" y="-87" font-family="Helvetica,sans-Serif" font-size="10.00">src/CSimulador_Telha</text>
<text text-anchor="middle" x="262" y="-76" font-family="Helvetica,sans-Serif" font-size="10.00">_GanhosEnergia.cpp</text>
</a>
</g>
</g>
<!-- Node1&#45;&gt;Node5 -->
<g id="edge4" class="edge"><title>Node1&#45;&gt;Node5</title>
<path fill="none" stroke="midnightblue" d="M214.51,-129.776C225.08,-119.81 237.399,-108.196 246.841,-99.2931"/>
<polygon fill="midnightblue" stroke="midnightblue" points="212.064,-127.272 207.189,-136.679 216.866,-132.365 212.064,-127.272"/>
</g>
<!-- Node3 -->
<g id="node3" class="node"><title>Node3</title>
<g id="a_node3"><a xlink:href="CInterface__SimuladorTelha_8cpp.xhtml" target="_top" xlink:title="src/CInterface_Simulador\lTelha.cpp">
<polygon fill="white" stroke="black" points="0,-1 0,-31 128,-31 128,-1 0,-1"/>
<text text-anchor="start" x="8" y="-19" font-family="Helvetica,sans-Serif" font-size="10.00">src/CInterface_Simulador</text>
<text text-anchor="middle" x="64" y="-8" font-family="Helvetica,sans-Serif" font-size="10.00">Telha.cpp</text>
</a>
</g>
</g>
<!-- Node2&#45;&gt;Node3 -->
<g id="edge2" class="edge"><title>Node2&#45;&gt;Node3</title>
<path fill="none" stroke="midnightblue" d="M103.507,-61.1939C94.7162,-51.3605 84.5809,-40.0228 76.7771,-31.2931"/>
<polygon fill="midnightblue" stroke="midnightblue" points="100.924,-63.5562 110.198,-68.679 106.143,-58.891 100.924,-63.5562"/>
</g>
<!-- Node4 -->
<g id="node4" class="node"><title>Node4</title>
<g id="a_node4"><a xlink:href="main_8cpp.xhtml" target="_top" xlink:title="src/main.cpp">
<polygon fill="white" stroke="black" points="146.5,-6.5 146.5,-25.5 219.5,-25.5 219.5,-6.5 146.5,-6.5"/>
<text text-anchor="middle" x="183" y="-13.5" font-family="Helvetica,sans-Serif" font-size="10.00">src/main.cpp</text>
</a>
</g>
</g>
<!-- Node2&#45;&gt;Node4 -->
<g id="edge3" class="edge"><title>Node2&#45;&gt;Node4</title>
<path fill="none" stroke="midnightblue" d="M142.849,-61.1658C153.801,-49.119 166.799,-34.8216 174.974,-25.8283"/>
<polygon fill="midnightblue" stroke="midnightblue" points="140.156,-58.9252 136.019,-68.679 145.336,-63.6339 140.156,-58.9252"/>
</g>
</g>
</svg>
