<?xml version="1.0" encoding="UTF-8" standalone="no"?>
<!DOCTYPE svg PUBLIC "-//W3C//DTD SVG 1.1//EN"
 "http://www.w3.org/Graphics/SVG/1.1/DTD/svg11.dtd">
<!-- Generated by graphviz version 2.34.0 (20140110.0949)
 -->
<!-- Title: src/CSimulador_Telha_GanhosEnergia.h Pages: 1 -->
<!--zoomable 332 -->
<svg id="main" version="1.1" xmlns="http://www.w3.org/2000/svg" xmlns:xlink="http://www.w3.org/1999/xlink" xml:space="preserve" onload="init(evt)">
<style type="text/css"><![CDATA[
.edge:hover path { stroke: red; }
.edge:hover polygon { stroke: red; fill: red; }
]]></style>
<script type="text/javascript"><![CDATA[
var edges = document.getElementsByTagName('g');
if (edges && edges.length) {
  for (var i=0;i<edges.length;i++) {
    if (edges[i].id.substr(0,4)=='edge') {
      edges[i].setAttribute('class','edge');
    }
  }
}
]]></script>
        <defs>
                <circle id="rim" cx="0" cy="0" r="7"/>
                <circle id="rim2" cx="0" cy="0" r="3.5"/>
                <g id="zoomPlus">
                        <use xlink:href="#rim" fill="#404040">
                                <set attributeName="fill" to="#808080" begin="zoomplus.mouseover" end="zoomplus.mouseout"/>
                        </use>
                        <path d="M-4,0h8M0,-4v8" fill="none" stroke="white" stroke-width="1.5" pointer-events="none"/>
                </g>
                <g id="zoomMin">
                        <use xlink:href="#rim" fill="#404040">
                                <set attributeName="fill" to="#808080" begin="zoomminus.mouseover" end="zoomminus.mouseout"/>
                        </use>
                        <path d="M-4,0h8" fill="none" stroke="white" stroke-width="1.5" pointer-events="none"/>
                </g>
                <g id="dirArrow">
                        <path fill="none" stroke="white" stroke-width="1.5" d="M0,-3.0v7 M-2.5,-0.5L0,-3.0L2.5,-0.5"/>
                </g>
               <g id="resetDef">
                       <use xlink:href="#rim2" fill="#404040">
                               <set attributeName="fill" to="#808080" begin="reset.mouseover" end="reset.mouseout"/>
                       </use>
               </g>
        </defs>

<script type="text/javascript">
var viewWidth = 1066;
var viewHeight = 332;
var sectionId = 'dynsection-0';
</script>
<script xlink:href="svgpan.js"/>
<svg id="graph" class="graph">
<g id="viewport">
<title>src/CSimulador_Telha_GanhosEnergia.h</title>
<polygon fill="white" stroke="white" points="-4,4 -4,-328 1061.99,-328 1061.99,4 -4,4"/>
<!-- Node1 -->
<g id="node1" class="node"><title>Node1</title>
<polygon fill="#bfbfbf" stroke="black" points="154.485,-293 154.485,-323 267.485,-323 267.485,-293 154.485,-293"/>
<text text-anchor="start" x="162.485" y="-311" font-family="Helvetica,sans-Serif" font-size="10.00">src/CSimulador_Telha</text>
<text text-anchor="middle" x="210.985" y="-300" font-family="Helvetica,sans-Serif" font-size="10.00">_GanhosEnergia.h</text>
</g>
<!-- Node2 -->
<g id="node2" class="node"><title>Node2</title>
<polygon fill="white" stroke="#bfbfbf" points="360.985,-0.5 360.985,-19.5 414.985,-19.5 414.985,-0.5 360.985,-0.5"/>
<text text-anchor="middle" x="387.985" y="-7.5" font-family="Helvetica,sans-Serif" font-size="10.00">iostream</text>
</g>
<!-- Node1&#45;&gt;Node2 -->
<g id="edge1" class="edge"><title>Node1&#45;&gt;Node2</title>
<path fill="none" stroke="midnightblue" d="M154.433,-298.941C92.2341,-286.511 0.985359,-256.152 0.985359,-185 0.985359,-185 0.985359,-185 0.985359,-121 0.985359,-90.9022 -2.95608,-75.4825 19.9854,-56 69.2099,-14.1972 267.375,-10.2798 350.74,-10.5393"/>
<polygon fill="midnightblue" stroke="midnightblue" points="350.767,-14.0394 360.786,-10.5929 350.805,-7.03951 350.767,-14.0394"/>
</g>
<!-- Node3 -->
<g id="node3" class="node"><title>Node3</title>
<g id="a_node3"><a xlink:href="CSimulador__Telha_8h.xhtml" target="_top" xlink:title="CSimulador_Telha.h">
<polygon fill="white" stroke="black" points="369.485,-236.5 369.485,-255.5 474.485,-255.5 474.485,-236.5 369.485,-236.5"/>
<text text-anchor="middle" x="421.985" y="-243.5" font-family="Helvetica,sans-Serif" font-size="10.00">CSimulador_Telha.h</text>
</a>
</g>
</g>
<!-- Node1&#45;&gt;Node3 -->
<g id="edge2" class="edge"><title>Node1&#45;&gt;Node3</title>
<path fill="none" stroke="midnightblue" d="M260.455,-292.933C297.595,-282.372 347.784,-268.1 382.31,-258.282"/>
<polygon fill="midnightblue" stroke="midnightblue" points="383.388,-261.614 392.049,-255.513 381.473,-254.881 383.388,-261.614"/>
</g>
<!-- Node3&#45;&gt;Node2 -->
<g id="edge3" class="edge"><title>Node3&#45;&gt;Node2</title>
<path fill="none" stroke="midnightblue" d="M474.649,-244.267C541.077,-241.901 657.979,-232.903 751.985,-200 812.398,-178.855 897.864,-167.502 865.985,-112 841.383,-69.1672 816.832,-71.6631 769.985,-56 648.603,-15.4155 494.856,-10.3771 425.242,-10.408"/>
<polygon fill="midnightblue" stroke="midnightblue" points="425.188,-6.90808 415.202,-10.4487 425.216,-13.908 425.188,-6.90808"/>
</g>
<!-- Node4 -->
<g id="node4" class="node"><title>Node4</title>
<polygon fill="white" stroke="#bfbfbf" points="576.985,-112.5 576.985,-131.5 620.985,-131.5 620.985,-112.5 576.985,-112.5"/>
<text text-anchor="middle" x="598.985" y="-119.5" font-family="Helvetica,sans-Serif" font-size="10.00">vector</text>
</g>
<!-- Node3&#45;&gt;Node4 -->
<g id="edge4" class="edge"><title>Node3&#45;&gt;Node4</title>
<path fill="none" stroke="midnightblue" d="M474.49,-239.021C521.84,-232.419 586.374,-219.994 601.985,-200 614.817,-183.565 610.913,-158.601 605.894,-141.585"/>
<polygon fill="midnightblue" stroke="midnightblue" points="609.087,-140.097 602.6,-131.72 602.448,-142.314 609.087,-140.097"/>
</g>
<!-- Node5 -->
<g id="node5" class="node"><title>Node5</title>
<g id="a_node5"><a xlink:href="CMeioPoroso__Telha__Discretizada__TDMA_8h.xhtml" target="_top" xlink:title="CMeioPoroso_Telha_Discretizada\l_TDMA.h">
<polygon fill="white" stroke="black" points="428.485,-169 428.485,-199 593.485,-199 593.485,-169 428.485,-169"/>
<text text-anchor="start" x="436.485" y="-187" font-family="Helvetica,sans-Serif" font-size="10.00">CMeioPoroso_Telha_Discretizada</text>
<text text-anchor="middle" x="510.985" y="-176" font-family="Helvetica,sans-Serif" font-size="10.00">_TDMA.h</text>
</a>
</g>
</g>
<!-- Node3&#45;&gt;Node5 -->
<g id="edge5" class="edge"><title>Node3&#45;&gt;Node5</title>
<path fill="none" stroke="midnightblue" d="M434.737,-236.403C446.903,-228.201 465.676,-215.545 481.55,-204.844"/>
<polygon fill="midnightblue" stroke="midnightblue" points="483.675,-207.633 490.01,-199.141 479.762,-201.829 483.675,-207.633"/>
</g>
<!-- Node11 -->
<g id="node11" class="node"><title>Node11</title>
<g id="a_node11"><a xlink:href="CTransferenciaCalorMassa_8h.xhtml" target="_top" xlink:title="CTransferenciaCalorMassa.h">
<polygon fill="white" stroke="black" points="913.985,-56.5 913.985,-75.5 1057.99,-75.5 1057.99,-56.5 913.985,-56.5"/>
<text text-anchor="middle" x="985.985" y="-63.5" font-family="Helvetica,sans-Serif" font-size="10.00">CTransferenciaCalorMassa.h</text>
</a>
</g>
</g>
<!-- Node3&#45;&gt;Node11 -->
<g id="edge17" class="edge"><title>Node3&#45;&gt;Node11</title>
<path fill="none" stroke="midnightblue" d="M474.85,-245.715C583.946,-246.287 829.702,-242.641 899.985,-200 943.744,-173.451 969.336,-115.194 980.044,-85.3761"/>
<polygon fill="midnightblue" stroke="midnightblue" points="983.398,-86.3831 983.322,-75.7886 976.775,-84.1185 983.398,-86.3831"/>
</g>
<!-- Node12 -->
<g id="node12" class="node"><title>Node12</title>
<g id="a_node12"><a xlink:href="CSolver__TDMA_8h.xhtml" target="_top" xlink:title="CSolver_TDMA.h">
<polygon fill="white" stroke="black" points="104.985,-174.5 104.985,-193.5 198.985,-193.5 198.985,-174.5 104.985,-174.5"/>
<text text-anchor="middle" x="151.985" y="-181.5" font-family="Helvetica,sans-Serif" font-size="10.00">CSolver_TDMA.h</text>
</a>
</g>
</g>
<!-- Node3&#45;&gt;Node12 -->
<g id="edge19" class="edge"><title>Node3&#45;&gt;Node12</title>
<path fill="none" stroke="midnightblue" d="M380.665,-236.473C338.447,-227.673 271.034,-213.383 212.985,-200 207.335,-198.697 201.4,-197.289 195.543,-195.874"/>
<polygon fill="midnightblue" stroke="midnightblue" points="196.367,-192.473 185.822,-193.506 194.71,-199.274 196.367,-192.473"/>
</g>
<!-- Node13 -->
<g id="node13" class="node"><title>Node13</title>
<g id="a_node13"><a xlink:href="CFuncoesClima_8h.xhtml" target="_top" xlink:title="CFuncoesClima.h">
<polygon fill="white" stroke="black" points="29.4854,-56.5 29.4854,-75.5 124.485,-75.5 124.485,-56.5 29.4854,-56.5"/>
<text text-anchor="middle" x="76.9854" y="-63.5" font-family="Helvetica,sans-Serif" font-size="10.00">CFuncoesClima.h</text>
</a>
</g>
</g>
<!-- Node3&#45;&gt;Node13 -->
<g id="edge22" class="edge"><title>Node3&#45;&gt;Node13</title>
<path fill="none" stroke="midnightblue" d="M369.311,-245.139C287.01,-244.18 133.443,-237.281 95.9854,-200 65.6285,-169.786 69.0452,-114.488 73.4035,-85.6357"/>
<polygon fill="midnightblue" stroke="midnightblue" points="76.8728,-86.1118 75.1121,-75.6643 69.9734,-84.9295 76.8728,-86.1118"/>
</g>
<!-- Node14 -->
<g id="node14" class="node"><title>Node14</title>
<g id="a_node14"><a xlink:href="CFluido_8h.xhtml" target="_top" xlink:title="CFluido.h">
<polygon fill="white" stroke="black" points="244.485,-112.5 244.485,-131.5 303.485,-131.5 303.485,-112.5 244.485,-112.5"/>
<text text-anchor="middle" x="273.985" y="-119.5" font-family="Helvetica,sans-Serif" font-size="10.00">CFluido.h</text>
</a>
</g>
</g>
<!-- Node3&#45;&gt;Node14 -->
<g id="edge24" class="edge"><title>Node3&#45;&gt;Node14</title>
<path fill="none" stroke="midnightblue" d="M369.306,-238.66C323.128,-231.89 261.073,-219.43 245.985,-200 232.019,-182.013 246.471,-156.41 259.26,-139.75"/>
<polygon fill="midnightblue" stroke="midnightblue" points="262.022,-141.901 265.637,-131.941 256.6,-137.473 262.022,-141.901"/>
</g>
<!-- Node15 -->
<g id="node15" class="node"><title>Node15</title>
<g id="a_node15"><a xlink:href="CFuncaoConteudoMassicoWl_8h.xhtml" target="_top" xlink:title="CFuncaoConteudoMassicoWl.h">
<polygon fill="white" stroke="black" points="255.485,-174.5 255.485,-193.5 410.485,-193.5 410.485,-174.5 255.485,-174.5"/>
<text text-anchor="middle" x="332.985" y="-181.5" font-family="Helvetica,sans-Serif" font-size="10.00">CFuncaoConteudoMassicoWl.h</text>
</a>
</g>
</g>
<!-- Node3&#45;&gt;Node15 -->
<g id="edge26" class="edge"><title>Node3&#45;&gt;Node15</title>
<path fill="none" stroke="midnightblue" d="M409.234,-236.403C394.959,-226.78 371.588,-211.024 354.477,-199.489"/>
<polygon fill="midnightblue" stroke="midnightblue" points="355.961,-196.268 345.713,-193.581 352.048,-202.073 355.961,-196.268"/>
</g>
<!-- Node16 -->
<g id="node16" class="node"><title>Node16</title>
<g id="a_node16"><a xlink:href="CGnuplot_8h.xhtml" target="_top" xlink:title="CGnuplot.h">
<polygon fill="white" stroke="black" points="676.985,-174.5 676.985,-193.5 742.985,-193.5 742.985,-174.5 676.985,-174.5"/>
<text text-anchor="middle" x="709.985" y="-181.5" font-family="Helvetica,sans-Serif" font-size="10.00">CGnuplot.h</text>
</a>
</g>
</g>
<!-- Node3&#45;&gt;Node16 -->
<g id="edge30" class="edge"><title>Node3&#45;&gt;Node16</title>
<path fill="none" stroke="midnightblue" d="M462.943,-236.467C517.036,-225.198 611.866,-205.442 666.97,-193.962"/>
<polygon fill="midnightblue" stroke="midnightblue" points="667.702,-197.384 676.778,-191.918 666.274,-190.531 667.702,-197.384"/>
</g>
<!-- Node5&#45;&gt;Node2 -->
<g id="edge6" class="edge"><title>Node5&#45;&gt;Node2</title>
<path fill="none" stroke="midnightblue" d="M518.401,-168.862C527.727,-152.533 545.302,-126.111 567.985,-112 632.671,-71.7599 780.217,-113.274 729.985,-56 710.105,-33.332 509.858,-18.4803 425.324,-13.1752"/>
<polygon fill="midnightblue" stroke="midnightblue" points="425.332,-9.66919 415.136,-12.5471 424.902,-16.6559 425.332,-9.66919"/>
</g>
<!-- Node6 -->
<g id="node6" class="node"><title>Node6</title>
<g id="a_node6"><a xlink:href="CInterface_8h.xhtml" target="_top" xlink:title="CInterface.h">
<polygon fill="white" stroke="black" points="155.485,-112.5 155.485,-131.5 226.485,-131.5 226.485,-112.5 155.485,-112.5"/>
<text text-anchor="middle" x="190.985" y="-119.5" font-family="Helvetica,sans-Serif" font-size="10.00">CInterface.h</text>
</a>
</g>
</g>
<!-- Node5&#45;&gt;Node6 -->
<g id="edge7" class="edge"><title>Node5&#45;&gt;Node6</title>
<path fill="none" stroke="midnightblue" d="M432.987,-168.996C380.154,-159.415 308.491,-146.235 236.651,-132.299"/>
<polygon fill="midnightblue" stroke="midnightblue" points="237,-128.801 226.515,-130.328 235.663,-135.673 237,-128.801"/>
</g>
<!-- Node7 -->
<g id="node7" class="node"><title>Node7</title>
<g id="a_node7"><a xlink:href="CMeioPoroso__Telha_8h.xhtml" target="_top" xlink:title="CMeioPoroso_Telha.h">
<polygon fill="white" stroke="black" points="389.485,-112.5 389.485,-131.5 502.485,-131.5 502.485,-112.5 389.485,-112.5"/>
<text text-anchor="middle" x="445.985" y="-119.5" font-family="Helvetica,sans-Serif" font-size="10.00">CMeioPoroso_Telha.h</text>
</a>
</g>
</g>
<!-- Node5&#45;&gt;Node7 -->
<g id="edge9" class="edge"><title>Node5&#45;&gt;Node7</title>
<path fill="none" stroke="midnightblue" d="M495.581,-168.781C485.746,-159.703 472.992,-147.929 462.88,-138.595"/>
<polygon fill="midnightblue" stroke="midnightblue" points="465.165,-135.942 455.443,-131.731 460.418,-141.085 465.165,-135.942"/>
</g>
<!-- Node6&#45;&gt;Node2 -->
<g id="edge8" class="edge"><title>Node6&#45;&gt;Node2</title>
<path fill="none" stroke="midnightblue" d="M195.808,-112.49C204.089,-98.6308 222.329,-71.2097 244.985,-56 277.169,-34.3939 320.308,-22.6966 350.76,-16.6917"/>
<polygon fill="midnightblue" stroke="midnightblue" points="351.771,-20.064 360.964,-14.7981 350.493,-13.1815 351.771,-20.064"/>
</g>
<!-- Node7&#45;&gt;Node2 -->
<g id="edge10" class="edge"><title>Node7&#45;&gt;Node2</title>
<path fill="none" stroke="midnightblue" d="M441.434,-112.368C431.947,-94.376 409.894,-52.5503 397.279,-28.6267"/>
<polygon fill="midnightblue" stroke="midnightblue" points="400.276,-26.8047 392.515,-19.5914 394.084,-30.0696 400.276,-26.8047"/>
</g>
<!-- Node8 -->
<g id="node8" class="node"><title>Node8</title>
<g id="a_node8"><a xlink:href="CFuncaoDifusividade_8h.xhtml" target="_top" xlink:title="CFuncaoDifusividade.h">
<polygon fill="white" stroke="black" points="457.485,-56.5 457.485,-75.5 576.485,-75.5 576.485,-56.5 457.485,-56.5"/>
<text text-anchor="middle" x="516.985" y="-63.5" font-family="Helvetica,sans-Serif" font-size="10.00">CFuncaoDifusividade.h</text>
</a>
</g>
</g>
<!-- Node7&#45;&gt;Node8 -->
<g id="edge11" class="edge"><title>Node7&#45;&gt;Node8</title>
<path fill="none" stroke="midnightblue" d="M457.393,-112.324C468.094,-104.185 484.326,-91.8395 497.148,-82.0874"/>
<polygon fill="midnightblue" stroke="midnightblue" points="499.53,-84.6734 505.37,-75.8339 495.292,-79.1018 499.53,-84.6734"/>
</g>
<!-- Node9 -->
<g id="node9" class="node"><title>Node9</title>
<g id="a_node9"><a xlink:href="CFuncaoCondutividade_8h.xhtml" target="_top" xlink:title="CFuncaoCondutividade.h">
<polygon fill="white" stroke="black" points="594.485,-56.5 594.485,-75.5 721.485,-75.5 721.485,-56.5 594.485,-56.5"/>
<text text-anchor="middle" x="657.985" y="-63.5" font-family="Helvetica,sans-Serif" font-size="10.00">CFuncaoCondutividade.h</text>
</a>
</g>
</g>
<!-- Node7&#45;&gt;Node9 -->
<g id="edge13" class="edge"><title>Node7&#45;&gt;Node9</title>
<path fill="none" stroke="midnightblue" d="M479.577,-112.444C516.173,-103.122 574.823,-88.1828 614.811,-77.9972"/>
<polygon fill="midnightblue" stroke="midnightblue" points="615.724,-81.3766 624.55,-75.5164 613.996,-74.5932 615.724,-81.3766"/>
</g>
<!-- Node10 -->
<g id="node10" class="node"><title>Node10</title>
<g id="a_node10"><a xlink:href="CFuncaoAdsorcao_8h.xhtml" target="_top" xlink:title="CFuncaoAdsorcao.h">
<polygon fill="white" stroke="black" points="294.985,-56.5 294.985,-75.5 400.985,-75.5 400.985,-56.5 294.985,-56.5"/>
<text text-anchor="middle" x="347.985" y="-63.5" font-family="Helvetica,sans-Serif" font-size="10.00">CFuncaoAdsorcao.h</text>
</a>
</g>
</g>
<!-- Node7&#45;&gt;Node10 -->
<g id="edge15" class="edge"><title>Node7&#45;&gt;Node10</title>
<path fill="none" stroke="midnightblue" d="M430.24,-112.324C414.667,-103.743 390.608,-90.486 372.526,-80.5224"/>
<polygon fill="midnightblue" stroke="midnightblue" points="374.139,-77.4152 363.692,-75.6545 370.761,-83.546 374.139,-77.4152"/>
</g>
<!-- Node8&#45;&gt;Node2 -->
<g id="edge12" class="edge"><title>Node8&#45;&gt;Node2</title>
<path fill="none" stroke="midnightblue" d="M496.545,-56.4435C475.315,-47.5566 441.886,-33.5632 417.73,-23.4514"/>
<polygon fill="midnightblue" stroke="midnightblue" points="418.906,-20.1493 408.33,-19.5164 416.203,-26.6064 418.906,-20.1493"/>
</g>
<!-- Node9&#45;&gt;Node2 -->
<g id="edge14" class="edge"><title>Node9&#45;&gt;Node2</title>
<path fill="none" stroke="midnightblue" d="M615.203,-56.4435C562.867,-45.9763 475.111,-28.4252 425.365,-18.476"/>
<polygon fill="midnightblue" stroke="midnightblue" points="425.846,-15.0028 415.353,-16.4736 424.473,-21.8669 425.846,-15.0028"/>
</g>
<!-- Node10&#45;&gt;Node2 -->
<g id="edge16" class="edge"><title>Node10&#45;&gt;Node2</title>
<path fill="none" stroke="midnightblue" d="M354.591,-56.083C360.241,-48.4554 368.53,-37.2645 375.437,-27.9408"/>
<polygon fill="midnightblue" stroke="midnightblue" points="378.363,-29.87 381.503,-19.7511 372.738,-25.7034 378.363,-29.87"/>
</g>
<!-- Node11&#45;&gt;Node2 -->
<g id="edge18" class="edge"><title>Node11&#45;&gt;Node2</title>
<path fill="none" stroke="midnightblue" d="M913.733,-57.3508C909.082,-56.8855 904.468,-56.4315 899.985,-56 722.389,-38.9039 509.877,-21.0619 425.331,-14.0684"/>
<polygon fill="midnightblue" stroke="midnightblue" points="425.452,-10.5666 415.198,-13.2316 424.876,-17.5429 425.452,-10.5666"/>
</g>
<!-- Node12&#45;&gt;Node2 -->
<g id="edge20" class="edge"><title>Node12&#45;&gt;Node2</title>
<path fill="none" stroke="midnightblue" d="M148.439,-174.155C143.421,-160.161 135.917,-132.413 145.985,-112 164.073,-75.3269 182.296,-74.0547 218.985,-56 261.757,-34.9524 315.631,-22.7957 350.902,-16.5411"/>
<polygon fill="midnightblue" stroke="midnightblue" points="351.504,-19.9889 360.774,-14.8586 350.328,-13.0884 351.504,-19.9889"/>
</g>
<!-- Node12&#45;&gt;Node6 -->
<g id="edge21" class="edge"><title>Node12&#45;&gt;Node6</title>
<path fill="none" stroke="midnightblue" d="M157.573,-174.403C163.365,-165.493 172.574,-151.325 179.859,-140.118"/>
<polygon fill="midnightblue" stroke="midnightblue" points="182.893,-141.873 185.408,-131.581 177.023,-138.058 182.893,-141.873"/>
</g>
<!-- Node13&#45;&gt;Node2 -->
<g id="edge23" class="edge"><title>Node13&#45;&gt;Node2</title>
<path fill="none" stroke="midnightblue" d="M124.558,-56.7398C186.711,-45.948 294.255,-27.2748 350.792,-17.458"/>
<polygon fill="midnightblue" stroke="midnightblue" points="351.479,-20.8911 360.733,-15.7319 350.282,-13.9943 351.479,-20.8911"/>
</g>
<!-- Node14&#45;&gt;Node2 -->
<g id="edge25" class="edge"><title>Node14&#45;&gt;Node2</title>
<path fill="none" stroke="midnightblue" d="M266.572,-112.235C256.303,-98.9757 240.365,-73.5094 252.985,-56 275.049,-25.389 318.839,-15.2863 350.577,-12.1167"/>
<polygon fill="midnightblue" stroke="midnightblue" points="351.144,-15.5823 360.83,-11.288 350.58,-8.6051 351.144,-15.5823"/>
</g>
<!-- Node15&#45;&gt;Node2 -->
<g id="edge27" class="edge"><title>Node15&#45;&gt;Node2</title>
<path fill="none" stroke="midnightblue" d="M331.411,-174.348C328.699,-160.62 322.412,-133.23 311.985,-112 299.889,-87.3696 271.001,-78.9883 285.985,-56 300.256,-34.107 327.847,-22.7899 350.737,-16.9828"/>
<polygon fill="midnightblue" stroke="midnightblue" points="351.56,-20.3851 360.533,-14.7503 350.005,-13.5601 351.56,-20.3851"/>
</g>
<!-- Node15&#45;&gt;Node7 -->
<g id="edge29" class="edge"><title>Node15&#45;&gt;Node7</title>
<path fill="none" stroke="midnightblue" d="M349.176,-174.403C367.888,-164.468 398.909,-147.997 420.784,-136.381"/>
<polygon fill="midnightblue" stroke="midnightblue" points="422.634,-139.362 429.825,-131.581 419.352,-133.179 422.634,-139.362"/>
</g>
<!-- Node15&#45;&gt;Node14 -->
<g id="edge28" class="edge"><title>Node15&#45;&gt;Node14</title>
<path fill="none" stroke="midnightblue" d="M324.532,-174.403C315.419,-165.136 300.715,-150.183 289.51,-138.788"/>
<polygon fill="midnightblue" stroke="midnightblue" points="291.93,-136.257 282.423,-131.581 286.939,-141.165 291.93,-136.257"/>
</g>
<!-- Node16&#45;&gt;Node2 -->
<g id="edge31" class="edge"><title>Node16&#45;&gt;Node2</title>
<path fill="none" stroke="midnightblue" d="M725.676,-174.458C739.713,-165.828 759.365,-151.059 767.985,-132 778.537,-108.67 754.3,-59.5736 749.985,-56 701.216,-15.6059 507.73,-10.8611 425.392,-10.7187"/>
<polygon fill="midnightblue" stroke="midnightblue" points="425.225,-7.21869 415.226,-10.7239 425.228,-14.2187 425.225,-7.21869"/>
</g>
<!-- Node16&#45;&gt;Node4 -->
<g id="edge33" class="edge"><title>Node16&#45;&gt;Node4</title>
<path fill="none" stroke="midnightblue" d="M694.082,-174.403C675.701,-164.468 645.229,-147.997 623.741,-136.381"/>
<polygon fill="midnightblue" stroke="midnightblue" points="625.321,-133.257 614.859,-131.581 621.992,-139.415 625.321,-133.257"/>
</g>
<!-- Node17 -->
<g id="node17" class="node"><title>Node17</title>
<polygon fill="white" stroke="#bfbfbf" points="816.485,-112.5 816.485,-131.5 857.485,-131.5 857.485,-112.5 816.485,-112.5"/>
<text text-anchor="middle" x="836.985" y="-119.5" font-family="Helvetica,sans-Serif" font-size="10.00">string</text>
</g>
<!-- Node16&#45;&gt;Node17 -->
<g id="edge32" class="edge"><title>Node16&#45;&gt;Node17</title>
<path fill="none" stroke="midnightblue" d="M728.181,-174.403C749.495,-164.334 785.017,-147.552 809.648,-135.915"/>
<polygon fill="midnightblue" stroke="midnightblue" points="811.276,-139.017 818.823,-131.581 808.286,-132.688 811.276,-139.017"/>
</g>
<!-- Node18 -->
<g id="node18" class="node"><title>Node18</title>
<polygon fill="white" stroke="#bfbfbf" points="639.485,-112.5 639.485,-131.5 698.485,-131.5 698.485,-112.5 639.485,-112.5"/>
<text text-anchor="middle" x="668.985" y="-119.5" font-family="Helvetica,sans-Serif" font-size="10.00">stdexcept</text>
</g>
<!-- Node16&#45;&gt;Node18 -->
<g id="edge34" class="edge"><title>Node16&#45;&gt;Node18</title>
<path fill="none" stroke="midnightblue" d="M704.111,-174.403C698.022,-165.493 688.341,-151.325 680.682,-140.118"/>
<polygon fill="midnightblue" stroke="midnightblue" points="683.38,-137.862 674.849,-131.581 677.601,-141.812 683.38,-137.862"/>
</g>
<!-- Node19 -->
<g id="node19" class="node"><title>Node19</title>
<polygon fill="white" stroke="#bfbfbf" points="716.485,-112.5 716.485,-131.5 759.485,-131.5 759.485,-112.5 716.485,-112.5"/>
<text text-anchor="middle" x="737.985" y="-119.5" font-family="Helvetica,sans-Serif" font-size="10.00">cstdio</text>
</g>
<!-- Node16&#45;&gt;Node19 -->
<g id="edge35" class="edge"><title>Node16&#45;&gt;Node19</title>
<path fill="none" stroke="midnightblue" d="M713.997,-174.403C718.072,-165.671 724.504,-151.889 729.682,-140.794"/>
<polygon fill="midnightblue" stroke="midnightblue" points="732.924,-142.123 733.981,-131.581 726.581,-139.162 732.924,-142.123"/>
</g>
</g>
</svg>
        <g id="navigator" transform="translate(0 0)" fill="#404254">
                <rect fill="#f2f5e9" fill-opacity="0.5" stroke="#606060" stroke-width=".5" x="0" y="0" width="60" height="60"/>
                <use id="zoomplus" xlink:href="#zoomPlus" x="17" y="9" onmousedown="handleZoom(evt,'in')"/>
                <use id="zoomminus" xlink:href="#zoomMin" x="42" y="9" onmousedown="handleZoom(evt,'out')"/>
                <use id="reset" xlink:href="#resetDef" x="30" y="36" onmousedown="handleReset()"/>
                <g id="arrowUp" xlink:href="#dirArrow" transform="translate(30 24)" onmousedown="handlePan(0,-1)">
                  <use xlink:href="#rim" fill="#404040">
                        <set attributeName="fill" to="#808080" begin="arrowUp.mouseover" end="arrowUp.mouseout"/>
                  </use>
                  <path fill="none" stroke="white" stroke-width="1.5" d="M0,-3.0v7 M-2.5,-0.5L0,-3.0L2.5,-0.5"/>
                </g>
                <g id="arrowRight" xlink:href="#dirArrow" transform="rotate(90) translate(36 -43)" onmousedown="handlePan(1,0)">
                  <use xlink:href="#rim" fill="#404040">
                        <set attributeName="fill" to="#808080" begin="arrowRight.mouseover" end="arrowRight.mouseout"/>
                  </use>
                  <path fill="none" stroke="white" stroke-width="1.5" d="M0,-3.0v7 M-2.5,-0.5L0,-3.0L2.5,-0.5"/>
                </g>
                <g id="arrowDown" xlink:href="#dirArrow" transform="rotate(180) translate(-30 -48)" onmousedown="handlePan(0,1)">
                  <use xlink:href="#rim" fill="#404040">
                        <set attributeName="fill" to="#808080" begin="arrowDown.mouseover" end="arrowDown.mouseout"/>
                  </use>
                  <path fill="none" stroke="white" stroke-width="1.5" d="M0,-3.0v7 M-2.5,-0.5L0,-3.0L2.5,-0.5"/>
                </g>
                <g id="arrowLeft" xlink:href="#dirArrow" transform="rotate(270) translate(-36 17)" onmousedown="handlePan(-1,0)">
                  <use xlink:href="#rim" fill="#404040">
                        <set attributeName="fill" to="#808080" begin="arrowLeft.mouseover" end="arrowLeft.mouseout"/>
                  </use>
                  <path fill="none" stroke="white" stroke-width="1.5" d="M0,-3.0v7 M-2.5,-0.5L0,-3.0L2.5,-0.5"/>
                </g>
        </g>
        <svg viewBox="0 0 15 15" width="100%" height="30px" preserveAspectRatio="xMaxYMin meet">
         <g id="arrow_out" transform="scale(0.3 0.3)">
          <a xlink:href="CSimulador__Telha__GanhosEnergia_8h__incl_org.svg" target="_base">
           <rect id="button" ry="5" rx="5" y="6" x="6" height="38" width="38"
                fill="#f2f5e9" fill-opacity="0.5" stroke="#606060" stroke-width="1.0"/>
           <path id="arrow"
             d="M 11.500037,31.436501 C 11.940474,20.09759 22.043105,11.32322 32.158766,21.979434 L 37.068811,17.246167 C 37.068811,17.246167 37.088388,32 37.088388,32 L 22.160133,31.978069 C 22.160133,31.978069 26.997745,27.140456 26.997745,27.140456 C 18.528582,18.264221 13.291696,25.230495 11.500037,31.436501 z"
             style="fill:#404040;"/>
          </a>
         </g>
        </svg>
</svg>
