<?xml version="1.0" encoding="UTF-8" standalone="no"?>
<!DOCTYPE svg PUBLIC "-//W3C//DTD SVG 1.1//EN"
 "http://www.w3.org/Graphics/SVG/1.1/DTD/svg11.dtd">
<!-- Generated by graphviz version 2.34.0 (20140110.0949)
 -->
<!-- Title: src/CSimulador_Telha.cpp Pages: 1 -->
<!--zoomable 320 -->
<svg id="main" version="1.1" xmlns="http://www.w3.org/2000/svg" xmlns:xlink="http://www.w3.org/1999/xlink" xml:space="preserve" onload="init(evt)">
<style type="text/css"><![CDATA[
.edge:hover path { stroke: red; }
.edge:hover polygon { stroke: red; fill: red; }
]]></style>
<script type="text/javascript"><![CDATA[
var edges = document.getElementsByTagName('g');
if (edges && edges.length) {
  for (var i=0;i<edges.length;i++) {
    if (edges[i].id.substr(0,4)=='edge') {
      edges[i].setAttribute('class','edge');
    }
  }
}
]]></script>
        <defs>
                <circle id="rim" cx="0" cy="0" r="7"/>
                <circle id="rim2" cx="0" cy="0" r="3.5"/>
                <g id="zoomPlus">
                        <use xlink:href="#rim" fill="#404040">
                                <set attributeName="fill" to="#808080" begin="zoomplus.mouseover" end="zoomplus.mouseout"/>
                        </use>
                        <path d="M-4,0h8M0,-4v8" fill="none" stroke="white" stroke-width="1.5" pointer-events="none"/>
                </g>
                <g id="zoomMin">
                        <use xlink:href="#rim" fill="#404040">
                                <set attributeName="fill" to="#808080" begin="zoomminus.mouseover" end="zoomminus.mouseout"/>
                        </use>
                        <path d="M-4,0h8" fill="none" stroke="white" stroke-width="1.5" pointer-events="none"/>
                </g>
                <g id="dirArrow">
                        <path fill="none" stroke="white" stroke-width="1.5" d="M0,-3.0v7 M-2.5,-0.5L0,-3.0L2.5,-0.5"/>
                </g>
               <g id="resetDef">
                       <use xlink:href="#rim2" fill="#404040">
                               <set attributeName="fill" to="#808080" begin="reset.mouseover" end="reset.mouseout"/>
                       </use>
               </g>
        </defs>

<script type="text/javascript">
var viewWidth = 1280;
var viewHeight = 320;
var sectionId = 'dynsection-0';
</script>
<script xlink:href="svgpan.js"/>
<svg id="graph" class="graph">
<g id="viewport">
<title>src/CSimulador_Telha.cpp</title>
<polygon fill="white" stroke="white" points="-4,4 -4,-316 1275.59,-316 1275.59,4 -4,4"/>
<!-- Node1 -->
<g id="node1" class="node"><title>Node1</title>
<polygon fill="#bfbfbf" stroke="black" points="912.064,-292.5 912.064,-311.5 1044.06,-311.5 1044.06,-292.5 912.064,-292.5"/>
<text text-anchor="middle" x="978.064" y="-299.5" font-family="Helvetica,sans-Serif" font-size="10.00">src/CSimulador_Telha.cpp</text>
</g>
<!-- Node2 -->
<g id="node2" class="node"><title>Node2</title>
<polygon fill="white" stroke="#bfbfbf" points="239.564,-112.5 239.564,-131.5 282.564,-131.5 282.564,-112.5 239.564,-112.5"/>
<text text-anchor="middle" x="261.064" y="-119.5" font-family="Helvetica,sans-Serif" font-size="10.00">cstdio</text>
</g>
<!-- Node1&#45;&gt;Node2 -->
<g id="edge1" class="edge"><title>Node1&#45;&gt;Node2</title>
<path fill="none" stroke="midnightblue" d="M911.94,-297.246C735.778,-286.553 265.547,-253.23 222.064,-200 206.667,-181.151 226.507,-155.224 243.069,-138.788"/>
<polygon fill="midnightblue" stroke="midnightblue" points="245.876,-140.953 250.767,-131.555 241.082,-135.852 245.876,-140.953"/>
</g>
<!-- Node3 -->
<g id="node3" class="node"><title>Node3</title>
<polygon fill="white" stroke="#bfbfbf" points="953.564,-236.5 953.564,-255.5 1002.56,-255.5 1002.56,-236.5 953.564,-236.5"/>
<text text-anchor="middle" x="978.064" y="-243.5" font-family="Helvetica,sans-Serif" font-size="10.00">cassert</text>
</g>
<!-- Node1&#45;&gt;Node3 -->
<g id="edge2" class="edge"><title>Node1&#45;&gt;Node3</title>
<path fill="none" stroke="midnightblue" d="M978.064,-292.083C978.064,-285.006 978.064,-274.861 978.064,-265.986"/>
<polygon fill="midnightblue" stroke="midnightblue" points="981.565,-265.751 978.064,-255.751 974.565,-265.751 981.565,-265.751"/>
</g>
<!-- Node4 -->
<g id="node4" class="node"><title>Node4</title>
<polygon fill="white" stroke="#bfbfbf" points="1021.06,-236.5 1021.06,-255.5 1071.06,-255.5 1071.06,-236.5 1021.06,-236.5"/>
<text text-anchor="middle" x="1046.06" y="-243.5" font-family="Helvetica,sans-Serif" font-size="10.00">fstream</text>
</g>
<!-- Node1&#45;&gt;Node4 -->
<g id="edge3" class="edge"><title>Node1&#45;&gt;Node4</title>
<path fill="none" stroke="midnightblue" d="M988.99,-292.324C999.239,-284.185 1014.79,-271.839 1027.07,-262.087"/>
<polygon fill="midnightblue" stroke="midnightblue" points="1029.29,-264.794 1034.94,-255.834 1024.93,-259.312 1029.29,-264.794"/>
</g>
<!-- Node5 -->
<g id="node5" class="node"><title>Node5</title>
<polygon fill="white" stroke="#bfbfbf" points="498.064,-0.5 498.064,-19.5 552.064,-19.5 552.064,-0.5 498.064,-0.5"/>
<text text-anchor="middle" x="525.064" y="-7.5" font-family="Helvetica,sans-Serif" font-size="10.00">iostream</text>
</g>
<!-- Node1&#45;&gt;Node5 -->
<g id="edge4" class="edge"><title>Node1&#45;&gt;Node5</title>
<path fill="none" stroke="midnightblue" d="M912.062,-300.112C692.585,-296.295 1.06447,-276.97 1.06447,-185 1.06447,-185 1.06447,-185 1.06447,-121 1.06447,-90.9022 -3.19342,-75.1036 20.0645,-56 56.0169,-26.4694 377.047,-15.0225 487.742,-11.9317"/>
<polygon fill="midnightblue" stroke="midnightblue" points="487.88,-15.4294 497.781,-11.6584 487.689,-8.43198 487.88,-15.4294"/>
</g>
<!-- Node6 -->
<g id="node6" class="node"><title>Node6</title>
<polygon fill="white" stroke="#bfbfbf" points="1089.06,-236.5 1089.06,-255.5 1139.06,-255.5 1139.06,-236.5 1089.06,-236.5"/>
<text text-anchor="middle" x="1114.06" y="-243.5" font-family="Helvetica,sans-Serif" font-size="10.00">iomanip</text>
</g>
<!-- Node1&#45;&gt;Node6 -->
<g id="edge5" class="edge"><title>Node1&#45;&gt;Node6</title>
<path fill="none" stroke="midnightblue" d="M999.614,-292.444C1022.1,-283.517 1057.55,-269.439 1083.04,-259.317"/>
<polygon fill="midnightblue" stroke="midnightblue" points="1084.61,-262.46 1092.62,-255.516 1082.03,-255.954 1084.61,-262.46"/>
</g>
<!-- Node7 -->
<g id="node7" class="node"><title>Node7</title>
<polygon fill="white" stroke="#bfbfbf" points="1224.06,-174.5 1224.06,-193.5 1268.06,-193.5 1268.06,-174.5 1224.06,-174.5"/>
<text text-anchor="middle" x="1246.06" y="-181.5" font-family="Helvetica,sans-Serif" font-size="10.00">cmath</text>
</g>
<!-- Node1&#45;&gt;Node7 -->
<g id="edge6" class="edge"><title>Node1&#45;&gt;Node7</title>
<path fill="none" stroke="midnightblue" d="M1044.37,-300.195C1120.13,-297.705 1237.24,-288.529 1265.06,-256 1277.98,-240.904 1268.16,-217.91 1258.48,-202.207"/>
<polygon fill="midnightblue" stroke="midnightblue" points="1261.14,-199.885 1252.67,-193.509 1255.31,-203.77 1261.14,-199.885"/>
</g>
<!-- Node8 -->
<g id="node8" class="node"><title>Node8</title>
<g id="a_node8"><a xlink:href="CInterface_8h.xhtml" target="_top" xlink:title="CInterface.h">
<polygon fill="white" stroke="black" points="711.564,-112.5 711.564,-131.5 782.564,-131.5 782.564,-112.5 711.564,-112.5"/>
<text text-anchor="middle" x="747.064" y="-119.5" font-family="Helvetica,sans-Serif" font-size="10.00">CInterface.h</text>
</a>
</g>
</g>
<!-- Node1&#45;&gt;Node8 -->
<g id="edge7" class="edge"><title>Node1&#45;&gt;Node8</title>
<path fill="none" stroke="midnightblue" d="M969.987,-292.456C948.611,-270.146 888.211,-209.025 830.064,-168 812.711,-155.756 791.661,-144.379 775.103,-136.127"/>
<polygon fill="midnightblue" stroke="midnightblue" points="776.456,-132.893 765.934,-131.647 773.382,-139.182 776.456,-132.893"/>
</g>
<!-- Node9 -->
<g id="node9" class="node"><title>Node9</title>
<g id="a_node9"><a xlink:href="CSimulador__Telha_8h.xhtml" target="_top" xlink:title="CSimulador_Telha.h">
<polygon fill="white" stroke="black" points="506.564,-236.5 506.564,-255.5 611.564,-255.5 611.564,-236.5 506.564,-236.5"/>
<text text-anchor="middle" x="559.064" y="-243.5" font-family="Helvetica,sans-Serif" font-size="10.00">CSimulador_Telha.h</text>
</a>
</g>
</g>
<!-- Node1&#45;&gt;Node9 -->
<g id="edge9" class="edge"><title>Node1&#45;&gt;Node9</title>
<path fill="none" stroke="midnightblue" d="M911.673,-292.444C832.17,-282.197 699.999,-265.163 622.042,-255.116"/>
<polygon fill="midnightblue" stroke="midnightblue" points="622.244,-251.614 611.879,-253.807 621.35,-258.556 622.244,-251.614"/>
</g>
<!-- Node24 -->
<g id="node24" class="node"><title>Node24</title>
<g id="a_node24"><a xlink:href="CTermodinamica_8h.xhtml" target="_top" xlink:title="CTermodinamica.h">
<polygon fill="white" stroke="black" points="1157.56,-236.5 1157.56,-255.5 1256.56,-255.5 1256.56,-236.5 1157.56,-236.5"/>
<text text-anchor="middle" x="1207.06" y="-243.5" font-family="Helvetica,sans-Serif" font-size="10.00">CTermodinamica.h</text>
</a>
</g>
</g>
<!-- Node1&#45;&gt;Node24 -->
<g id="edge42" class="edge"><title>Node1&#45;&gt;Node24</title>
<path fill="none" stroke="midnightblue" d="M1014.35,-292.444C1054.05,-283.083 1117.77,-268.056 1160.98,-257.868"/>
<polygon fill="midnightblue" stroke="midnightblue" points="1162.02,-261.218 1170.95,-255.516 1160.41,-254.405 1162.02,-261.218"/>
</g>
<!-- Node8&#45;&gt;Node5 -->
<g id="edge8" class="edge"><title>Node8&#45;&gt;Node5</title>
<path fill="none" stroke="midnightblue" d="M746.869,-112.412C746.064,-98.4405 742.364,-70.8615 726.064,-56 702.393,-34.4176 613.411,-21.0039 562.125,-14.8957"/>
<polygon fill="midnightblue" stroke="midnightblue" points="562.431,-11.4079 552.095,-13.737 561.627,-18.3617 562.431,-11.4079"/>
</g>
<!-- Node9&#45;&gt;Node5 -->
<g id="edge10" class="edge"><title>Node9&#45;&gt;Node5</title>
<path fill="none" stroke="midnightblue" d="M611.863,-244.02C682.66,-241.461 802.657,-232.334 830.064,-200 839.261,-189.151 832.818,-181.953 830.064,-168 819.289,-113.4 819.727,-87.8154 774.064,-56 740.403,-32.5461 623.305,-19.3613 562.446,-13.9463"/>
<polygon fill="midnightblue" stroke="midnightblue" points="562.386,-10.4282 552.122,-13.0544 561.784,-17.4022 562.386,-10.4282"/>
</g>
<!-- Node10 -->
<g id="node10" class="node"><title>Node10</title>
<polygon fill="white" stroke="#bfbfbf" points="432.064,-112.5 432.064,-131.5 476.064,-131.5 476.064,-112.5 432.064,-112.5"/>
<text text-anchor="middle" x="454.064" y="-119.5" font-family="Helvetica,sans-Serif" font-size="10.00">vector</text>
</g>
<!-- Node9&#45;&gt;Node10 -->
<g id="edge11" class="edge"><title>Node9&#45;&gt;Node10</title>
<path fill="none" stroke="midnightblue" d="M506.786,-236.478C485.472,-230.151 462.872,-219.143 450.064,-200 438.585,-182.842 442.388,-158.413 447.227,-141.7"/>
<polygon fill="midnightblue" stroke="midnightblue" points="450.622,-142.578 450.406,-131.985 443.969,-140.401 450.622,-142.578"/>
</g>
<!-- Node11 -->
<g id="node11" class="node"><title>Node11</title>
<g id="a_node11"><a xlink:href="CMeioPoroso__Telha__Discretizada__TDMA_8h.xhtml" target="_top" xlink:title="CMeioPoroso_Telha_Discretizada\l_TDMA.h">
<polygon fill="white" stroke="black" points="543.564,-169 543.564,-199 708.564,-199 708.564,-169 543.564,-169"/>
<text text-anchor="start" x="551.564" y="-187" font-family="Helvetica,sans-Serif" font-size="10.00">CMeioPoroso_Telha_Discretizada</text>
<text text-anchor="middle" x="626.064" y="-176" font-family="Helvetica,sans-Serif" font-size="10.00">_TDMA.h</text>
</a>
</g>
</g>
<!-- Node9&#45;&gt;Node11 -->
<g id="edge12" class="edge"><title>Node9&#45;&gt;Node11</title>
<path fill="none" stroke="midnightblue" d="M568.664,-236.403C577.484,-228.505 590.915,-216.477 602.569,-206.041"/>
<polygon fill="midnightblue" stroke="midnightblue" points="605.159,-208.419 610.274,-199.141 600.489,-203.205 605.159,-208.419"/>
</g>
<!-- Node16 -->
<g id="node16" class="node"><title>Node16</title>
<g id="a_node16"><a xlink:href="CTransferenciaCalorMassa_8h.xhtml" target="_top" xlink:title="CTransferenciaCalorMassa.h">
<polygon fill="white" stroke="black" points="877.064,-56.5 877.064,-75.5 1021.06,-75.5 1021.06,-56.5 877.064,-56.5"/>
<text text-anchor="middle" x="949.064" y="-63.5" font-family="Helvetica,sans-Serif" font-size="10.00">CTransferenciaCalorMassa.h</text>
</a>
</g>
</g>
<!-- Node9&#45;&gt;Node16 -->
<g id="edge23" class="edge"><title>Node9&#45;&gt;Node16</title>
<path fill="none" stroke="midnightblue" d="M611.599,-242.405C687.307,-237.807 822.463,-226.132 863.064,-200 906.103,-172.299 932.022,-114.565 942.962,-85.1187"/>
<polygon fill="midnightblue" stroke="midnightblue" points="946.274,-86.2525 946.319,-75.6577 939.677,-83.9116 946.274,-86.2525"/>
</g>
<!-- Node17 -->
<g id="node17" class="node"><title>Node17</title>
<g id="a_node17"><a xlink:href="CSolver__TDMA_8h.xhtml" target="_top" xlink:title="CSolver_TDMA.h">
<polygon fill="white" stroke="black" points="727.064,-174.5 727.064,-193.5 821.064,-193.5 821.064,-174.5 727.064,-174.5"/>
<text text-anchor="middle" x="774.064" y="-181.5" font-family="Helvetica,sans-Serif" font-size="10.00">CSolver_TDMA.h</text>
</a>
</g>
</g>
<!-- Node9&#45;&gt;Node17 -->
<g id="edge25" class="edge"><title>Node9&#45;&gt;Node17</title>
<path fill="none" stroke="midnightblue" d="M589.869,-236.403C627.627,-225.866 691.725,-207.978 733.474,-196.328"/>
<polygon fill="midnightblue" stroke="midnightblue" points="734.626,-199.64 743.317,-193.581 732.745,-192.897 734.626,-199.64"/>
</g>
<!-- Node18 -->
<g id="node18" class="node"><title>Node18</title>
<g id="a_node18"><a xlink:href="CFuncoesClima_8h.xhtml" target="_top" xlink:title="CFuncoesClima.h">
<polygon fill="white" stroke="black" points="29.5645,-56.5 29.5645,-75.5 124.564,-75.5 124.564,-56.5 29.5645,-56.5"/>
<text text-anchor="middle" x="77.0645" y="-63.5" font-family="Helvetica,sans-Serif" font-size="10.00">CFuncoesClima.h</text>
</a>
</g>
</g>
<!-- Node9&#45;&gt;Node18 -->
<g id="edge28" class="edge"><title>Node9&#45;&gt;Node18</title>
<path fill="none" stroke="midnightblue" d="M506.269,-242.942C416.408,-238.741 238.023,-227.176 182.064,-200 132.353,-175.858 99.0598,-115.532 84.857,-85.1246"/>
<polygon fill="midnightblue" stroke="midnightblue" points="87.9248,-83.4124 80.6338,-75.7253 81.5397,-86.2814 87.9248,-83.4124"/>
</g>
<!-- Node19 -->
<g id="node19" class="node"><title>Node19</title>
<g id="a_node19"><a xlink:href="CFluido_8h.xhtml" target="_top" xlink:title="CFluido.h">
<polygon fill="white" stroke="black" points="123.564,-112.5 123.564,-131.5 182.564,-131.5 182.564,-112.5 123.564,-112.5"/>
<text text-anchor="middle" x="153.064" y="-119.5" font-family="Helvetica,sans-Serif" font-size="10.00">CFluido.h</text>
</a>
</g>
</g>
<!-- Node9&#45;&gt;Node19 -->
<g id="edge30" class="edge"><title>Node9&#45;&gt;Node19</title>
<path fill="none" stroke="midnightblue" d="M506.482,-242.406C424.412,-237.626 270.265,-225.49 222.064,-200 196.225,-186.335 175.339,-158.898 163.56,-140.739"/>
<polygon fill="midnightblue" stroke="midnightblue" points="166.228,-138.401 157.98,-131.752 160.282,-142.094 166.228,-138.401"/>
</g>
<!-- Node20 -->
<g id="node20" class="node"><title>Node20</title>
<g id="a_node20"><a xlink:href="CFuncaoConteudoMassicoWl_8h.xhtml" target="_top" xlink:title="CFuncaoConteudoMassicoWl.h">
<polygon fill="white" stroke="black" points="231.564,-174.5 231.564,-193.5 386.564,-193.5 386.564,-174.5 231.564,-174.5"/>
<text text-anchor="middle" x="309.064" y="-181.5" font-family="Helvetica,sans-Serif" font-size="10.00">CFuncaoConteudoMassicoWl.h</text>
</a>
</g>
</g>
<!-- Node9&#45;&gt;Node20 -->
<g id="edge32" class="edge"><title>Node9&#45;&gt;Node20</title>
<path fill="none" stroke="midnightblue" d="M523.511,-236.467C479.085,-225.805 403.003,-207.545 354.423,-195.886"/>
<polygon fill="midnightblue" stroke="midnightblue" points="355.036,-192.434 344.495,-193.503 353.402,-199.241 355.036,-192.434"/>
</g>
<!-- Node21 -->
<g id="node21" class="node"><title>Node21</title>
<g id="a_node21"><a xlink:href="CGnuplot_8h.xhtml" target="_top" xlink:title="CGnuplot.h">
<polygon fill="white" stroke="black" points="459.064,-174.5 459.064,-193.5 525.064,-193.5 525.064,-174.5 459.064,-174.5"/>
<text text-anchor="middle" x="492.064" y="-181.5" font-family="Helvetica,sans-Serif" font-size="10.00">CGnuplot.h</text>
</a>
</g>
</g>
<!-- Node9&#45;&gt;Node21 -->
<g id="edge36" class="edge"><title>Node9&#45;&gt;Node21</title>
<path fill="none" stroke="midnightblue" d="M549.465,-236.403C539.017,-227.047 522.097,-211.895 509.328,-200.46"/>
<polygon fill="midnightblue" stroke="midnightblue" points="511.431,-197.644 501.646,-193.581 506.761,-202.859 511.431,-197.644"/>
</g>
<!-- Node11&#45;&gt;Node5 -->
<g id="edge13" class="edge"><title>Node11&#45;&gt;Node5</title>
<path fill="none" stroke="midnightblue" d="M639.094,-168.765C660.281,-143.841 697.321,-91.5688 671.064,-56 646.296,-22.4472 596.876,-13.1348 562.43,-10.9433"/>
<polygon fill="midnightblue" stroke="midnightblue" points="562.416,-7.43903 552.265,-10.4729 562.092,-14.4315 562.416,-7.43903"/>
</g>
<!-- Node11&#45;&gt;Node8 -->
<g id="edge14" class="edge"><title>Node11&#45;&gt;Node8</title>
<path fill="none" stroke="midnightblue" d="M654.434,-168.933C674.483,-158.991 701.165,-145.76 720.742,-136.053"/>
<polygon fill="midnightblue" stroke="midnightblue" points="722.317,-139.178 729.721,-131.6 719.207,-132.907 722.317,-139.178"/>
</g>
<!-- Node12 -->
<g id="node12" class="node"><title>Node12</title>
<g id="a_node12"><a xlink:href="CMeioPoroso__Telha_8h.xhtml" target="_top" xlink:title="CMeioPoroso_Telha.h">
<polygon fill="white" stroke="black" points="300.564,-112.5 300.564,-131.5 413.564,-131.5 413.564,-112.5 300.564,-112.5"/>
<text text-anchor="middle" x="357.064" y="-119.5" font-family="Helvetica,sans-Serif" font-size="10.00">CMeioPoroso_Telha.h</text>
</a>
</g>
</g>
<!-- Node11&#45;&gt;Node12 -->
<g id="edge15" class="edge"><title>Node11&#45;&gt;Node12</title>
<path fill="none" stroke="midnightblue" d="M562.996,-168.933C514.733,-158.168 449.184,-143.547 405.118,-133.718"/>
<polygon fill="midnightblue" stroke="midnightblue" points="405.752,-130.274 395.23,-131.513 404.228,-137.106 405.752,-130.274"/>
</g>
<!-- Node12&#45;&gt;Node5 -->
<g id="edge16" class="edge"><title>Node12&#45;&gt;Node5</title>
<path fill="none" stroke="midnightblue" d="M315.514,-112.421C275.658,-102.343 224.723,-83.4391 248.064,-56 278.404,-20.3339 419.347,-12.8577 487.697,-11.3463"/>
<polygon fill="midnightblue" stroke="midnightblue" points="488.083,-14.8397 498.015,-11.1515 487.951,-7.84094 488.083,-14.8397"/>
</g>
<!-- Node13 -->
<g id="node13" class="node"><title>Node13</title>
<g id="a_node13"><a xlink:href="CFuncaoDifusividade_8h.xhtml" target="_top" xlink:title="CFuncaoDifusividade.h">
<polygon fill="white" stroke="black" points="257.564,-56.5 257.564,-75.5 376.564,-75.5 376.564,-56.5 257.564,-56.5"/>
<text text-anchor="middle" x="317.064" y="-63.5" font-family="Helvetica,sans-Serif" font-size="10.00">CFuncaoDifusividade.h</text>
</a>
</g>
</g>
<!-- Node12&#45;&gt;Node13 -->
<g id="edge17" class="edge"><title>Node12&#45;&gt;Node13</title>
<path fill="none" stroke="midnightblue" d="M350.459,-112.083C344.809,-104.455 336.52,-93.2645 329.613,-83.9408"/>
<polygon fill="midnightblue" stroke="midnightblue" points="332.312,-81.7034 323.547,-75.7511 326.687,-85.87 332.312,-81.7034"/>
</g>
<!-- Node14 -->
<g id="node14" class="node"><title>Node14</title>
<g id="a_node14"><a xlink:href="CFuncaoCondutividade_8h.xhtml" target="_top" xlink:title="CFuncaoCondutividade.h">
<polygon fill="white" stroke="black" points="394.564,-56.5 394.564,-75.5 521.564,-75.5 521.564,-56.5 394.564,-56.5"/>
<text text-anchor="middle" x="458.064" y="-63.5" font-family="Helvetica,sans-Serif" font-size="10.00">CFuncaoCondutividade.h</text>
</a>
</g>
</g>
<!-- Node12&#45;&gt;Node14 -->
<g id="edge19" class="edge"><title>Node12&#45;&gt;Node14</title>
<path fill="none" stroke="midnightblue" d="M373.292,-112.324C389.415,-103.703 414.365,-90.3643 433.029,-80.3855"/>
<polygon fill="midnightblue" stroke="midnightblue" points="434.709,-83.456 441.877,-75.6545 431.408,-77.283 434.709,-83.456"/>
</g>
<!-- Node15 -->
<g id="node15" class="node"><title>Node15</title>
<g id="a_node15"><a xlink:href="CFuncaoAdsorcao_8h.xhtml" target="_top" xlink:title="CFuncaoAdsorcao.h">
<polygon fill="white" stroke="black" points="540.064,-56.5 540.064,-75.5 646.064,-75.5 646.064,-56.5 540.064,-56.5"/>
<text text-anchor="middle" x="593.064" y="-63.5" font-family="Helvetica,sans-Serif" font-size="10.00">CFuncaoAdsorcao.h</text>
</a>
</g>
</g>
<!-- Node12&#45;&gt;Node15 -->
<g id="edge21" class="edge"><title>Node12&#45;&gt;Node15</title>
<path fill="none" stroke="midnightblue" d="M394.459,-112.444C435.456,-103.063 501.319,-87.9926 545.849,-77.8036"/>
<polygon fill="midnightblue" stroke="midnightblue" points="546.877,-81.1588 555.845,-75.5164 545.316,-74.3352 546.877,-81.1588"/>
</g>
<!-- Node13&#45;&gt;Node5 -->
<g id="edge18" class="edge"><title>Node13&#45;&gt;Node5</title>
<path fill="none" stroke="midnightblue" d="M350.023,-56.4435C387.643,-46.6768 449.019,-30.7425 488.198,-20.5711"/>
<polygon fill="midnightblue" stroke="midnightblue" points="489.095,-23.9543 497.895,-18.0537 487.336,-17.1789 489.095,-23.9543"/>
</g>
<!-- Node14&#45;&gt;Node5 -->
<g id="edge20" class="edge"><title>Node14&#45;&gt;Node5</title>
<path fill="none" stroke="midnightblue" d="M468.829,-56.324C478.831,-48.2631 493.951,-36.0765 505.995,-26.3695"/>
<polygon fill="midnightblue" stroke="midnightblue" points="508.514,-28.8343 514.104,-19.8339 504.122,-23.3841 508.514,-28.8343"/>
</g>
<!-- Node15&#45;&gt;Node5 -->
<g id="edge22" class="edge"><title>Node15&#45;&gt;Node5</title>
<path fill="none" stroke="midnightblue" d="M582.139,-56.324C571.89,-48.1849 556.344,-35.8395 544.063,-26.0874"/>
<polygon fill="midnightblue" stroke="midnightblue" points="546.196,-23.3119 536.189,-19.8339 541.843,-28.7937 546.196,-23.3119"/>
</g>
<!-- Node16&#45;&gt;Node5 -->
<g id="edge24" class="edge"><title>Node16&#45;&gt;Node5</title>
<path fill="none" stroke="midnightblue" d="M881.88,-56.4435C791.705,-44.9589 634.569,-24.9464 562.783,-15.8038"/>
<polygon fill="midnightblue" stroke="midnightblue" points="562.785,-12.2758 552.423,-14.4843 561.9,-19.2197 562.785,-12.2758"/>
</g>
<!-- Node17&#45;&gt;Node5 -->
<g id="edge26" class="edge"><title>Node17&#45;&gt;Node5</title>
<path fill="none" stroke="midnightblue" d="M779.395,-174.097C786.831,-160.489 798.605,-133.801 791.064,-112 780.718,-82.0862 774.009,-72.6093 747.064,-56 689.453,-20.4871 608.975,-12.3848 562.41,-10.8886"/>
<polygon fill="midnightblue" stroke="midnightblue" points="562.251,-7.38407 552.172,-10.6494 562.088,-14.3822 562.251,-7.38407"/>
</g>
<!-- Node17&#45;&gt;Node8 -->
<g id="edge27" class="edge"><title>Node17&#45;&gt;Node8</title>
<path fill="none" stroke="midnightblue" d="M770.196,-174.403C766.266,-165.671 760.065,-151.889 755.072,-140.794"/>
<polygon fill="midnightblue" stroke="midnightblue" points="758.221,-139.264 750.926,-131.581 751.838,-142.136 758.221,-139.264"/>
</g>
<!-- Node18&#45;&gt;Node5 -->
<g id="edge29" class="edge"><title>Node18&#45;&gt;Node5</title>
<path fill="none" stroke="midnightblue" d="M124.773,-57.9367C129.598,-57.2637 134.427,-56.6068 139.064,-56 266.7,-39.2996 418.49,-22.4971 487.535,-15.0209"/>
<polygon fill="midnightblue" stroke="midnightblue" points="488.323,-18.4562 497.889,-13.9025 487.571,-11.4967 488.323,-18.4562"/>
</g>
<!-- Node19&#45;&gt;Node5 -->
<g id="edge31" class="edge"><title>Node19&#45;&gt;Node5</title>
<path fill="none" stroke="midnightblue" d="M153.542,-112.206C154.826,-97.9388 159.566,-69.9442 177.064,-56 224.427,-18.2574 408.131,-11.9971 487.828,-11.0834"/>
<polygon fill="midnightblue" stroke="midnightblue" points="487.945,-14.5825 497.912,-10.9903 487.88,-7.58283 487.945,-14.5825"/>
</g>
<!-- Node20&#45;&gt;Node5 -->
<g id="edge33" class="edge"><title>Node20&#45;&gt;Node5</title>
<path fill="none" stroke="midnightblue" d="M284.157,-174.437C265.558,-166.575 241.466,-152.931 230.064,-132 220.474,-114.394 225.278,-69.7413 239.064,-56 273.434,-21.743 418.66,-13.5625 487.964,-11.6107"/>
<polygon fill="midnightblue" stroke="midnightblue" points="488.103,-15.1084 498.011,-11.3566 487.926,-8.11061 488.103,-15.1084"/>
</g>
<!-- Node20&#45;&gt;Node12 -->
<g id="edge35" class="edge"><title>Node20&#45;&gt;Node12</title>
<path fill="none" stroke="midnightblue" d="M315.942,-174.403C323.213,-165.314 334.86,-150.756 343.905,-139.449"/>
<polygon fill="midnightblue" stroke="midnightblue" points="346.686,-141.576 350.2,-131.581 341.22,-137.203 346.686,-141.576"/>
</g>
<!-- Node20&#45;&gt;Node19 -->
<g id="edge34" class="edge"><title>Node20&#45;&gt;Node19</title>
<path fill="none" stroke="midnightblue" d="M286.713,-174.403C260.07,-164.156 215.35,-146.956 185.05,-135.302"/>
<polygon fill="midnightblue" stroke="midnightblue" points="185.964,-131.904 175.374,-131.581 183.451,-138.437 185.964,-131.904"/>
</g>
<!-- Node21&#45;&gt;Node2 -->
<g id="edge41" class="edge"><title>Node21&#45;&gt;Node2</title>
<path fill="none" stroke="midnightblue" d="M458.872,-175.041C420.875,-165.829 356.55,-149.925 292.518,-132.324"/>
<polygon fill="midnightblue" stroke="midnightblue" points="293.233,-128.89 282.662,-129.6 291.369,-135.637 293.233,-128.89"/>
</g>
<!-- Node21&#45;&gt;Node5 -->
<g id="edge37" class="edge"><title>Node21&#45;&gt;Node5</title>
<path fill="none" stroke="midnightblue" d="M505.481,-174.433C544.105,-149.738 652.949,-79.9191 655.064,-76 676.025,-37.1681 607.684,-21.0575 562.267,-14.7464"/>
<polygon fill="midnightblue" stroke="midnightblue" points="562.489,-11.2462 552.124,-13.4439 561.597,-18.1892 562.489,-11.2462"/>
</g>
<!-- Node21&#45;&gt;Node10 -->
<g id="edge39" class="edge"><title>Node21&#45;&gt;Node10</title>
<path fill="none" stroke="midnightblue" d="M486.62,-174.403C480.976,-165.493 472.003,-151.325 464.906,-140.118"/>
<polygon fill="midnightblue" stroke="midnightblue" points="467.806,-138.156 459.499,-131.581 461.893,-141.901 467.806,-138.156"/>
</g>
<!-- Node22 -->
<g id="node22" class="node"><title>Node22</title>
<polygon fill="white" stroke="#bfbfbf" points="613.564,-112.5 613.564,-131.5 654.564,-131.5 654.564,-112.5 613.564,-112.5"/>
<text text-anchor="middle" x="634.064" y="-119.5" font-family="Helvetica,sans-Serif" font-size="10.00">string</text>
</g>
<!-- Node21&#45;&gt;Node22 -->
<g id="edge38" class="edge"><title>Node21&#45;&gt;Node22</title>
<path fill="none" stroke="midnightblue" d="M512.41,-174.403C536.451,-164.245 576.662,-147.255 604.227,-135.607"/>
<polygon fill="midnightblue" stroke="midnightblue" points="605.908,-138.697 613.757,-131.581 603.183,-132.249 605.908,-138.697"/>
</g>
<!-- Node23 -->
<g id="node23" class="node"><title>Node23</title>
<polygon fill="white" stroke="#bfbfbf" points="494.564,-112.5 494.564,-131.5 553.564,-131.5 553.564,-112.5 494.564,-112.5"/>
<text text-anchor="middle" x="524.064" y="-119.5" font-family="Helvetica,sans-Serif" font-size="10.00">stdexcept</text>
</g>
<!-- Node21&#45;&gt;Node23 -->
<g id="edge40" class="edge"><title>Node21&#45;&gt;Node23</title>
<path fill="none" stroke="midnightblue" d="M496.649,-174.403C501.354,-165.582 508.807,-151.608 514.755,-140.455"/>
<polygon fill="midnightblue" stroke="midnightblue" points="517.87,-142.051 519.488,-131.581 511.694,-138.757 517.87,-142.051"/>
</g>
<!-- Node24&#45;&gt;Node7 -->
<g id="edge43" class="edge"><title>Node24&#45;&gt;Node7</title>
<path fill="none" stroke="midnightblue" d="M1212.65,-236.403C1218.44,-227.493 1227.65,-213.325 1234.94,-202.118"/>
<polygon fill="midnightblue" stroke="midnightblue" points="1237.97,-203.873 1240.49,-193.581 1232.1,-200.058 1237.97,-203.873"/>
</g>
</g>
</svg>
        <g id="navigator" transform="translate(0 0)" fill="#404254">
                <rect fill="#f2f5e9" fill-opacity="0.5" stroke="#606060" stroke-width=".5" x="0" y="0" width="60" height="60"/>
                <use id="zoomplus" xlink:href="#zoomPlus" x="17" y="9" onmousedown="handleZoom(evt,'in')"/>
                <use id="zoomminus" xlink:href="#zoomMin" x="42" y="9" onmousedown="handleZoom(evt,'out')"/>
                <use id="reset" xlink:href="#resetDef" x="30" y="36" onmousedown="handleReset()"/>
                <g id="arrowUp" xlink:href="#dirArrow" transform="translate(30 24)" onmousedown="handlePan(0,-1)">
                  <use xlink:href="#rim" fill="#404040">
                        <set attributeName="fill" to="#808080" begin="arrowUp.mouseover" end="arrowUp.mouseout"/>
                  </use>
                  <path fill="none" stroke="white" stroke-width="1.5" d="M0,-3.0v7 M-2.5,-0.5L0,-3.0L2.5,-0.5"/>
                </g>
                <g id="arrowRight" xlink:href="#dirArrow" transform="rotate(90) translate(36 -43)" onmousedown="handlePan(1,0)">
                  <use xlink:href="#rim" fill="#404040">
                        <set attributeName="fill" to="#808080" begin="arrowRight.mouseover" end="arrowRight.mouseout"/>
                  </use>
                  <path fill="none" stroke="white" stroke-width="1.5" d="M0,-3.0v7 M-2.5,-0.5L0,-3.0L2.5,-0.5"/>
                </g>
                <g id="arrowDown" xlink:href="#dirArrow" transform="rotate(180) translate(-30 -48)" onmousedown="handlePan(0,1)">
                  <use xlink:href="#rim" fill="#404040">
                        <set attributeName="fill" to="#808080" begin="arrowDown.mouseover" end="arrowDown.mouseout"/>
                  </use>
                  <path fill="none" stroke="white" stroke-width="1.5" d="M0,-3.0v7 M-2.5,-0.5L0,-3.0L2.5,-0.5"/>
                </g>
                <g id="arrowLeft" xlink:href="#dirArrow" transform="rotate(270) translate(-36 17)" onmousedown="handlePan(-1,0)">
                  <use xlink:href="#rim" fill="#404040">
                        <set attributeName="fill" to="#808080" begin="arrowLeft.mouseover" end="arrowLeft.mouseout"/>
                  </use>
                  <path fill="none" stroke="white" stroke-width="1.5" d="M0,-3.0v7 M-2.5,-0.5L0,-3.0L2.5,-0.5"/>
                </g>
        </g>
        <svg viewBox="0 0 15 15" width="100%" height="30px" preserveAspectRatio="xMaxYMin meet">
         <g id="arrow_out" transform="scale(0.3 0.3)">
          <a xlink:href="CSimulador__Telha_8cpp__incl_org.svg" target="_base">
           <rect id="button" ry="5" rx="5" y="6" x="6" height="38" width="38"
                fill="#f2f5e9" fill-opacity="0.5" stroke="#606060" stroke-width="1.0"/>
           <path id="arrow"
             d="M 11.500037,31.436501 C 11.940474,20.09759 22.043105,11.32322 32.158766,21.979434 L 37.068811,17.246167 C 37.068811,17.246167 37.088388,32 37.088388,32 L 22.160133,31.978069 C 22.160133,31.978069 26.997745,27.140456 26.997745,27.140456 C 18.528582,18.264221 13.291696,25.230495 11.500037,31.436501 z"
             style="fill:#404040;"/>
          </a>
         </g>
        </svg>
</svg>
