<?xml version="1.0" encoding="UTF-8" standalone="no"?>
<!DOCTYPE svg PUBLIC "-//W3C//DTD SVG 1.1//EN"
 "http://www.w3.org/Graphics/SVG/1.1/DTD/svg11.dtd">
<!-- Generated by graphviz version 2.34.0 (20140110.0949)
 -->
<!-- Title: src/CSolver_TDMA.h Pages: 1 -->
<svg width="130pt" height="140pt"
 viewBox="0.00 0.00 130.00 140.00" xmlns="http://www.w3.org/2000/svg" xmlns:xlink="http://www.w3.org/1999/xlink">
<g id="graph0" class="graph" transform="scale(1 1) rotate(0) translate(4 136)">
<title>src/CSolver_TDMA.h</title>
<polygon fill="white" stroke="white" points="-4,4 -4,-136 126,-136 126,4 -4,4"/>
<!-- Node1 -->
<g id="node1" class="node"><title>Node1</title>
<polygon fill="#bfbfbf" stroke="black" points="0,-112.5 0,-131.5 110,-131.5 110,-112.5 0,-112.5"/>
<text text-anchor="middle" x="55" y="-119.5" font-family="Helvetica,sans-Serif" font-size="10.00">src/CSolver_TDMA.h</text>
</g>
<!-- Node2 -->
<g id="node2" class="node"><title>Node2</title>
<polygon fill="white" stroke="#bfbfbf" points="28,-0.5 28,-19.5 82,-19.5 82,-0.5 28,-0.5"/>
<text text-anchor="middle" x="55" y="-7.5" font-family="Helvetica,sans-Serif" font-size="10.00">iostream</text>
</g>
<!-- Node1&#45;&gt;Node2 -->
<g id="edge1" class="edge"><title>Node1&#45;&gt;Node2</title>
<path fill="none" stroke="midnightblue" d="M51.656,-112.197C48.4458,-103.24 43.8236,-88.8827 42,-76 39.757,-60.1544 43.7869,-42.3436 47.9365,-29.3784"/>
<polygon fill="midnightblue" stroke="midnightblue" points="51.2973,-30.3717 51.3153,-19.7769 44.6942,-28.0481 51.2973,-30.3717"/>
</g>
<!-- Node3 -->
<g id="node3" class="node"><title>Node3</title>
<g id="a_node3"><a xlink:href="CInterface_8h.xhtml" target="_top" xlink:title="CInterface.h">
<polygon fill="white" stroke="black" points="51.5,-56.5 51.5,-75.5 122.5,-75.5 122.5,-56.5 51.5,-56.5"/>
<text text-anchor="middle" x="87" y="-63.5" font-family="Helvetica,sans-Serif" font-size="10.00">CInterface.h</text>
</a>
</g>
</g>
<!-- Node1&#45;&gt;Node3 -->
<g id="edge2" class="edge"><title>Node1&#45;&gt;Node3</title>
<path fill="none" stroke="midnightblue" d="M60.2841,-112.083C64.711,-104.613 71.1633,-93.7244 76.6179,-84.5199"/>
<polygon fill="midnightblue" stroke="midnightblue" points="79.7271,-86.1383 81.8142,-75.7511 73.7051,-82.5697 79.7271,-86.1383"/>
</g>
<!-- Node3&#45;&gt;Node2 -->
<g id="edge3" class="edge"><title>Node3&#45;&gt;Node2</title>
<path fill="none" stroke="midnightblue" d="M81.7159,-56.083C77.289,-48.6127 70.8367,-37.7244 65.3821,-28.5199"/>
<polygon fill="midnightblue" stroke="midnightblue" points="68.2949,-26.5697 60.1858,-19.7511 62.2729,-30.1383 68.2949,-26.5697"/>
</g>
</g>
</svg>
