<?xml version="1.0" encoding="UTF-8" standalone="no"?>
<!DOCTYPE svg PUBLIC "-//W3C//DTD SVG 1.1//EN"
 "http://www.w3.org/Graphics/SVG/1.1/DTD/svg11.dtd">
<!-- Generated by graphviz version 2.34.0 (20140110.0949)
 -->
<!-- Title: src/CSolver_TDMA.cpp Pages: 1 -->
<svg width="168pt" height="196pt"
 viewBox="0.00 0.00 168.00 196.00" xmlns="http://www.w3.org/2000/svg" xmlns:xlink="http://www.w3.org/1999/xlink">
<g id="graph0" class="graph" transform="scale(1 1) rotate(0) translate(4 192)">
<title>src/CSolver_TDMA.cpp</title>
<polygon fill="white" stroke="white" points="-4,4 -4,-192 164,-192 164,4 -4,4"/>
<!-- Node1 -->
<g id="node1" class="node"><title>Node1</title>
<polygon fill="#bfbfbf" stroke="black" points="-0.5,-168.5 -0.5,-187.5 120.5,-187.5 120.5,-168.5 -0.5,-168.5"/>
<text text-anchor="middle" x="60" y="-175.5" font-family="Helvetica,sans-Serif" font-size="10.00">src/CSolver_TDMA.cpp</text>
</g>
<!-- Node2 -->
<g id="node2" class="node"><title>Node2</title>
<polygon fill="white" stroke="#bfbfbf" points="34,-0.5 34,-19.5 88,-19.5 88,-0.5 34,-0.5"/>
<text text-anchor="middle" x="61" y="-7.5" font-family="Helvetica,sans-Serif" font-size="10.00">iostream</text>
</g>
<!-- Node1&#45;&gt;Node2 -->
<g id="edge1" class="edge"><title>Node1&#45;&gt;Node2</title>
<path fill="none" stroke="midnightblue" d="M55.3788,-168.339C50.9407,-159.493 44.5459,-145.22 42,-132 34.9908,-95.604 46.3347,-52.6755 54.2887,-28.9832"/>
<polygon fill="midnightblue" stroke="midnightblue" points="57.5925,-30.1385 57.6266,-19.5437 50.993,-27.8048 57.5925,-30.1385"/>
</g>
<!-- Node3 -->
<g id="node3" class="node"><title>Node3</title>
<g id="a_node3"><a xlink:href="CSolver__TDMA_8h.xhtml" target="_top" xlink:title="CSolver_TDMA.h">
<polygon fill="white" stroke="black" points="51,-112.5 51,-131.5 145,-131.5 145,-112.5 51,-112.5"/>
<text text-anchor="middle" x="98" y="-119.5" font-family="Helvetica,sans-Serif" font-size="10.00">CSolver_TDMA.h</text>
</a>
</g>
</g>
<!-- Node1&#45;&gt;Node3 -->
<g id="edge2" class="edge"><title>Node1&#45;&gt;Node3</title>
<path fill="none" stroke="midnightblue" d="M66.2749,-168.083C71.6425,-160.455 79.5176,-149.264 86.0787,-139.941"/>
<polygon fill="midnightblue" stroke="midnightblue" points="88.9492,-141.943 91.8418,-131.751 83.2245,-137.915 88.9492,-141.943"/>
</g>
<!-- Node3&#45;&gt;Node2 -->
<g id="edge3" class="edge"><title>Node3&#45;&gt;Node2</title>
<path fill="none" stroke="midnightblue" d="M94.301,-112.466C90.4751,-103.483 84.4486,-88.8848 80,-76 74.6642,-60.5457 69.5189,-42.7011 65.9315,-29.6234"/>
<polygon fill="midnightblue" stroke="midnightblue" points="69.297,-28.6606 63.3146,-19.9164 62.5383,-30.4827 69.297,-28.6606"/>
</g>
<!-- Node4 -->
<g id="node4" class="node"><title>Node4</title>
<g id="a_node4"><a xlink:href="CInterface_8h.xhtml" target="_top" xlink:title="CInterface.h">
<polygon fill="white" stroke="black" points="89.5,-56.5 89.5,-75.5 160.5,-75.5 160.5,-56.5 89.5,-56.5"/>
<text text-anchor="middle" x="125" y="-63.5" font-family="Helvetica,sans-Serif" font-size="10.00">CInterface.h</text>
</a>
</g>
</g>
<!-- Node3&#45;&gt;Node4 -->
<g id="edge4" class="edge"><title>Node3&#45;&gt;Node4</title>
<path fill="none" stroke="midnightblue" d="M102.459,-112.083C106.154,-104.691 111.523,-93.9533 116.094,-84.8111"/>
<polygon fill="midnightblue" stroke="midnightblue" points="119.283,-86.2606 120.624,-75.7511 113.022,-83.1301 119.283,-86.2606"/>
</g>
<!-- Node4&#45;&gt;Node2 -->
<g id="edge5" class="edge"><title>Node4&#45;&gt;Node2</title>
<path fill="none" stroke="midnightblue" d="M114.717,-56.324C105.164,-48.2631 90.7203,-36.0765 79.2157,-26.3695"/>
<polygon fill="midnightblue" stroke="midnightblue" points="81.3698,-23.6076 71.4698,-19.8339 76.8557,-28.9577 81.3698,-23.6076"/>
</g>
</g>
</svg>
