<?xml version="1.0" encoding="UTF-8" standalone="no"?>
<!DOCTYPE svg PUBLIC "-//W3C//DTD SVG 1.1//EN"
 "http://www.w3.org/Graphics/SVG/1.1/DTD/svg11.dtd">
<!-- Generated by graphviz version 2.34.0 (20140110.0949)
 -->
<!-- Title: src/CTermodinamica.cpp Pages: 1 -->
<svg width="134pt" height="140pt"
 viewBox="0.00 0.00 134.00 140.00" xmlns="http://www.w3.org/2000/svg" xmlns:xlink="http://www.w3.org/1999/xlink">
<g id="graph0" class="graph" transform="scale(1 1) rotate(0) translate(4 136)">
<title>src/CTermodinamica.cpp</title>
<polygon fill="white" stroke="white" points="-4,4 -4,-136 130,-136 130,4 -4,4"/>
<!-- Node1 -->
<g id="node1" class="node"><title>Node1</title>
<polygon fill="#bfbfbf" stroke="black" points="0,-112.5 0,-131.5 126,-131.5 126,-112.5 0,-112.5"/>
<text text-anchor="middle" x="63" y="-119.5" font-family="Helvetica,sans-Serif" font-size="10.00">src/CTermodinamica.cpp</text>
</g>
<!-- Node2 -->
<g id="node2" class="node"><title>Node2</title>
<g id="a_node2"><a xlink:href="CTermodinamica_8h.xhtml" target="_top" xlink:title="CTermodinamica.h">
<polygon fill="white" stroke="black" points="13.5,-56.5 13.5,-75.5 112.5,-75.5 112.5,-56.5 13.5,-56.5"/>
<text text-anchor="middle" x="63" y="-63.5" font-family="Helvetica,sans-Serif" font-size="10.00">CTermodinamica.h</text>
</a>
</g>
</g>
<!-- Node1&#45;&gt;Node2 -->
<g id="edge1" class="edge"><title>Node1&#45;&gt;Node2</title>
<path fill="none" stroke="midnightblue" d="M63,-112.083C63,-105.006 63,-94.8611 63,-85.9865"/>
<polygon fill="midnightblue" stroke="midnightblue" points="66.5001,-85.751 63,-75.7511 59.5001,-85.7511 66.5001,-85.751"/>
</g>
<!-- Node3 -->
<g id="node3" class="node"><title>Node3</title>
<polygon fill="white" stroke="#bfbfbf" points="41,-0.5 41,-19.5 85,-19.5 85,-0.5 41,-0.5"/>
<text text-anchor="middle" x="63" y="-7.5" font-family="Helvetica,sans-Serif" font-size="10.00">cmath</text>
</g>
<!-- Node2&#45;&gt;Node3 -->
<g id="edge2" class="edge"><title>Node2&#45;&gt;Node3</title>
<path fill="none" stroke="midnightblue" d="M63,-56.083C63,-49.0059 63,-38.8611 63,-29.9865"/>
<polygon fill="midnightblue" stroke="midnightblue" points="66.5001,-29.751 63,-19.7511 59.5001,-29.7511 66.5001,-29.751"/>
</g>
</g>
</svg>
