<?xml version="1.0" encoding="UTF-8" standalone="no"?>
<!DOCTYPE svg PUBLIC "-//W3C//DTD SVG 1.1//EN"
 "http://www.w3.org/Graphics/SVG/1.1/DTD/svg11.dtd">
<!-- Generated by graphviz version 2.34.0 (20140110.0949)
 -->
<!-- Title: src/CTermodinamica.h Pages: 1 -->
<svg width="424pt" height="84pt"
 viewBox="0.00 0.00 424.00 84.00" xmlns="http://www.w3.org/2000/svg" xmlns:xlink="http://www.w3.org/1999/xlink">
<g id="graph0" class="graph" transform="scale(1 1) rotate(0) translate(4 80)">
<title>src/CTermodinamica.h</title>
<polygon fill="white" stroke="white" points="-4,4 -4,-80 420,-80 420,4 -4,4"/>
<!-- Node1 -->
<g id="node1" class="node"><title>Node1</title>
<polygon fill="#bfbfbf" stroke="black" points="148,-56.5 148,-75.5 264,-75.5 264,-56.5 148,-56.5"/>
<text text-anchor="middle" x="206" y="-63.5" font-family="Helvetica,sans-Serif" font-size="10.00">src/CTermodinamica.h</text>
</g>
<!-- Node2 -->
<g id="node2" class="node"><title>Node2</title>
<g id="a_node2"><a xlink:href="CFuncoesClima_8cpp.xhtml" target="_top" xlink:title="src/CFuncoesClima.cpp">
<polygon fill="white" stroke="black" points="0,-0.5 0,-19.5 122,-19.5 122,-0.5 0,-0.5"/>
<text text-anchor="middle" x="61" y="-7.5" font-family="Helvetica,sans-Serif" font-size="10.00">src/CFuncoesClima.cpp</text>
</a>
</g>
</g>
<!-- Node1&#45;&gt;Node2 -->
<g id="edge1" class="edge"><title>Node1&#45;&gt;Node2</title>
<path fill="none" stroke="midnightblue" d="M173.525,-52.9058C146.264,-42.7536 108.008,-28.5063 83.8682,-19.5164"/>
<polygon fill="midnightblue" stroke="midnightblue" points="172.432,-56.2334 183.024,-56.4435 174.875,-49.6736 172.432,-56.2334"/>
</g>
<!-- Node3 -->
<g id="node3" class="node"><title>Node3</title>
<g id="a_node3"><a xlink:href="CSimulador__Telha_8cpp.xhtml" target="_top" xlink:title="src/CSimulador_Telha.cpp">
<polygon fill="white" stroke="black" points="140,-0.5 140,-19.5 272,-19.5 272,-0.5 140,-0.5"/>
<text text-anchor="middle" x="206" y="-7.5" font-family="Helvetica,sans-Serif" font-size="10.00">src/CSimulador_Telha.cpp</text>
</a>
</g>
</g>
<!-- Node1&#45;&gt;Node3 -->
<g id="edge2" class="edge"><title>Node1&#45;&gt;Node3</title>
<path fill="none" stroke="midnightblue" d="M206,-45.8045C206,-36.9102 206,-26.7798 206,-19.7511"/>
<polygon fill="midnightblue" stroke="midnightblue" points="202.5,-46.083 206,-56.083 209.5,-46.083 202.5,-46.083"/>
</g>
<!-- Node4 -->
<g id="node4" class="node"><title>Node4</title>
<g id="a_node4"><a xlink:href="CTermodinamica_8cpp.xhtml" target="_top" xlink:title="src/CTermodinamica.cpp">
<polygon fill="white" stroke="black" points="290,-0.5 290,-19.5 416,-19.5 416,-0.5 290,-0.5"/>
<text text-anchor="middle" x="353" y="-7.5" font-family="Helvetica,sans-Serif" font-size="10.00">src/CTermodinamica.cpp</text>
</a>
</g>
</g>
<!-- Node1&#45;&gt;Node4 -->
<g id="edge3" class="edge"><title>Node1&#45;&gt;Node4</title>
<path fill="none" stroke="midnightblue" d="M238.923,-52.9058C266.56,-42.7536 305.344,-28.5063 329.816,-19.5164"/>
<polygon fill="midnightblue" stroke="midnightblue" points="237.472,-49.71 229.293,-56.4435 239.886,-56.2806 237.472,-49.71"/>
</g>
</g>
</svg>
