<?xml version="1.0" encoding="UTF-8" standalone="no"?>
<!DOCTYPE svg PUBLIC "-//W3C//DTD SVG 1.1//EN"
 "http://www.w3.org/Graphics/SVG/1.1/DTD/svg11.dtd">
<!-- Generated by graphviz version 2.34.0 (20140110.0949)
 -->
<!-- Title: Gráfico de Hierarquia de Classes Pages: 1 -->
<svg width="270pt" height="66pt"
 viewBox="0.00 0.00 270.00 66.00" xmlns="http://www.w3.org/2000/svg" xmlns:xlink="http://www.w3.org/1999/xlink">
<g id="graph0" class="graph" transform="scale(1 1) rotate(0) translate(4 62)">
<title>Gráfico de Hierarquia de Classes</title>
<polygon fill="white" stroke="white" points="-4,4 -4,-62 266,-62 266,4 -4,4"/>
<!-- Node1 -->
<g id="node1" class="node"><title>Node1</title>
<g id="a_node1"><a xlink:href="classCFuncaoAdsorcao.xhtml" target="_top" xlink:title="por causa rotinas entrada saída ">
<polygon fill="white" stroke="black" points="0,-19.5 0,-38.5 98,-38.5 98,-19.5 0,-19.5"/>
<text text-anchor="middle" x="49" y="-26.5" font-family="Helvetica,sans-Serif" font-size="10.00">CFuncaoAdsorcao</text>
</a>
</g>
</g>
<!-- Node2 -->
<g id="node2" class="node"><title>Node2</title>
<g id="a_node2"><a xlink:href="classCFuncaoAdsorcao__Celso.xhtml" target="_top" xlink:title="&#45;&#45;&#45;&#45;&#45;&#45;&#45;&#45;&#45;&#45;&#45;&#45;&#45;—— Bibliotecas &#45;&#45;&#45;&#45;&#45;&#45;&#45;&#45;&#45;&#45;&#45;&#45;&#45;&#45;&#45;&#45;&#45;&#45;&#45;&#45;&#45;&#45;&#45;&#45;&#45;&#45;—— ">
<polygon fill="white" stroke="black" points="134,-38.5 134,-57.5 262,-57.5 262,-38.5 134,-38.5"/>
<text text-anchor="middle" x="198" y="-45.5" font-family="Helvetica,sans-Serif" font-size="10.00">CFuncaoAdsorcao_Celso</text>
</a>
</g>
</g>
<!-- Node1&#45;&gt;Node2 -->
<g id="edge1" class="edge"><title>Node1&#45;&gt;Node2</title>
<path fill="none" stroke="midnightblue" d="M108.209,-36.5237C116.609,-37.6093 125.287,-38.731 133.779,-39.8286"/>
<polygon fill="midnightblue" stroke="midnightblue" points="108.499,-33.0321 98.1333,-35.2213 107.602,-39.9744 108.499,-33.0321"/>
</g>
<!-- Node3 -->
<g id="node3" class="node"><title>Node3</title>
<g id="a_node3"><a xlink:href="classCFuncaoAdsorcao__Pablo.xhtml" target="_top" xlink:title="&#45;&#45;&#45;&#45;&#45;&#45;&#45;&#45;&#45;&#45;&#45;&#45;&#45;—— Bibliotecas &#45;&#45;&#45;&#45;&#45;&#45;&#45;&#45;&#45;&#45;&#45;&#45;&#45;&#45;&#45;&#45;&#45;&#45;&#45;&#45;&#45;&#45;&#45;&#45;&#45;&#45;—— ">
<polygon fill="white" stroke="black" points="134,-0.5 134,-19.5 262,-19.5 262,-0.5 134,-0.5"/>
<text text-anchor="middle" x="198" y="-7.5" font-family="Helvetica,sans-Serif" font-size="10.00">CFuncaoAdsorcao_Pablo</text>
</a>
</g>
</g>
<!-- Node1&#45;&gt;Node3 -->
<g id="edge2" class="edge"><title>Node1&#45;&gt;Node3</title>
<path fill="none" stroke="midnightblue" d="M108.209,-21.4763C116.609,-20.3907 125.287,-19.269 133.779,-18.1714"/>
<polygon fill="midnightblue" stroke="midnightblue" points="107.602,-18.0256 98.1333,-22.7787 108.499,-24.9679 107.602,-18.0256"/>
</g>
</g>
</svg>
