<?xml version="1.0" encoding="UTF-8" standalone="no"?>
<!DOCTYPE svg PUBLIC "-//W3C//DTD SVG 1.1//EN"
 "http://www.w3.org/Graphics/SVG/1.1/DTD/svg11.dtd">
<!-- Generated by graphviz version 2.34.0 (20140110.0949)
 -->
<!-- Title: Gráfico de Hierarquia de Classes Pages: 1 -->
<svg width="690pt" height="104pt"
 viewBox="0.00 0.00 690.00 104.00" xmlns="http://www.w3.org/2000/svg" xmlns:xlink="http://www.w3.org/1999/xlink">
<g id="graph0" class="graph" transform="scale(1 1) rotate(0) translate(4 100)">
<title>Gráfico de Hierarquia de Classes</title>
<polygon fill="white" stroke="white" points="-4,4 -4,-100 686,-100 686,4 -4,4"/>
<!-- Node1 -->
<g id="node1" class="node"><title>Node1</title>
<g id="a_node1"><a xlink:href="classCMeioPoroso__Telha.xhtml" target="_top" xlink:title="por causa rotinas entrada saída ">
<polygon fill="white" stroke="black" points="0.5,-76.5 0.5,-95.5 105.5,-95.5 105.5,-76.5 0.5,-76.5"/>
<text text-anchor="middle" x="53" y="-83.5" font-family="Helvetica,sans-Serif" font-size="10.00">CMeioPoroso_Telha</text>
</a>
</g>
</g>
<!-- Node2 -->
<g id="node2" class="node"><title>Node2</title>
<g id="a_node2"><a xlink:href="classCMeioPoroso__Telha__Discretizada__TDMA.xhtml" target="_top" xlink:title="por causa rotinas entrada saída ">
<polygon fill="white" stroke="black" points="142.5,-76.5 142.5,-95.5 341.5,-95.5 341.5,-76.5 142.5,-76.5"/>
<text text-anchor="middle" x="242" y="-83.5" font-family="Helvetica,sans-Serif" font-size="10.00">CMeioPoroso_Telha_Discretizada_TDMA</text>
</a>
</g>
</g>
<!-- Node1&#45;&gt;Node2 -->
<g id="edge1" class="edge"><title>Node1&#45;&gt;Node2</title>
<path fill="none" stroke="midnightblue" d="M115.774,-86C124.301,-86 133.227,-86 142.219,-86"/>
<polygon fill="midnightblue" stroke="midnightblue" points="115.594,-82.5001 105.594,-86 115.594,-89.5001 115.594,-82.5001"/>
</g>
<!-- Node3 -->
<g id="node3" class="node"><title>Node3</title>
<g id="a_node3"><a xlink:href="classCSimulador__Telha.xhtml" target="_top" xlink:title="por causa rotinas entrada saída ">
<polygon fill="white" stroke="black" points="378.5,-38.5 378.5,-57.5 475.5,-57.5 475.5,-38.5 378.5,-38.5"/>
<text text-anchor="middle" x="427" y="-45.5" font-family="Helvetica,sans-Serif" font-size="10.00">CSimulador_Telha</text>
</a>
</g>
</g>
<!-- Node2&#45;&gt;Node3 -->
<g id="edge2" class="edge"><title>Node2&#45;&gt;Node3</title>
<path fill="none" stroke="midnightblue" d="M304.315,-74.5579C316.8,-72.1366 329.834,-69.5426 342,-67 356.05,-64.0636 371.375,-60.6576 385.043,-57.5472"/>
<polygon fill="midnightblue" stroke="midnightblue" points="303.605,-71.1303 294.447,-76.4585 304.928,-78.004 303.605,-71.1303"/>
</g>
<!-- Node4 -->
<g id="node4" class="node"><title>Node4</title>
<g id="a_node4"><a xlink:href="classCSimulador__Telha__GanhosEnergia.xhtml" target="_top" xlink:title="por causa rotinas entrada saída ">
<polygon fill="white" stroke="black" points="512.5,-38.5 512.5,-57.5 681.5,-57.5 681.5,-38.5 512.5,-38.5"/>
<text text-anchor="middle" x="597" y="-45.5" font-family="Helvetica,sans-Serif" font-size="10.00">CSimulador_Telha_GanhosEnergia</text>
</a>
</g>
</g>
<!-- Node3&#45;&gt;Node4 -->
<g id="edge3" class="edge"><title>Node3&#45;&gt;Node4</title>
<path fill="none" stroke="midnightblue" d="M485.871,-48C494.401,-48 503.329,-48 512.254,-48"/>
<polygon fill="midnightblue" stroke="midnightblue" points="485.693,-44.5001 475.693,-48 485.693,-51.5001 485.693,-44.5001"/>
</g>
<!-- Node5 -->
<g id="node5" class="node"><title>Node5</title>
<g id="a_node5"><a xlink:href="classCSolver__TDMA.xhtml" target="_top" xlink:title="por causa rotinas entrada saída ">
<polygon fill="white" stroke="black" points="199,-38.5 199,-57.5 285,-57.5 285,-38.5 199,-38.5"/>
<text text-anchor="middle" x="242" y="-45.5" font-family="Helvetica,sans-Serif" font-size="10.00">CSolver_TDMA</text>
</a>
</g>
</g>
<!-- Node5&#45;&gt;Node3 -->
<g id="edge4" class="edge"><title>Node5&#45;&gt;Node3</title>
<path fill="none" stroke="midnightblue" d="M295.533,-48C321.623,-48 352.912,-48 378.307,-48"/>
<polygon fill="midnightblue" stroke="midnightblue" points="295.444,-44.5001 285.444,-48 295.444,-51.5001 295.444,-44.5001"/>
</g>
<!-- Node6 -->
<g id="node6" class="node"><title>Node6</title>
<g id="a_node6"><a xlink:href="classCTransferenciaCalorMassa.xhtml" target="_top" xlink:title="por causa rotinas entrada saída ">
<polygon fill="white" stroke="black" points="174,-0.5 174,-19.5 310,-19.5 310,-0.5 174,-0.5"/>
<text text-anchor="middle" x="242" y="-7.5" font-family="Helvetica,sans-Serif" font-size="10.00">CTransferenciaCalorMassa</text>
</a>
</g>
</g>
<!-- Node6&#45;&gt;Node3 -->
<g id="edge5" class="edge"><title>Node6&#45;&gt;Node3</title>
<path fill="none" stroke="midnightblue" d="M304.315,-21.4421C316.8,-23.8634 329.834,-26.4574 342,-29 356.05,-31.9364 371.375,-35.3424 385.043,-38.4528"/>
<polygon fill="midnightblue" stroke="midnightblue" points="304.928,-17.996 294.447,-19.5415 303.605,-24.8697 304.928,-17.996"/>
</g>
</g>
</svg>
