<?xml version="1.0" encoding="UTF-8" standalone="no"?>
<!DOCTYPE svg PUBLIC "-//W3C//DTD SVG 1.1//EN"
 "http://www.w3.org/Graphics/SVG/1.1/DTD/svg11.dtd">
<!-- Generated by graphviz version 2.34.0 (20140110.0949)
 -->
<!-- Title: main Pages: 1 -->
<svg width="382pt" height="77pt"
 viewBox="0.00 0.00 382.00 77.00" xmlns="http://www.w3.org/2000/svg" xmlns:xlink="http://www.w3.org/1999/xlink">
<g id="graph0" class="graph" transform="scale(1 1) rotate(0) translate(4 73)">
<title>main</title>
<polygon fill="white" stroke="white" points="-4,4 -4,-73 378,-73 378,4 -4,4"/>
<!-- Node1 -->
<g id="node1" class="node"><title>Node1</title>
<polygon fill="#bfbfbf" stroke="black" points="0,-22.5 0,-41.5 38,-41.5 38,-22.5 0,-22.5"/>
<text text-anchor="middle" x="19" y="-29.5" font-family="Helvetica,sans-Serif" font-size="10.00">main</text>
</g>
<!-- Node2 -->
<g id="node2" class="node"><title>Node2</title>
<g id="a_node2"><a xlink:href="classCInterface__SimuladorTelha.xhtml#a780ad4db8e166f172a51790f58cbf0ff" target="_top" xlink:title="CInterface_SimuladorTelha\l::ExecutarSimulador">
<polygon fill="white" stroke="black" points="74.5,-39 74.5,-69 209.5,-69 209.5,-39 74.5,-39"/>
<text text-anchor="start" x="82.5" y="-57" font-family="Helvetica,sans-Serif" font-size="10.00">CInterface_SimuladorTelha</text>
<text text-anchor="middle" x="142" y="-46" font-family="Helvetica,sans-Serif" font-size="10.00">::ExecutarSimulador</text>
</a>
</g>
</g>
<!-- Node1&#45;&gt;Node2 -->
<g id="edge1" class="edge"><title>Node1&#45;&gt;Node2</title>
<path fill="none" stroke="midnightblue" d="M38.1149,-35.2936C45.5318,-36.6421 54.6565,-38.3012 64.3806,-40.0692"/>
<polygon fill="midnightblue" stroke="midnightblue" points="63.7985,-43.5207 74.2633,-41.8661 65.0508,-36.6336 63.7985,-43.5207"/>
</g>
<!-- Node3 -->
<g id="node3" class="node"><title>Node3</title>
<g id="a_node3"><a xlink:href="classGnuplot.xhtml#a4039b0fdcf0e3fbf97dac187825138fb" target="_top" xlink:title="Opcional: Seta terminal padrao (standart), usado para visualizacao dos graficos. Valores padroes (def...">
<polygon fill="white" stroke="black" points="95,-0.5 95,-19.5 189,-19.5 189,-0.5 95,-0.5"/>
<text text-anchor="middle" x="142" y="-7.5" font-family="Helvetica,sans-Serif" font-size="10.00">Gnuplot::Terminal</text>
</a>
</g>
</g>
<!-- Node1&#45;&gt;Node3 -->
<g id="edge2" class="edge"><title>Node1&#45;&gt;Node3</title>
<path fill="none" stroke="midnightblue" d="M38.1149,-28.7064C50.6252,-26.4318 67.9946,-23.2737 84.903,-20.1995"/>
<polygon fill="midnightblue" stroke="midnightblue" points="85.5523,-23.6389 94.7648,-18.4064 84.3,-16.7518 85.5523,-23.6389"/>
</g>
<!-- Node4 -->
<g id="node4" class="node"><title>Node4</title>
<g id="a_node4"><a xlink:href="classGnuplot.xhtml#a21feba7a3916708b742c3dc25850ab2f" target="_top" xlink:title="Opcional: Seta terminal padrao (standart), usado para visualizacao dos graficos. Valores padroes (def...">
<polygon fill="white" stroke="black" points="246,-0.5 246,-19.5 374,-19.5 374,-0.5 246,-0.5"/>
<text text-anchor="middle" x="310" y="-7.5" font-family="Helvetica,sans-Serif" font-size="10.00">Gnuplot::set_terminal_std</text>
</a>
</g>
</g>
<!-- Node3&#45;&gt;Node4 -->
<g id="edge3" class="edge"><title>Node3&#45;&gt;Node4</title>
<path fill="none" stroke="midnightblue" d="M189.24,-10C203.642,-10 219.893,-10 235.672,-10"/>
<polygon fill="midnightblue" stroke="midnightblue" points="235.949,-13.5001 245.948,-10 235.948,-6.5001 235.949,-13.5001"/>
</g>
</g>
</svg>
