<?xml version="1.0" encoding="UTF-8" standalone="no"?>
<!DOCTYPE svg PUBLIC "-//W3C//DTD SVG 1.1//EN"
 "http://www.w3.org/Graphics/SVG/1.1/DTD/svg11.dtd">
<!-- Generated by graphviz version 2.34.0 (20140110.0949)
 -->
<!-- Title: src/main.cpp Pages: 1 -->
<!--zoomable 432 -->
<svg id="main" version="1.1" xmlns="http://www.w3.org/2000/svg" xmlns:xlink="http://www.w3.org/1999/xlink" xml:space="preserve" onload="init(evt)">
<style type="text/css"><![CDATA[
.edge:hover path { stroke: red; }
.edge:hover polygon { stroke: red; fill: red; }
]]></style>
<script type="text/javascript"><![CDATA[
var edges = document.getElementsByTagName('g');
if (edges && edges.length) {
  for (var i=0;i<edges.length;i++) {
    if (edges[i].id.substr(0,4)=='edge') {
      edges[i].setAttribute('class','edge');
    }
  }
}
]]></script>
        <defs>
                <circle id="rim" cx="0" cy="0" r="7"/>
                <circle id="rim2" cx="0" cy="0" r="3.5"/>
                <g id="zoomPlus">
                        <use xlink:href="#rim" fill="#404040">
                                <set attributeName="fill" to="#808080" begin="zoomplus.mouseover" end="zoomplus.mouseout"/>
                        </use>
                        <path d="M-4,0h8M0,-4v8" fill="none" stroke="white" stroke-width="1.5" pointer-events="none"/>
                </g>
                <g id="zoomMin">
                        <use xlink:href="#rim" fill="#404040">
                                <set attributeName="fill" to="#808080" begin="zoomminus.mouseover" end="zoomminus.mouseout"/>
                        </use>
                        <path d="M-4,0h8" fill="none" stroke="white" stroke-width="1.5" pointer-events="none"/>
                </g>
                <g id="dirArrow">
                        <path fill="none" stroke="white" stroke-width="1.5" d="M0,-3.0v7 M-2.5,-0.5L0,-3.0L2.5,-0.5"/>
                </g>
               <g id="resetDef">
                       <use xlink:href="#rim2" fill="#404040">
                               <set attributeName="fill" to="#808080" begin="reset.mouseover" end="reset.mouseout"/>
                       </use>
               </g>
        </defs>

<script type="text/javascript">
var viewWidth = 1351;
var viewHeight = 432;
var sectionId = 'dynsection-0';
</script>
<script xlink:href="svgpan.js"/>
<svg id="graph" class="graph">
<g id="viewport">
<title>src/main.cpp</title>
<polygon fill="white" stroke="white" points="-4,4 -4,-428 1347,-428 1347,4 -4,4"/>
<!-- Node1 -->
<g id="node1" class="node"><title>Node1</title>
<polygon fill="#bfbfbf" stroke="black" points="146.5,-404.5 146.5,-423.5 219.5,-423.5 219.5,-404.5 146.5,-404.5"/>
<text text-anchor="middle" x="183" y="-411.5" font-family="Helvetica,sans-Serif" font-size="10.00">src/main.cpp</text>
</g>
<!-- Node2 -->
<g id="node2" class="node"><title>Node2</title>
<polygon fill="white" stroke="#bfbfbf" points="622,-0.5 622,-19.5 676,-19.5 676,-0.5 622,-0.5"/>
<text text-anchor="middle" x="649" y="-7.5" font-family="Helvetica,sans-Serif" font-size="10.00">iostream</text>
</g>
<!-- Node1&#45;&gt;Node2 -->
<g id="edge1" class="edge"><title>Node1&#45;&gt;Node2</title>
<path fill="none" stroke="midnightblue" d="M146.407,-407.734C93.003,-397.75 0,-370.65 0,-303 0,-303 0,-303 0,-121 0,-56.7997 67.2388,-73.5281 129,-56 219.928,-30.1941 507.981,-16.5636 611.497,-12.402"/>
<polygon fill="midnightblue" stroke="midnightblue" points="611.923,-15.888 621.777,-11.9956 611.646,-8.89344 611.923,-15.888"/>
</g>
<!-- Node3 -->
<g id="node3" class="node"><title>Node3</title>
<g id="a_node3"><a xlink:href="CGnuplot_8h.xhtml" target="_top" xlink:title="CGnuplot.h">
<polygon fill="white" stroke="black" points="150,-174.5 150,-193.5 216,-193.5 216,-174.5 150,-174.5"/>
<text text-anchor="middle" x="183" y="-181.5" font-family="Helvetica,sans-Serif" font-size="10.00">CGnuplot.h</text>
</a>
</g>
</g>
<!-- Node1&#45;&gt;Node3 -->
<g id="edge2" class="edge"><title>Node1&#45;&gt;Node3</title>
<path fill="none" stroke="midnightblue" d="M183,-404.341C183,-371.046 183,-250.805 183,-203.912"/>
<polygon fill="midnightblue" stroke="midnightblue" points="186.5,-203.668 183,-193.668 179.5,-203.668 186.5,-203.668"/>
</g>
<!-- Node8 -->
<g id="node8" class="node"><title>Node8</title>
<g id="a_node8"><a xlink:href="CInterface__SimuladorTelha_8h.xhtml" target="_top" xlink:title="CInterface_SimuladorTelha.h">
<polygon fill="white" stroke="black" points="1089.5,-348.5 1089.5,-367.5 1232.5,-367.5 1232.5,-348.5 1089.5,-348.5"/>
<text text-anchor="middle" x="1161" y="-355.5" font-family="Helvetica,sans-Serif" font-size="10.00">CInterface_SimuladorTelha.h</text>
</a>
</g>
</g>
<!-- Node1&#45;&gt;Node8 -->
<g id="edge8" class="edge"><title>Node1&#45;&gt;Node8</title>
<path fill="none" stroke="midnightblue" d="M219.554,-410.982C361.345,-403.153 877.104,-374.675 1079.09,-363.523"/>
<polygon fill="midnightblue" stroke="midnightblue" points="1079.54,-367.003 1089.33,-362.957 1079.16,-360.014 1079.54,-367.003"/>
</g>
<!-- Node3&#45;&gt;Node2 -->
<g id="edge3" class="edge"><title>Node3&#45;&gt;Node2</title>
<path fill="none" stroke="midnightblue" d="M164.838,-174.386C149.453,-165.975 128.435,-151.583 119,-132 102.155,-97.037 128.017,-74.7441 162,-56 239.205,-13.4156 511.659,-10.3088 611.755,-10.653"/>
<polygon fill="midnightblue" stroke="midnightblue" points="611.975,-14.1541 621.992,-10.7027 612.009,-7.15414 611.975,-14.1541"/>
</g>
<!-- Node4 -->
<g id="node4" class="node"><title>Node4</title>
<polygon fill="white" stroke="#bfbfbf" points="128.5,-112.5 128.5,-131.5 169.5,-131.5 169.5,-112.5 128.5,-112.5"/>
<text text-anchor="middle" x="149" y="-119.5" font-family="Helvetica,sans-Serif" font-size="10.00">string</text>
</g>
<!-- Node3&#45;&gt;Node4 -->
<g id="edge4" class="edge"><title>Node3&#45;&gt;Node4</title>
<path fill="none" stroke="midnightblue" d="M178.129,-174.403C173.13,-165.582 165.211,-151.608 158.891,-140.455"/>
<polygon fill="midnightblue" stroke="midnightblue" points="161.838,-138.555 153.862,-131.581 155.747,-142.006 161.838,-138.555"/>
</g>
<!-- Node5 -->
<g id="node5" class="node"><title>Node5</title>
<polygon fill="white" stroke="#bfbfbf" points="265,-112.5 265,-131.5 309,-131.5 309,-112.5 265,-112.5"/>
<text text-anchor="middle" x="287" y="-119.5" font-family="Helvetica,sans-Serif" font-size="10.00">vector</text>
</g>
<!-- Node3&#45;&gt;Node5 -->
<g id="edge5" class="edge"><title>Node3&#45;&gt;Node5</title>
<path fill="none" stroke="midnightblue" d="M197.901,-174.403C214.968,-164.557 243.161,-148.291 263.262,-136.695"/>
<polygon fill="midnightblue" stroke="midnightblue" points="265.214,-139.61 272.127,-131.581 261.716,-133.546 265.214,-139.61"/>
</g>
<!-- Node6 -->
<g id="node6" class="node"><title>Node6</title>
<polygon fill="white" stroke="#bfbfbf" points="187.5,-112.5 187.5,-131.5 246.5,-131.5 246.5,-112.5 187.5,-112.5"/>
<text text-anchor="middle" x="217" y="-119.5" font-family="Helvetica,sans-Serif" font-size="10.00">stdexcept</text>
</g>
<!-- Node3&#45;&gt;Node6 -->
<g id="edge6" class="edge"><title>Node3&#45;&gt;Node6</title>
<path fill="none" stroke="midnightblue" d="M187.871,-174.403C192.87,-165.582 200.789,-151.608 207.109,-140.455"/>
<polygon fill="midnightblue" stroke="midnightblue" points="210.253,-142.006 212.138,-131.581 204.162,-138.555 210.253,-142.006"/>
</g>
<!-- Node7 -->
<g id="node7" class="node"><title>Node7</title>
<polygon fill="white" stroke="#bfbfbf" points="28.5,-112.5 28.5,-131.5 71.5,-131.5 71.5,-112.5 28.5,-112.5"/>
<text text-anchor="middle" x="50" y="-119.5" font-family="Helvetica,sans-Serif" font-size="10.00">cstdio</text>
</g>
<!-- Node3&#45;&gt;Node7 -->
<g id="edge7" class="edge"><title>Node3&#45;&gt;Node7</title>
<path fill="none" stroke="midnightblue" d="M163.944,-174.403C141.525,-164.29 104.095,-147.404 78.2868,-135.761"/>
<polygon fill="midnightblue" stroke="midnightblue" points="79.575,-132.502 69.0203,-131.581 76.6964,-138.883 79.575,-132.502"/>
</g>
<!-- Node8&#45;&gt;Node2 -->
<g id="edge42" class="edge"><title>Node8&#45;&gt;Node2</title>
<path fill="none" stroke="midnightblue" d="M1188.84,-348.366C1207.21,-341.326 1230.49,-329.627 1245,-312 1264.21,-288.665 1265,-277.225 1265,-247 1265,-247 1265,-247 1265,-121 1265,-40.9395 1174.87,-74.6134 1097,-56 947.783,-20.3308 764.038,-12.9044 686.417,-11.3807"/>
<polygon fill="midnightblue" stroke="midnightblue" points="686.242,-7.87724 676.183,-11.2026 686.12,-14.8762 686.242,-7.87724"/>
</g>
<!-- Node9 -->
<g id="node9" class="node"><title>Node9</title>
<g id="a_node9"><a xlink:href="CInterface_8h.xhtml" target="_top" xlink:title="CInterface.h">
<polygon fill="white" stroke="black" points="987.5,-112.5 987.5,-131.5 1058.5,-131.5 1058.5,-112.5 987.5,-112.5"/>
<text text-anchor="middle" x="1023" y="-119.5" font-family="Helvetica,sans-Serif" font-size="10.00">CInterface.h</text>
</a>
</g>
</g>
<!-- Node8&#45;&gt;Node9 -->
<g id="edge9" class="edge"><title>Node8&#45;&gt;Node9</title>
<path fill="none" stroke="midnightblue" d="M1105.92,-348.496C1065.51,-341.001 1015.59,-328.674 1003,-312 964.096,-260.469 996.354,-177.287 1013.71,-140.95"/>
<polygon fill="midnightblue" stroke="midnightblue" points="1017.03,-142.148 1018.34,-131.634 1010.76,-139.036 1017.03,-142.148"/>
</g>
<!-- Node10 -->
<g id="node10" class="node"><title>Node10</title>
<g id="a_node10"><a xlink:href="CSimulador__Telha__GanhosEnergia_8h.xhtml" target="_top" xlink:title="CSimulador_Telha_GanhosEnergia.h">
<polygon fill="white" stroke="black" points="1012.5,-292.5 1012.5,-311.5 1189.5,-311.5 1189.5,-292.5 1012.5,-292.5"/>
<text text-anchor="middle" x="1101" y="-299.5" font-family="Helvetica,sans-Serif" font-size="10.00">CSimulador_Telha_GanhosEnergia.h</text>
</a>
</g>
</g>
<!-- Node8&#45;&gt;Node10 -->
<g id="edge11" class="edge"><title>Node8&#45;&gt;Node10</title>
<path fill="none" stroke="midnightblue" d="M1151.36,-348.324C1142.49,-340.341 1129.13,-328.313 1118.39,-318.653"/>
<polygon fill="midnightblue" stroke="midnightblue" points="1120.59,-315.922 1110.82,-311.834 1115.91,-321.125 1120.59,-315.922"/>
</g>
<!-- Node22 -->
<g id="node22" class="node"><title>Node22</title>
<polygon fill="white" stroke="#bfbfbf" points="1207.5,-292.5 1207.5,-311.5 1236.5,-311.5 1236.5,-292.5 1207.5,-292.5"/>
<text text-anchor="middle" x="1222" y="-299.5" font-family="Helvetica,sans-Serif" font-size="10.00">ios</text>
</g>
<!-- Node8&#45;&gt;Node22 -->
<g id="edge41" class="edge"><title>Node8&#45;&gt;Node22</title>
<path fill="none" stroke="midnightblue" d="M1170.8,-348.324C1179.82,-340.341 1193.41,-328.313 1204.32,-318.653"/>
<polygon fill="midnightblue" stroke="midnightblue" points="1206.85,-321.083 1212.02,-311.834 1202.21,-315.842 1206.85,-321.083"/>
</g>
<!-- Node23 -->
<g id="node23" class="node"><title>Node23</title>
<polygon fill="white" stroke="#bfbfbf" points="1293,-292.5 1293,-311.5 1343,-311.5 1343,-292.5 1293,-292.5"/>
<text text-anchor="middle" x="1318" y="-299.5" font-family="Helvetica,sans-Serif" font-size="10.00">fstream</text>
</g>
<!-- Node8&#45;&gt;Node23 -->
<g id="edge43" class="edge"><title>Node8&#45;&gt;Node23</title>
<path fill="none" stroke="midnightblue" d="M1185.88,-348.444C1212.29,-339.359 1254.22,-324.939 1283.74,-314.783"/>
<polygon fill="midnightblue" stroke="midnightblue" points="1284.92,-318.079 1293.24,-311.516 1282.64,-311.459 1284.92,-318.079"/>
</g>
<!-- Node9&#45;&gt;Node2 -->
<g id="edge10" class="edge"><title>Node9&#45;&gt;Node2</title>
<path fill="none" stroke="midnightblue" d="M1026.66,-112.154C1031.72,-98.319 1038.79,-71.5375 1025,-56 1002.73,-30.9016 776.827,-17.2144 686.262,-12.7006"/>
<polygon fill="midnightblue" stroke="midnightblue" points="686.321,-9.19941 676.162,-12.2075 685.98,-16.1911 686.321,-9.19941"/>
</g>
<!-- Node10&#45;&gt;Node2 -->
<g id="edge12" class="edge"><title>Node10&#45;&gt;Node2</title>
<path fill="none" stroke="midnightblue" d="M1104.04,-292.395C1110.5,-273.319 1125,-225.925 1125,-185 1125,-185 1125,-185 1125,-121 1125,-81.6849 1100.11,-73.6848 1065,-56 999.07,-22.7943 775.629,-13.9501 686.326,-11.7151"/>
<polygon fill="midnightblue" stroke="midnightblue" points="686.2,-8.2112 676.12,-11.4741 686.035,-15.2092 686.2,-8.2112"/>
</g>
<!-- Node11 -->
<g id="node11" class="node"><title>Node11</title>
<g id="a_node11"><a xlink:href="CSimulador__Telha_8h.xhtml" target="_top" xlink:title="CSimulador_Telha.h">
<polygon fill="white" stroke="black" points="379.5,-236.5 379.5,-255.5 484.5,-255.5 484.5,-236.5 379.5,-236.5"/>
<text text-anchor="middle" x="432" y="-243.5" font-family="Helvetica,sans-Serif" font-size="10.00">CSimulador_Telha.h</text>
</a>
</g>
</g>
<!-- Node10&#45;&gt;Node11 -->
<g id="edge13" class="edge"><title>Node10&#45;&gt;Node11</title>
<path fill="none" stroke="midnightblue" d="M1012.16,-293.829C874.879,-282.748 614.559,-261.736 494.962,-252.082"/>
<polygon fill="midnightblue" stroke="midnightblue" points="495.119,-248.584 484.87,-251.268 494.556,-255.561 495.119,-248.584"/>
</g>
<!-- Node11&#45;&gt;Node2 -->
<g id="edge14" class="edge"><title>Node11&#45;&gt;Node2</title>
<path fill="none" stroke="midnightblue" d="M424.02,-236.48C415.669,-227.509 402.234,-212.92 391,-200 357.657,-161.652 360.464,-139.913 318,-112 267.807,-79.0065 154.676,-100.518 195,-56 222.796,-25.3124 508.074,-14.7338 611.669,-11.8877"/>
<polygon fill="midnightblue" stroke="midnightblue" points="612.062,-15.3786 621.965,-11.6141 611.876,-8.38108 612.062,-15.3786"/>
</g>
<!-- Node11&#45;&gt;Node3 -->
<g id="edge40" class="edge"><title>Node11&#45;&gt;Node3</title>
<path fill="none" stroke="midnightblue" d="M396.589,-236.467C351.713,-225.654 274.409,-207.026 226.138,-195.395"/>
<polygon fill="midnightblue" stroke="midnightblue" points="226.841,-191.964 216.3,-193.024 225.202,-198.769 226.841,-191.964"/>
</g>
<!-- Node11&#45;&gt;Node5 -->
<g id="edge15" class="edge"><title>Node11&#45;&gt;Node5</title>
<path fill="none" stroke="midnightblue" d="M393.026,-236.464C370.267,-229.788 342.32,-218.454 323,-200 306.281,-184.03 296.542,-158.765 291.502,-141.565"/>
<polygon fill="midnightblue" stroke="midnightblue" points="294.804,-140.364 288.842,-131.606 288.041,-142.171 294.804,-140.364"/>
</g>
<!-- Node12 -->
<g id="node12" class="node"><title>Node12</title>
<g id="a_node12"><a xlink:href="CMeioPoroso__Telha__Discretizada__TDMA_8h.xhtml" target="_top" xlink:title="CMeioPoroso_Telha_Discretizada\l_TDMA.h">
<polygon fill="white" stroke="black" points="666.5,-169 666.5,-199 831.5,-199 831.5,-169 666.5,-169"/>
<text text-anchor="start" x="674.5" y="-187" font-family="Helvetica,sans-Serif" font-size="10.00">CMeioPoroso_Telha_Discretizada</text>
<text text-anchor="middle" x="749" y="-176" font-family="Helvetica,sans-Serif" font-size="10.00">_TDMA.h</text>
</a>
</g>
</g>
<!-- Node11&#45;&gt;Node12 -->
<g id="edge16" class="edge"><title>Node11&#45;&gt;Node12</title>
<path fill="none" stroke="midnightblue" d="M477.082,-236.467C525.82,-227.242 604.603,-212.331 664.853,-200.927"/>
<polygon fill="midnightblue" stroke="midnightblue" points="665.56,-204.355 674.735,-199.057 664.258,-197.477 665.56,-204.355"/>
</g>
<!-- Node17 -->
<g id="node17" class="node"><title>Node17</title>
<g id="a_node17"><a xlink:href="CTransferenciaCalorMassa_8h.xhtml" target="_top" xlink:title="CTransferenciaCalorMassa.h">
<polygon fill="white" stroke="black" points="204,-56.5 204,-75.5 348,-75.5 348,-56.5 204,-56.5"/>
<text text-anchor="middle" x="276" y="-63.5" font-family="Helvetica,sans-Serif" font-size="10.00">CTransferenciaCalorMassa.h</text>
</a>
</g>
</g>
<!-- Node11&#45;&gt;Node17 -->
<g id="edge27" class="edge"><title>Node11&#45;&gt;Node17</title>
<path fill="none" stroke="midnightblue" d="M428.459,-236.253C418.883,-213.453 390.511,-151.251 351,-112 337.833,-98.9197 320.142,-88.0716 305.249,-80.3061"/>
<polygon fill="midnightblue" stroke="midnightblue" points="306.452,-76.9944 295.942,-75.6556 303.323,-83.2563 306.452,-76.9944"/>
</g>
<!-- Node18 -->
<g id="node18" class="node"><title>Node18</title>
<g id="a_node18"><a xlink:href="CSolver__TDMA_8h.xhtml" target="_top" xlink:title="CSolver_TDMA.h">
<polygon fill="white" stroke="black" points="862,-174.5 862,-193.5 956,-193.5 956,-174.5 862,-174.5"/>
<text text-anchor="middle" x="909" y="-181.5" font-family="Helvetica,sans-Serif" font-size="10.00">CSolver_TDMA.h</text>
</a>
</g>
</g>
<!-- Node11&#45;&gt;Node18 -->
<g id="edge29" class="edge"><title>Node11&#45;&gt;Node18</title>
<path fill="none" stroke="midnightblue" d="M484.729,-240.952C562.708,-234.567 713.23,-220.713 840,-200 847.487,-198.777 855.386,-197.268 863.061,-195.684"/>
<polygon fill="midnightblue" stroke="midnightblue" points="863.915,-199.081 872.967,-193.576 862.457,-192.234 863.915,-199.081"/>
</g>
<!-- Node19 -->
<g id="node19" class="node"><title>Node19</title>
<g id="a_node19"><a xlink:href="CFuncoesClima_8h.xhtml" target="_top" xlink:title="CFuncoesClima.h">
<polygon fill="white" stroke="black" points="366.5,-56.5 366.5,-75.5 461.5,-75.5 461.5,-56.5 366.5,-56.5"/>
<text text-anchor="middle" x="414" y="-63.5" font-family="Helvetica,sans-Serif" font-size="10.00">CFuncoesClima.h</text>
</a>
</g>
</g>
<!-- Node11&#45;&gt;Node19 -->
<g id="edge32" class="edge"><title>Node11&#45;&gt;Node19</title>
<path fill="none" stroke="midnightblue" d="M431.132,-236.415C428.382,-209.227 419.821,-124.563 415.943,-86.2169"/>
<polygon fill="midnightblue" stroke="midnightblue" points="419.39,-85.5156 414.902,-75.9185 412.426,-86.2199 419.39,-85.5156"/>
</g>
<!-- Node20 -->
<g id="node20" class="node"><title>Node20</title>
<g id="a_node20"><a xlink:href="CFluido_8h.xhtml" target="_top" xlink:title="CFluido.h">
<polygon fill="white" stroke="black" points="441.5,-112.5 441.5,-131.5 500.5,-131.5 500.5,-112.5 441.5,-112.5"/>
<text text-anchor="middle" x="471" y="-119.5" font-family="Helvetica,sans-Serif" font-size="10.00">CFluido.h</text>
</a>
</g>
</g>
<!-- Node11&#45;&gt;Node20 -->
<g id="edge34" class="edge"><title>Node11&#45;&gt;Node20</title>
<path fill="none" stroke="midnightblue" d="M434.805,-236.226C441.129,-216.442 456.612,-168.007 465.136,-141.344"/>
<polygon fill="midnightblue" stroke="midnightblue" points="468.509,-142.285 468.221,-131.694 461.842,-140.154 468.509,-142.285"/>
</g>
<!-- Node21 -->
<g id="node21" class="node"><title>Node21</title>
<g id="a_node21"><a xlink:href="CFuncaoConteudoMassicoWl_8h.xhtml" target="_top" xlink:title="CFuncaoConteudoMassicoWl.h">
<polygon fill="white" stroke="black" points="479.5,-174.5 479.5,-193.5 634.5,-193.5 634.5,-174.5 479.5,-174.5"/>
<text text-anchor="middle" x="557" y="-181.5" font-family="Helvetica,sans-Serif" font-size="10.00">CFuncaoConteudoMassicoWl.h</text>
</a>
</g>
</g>
<!-- Node11&#45;&gt;Node21 -->
<g id="edge36" class="edge"><title>Node11&#45;&gt;Node21</title>
<path fill="none" stroke="midnightblue" d="M449.909,-236.403C470.887,-226.334 505.85,-209.552 530.093,-197.915"/>
<polygon fill="midnightblue" stroke="midnightblue" points="531.623,-201.063 539.124,-193.581 528.594,-194.753 531.623,-201.063"/>
</g>
<!-- Node12&#45;&gt;Node2 -->
<g id="edge17" class="edge"><title>Node12&#45;&gt;Node2</title>
<path fill="none" stroke="midnightblue" d="M794.273,-168.986C872.243,-143.713 1020.8,-89.9777 991,-56 971.119,-33.332 770.873,-18.4803 686.339,-13.1752"/>
<polygon fill="midnightblue" stroke="midnightblue" points="686.347,-9.66919 676.151,-12.5471 685.916,-16.6559 686.347,-9.66919"/>
</g>
<!-- Node12&#45;&gt;Node9 -->
<g id="edge18" class="edge"><title>Node12&#45;&gt;Node9</title>
<path fill="none" stroke="midnightblue" d="M813.241,-168.933C863.574,-157.911 932.367,-142.847 977.231,-133.022"/>
<polygon fill="midnightblue" stroke="midnightblue" points="978.24,-136.385 987.259,-130.826 976.742,-129.547 978.24,-136.385"/>
</g>
<!-- Node13 -->
<g id="node13" class="node"><title>Node13</title>
<g id="a_node13"><a xlink:href="CMeioPoroso__Telha_8h.xhtml" target="_top" xlink:title="CMeioPoroso_Telha.h">
<polygon fill="white" stroke="black" points="662.5,-112.5 662.5,-131.5 775.5,-131.5 775.5,-112.5 662.5,-112.5"/>
<text text-anchor="middle" x="719" y="-119.5" font-family="Helvetica,sans-Serif" font-size="10.00">CMeioPoroso_Telha.h</text>
</a>
</g>
</g>
<!-- Node12&#45;&gt;Node13 -->
<g id="edge19" class="edge"><title>Node12&#45;&gt;Node13</title>
<path fill="none" stroke="midnightblue" d="M741.89,-168.781C737.711,-160.422 732.389,-149.777 727.928,-140.856"/>
<polygon fill="midnightblue" stroke="midnightblue" points="730.968,-139.11 723.365,-131.731 724.707,-142.24 730.968,-139.11"/>
</g>
<!-- Node13&#45;&gt;Node2 -->
<g id="edge20" class="edge"><title>Node13&#45;&gt;Node2</title>
<path fill="none" stroke="midnightblue" d="M713.507,-112.368C702.006,-94.2957 675.203,-52.1764 660.014,-28.3074"/>
<polygon fill="midnightblue" stroke="midnightblue" points="662.789,-26.149 654.467,-19.5914 656.883,-29.9071 662.789,-26.149"/>
</g>
<!-- Node14 -->
<g id="node14" class="node"><title>Node14</title>
<g id="a_node14"><a xlink:href="CFuncaoDifusividade_8h.xhtml" target="_top" xlink:title="CFuncaoDifusividade.h">
<polygon fill="white" stroke="black" points="718.5,-56.5 718.5,-75.5 837.5,-75.5 837.5,-56.5 718.5,-56.5"/>
<text text-anchor="middle" x="778" y="-63.5" font-family="Helvetica,sans-Serif" font-size="10.00">CFuncaoDifusividade.h</text>
</a>
</g>
</g>
<!-- Node13&#45;&gt;Node14 -->
<g id="edge21" class="edge"><title>Node13&#45;&gt;Node14</title>
<path fill="none" stroke="midnightblue" d="M728.479,-112.324C737.201,-104.341 750.343,-92.3128 760.898,-82.6529"/>
<polygon fill="midnightblue" stroke="midnightblue" points="763.334,-85.1674 768.348,-75.8339 758.608,-80.0036 763.334,-85.1674"/>
</g>
<!-- Node15 -->
<g id="node15" class="node"><title>Node15</title>
<g id="a_node15"><a xlink:href="CFuncaoCondutividade_8h.xhtml" target="_top" xlink:title="CFuncaoCondutividade.h">
<polygon fill="white" stroke="black" points="855.5,-56.5 855.5,-75.5 982.5,-75.5 982.5,-56.5 855.5,-56.5"/>
<text text-anchor="middle" x="919" y="-63.5" font-family="Helvetica,sans-Serif" font-size="10.00">CFuncaoCondutividade.h</text>
</a>
</g>
</g>
<!-- Node13&#45;&gt;Node15 -->
<g id="edge23" class="edge"><title>Node13&#45;&gt;Node15</title>
<path fill="none" stroke="midnightblue" d="M750.691,-112.444C785.068,-103.162 840.077,-88.3093 877.789,-78.127"/>
<polygon fill="midnightblue" stroke="midnightblue" points="878.716,-81.5022 887.458,-75.5164 876.891,-74.7442 878.716,-81.5022"/>
</g>
<!-- Node16 -->
<g id="node16" class="node"><title>Node16</title>
<g id="a_node16"><a xlink:href="CFuncaoAdsorcao_8h.xhtml" target="_top" xlink:title="CFuncaoAdsorcao.h">
<polygon fill="white" stroke="black" points="556,-56.5 556,-75.5 662,-75.5 662,-56.5 556,-56.5"/>
<text text-anchor="middle" x="609" y="-63.5" font-family="Helvetica,sans-Serif" font-size="10.00">CFuncaoAdsorcao.h</text>
</a>
</g>
</g>
<!-- Node13&#45;&gt;Node16 -->
<g id="edge25" class="edge"><title>Node13&#45;&gt;Node16</title>
<path fill="none" stroke="midnightblue" d="M701.327,-112.324C683.606,-103.625 656.097,-90.1202 635.712,-80.113"/>
<polygon fill="midnightblue" stroke="midnightblue" points="637.149,-76.9195 626.63,-75.6545 634.064,-83.2031 637.149,-76.9195"/>
</g>
<!-- Node14&#45;&gt;Node2 -->
<g id="edge22" class="edge"><title>Node14&#45;&gt;Node2</title>
<path fill="none" stroke="midnightblue" d="M757.56,-56.4435C736.33,-47.5566 702.901,-33.5632 678.745,-23.4514"/>
<polygon fill="midnightblue" stroke="midnightblue" points="679.921,-20.1493 669.345,-19.5164 677.218,-26.6064 679.921,-20.1493"/>
</g>
<!-- Node15&#45;&gt;Node2 -->
<g id="edge24" class="edge"><title>Node15&#45;&gt;Node2</title>
<path fill="none" stroke="midnightblue" d="M876.218,-56.4435C823.882,-45.9763 736.126,-28.4252 686.38,-18.476"/>
<polygon fill="midnightblue" stroke="midnightblue" points="686.86,-15.0028 676.368,-16.4736 685.487,-21.8669 686.86,-15.0028"/>
</g>
<!-- Node16&#45;&gt;Node2 -->
<g id="edge26" class="edge"><title>Node16&#45;&gt;Node2</title>
<path fill="none" stroke="midnightblue" d="M615.605,-56.083C621.255,-48.4554 629.545,-37.2645 636.451,-27.9408"/>
<polygon fill="midnightblue" stroke="midnightblue" points="639.378,-29.87 642.518,-19.7511 633.753,-25.7034 639.378,-29.87"/>
</g>
<!-- Node17&#45;&gt;Node2 -->
<g id="edge28" class="edge"><title>Node17&#45;&gt;Node2</title>
<path fill="none" stroke="midnightblue" d="M335.103,-56.4435C412.744,-45.2033 546.811,-25.7941 611.687,-16.4019"/>
<polygon fill="midnightblue" stroke="midnightblue" points="612.461,-19.8264 621.857,-14.9296 611.458,-12.8986 612.461,-19.8264"/>
</g>
<!-- Node18&#45;&gt;Node2 -->
<g id="edge30" class="edge"><title>Node18&#45;&gt;Node2</title>
<path fill="none" stroke="midnightblue" d="M956.229,-181.842C993.007,-178.145 1041.89,-166.488 1067,-132 1083.63,-109.153 1058.17,-67.2885 1043,-56 987.132,-14.4198 773.497,-10.4552 686.347,-10.6211"/>
<polygon fill="midnightblue" stroke="midnightblue" points="686.109,-7.12188 676.123,-10.661 686.137,-14.1218 686.109,-7.12188"/>
</g>
<!-- Node18&#45;&gt;Node9 -->
<g id="edge31" class="edge"><title>Node18&#45;&gt;Node9</title>
<path fill="none" stroke="midnightblue" d="M925.333,-174.403C944.211,-164.468 975.507,-147.997 997.576,-136.381"/>
<polygon fill="midnightblue" stroke="midnightblue" points="999.478,-139.335 1006.7,-131.581 996.218,-133.141 999.478,-139.335"/>
</g>
<!-- Node19&#45;&gt;Node2 -->
<g id="edge33" class="edge"><title>Node19&#45;&gt;Node2</title>
<path fill="none" stroke="midnightblue" d="M451.236,-56.4435C495.209,-46.3393 567.909,-29.6337 611.845,-19.5377"/>
<polygon fill="midnightblue" stroke="midnightblue" points="612.866,-22.8944 621.828,-17.2437 611.298,-16.0722 612.866,-22.8944"/>
</g>
<!-- Node20&#45;&gt;Node2 -->
<g id="edge35" class="edge"><title>Node20&#45;&gt;Node2</title>
<path fill="none" stroke="midnightblue" d="M474.602,-112.062C480.672,-98.0993 494.242,-71.147 514,-56 542.725,-33.9786 582.788,-22.4242 611.802,-16.5689"/>
<polygon fill="midnightblue" stroke="midnightblue" points="612.77,-19.9484 621.951,-14.6606 611.476,-13.0689 612.77,-19.9484"/>
</g>
<!-- Node21&#45;&gt;Node2 -->
<g id="edge37" class="edge"><title>Node21&#45;&gt;Node2</title>
<path fill="none" stroke="midnightblue" d="M553.02,-174.41C543.548,-152.573 522.242,-93.9831 547,-56 561.27,-34.107 588.861,-22.7899 611.752,-16.9828"/>
<polygon fill="midnightblue" stroke="midnightblue" points="612.575,-20.3851 621.547,-14.7503 611.019,-13.5601 612.575,-20.3851"/>
</g>
<!-- Node21&#45;&gt;Node13 -->
<g id="edge39" class="edge"><title>Node21&#45;&gt;Node13</title>
<path fill="none" stroke="midnightblue" d="M580.211,-174.403C607.999,-164.111 654.723,-146.806 686.194,-135.15"/>
<polygon fill="midnightblue" stroke="midnightblue" points="687.671,-138.336 695.832,-131.581 685.239,-131.772 687.671,-138.336"/>
</g>
<!-- Node21&#45;&gt;Node20 -->
<g id="edge38" class="edge"><title>Node21&#45;&gt;Node20</title>
<path fill="none" stroke="midnightblue" d="M544.678,-174.403C530.884,-164.78 508.301,-149.024 491.768,-137.489"/>
<polygon fill="midnightblue" stroke="midnightblue" points="493.503,-134.432 483.299,-131.581 489.497,-140.173 493.503,-134.432"/>
</g>
</g>
</svg>
        <g id="navigator" transform="translate(0 0)" fill="#404254">
                <rect fill="#f2f5e9" fill-opacity="0.5" stroke="#606060" stroke-width=".5" x="0" y="0" width="60" height="60"/>
                <use id="zoomplus" xlink:href="#zoomPlus" x="17" y="9" onmousedown="handleZoom(evt,'in')"/>
                <use id="zoomminus" xlink:href="#zoomMin" x="42" y="9" onmousedown="handleZoom(evt,'out')"/>
                <use id="reset" xlink:href="#resetDef" x="30" y="36" onmousedown="handleReset()"/>
                <g id="arrowUp" xlink:href="#dirArrow" transform="translate(30 24)" onmousedown="handlePan(0,-1)">
                  <use xlink:href="#rim" fill="#404040">
                        <set attributeName="fill" to="#808080" begin="arrowUp.mouseover" end="arrowUp.mouseout"/>
                  </use>
                  <path fill="none" stroke="white" stroke-width="1.5" d="M0,-3.0v7 M-2.5,-0.5L0,-3.0L2.5,-0.5"/>
                </g>
                <g id="arrowRight" xlink:href="#dirArrow" transform="rotate(90) translate(36 -43)" onmousedown="handlePan(1,0)">
                  <use xlink:href="#rim" fill="#404040">
                        <set attributeName="fill" to="#808080" begin="arrowRight.mouseover" end="arrowRight.mouseout"/>
                  </use>
                  <path fill="none" stroke="white" stroke-width="1.5" d="M0,-3.0v7 M-2.5,-0.5L0,-3.0L2.5,-0.5"/>
                </g>
                <g id="arrowDown" xlink:href="#dirArrow" transform="rotate(180) translate(-30 -48)" onmousedown="handlePan(0,1)">
                  <use xlink:href="#rim" fill="#404040">
                        <set attributeName="fill" to="#808080" begin="arrowDown.mouseover" end="arrowDown.mouseout"/>
                  </use>
                  <path fill="none" stroke="white" stroke-width="1.5" d="M0,-3.0v7 M-2.5,-0.5L0,-3.0L2.5,-0.5"/>
                </g>
                <g id="arrowLeft" xlink:href="#dirArrow" transform="rotate(270) translate(-36 17)" onmousedown="handlePan(-1,0)">
                  <use xlink:href="#rim" fill="#404040">
                        <set attributeName="fill" to="#808080" begin="arrowLeft.mouseover" end="arrowLeft.mouseout"/>
                  </use>
                  <path fill="none" stroke="white" stroke-width="1.5" d="M0,-3.0v7 M-2.5,-0.5L0,-3.0L2.5,-0.5"/>
                </g>
        </g>
        <svg viewBox="0 0 15 15" width="100%" height="30px" preserveAspectRatio="xMaxYMin meet">
         <g id="arrow_out" transform="scale(0.3 0.3)">
          <a xlink:href="main_8cpp__incl_org.svg" target="_base">
           <rect id="button" ry="5" rx="5" y="6" x="6" height="38" width="38"
                fill="#f2f5e9" fill-opacity="0.5" stroke="#606060" stroke-width="1.0"/>
           <path id="arrow"
             d="M 11.500037,31.436501 C 11.940474,20.09759 22.043105,11.32322 32.158766,21.979434 L 37.068811,17.246167 C 37.068811,17.246167 37.088388,32 37.088388,32 L 22.160133,31.978069 C 22.160133,31.978069 26.997745,27.140456 26.997745,27.140456 C 18.528582,18.264221 13.291696,25.230495 11.500037,31.436501 z"
             style="fill:#404040;"/>
          </a>
         </g>
        </svg>
</svg>
