<?xml version="1.0" encoding="UTF-8" standalone="no"?>
<!DOCTYPE svg PUBLIC "-//W3C//DTD SVG 1.1//EN"
 "http://www.w3.org/Graphics/SVG/1.1/DTD/svg11.dtd">
<!-- Generated by graphviz version 2.34.0 (20140110.0949)
 -->
<!-- Title: src/Simulat&#45;SimuladorTelhaMestrado&#45;v4.cpp Pages: 1 -->
<svg width="327pt" height="96pt"
 viewBox="0.00 0.00 327.00 96.00" xmlns="http://www.w3.org/2000/svg" xmlns:xlink="http://www.w3.org/1999/xlink">
<g id="graph0" class="graph" transform="scale(1 1) rotate(0) translate(4 92)">
<title>src/Simulat&#45;SimuladorTelhaMestrado&#45;v4.cpp</title>
<polygon fill="white" stroke="white" points="-4,4 -4,-92 323,-92 323,4 -4,4"/>
<!-- Node1 -->
<g id="node1" class="node"><title>Node1</title>
<polygon fill="#bfbfbf" stroke="black" points="93.5,-57 93.5,-87 230.5,-87 230.5,-57 93.5,-57"/>
<text text-anchor="start" x="101.5" y="-75" font-family="Helvetica,sans-Serif" font-size="10.00">src/Simulat&#45;SimuladorTelha</text>
<text text-anchor="middle" x="162" y="-64" font-family="Helvetica,sans-Serif" font-size="10.00">Mestrado&#45;v4.cpp</text>
</g>
<!-- Node2 -->
<g id="node2" class="node"><title>Node2</title>
<polygon fill="white" stroke="#bfbfbf" points="-0.5,-0.5 -0.5,-19.5 48.5,-19.5 48.5,-0.5 -0.5,-0.5"/>
<text text-anchor="middle" x="24" y="-7.5" font-family="Helvetica,sans-Serif" font-size="10.00">cassert</text>
</g>
<!-- Node1&#45;&gt;Node2 -->
<g id="edge1" class="edge"><title>Node1&#45;&gt;Node2</title>
<path fill="none" stroke="midnightblue" d="M129.645,-56.9327C106.467,-46.8552 75.5169,-33.3986 53.1122,-23.6575"/>
<polygon fill="midnightblue" stroke="midnightblue" points="54.3463,-20.3776 43.7801,-19.6 51.5552,-26.7971 54.3463,-20.3776"/>
</g>
<!-- Node3 -->
<g id="node3" class="node"><title>Node3</title>
<polygon fill="white" stroke="#bfbfbf" points="67,-0.5 67,-19.5 117,-19.5 117,-0.5 67,-0.5"/>
<text text-anchor="middle" x="92" y="-7.5" font-family="Helvetica,sans-Serif" font-size="10.00">fstream</text>
</g>
<!-- Node1&#45;&gt;Node3 -->
<g id="edge2" class="edge"><title>Node1&#45;&gt;Node3</title>
<path fill="none" stroke="midnightblue" d="M145.411,-56.7808C134.715,-47.6127 120.812,-35.6957 109.872,-26.3186"/>
<polygon fill="midnightblue" stroke="midnightblue" points="112.056,-23.5811 102.186,-19.7305 107.5,-28.8959 112.056,-23.5811"/>
</g>
<!-- Node4 -->
<g id="node4" class="node"><title>Node4</title>
<polygon fill="white" stroke="#bfbfbf" points="135,-0.5 135,-19.5 189,-19.5 189,-0.5 135,-0.5"/>
<text text-anchor="middle" x="162" y="-7.5" font-family="Helvetica,sans-Serif" font-size="10.00">iostream</text>
</g>
<!-- Node1&#45;&gt;Node4 -->
<g id="edge3" class="edge"><title>Node1&#45;&gt;Node4</title>
<path fill="none" stroke="midnightblue" d="M162,-56.7808C162,-48.7812 162,-38.6887 162,-30.0168"/>
<polygon fill="midnightblue" stroke="midnightblue" points="165.5,-29.7305 162,-19.7305 158.5,-29.7306 165.5,-29.7305"/>
</g>
<!-- Node5 -->
<g id="node5" class="node"><title>Node5</title>
<polygon fill="white" stroke="#bfbfbf" points="207,-0.5 207,-19.5 257,-19.5 257,-0.5 207,-0.5"/>
<text text-anchor="middle" x="232" y="-7.5" font-family="Helvetica,sans-Serif" font-size="10.00">iomanip</text>
</g>
<!-- Node1&#45;&gt;Node5 -->
<g id="edge4" class="edge"><title>Node1&#45;&gt;Node5</title>
<path fill="none" stroke="midnightblue" d="M178.589,-56.7808C189.285,-47.6127 203.188,-35.6957 214.128,-26.3186"/>
<polygon fill="midnightblue" stroke="midnightblue" points="216.5,-28.8959 221.814,-19.7305 211.944,-23.5811 216.5,-28.8959"/>
</g>
<!-- Node6 -->
<g id="node6" class="node"><title>Node6</title>
<polygon fill="white" stroke="#bfbfbf" points="275,-0.5 275,-19.5 319,-19.5 319,-0.5 275,-0.5"/>
<text text-anchor="middle" x="297" y="-7.5" font-family="Helvetica,sans-Serif" font-size="10.00">cmath</text>
</g>
<!-- Node1&#45;&gt;Node6 -->
<g id="edge5" class="edge"><title>Node1&#45;&gt;Node6</title>
<path fill="none" stroke="midnightblue" d="M193.652,-56.9327C216.224,-46.9004 246.332,-33.5193 268.225,-23.7888"/>
<polygon fill="midnightblue" stroke="midnightblue" points="269.933,-26.8598 277.65,-19.6 267.09,-20.4631 269.933,-26.8598"/>
</g>
</g>
</svg>
