<?xml version="1.0" encoding="UTF-8" standalone="no"?>
<!DOCTYPE svg PUBLIC "-//W3C//DTD SVG 1.1//EN"
 "http://www.w3.org/Graphics/SVG/1.1/DTD/svg11.dtd">
<!-- Generated by graphviz version 2.34.0 (20140110.0949)
 -->
<!-- Title: Carimbo Pages: 1 -->
<svg width="614pt" height="485pt"
 viewBox="0.00 0.00 614.00 485.00" xmlns="http://www.w3.org/2000/svg" xmlns:xlink="http://www.w3.org/1999/xlink">
<g id="graph0" class="graph" transform="scale(1 1) rotate(0) translate(4 481)">
<title>Carimbo</title>
<polygon fill="white" stroke="white" points="-4,4 -4,-481 610,-481 610,4 -4,4"/>
<!-- Node1 -->
<g id="node1" class="node"><title>Node1</title>
<polygon fill="#bfbfbf" stroke="black" points="0.5,-245.5 0.5,-264.5 53.5,-264.5 53.5,-245.5 0.5,-245.5"/>
<text text-anchor="middle" x="27" y="-252.5" font-family="Helvetica,sans-Serif" font-size="10.00">Carimbo</text>
</g>
<!-- Node2 -->
<g id="node2" class="node"><title>Node2</title>
<g id="a_node2"><a xlink:href="classCFuncoesClima.xhtml#a7f03fe9f4313e2a03e36f33b54a71936" target="_top" xlink:title="Entrada de dados. ">
<polygon fill="white" stroke="black" points="90,-447 90,-477 238,-477 238,-447 90,-447"/>
<text text-anchor="start" x="98" y="-465" font-family="Helvetica,sans-Serif" font-size="10.00">CFuncoesClima::EntrarDados</text>
<text text-anchor="middle" x="164" y="-454" font-family="Helvetica,sans-Serif" font-size="10.00">Objeto</text>
</a>
</g>
</g>
<!-- Node1&#45;&gt;Node2 -->
<g id="edge1" class="edge"><title>Node1&#45;&gt;Node2</title>
<path fill="none" stroke="midnightblue" d="M29.1907,-274.861C32.4681,-311.844 44.6886,-391.615 90,-437 93.8806,-440.887 98.3907,-444.17 103.229,-446.943"/>
<polygon fill="midnightblue" stroke="midnightblue" points="32.6774,-274.551 28.434,-264.843 25.6972,-275.078 32.6774,-274.551"/>
</g>
<!-- Node3 -->
<g id="node3" class="node"><title>Node3</title>
<g id="a_node3"><a xlink:href="classCMeioPoroso__Telha.xhtml#a70735fb3dc927168aca84bb0cecb0023" target="_top" xlink:title="Entrada de dados. ">
<polygon fill="white" stroke="black" points="108.5,-398 108.5,-428 219.5,-428 219.5,-398 108.5,-398"/>
<text text-anchor="start" x="116.5" y="-416" font-family="Helvetica,sans-Serif" font-size="10.00">CMeioPoroso_Telha::</text>
<text text-anchor="middle" x="164" y="-405" font-family="Helvetica,sans-Serif" font-size="10.00">EntrarDadosObjeto</text>
</a>
</g>
</g>
<!-- Node1&#45;&gt;Node3 -->
<g id="edge2" class="edge"><title>Node1&#45;&gt;Node3</title>
<path fill="none" stroke="midnightblue" d="M32.6886,-274.457C40.28,-302.084 57.7682,-352.681 90,-383 96.3875,-389.008 104.144,-393.888 112.185,-397.827"/>
<polygon fill="midnightblue" stroke="midnightblue" points="36.075,-273.573 30.1773,-264.771 29.299,-275.33 36.075,-273.573"/>
</g>
<!-- Node4 -->
<g id="node4" class="node"><title>Node4</title>
<g id="a_node4"><a xlink:href="classCMeioPoroso__Telha__Discretizada__TDMA.xhtml#aaec5a7e2f667ae2c8dccdafa5938aea9" target="_top" xlink:title="Entrada de dados. ">
<polygon fill="white" stroke="black" points="274.5,-360 274.5,-390 439.5,-390 439.5,-360 274.5,-360"/>
<text text-anchor="start" x="282.5" y="-378" font-family="Helvetica,sans-Serif" font-size="10.00">CMeioPoroso_Telha_Discretizada</text>
<text text-anchor="middle" x="357" y="-367" font-family="Helvetica,sans-Serif" font-size="10.00">_TDMA::EntrarDadosObjeto</text>
</a>
</g>
</g>
<!-- Node1&#45;&gt;Node4 -->
<g id="edge8" class="edge"><title>Node1&#45;&gt;Node4</title>
<path fill="none" stroke="midnightblue" d="M35.3194,-273.944C44.593,-295.143 62.7274,-328.654 90,-345 145.209,-378.089 218.538,-384.156 274.221,-382.754"/>
<polygon fill="midnightblue" stroke="midnightblue" points="38.5339,-272.558 31.4775,-264.655 32.0653,-275.234 38.5339,-272.558"/>
</g>
<!-- Node5 -->
<g id="node5" class="node"><title>Node5</title>
<g id="a_node5"><a xlink:href="classCSimulador__Telha.xhtml#ad3ec0d6df9f0f7325de23d6a04e3b76a" target="_top" xlink:title="Entrada de dados. ">
<polygon fill="white" stroke="black" points="476.5,-316 476.5,-346 605.5,-346 605.5,-316 476.5,-316"/>
<text text-anchor="start" x="484.5" y="-334" font-family="Helvetica,sans-Serif" font-size="10.00">CSimulador_Telha::Entrar</text>
<text text-anchor="middle" x="541" y="-323" font-family="Helvetica,sans-Serif" font-size="10.00">DadosObjeto</text>
</a>
</g>
</g>
<!-- Node1&#45;&gt;Node5 -->
<g id="edge9" class="edge"><title>Node1&#45;&gt;Node5</title>
<path fill="none" stroke="midnightblue" d="M41.5767,-272.998C52.8821,-286.434 70.2763,-303.828 90,-312 157.995,-340.173 369.324,-337.186 476.417,-333.632"/>
<polygon fill="midnightblue" stroke="midnightblue" points="44.0501,-270.487 35.0634,-264.876 38.5892,-274.867 44.0501,-270.487"/>
</g>
<!-- Node6 -->
<g id="node6" class="node"><title>Node6</title>
<g id="a_node6"><a xlink:href="classCFluido.xhtml#a86b2d6d0cb5b81d50d976385aa69dcf8" target="_top" xlink:title="Entrada de dados. ">
<polygon fill="white" stroke="black" points="94,-283.5 94,-302.5 234,-302.5 234,-283.5 94,-283.5"/>
<text text-anchor="middle" x="164" y="-290.5" font-family="Helvetica,sans-Serif" font-size="10.00">CFluido::EntrarDadosObjeto</text>
</a>
</g>
</g>
<!-- Node1&#45;&gt;Node6 -->
<g id="edge5" class="edge"><title>Node1&#45;&gt;Node6</title>
<path fill="none" stroke="midnightblue" d="M63.5282,-265.001C83.8465,-270.72 109.191,-277.854 129.211,-283.489"/>
<polygon fill="midnightblue" stroke="midnightblue" points="64.2845,-261.577 53.7102,-262.237 62.3878,-268.316 64.2845,-261.577"/>
</g>
<!-- Node7 -->
<g id="node7" class="node"><title>Node7</title>
<g id="a_node7"><a xlink:href="classCTransferenciaCalorMassa.xhtml#a07a41f40068191679771e44309b75beb" target="_top" xlink:title="Entrada de dados. ">
<polygon fill="white" stroke="black" points="289,-256 289,-286 425,-286 425,-256 289,-256"/>
<text text-anchor="start" x="297" y="-274" font-family="Helvetica,sans-Serif" font-size="10.00">CTransferenciaCalorMassa</text>
<text text-anchor="middle" x="357" y="-263" font-family="Helvetica,sans-Serif" font-size="10.00">::EntrarDadosObjeto</text>
</a>
</g>
</g>
<!-- Node1&#45;&gt;Node7 -->
<g id="edge6" class="edge"><title>Node1&#45;&gt;Node7</title>
<path fill="none" stroke="midnightblue" d="M63.8413,-256.748C117.748,-259.378 220.628,-264.396 288.783,-267.721"/>
<polygon fill="midnightblue" stroke="midnightblue" points="63.8963,-253.247 53.7376,-256.255 63.5552,-260.239 63.8963,-253.247"/>
</g>
<!-- Node8 -->
<g id="node8" class="node"><title>Node8</title>
<g id="a_node8"><a xlink:href="classCInterfaceSimuladorTelha.xhtml#ab7c2c609bbc63c85f7f69c8f88782f79" target="_top" xlink:title="Entrada de dados. ">
<polygon fill="white" stroke="black" points="99,-196 99,-226 229,-226 229,-196 99,-196"/>
<text text-anchor="start" x="107" y="-214" font-family="Helvetica,sans-Serif" font-size="10.00">CInterfaceSimuladorTelha</text>
<text text-anchor="middle" x="164" y="-203" font-family="Helvetica,sans-Serif" font-size="10.00">::EntrarDadosObjeto</text>
</a>
</g>
</g>
<!-- Node1&#45;&gt;Node8 -->
<g id="edge10" class="edge"><title>Node1&#45;&gt;Node8</title>
<path fill="none" stroke="midnightblue" d="M63.4209,-243.455C79.7739,-238.126 99.4,-231.729 116.89,-226.029"/>
<polygon fill="midnightblue" stroke="midnightblue" points="62.1334,-240.194 53.7102,-246.62 64.3026,-246.849 62.1334,-240.194"/>
</g>
<!-- Node9 -->
<g id="node9" class="node"><title>Node9</title>
<g id="a_node9"><a xlink:href="classCInterfaceSimuladorTelha.xhtml#a6f9b30a6da8b37ca6d2044a7653fd8c1" target="_top" xlink:title="Finaliza apresentacao resultados. ">
<polygon fill="white" stroke="black" points="99,-147 99,-177 229,-177 229,-147 99,-147"/>
<text text-anchor="start" x="107" y="-165" font-family="Helvetica,sans-Serif" font-size="10.00">CInterfaceSimuladorTelha</text>
<text text-anchor="middle" x="164" y="-154" font-family="Helvetica,sans-Serif" font-size="10.00">::FimSaida</text>
</a>
</g>
</g>
<!-- Node1&#45;&gt;Node9 -->
<g id="edge11" class="edge"><title>Node1&#45;&gt;Node9</title>
<path fill="none" stroke="midnightblue" d="M40.2999,-237.089C51.6134,-221.837 69.6787,-200.335 90,-187 95.824,-183.178 102.294,-179.877 108.907,-177.044"/>
<polygon fill="midnightblue" stroke="midnightblue" points="37.439,-235.073 34.4529,-245.238 43.1265,-239.154 37.439,-235.073"/>
</g>
<!-- Node10 -->
<g id="node10" class="node"><title>Node10</title>
<g id="a_node10"><a xlink:href="classCInterfaceSimuladorTelha.xhtml#a9bcae5d4ebe43285a7dd220df94a26c6" target="_top" xlink:title="Tela inicial. ">
<polygon fill="white" stroke="black" points="99,-98 99,-128 229,-128 229,-98 99,-98"/>
<text text-anchor="start" x="107" y="-116" font-family="Helvetica,sans-Serif" font-size="10.00">CInterfaceSimuladorTelha</text>
<text text-anchor="middle" x="164" y="-105" font-family="Helvetica,sans-Serif" font-size="10.00">::FolhaRosto</text>
</a>
</g>
</g>
<!-- Node1&#45;&gt;Node10 -->
<g id="edge12" class="edge"><title>Node1&#45;&gt;Node10</title>
<path fill="none" stroke="midnightblue" d="M33.3828,-235.506C41.4899,-209.656 59.2529,-164.253 90,-138 94.4826,-134.173 99.5808,-130.922 104.951,-128.164"/>
<polygon fill="midnightblue" stroke="midnightblue" points="29.9737,-234.692 30.4898,-245.274 36.6855,-236.679 29.9737,-234.692"/>
</g>
<!-- Node11 -->
<g id="node11" class="node"><title>Node11</title>
<g id="a_node11"><a xlink:href="classCInterfaceSimuladorTelha.xhtml#a097471c7e5fbbfda346be44876fd1ea3" target="_top" xlink:title="Inicia apresentacao resultados. ">
<polygon fill="white" stroke="black" points="99,-49 99,-79 229,-79 229,-49 99,-49"/>
<text text-anchor="start" x="107" y="-67" font-family="Helvetica,sans-Serif" font-size="10.00">CInterfaceSimuladorTelha</text>
<text text-anchor="middle" x="164" y="-56" font-family="Helvetica,sans-Serif" font-size="10.00">::InicioSaida</text>
</a>
</g>
</g>
<!-- Node1&#45;&gt;Node11 -->
<g id="edge13" class="edge"><title>Node1&#45;&gt;Node11</title>
<path fill="none" stroke="midnightblue" d="M29.9768,-234.992C34.4403,-200.455 48.3969,-129.474 90,-89 93.9368,-85.17 98.485,-81.9256 103.348,-79.1774"/>
<polygon fill="midnightblue" stroke="midnightblue" points="26.4671,-234.876 28.8008,-245.211 33.4212,-235.676 26.4671,-234.876"/>
</g>
<!-- Node12 -->
<g id="node12" class="node"><title>Node12</title>
<g id="a_node12"><a xlink:href="classCInterfaceSimuladorTelha.xhtml#a6dceb4805861b576b5753aa5a436afc0" target="_top" xlink:title="Função de help/ajuda. ">
<polygon fill="white" stroke="black" points="99,-0 99,-30 229,-30 229,-0 99,-0"/>
<text text-anchor="start" x="107" y="-18" font-family="Helvetica,sans-Serif" font-size="10.00">CInterfaceSimuladorTelha</text>
<text text-anchor="middle" x="164" y="-7" font-family="Helvetica,sans-Serif" font-size="10.00">::Leiame</text>
</a>
</g>
</g>
<!-- Node1&#45;&gt;Node12 -->
<g id="edge14" class="edge"><title>Node1&#45;&gt;Node12</title>
<path fill="none" stroke="midnightblue" d="M27.8575,-235.243C28.6476,-193.29 36.4661,-94.6141 90,-39 93.3307,-35.5398 97.1683,-32.5783 101.304,-30.0434"/>
<polygon fill="midnightblue" stroke="midnightblue" points="24.3574,-235.25 27.7876,-245.274 31.3572,-235.299 24.3574,-235.25"/>
</g>
<!-- Node3&#45;&gt;Node4 -->
<g id="edge3" class="edge"><title>Node3&#45;&gt;Node4</title>
<path fill="none" stroke="midnightblue" d="M229.664,-400.135C245.923,-396.9 263.518,-393.4 280.264,-390.068"/>
<polygon fill="midnightblue" stroke="midnightblue" points="228.858,-396.727 219.733,-402.111 230.224,-403.592 228.858,-396.727"/>
</g>
<!-- Node4&#45;&gt;Node5 -->
<g id="edge4" class="edge"><title>Node4&#45;&gt;Node5</title>
<path fill="none" stroke="midnightblue" d="M429.877,-357.623C445.737,-353.789 462.409,-349.758 477.846,-346.026"/>
<polygon fill="midnightblue" stroke="midnightblue" points="429.023,-354.229 420.125,-359.981 430.668,-361.033 429.023,-354.229"/>
</g>
<!-- Node7&#45;&gt;Node5 -->
<g id="edge7" class="edge"><title>Node7&#45;&gt;Node5</title>
<path fill="none" stroke="midnightblue" d="M413.603,-289.331C439.488,-297.864 469.899,-307.89 494.404,-315.968"/>
<polygon fill="midnightblue" stroke="midnightblue" points="414.519,-285.948 403.926,-286.141 412.328,-292.596 414.519,-285.948"/>
</g>
</g>
</svg>
